<?xml version="1.0" standalone="no"?>
<!DOCTYPE svg PUBLIC "-//W3C//DTD SVG 1.1//EN" "http://www.w3.org/Graphics/SVG/1.1/DTD/svg11.dtd" >
<svg xmlns="http://www.w3.org/2000/svg" xmlns:xlink="http://www.w3.org/1999/xlink" version="1.1">
<metadata>
Created by FontForge 20170731 at Tue May 29 16:58:27 2018
 By Aleksey,,,
copyright missing
</metadata>
<defs>
<font id="Myste-Regular" horiz-adv-x="550" >
  <font-face 
    font-family="Myste"
    font-weight="400"
    font-stretch="semi-condensed"
    units-per-em="1000"
    panose-1="0 0 0 0 0 0 0 0 0 0"
    ascent="800"
    descent="-200"
    x-height="500"
    cap-height="723"
    bbox="20 -207 901 915"
    underline-thickness="50"
    underline-position="-200"
    unicode-range="U+0020-2265"
  />
<missing-glyph horiz-adv-x="95" 
 />
    <glyph glyph-name=".notdef" horiz-adv-x="95" 
 />
    <glyph glyph-name=".null" horiz-adv-x="0" 
 />
    <glyph glyph-name="nonmarkingreturn" horiz-adv-x="333" 
 />
    <glyph glyph-name="space" unicode=" " horiz-adv-x="290" 
 />
    <glyph glyph-name="exclam" unicode="!" horiz-adv-x="204" 
d="M64 213v510h75v-510h-75zM45 57q0 23 17.5 40t39.5 17t39.5 -17t17.5 -40t-17.5 -40t-39.5 -17t-39.5 17t-17.5 40z" />
    <glyph glyph-name="quotedbl" unicode="&#x22;" horiz-adv-x="277" 
d="M40 500v249h60v-249h-60zM177 500v249h60v-249h-60z" />
    <glyph glyph-name="numbersign" unicode="#" horiz-adv-x="683" 
d="M40 206v70h111l36 154h-97v70h114l53 223h80l-53 -223h167l53 223h80l-53 -223h112v-70h-129l-36 -154h115v-70h-132l-49 -206h-80l49 206h-167l-49 -206h-80l49 206h-94zM231 276h167l36 154h-167z" />
    <glyph glyph-name="dollar" unicode="$" horiz-adv-x="572" 
d="M517 191q0 -70 -51.5 -125t-133.5 -69v-52h-76v50q-83 9 -142 65t-59 133h84q2 -50 35.5 -83t81.5 -43v284l-8 4q-81 36 -123.5 80.5t-42.5 117.5q0 76 48.5 121t126.5 54v45h76v-45q82 -11 127 -61.5t45 -136.5h-76q-7 107 -96 125v-247q94 -43 139 -92t45 -125z
M160 555q0 -43 25.5 -69t71.5 -46v217q-42 -9 -69.5 -37t-27.5 -65zM332 70q45 12 75.5 44.5t30.5 75.5q0 36 -25.5 65t-80.5 59v-244z" />
    <glyph glyph-name="percent" unicode="%" horiz-adv-x="816" 
d="M344 552q0 -92 -44.5 -136t-107.5 -44t-107.5 44t-44.5 136t44.5 135t107.5 43t107.5 -43t44.5 -135zM227 0h-89l453 723h90zM280 552q0 123 -88 123q-89 0 -89 -123q0 -124 89 -124q88 0 88 124zM776 173q0 -92 -44.5 -136t-107.5 -44t-107.5 44t-44.5 136t44.5 135
t107.5 43t107.5 -43t44.5 -135zM713 173q0 123 -89 123t-89 -123q0 -124 89 -124t89 124z" />
    <glyph glyph-name="ampersand" unicode="&#x26;" horiz-adv-x="712" 
d="M465 121q-57 -67 -107 -97.5t-110 -30.5q-90 0 -149 58t-59 146q0 63 36.5 110t119.5 96q-86 84 -86 161q0 73 50.5 119.5t120.5 46.5t117.5 -50.5t47.5 -119.5q0 -31 -11.5 -58.5t-33.5 -49t-40.5 -35.5t-46.5 -31l141 -148l41 53h100l-84 -108l185 -183h-110zM188 562
q0 -33 18 -60.5t57 -63.5q59 35 81 59.5t22 56.5q0 42 -26.5 74t-60.5 32q-38 0 -64.5 -28.5t-26.5 -69.5zM122 196q0 -56 40.5 -93.5t88.5 -37.5q38 0 74 26.5t84 83.5l-168 175q-66 -40 -92.5 -74t-26.5 -80z" />
    <glyph glyph-name="quotesingle" unicode="'" horiz-adv-x="140" 
d="M40 500v249h60v-249h-60z" />
    <glyph glyph-name="parenleft" unicode="(" horiz-adv-x="316" 
d="M296 756h-84q-177 -225 -177 -482q0 -256 177 -481h84q-184 234 -184 481q0 248 184 482z" />
    <glyph glyph-name="parenright" unicode=")" horiz-adv-x="316" 
d="M35 756q184 -234 184 -482q0 -247 -184 -481h84q177 225 177 481q0 257 -177 482h-84z" />
    <glyph glyph-name="asterisk" unicode="*" horiz-adv-x="406" 
d="M376 564l-31 -55l-116 74l7 -138h-66l8 139l-118 -76l-30 55l124 62l-123 62l30 55l117 -74l-8 138h66l-8 -138l116 74l31 -55l-116 -62z" />
    <glyph glyph-name="plus" unicode="+" horiz-adv-x="534" 
d="M307 211v-211h-80v211h-197v78h197v211h80v-211h197v-78h-197z" />
    <glyph glyph-name="comma" unicode="," horiz-adv-x="245" 
d="M108 78h111l-125 -205h-71z" />
    <glyph glyph-name="hyphen" unicode="-" horiz-adv-x="359" 
d="M30 250v70h299v-70h-299z" />
    <glyph glyph-name="period" unicode="." horiz-adv-x="168" 
d="M27 57q0 23 17.5 40t39.5 17t39.5 -17t17.5 -40t-17.5 -40t-39.5 -17t-39.5 17t-17.5 40z" />
    <glyph glyph-name="slash" unicode="/" horiz-adv-x="481" 
d="M129 0h-89l312 723h89z" />
    <glyph glyph-name="zero" unicode="0" horiz-adv-x="608" 
d="M558 361q0 -176 -65.5 -272t-188.5 -96t-188.5 96t-65.5 272t65.5 272.5t188.5 96.5t188.5 -96.5t65.5 -272.5zM477 361q0 133 -41.5 215t-131.5 82t-131.5 -83t-41.5 -214q0 -85 16 -148.5t56 -105.5t101 -42q62 0 102 42.5t55.5 106t15.5 147.5z" />
    <glyph glyph-name="one" unicode="1" horiz-adv-x="385" 
d="M77 515l2 101l136 107h79l1 -723h-80v625l-137 -110h-1z" />
    <glyph glyph-name="two" unicode="2" horiz-adv-x="525" 
d="M154 77v-1l311 2v-78h-409v84l205 236q74 84 94 117q31 51 31 101q0 54 -38 85.5t-91 31.5t-86.5 -33t-33.5 -91h-82q0 93 53.5 146t149.5 53q95 0 153.5 -53.5t58.5 -135.5q0 -48 -19 -93t-42.5 -75.5t-67.5 -80.5q-11 -12 -17 -19z" />
    <glyph glyph-name="three" unicode="3" horiz-adv-x="580" 
d="M433 208q0 128 -165 128h-25v76h21q150 0 150 125q0 54 -41 86.5t-95 32.5q-51 0 -88 -30t-37 -89h-83q0 86 59 139.5t154 53.5q94 0 154 -52.5t60 -131.5q0 -57 -25.5 -101t-77.5 -65q122 -38 122 -170q0 -100 -62 -158.5t-172 -58.5q-97 0 -162 63.5t-65 167.5h83
q0 -73 44 -115t102 -42q71 0 110 38t39 103z" />
    <glyph glyph-name="four" unicode="4" horiz-adv-x="569" 
d="M131 228v-1h185v184h79v-184h149v-75h-149v-152h-79v152h-286v61l248 510h89z" />
    <glyph glyph-name="five" unicode="5" horiz-adv-x="578" 
d="M63 185h83q10 -55 49 -86.5t95 -31.5q76 0 112.5 51t36.5 132q0 70 -38 120.5t-107 50.5q-49 0 -84.5 -27.5t-53.5 -70.5h-82v400h432v-78h-350v-213h1q18 26 55.5 45.5t81.5 19.5q109 0 167.5 -71t58.5 -176q0 -114 -61 -185.5t-169 -71.5q-94 0 -154.5 53t-72.5 139z
" />
    <glyph glyph-name="six" unicode="6" horiz-adv-x="556" 
d="M45 348q0 71 5 123t20.5 103.5t42.5 83.5t72.5 52t108.5 20q89 0 142 -42t66 -110h-83q-11 36 -46 57t-83 21q-92 0 -130 -72t-39 -203h1q9 30 58 61.5t111 31.5q107 0 166 -67.5t59 -160.5q0 -253 -225 -253q-246 0 -246 355zM137 241q0 -79 42 -126.5t112 -47.5
q145 0 145 178q0 60 -37 107.5t-109 47.5q-70 0 -111.5 -44.5t-41.5 -114.5z" />
    <glyph glyph-name="seven" unicode="7" horiz-adv-x="500" 
d="M470 723l-1 -77l-248 -646h-86l249 646h-359v77h445z" />
    <glyph glyph-name="eight" unicode="8" horiz-adv-x="525" 
d="M50 191q0 63 21 100.5t70 70.5q-48 34 -68.5 71.5t-20.5 98.5q0 96 60.5 147t150.5 51t150.5 -51t60.5 -147q0 -61 -20.5 -99t-69.5 -71q49 -34 69.5 -71.5t20.5 -99.5q0 -97 -60.5 -147.5t-151.5 -50.5t-151.5 50.5t-60.5 147.5zM132 532q0 -64 36 -99.5t95 -35.5
t95 35.5t36 99.5q0 57 -36.5 89t-94.5 32t-94.5 -32t-36.5 -89zM130 191q0 -57 36.5 -89t95.5 -32t95.5 32t36.5 89q0 66 -36 101t-96 35t-96 -35t-36 -101z" />
    <glyph glyph-name="nine" unicode="9" horiz-adv-x="556" 
d="M516 375q0 -71 -5 -123t-20.5 -103.5t-42.5 -83.5t-72.5 -52t-108.5 -20q-89 0 -142 42t-66 110h83q11 -36 46.5 -57t82.5 -21q92 0 130 72t39 203h-1q-9 -30 -58 -61.5t-111 -31.5q-107 0 -166 67.5t-59 160.5q0 253 225 253q246 0 246 -355zM424 482q0 79 -42 126.5
t-112 47.5q-145 0 -145 -178q0 -60 37 -107.5t109 -47.5q70 0 111.5 44.5t41.5 114.5z" />
    <glyph glyph-name="colon" unicode=":" horiz-adv-x="184" 
d="M35 443q0 23 17.5 40t39.5 17t39.5 -17t17.5 -40t-17.5 -40t-39.5 -17t-39.5 17t-17.5 40zM35 57q0 23 17.5 40t39.5 17t39.5 -17t17.5 -40t-17.5 -40t-39.5 -17t-39.5 17t-17.5 40z" />
    <glyph glyph-name="semicolon" unicode=";" horiz-adv-x="250" 
d="M91 443q0 23 17.5 40t39.5 17t39.5 -17t17.5 -40t-17.5 -40t-39.5 -17t-39.5 17t-17.5 40zM108 78h111l-125 -205h-71z" />
    <glyph glyph-name="less" unicode="&#x3c;" horiz-adv-x="557" 
d="M30 214v68l477 218v-91l-371 -161l371 -158v-90z" />
    <glyph glyph-name="equal" unicode="=" horiz-adv-x="589" 
d="M50 306v70h489v-70h-489zM50 128v70h489v-70h-489z" />
    <glyph glyph-name="greater" unicode="&#x3e;" horiz-adv-x="557" 
d="M527 214l-477 -214v90l371 158l-371 161v91l477 -218v-68z" />
    <glyph glyph-name="question" unicode="?" horiz-adv-x="502" 
d="M271 413q52 38 76.5 72t24.5 76q0 57 -33.5 89t-85.5 32q-61 0 -92.5 -40t-31.5 -103h-74q0 93 53.5 155t144.5 62q85 0 139.5 -55.5t54.5 -137.5q0 -121 -102 -193q-43 -30 -63.5 -54.5t-20.5 -58.5v-33h-80v28q0 93 90 161zM162 50q0 22 17 39.5t40 17.5t40 -17.5
t17 -39.5t-17 -39.5t-40 -17.5t-40 17.5t-17 39.5z" />
    <glyph glyph-name="at" unicode="@" horiz-adv-x="773" 
d="M563 172q-38 0 -63 22.5t-31 63.5q-44 -83 -141 -83q-59 0 -98 42t-39 124q0 86 52.5 151t137.5 65q38 0 66 -19t41 -52l7 55h66l-27 -202q-12 -100 39 -100q37 0 63 47.5t26 123.5q0 126 -70 190.5t-189 64.5q-129 0 -209 -85t-80 -222q0 -139 69.5 -217t199.5 -78
q101 0 180 40l26 -65q-96 -45 -206 -45q-159 0 -251 99t-92 268q0 163 104 266.5t261 103.5q145 0 236.5 -79t91.5 -238q0 -108 -51.5 -174.5t-118.5 -66.5zM382 487q-50 0 -80.5 -43t-30.5 -104q0 -97 78 -97q53 0 83.5 44.5t30.5 108.5q0 43 -21.5 67t-59.5 24z" />
    <glyph glyph-name="A" unicode="A" horiz-adv-x="643" 
d="M185 194l-65 -194h-80l237 723h87l239 -723h-78l-66 194h-274zM210 274h223l-111 339h-2z" />
    <glyph glyph-name="B" unicode="B" horiz-adv-x="565" 
d="M510 204q0 -167 -151 -197q-40 -7 -72 -7h-202v723h209q89 0 144 -49t55 -131q0 -63 -32 -105.5t-83 -60.5v-2q132 -41 132 -171zM164 404l115 1q61 1 97 37.5t36 91.5q0 49 -33 81.5t-90 32.5h-125v-244zM429 207q0 58 -39.5 90t-99.5 32h-126v-252h117q72 0 110 34.5
t38 95.5z" />
    <glyph glyph-name="C" unicode="C" horiz-adv-x="633" 
d="M591 218q-21 -103 -85 -164t-168 -61q-90 0 -155.5 52.5t-96.5 134.5t-31 181q0 156 75 262.5t208 106.5q106 0 169.5 -62.5t85.5 -166.5h-81q-15 69 -61 114t-113 45q-93 0 -149 -90t-56 -209q0 -120 56.5 -209t148.5 -89q66 0 111 43.5t61 111.5h81z" />
    <glyph glyph-name="D" unicode="D" horiz-adv-x="646" 
d="M591 371q0 -168 -75 -269.5t-224 -101.5h-207v723h220q136 0 211 -99.5t75 -252.5zM509 368q0 119 -53.5 198.5t-152.5 79.5h-139v-569h138q102 0 154.5 82.5t52.5 208.5z" />
    <glyph glyph-name="E" unicode="E" horiz-adv-x="539" 
d="M469 0h-384v723h384v-76h-305v-250h298v-75h-298v-246h305v-76z" />
    <glyph glyph-name="F" unicode="F" horiz-adv-x="521" 
d="M164 0h-79v723h384v-76h-305v-250h297v-76h-297v-321z" />
    <glyph glyph-name="G" unicode="G" horiz-adv-x="684" 
d="M526 221v69h-185v73h272v-363h-73v85h-1q-25 -40 -80 -66t-115 -26q-100 0 -167 52t-94.5 133t-27.5 187q0 166 70 265.5t219 99.5q217 0 265 -223h-85q-15 69 -61.5 111t-118.5 42q-103 0 -157 -83.5t-54 -211.5q0 -85 20 -150.5t69 -108.5t122 -43q66 0 124 46.5
t58 111.5z" />
    <glyph glyph-name="H" unicode="H" horiz-adv-x="665" 
d="M166 0h-79v723h80l-1 -326l332 -1v327h80l-1 -723h-79v321h-332v-321z" />
    <glyph glyph-name="I" unicode="I" horiz-adv-x="249" 
d="M85 0v723h79l-1 -723h-78z" />
    <glyph glyph-name="J" unicode="J" horiz-adv-x="544" 
d="M375 308v415h79l-1 -415q0 -165 -44 -240t-166 -75q-95 0 -148 58t-55 161l78 -1q5 -75 34.5 -110.5t91.5 -35.5q34 0 58 11.5t38 31t22 52t10.5 66t2.5 82.5z" />
    <glyph glyph-name="K" unicode="K" horiz-adv-x="591" 
d="M566 0h-96l-235 336l-71 -86v-250h-79v723h79v-357l286 357h99l-261 -324z" />
    <glyph glyph-name="L" unicode="L" horiz-adv-x="505" 
d="M87 723h79v-647h309v-76h-388v723z" />
    <glyph glyph-name="M" unicode="M" horiz-adv-x="807" 
d="M737 0h-81l2 635h-2l-205 -635h-96l-206 635h-2l2 -635h-79v723h131l201 -619h2l199 619h134v-723z" />
    <glyph glyph-name="N" unicode="N" horiz-adv-x="661" 
d="M87 723h116l294 -624h2l-2 624h77v-723h-114l-294 625h-2l4 -625h-81v723z" />
    <glyph glyph-name="O" unicode="O" horiz-adv-x="698" 
d="M55 361q0 159 74.5 263.5t219.5 104.5t219.5 -104.5t74.5 -263.5t-74.5 -263.5t-219.5 -104.5t-219.5 104.5t-74.5 263.5zM135 361q0 -81 21.5 -146t71.5 -107.5t121 -42.5q105 0 159.5 85t54.5 211t-54.5 211t-159.5 85q-71 0 -121 -42.5t-71.5 -107.5t-21.5 -146z" />
    <glyph glyph-name="P" unicode="P" horiz-adv-x="557" 
d="M522 505q0 -97 -61 -156.5t-162 -59.5h-135v-289h-79v723h214q100 0 161.5 -60t61.5 -158zM441 506q0 65 -40.5 103t-106.5 38h-130v-283h125q68 0 110 40t42 102z" />
    <glyph glyph-name="Q" unicode="Q" horiz-adv-x="713" 
d="M643 361q0 -170 -79 -269l75 -75l-56 -56l-77 77q-65 -45 -157 -45q-145 0 -219.5 104.5t-74.5 263.5t74.5 263.5t219.5 104.5t219.5 -104.5t74.5 -263.5zM349 65q58 0 102 28l-84 84l56 57l85 -85q55 82 55 212q0 126 -54.5 211t-159.5 85q-71 0 -121 -42.5
t-71.5 -107.5t-21.5 -146t21.5 -146t71.5 -107.5t121 -42.5z" />
    <glyph glyph-name="R" unicode="R" horiz-adv-x="587" 
d="M85 0v723h214q103 0 163 -59t60 -158q0 -74 -37 -129t-104 -77l166 -300h-93l-160 289h-130v-289h-79zM164 364h125q69 0 110.5 40.5t41.5 102.5q0 65 -40 102.5t-107 37.5h-130v-283z" />
    <glyph glyph-name="S" unicode="S" horiz-adv-x="572" 
d="M517 191q0 -81 -67 -139.5t-166 -58.5q-92 0 -160.5 58t-68.5 142h84q2 -58 46.5 -93.5t103.5 -35.5t104 36t45 90q0 47 -43.5 83t-146.5 82q-81 36 -123.5 80.5t-42.5 117.5q0 85 59.5 131t151.5 46q100 0 156 -52t56 -148h-76q-8 130 -140 130q-53 0 -91 -30.5
t-38 -74.5q0 -48 30.5 -74.5t87.5 -49.5q124 -50 181.5 -102t57.5 -138z" />
    <glyph glyph-name="T" unicode="T" horiz-adv-x="560" 
d="M540 647h-217l-1 -647h-84v647h-218v76h520v-76z" />
    <glyph glyph-name="U" unicode="U" horiz-adv-x="654" 
d="M493 298v425h81v-425q0 -153 -60.5 -229t-186.5 -76q-120 0 -183.5 77.5t-63.5 227.5v425h81v-425q0 -109 43 -172t123 -63q166 0 166 235z" />
    <glyph glyph-name="V" unicode="V" horiz-adv-x="605" 
d="M107 723l195 -608h3l194 608h86l-240 -723h-85l-240 723h87z" />
    <glyph glyph-name="W" unicode="W" horiz-adv-x="897" 
d="M865 723l-186 -723h-102l-122 616h-2l-132 -616h-102l-187 723h89l146 -615h2l131 615h110l120 -615h2l150 615h83z" />
    <glyph glyph-name="X" unicode="X" horiz-adv-x="611" 
d="M54 0l212 372l-212 351h93l172 -282l163 282h93l-210 -361l210 -362h-93l-169 293l-166 -293h-93z" />
    <glyph glyph-name="Y" unicode="Y" horiz-adv-x="574" 
d="M25 723h88l174 -345l175 345h87l-224 -435l-1 -288h-76v291z" />
    <glyph glyph-name="Z" unicode="Z" horiz-adv-x="558" 
d="M510 0h-462v76l362 572l-350 -1v76h437v-76l-354 -571h367v-76z" />
    <glyph glyph-name="bracketleft" unicode="[" horiz-adv-x="289" 
d="M55 -200v923h199v-70h-126v-783h126v-70h-199z" />
    <glyph glyph-name="backslash" unicode="\" horiz-adv-x="481" 
d="M352 0l-312 723h89l312 -723h-89z" />
    <glyph glyph-name="bracketright" unicode="]" horiz-adv-x="284" 
d="M234 -200h-199v70h126v783h-126v70h199v-923z" />
    <glyph glyph-name="underscore" unicode="_" horiz-adv-x="549" 
d="M30 0v55h489v-55h-489z" />
    <glyph glyph-name="a" unicode="a" horiz-adv-x="543" 
d="M350 352q-2 40 -28.5 62.5t-77.5 23.5q-41 -1 -66 -22t-25 -56h-78q0 64 44 105.5t119 41.5q102 0 145 -52.5t45 -163.5v-160q0 -35 7 -44.5t33 -9.5v-77q-40 0 -61 8t-28 18.5t-15 35.5h-1q-15 -32 -52.5 -50.5t-89.5 -18.5q-66 0 -114.5 34.5t-48.5 104.5q0 53 24 85.5
t79 51.5l118 36q4 1 12.5 3.5t12 4t10.5 4t10.5 4t8.5 4t7.5 5.5t5 6.5t3.5 7t1 8.5zM351 173l1 88h-1l-129 -41q-52 -15 -68 -34t-16 -52q1 -27 24.5 -49t62.5 -22q56 0 91 31t35 79z" />
    <glyph glyph-name="b" unicode="b" horiz-adv-x="537" 
d="M166 423h2q14 34 50.5 59t82.5 25q95 0 143 -70.5t48 -182.5q0 -52 -10 -96.5t-31.5 -82.5t-60 -60t-90.5 -22q-51 0 -85 25t-47 59h-2l-1 -77h-80v749h80zM166 250q0 -82 31.5 -134.5t95.5 -52.5q69 0 96.5 50.5t27.5 140.5q0 183 -123 183q-64 0 -96 -51.5t-32 -135.5z
" />
    <glyph glyph-name="c" unicode="c" horiz-adv-x="505" 
d="M375 151h79q-12 -73 -61 -115.5t-132 -42.5q-100 0 -153 72.5t-53 184.5q0 113 53.5 185t152.5 72q82 0 132.5 -42.5t61.5 -115.5h-80q-7 40 -37.5 64t-76.5 24q-64 0 -95 -52t-31 -135t32 -135t94 -52q47 0 77 24t37 64z" />
    <glyph glyph-name="d" unicode="d" horiz-adv-x="537" 
d="M371 423l1 326h80v-749h-80l-1 77h-2q-13 -34 -47 -59t-85 -25q-52 0 -90.5 22t-60 60t-31.5 82.5t-10 96.5q0 112 48 182.5t143 70.5q46 0 82.5 -25t50.5 -59h2zM371 250q0 84 -32 135.5t-96 51.5q-123 0 -123 -183q0 -90 27.5 -140.5t96.5 -50.5q64 0 95.5 52.5
t31.5 134.5z" />
    <glyph glyph-name="e" unicode="e" horiz-adv-x="516" 
d="M466 231h-336q2 -76 38 -122t97 -46q47 0 82.5 23.5t43.5 62.5h75q-16 -74 -67 -115t-134 -41q-100 0 -155 72.5t-55 184.5q0 113 53.5 185t152.5 72q116 0 164.5 -76.5t40.5 -199.5zM133 301h259q-3 61 -35.5 98.5t-95.5 37.5q-54 0 -86 -38.5t-42 -97.5z" />
    <glyph glyph-name="f" unicode="f" horiz-adv-x="324" 
d="M289 756v-78h-53q-52 0 -52 -66v-112h105v-70h-106v-430h-80v430h-73v70h73v113q-2 143 130 143h56z" />
    <glyph glyph-name="g" unicode="g" horiz-adv-x="549" 
d="M60 -35h80q3 -49 35 -75.5t89 -26.5q61 0 93.5 37.5t31.5 99.5l-1 60h-1q-39 -67 -122 -67q-100 0 -152.5 70.5t-52.5 186.5q0 112 52.5 184.5t152.5 72.5q40 0 73 -19t48 -49h2l1 61h77v-500q0 -207 -208 -207q-90 0 -143.5 45.5t-54.5 126.5zM389 250q0 82 -30.5 134.5
t-93.5 52.5q-61 0 -93 -52.5t-32 -134.5t30 -134.5t95 -52.5q62 0 93 51.5t31 135.5z" />
    <glyph glyph-name="h" unicode="h" 
d="M162 723l2 -301h2q16 36 52 60.5t84 24.5q76 0 123 -53.5t47 -149.5v-304h-80v249q0 43 -2.5 69.5t-12.5 54.5t-32 42t-58 15q-56 1 -89 -39.5t-33 -109.5v-281h-80v723h77z" />
    <glyph glyph-name="i" unicode="i" horiz-adv-x="244" 
d="M68 669q0 23 16 38.5t38 15.5t38 -15.5t16 -38.5t-16 -38.5t-38 -15.5t-38 15.5t-16 38.5zM161 500l1 -500h-81v500h80z" />
    <glyph glyph-name="j" unicode="j" horiz-adv-x="294" 
d="M113 669q0 23 15.5 38.5t38.5 15.5t38.5 -15.5t15.5 -38.5t-15.5 -38.5t-38.5 -15.5t-38.5 15.5t-15.5 38.5zM25 -200v78h53q52 0 52 66v557h80v-557q2 -144 -129 -144h-56z" />
    <glyph glyph-name="k" unicode="k" horiz-adv-x="492" 
d="M160 749v-465l197 217h97l-185 -207l198 -294h-89l-162 235l-54 -59l-2 -176h-80v749h80z" />
    <glyph glyph-name="l" unicode="l" horiz-adv-x="230" 
d="M155 749v-749h-80v749h80z" />
    <glyph glyph-name="m" unicode="m" horiz-adv-x="799" 
d="M721 0h-80v303q0 60 -24.5 93.5t-69.5 32.5q-56 -1 -80 -33.5t-24 -101.5v-294h-80v303q0 59 -26.5 92t-70.5 34q-45 1 -72 -34t-29 -100v-295h-80v500h77l2 -78h2q28 85 116 85q48 0 77.5 -19.5t55.5 -58.5h1q26 40 57 59t82 19q66 0 116 -46.5t50 -124.5v-336z" />
    <glyph glyph-name="n" unicode="n" 
d="M162 500l2 -78h2q16 36 52 60.5t84 24.5q76 0 123 -53.5t47 -149.5v-304h-80v249q0 43 -2.5 69.5t-12.5 54.5t-32 42t-58 15q-56 1 -89 -39.5t-33 -109.5v-281h-80v500h77z" />
    <glyph glyph-name="o" unicode="o" horiz-adv-x="536" 
d="M55 250q0 111 57.5 184t155.5 73q97 0 155 -72t58 -185q0 -111 -59.5 -184t-153.5 -73q-95 0 -154 74t-59 183zM131 250q0 -81 38 -134t99 -53q60 0 98.5 55t38.5 132q0 81 -37.5 134t-99.5 53q-63 0 -100 -53.5t-37 -133.5z" />
    <glyph glyph-name="p" unicode="p" horiz-adv-x="542" 
d="M166 79l-1 -279h-80v702h80l1 -77h2q13 34 47 59t85 25q52 0 90.5 -22t60 -60t31.5 -82.5t10 -96.5q0 -112 -48 -182.5t-143 -70.5q-46 0 -82.5 25t-50.5 59h-2zM166 252q0 -84 32 -135.5t96 -51.5q123 0 123 183q0 90 -27.5 140.5t-96.5 50.5q-64 0 -95.5 -52.5
t-31.5 -134.5z" />
    <glyph glyph-name="q" unicode="q" horiz-adv-x="542" 
d="M376 79h-2q-14 -34 -50.5 -59t-82.5 -25q-95 0 -143 70.5t-48 182.5q0 52 10 96.5t31.5 82.5t60 60t90.5 22q51 0 85 -25t47 -59h2l1 77h80v-702h-80zM376 252q0 82 -31.5 134.5t-95.5 52.5q-69 0 -96.5 -50.5t-27.5 -140.5q0 -183 123 -183q64 0 96 51.5t32 135.5z" />
    <glyph glyph-name="r" unicode="r" horiz-adv-x="378" 
d="M162 500l2 -60h2q14 32 50 49.5t80 17.5q40 0 57 -12v-80h-2q-20 16 -64 16q-62 0 -92 -36t-30 -121v-274h-80v500h77z" />
    <glyph glyph-name="s" unicode="s" horiz-adv-x="471" 
d="M55 138h78q14 -74 107 -74q39 0 66.5 22t28.5 54q1 29 -19 44.5t-55 25.5l-69 20q-130 33 -127 134q1 65 49 104t119 39q166 0 175 -147h-78q-8 43 -31.5 59.5t-66.5 16.5q-37 0 -61.5 -19.5t-24.5 -49.5q0 -24 15 -37t51 -24l69 -21q66 -20 101 -53t34 -89
q-1 -65 -54 -107.5t-122 -42.5q-78 0 -129.5 37t-55.5 108z" />
    <glyph glyph-name="t" unicode="t" horiz-adv-x="328" 
d="M40 430v70h68v147h80v-147h96v-70h-96v-286q0 -66 52 -66h53v-78h-56q-131 0 -129 144v286h-68z" />
    <glyph glyph-name="u" unicode="u" 
d="M388 0l-2 78h-2q-16 -36 -52 -60.5t-84 -24.5q-76 0 -123 53.5t-47 149.5v304h80v-249q0 -43 2.5 -69.5t12.5 -54.5t32 -42t58 -15q56 -1 89 39.5t33 109.5v281h80v-500h-77z" />
    <glyph glyph-name="v" unicode="v" horiz-adv-x="468" 
d="M286 0h-104l-162 500h87l127 -412l131 412h83z" />
    <glyph glyph-name="w" unicode="w" horiz-adv-x="693" 
d="M207 88l96 412h92l89 -412h1l108 412h80l-141 -500h-97l-85 404h-1l-93 -404h-97l-139 500h80l106 -412h1z" />
    <glyph glyph-name="x" unicode="x" horiz-adv-x="456" 
d="M104 0h-84l156 255l-149 245h88l113 -185l117 185h84l-149 -245l156 -255h-88l-120 198z" />
    <glyph glyph-name="y" unicode="y" horiz-adv-x="538" 
d="M221 0l-201 500h83l160 -407l170 407h85l-298 -700h-85z" />
    <glyph glyph-name="z" unicode="z" horiz-adv-x="446" 
d="M411 500v-65l-279 -365h279v-70h-376v65l279 365h-258v70h355z" />
    <glyph glyph-name="braceleft" unicode="{" horiz-adv-x="299" 
d="M224 -200q-79 0 -101 28.5t-22 109.5v206q0 49 -14 72.5t-57 23.5v68q43 0 57 23.5t14 72.5v202q0 84 22 113.5t101 29.5h35v-72h-33q-33 0 -45 -14.5t-12 -54.5v-206q0 -64 -14 -90.5t-51 -36.5v-2q37 -10 51 -36.5t14 -90.5v-210q0 -39 12 -52t45 -13h33v-71h-35z" />
    <glyph glyph-name="bar" unicode="|" horiz-adv-x="175" 
d="M50 -50v839h75v-839h-75z" />
    <glyph glyph-name="braceright" unicode="}" horiz-adv-x="299" 
d="M65 -200h-35v71h33q33 0 45 13t12 52v210q0 64 14 90.5t51 36.5v2q-37 10 -51 36.5t-14 90.5v206q0 40 -12 54.5t-45 14.5h-33v72h35q79 0 101 -29.5t22 -113.5v-202q0 -49 14 -72.5t57 -23.5v-68q-43 0 -57 -23.5t-14 -72.5v-206q0 -81 -22 -109.5t-101 -28.5z" />
    <glyph glyph-name="exclamdown" unicode="&#xa1;" horiz-adv-x="204" 
d="M45 666q0 22 17.5 39.5t39.5 17.5t39.5 -17.5t17.5 -39.5t-17.5 -39.5t-39.5 -17.5t-39.5 17.5t-17.5 39.5zM64 510h75v-510h-75v510z" />
    <glyph glyph-name="sterling" unicode="&#xa3;" horiz-adv-x="600" 
 />
    <glyph glyph-name="copyright" unicode="&#xa9;" horiz-adv-x="807" 
d="M50 360q0 167 103 268.5t251 101.5q147 0 250 -102t103 -268t-103 -266.5t-250 -100.5q-148 0 -251 100.5t-103 266.5zM118 360q0 -140 82.5 -223t203.5 -83q122 0 203.5 83t81.5 223q0 142 -81.5 225t-203.5 83q-121 0 -203.5 -83.5t-82.5 -224.5zM403 236q75 0 93 59
h60q0 -43 -44.5 -80t-108.5 -37q-82 0 -127 50.5t-45 139.5q0 87 47 137t128 50q63 0 106.5 -38t43.5 -86h-62q-17 66 -91 66q-44 0 -70.5 -32.5t-26.5 -96.5t26.5 -98t70.5 -34z" />
    <glyph glyph-name="guillemotleft" unicode="&#xab;" horiz-adv-x="520" 
d="M30 223l171 208h91l-163 -208l163 -209h-91zM239 223l171 208h90l-163 -208l163 -209h-90z" />
    <glyph glyph-name="degree" unicode="&#xb0;" horiz-adv-x="333" 
d="M30 586q0 57 40 97t96 40q57 0 97 -40t40 -97q0 -56 -40 -96t-97 -40q-56 0 -96 40t-40 96zM97 586q0 -31 19.5 -52.5t49.5 -21.5t50.5 22t20.5 52q0 31 -20.5 53t-50.5 22t-49.5 -22t-19.5 -53z" />
    <glyph glyph-name="plusminus" unicode="&#xb1;" horiz-adv-x="549" 
d="M315 233v-128h-80v128h-197v78h197v189h80v-189h197v-78h-197zM38 0v70h470v-70h-470z" />
    <glyph glyph-name="guillemotright" unicode="&#xbb;" horiz-adv-x="520" 
d="M281 223l-171 -209h-90l163 209l-163 208h90zM490 223l-171 -209h-91l163 209l-163 208h91z" />
    <glyph glyph-name="questiondown" unicode="&#xbf;" horiz-adv-x="492" 
d="M226 699q0 23 17 40t40 17t40 -17t17 -40t-17 -40t-40 -17t-40 17t-17 40zM231 336q-52 -38 -76.5 -72t-24.5 -76q0 -57 33.5 -89t85.5 -32q61 0 92.5 40t31.5 103h74q0 -93 -53.5 -155t-144.5 -62q-85 0 -139.5 55.5t-54.5 137.5q0 121 102 193q43 30 63.5 54.5
t20.5 58.5v33h80v-28q0 -93 -90 -161z" />
    <glyph glyph-name="Agrave" unicode="&#xc0;" horiz-adv-x="643" 
d="M386 766h-71l-121 149h101zM185 194l-65 -194h-80l237 723h87l239 -723h-78l-66 194h-274zM210 274h223l-111 339h-2z" />
    <glyph glyph-name="aacute" unicode="&#xc1;" horiz-adv-x="543" 
d="M264 580h-83l101 123h108zM350 353q-2 40 -28.5 62.5t-77.5 23.5q-41 -1 -66 -22t-25 -56h-78q0 64 44 105.5t119 41.5q102 0 145 -52.5t45 -163.5v-160q0 -35 7 -44.5t33 -9.5v-77q-40 0 -61 8t-28 18.5t-15 35.5h-1q-15 -32 -52.5 -50.5t-89.5 -18.5q-66 0 -114.5 34.5
t-48.5 104.5q0 53 24 85.5t79 51.5l118 36q4 1 12.5 3.5t12 4t10.5 4t10.5 4t8.5 4t7.5 5.5t5 6.5t3.5 7t1 8.5zM351 174l1 88h-1l-129 -41q-52 -15 -68 -34t-16 -52q1 -27 24.5 -49t62.5 -22q56 0 91 31t35 79z" />
    <glyph glyph-name="aacute" unicode="&#xe1;" horiz-adv-x="543" 
d="M264 580h-83l101 123h108zM350 353q-2 40 -28.5 62.5t-77.5 23.5q-41 -1 -66 -22t-25 -56h-78q0 64 44 105.5t119 41.5q102 0 145 -52.5t45 -163.5v-160q0 -35 7 -44.5t33 -9.5v-77q-40 0 -61 8t-28 18.5t-15 35.5h-1q-15 -32 -52.5 -50.5t-89.5 -18.5q-66 0 -114.5 34.5
t-48.5 104.5q0 53 24 85.5t79 51.5l118 36q4 1 12.5 3.5t12 4t10.5 4t10.5 4t8.5 4t7.5 5.5t5 6.5t3.5 7t1 8.5zM351 174l1 88h-1l-129 -41q-52 -15 -68 -34t-16 -52q1 -27 24.5 -49t62.5 -22q56 0 91 31t35 79z" />
    <glyph glyph-name="Acircumflex" unicode="&#xc2;" horiz-adv-x="643" 
d="M475 766h-89l-63 60l-64 -60h-89l117 118h74zM185 194l-65 -194h-80l237 723h87l239 -723h-78l-66 194h-274zM210 274h223l-111 339h-2z" />
    <glyph glyph-name="Adieresis" unicode="&#xc4;" horiz-adv-x="643" 
d="M192 818q0 21 15.5 36.5t36.5 15.5t36.5 -15.5t15.5 -36.5t-15.5 -36.5t-36.5 -15.5t-36.5 15.5t-15.5 36.5zM346 818q0 21 15.5 36.5t36.5 15.5t36.5 -15.5t15.5 -36.5t-15.5 -36.5t-36.5 -15.5t-36.5 15.5t-15.5 36.5zM185 194l-65 -194h-80l237 723h87l239 -723h-78
l-66 194h-274zM210 274h223l-111 339h-2z" />
    <glyph glyph-name="AE" unicode="&#xc6;" horiz-adv-x="851" 
d="M40 0l313 723h428v-76h-305v-260h298v-75h-298v-236h305v-76h-384v214h-175l-93 -214h-89zM257 294h140v319h-1z" />
    <glyph glyph-name="Ccedilla" unicode="&#xc7;" horiz-adv-x="633" 
d="M338 63q66 0 111 43.5t61 111.5h81q-20 -94 -75 -153.5t-144 -69.5l-20 -119h-94l63 118q-85 5 -146.5 58.5t-90.5 133t-29 175.5q0 156 75 262.5t208 106.5q106 0 169.5 -62.5t85.5 -166.5h-81q-15 69 -61 114t-113 45q-93 0 -149 -90t-56 -209q0 -120 56.5 -209
t148.5 -89z" />
    <glyph glyph-name="Egrave" unicode="&#xc8;" horiz-adv-x="539" 
d="M360 766h-71l-121 149h101zM469 0h-384v723h384v-76h-305v-250h298v-75h-298v-246h305v-76z" />
    <glyph glyph-name="Eacute" unicode="&#xc9;" horiz-adv-x="539" 
d="M271 766h-83l101 123h108zM469 0h-384v723h384v-76h-305v-250h298v-75h-298v-246h305v-76z" />
    <glyph glyph-name="Ecircumflex" unicode="&#xca;" horiz-adv-x="539" 
d="M428 766h-89l-63 60l-64 -60h-89l117 118h74zM469 0h-384v723h384v-76h-305v-250h298v-75h-298v-246h305v-76z" />
    <glyph glyph-name="Edieresis" unicode="&#xcb;" horiz-adv-x="539" 
d="M153 818q0 21 15.5 36.5t36.5 15.5t36.5 -15.5t15.5 -36.5t-15.5 -36.5t-36.5 -15.5t-36.5 15.5t-15.5 36.5zM307 818q0 21 15.5 36.5t36.5 15.5t36.5 -15.5t15.5 -36.5t-15.5 -36.5t-36.5 -15.5t-36.5 15.5t-15.5 36.5zM469 0h-384v723h384v-76h-305v-250h298v-75h-298
v-246h305v-76z" />
    <glyph glyph-name="Icircumflex" unicode="&#xce;" horiz-adv-x="355" 
d="M330 766h-89l-63 60l-64 -60h-89l117 118h74zM140 0v723h79l-1 -723h-78z" />
    <glyph glyph-name="Idieresis" unicode="&#xcf;" horiz-adv-x="308" 
d="M25 818q0 21 15.5 36.5t36.5 15.5t36.5 -15.5t15.5 -36.5t-15.5 -36.5t-36.5 -15.5t-36.5 15.5t-15.5 36.5zM179 818q0 21 15.5 36.5t36.5 15.5t36.5 -15.5t15.5 -36.5t-15.5 -36.5t-36.5 -15.5t-36.5 15.5t-15.5 36.5zM114 0v723h79l-1 -723h-78z" />
    <glyph glyph-name="ograve" unicode="&#xd2;" horiz-adv-x="536" 
d="M356 580h-83l-126 123h108zM55 250q0 111 57.5 184t155.5 73q97 0 155 -72t58 -185q0 -111 -59.5 -184t-153.5 -73q-95 0 -154 74t-59 183zM131 250q0 -81 38 -134t99 -53q60 0 98.5 55t38.5 132q0 81 -37.5 134t-99.5 53q-63 0 -100 -53.5t-37 -133.5z" />
    <glyph glyph-name="ograve" unicode="&#xf2;" horiz-adv-x="536" 
d="M356 580h-83l-126 123h108zM55 250q0 111 57.5 184t155.5 73q97 0 155 -72t58 -185q0 -111 -59.5 -184t-153.5 -73q-95 0 -154 74t-59 183zM131 250q0 -81 38 -134t99 -53q60 0 98.5 55t38.5 132q0 81 -37.5 134t-99.5 53q-63 0 -100 -53.5t-37 -133.5z" />
    <glyph glyph-name="oacute" unicode="&#xd3;" horiz-adv-x="536" 
d="M270 580h-83l101 123h108zM55 250q0 111 57.5 184t155.5 73q97 0 155 -72t58 -185q0 -111 -59.5 -184t-153.5 -73q-95 0 -154 74t-59 183zM131 250q0 -81 38 -134t99 -53q60 0 98.5 55t38.5 132q0 81 -37.5 134t-99.5 53q-63 0 -100 -53.5t-37 -133.5z" />
    <glyph glyph-name="oacute" unicode="&#xf3;" horiz-adv-x="536" 
d="M270 580h-83l101 123h108zM55 250q0 111 57.5 184t155.5 73q97 0 155 -72t58 -185q0 -111 -59.5 -184t-153.5 -73q-95 0 -154 74t-59 183zM131 250q0 -81 38 -134t99 -53q60 0 98.5 55t38.5 132q0 81 -37.5 134t-99.5 53q-63 0 -100 -53.5t-37 -133.5z" />
    <glyph glyph-name="Ocircumflex" unicode="&#xd4;" horiz-adv-x="698" 
d="M502 766h-89l-63 60l-64 -60h-89l117 118h74zM55 361q0 159 74.5 263.5t219.5 104.5t219.5 -104.5t74.5 -263.5t-74.5 -263.5t-219.5 -104.5t-219.5 104.5t-74.5 263.5zM135 361q0 -81 21.5 -146t71.5 -107.5t121 -42.5q105 0 159.5 85t54.5 211t-54.5 211t-159.5 85
q-71 0 -121 -42.5t-71.5 -107.5t-21.5 -146z" />
    <glyph glyph-name="odieresis" unicode="&#xd6;" horiz-adv-x="536" 
d="M144 649q0 21 15.5 36.5t36.5 15.5t36.5 -15.5t15.5 -36.5t-15.5 -36.5t-36.5 -15.5t-36.5 15.5t-15.5 36.5zM298 649q0 21 15.5 36.5t36.5 15.5t36.5 -15.5t15.5 -36.5t-15.5 -36.5t-36.5 -15.5t-36.5 15.5t-15.5 36.5zM55 250q0 111 57.5 184t155.5 73q97 0 155 -72
t58 -185q0 -111 -59.5 -184t-153.5 -73q-95 0 -154 74t-59 183zM131 250q0 -81 38 -134t99 -53q60 0 98.5 55t38.5 132q0 81 -37.5 134t-99.5 53q-63 0 -100 -53.5t-37 -133.5z" />
    <glyph glyph-name="odieresis" unicode="&#xf6;" horiz-adv-x="536" 
d="M144 649q0 21 15.5 36.5t36.5 15.5t36.5 -15.5t15.5 -36.5t-15.5 -36.5t-36.5 -15.5t-36.5 15.5t-15.5 36.5zM298 649q0 21 15.5 36.5t36.5 15.5t36.5 -15.5t15.5 -36.5t-15.5 -36.5t-36.5 -15.5t-36.5 15.5t-15.5 36.5zM55 250q0 111 57.5 184t155.5 73q97 0 155 -72
t58 -185q0 -111 -59.5 -184t-153.5 -73q-95 0 -154 74t-59 183zM131 250q0 -81 38 -134t99 -53q60 0 98.5 55t38.5 132q0 81 -37.5 134t-99.5 53q-63 0 -100 -53.5t-37 -133.5z" />
    <glyph glyph-name="multiply" unicode="&#xd7;" horiz-adv-x="532" 
d="M267 194l-171 -170l-56 56l170 171l-160 160l55 55l160 -160l171 170l56 -56l-170 -171l160 -160l-55 -55z" />
    <glyph glyph-name="Ugrave" unicode="&#xd9;" horiz-adv-x="652" 
d="M402 766h-71l-121 149h101zM493 298v425h81v-425q0 -153 -60.5 -229t-186.5 -76q-120 0 -183.5 77.5t-63.5 227.5v425h81v-425q0 -109 43 -172t123 -63q166 0 166 235z" />
    <glyph glyph-name="uacute" unicode="&#xda;" 
d="M295 580h-83l101 123h108zM388 0l-2 78h-2q-16 -36 -52 -60.5t-84 -24.5q-76 0 -123 53.5t-47 149.5v304h80v-249q0 -43 2.5 -69.5t12.5 -54.5t32 -42t58 -15q56 -1 89 39.5t33 109.5v281h80v-500h-77z" />
    <glyph glyph-name="uacute" unicode="&#xfa;" 
d="M295 580h-83l101 123h108zM388 0l-2 78h-2q-16 -36 -52 -60.5t-84 -24.5q-76 0 -123 53.5t-47 149.5v304h80v-249q0 -43 2.5 -69.5t12.5 -54.5t32 -42t58 -15q56 -1 89 39.5t33 109.5v281h80v-500h-77z" />
    <glyph glyph-name="Ucircumflex" unicode="&#xdb;" horiz-adv-x="652" 
d="M479 766h-89l-63 60l-64 -60h-89l117 118h74zM493 298v425h81v-425q0 -153 -60.5 -229t-186.5 -76q-120 0 -183.5 77.5t-63.5 227.5v425h81v-425q0 -109 43 -172t123 -63q166 0 166 235z" />
    <glyph glyph-name="Udieresis" unicode="&#xdc;" horiz-adv-x="652" 
d="M200 818q0 21 15.5 36.5t36.5 15.5t36.5 -15.5t15.5 -36.5t-15.5 -36.5t-36.5 -15.5t-36.5 15.5t-15.5 36.5zM354 818q0 21 15.5 36.5t36.5 15.5t36.5 -15.5t15.5 -36.5t-15.5 -36.5t-36.5 -15.5t-36.5 15.5t-15.5 36.5zM493 298v425h81v-425q0 -153 -60.5 -229
t-186.5 -76q-120 0 -183.5 77.5t-63.5 227.5v425h81v-425q0 -109 43 -172t123 -63q166 0 166 235z" />
    <glyph glyph-name="agrave" unicode="&#xe0;" horiz-adv-x="543" 
d="M325 554h-71l-121 149h101zM350 352q-2 40 -28.5 62.5t-77.5 23.5q-41 -1 -66 -22t-25 -56h-78q0 64 44 105.5t119 41.5q102 0 145 -52.5t45 -163.5v-160q0 -35 7 -44.5t33 -9.5v-77q-40 0 -61 8t-28 18.5t-15 35.5h-1q-15 -32 -52.5 -50.5t-89.5 -18.5
q-66 0 -114.5 34.5t-48.5 104.5q0 53 24 85.5t79 51.5l118 36q4 1 12.5 3.5t12 4t10.5 4t10.5 4t8.5 4t7.5 5.5t5 6.5t3.5 7t1 8.5zM351 173l1 88h-1l-129 -41q-52 -15 -68 -34t-16 -52q1 -27 24.5 -49t62.5 -22q56 0 91 31t35 79z" />
    <glyph glyph-name="acircumflex" unicode="&#xe2;" horiz-adv-x="543" 
d="M407 585h-89l-63 60l-64 -60h-89l117 118h74zM350 353q-2 40 -28.5 62.5t-77.5 23.5q-41 -1 -66 -22t-25 -56h-78q0 64 44 105.5t119 41.5q102 0 145 -52.5t45 -163.5v-160q0 -35 7 -44.5t33 -9.5v-77q-40 0 -61 8t-28 18.5t-15 35.5h-1q-15 -32 -52.5 -50.5t-89.5 -18.5
q-66 0 -114.5 34.5t-48.5 104.5q0 53 24 85.5t79 51.5l118 36q4 1 12.5 3.5t12 4t10.5 4t10.5 4t8.5 4t7.5 5.5t5 6.5t3.5 7t1 8.5zM351 174l1 88h-1l-129 -41q-52 -15 -68 -34t-16 -52q1 -27 24.5 -49t62.5 -22q56 0 91 31t35 79z" />
    <glyph glyph-name="adieresis" unicode="&#xe4;" horiz-adv-x="543" 
d="M125 629q0 21 15.5 36.5t36.5 15.5t36.5 -15.5t15.5 -36.5t-15.5 -36.5t-36.5 -15.5t-36.5 15.5t-15.5 36.5zM279 629q0 21 15.5 36.5t36.5 15.5t36.5 -15.5t15.5 -36.5t-15.5 -36.5t-36.5 -15.5t-36.5 15.5t-15.5 36.5zM350 352q-2 40 -28.5 62.5t-77.5 23.5
q-41 -1 -66 -22t-25 -56h-78q0 64 44 105.5t119 41.5q102 0 145 -52.5t45 -163.5v-160q0 -35 7 -44.5t33 -9.5v-77q-40 0 -61 8t-28 18.5t-15 35.5h-1q-15 -32 -52.5 -50.5t-89.5 -18.5q-66 0 -114.5 34.5t-48.5 104.5q0 53 24 85.5t79 51.5l118 36q4 1 12.5 3.5t12 4
t10.5 4t10.5 4t8.5 4t7.5 5.5t5 6.5t3.5 7t1 8.5zM351 173l1 88h-1l-129 -41q-52 -15 -68 -34t-16 -52q1 -27 24.5 -49t62.5 -22q56 0 91 31t35 79z" />
    <glyph glyph-name="ae" unicode="&#xe6;" horiz-adv-x="814" 
d="M58 132q0 53 24 85.5t79 51.5l118 36q4 1 12.5 3.5t12 4t10.5 4t10.5 4t8.5 4t7.5 5.5t5 6.5t3.5 7t1 8.5q-2 40 -28.5 62.5t-77.5 23.5q-41 -1 -66 -22t-25 -56h-78q0 64 44 105.5t119 41.5q121 0 163 -82q56 82 158 82q116 0 164.5 -76.5t40.5 -199.5h-336
q2 -76 38 -122t97 -46q47 0 82.5 23.5t43.5 62.5h75q-16 -74 -67 -115t-134 -41q-58 0 -103.5 26t-68.5 70q-44 -56 -79.5 -76t-90.5 -20q-66 0 -114.5 34.5t-48.5 104.5zM431 301h259q-3 61 -35.5 98.5t-95.5 37.5q-54 0 -86 -38.5t-42 -97.5zM138 134q1 -27 24.5 -49
t62.5 -22q56 0 91 31t35 79l1 88h-1l-129 -41q-52 -15 -68 -34t-16 -52z" />
    <glyph glyph-name="ccedilla" unicode="&#xe7;" horiz-adv-x="505" 
d="M261 63q47 0 77 24t37 64h79q-10 -64 -50.5 -105.5t-107.5 -50.5l-20 -119h-94l63 118q-92 6 -141 77.5t-49 178.5q0 113 53.5 185t152.5 72q82 0 132.5 -42.5t61.5 -115.5h-80q-7 40 -37.5 64t-76.5 24q-64 0 -95 -52t-31 -135t32 -135t94 -52z" />
    <glyph glyph-name="egrave" unicode="&#xe8;" horiz-adv-x="516" 
d="M367 580h-83l-126 123h108zM466 231h-336q2 -76 38 -122t97 -46q47 0 82.5 23.5t43.5 62.5h75q-16 -74 -67 -115t-134 -41q-100 0 -155 72.5t-55 184.5q0 113 53.5 185t152.5 72q116 0 164.5 -76.5t40.5 -199.5zM133 301h259q-3 61 -35.5 98.5t-95.5 37.5
q-54 0 -86 -38.5t-42 -97.5z" />
    <glyph glyph-name="eacute" unicode="&#xe9;" horiz-adv-x="516" 
d="M279 580h-83l101 123h108zM466 231h-336q2 -76 38 -122t97 -46q47 0 82.5 23.5t43.5 62.5h75q-16 -74 -67 -115t-134 -41q-100 0 -155 72.5t-55 184.5q0 113 53.5 185t152.5 72q116 0 164.5 -76.5t40.5 -199.5zM133 301h259q-3 61 -35.5 98.5t-95.5 37.5q-54 0 -86 -38.5
t-42 -97.5z" />
    <glyph glyph-name="ecircumflex" unicode="&#xea;" horiz-adv-x="516" 
d="M426 585h-89l-63 60l-64 -60h-89l117 118h74zM466 231h-336q2 -76 38 -122t97 -46q47 0 82.5 23.5t43.5 62.5h75q-16 -74 -67 -115t-134 -41q-100 0 -155 72.5t-55 184.5q0 113 53.5 185t152.5 72q116 0 164.5 -76.5t40.5 -199.5zM133 301h259q-3 61 -35.5 98.5
t-95.5 37.5q-54 0 -86 -38.5t-42 -97.5z" />
    <glyph glyph-name="edieresis" unicode="&#xeb;" horiz-adv-x="516" 
d="M143 629q0 21 15.5 36.5t36.5 15.5t36.5 -15.5t15.5 -36.5t-15.5 -36.5t-36.5 -15.5t-36.5 15.5t-15.5 36.5zM297 629q0 21 15.5 36.5t36.5 15.5t36.5 -15.5t15.5 -36.5t-15.5 -36.5t-36.5 -15.5t-36.5 15.5t-15.5 36.5zM466 231h-336q2 -76 38 -122t97 -46
q47 0 82.5 23.5t43.5 62.5h75q-16 -74 -67 -115t-134 -41q-100 0 -155 72.5t-55 184.5q0 113 53.5 185t152.5 72q116 0 164.5 -76.5t40.5 -199.5zM133 301h259q-3 61 -35.5 98.5t-95.5 37.5q-54 0 -86 -38.5t-42 -97.5z" />
    <glyph glyph-name="icircumflex" unicode="&#xee;" horiz-adv-x="365" 
d="M335 585h-89l-63 60l-64 -60h-89l117 118h74zM224 500l1 -500h-81v500h80z" />
    <glyph glyph-name="idieresis" unicode="&#xef;" horiz-adv-x="394" 
d="M68 649q0 21 15.5 36.5t36.5 15.5t36.5 -15.5t15.5 -36.5t-15.5 -36.5t-36.5 -15.5t-36.5 15.5t-15.5 36.5zM222 649q0 21 15.5 36.5t36.5 15.5t36.5 -15.5t15.5 -36.5t-15.5 -36.5t-36.5 -15.5t-36.5 15.5t-15.5 36.5zM237 500l1 -500h-81v500h80z" />
    <glyph glyph-name="ocircumflex" unicode="&#xf4;" horiz-adv-x="536" 
d="M425 585h-89l-63 60l-64 -60h-89l117 118h74zM55 250q0 111 57.5 184t155.5 73q97 0 155 -72t58 -185q0 -111 -59.5 -184t-153.5 -73q-95 0 -154 74t-59 183zM131 250q0 -81 38 -134t99 -53q60 0 98.5 55t38.5 132q0 81 -37.5 134t-99.5 53q-63 0 -100 -53.5t-37 -133.5z
" />
    <glyph glyph-name="divide" unicode="&#xf7;" horiz-adv-x="549" 
d="M221 456q0 22 15.5 38t38.5 16t38.5 -16t15.5 -38t-15.5 -38t-38.5 -16t-38.5 16t-15.5 38zM30 250v70h489v-70h-489zM221 113q0 23 15.5 38.5t38.5 15.5t38.5 -15.5t15.5 -38.5t-15.5 -38.5t-38.5 -15.5t-38.5 15.5t-15.5 38.5z" />
    <glyph glyph-name="ugrave" unicode="&#xf9;" 
d="M374 580h-83l-126 123h108zM388 0l-2 78h-2q-16 -36 -52 -60.5t-84 -24.5q-76 0 -123 53.5t-47 149.5v304h80v-249q0 -43 2.5 -69.5t12.5 -54.5t32 -42t58 -15q56 -1 89 39.5t33 109.5v281h80v-500h-77z" />
    <glyph glyph-name="ucircumflex" unicode="&#xfb;" 
d="M424 585h-89l-63 60l-64 -60h-89l117 118h74zM388 0l-2 78h-2q-16 -36 -52 -60.5t-84 -24.5q-76 0 -123 53.5t-47 149.5v304h80v-249q0 -43 2.5 -69.5t12.5 -54.5t32 -42t58 -15q56 -1 89 39.5t33 109.5v281h80v-500h-77z" />
    <glyph glyph-name="udieresis" unicode="&#xfc;" 
d="M149 649q0 21 15.5 36.5t36.5 15.5t36.5 -15.5t15.5 -36.5t-15.5 -36.5t-36.5 -15.5t-36.5 15.5t-15.5 36.5zM303 649q0 21 15.5 36.5t36.5 15.5t36.5 -15.5t15.5 -36.5t-15.5 -36.5t-36.5 -15.5t-36.5 15.5t-15.5 36.5zM388 0l-2 78h-2q-16 -36 -52 -60.5t-84 -24.5
q-76 0 -123 53.5t-47 149.5v304h80v-249q0 -43 2.5 -69.5t12.5 -54.5t32 -42t58 -15q56 -1 89 39.5t33 109.5v281h80v-500h-77z" />
    <glyph glyph-name="ydieresis" unicode="&#xff;" horiz-adv-x="538" 
d="M142 649q0 21 15.5 36.5t36.5 15.5t36.5 -15.5t15.5 -36.5t-15.5 -36.5t-36.5 -15.5t-36.5 15.5t-15.5 36.5zM296 649q0 21 15.5 36.5t36.5 15.5t36.5 -15.5t15.5 -36.5t-15.5 -36.5t-36.5 -15.5t-36.5 15.5t-15.5 36.5zM221 0l-201 500h83l160 -407l170 407h85
l-298 -700h-85z" />
    <glyph glyph-name="OE" unicode="&#x152;" horiz-adv-x="971" 
d="M40 361q0 159 74.5 263.5t219.5 104.5q104 0 183 -70v64h384v-76h-305v-260h298v-75h-298v-236h305v-76h-384v63q-79 -70 -183 -70q-145 0 -219.5 104.5t-74.5 263.5zM120 361q0 -81 21.5 -146t71.5 -107.5t121 -42.5q66 0 113.5 34.5t69.5 93.5v336q-23 59 -70 93.5
t-113 34.5q-71 0 -121 -42.5t-71.5 -107.5t-21.5 -146z" />
    <glyph glyph-name="oe" unicode="&#x153;" horiz-adv-x="866" 
d="M55 250q0 111 57.5 184t155.5 73q115 0 173 -98q56 98 170 98q116 0 164.5 -76.5t40.5 -199.5h-335q2 -81 38.5 -124.5t95.5 -43.5q47 0 82.5 23.5t43.5 62.5h75q-16 -74 -67 -115t-134 -41q-118 0 -174 101q-60 -101 -173 -101q-95 0 -154 74t-59 183zM131 250
q0 -81 38 -134t99 -53q60 0 98.5 55t38.5 132q0 81 -37.5 134t-99.5 53q-63 0 -100 -53.5t-37 -133.5zM483 301h259q-3 61 -35.5 98.5t-95.5 37.5q-54 0 -86 -38.5t-42 -97.5z" />
    <glyph glyph-name="Ydieresis" unicode="&#x178;" horiz-adv-x="574" 
d="M160 818q0 21 15.5 36.5t36.5 15.5t36.5 -15.5t15.5 -36.5t-15.5 -36.5t-36.5 -15.5t-36.5 15.5t-15.5 36.5zM314 818q0 21 15.5 36.5t36.5 15.5t36.5 -15.5t15.5 -36.5t-15.5 -36.5t-36.5 -15.5t-36.5 15.5t-15.5 36.5zM25 723h88l174 -345l175 345h87l-224 -435
l-1 -288h-76v291z" />
    <glyph glyph-name="endash" unicode="&#x2013;" horiz-adv-x="549" 
d="M30 250v70h489v-70h-489z" />
    <glyph glyph-name="emdash" unicode="&#x2014;" horiz-adv-x="749" 
d="M30 250v70h689v-70h-689z" />
    <glyph glyph-name="quoteleft" unicode="&#x2018;" horiz-adv-x="245" 
d="M139 517h-111l125 205h71z" />
    <glyph glyph-name="quoteright" unicode="&#x2019;" horiz-adv-x="237" 
d="M114 722h111l-125 -205h-71z" />
    <glyph glyph-name="quotedblleft" unicode="&#x201c;" horiz-adv-x="427" 
d="M141 517h-111l125 205h71zM311 517h-111l125 205h71z" />
    <glyph glyph-name="quotedblright" unicode="&#x201d;" horiz-adv-x="406" 
d="M105 722h111l-125 -205h-71zM275 722h111l-125 -205h-71z" />
    <glyph glyph-name="ellipsis" unicode="&#x2026;" horiz-adv-x="669" 
d="M35 57q0 23 17.5 40t39.5 17t39.5 -17t17.5 -40t-17.5 -40t-39.5 -17t-39.5 17t-17.5 40zM278 57q0 23 17 40t40 17t40 -17t17 -40t-17 -40t-40 -17t-40 17t-17 40zM520 57q0 23 17 40t40 17t40 -17t17 -40t-17 -40t-40 -17t-40 17t-17 40z" />
    <glyph glyph-name="guilsinglleft" unicode="&#x2039;" horiz-adv-x="318" 
d="M30 223l171 208h97l-170 -208l170 -209h-97z" />
    <glyph glyph-name="guilsinglright" unicode="&#x203a;" horiz-adv-x="312" 
d="M298 222l-171 -208h-97l170 208l-170 209h97z" />
    <glyph glyph-name="fraction" unicode="&#x2044;" horiz-adv-x="481" 
d="M129 0h-89l312 723h89z" />
    <glyph glyph-name="Euro" unicode="&#x20ac;" horiz-adv-x="600" 
 />
    <glyph glyph-name="minus" unicode="&#x2212;" horiz-adv-x="549" 
d="M30 250v70h489v-70h-489z" />
    <glyph glyph-name="notequal" unicode="&#x2260;" horiz-adv-x="589" 
d="M539 306h-177l-44 -108h221v-70h-250l-52 -128h-75l52 128h-164v70h193l44 108h-237v70h266l51 124h75l-51 -124h148v-70z" />
    <glyph glyph-name="lessequal" unicode="&#x2264;" horiz-adv-x="542" 
d="M40 268v68l477 164v-91l-371 -107l371 -104v-90zM517 0h-477v70h477v-70z" />
    <glyph glyph-name="greaterequal" unicode="&#x2265;" horiz-adv-x="540" 
d="M500 268l-477 -160v90l371 104l-371 107v91l477 -164v-68zM23 0v70h477v-70h-477z" />
    <glyph glyph-name="NULL" horiz-adv-x="0" 
 />
  </font>
</defs>
</svg>
