<?xml version="1.0" standalone="no"?>
<!DOCTYPE svg PUBLIC "-//W3C//DTD SVG 1.1//EN" "http://www.w3.org/Graphics/SVG/1.1/DTD/svg11.dtd" >
<svg xmlns="http://www.w3.org/2000/svg" xmlns:xlink="http://www.w3.org/1999/xlink" version="1.1">
<metadata>
Created by FontForge 20170910 at Tue Sep 26 11:29:22 2017
 By Jimmy Wärting
Copyright (c) 2017, MathewRoswell
</metadata>
<defs>
<font id="Avayx" horiz-adv-x="1072" >
  <font-face 
    font-family="Avayx Regular"
    font-weight="400"
    font-stretch="normal"
    units-per-em="1200"
    panose-1="2 0 5 3 0 0 0 0 0 0"
    ascent="1000"
    descent="-200"
    x-height="789"
    cap-height="792"
    bbox="40 -169 1208 889"
    underline-thickness="60"
    underline-position="-180"
    unicode-range="U+0020-007A"
  />
<missing-glyph horiz-adv-x="440" 
d="M40 0v800h320v-800h-320zM80 40h240v720h-240v-720z" />
    <glyph glyph-name=".notdef" horiz-adv-x="440" 
d="M40 0v800h320v-800h-320zM80 40h240v720h-240v-720z" />
    <glyph glyph-name=".null" horiz-adv-x="0" 
 />
    <glyph glyph-name="nonmarkingreturn" horiz-adv-x="400" 
 />
    <glyph glyph-name="space" unicode=" " horiz-adv-x="960" 
 />
    <glyph glyph-name="exclam" unicode="!" horiz-adv-x="476" 
d="M198 -53q-18 18 -18 41v1q0 23 18 40q19 17 40 17h1q24 0 41 -17t17 -41q0 -22 -17 -41q-16 -18 -41 -18h-1q-22 0 -40 18zM197 749q0 31 5 36q6 6 37 6t37 -6q5 -5 5 -36v-572q0 -32 -5 -37t-37 -5t-37 5t-5 37v572z" />
    <glyph glyph-name="parenleft" unicode="(" horiz-adv-x="1200" 
d="M548 -25q-48 141 -48 389q0 240 51 381q44 123 122 139h5q9 0 16 -7q6 -6 6 -15v-3q0 -17 -15 -21q-67 -23 -95 -134q-33 -124 -33 -340t35 -347q30 -115 93 -136q15 -5 15 -21v-2q0 -9 -6 -15q-7 -7 -16 -7h-4q-84 17 -126 139z" />
    <glyph glyph-name="parenright" unicode=")" horiz-adv-x="1200" 
d="M652 745q48 -141 48 -389q0 -240 -51 -381q-44 -123 -122 -139h-5q-9 0 -16 7q-6 6 -6 15v3q0 17 15 21q67 23 95 134q33 124 33 340t-35 347q-30 115 -93 136q-15 5 -15 21v2q0 9 6 15q7 7 16 7h4q84 -17 126 -139z" />
    <glyph glyph-name="plus" unicode="+" horiz-adv-x="1200" 
d="M923 340h-233q-13 0 -22 -9.5t-9 -22.5v-232q0 -13 -9 -22.5t-22 -9.5t-22.5 9.5t-9.5 22.5v232q0 13 -9 22.5t-22 9.5h-233q-13 0 -22 9t-9 22t9 22t22 9h232q13 0 22 9t9 22v233q0 13 9 22t22 9h3q13 0 22 -9t9 -22v-233q0 -13 9 -22t22 -9h232q13 0 22 -9t9 -22
t-9 -22t-22 -9z" />
    <glyph glyph-name="comma" unicode="," horiz-adv-x="1200" 
d="M197 49q0 10 11 12q20 3 33 15q17 15 18 39q1 15 -6 24q-5 6 -21 13q-16 8 -24 18q-7 10 -6 34q2 21 18 33t39 10q33 -3 47 -29q15 -27 12 -69q-3 -47 -36 -79q-26 -25 -70 -34h-1l-1 -1q-13 0 -13 13v1z" />
    <glyph glyph-name="period" unicode="." horiz-adv-x="475" 
d="M137 -49q-17 17 -17 40v1q0 24 17 40q19 17 41 17q23 0 40 -17t17 -41t-17 -41q-16 -16 -40 -16t-41 17z" />
    <glyph glyph-name="slash" unicode="/" horiz-adv-x="907" 
d="M242 -130l370 1000q8 19 27 19q6 0 8 -1q8 -2 14.5 -10.5t6.5 -17.5q0 -4 -2 -10l-370 -1000q-8 -19 -27 -19q-3 0 -12 3q-17 7 -17 26q0 4 2 10z" />
    <glyph glyph-name="colon" unicode=":" horiz-adv-x="475" 
d="M137 480q-17 17 -17 40v1q0 21 17 40q15 17 40 17h1q23 0 40 -17t17 -40q0 -24 -16.5 -41t-40.5 -17t-41 17zM137 158q-17 17 -17 40v1q0 23 17 40t41 17h1q22 0 39 -17t17 -40q0 -21 -17 -40q-15 -17 -40 -17h-1q-24 0 -40 16z" />
    <glyph glyph-name="semicolon" unicode=";" horiz-adv-x="843" 
d="M137 476q-17 17 -17 42v1q0 25 18 42q17 17 42 17h1q25 0 42 -17q18 -18 18 -43q0 -24 -18 -42t-42 -18h-1q-25 0 -43 18zM126 49q2 11 11 12q19 3 33 15q17 15 18 39q1 15 -6 24q-5 6 -20 13q-18 8 -25 18t-6 34q1 21 18 33q16 12 39 10q33 -3 47 -29q15 -27 12 -69
q-3 -47 -36 -79q-26 -25 -70 -34h-2q-6 0 -9 3q-4 4 -4 9v1z" />
    <glyph glyph-name="less" unicode="&#x3c;" horiz-adv-x="740" 
d="M180 359v5q0 17 13 26l315 240q9 7 20 7q18 0 27 -15q5 -7 5 -18q0 -17 -12 -26l-248 -191q-13 -9 -13 -26t12 -26l247 -193q13 -9 13 -25q0 -11 -7 -20v-1q-9 -13 -27 -13q-11 0 -20 7l-312 244q-13 9 -13 25z" />
    <glyph glyph-name="equal" unicode="=" horiz-adv-x="868" 
d="M212 499h444q14 0 23.5 -9.5t9.5 -22.5t-9.5 -23t-23.5 -10h-444q-13 0 -22.5 9.5t-9.5 23.5q0 13 9 22.5t23 9.5zM212 286h444q14 0 23.5 -10t9.5 -23t-9.5 -22.5t-23.5 -9.5h-444q-14 0 -23 9.5t-9 22.5q0 14 9.5 23.5t22.5 9.5z" />
    <glyph glyph-name="greater" unicode="&#x3e;" horiz-adv-x="740" 
d="M560 361v-5q0 -17 -12 -26l-316 -240q-9 -7 -19 -7q-19 0 -28 15q-5 7 -5 18q0 17 13 26l248 191q12 9 12 26t-12 26l-247 193q-12 9 -12 25q0 13 6 20l1 1q9 13 26 13q11 0 20 -7l313 -244q12 -9 12 -25z" />
    <glyph glyph-name="question" unicode="?" horiz-adv-x="840" 
d="M309 221q0 78 9 113q10 40 35 72q23 30 75 70q43 34 62 63q18 27 20 57v3v2q-2 45 -39 72q-37 28 -102 28t-110 -30q-29 -20 -49 -53q-8 -11 -17 -16q-12 -6 -23 -6q-4 0 -14 2l-4 1q-14 5 -23 17t-9 27q0 12 5 21q9 17 33 45q19 22 41 37q69 45 171 45q103 0 166 -53
q64 -54 64 -138q0 -102 -116 -194q-36 -28 -55 -50q-17 -20 -23 -46q-6 -27 -6 -80q0 -28 1 -58v-2q0 -19 -13 -32t-33 -13q-18 0 -31 13q-14 14 -14 31q-1 24 -1 52zM314 -52q-18 18 -18 43q0 27 18 44q21 19 44 19q25 0 44 -19t19 -44q0 -22 -19 -43q-18 -19 -44 -19
q-25 0 -44 19z" />
    <glyph glyph-name="at" unicode="@" horiz-adv-x="1165" 
d="M775 400l-22 -100q-1 -2 -2 -5t-2.5 -11.5t-1.5 -16.5t3 -17t9 -15.5t18.5 -10.5t30.5 -3q47 3 77 50q33 51 33 134q0 85 -44 159q-42 72 -119 116q-74 43 -167 43q-94 0 -172 -51t-123 -137q-45 -85 -45 -185q0 -103 45 -184q44 -80 124 -125q79 -45 179 -45
q110 0 193 55q8 5 19 5q16 0 27 -14q7 -9 7 -19q0 -20 -17 -29q-102 -61 -229 -61q-118 0 -213 54q-96 55 -149 148q-54 95 -54 213q0 117 55 218t148 161t205 60q107 0 200 -52q91 -51 145 -138q53 -85 53 -191q0 -73 -24 -130q-24 -56 -65 -87q-42 -31 -89 -31
q-36 0 -68 18l-1 1q-1 1 -2 1q-51 30 -106 8l-6 -3q-35 -14 -75 -14q-66 0 -113 47q-46 46 -46 116q0 58 32 107t86 81q54 31 111 31q51 0 90 -27q26 -17 37.5 -27t21 -35.5t6.5 -61.5zM735 534zM628 259q34 23 56 53q9 13 10 23l13 65q2 8 2 13q0 16 -10 32q-8 11 -22 21
q-25 18 -59 18q-41 0 -77 -21q-34 -20 -59 -57q-23 -35 -23 -72q0 -43 26 -70q27 -28 67 -28t76 23z" />
    <glyph glyph-name="A" unicode="A" 
d="M486 758q14 35 52 35t52 -35l299 -754q4 -12 4 -21q0 -23 -17 -40t-40 -17q-16 0 -31 10.5t-21 25.5l-67 172l-46 116h1l-104 269q-14 36 -30.5 36.5t-30.5 -35.5l-105 -270l-43 -110l-71 -178q-6 -15 -21 -25t-31 -10q-23 0 -39.5 16.5t-16.5 39.5q0 8 4 20z" />
    <glyph glyph-name="B" unicode="B" horiz-adv-x="948" 
d="M293 376q0 -22 -15 -37t-37 -15h-9q-22 0 -37 15t-15 37v364q0 22 15 37t37 15h9q22 0 37 -15t15 -37v-364zM620 377q64 -19 106 -74.5t42 -124.5q0 -89 -49 -157t-133 -88q-12 -3 -41 -5h-4q-20 0 -34 14.5t-14 34.5q0 18 12.5 32.5t30.5 15.5q21 2 29 4
q43 13 67.5 53.5t24.5 95.5q0 49 -31 89t-81 51h-5t-6 1q-17 2 -29 16.5t-12 31.5v1q0 19 13 36.5t32 22.5q2 1 6 2t5 1q35 14 56.5 49.5t21.5 78.5q0 46 -20 82.5t-63 48.5q-2 1 -5.5 1.5t-5.5 0.5q-17 3 -28.5 17t-11.5 31v1q0 20 14 34t34 14h5q20 -2 23 -3
q85 -18 126.5 -80.5t41.5 -144.5q0 -55 -31.5 -108t-85.5 -75z" />
    <glyph glyph-name="C" unicode="C" horiz-adv-x="1128" 
d="M782 740q3 34 32 48q12 6 23 6q12 0 26 -8q15 -8 48 -34q19 -16 22 -41v-6q0 -22 -15 -41v-1q-14 -16 -35.5 -18t-37.5 12q-8 6 -36 26q-30 19 -27 57zM933 116q16 -16 16 -40q0 -26 -21 -45q-128 -104 -299 -104q-192 0 -320.5 131.5t-128.5 328.5q0 102 39 192
q12 29 43 37q8 2 15 2q21 0 36 -12q18 -14 24.5 -36.5t-1.5 -45.5q-22 -63 -22 -139q0 -156 86 -249t231 -93q128 0 226 79q17 14 38.5 12.5t37.5 -18.5z" />
    <glyph glyph-name="D" unicode="D" horiz-adv-x="1071" 
d="M550 784q148 -25 245.5 -137.5t97.5 -285.5q0 -157 -89.5 -271.5t-230.5 -148.5q-35 -7 -71 -11h-4q-20 0 -34 14t-14 34q0 18 12.5 32t30.5 15q24 3 54 10q103 29 168.5 117t65.5 207q0 133 -66 219.5t-180 110.5q-14 3 -41 5q-18 1 -31 15.5t-13 32.5q0 20 14 34t34 14
h4q24 -2 48 -6zM293 23v-48q0 -19 -14.5 -33.5t-33.5 -14.5h-17q-20 0 -34 14.5t-14 33.5v770q0 19 14 33.5t34 14.5h17q19 0 33.5 -14.5t14.5 -33.5v-722z" />
    <glyph glyph-name="E" unicode="E" horiz-adv-x="901" 
d="M634 372v-1q0 -20 -14 -34t-34 -14h-310q-20 0 -34 14t-14 34t14 34t34 14h309q20 0 34.5 -13.5t14.5 -33.5zM293 23v-40q0 -23 -17 -39.5t-40 -16.5t-39.5 16.5t-16.5 39.5v754q0 23 16.5 39.5t39.5 16.5t40 -16.5t17 -39.5v-40v-278v-96v-300zM494 745q0 36 6 42t42 6
h131q36 0 42.5 -6t6.5 -42t-6.5 -42t-42.5 -6h-131q-36 0 -42 6t-6 42zM494 -25q0 36 6 42t42 6h131q36 0 42.5 -6t6.5 -42t-6.5 -42t-42.5 -6h-131q-36 0 -42 6t-6 42z" />
    <glyph glyph-name="F" unicode="F" horiz-adv-x="907" 
d="M629 415q20 0 34.5 -14t14.5 -34t-14.5 -34.5t-34.5 -14.5h-288q-19 0 -33 -14t-14 -33v-292q0 -23 -17 -40t-40 -17t-40 17t-17 40v322q0 47 33.5 80.5t80.5 33.5h335zM679 798q20 0 34 -14.5t14 -34.5t-14 -34t-34 -14h-348h-102q-20 0 -34.5 14t-14.5 34t14.5 34.5
t34.5 14.5h450z" />
    <glyph glyph-name="G" unicode="G" horiz-adv-x="1231" 
d="M679 310q0 38 5.5 43.5t43.5 5.5h272q38 0 44 -6t6 -43q0 -38 -6 -44t-44 -6h-272q-37 0 -43 6t-6 44zM1004 357q20 0 34 -14.5t14 -34.5q0 -1 -0.5 -3t-0.5 -3q-5 -37 -22.5 -86t-36.5 -80q-60 -99 -159 -156q-97 -56 -215 -56q-121 0 -220 59q-101 60 -159 160
q-59 101 -59 219q0 119 58 219q59 101 160 160q31 19 78.5 34.5t84.5 20.5h6q20 0 34.5 -14.5t14.5 -34.5q0 -18 -12.5 -32t-30.5 -16q-69 -9 -126 -43q-32 -19 -68 -55.5t-55 -68.5q-46 -77 -46 -170t46 -170q19 -32 55.5 -69t68.5 -56q77 -46 170 -46h2q72 0 138 31
q67 32 114 84q48 52 70 121q7 21 14 60q3 16 17 28t31 12z" />
    <glyph glyph-name="H" unicode="H" horiz-adv-x="969" 
d="M363 407q19 0 33 -13.5t14 -33.5t-14 -33.5t-33 -13.5h-41q-20 0 -33.5 -13.5t-13.5 -33.5v-278q0 -20 -13.5 -33.5t-33.5 -13.5h-1q-19 0 -33 13.5t-14 33.5v744q0 20 14 33.5t33 13.5h1q20 0 33.5 -13.5t13.5 -33.5v-278q0 -20 13.5 -33.5t33.5 -13.5h41zM743 779
q19 0 33 -13.5t14 -33.5v-744q0 -20 -14 -33.5t-33 -13.5t-33 13.5t-14 33.5v278q0 20 -14 33.5t-33 13.5h-42q-19 0 -32.5 13.5t-13.5 33.5t13.5 33.5t32.5 13.5h42q19 0 33 13.5t14 33.5v278q0 20 14 33.5t33 13.5z" />
    <glyph glyph-name="I" unicode="I" horiz-adv-x="457" 
d="M180 743q0 37 6 43t43 6t43 -6t6 -43v-88q0 -37 -6 -42.5t-43 -5.5t-43 5.5t-6 42.5v88zM180 437q0 37 6 42.5t43 5.5t43 -5.5t6 -42.5v-460q0 -37 -6 -43t-43 -6t-43 6t-6 43v460z" />
    <glyph glyph-name="J" unicode="J" horiz-adv-x="934" 
d="M316 -37q-67 41 -103 114q-25 51 -33 109v6q0 21 14 35q15 15 35 15h1q17 0 33 -13q13 -10 16 -30q9 -70 49 -118q51 -60 138 -60h2q51 0 94 25q14 8 38 32q20 20 31 39q26 44 26 95v1v536q0 20 15 35q14 14 34 14q21 0 35 -14q15 -15 15 -35v-536q0 -77 -40 -146
q-15 -26 -47 -58t-58 -48q-66 -39 -145 -39q-83 0 -150 41z" />
    <glyph glyph-name="K" unicode="K" horiz-adv-x="1028" 
d="M280 351v-135h-1v-244q0 -20 -14.5 -34.5t-34.5 -14.5t-35 14.5t-15 34.5v776q0 20 15 34.5t35 14.5t34.5 -14.5t14.5 -34.5v-398zM790 798q34 0 46.5 -31t-12.5 -54l-303 -276q-22 -20 -22 -50q0 -25 19 -46l318 -337q22 -23 9.5 -52.5t-44.5 -29.5q-20 0 -35 15
l-324 341q-18 19 -31 51.5t-13 58.5q0 29 15 63.5t37 53.5l307 280q15 13 33 13z" />
    <glyph glyph-name="L" unicode="L" horiz-adv-x="956" 
d="M777 -29q0 -20 -14.5 -34.5t-34.5 -14.5h-499q-20 0 -34.5 14.5t-14.5 34.5v778q0 20 14.5 34.5t34.5 14.5h1q20 0 34.5 -14.5t14.5 -34.5v-708q0 -9 6 -15t15 -6h428q20 0 34.5 -14.5t14.5 -34.5z" />
    <glyph glyph-name="M" unicode="M" horiz-adv-x="1228" 
d="M280 748l-1 -776q0 -20 -14.5 -35t-34.5 -15t-35 15t-15 35v776q0 20 15 35t35 15t35 -15t15 -35zM1050 748l-1 -776q0 -20 -14.5 -35t-34.5 -15t-35 15t-15 35v776q0 20 15 35t35 15t35 -15t15 -35zM1039 724l-187 -339q-14 -25 -43 -25q-15 0 -24 6q-10 6 -17.5 19
t-7.5 25q0 15 6 24l187 339q14 25 43 25q15 0 24 -6v-1q26 -15 26 -43q0 -14 -7 -24zM186 724q-6 9 -6 24q0 29 25 43l1 1q9 6 24 6q29 0 43 -25l187 -339q6 -9 6 -24q0 -12 -7.5 -25t-17.5 -19q-9 -6 -24 -6q-12 0 -25 7.5t-19 17.5zM665 120l-1 -35q0 -20 -14.5 -35
t-34.5 -15t-35 15t-15 35v35q0 20 15 35t35 15t35 -15t15 -35z" />
    <glyph glyph-name="N" unicode="N" horiz-adv-x="1011" 
d="M193 718q-9 13 -9 29q0 26 21 40q14 10 28 10q26 0 41 -22l268 -383q9 -13 9 -29q0 -28 -20 -41q-13 -9 -29 -9q-27 0 -41 21zM780 -78q-20 0 -34.5 15t-14.5 35l2 776q0 20 15 35t35 15t35 -15t15 -35v-776q0 -20 -15 -35t-35 -15h-3zM230 -78q-20 0 -35 15t-15 35
l3 776q0 20 14.5 35t34.5 15t35 -15t15 -35v-776q0 -20 -15 -35t-35 -15h-2z" />
    <glyph glyph-name="O" unicode="O" horiz-adv-x="1114" 
d="M339 -18q-98 57 -159 159q-60 101 -60 219t59 219t159 159q101 59 219 59q119 0 220 -59q102 -59 160 -159q59 -101 59 -219t-60 -219t-160 -159q-101 -59 -219 -59q-117 0 -218 59zM727 66q34 20 69 55t55 69q46 80 46 170t-46 170q-20 34 -55 69q-36 36 -68 55
q-77 46 -171 46q-90 0 -170 -46q-34 -21 -68 -55q-38 -38 -55 -69q-45 -78 -45 -170q0 -90 46 -170q20 -34 55 -69q38 -38 69 -55q29 -18 81 -32q51 -14 86 -14h1q93 0 170 46z" />
    <glyph glyph-name="P" unicode="P" horiz-adv-x="952" 
d="M279 407v-101h-1v-337q0 -20 -14.5 -34.5t-34.5 -14.5t-34.5 14.5t-14.5 34.5v782q0 20 14.5 34.5t34.5 14.5h1q20 0 34.5 -14.5t14.5 -34.5v-50h-1v-294h1zM740 677q33 -57 33 -123v-1q0 -58 -36 -121t-86 -93q-57 -33 -123 -33q-20 0 -34.5 14.5t-14.5 34.5v3
q0 20 14.5 34.5t34.5 14.5q62 0 104 42q43 43 43 105q0 61 -43 104t-104 43q-20 0 -34.5 14.5t-14.5 34.5v1q0 20 14.5 34.5t34.5 14.5q66 0 123 -33q23 -13 49 -40t40 -50z" />
    <glyph glyph-name="Q" unicode="Q" horiz-adv-x="1215" 
d="M918 67l52 -55q14 -16 14 -33q0 -22 -17 -37q-13 -11 -31 -11q-20 0 -35 15l-48 49l-77 81h1l-71 73q-14 16 -14 34q0 21 17 36q14 12 31 12q20 0 35 -15l76 -80h1l66 -68v-1zM979 576q57 -98 57 -215q0 -85 -31 -159q-1 -1 -1 -2.5t-1 -2.5q-10 -23 -34.5 -28t-42.5 13
h-1q-14 14 -14 34q0 10 3 18q0 1 1 2.5t1 2.5q24 57 24 122q0 91 -45 167q-18 31 -53.5 66.5t-67.5 53.5q-77 44 -166 44q-90 0 -167 -44q-31 -18 -66.5 -53t-53.5 -67q-44 -77 -44 -167q0 -89 45 -166q19 -32 54.5 -67.5t66.5 -53.5q31 -19 79 -32t84 -13h2q28 0 60 6
q1 0 4.5 0.5t4.5 0.5q21 0 35 -16q19 -21 10 -47.5t-37 -31.5q-37 -7 -77 -7q-116 0 -214 57q-97 56 -156 157q-58 98 -58 213q0 113 58 214q57 99 155 156q99 58 215 58q114 0 215 -58q99 -57 156 -155z" />
    <glyph glyph-name="R" unicode="R" horiz-adv-x="955" 
d="M490 295q-6 10 -8.5 22t-3 20t0.5 20.5t1 16.5q0 15 11 25.5t26 10.5q61 0 103 42t42 102t-42 102t-103 42q-17 0 -28.5 11.5t-11.5 27.5v17q0 16 11.5 28t28.5 12q67 0 122 -33q23 -13 48 -38.5t39 -48.5q33 -54 33 -120q0 -78 -49 -144q-41 -53 -98 -78q-14 -5 -14 -22
q0 -8 3 -12l168 -290q14 -24 0 -48.5t-42 -24.5q-11 0 -23.5 7.5t-18.5 17.5zM180 736q0 37 6 43t43 6t42.5 -6t5.5 -43v-761q0 -37 -5.5 -43t-42.5 -6t-43 6t-6 43v761z" />
    <glyph glyph-name="S" unicode="S" horiz-adv-x="932" 
d="M529 396q224 -63 224 -229q0 -68 -36 -122t-100 -84q-65 -30 -149 -30q-8 0 -8 8v79q0 8 8 8h1q86 0 138 40q50 38 50 101q0 47 -26 74q-26 28 -68 44q-33 13 -108 30q-123 27 -199 79t-76 159q0 68 33 122t93 84t140 30q6 0 10 -4t4 -10v-67q0 -6 -4 -10t-10 -4
q-78 0 -125 -39q-46 -39 -46 -100q0 -40 26 -71q25 -29 78 -50q28 -12 59 -18q9 -2 17.5 -4t14 -3t6.5 -1zM602 635q-13 13 -13 33q0 13 8 26v1q13 21 40 21q21 0 34 -15q5 -5 13 -15q13 -16 10 -37q-3 -19 -20 -32l-1 -1q-11 -7 -26 -7q-24 0 -37 17q-2 2 -4 5t-4 4z
M201 45q-13 13 -13 32q0 14 8 27q14 21 39 21q21 0 34 -15q10 -10 14 -15q12 -15 9 -36q-3 -19 -20 -32l-1 -1q-13 -8 -26 -8q-23 0 -36 18q-1 2 -4 5zM430 694q-16 0 -29 12q-13 11 -16 27v9q0 19 14 33t33 14h2q6 0 20 -2q21 -3 33 -19t7 -38v-1q-3 -15 -17 -26t-29 -11
q-1 0 -3 0.5t-3 0.5q-4 1 -12 1zM450 -68q-14 0 -29 13q-13 12 -16 26v1q0 2 -0.5 4t-0.5 4q0 20 14 34q13 13 34 13h2q13 0 20 -1q19 -3 32 -20q12 -17 8 -37v-1q-3 -15 -17 -26t-29 -11h-6q-4 1 -12 1z" />
    <glyph glyph-name="T" unicode="T" 
d="M845 693h-213q-20 0 -34 -14.5t-14 -33.5v-666q0 -19 -14 -33.5t-34 -14.5t-34 14.5t-14 33.5v666q0 19 -14 33.5t-34 14.5h-212q-20 0 -34 14.5t-14 33.5t14 33.5t34 14.5h617q19 0 33.5 -14.5t14.5 -33.5t-14.5 -33.5t-33.5 -14.5z" />
    <glyph glyph-name="U" unicode="U" horiz-adv-x="1015" 
d="M835 664q0 -20 -14 -34t-34 -14t-34.5 14t-14.5 34v77q0 19 14 33.5t34 14.5h1q19 0 33.5 -14.5t14.5 -33.5v-77zM276 616h-96v125q0 19 14 33.5t34 14.5t34 -14.5t14 -33.5v-125zM787 330q20 0 34 -14t14 -34v-24q0 -89 -44 -165q-18 -31 -53 -65.5t-66 -52.5
q-76 -44 -165 -44t-165 44q-31 18 -65.5 52.5t-52.5 66.5q-44 76 -44 164v434h96v-434q0 -65 31 -117q12 -21 37.5 -45.5t47.5 -37.5q54 -31 115 -31q64 0 116 31q22 13 46.5 37.5t37.5 46.5q31 52 31 116v24q0 20 14.5 34t34.5 14z" />
    <glyph glyph-name="V" unicode="V" horiz-adv-x="1081" 
d="M853 794q20 0 34.5 -14.5t14.5 -34.5q0 -9 -4 -19l-308 -769q-5 -13 -18.5 -22t-26.5 -9h-8q-13 0 -26.5 9t-18.5 22l-149 372q-4 10 -4 18q0 13 9 26.5t22 18.5q10 4 18 4q14 0 27.5 -9t18.5 -22l62 -155q12 -31 45.5 -31t45.5 31l220 553q5 13 18.5 22t27.5 9zM265 657
q-10 -4 -19 -4q-13 0 -26.5 9t-18.5 22l-17 42q-4 10 -4 19q0 20 14.5 34.5t34.5 14.5q13 0 26.5 -9t18.5 -22l17 -43q4 -10 4 -18q0 -14 -8.5 -27t-21.5 -18z" />
    <glyph glyph-name="W" unicode="W" horiz-adv-x="1387" 
d="M289 708q2 -8 2 -14q0 -15 -10 -29t-25 -18q-4 -1 -13 -1q-15 0 -28.5 10.5t-18.5 24.5l-14 48q-2 8 -2 14q0 20 14.5 34t34.5 14q15 0 28.5 -10.5t18.5 -24.5zM1193 683q-5 -14 -18.5 -25t-28.5 -11q-5 0 -13 2q-15 4 -25.5 18t-10.5 29q0 6 2 14l14 46q5 14 18.5 24.5
t28.5 10.5q20 0 34 -14t14 -34q0 -6 -2 -14zM994 345q4 15 18 25t29 10q5 0 13 -2q15 -4 25.5 -17.5t10.5 -29.5q0 -6 -2 -14l-101 -350q-4 -16 -19 -27t-32 -11q-16 0 -30 10.5t-19 24.5l-151 480q-10 30 -42 30t-42 -30l-152 -481q-5 -14 -19.5 -24t-29.5 -10
q-16 0 -30.5 10.5t-18.5 26.5l-101 350q-2 8 -2 13q0 16 10.5 30t25.5 18q4 1 13 1q15 0 29 -10t18 -25l45 -206q4 -13 16.5 -13.5t17.5 12.5l174 550q4 13 18 22.5t28 9.5t28 -9.5t18 -22.5l173 -550q5 -13 17.5 -13t16.5 13z" />
    <glyph glyph-name="X" unicode="X" 
d="M807 -53l-232 290q-15 19 -38 19t-38 -19l-232 -290q-14 -18 -37 -18h-2q-30 0 -43 27t6 51l260 325q11 13 11 30q0 18 -11 31l-257 320q-19 24 -5.5 51t43.5 27q24 0 38 -18l229 -287q14 -18 38 -18t38 18l229 287q14 18 38 18q30 0 43 -27t-6 -51l-256 -320
q-11 -13 -11 -31q0 -17 11 -30l260 -325q19 -24 6 -51t-43 -27h-2q-23 0 -37 18z" />
    <glyph glyph-name="Y" unicode="Y" 
d="M585 322v-342q0 -20 -14.5 -34.5t-34.5 -14.5t-34 14.5t-14 34.5v343q0 18 -11 31l-286 356q-19 24 -6 51.5t44 27.5q24 0 38 -18l232 -290q14 -18 38 -18t38 18l231 290q14 18 38 18h1q31 0 44 -27.5t-6 -51.5l-288 -358q-10 -12 -10 -30z" />
    <glyph glyph-name="Z" unicode="Z" horiz-adv-x="1116" 
d="M228 697q-20 0 -34 14t-14 34t14 34.5t34 14.5h42q20 0 34.5 -14.5t14.5 -34.5t-14.5 -34t-34.5 -14h-42zM883 23q21 0 36 -14.5t14 -34.5t-15.5 -34t-33.5 -14h-55q-20 0 -34.5 14.5t-14.5 34.5t14.5 34t34.5 14h54zM888 794q20 0 34 -14.5t14 -34.5v-4q0 -19 -11 -32
l-525 -605q-20 -23 -7.5 -52t43.5 -29h11q20 0 34.5 -14t14.5 -34t-14.5 -34.5t-34.5 -14.5h-219q-20 0 -34 14.5t-14 34.5v7q0 17 12 31l522 603q20 23 7.5 52t-43.5 29h-27q-20 0 -34 14t-14 34t14 34.5t34 14.5h237z" />
    <glyph glyph-name="bracketleft" unicode="[" horiz-adv-x="537" 
d="M207 885h124q11 0 19 -8t8 -19t-8 -19t-19 -8h-70q-11 0 -18.5 -8t-7.5 -19v-888q0 -11 7.5 -19t18.5 -8h70q11 0 19 -8t8 -19t-8 -19t-19 -8h-124q-11 0 -19 8t-8 19v996q0 11 8 19t19 8z" />
    <glyph glyph-name="bracketright" unicode="]" horiz-adv-x="537" 
d="M331 -165h-124q-11 0 -19 8t-8 19t8 19t19 8h69q11 0 19 8t8 19v888q0 11 -8 19t-19 8h-69q-11 0 -19 8t-8 19t8 19t19 8h124q11 0 19 -8t8 -19v-996q0 -11 -8 -19t-19 -8z" />
    <glyph glyph-name="a" unicode="a" 
d="M486 758q14 35 52 35t52 -35l299 -754q4 -12 4 -21q0 -23 -17 -40t-40 -17q-16 0 -31 10.5t-21 25.5l-67 172l-46 116h1l-104 269q-14 36 -30.5 36.5t-30.5 -35.5l-105 -270l-43 -110l-71 -178q-6 -15 -21 -25t-31 -10q-23 0 -39.5 16.5t-16.5 39.5q0 8 4 20z" />
    <glyph glyph-name="b" unicode="b" horiz-adv-x="948" 
d="M293 376q0 -22 -15 -37t-37 -15h-9q-22 0 -37 15t-15 37v364q0 22 15 37t37 15h9q22 0 37 -15t15 -37v-364zM620 377q64 -19 106 -74.5t42 -124.5q0 -89 -49 -157t-133 -88q-12 -3 -41 -5h-4q-20 0 -34 14.5t-14 34.5q0 18 12.5 32.5t30.5 15.5q21 2 29 4
q43 13 67.5 53.5t24.5 95.5q0 49 -31 89t-81 51h-5t-6 1q-17 2 -29 16.5t-12 31.5v1q0 19 13 36.5t32 22.5q2 1 6 2t5 1q35 14 56.5 49.5t21.5 78.5q0 46 -20 82.5t-63 48.5q-2 1 -5.5 1.5t-5.5 0.5q-17 3 -28.5 17t-11.5 31v1q0 20 14 34t34 14h5q20 -2 23 -3
q85 -18 126.5 -80.5t41.5 -144.5q0 -55 -31.5 -108t-85.5 -75z" />
    <glyph glyph-name="c" unicode="c" horiz-adv-x="1128" 
d="M782 740q3 34 32 48q12 6 23 6q12 0 26 -8q15 -8 48 -34q19 -16 22 -41v-6q0 -22 -15 -41v-1q-14 -16 -35.5 -18t-37.5 12q-8 6 -36 26q-30 19 -27 57zM933 116q16 -16 16 -40q0 -26 -21 -45q-128 -104 -299 -104q-192 0 -320.5 131.5t-128.5 328.5q0 102 39 192
q12 29 43 37q8 2 15 2q21 0 36 -12q18 -14 24.5 -36.5t-1.5 -45.5q-22 -63 -22 -139q0 -156 86 -249t231 -93q128 0 226 79q17 14 38.5 12.5t37.5 -18.5z" />
    <glyph glyph-name="d" unicode="d" horiz-adv-x="1071" 
d="M550 784q148 -25 245.5 -137.5t97.5 -285.5q0 -157 -89.5 -271.5t-230.5 -148.5q-35 -7 -71 -11h-4q-20 0 -34 14t-14 34q0 18 12.5 32t30.5 15q24 3 54 10q103 29 168.5 117t65.5 207q0 133 -66 219.5t-180 110.5q-14 3 -41 5q-18 1 -31 15.5t-13 32.5q0 20 14 34t34 14
h4q24 -2 48 -6zM293 23v-48q0 -19 -14.5 -33.5t-33.5 -14.5h-17q-20 0 -34 14.5t-14 33.5v770q0 19 14 33.5t34 14.5h17q19 0 33.5 -14.5t14.5 -33.5v-722z" />
    <glyph glyph-name="e" unicode="e" horiz-adv-x="901" 
d="M634 372v-1q0 -20 -14 -34t-34 -14h-310q-20 0 -34 14t-14 34t14 34t34 14h309q20 0 34.5 -13.5t14.5 -33.5zM293 23v-40q0 -23 -17 -39.5t-40 -16.5t-39.5 16.5t-16.5 39.5v754q0 23 16.5 39.5t39.5 16.5t40 -16.5t17 -39.5v-40v-278v-96v-300zM494 745q0 36 6 42t42 6
h131q36 0 42.5 -6t6.5 -42t-6.5 -42t-42.5 -6h-131q-36 0 -42 6t-6 42zM494 -25q0 36 6 42t42 6h131q36 0 42.5 -6t6.5 -42t-6.5 -42t-42.5 -6h-131q-36 0 -42 6t-6 42z" />
    <glyph glyph-name="f" unicode="f" horiz-adv-x="907" 
d="M629 415q20 0 34.5 -14t14.5 -34t-14.5 -34.5t-34.5 -14.5h-288q-19 0 -33 -14t-14 -33v-292q0 -23 -17 -40t-40 -17t-40 17t-17 40v322q0 47 33.5 80.5t80.5 33.5h335zM679 798q20 0 34 -14.5t14 -34.5t-14 -34t-34 -14h-348h-102q-20 0 -34.5 14t-14.5 34t14.5 34.5
t34.5 14.5h450z" />
    <glyph glyph-name="g" unicode="g" horiz-adv-x="1231" 
d="M679 310q0 38 5.5 43.5t43.5 5.5h272q38 0 44 -6t6 -43q0 -38 -6 -44t-44 -6h-272q-37 0 -43 6t-6 44zM1004 357q20 0 34 -14.5t14 -34.5q0 -1 -0.5 -3t-0.5 -3q-5 -37 -22.5 -86t-36.5 -80q-60 -99 -159 -156q-97 -56 -215 -56q-121 0 -220 59q-101 60 -159 160
q-59 101 -59 219q0 119 58 219q59 101 160 160q31 19 78.5 34.5t84.5 20.5h6q20 0 34.5 -14.5t14.5 -34.5q0 -18 -12.5 -32t-30.5 -16q-69 -9 -126 -43q-32 -19 -68 -55.5t-55 -68.5q-46 -77 -46 -170t46 -170q19 -32 55.5 -69t68.5 -56q77 -46 170 -46h2q72 0 138 31
q67 32 114 84q48 52 70 121q7 21 14 60q3 16 17 28t31 12z" />
    <glyph glyph-name="h" unicode="h" horiz-adv-x="969" 
d="M363 407q19 0 33 -13.5t14 -33.5t-14 -33.5t-33 -13.5h-41q-20 0 -33.5 -13.5t-13.5 -33.5v-278q0 -20 -13.5 -33.5t-33.5 -13.5h-1q-19 0 -33 13.5t-14 33.5v744q0 20 14 33.5t33 13.5h1q20 0 33.5 -13.5t13.5 -33.5v-278q0 -20 13.5 -33.5t33.5 -13.5h41zM743 779
q19 0 33 -13.5t14 -33.5v-744q0 -20 -14 -33.5t-33 -13.5t-33 13.5t-14 33.5v278q0 20 -14 33.5t-33 13.5h-42q-19 0 -32.5 13.5t-13.5 33.5t13.5 33.5t32.5 13.5h42q19 0 33 13.5t14 33.5v278q0 20 14 33.5t33 13.5z" />
    <glyph glyph-name="i" unicode="i" horiz-adv-x="457" 
d="M180 743q0 37 6 43t43 6t43 -6t6 -43v-88q0 -37 -6 -42.5t-43 -5.5t-43 5.5t-6 42.5v88zM180 437q0 37 6 42.5t43 5.5t43 -5.5t6 -42.5v-460q0 -37 -6 -43t-43 -6t-43 6t-6 43v460z" />
    <glyph glyph-name="j" unicode="j" horiz-adv-x="934" 
d="M316 -37q-67 41 -103 114q-25 51 -33 109v6q0 21 14 35q15 15 35 15h1q17 0 33 -13q13 -10 16 -30q9 -70 49 -118q51 -60 138 -60h2q51 0 94 25q14 8 38 32q20 20 31 39q26 44 26 95v1v536q0 20 15 35q14 14 34 14q21 0 35 -14q15 -15 15 -35v-536q0 -77 -40 -146
q-15 -26 -47 -58t-58 -48q-66 -39 -145 -39q-83 0 -150 41z" />
    <glyph glyph-name="k" unicode="k" horiz-adv-x="1028" 
d="M280 351v-135h-1v-244q0 -20 -14.5 -34.5t-34.5 -14.5t-35 14.5t-15 34.5v776q0 20 15 34.5t35 14.5t34.5 -14.5t14.5 -34.5v-398zM790 798q34 0 46.5 -31t-12.5 -54l-303 -276q-22 -20 -22 -50q0 -25 19 -46l318 -337q22 -23 9.5 -52.5t-44.5 -29.5q-20 0 -35 15
l-324 341q-18 19 -31 51.5t-13 58.5q0 29 15 63.5t37 53.5l307 280q15 13 33 13z" />
    <glyph glyph-name="l" unicode="l" horiz-adv-x="956" 
d="M777 -29q0 -20 -14.5 -34.5t-34.5 -14.5h-499q-20 0 -34.5 14.5t-14.5 34.5v778q0 20 14.5 34.5t34.5 14.5h1q20 0 34.5 -14.5t14.5 -34.5v-708q0 -9 6 -15t15 -6h428q20 0 34.5 -14.5t14.5 -34.5z" />
    <glyph glyph-name="m" unicode="m" horiz-adv-x="1228" 
d="M280 748l-1 -776q0 -20 -14.5 -35t-34.5 -15t-35 15t-15 35v776q0 20 15 35t35 15t35 -15t15 -35zM1050 748l-1 -776q0 -20 -14.5 -35t-34.5 -15t-35 15t-15 35v776q0 20 15 35t35 15t35 -15t15 -35zM1039 724l-187 -339q-14 -25 -43 -25q-15 0 -24 6q-10 6 -17.5 19
t-7.5 25q0 15 6 24l187 339q14 25 43 25q15 0 24 -6v-1q26 -15 26 -43q0 -14 -7 -24zM186 724q-6 9 -6 24q0 29 25 43l1 1q9 6 24 6q29 0 43 -25l187 -339q6 -9 6 -24q0 -12 -7.5 -25t-17.5 -19q-9 -6 -24 -6q-12 0 -25 7.5t-19 17.5zM665 120l-1 -35q0 -20 -14.5 -35
t-34.5 -15t-35 15t-15 35v35q0 20 15 35t35 15t35 -15t15 -35z" />
    <glyph glyph-name="n" unicode="n" horiz-adv-x="1011" 
d="M193 718q-9 13 -9 29q0 26 21 40q14 10 28 10q26 0 41 -22l268 -383q9 -13 9 -29q0 -28 -20 -41q-13 -9 -29 -9q-27 0 -41 21zM780 -78q-20 0 -34.5 15t-14.5 35l2 776q0 20 15 35t35 15t35 -15t15 -35v-776q0 -20 -15 -35t-35 -15h-3zM230 -78q-20 0 -35 15t-15 35
l3 776q0 20 14.5 35t34.5 15t35 -15t15 -35v-776q0 -20 -15 -35t-35 -15h-2z" />
    <glyph glyph-name="o" unicode="o" horiz-adv-x="1076" 
d="M319 -18q-98 57 -159 159q-60 101 -60 219t59 219t159 159q101 59 219 59q119 0 220 -59q102 -59 160 -159q59 -101 59 -219t-60 -219t-160 -159q-101 -59 -219 -59q-117 0 -218 59zM707 66q34 20 69 55t55 69q46 80 46 170t-46 170q-20 34 -55 69q-36 36 -68 55
q-77 46 -171 46q-90 0 -170 -46q-34 -21 -68 -55q-38 -38 -55 -69q-45 -78 -45 -170q0 -90 46 -170q20 -34 55 -69q38 -38 69 -55q29 -18 81 -32q51 -14 86 -14h1q93 0 170 46z" />
    <glyph glyph-name="p" unicode="p" horiz-adv-x="952" 
d="M279 407v-101h-1v-337q0 -20 -14.5 -34.5t-34.5 -14.5t-34.5 14.5t-14.5 34.5v782q0 20 14.5 34.5t34.5 14.5h1q20 0 34.5 -14.5t14.5 -34.5v-50h-1v-294h1zM740 677q33 -57 33 -123v-1q0 -58 -36 -121t-86 -93q-57 -33 -123 -33q-20 0 -34.5 14.5t-14.5 34.5v3
q0 20 14.5 34.5t34.5 14.5q62 0 104 42q43 43 43 105q0 61 -43 104t-104 43q-20 0 -34.5 14.5t-14.5 34.5v1q0 20 14.5 34.5t34.5 14.5q66 0 123 -33q23 -13 49 -40t40 -50z" />
    <glyph glyph-name="q" unicode="q" horiz-adv-x="1215" 
d="M918 67l52 -55q14 -16 14 -33q0 -22 -17 -37q-13 -11 -31 -11q-20 0 -35 15l-48 49l-77 81h1l-71 73q-14 16 -14 34q0 21 17 36q14 12 31 12q20 0 35 -15l76 -80h1l66 -68v-1zM979 576q57 -98 57 -215q0 -85 -31 -159q-1 -1 -1 -2.5t-1 -2.5q-10 -23 -34.5 -28t-42.5 13
h-1q-14 14 -14 34q0 10 3 18q0 1 1 2.5t1 2.5q24 57 24 122q0 91 -45 167q-18 31 -53.5 66.5t-67.5 53.5q-77 44 -166 44q-90 0 -167 -44q-31 -18 -66.5 -53t-53.5 -67q-44 -77 -44 -167q0 -89 45 -166q19 -32 54.5 -67.5t66.5 -53.5q31 -19 79 -32t84 -13h2q28 0 60 6
q1 0 4.5 0.5t4.5 0.5q21 0 35 -16q19 -21 10 -47.5t-37 -31.5q-37 -7 -77 -7q-116 0 -214 57q-97 56 -156 157q-58 98 -58 213q0 113 58 214q57 99 155 156q99 58 215 58q114 0 215 -58q99 -57 156 -155z" />
    <glyph glyph-name="r" unicode="r" horiz-adv-x="955" 
d="M490 295q-6 10 -8.5 22t-3 20t0.5 20.5t1 16.5q0 15 11 25.5t26 10.5q61 0 103 42t42 102t-42 102t-103 42q-17 0 -28.5 11.5t-11.5 27.5v17q0 16 11.5 28t28.5 12q67 0 122 -33q23 -13 48 -38.5t39 -48.5q33 -54 33 -120q0 -78 -49 -144q-41 -53 -98 -78q-14 -5 -14 -22
q0 -8 3 -12l168 -290q14 -24 0 -48.5t-42 -24.5q-11 0 -23.5 7.5t-18.5 17.5zM180 736q0 37 6 43t43 6t42.5 -6t5.5 -43v-761q0 -37 -5.5 -43t-42.5 -6t-43 6t-6 43v761z" />
    <glyph glyph-name="s" unicode="s" horiz-adv-x="932" 
d="M529 396q224 -63 224 -229q0 -68 -36 -122t-100 -84q-65 -30 -149 -30q-8 0 -8 8v79q0 8 8 8h1q86 0 138 40q50 38 50 101q0 47 -26 74q-26 28 -68 44q-33 13 -108 30q-123 27 -199 79t-76 159q0 68 33 122t93 84t140 30q6 0 10 -4t4 -10v-67q0 -6 -4 -10t-10 -4
q-78 0 -125 -39q-46 -39 -46 -100q0 -40 26 -71q25 -29 78 -50q28 -12 59 -18q9 -2 17.5 -4t14 -3t6.5 -1zM602 635q-13 13 -13 33q0 13 8 26v1q13 21 40 21q21 0 34 -15q5 -5 13 -15q13 -16 10 -37q-3 -19 -20 -32l-1 -1q-11 -7 -26 -7q-24 0 -37 17q-2 2 -4 5t-4 4z
M201 45q-13 13 -13 32q0 14 8 27q14 21 39 21q21 0 34 -15q10 -10 14 -15q12 -15 9 -36q-3 -19 -20 -32l-1 -1q-13 -8 -26 -8q-23 0 -36 18q-1 2 -4 5zM430 694q-16 0 -29 12q-13 11 -16 27v9q0 19 14 33t33 14h2q6 0 20 -2q21 -3 33 -19t7 -38v-1q-3 -15 -17 -26t-29 -11
q-1 0 -3 0.5t-3 0.5q-4 1 -12 1zM450 -68q-14 0 -29 13q-13 12 -16 26v1q0 2 -0.5 4t-0.5 4q0 20 14 34q13 13 34 13h2q13 0 20 -1q19 -3 32 -20q12 -17 8 -37v-1q-3 -15 -17 -26t-29 -11h-6q-4 1 -12 1z" />
    <glyph glyph-name="t" unicode="t" 
d="M845 693h-213q-20 0 -34 -14.5t-14 -33.5v-666q0 -19 -14 -33.5t-34 -14.5t-34 14.5t-14 33.5v666q0 19 -14 33.5t-34 14.5h-212q-20 0 -34 14.5t-14 33.5t14 33.5t34 14.5h617q19 0 33.5 -14.5t14.5 -33.5t-14.5 -33.5t-33.5 -14.5z" />
    <glyph glyph-name="u" unicode="u" horiz-adv-x="1015" 
d="M835 664q0 -20 -14 -34t-34 -14t-34.5 14t-14.5 34v77q0 19 14 33.5t34 14.5h1q19 0 33.5 -14.5t14.5 -33.5v-77zM276 616h-96v125q0 19 14 33.5t34 14.5t34 -14.5t14 -33.5v-125zM787 330q20 0 34 -14t14 -34v-24q0 -89 -44 -165q-18 -31 -53 -65.5t-66 -52.5
q-76 -44 -165 -44t-165 44q-31 18 -65.5 52.5t-52.5 66.5q-44 76 -44 164v434h96v-434q0 -65 31 -117q12 -21 37.5 -45.5t47.5 -37.5q54 -31 115 -31q64 0 116 31q22 13 46.5 37.5t37.5 46.5q31 52 31 116v24q0 20 14.5 34t34.5 14z" />
    <glyph glyph-name="v" unicode="v" horiz-adv-x="1081" 
d="M853 794q20 0 34.5 -14.5t14.5 -34.5q0 -9 -4 -19l-308 -769q-5 -13 -18.5 -22t-26.5 -9h-8q-13 0 -26.5 9t-18.5 22l-149 372q-4 10 -4 18q0 13 9 26.5t22 18.5q10 4 18 4q14 0 27.5 -9t18.5 -22l62 -155q12 -31 45.5 -31t45.5 31l220 553q5 13 18.5 22t27.5 9zM265 657
q-10 -4 -19 -4q-13 0 -26.5 9t-18.5 22l-17 42q-4 10 -4 19q0 20 14.5 34.5t34.5 14.5q13 0 26.5 -9t18.5 -22l17 -43q4 -10 4 -18q0 -14 -8.5 -27t-21.5 -18z" />
    <glyph glyph-name="w" unicode="w" horiz-adv-x="1387" 
d="M289 708q2 -8 2 -14q0 -15 -10 -29t-25 -18q-4 -1 -13 -1q-15 0 -28.5 10.5t-18.5 24.5l-14 48q-2 8 -2 14q0 20 14.5 34t34.5 14q15 0 28.5 -10.5t18.5 -24.5zM1193 683q-5 -14 -18.5 -25t-28.5 -11q-5 0 -13 2q-15 4 -25.5 18t-10.5 29q0 6 2 14l14 46q5 14 18.5 24.5
t28.5 10.5q20 0 34 -14t14 -34q0 -6 -2 -14zM994 345q4 15 18 25t29 10q5 0 13 -2q15 -4 25.5 -17.5t10.5 -29.5q0 -6 -2 -14l-101 -350q-4 -16 -19 -27t-32 -11q-16 0 -30 10.5t-19 24.5l-151 480q-10 30 -42 30t-42 -30l-152 -481q-5 -14 -19.5 -24t-29.5 -10
q-16 0 -30.5 10.5t-18.5 26.5l-101 350q-2 8 -2 13q0 16 10.5 30t25.5 18q4 1 13 1q15 0 29 -10t18 -25l45 -206q4 -13 16.5 -13.5t17.5 12.5l174 550q4 13 18 22.5t28 9.5t28 -9.5t18 -22.5l173 -550q5 -13 17.5 -13t16.5 13z" />
    <glyph glyph-name="x" unicode="x" 
d="M807 -53l-232 290q-15 19 -38 19t-38 -19l-232 -290q-14 -18 -37 -18h-2q-30 0 -43 27t6 51l260 325q11 13 11 30q0 18 -11 31l-257 320q-19 24 -5.5 51t43.5 27q24 0 38 -18l229 -287q14 -18 38 -18t38 18l229 287q14 18 38 18q30 0 43 -27t-6 -51l-256 -320
q-11 -13 -11 -31q0 -17 11 -30l260 -325q19 -24 6 -51t-43 -27h-2q-23 0 -37 18z" />
    <glyph glyph-name="y" unicode="y" 
d="M585 322v-342q0 -20 -14.5 -34.5t-34.5 -14.5t-34 14.5t-14 34.5v343q0 18 -11 31l-286 356q-19 24 -6 51.5t44 27.5q24 0 38 -18l232 -290q14 -18 38 -18t38 18l231 290q14 18 38 18h1q31 0 44 -27.5t-6 -51.5l-288 -358q-10 -12 -10 -30z" />
    <glyph glyph-name="z" unicode="z" horiz-adv-x="1116" 
d="M228 697q-20 0 -34 14t-14 34t14 34.5t34 14.5h42q20 0 34.5 -14.5t14.5 -34.5t-14.5 -34t-34.5 -14h-42zM883 23q21 0 36 -14.5t14 -34.5t-15.5 -34t-33.5 -14h-55q-20 0 -34.5 14.5t-14.5 34.5t14.5 34t34.5 14h54zM888 794q20 0 34 -14.5t14 -34.5v-4q0 -19 -11 -32
l-525 -605q-20 -23 -7.5 -52t43.5 -29h11q20 0 34.5 -14t14.5 -34t-14.5 -34.5t-34.5 -14.5h-219q-20 0 -34 14.5t-14 34.5v7q0 17 12 31l522 603q20 23 7.5 52t-43.5 29h-27q-20 0 -34 14t-14 34t14 34.5t34 14.5h237z" />
  </font>
</defs>
</svg>
