<?xml version="1.0" standalone="no"?>
<!DOCTYPE svg PUBLIC "-//W3C//DTD SVG 1.1//EN" "http://www.w3.org/Graphics/SVG/1.1/DTD/svg11.dtd" >
<svg xmlns="http://www.w3.org/2000/svg" xmlns:xlink="http://www.w3.org/1999/xlink" version="1.1">
<metadata>
Created by FontForge 20170731 at Tue Nov 14 00:00:56 2017
 By Aleksey,,,
</metadata>
<defs>
<font id="AndersonGroteskBoldOblique" horiz-adv-x="0" >
  <font-face 
    font-family="Anderson Grotesk Bold Oblique"
    font-weight="400"
    font-style="oblique"
    font-stretch="normal"
    units-per-em="1000"
    panose-1="0 0 0 0 0 0 0 0 0 0"
    ascent="800"
    descent="-200"
    x-height="506"
    cap-height="697"
    bbox="-86 -204 1014 789"
    underline-thickness="50"
    underline-position="-200"
    unicode-range="U+000A-F00F"
  />
<missing-glyph horiz-adv-x="500" 
 />
    <glyph glyph-name="hyphen.alt1" unicode="&#x2d;&#x2d;" horiz-adv-x="722" 
d="M43 273h647l-10 -82h-648z" />
    <glyph glyph-name="hyphen.alt2" unicode="&#x2d;&#x2d;&#x2d;" horiz-adv-x="1046" 
d="M43 274h971l-10 -83h-972z" />
    <glyph glyph-name=".notdef" horiz-adv-x="500" 
 />
    <glyph glyph-name=".notdef" horiz-adv-x="500" 
 />
    <glyph glyph-name=".null" 
 />
    <glyph glyph-name="nonmarkingreturn" horiz-adv-x="333" 
 />
    <glyph glyph-name="LF" unicode="&#xa;" 
 />
    <glyph glyph-name="controlCR" unicode="&#xd;" 
 />
    <glyph glyph-name="space" unicode=" " horiz-adv-x="280" 
 />
    <glyph glyph-name="exclam" unicode="!" horiz-adv-x="243" 
d="M101 690h110l-29 -288l-33 -218h-87l10 218zM32 -1l11 104h109l-10 -104h-110z" />
    <glyph glyph-name="quotedbl" unicode="&#x22;" horiz-adv-x="333" 
d="M32 421l12 119h112l-11 -119l-27 -119h-80zM188 540h113l-12 -119l-26 -119h-81l-6 119z" />
    <glyph glyph-name="numbersign" unicode="#" horiz-adv-x="792" 
d="M749 423h-159l-32 -148h174l-10 -84h-183l-40 -190h-102l41 190h-176l-43 -190h-101l42 190h-128l11 84h136l32 148h-153l11 84h160l42 190h101l-42 -190h177l41 190h102l-41 -190h151zM457 275l32 148h-177l-32 -148h177z" />
    <glyph glyph-name="dollar" unicode="$" horiz-adv-x="611" 
d="M405 373q35 -13 59.5 -26.5t47 -35.5t33.5 -55t10 -75q-2 -83 -66.5 -134.5t-157.5 -63.5l-8 -84h-112l9 84q-93 12 -139 63q-44 48 -49 113l112 17q0 -3 0.5 -7t5.5 -16t13 -22t26 -21.5t42 -17.5l21 214q-79 28 -124 66q-33 28 -43.5 70t-0.5 81t29.5 71.5t42.5 48.5
q53 44 135 57l8 83h112l-9 -85q27 -4 47 -12q1 -1 2 -1q120 -47 128 -178l-121 -15q4 40 -18 71q-16 22 -48 33l-21 -211q23 -8 34 -12zM263 422l18 177q-11 -2 -22 -7q-41 -16 -59 -51.5t3 -75.5q15 -24 60 -43zM342 89q31 7 54 23t33.5 35.5t10.5 40t-12 37.5
q-21 28 -68 47z" />
    <glyph glyph-name="percent" unicode="%" horiz-adv-x="694" 
d="M544 313q66 0 94.5 -43t21.5 -116q-4 -43 -20.5 -78t-49.5 -58.5t-78 -23.5q-64 0 -94 43.5t-23 112.5q16 163 149 163zM589 162q8 81 -52 81q-27 0 -46 -21t-23 -60q-9 -95 51 -95t70 95zM150 384q-64 0 -93.5 43.5t-22.5 112.5q16 163 148 163q44 0 72 -20.5
t38.5 -55.5t5.5 -83q-7 -67 -44.5 -113.5t-103.5 -46.5zM108 552q-9 -92 49.5 -92t68.5 92q7 79 -51 79q-17 0 -31 -8.5t-23.5 -27t-12.5 -43.5zM516 695l117 -1l-477 -696l-117 1z" />
    <glyph glyph-name="ampersand" unicode="&#x26;" horiz-adv-x="653" 
d="M621 252q-1 -4 -3 -10t-10 -24t-17 -35.5t-25.5 -40t-35.5 -41.5l66 -102l-139 1l-21 35q-26 -18 -71.5 -30t-96 -15t-101.5 13t-82 51q-59 66 -52 145q6 64 53.5 122t124.5 87l-40 75q-25 56 -10 101t52.5 73.5t85.5 35.5q64 9 118.5 -18.5t64.5 -85.5q6 -37 -6 -73.5
t-33 -60.5t-43.5 -43t-38.5 -28l-16 -10l125 -192q18 14 34 44.5t23 53.5l7 24zM308 614q-37 -6 -49 -38.5t12 -79.5l28 -48q80 45 82 104q2 42 -34 58q-17 8 -39 4zM166 118q39 -36 99.5 -35t118.5 33l-130 217q-40 -15 -68.5 -42t-40 -57t-6.5 -61.5t27 -54.5z" />
    <glyph glyph-name="quotesingle" unicode="'" horiz-adv-x="189" 
d="M44 695h112l-11 -119l-27 -119h-80l-6 119z" />
    <glyph glyph-name="parenleft" unicode="(" horiz-adv-x="374" 
d="M341 780q-55 -43 -117 -170t-76 -272q-14 -153 20 -270t86 -170h-104q-59 51 -94 173t-19 274q7 73 24 137t38 109t48 84t49 62.5t46 42.5h99z" />
    <glyph glyph-name="parenright" unicode=")" horiz-adv-x="375" 
d="M220 780q16 -16 30.5 -34.5t31.5 -47.5t28.5 -62t21.5 -78.5t10.5 -96.5t-4.5 -116q-15 -152 -74 -274t-128 -173h-104q62 53 120 170t74 270q14 145 -22.5 272t-83.5 170h100z" />
    <glyph glyph-name="asterisk" unicode="*" horiz-adv-x="412" 
d="M379 510l-8 -82l-103 13l77 -63l-63 -58l-56 83l4 -104h-82l23 104l-71 -83l-52 58l98 67l-114 -17l8 82l101 -13l-75 63l64 58l55 -83l-3 103h81l-22 -101l71 81l52 -58l-88 -62z" />
    <glyph glyph-name="plus" unicode="+" horiz-adv-x="473" 
d="M441 276l-10 -95h-152l-15 -157h-95l15 157h-152l10 95h152l15 147h94l-14 -147h152z" />
    <glyph glyph-name="comma" unicode="," horiz-adv-x="194" 
d="M44 118h117l-12 -119l-45 -119h-50l12 119h-34z" />
    <glyph glyph-name="hyphen" unicode="-" horiz-adv-x="368" 
d="M24 274h339l-8 -79h-339z" />
    <glyph glyph-name="period" unicode="." horiz-adv-x="183" 
d="M43 107h108l-11 -108h-108z" />
    <glyph glyph-name="slash" unicode="/" horiz-adv-x="497" 
d="M355 693h110l-323 -695h-110z" />
    <glyph glyph-name="zero" unicode="0" horiz-adv-x="596" 
d="M333 688q131 0 187 -93t40 -255q-7 -68 -28 -129t-56.5 -111t-90 -79.5t-122.5 -29.5q-85 0 -141 45.5t-76.5 121.5t-10.5 174q36 356 298 356zM449 365q6 62 0 108t-24 73t-43 40t-58 13q-66 0 -113.5 -61t-58.5 -174q-27 -275 121 -275q70 0 116.5 69t59.5 207z" />
    <glyph glyph-name="one" unicode="1" horiz-adv-x="293" 
d="M166 696h95l-70 -698l-109 1l53 524q-4 -4 -11 -8.5t-33.5 -12.5t-58.5 -8l9 98q48 1 84 31t41 73z" />
    <glyph glyph-name="two" unicode="2" horiz-adv-x="588" 
d="M475 338q-34 -32 -82.5 -61t-84 -47.5t-70 -51t-50.5 -75.5h324l-10 -103h-364h-71h-35q8 79 55.5 155t116.5 124q32 21 73.5 45t66 38t49 34.5t37.5 44.5q33 63 10.5 109t-80.5 58q-40 8 -81 -5t-63 -42q-8 -10 -14 -24.5t-7 -23.5l-2 -9l-109 15q19 65 62.5 110
t95 62.5t105 17.5t99.5 -19.5t72 -52.5q17 -22 27 -55t10.5 -73.5t-20 -86.5t-60.5 -84z" />
    <glyph glyph-name="three" unicode="3" horiz-adv-x="565" 
d="M438 360q3 -1 9.5 -4t21.5 -17t25.5 -32t17 -52t2.5 -74q-9 -81 -80 -137.5t-173 -56.5q-91 0 -153 40.5t-76 129.5l117 17q8 -43 42.5 -65t83.5 -20q85 3 121 66q30 52 7 101q-26 53 -96 51h-55l10 103l58 1q38 -1 65.5 20t34.5 50.5t1.5 59t-34 50.5t-71.5 21
q-56 1 -95.5 -26.5t-47.5 -79.5l-110 11q26 96 98 143t167 47q103 0 156 -56.5t48 -137.5q-2 -34 -12.5 -62.5t-24 -44.5t-26.5 -27t-22 -15z" />
    <glyph glyph-name="four" unicode="4" horiz-adv-x="617" 
d="M470 287h115l-10 -100h-115l-19 -189h-102l19 189h-326l7 73l380 436h92zM368 287l24 237l-206 -237h182z" />
    <glyph glyph-name="five" unicode="5" horiz-adv-x="568" 
d="M299 457q66 7 115.5 -11t76 -54t37.5 -81.5t6 -96.5q-4 -36 -16 -69t-36 -63t-57.5 -51.5t-82 -32.5t-107.5 -7q-43 3 -76 14t-53 25.5t-35.5 37t-23 39.5t-15.5 42l116 40q0 -4 2 -10.5t11 -23.5t22 -29.5t39 -23t59 -10.5q65 0 100.5 37t41.5 88q7 68 -24.5 107
t-96.5 39q-23 0 -43.5 -6t-33.5 -14t-23 -16.5t-14 -14.5l-4 -6l-122 2l70 390h392l-12 -101l-302 -1l-33 -195q6 6 16.5 14t42.5 23.5t63 18.5z" />
    <glyph glyph-name="six" unicode="6" horiz-adv-x="585" 
d="M471 430q35 -26 61 -81q14 -31 17 -81q0 -21 -2 -45l-1 -1q-7 -56 -29 -101q0 -1 -1 -1q0 -1 -1 -2l-0.5 -1l-0.5 -1q0 -1 -1 -2l-1 -2q-1 -3 -2 -4t-1 -2q-1 -1 -2 -3t-2 -3q0 -1 -1.5 -3t-2.5 -3l-2 -4l-1 -1l-1 -1q-1 -1 -2 -3q-29 -39 -89.5 -70t-141.5 -29
q-48 1 -87.5 15.5t-64.5 37t-40.5 46t-22.5 48.5q-26 90 -11 210q22 172 104 267t210 91q49 -1 87.5 -15t58.5 -33.5t33.5 -38.5t17.5 -32l4 -13l-106 -24q-1 3 -2 7.5t-9 16.5t-19.5 20.5t-35 14t-54.5 2.5q-60 -5 -108.5 -59t-60.5 -134q1 2 3 4t9.5 7.5t16 11t22.5 12.5
t30 12t38 9t46 5q5 1 12 0q58 0 109 -27q16 -9 27 -17zM440 231q3 29 -3 54q-21 86 -113 90h-10q-63 -3 -110.5 -39.5t-56.5 -96.5q-1 -8 -2 -24q0 -28 9 -52q5 -11 13 -23q13 -18 34 -31h1q28 -18 66 -21h7h8q18 0 37 4q19 5 34 13q38 18 60 52q21 31 26 72v2z" />
    <glyph glyph-name="seven" unicode="7" horiz-adv-x="548" 
d="M41 694h475l-7 -68l-9 -16l-316 -613h-117l313 603h-348z" />
    <glyph glyph-name="eight" unicode="8" horiz-adv-x="595" 
d="M562 513q-4 -32 -17.5 -59.5t-30 -44t-33 -28.5t-27.5 -17l-11 -5q4 -1 12 -5t27 -18.5t32.5 -32.5t23 -51t6.5 -71q-8 -78 -76.5 -134t-193.5 -59h-4q-66 2 -114.5 19t-75.5 44.5t-38.5 60.5t-8.5 69q4 38 19.5 70.5t35.5 51.5t39 32.5t32 18.5l13 5l-11 5.5t-24 16.5
t-29 29t-21 43.5t-6 59.5q6 57 38.5 100t90 67.5t131.5 25.5h3h1q73 -1 124.5 -25.5t75 -67.5t17.5 -100zM280 79q63 0 104.5 32t42.5 84q1 16 -5 34t-19 35t-30 26q-30 14 -70 13q-40 0 -76 -15q-20 -9 -36 -25.5t-25 -34t-12 -33.5q-9 -52 26 -84t100 -32zM381 420
q34 17 53 46.5t17 59.5q-4 41 -33 69t-84 28h-1q-37 0 -66.5 -14.5t-45.5 -35.5t-24 -47q-8 -30 5 -59.5t45 -46.5q27 -13 67 -13q42 1 67 13z" />
    <glyph glyph-name="nine" unicode="9" horiz-adv-x="582" 
d="M530 561q28 -88 16 -208q-11 -114 -50 -196t-104 -126t-151 -44q-135 0 -190 93q-11 19 -15 34l106 26q0 -2 1.5 -7t9.5 -16.5t20 -19.5t36 -13t55 -1q60 7 107 61.5t56 134.5q-2 -2 -5.5 -6t-18 -14.5t-31.5 -18.5t-46 -16t-62 -10h-12q-58 -2 -110 25q-13 6 -28 15
q-36 27 -62 80q-15 30 -19 79q-2 20 0 45v2q5 45 33 104v1l1 2q0 1 1 2q1 3 2 5h1q1 2 1 3t1 2q2 4 3 5q0 1 1 1q0 1 1.5 3t1.5 3h1q0 1 1 2t1 2l0.5 1t1.5 2l0.5 1t1.5 1q17 25 44 46.5t75 39t104 17.5q48 0 88 -13.5t66 -35.5t42 -45t24 -48zM434 453q2 11 1 24
q0 29 -10 51q-5 13 -14 23q-13 18 -35 31q-28 17 -67 18q-3 1 -7 0q-4 1 -8 0q-20 -1 -36 -5q-19 -5 -34 -13q-38 -19 -60 -54q-20 -32 -24 -72v-3q-2 -27 5 -53q24 -85 115 -87q7 0 11 1q40 2 75 19t59 48.5t29 71.5z" />
    <glyph glyph-name="colon" unicode=":" horiz-adv-x="228" 
d="M83 504h113l-12 -118h-113zM32 -1l12 118h113l-12 -118h-113z" />
    <glyph glyph-name="semicolon" unicode=";" horiz-adv-x="230" 
d="M32 -1l12 119h117l-12 -119l-45 -119h-50l12 119h-34zM85 506h113l-12 -118h-113z" />
    <glyph glyph-name="less" unicode="&#x3c;" horiz-adv-x="586" 
d="M554 480l-11 -111l-325 -130l299 -123l-11 -117l-474 210l6 62z" />
    <glyph glyph-name="equal" unicode="=" horiz-adv-x="508" 
d="M60 405h416l-9 -91h-416zM32 130l9 90h417l-9 -90h-417z" />
    <glyph glyph-name="greater" unicode="&#x3e;" horiz-adv-x="586" 
d="M80 480l474 -209l-6 -62l-516 -210l12 117l324 123l-299 130z" />
    <glyph glyph-name="question" unicode="?" horiz-adv-x="479" 
d="M411 634q19 -20 28.5 -53t6.5 -70t-24.5 -75.5t-59.5 -64.5q-6 -4 -20.5 -14t-21 -15t-18.5 -15.5t-18 -22t-13.5 -28.5t-12 -40t-7.5 -52h-104q4 47 14 85t22.5 61.5t31 44.5t32 31t32 23t25.5 19q27 22 35 50t-1 50.5t-34 37.5t-59 15q-28 0 -51 -10.5t-34.5 -25.5
t-19 -30t-9.5 -26l-3 -10l-96 15q14 58 50 99t81 58t93 19t89.5 -13t65.5 -43zM129 -2l10 105h105l-11 -105h-104z" />
    <glyph glyph-name="at" unicode="@" horiz-adv-x="909" 
d="M729 641q75 -56 113.5 -152t34 -199t-47.5 -187q-18 -35 -51.5 -67.5t-71 -53.5t-77 -18.5t-66.5 34.5q-9 10 -14 24.5t-6 24.5l-1 9l-3 -3t-8.5 -9t-13.5 -13t-18.5 -13t-23.5 -12.5t-28 -9t-32 -3.5q-14 0 -27 1t-30.5 5t-31.5 11.5t-30 20t-26 30.5t-19.5 43t-10 58.5
t1.5 75.5q7 63 26 109.5t41.5 71t52.5 39t52 18.5t46 4q21 0 40 -5.5t31 -14t21 -16.5t13 -14l3 -6l5 46h95l-35 -346q-5 -58 29.5 -59t72.5 51q34 46 45 105q15 84 3.5 150t-39.5 114t-71 79.5t-91.5 46.5t-99.5 15q-145 -2 -244.5 -110.5t-110.5 -297.5
q-5 -78 11.5 -140.5t48.5 -101t74 -62.5t88 -29t91 3.5t82 31.5l34 -77q-9 -5 -25.5 -13t-68 -21t-103.5 -13q-118 0 -200.5 62.5t-113.5 199.5q-12 51 -13 115t14 140.5t46 145t91.5 129t141.5 92.5q63 25 132.5 31.5t142 -11t129.5 -59.5zM543 235q7 75 -19 111.5
t-64 36.5q-101 0 -116 -146q-7 -75 14.5 -113.5t69.5 -38.5q40 0 74 38.5t41 111.5z" />
    <glyph glyph-name="A" unicode="A" horiz-adv-x="667" 
d="M452 697l203 -696h-28t-34 -0.5t-63 0.5l-48 165l-271 1l-82 -166h-117l343 696h97zM253 264h208l-77 276z" />
    <glyph glyph-name="A" unicode="&#xc5;" horiz-adv-x="667" 
d="M452 697l203 -696h-28t-34 -0.5t-63 0.5l-48 165l-271 1l-82 -166h-117l343 696h97zM253 264h208l-77 276z" />
    <glyph glyph-name="A" unicode="&#xc4;" horiz-adv-x="667" 
d="M452 697l203 -696h-28t-34 -0.5t-63 0.5l-48 165l-271 1l-82 -166h-117l343 696h97zM253 264h208l-77 276z" />
    <glyph glyph-name="A" unicode="&#xc3;" horiz-adv-x="667" 
d="M452 697l203 -696h-28t-34 -0.5t-63 0.5l-48 165l-271 1l-82 -166h-117l343 696h97zM253 264h208l-77 276z" />
    <glyph glyph-name="A" unicode="&#xc2;" horiz-adv-x="667" 
d="M452 697l203 -696h-28t-34 -0.5t-63 0.5l-48 165l-271 1l-82 -166h-117l343 696h97zM253 264h208l-77 276z" />
    <glyph glyph-name="A" unicode="&#xc1;" horiz-adv-x="667" 
d="M452 697l203 -696h-28t-34 -0.5t-63 0.5l-48 165l-271 1l-82 -166h-117l343 696h97zM253 264h208l-77 276z" />
    <glyph glyph-name="A" unicode="&#xc0;" horiz-adv-x="667" 
d="M452 697l203 -696h-28t-34 -0.5t-63 0.5l-48 165l-271 1l-82 -166h-117l343 696h97zM253 264h208l-77 276z" />
    <glyph glyph-name="B" unicode="B" horiz-adv-x="599" 
d="M450 367q6 0 15.5 -2.5t32.5 -15t39.5 -31t27 -56.5t3.5 -86q-8 -61 -53 -109.5t-124 -59.5q-45 -6 -119 -6h-185h-66l70 698h271q20 0 64 -6q64 -8 101.5 -51t34.5 -116q-2 -36 -14 -65.5t-28 -46t-32 -28t-27 -15.5zM188 603l-19 -188h53h28q10 0 46 0.5t43 0.5
q35 0 60 11t39 32.5t17 51.5q6 69 -64 85q-22 6 -93 6zM459 205q2 19 -3.5 36t-19 33t-42.5 25.5t-70 9.5h-166l-20 -207h104h29q69 -2 111 11.5t58 35.5t19 56z" />
    <glyph glyph-name="C" unicode="C" horiz-adv-x="651" 
d="M330 91q36 -1 66.5 7t48.5 20t30.5 24.5t17.5 20.5l4 9l109 -24q-2 -4 -5 -9.5t-14.5 -22.5t-25.5 -32t-39 -33.5t-53.5 -32t-70 -22.5t-87.5 -9q-148 0 -228 97.5t-60 277.5q6 47 19 89t32.5 76.5t44.5 63t54.5 49.5t62.5 35.5t69 22t74 7.5q48 0 88.5 -10t66.5 -26
t46.5 -35.5t31 -39t17 -36t8.5 -26.5l2 -10l-108 -18q-1 5 -4 11.5t-14.5 23.5t-27.5 30t-46.5 23.5t-67.5 9.5q-99 -1 -155 -58q-67 -68 -77 -198q-5 -59 8.5 -114t41.5 -86q48 -52 141 -55z" />
    <glyph glyph-name="C" unicode="&#xc7;" horiz-adv-x="651" 
d="M330 91q36 -1 66.5 7t48.5 20t30.5 24.5t17.5 20.5l4 9l109 -24q-2 -4 -5 -9.5t-14.5 -22.5t-25.5 -32t-39 -33.5t-53.5 -32t-70 -22.5t-87.5 -9q-148 0 -228 97.5t-60 277.5q6 47 19 89t32.5 76.5t44.5 63t54.5 49.5t62.5 35.5t69 22t74 7.5q48 0 88.5 -10t66.5 -26
t46.5 -35.5t31 -39t17 -36t8.5 -26.5l2 -10l-108 -18q-1 5 -4 11.5t-14.5 23.5t-27.5 30t-46.5 23.5t-67.5 9.5q-99 -1 -155 -58q-67 -68 -77 -198q-5 -59 8.5 -114t41.5 -86q48 -52 141 -55z" />
    <glyph glyph-name="D" unicode="D" horiz-adv-x="665" 
d="M311 697q27 0 51.5 -2t51.5 -6.5t50 -11.5t46.5 -18t42 -26.5t36 -35.5t28 -45.5t19.5 -57t9 -70t-3 -83.5q-8 -82 -33 -142.5t-61 -98t-88.5 -60.5t-108.5 -31.5t-128 -8.5h-201l70 696q186 1 219 1zM526 348q24 247 -235 247l-100 -1l-49 -494q41 1 88 1q45 0 79 3.5
t74 18t67 40.5t48 73t28 112z" />
    <glyph glyph-name="E" unicode="E" horiz-adv-x="574" 
d="M552 601l-368 -1l-18 -189h285l-10 -104l-284 -1l-20 -207h365l-10 -99h-471l70 696h470z" />
    <glyph glyph-name="E" unicode="&#xcb;" horiz-adv-x="574" 
d="M552 601l-368 -1l-18 -189h285l-10 -104l-284 -1l-20 -207h365l-10 -99h-471l70 696h470z" />
    <glyph glyph-name="E" unicode="&#xca;" horiz-adv-x="574" 
d="M552 601l-368 -1l-18 -189h285l-10 -104l-284 -1l-20 -207h365l-10 -99h-471l70 696h470z" />
    <glyph glyph-name="E" unicode="&#xc9;" horiz-adv-x="574" 
d="M552 601l-368 -1l-18 -189h285l-10 -104l-284 -1l-20 -207h365l-10 -99h-471l70 696h470z" />
    <glyph glyph-name="E" unicode="&#xc8;" horiz-adv-x="574" 
d="M552 601l-368 -1l-18 -189h285l-10 -104l-284 -1l-20 -207h365l-10 -99h-471l70 696h470z" />
    <glyph glyph-name="F" unicode="F" horiz-adv-x="573" 
d="M551 601l-367 -1l-18 -189h277h9l-11 -104h-9h-275l-31 -307h-6h-99l70 696h470z" />
    <glyph glyph-name="G" unicode="G" horiz-adv-x="683" 
d="M382 374h273l-1 -13l-35 -360h-93l1 93q-2 -4 -7 -11t-23.5 -24t-41.5 -30.5t-62.5 -24.5t-84.5 -11q-153 0 -228.5 96.5t-57.5 276.5q15 158 113.5 251t238.5 94q51 1 93.5 -9t69.5 -26t48 -35t31.5 -39t17.5 -36t8 -26l2 -10l-111 -18q0 4 -1.5 11t-10.5 25.5t-24.5 32
t-48.5 24.5t-76 11q-103 -2 -165 -69.5t-71 -185.5q-11 -134 39 -201.5t155 -66.5q51 0 91 12.5t61 29.5t34.5 34.5t17.5 29.5l4 12l6 72h-170z" />
    <glyph glyph-name="H" unicode="H" horiz-adv-x="650" 
d="M519 696h109l-69 -696h-107l30 309h-320l-31 -309h-110l70 696h107l-28 -277h322z" />
    <glyph glyph-name="I" unicode="I" horiz-adv-x="222" 
d="M91 697h110l-69 -697h-111z" />
    <glyph glyph-name="I" unicode="&#xcf;" horiz-adv-x="222" 
d="M91 697h110l-69 -697h-111z" />
    <glyph glyph-name="I" unicode="&#xce;" horiz-adv-x="222" 
d="M91 697h110l-69 -697h-111z" />
    <glyph glyph-name="I" unicode="&#xcd;" horiz-adv-x="222" 
d="M91 697h110l-69 -697h-111z" />
    <glyph glyph-name="I" unicode="&#xcc;" horiz-adv-x="222" 
d="M91 697h110l-69 -697h-111z" />
    <glyph glyph-name="J" unicode="J" horiz-adv-x="458" 
d="M331 696h106l-49 -495q-5 -48 -16.5 -84t-34.5 -67.5t-63.5 -48t-98.5 -16.5q-40 1 -71.5 12.5t-48 28.5t-27.5 33.5t-14 28.5l-3 12l102 36q0 -2 1 -5.5t6 -12t12 -15t22.5 -12t35.5 -5.5q23 0 40 8.5t26 19.5t15 32t8 34t4 39z" />
    <glyph glyph-name="K" unicode="K" horiz-adv-x="589" 
d="M581 696l-309 -345l269 -351h-146l-233 316l-31 -316h-110l70 696l109 1l-31 -312l282 312z" />
    <glyph glyph-name="L" unicode="L" horiz-adv-x="504" 
d="M147 108h341l-11 -108h-456l70 697l112 1z" />
    <glyph glyph-name="M" unicode="M" horiz-adv-x="781" 
d="M652 696h93l-17 -696h-117l17 351l15 119l-52 -117l-192 -353h-54l-127 366l-23 101l-7 -105l-56 -362l-111 1l111 695h97l166 -488z" />
    <glyph glyph-name="N" unicode="N" horiz-adv-x="664" 
d="M533 696h110l-6 -55l-25 -249l-6 -58l-27 -277l-4 -36l-2 -21h-66h-20l-309 484l-45 -484h-112l70 696h67h20l306 -472z" />
    <glyph glyph-name="N" unicode="&#xd1;" horiz-adv-x="664" 
d="M533 696h110l-6 -55l-25 -249l-6 -58l-27 -277l-4 -36l-2 -21h-66h-20l-309 484l-45 -484h-112l70 696h67h20l306 -472z" />
    <glyph glyph-name="O" unicode="O" horiz-adv-x="731" 
d="M402 706q161 0 243 -99t66 -260q-16 -162 -121 -260.5t-260 -98.5q-161 0 -243.5 92t-65.5 267q7 70 30.5 128.5t59 100.5t81.5 71.5t99 44t111 14.5zM595 347q12 117 -46 192t-156 75q-99 0 -172 -73t-85 -196q-12 -127 43.5 -195.5t160.5 -68.5q98 0 170.5 73.5
t84.5 192.5z" />
    <glyph glyph-name="O" unicode="&#xd8;" horiz-adv-x="731" 
d="M402 706q161 0 243 -99t66 -260q-16 -162 -121 -260.5t-260 -98.5q-161 0 -243.5 92t-65.5 267q7 70 30.5 128.5t59 100.5t81.5 71.5t99 44t111 14.5zM595 347q12 117 -46 192t-156 75q-99 0 -172 -73t-85 -196q-12 -127 43.5 -195.5t160.5 -68.5q98 0 170.5 73.5
t84.5 192.5z" />
    <glyph glyph-name="O" unicode="&#xd6;" horiz-adv-x="731" 
d="M402 706q161 0 243 -99t66 -260q-16 -162 -121 -260.5t-260 -98.5q-161 0 -243.5 92t-65.5 267q7 70 30.5 128.5t59 100.5t81.5 71.5t99 44t111 14.5zM595 347q12 117 -46 192t-156 75q-99 0 -172 -73t-85 -196q-12 -127 43.5 -195.5t160.5 -68.5q98 0 170.5 73.5
t84.5 192.5z" />
    <glyph glyph-name="O" unicode="&#xd5;" horiz-adv-x="731" 
d="M402 706q161 0 243 -99t66 -260q-16 -162 -121 -260.5t-260 -98.5q-161 0 -243.5 92t-65.5 267q7 70 30.5 128.5t59 100.5t81.5 71.5t99 44t111 14.5zM595 347q12 117 -46 192t-156 75q-99 0 -172 -73t-85 -196q-12 -127 43.5 -195.5t160.5 -68.5q98 0 170.5 73.5
t84.5 192.5z" />
    <glyph glyph-name="O" unicode="&#xd4;" horiz-adv-x="731" 
d="M402 706q161 0 243 -99t66 -260q-16 -162 -121 -260.5t-260 -98.5q-161 0 -243.5 92t-65.5 267q7 70 30.5 128.5t59 100.5t81.5 71.5t99 44t111 14.5zM595 347q12 117 -46 192t-156 75q-99 0 -172 -73t-85 -196q-12 -127 43.5 -195.5t160.5 -68.5q98 0 170.5 73.5
t84.5 192.5z" />
    <glyph glyph-name="O" unicode="&#xd3;" horiz-adv-x="731" 
d="M402 706q161 0 243 -99t66 -260q-16 -162 -121 -260.5t-260 -98.5q-161 0 -243.5 92t-65.5 267q7 70 30.5 128.5t59 100.5t81.5 71.5t99 44t111 14.5zM595 347q12 117 -46 192t-156 75q-99 0 -172 -73t-85 -196q-12 -127 43.5 -195.5t160.5 -68.5q98 0 170.5 73.5
t84.5 192.5z" />
    <glyph glyph-name="O" unicode="&#xd2;" horiz-adv-x="731" 
d="M402 706q161 0 243 -99t66 -260q-16 -162 -121 -260.5t-260 -98.5q-161 0 -243.5 92t-65.5 267q7 70 30.5 128.5t59 100.5t81.5 71.5t99 44t111 14.5zM595 347q12 117 -46 192t-156 75q-99 0 -172 -73t-85 -196q-12 -127 43.5 -195.5t160.5 -68.5q98 0 170.5 73.5
t84.5 192.5z" />
    <glyph glyph-name="P" unicode="P" horiz-adv-x="623" 
d="M374 702q57 1 101 -13.5t69 -36t41 -49.5t21 -50.5t6 -42.5q3 -125 -77 -195q-18 -15 -30 -23l-1 -1q-69 -42 -198 -44h-65h-87l-25 -246l-108 -1l70 702h283zM493 469q7 64 -28 98t-121 34h-155l-25 -249h9l146 -1q47 0 81 10t53 27.5t28.5 37t11.5 43.5z" />
    <glyph glyph-name="Q" unicode="Q" horiz-adv-x="758" 
d="M606 98q15 -12 34 -14.5t36 2t32 11t24 12.5l8 6l-11 -110q-34 -15 -68 -18t-58.5 4t-44 16t-28.5 18l-10 8q-34 -22 -85 -34t-103 -13q-162 1 -244.5 93t-65.5 267q9 87 43 156.5t86 113.5t116.5 67t137.5 23q61 0 112 -15l2 -0.5t4 -1.5q102 -33 151 -123t39 -219
q-2 -32 -9 -63.5t-17 -55.5t-21 -45.5t-21.5 -36.5t-19 -26.5t-14.5 -16.5zM343 79q15 0 32.5 3t31.5 7.5t26 8.5t18 7l7 3q-67 71 -139 71q-22 0 -39 -9.5t-25.5 -23t-6.5 -29t17 -26.5q28 -12 78 -12zM599 347q13 117 -46 192t-157 75q-99 0 -172.5 -73t-85.5 -197
q-13 -131 33 -184q-1 59 45.5 90.5t104.5 30.5q36 0 71.5 -11.5t60.5 -27t44.5 -30.5t28.5 -26l10 -11q5 7 14 21t26.5 58.5t22.5 92.5z" />
    <glyph glyph-name="R" unicode="R" horiz-adv-x="583" 
d="M373 316q103 -20 137 -176q9 -40 22 -75t22 -50l9 -15h-140q-14 28 -31 129q-7 43 -28 76.5t-49 51.5t-55 27t-53 9h-1h-40l-29 -293h-116l70 697h234q46 1 83.5 -5.5t62.5 -19.5t43 -28.5t28.5 -34.5t15.5 -35t6 -33q3 -31 -3.5 -64t-22 -63.5t-38.5 -53.5
q-9 -8 -20 -14.5t-23 -11t-24 -8t-22.5 -5.5t-19 -3t-13.5 -2h-5zM319 385q36 0 63 11t40.5 29t20 36.5t6.5 37.5q1 39 -27.5 68.5t-89.5 29.5l-136 -1l-21 -210h7z" />
    <glyph glyph-name="S" unicode="S" horiz-adv-x="582" 
d="M397 379q35 -13 60 -26.5t48 -35.5t34 -54.5t10 -75.5q-2 -51 -30 -92.5t-72 -65t-98.5 -35t-106.5 -8.5t-99 20.5t-74 46.5q-40 43 -48 87l106 40q0 -3 1 -8t7.5 -18t16.5 -24.5t32 -22.5t51 -16q33 -6 61.5 -4.5t51 9.5t39.5 20t27.5 27t15 30t2 30.5t-11.5 27.5
q-10 13 -23.5 23.5t-31.5 18t-31.5 12t-35.5 10.5t-31 9q-53 17 -87 33t-63 41q-34 28 -44.5 70t-1 80.5t29.5 71t44 48.5q43 36 103 49.5t106.5 10t86.5 -14.5q10 -3 22 -9.5t27 -18t27.5 -26.5t24.5 -37.5t19 -48.5l-104 -41q-3 26 -25 56q-24 33 -83.5 40.5t-100.5 -11.5
q-41 -16 -59 -51.5t3 -75.5q10 -15 32 -27.5t42.5 -20t64 -21.5t66.5 -22z" />
    <glyph glyph-name="T" unicode="T" horiz-adv-x="565" 
d="M23 696h530l-10 -100h-205l-60 -596h-116l60 596h-209z" />
    <glyph glyph-name="U" unicode="U" horiz-adv-x="663" 
d="M523 697l116 -1l-46 -420q-3 -30 -5 -46t-7.5 -42.5t-13.5 -43.5t-21 -38t-32.5 -39t-46.5 -34q-17 -11 -37.5 -19.5t-40.5 -12.5t-38 -7t-36.5 -3.5t-30 -0.5t-24 1l-12.5 1q-38 1 -74 12t-69 33.5t-54.5 62.5t-25.5 91q-4 58 4 134l31 371h121l-27 -295q-1 -7 -1 -14
q0 -2 -0.5 -3.5t-0.5 -3v-2.5l-2 -22q-11 -133 -2 -170q6 -23 16 -39t27 -28t41.5 -18t57.5 -6q93 -1 135 39t53 144z" />
    <glyph glyph-name="U" unicode="&#xdc;" horiz-adv-x="663" 
d="M523 697l116 -1l-46 -420q-3 -30 -5 -46t-7.5 -42.5t-13.5 -43.5t-21 -38t-32.5 -39t-46.5 -34q-17 -11 -37.5 -19.5t-40.5 -12.5t-38 -7t-36.5 -3.5t-30 -0.5t-24 1l-12.5 1q-38 1 -74 12t-69 33.5t-54.5 62.5t-25.5 91q-4 58 4 134l31 371h121l-27 -295q-1 -7 -1 -14
q0 -2 -0.5 -3.5t-0.5 -3v-2.5l-2 -22q-11 -133 -2 -170q6 -23 16 -39t27 -28t41.5 -18t57.5 -6q93 -1 135 39t53 144z" />
    <glyph glyph-name="U" unicode="&#xdb;" horiz-adv-x="663" 
d="M523 697l116 -1l-46 -420q-3 -30 -5 -46t-7.5 -42.5t-13.5 -43.5t-21 -38t-32.5 -39t-46.5 -34q-17 -11 -37.5 -19.5t-40.5 -12.5t-38 -7t-36.5 -3.5t-30 -0.5t-24 1l-12.5 1q-38 1 -74 12t-69 33.5t-54.5 62.5t-25.5 91q-4 58 4 134l31 371h121l-27 -295q-1 -7 -1 -14
q0 -2 -0.5 -3.5t-0.5 -3v-2.5l-2 -22q-11 -133 -2 -170q6 -23 16 -39t27 -28t41.5 -18t57.5 -6q93 -1 135 39t53 144z" />
    <glyph glyph-name="U" unicode="&#xda;" horiz-adv-x="663" 
d="M523 697l116 -1l-46 -420q-3 -30 -5 -46t-7.5 -42.5t-13.5 -43.5t-21 -38t-32.5 -39t-46.5 -34q-17 -11 -37.5 -19.5t-40.5 -12.5t-38 -7t-36.5 -3.5t-30 -0.5t-24 1l-12.5 1q-38 1 -74 12t-69 33.5t-54.5 62.5t-25.5 91q-4 58 4 134l31 371h121l-27 -295q-1 -7 -1 -14
q0 -2 -0.5 -3.5t-0.5 -3v-2.5l-2 -22q-11 -133 -2 -170q6 -23 16 -39t27 -28t41.5 -18t57.5 -6q93 -1 135 39t53 144z" />
    <glyph glyph-name="U" unicode="&#xd9;" horiz-adv-x="663" 
d="M523 697l116 -1l-46 -420q-3 -30 -5 -46t-7.5 -42.5t-13.5 -43.5t-21 -38t-32.5 -39t-46.5 -34q-17 -11 -37.5 -19.5t-40.5 -12.5t-38 -7t-36.5 -3.5t-30 -0.5t-24 1l-12.5 1q-38 1 -74 12t-69 33.5t-54.5 62.5t-25.5 91q-4 58 4 134l31 371h121l-27 -295q-1 -7 -1 -14
q0 -2 -0.5 -3.5t-0.5 -3v-2.5l-2 -22q-11 -133 -2 -170q6 -23 16 -39t27 -28t41.5 -18t57.5 -6q93 -1 135 39t53 144z" />
    <glyph glyph-name="V" unicode="V" horiz-adv-x="662" 
d="M536 696h117l-343 -696h-97l-203 696q4 0 39.5 0.5t85.5 -0.5l129 -476l15 -82l31 81z" />
    <glyph glyph-name="W" unicode="W" horiz-adv-x="920" 
d="M786 697q14 1 63 0.5t59 -0.5q-48 -115 -134 -348.5t-134 -348.5h-106l-87 563l-206 -563h-103q-25 115 -63 348.5t-63 348.5q10 0 59 0.5t63 -0.5l61 -417l9 -109l32 107l155 419h28h13h17h15h1h36h26l74 -423l10 -103l29 104z" />
    <glyph glyph-name="X" unicode="X" horiz-adv-x="695" 
d="M686 697l-272 -349l203 -348h-146l-133 246l-183 -246h-146l272 348l-202 349h145l134 -246l183 246h145z" />
    <glyph glyph-name="Y" unicode="Y" horiz-adv-x="608" 
d="M473 698q13 0 62 -0.5t64 -0.5q-47 -69 -140.5 -207.5t-140.5 -206.5l-28 -283h-111l29 282q-23 48 -61.5 128.5t-73.5 153.5t-64 133q13 0 64 0.5t68 0.5l132 -311z" />
    <glyph glyph-name="Y" unicode="&#xdd;" horiz-adv-x="608" 
d="M473 698q13 0 62 -0.5t64 -0.5q-47 -69 -140.5 -207.5t-140.5 -206.5l-28 -283h-111l29 282q-23 48 -61.5 128.5t-73.5 153.5t-64 133q13 0 64 0.5t68 0.5l132 -311z" />
    <glyph glyph-name="Z" unicode="Z" horiz-adv-x="597" 
d="M580 699l-8 -78l-389 -512l350 3q-8 -83 -11 -111q-77 0 -252 -0.5t-252 -0.5l8 86l397 514l-357 -4l9 103h247.5h257.5z" />
    <glyph glyph-name="bracketleft" unicode="[" horiz-adv-x="344" 
d="M305 714h-88l-74 -740h88l-7 -77h-192l89 889h191z" />
    <glyph glyph-name="backslash" unicode="\" horiz-adv-x="359" 
d="M143 695l184 -695h-111l-184 695h111z" />
    <glyph glyph-name="bracketright" unicode="]" horiz-adv-x="344" 
d="M121 789h191l-88 -889h-192l8 77h88l74 740h-88z" />
    <glyph glyph-name="a" unicode="a" horiz-adv-x="511" 
d="M474 253l-14 -154l16 -100h-123v63q-2 -3 -5.5 -7.5t-18.5 -17t-33.5 -22t-49.5 -17t-66 -7.5q-73 0 -115 33.5t-46 85.5q-5 61 36.5 110t106.5 62q21 4 57.5 7.5t62 6t51.5 10.5t38 21q12 12 12.5 29t-11.5 34q-24 36 -105 34q-85 -2 -110 -62l-94 23q14 41 49 72
q31 27 79 41.5t93.5 14t89.5 -9.5q25 -6 47.5 -20t33.5 -28q12 -16 19 -33.5t8 -39.5t0.5 -37.5t-4 -46t-4.5 -45.5zM368 200l4 42q-26 -18 -74 -25t-90.5 -14t-60.5 -29q-21 -26 -12.5 -53t41.5 -38q35 -12 78.5 0t76.5 44t37 73z" />
    <glyph glyph-name="a" unicode="&#xe5;" horiz-adv-x="511" 
d="M474 253l-14 -154l16 -100h-123v63q-2 -3 -5.5 -7.5t-18.5 -17t-33.5 -22t-49.5 -17t-66 -7.5q-73 0 -115 33.5t-46 85.5q-5 61 36.5 110t106.5 62q21 4 57.5 7.5t62 6t51.5 10.5t38 21q12 12 12.5 29t-11.5 34q-24 36 -105 34q-85 -2 -110 -62l-94 23q14 41 49 72
q31 27 79 41.5t93.5 14t89.5 -9.5q25 -6 47.5 -20t33.5 -28q12 -16 19 -33.5t8 -39.5t0.5 -37.5t-4 -46t-4.5 -45.5zM368 200l4 42q-26 -18 -74 -25t-90.5 -14t-60.5 -29q-21 -26 -12.5 -53t41.5 -38q35 -12 78.5 0t76.5 44t37 73z" />
    <glyph glyph-name="a" unicode="&#xe4;" horiz-adv-x="511" 
d="M474 253l-14 -154l16 -100h-123v63q-2 -3 -5.5 -7.5t-18.5 -17t-33.5 -22t-49.5 -17t-66 -7.5q-73 0 -115 33.5t-46 85.5q-5 61 36.5 110t106.5 62q21 4 57.5 7.5t62 6t51.5 10.5t38 21q12 12 12.5 29t-11.5 34q-24 36 -105 34q-85 -2 -110 -62l-94 23q14 41 49 72
q31 27 79 41.5t93.5 14t89.5 -9.5q25 -6 47.5 -20t33.5 -28q12 -16 19 -33.5t8 -39.5t0.5 -37.5t-4 -46t-4.5 -45.5zM368 200l4 42q-26 -18 -74 -25t-90.5 -14t-60.5 -29q-21 -26 -12.5 -53t41.5 -38q35 -12 78.5 0t76.5 44t37 73z" />
    <glyph glyph-name="a" unicode="&#xe3;" horiz-adv-x="511" 
d="M474 253l-14 -154l16 -100h-123v63q-2 -3 -5.5 -7.5t-18.5 -17t-33.5 -22t-49.5 -17t-66 -7.5q-73 0 -115 33.5t-46 85.5q-5 61 36.5 110t106.5 62q21 4 57.5 7.5t62 6t51.5 10.5t38 21q12 12 12.5 29t-11.5 34q-24 36 -105 34q-85 -2 -110 -62l-94 23q14 41 49 72
q31 27 79 41.5t93.5 14t89.5 -9.5q25 -6 47.5 -20t33.5 -28q12 -16 19 -33.5t8 -39.5t0.5 -37.5t-4 -46t-4.5 -45.5zM368 200l4 42q-26 -18 -74 -25t-90.5 -14t-60.5 -29q-21 -26 -12.5 -53t41.5 -38q35 -12 78.5 0t76.5 44t37 73z" />
    <glyph glyph-name="a" unicode="&#xe2;" horiz-adv-x="511" 
d="M474 253l-14 -154l16 -100h-123v63q-2 -3 -5.5 -7.5t-18.5 -17t-33.5 -22t-49.5 -17t-66 -7.5q-73 0 -115 33.5t-46 85.5q-5 61 36.5 110t106.5 62q21 4 57.5 7.5t62 6t51.5 10.5t38 21q12 12 12.5 29t-11.5 34q-24 36 -105 34q-85 -2 -110 -62l-94 23q14 41 49 72
q31 27 79 41.5t93.5 14t89.5 -9.5q25 -6 47.5 -20t33.5 -28q12 -16 19 -33.5t8 -39.5t0.5 -37.5t-4 -46t-4.5 -45.5zM368 200l4 42q-26 -18 -74 -25t-90.5 -14t-60.5 -29q-21 -26 -12.5 -53t41.5 -38q35 -12 78.5 0t76.5 44t37 73z" />
    <glyph glyph-name="a" unicode="&#xe1;" horiz-adv-x="511" 
d="M474 253l-14 -154l16 -100h-123v63q-2 -3 -5.5 -7.5t-18.5 -17t-33.5 -22t-49.5 -17t-66 -7.5q-73 0 -115 33.5t-46 85.5q-5 61 36.5 110t106.5 62q21 4 57.5 7.5t62 6t51.5 10.5t38 21q12 12 12.5 29t-11.5 34q-24 36 -105 34q-85 -2 -110 -62l-94 23q14 41 49 72
q31 27 79 41.5t93.5 14t89.5 -9.5q25 -6 47.5 -20t33.5 -28q12 -16 19 -33.5t8 -39.5t0.5 -37.5t-4 -46t-4.5 -45.5zM368 200l4 42q-26 -18 -74 -25t-90.5 -14t-60.5 -29q-21 -26 -12.5 -53t41.5 -38q35 -12 78.5 0t76.5 44t37 73z" />
    <glyph glyph-name="a" unicode="&#xe0;" horiz-adv-x="511" 
d="M474 253l-14 -154l16 -100h-123v63q-2 -3 -5.5 -7.5t-18.5 -17t-33.5 -22t-49.5 -17t-66 -7.5q-73 0 -115 33.5t-46 85.5q-5 61 36.5 110t106.5 62q21 4 57.5 7.5t62 6t51.5 10.5t38 21q12 12 12.5 29t-11.5 34q-24 36 -105 34q-85 -2 -110 -62l-94 23q14 41 49 72
q31 27 79 41.5t93.5 14t89.5 -9.5q25 -6 47.5 -20t33.5 -28q12 -16 19 -33.5t8 -39.5t0.5 -37.5t-4 -46t-4.5 -45.5zM368 200l4 42q-26 -18 -74 -25t-90.5 -14t-60.5 -29q-21 -26 -12.5 -53t41.5 -38q35 -12 78.5 0t76.5 44t37 73z" />
    <glyph glyph-name="b" unicode="b" horiz-adv-x="525" 
d="M321 513q21 1 40.5 -2.5t43.5 -12t43 -27.5t34 -46t21 -70.5t1 -97.5q-7 -65 -26 -115.5t-43 -79t-55 -45.5t-58.5 -22t-56.5 -3q-26 2 -48 10t-35 18t-22 19.5t-12 16.5l-4 7l-6 -63h-106l69 694h106l-25 -254q2 3 5.5 7.5t16.5 17t28 22t39 18t50 8.5zM398 262
q5 56 -5.5 95.5t-39.5 58.5t-75 9q-42 -9 -73.5 -49.5t-39.5 -115.5q-15 -153 79 -172q36 -7 64 3.5t46 36t29 59t15 75.5z" />
    <glyph glyph-name="c" unicode="c" horiz-adv-x="482" 
d="M226 86q18 -2 34 1t27.5 9t21.5 13.5t16.5 15.5t11 14.5t6.5 10.5l2 4l102 -24q-2 -6 -6.5 -15t-22 -32t-40 -41t-62.5 -32.5t-87 -14.5q-108 0 -164.5 68.5t-44.5 202.5q12 117 81 184.5t181 67.5q32 0 59.5 -7t46 -18.5t33.5 -25.5t23 -28t13.5 -25.5t7.5 -18.5l2 -7
l-107 -27q-1 3 -2 8t-7.5 18t-15.5 22.5t-28 16.5t-42 6q-55 -3 -90.5 -47t-44.5 -121q-9 -86 18 -130t78 -48z" />
    <glyph glyph-name="c" unicode="&#xe7;" horiz-adv-x="482" 
d="M226 86q18 -2 34 1t27.5 9t21.5 13.5t16.5 15.5t11 14.5t6.5 10.5l2 4l102 -24q-2 -6 -6.5 -15t-22 -32t-40 -41t-62.5 -32.5t-87 -14.5q-108 0 -164.5 68.5t-44.5 202.5q12 117 81 184.5t181 67.5q32 0 59.5 -7t46 -18.5t33.5 -25.5t23 -28t13.5 -25.5t7.5 -18.5l2 -7
l-107 -27q-1 3 -2 8t-7.5 18t-15.5 22.5t-28 16.5t-42 6q-55 -3 -90.5 -47t-44.5 -121q-9 -86 18 -130t78 -48z" />
    <glyph glyph-name="d" unicode="d" horiz-adv-x="543" 
d="M405 694h106l-69 -695h-106l6 63q-2 -3 -5 -7t-15 -15.5t-26.5 -20.5t-38.5 -17.5t-50 -10.5q-27 -2 -52 2.5t-50 17.5t-45 39t-31 64q0 2 -1.5 6t-1.5 6q-12 56 -5 130t32 127q0 1 1 2q18 39 44.5 66.5t55.5 40t53 17.5t48 4q19 -1 36 -5.5t29 -11t22.5 -14t17 -15.5
t11.5 -14t7 -10l2 -4q22 225 25 255zM360 259q8 75 -15.5 115.5t-64.5 50.5q-64 15 -104 -31.5t-48 -132.5q-5 -40 0 -75t17 -59.5t38.5 -35.5t63.5 -4q98 19 113 172z" />
    <glyph glyph-name="e" unicode="e" horiz-adv-x="485" 
d="M260 515q47 1 84 -9.5t59 -29t38 -44t21 -53t8 -55t-2 -51.5q-2 -22 -6 -45v-1l-333 -1q2 -1 -0.5 -14t2.5 -34t13 -41t29.5 -35.5t52.5 -17.5q24 -1 45.5 4t34.5 14t22.5 17.5t13.5 15.5l4 6l99 -27q-3 -5 -8 -13.5t-24 -29.5t-41.5 -37t-62 -29t-84.5 -13
q-141 1 -189 126q-15 37 -18 86.5t10 102.5t39.5 99t76.5 76.5t116 32.5zM358 306q-2 1 0 13t-3.5 31t-13.5 36.5t-29.5 30.5t-52.5 13q-28 1 -51 -12t-36 -31.5t-21 -36.5t-11 -31l-3 -13h221z" />
    <glyph glyph-name="e" unicode="&#xeb;" horiz-adv-x="485" 
d="M260 515q47 1 84 -9.5t59 -29t38 -44t21 -53t8 -55t-2 -51.5q-2 -22 -6 -45v-1l-333 -1q2 -1 -0.5 -14t2.5 -34t13 -41t29.5 -35.5t52.5 -17.5q24 -1 45.5 4t34.5 14t22.5 17.5t13.5 15.5l4 6l99 -27q-3 -5 -8 -13.5t-24 -29.5t-41.5 -37t-62 -29t-84.5 -13
q-141 1 -189 126q-15 37 -18 86.5t10 102.5t39.5 99t76.5 76.5t116 32.5zM358 306q-2 1 0 13t-3.5 31t-13.5 36.5t-29.5 30.5t-52.5 13q-28 1 -51 -12t-36 -31.5t-21 -36.5t-11 -31l-3 -13h221z" />
    <glyph glyph-name="e" unicode="&#xea;" horiz-adv-x="485" 
d="M260 515q47 1 84 -9.5t59 -29t38 -44t21 -53t8 -55t-2 -51.5q-2 -22 -6 -45v-1l-333 -1q2 -1 -0.5 -14t2.5 -34t13 -41t29.5 -35.5t52.5 -17.5q24 -1 45.5 4t34.5 14t22.5 17.5t13.5 15.5l4 6l99 -27q-3 -5 -8 -13.5t-24 -29.5t-41.5 -37t-62 -29t-84.5 -13
q-141 1 -189 126q-15 37 -18 86.5t10 102.5t39.5 99t76.5 76.5t116 32.5zM358 306q-2 1 0 13t-3.5 31t-13.5 36.5t-29.5 30.5t-52.5 13q-28 1 -51 -12t-36 -31.5t-21 -36.5t-11 -31l-3 -13h221z" />
    <glyph glyph-name="e" unicode="&#xe9;" horiz-adv-x="485" 
d="M260 515q47 1 84 -9.5t59 -29t38 -44t21 -53t8 -55t-2 -51.5q-2 -22 -6 -45v-1l-333 -1q2 -1 -0.5 -14t2.5 -34t13 -41t29.5 -35.5t52.5 -17.5q24 -1 45.5 4t34.5 14t22.5 17.5t13.5 15.5l4 6l99 -27q-3 -5 -8 -13.5t-24 -29.5t-41.5 -37t-62 -29t-84.5 -13
q-141 1 -189 126q-15 37 -18 86.5t10 102.5t39.5 99t76.5 76.5t116 32.5zM358 306q-2 1 0 13t-3.5 31t-13.5 36.5t-29.5 30.5t-52.5 13q-28 1 -51 -12t-36 -31.5t-21 -36.5t-11 -31l-3 -13h221z" />
    <glyph glyph-name="e" unicode="&#xe8;" horiz-adv-x="485" 
d="M260 515q47 1 84 -9.5t59 -29t38 -44t21 -53t8 -55t-2 -51.5q-2 -22 -6 -45v-1l-333 -1q2 -1 -0.5 -14t2.5 -34t13 -41t29.5 -35.5t52.5 -17.5q24 -1 45.5 4t34.5 14t22.5 17.5t13.5 15.5l4 6l99 -27q-3 -5 -8 -13.5t-24 -29.5t-41.5 -37t-62 -29t-84.5 -13
q-141 1 -189 126q-15 37 -18 86.5t10 102.5t39.5 99t76.5 76.5t116 32.5zM358 306q-2 1 0 13t-3.5 31t-13.5 36.5t-29.5 30.5t-52.5 13q-28 1 -51 -12t-36 -31.5t-21 -36.5t-11 -31l-3 -13h221z" />
    <glyph glyph-name="f" unicode="f" horiz-adv-x="351" 
d="M324 603q-45 4 -71.5 -6.5t-29.5 -47.5l-6 -47l38 1h59l-9 -87l-55 1l-41 1l-4 -48l-37 -370l-107 -1l37 374l6 46l-65 -1l9 84h65l4 49v3q8 78 61 110.5t155 29.5z" />
    <glyph glyph-name="g" unicode="g" horiz-adv-x="534" 
d="M396 504h106q-50 -495 -50 -498q-6 -53 -27.5 -92t-56 -62t-76 -33.5t-92.5 -10.5q-30 0 -56.5 5t-44.5 13.5t-32.5 18.5t-23.5 20t-14.5 18.5t-8.5 13.5l-2 5l84 50l2.5 -7.5t9.5 -16t19 -20t32 -15.5t47 -5q36 1 62.5 13.5t41 32.5t21.5 38t9 37l5 51q-1 -2 -4.5 -6.5
t-15.5 -16t-26 -20.5t-38 -17.5t-50 -10.5q-29 -2 -55.5 3t-54 22.5t-46.5 46t-28 79t-2 116.5q6 64 26 113t45 75.5t56.5 43t56.5 21t49 3.5q26 -1 48.5 -9t36 -18.5t23 -21t13.5 -18.5l4 -7q4 35 7 66zM370 258q7 75 -16.5 115.5t-63.5 50.5q-65 15 -104.5 -31.5
t-47.5 -131.5q-5 -41 -0.5 -76t17 -60t39 -36t63.5 -4q98 20 113 173z" />
    <glyph glyph-name="h" unicode="h" horiz-adv-x="538" 
d="M502 395q10 -49 -3 -175l-22 -222h-109l25 278q8 76 -14.5 115t-81.5 36q-35 -1 -68 -23t-47 -56q-11 -30 -17 -83l-26 -267h-107l69 694h103l-26 -262q2 3 5.5 8.5t17 19t30.5 24.5t46.5 20t63.5 10q62 1 105.5 -28.5t55.5 -88.5z" />
    <glyph glyph-name="i" unicode="i" horiz-adv-x="235" 
d="M28 1l50 505h108l-52 -505h-106zM97 695h108l-11 -108h-108z" />
    <glyph glyph-name="i" unicode="&#xef;" horiz-adv-x="235" 
d="M28 1l50 505h108l-52 -505h-106zM97 695h108l-11 -108h-108z" />
    <glyph glyph-name="i" unicode="&#xee;" horiz-adv-x="235" 
d="M28 1l50 505h108l-52 -505h-106zM97 695h108l-11 -108h-108z" />
    <glyph glyph-name="i" unicode="&#xed;" horiz-adv-x="235" 
d="M28 1l50 505h108l-52 -505h-106zM97 695h108l-11 -108h-108z" />
    <glyph glyph-name="i" unicode="&#xec;" horiz-adv-x="235" 
d="M28 1l50 505h108l-52 -505h-106zM97 695h108l-11 -108h-108z" />
    <glyph glyph-name="j" unicode="j" horiz-adv-x="240" 
d="M41 -2l50 507h108q-53 -519 -54 -520q-2 -19 -10.5 -45t-20.5 -42q-72 -97 -200 -91l11 103q0 -1 10.5 -1.5t27 3t32.5 11.5t29.5 27.5t16.5 47.5zM109 694h108l-11 -108h-108z" />
    <glyph glyph-name="k" unicode="k" horiz-adv-x="536" 
d="M528 503l-265 -228l234 -277h-142l-193 234l-23 -234h-107l70 696h106l-38 -378l216 188z" />
    <glyph glyph-name="l" unicode="l" horiz-adv-x="233" 
d="M98 696h106l-69 -696h-107z" />
    <glyph glyph-name="m" unicode="m" horiz-adv-x="850" 
d="M814 397q10 -49 -3 -175l-22 -222h-106l25 278q5 50 -2 84t-29.5 51.5t-61.5 15.5q-35 -1 -66.5 -20.5t-44.5 -52.5q-6 -17 -11 -40q-3 -19 -6 -43l-27 -273h-102l16 178l10 100q7 76 -15 115t-78 36q-34 -1 -66.5 -23t-45.5 -56q-12 -30 -17 -83l-26 -267h-104l50 505
h100l-7 -73q2 3 5.5 8.5t16.5 19t29.5 24.5t45.5 20t62 10q40 1 72 -12q50 -20 72 -77v-1q7 10 14.5 20t23 23t33.5 23t45.5 17t58.5 7q64 0 107 -29t54 -88z" />
    <glyph glyph-name="n" unicode="n" horiz-adv-x="538" 
d="M502 397q10 -49 -3 -175l-22 -222h-109l25 278q8 76 -14.5 115t-81.5 36q-35 -1 -68 -23t-47 -56q-11 -30 -17 -83l-26 -267h-107l50 505h103l-7 -73q2 3 5.5 8.5t17 19t30.5 24.5t46.5 20t63.5 10q62 1 105.5 -28.5t55.5 -88.5z" />
    <glyph glyph-name="n" unicode="&#xf1;" horiz-adv-x="538" 
d="M502 397q10 -49 -3 -175l-22 -222h-109l25 278q8 76 -14.5 115t-81.5 36q-35 -1 -68 -23t-47 -56q-11 -30 -17 -83l-26 -267h-107l50 505h103l-7 -73q2 3 5.5 8.5t17 19t30.5 24.5t46.5 20t63.5 10q62 1 105.5 -28.5t55.5 -88.5z" />
    <glyph glyph-name="o" unicode="o" horiz-adv-x="529" 
d="M290 513q119 1 174.5 -69.5t43.5 -190.5q-4 -51 -23 -96.5t-51 -83.5t-82.5 -60t-112.5 -23q-119 0 -174.5 71t-44.5 185q12 127 80 197t190 70zM396 268q6 54 -8 91t-41.5 54t-64.5 17q-56 0 -98 -44.5t-49 -118.5q-18 -189 113 -188q64 0 102 48.5t46 140.5z" />
    <glyph glyph-name="o" unicode="&#xf8;" horiz-adv-x="529" 
d="M290 513q119 1 174.5 -69.5t43.5 -190.5q-4 -51 -23 -96.5t-51 -83.5t-82.5 -60t-112.5 -23q-119 0 -174.5 71t-44.5 185q12 127 80 197t190 70zM396 268q6 54 -8 91t-41.5 54t-64.5 17q-56 0 -98 -44.5t-49 -118.5q-18 -189 113 -188q64 0 102 48.5t46 140.5z" />
    <glyph glyph-name="o" unicode="&#xf6;" horiz-adv-x="529" 
d="M290 513q119 1 174.5 -69.5t43.5 -190.5q-4 -51 -23 -96.5t-51 -83.5t-82.5 -60t-112.5 -23q-119 0 -174.5 71t-44.5 185q12 127 80 197t190 70zM396 268q6 54 -8 91t-41.5 54t-64.5 17q-56 0 -98 -44.5t-49 -118.5q-18 -189 113 -188q64 0 102 48.5t46 140.5z" />
    <glyph glyph-name="o" unicode="&#xf5;" horiz-adv-x="529" 
d="M290 513q119 1 174.5 -69.5t43.5 -190.5q-4 -51 -23 -96.5t-51 -83.5t-82.5 -60t-112.5 -23q-119 0 -174.5 71t-44.5 185q12 127 80 197t190 70zM396 268q6 54 -8 91t-41.5 54t-64.5 17q-56 0 -98 -44.5t-49 -118.5q-18 -189 113 -188q64 0 102 48.5t46 140.5z" />
    <glyph glyph-name="o" unicode="&#xf4;" horiz-adv-x="529" 
d="M290 513q119 1 174.5 -69.5t43.5 -190.5q-4 -51 -23 -96.5t-51 -83.5t-82.5 -60t-112.5 -23q-119 0 -174.5 71t-44.5 185q12 127 80 197t190 70zM396 268q6 54 -8 91t-41.5 54t-64.5 17q-56 0 -98 -44.5t-49 -118.5q-18 -189 113 -188q64 0 102 48.5t46 140.5z" />
    <glyph glyph-name="o" unicode="&#xf3;" horiz-adv-x="529" 
d="M290 513q119 1 174.5 -69.5t43.5 -190.5q-4 -51 -23 -96.5t-51 -83.5t-82.5 -60t-112.5 -23q-119 0 -174.5 71t-44.5 185q12 127 80 197t190 70zM396 268q6 54 -8 91t-41.5 54t-64.5 17q-56 0 -98 -44.5t-49 -118.5q-18 -189 113 -188q64 0 102 48.5t46 140.5z" />
    <glyph glyph-name="o" unicode="&#xf2;" horiz-adv-x="529" 
d="M290 513q119 1 174.5 -69.5t43.5 -190.5q-4 -51 -23 -96.5t-51 -83.5t-82.5 -60t-112.5 -23q-119 0 -174.5 71t-44.5 185q12 127 80 197t190 70zM396 268q6 54 -8 91t-41.5 54t-64.5 17q-56 0 -98 -44.5t-49 -118.5q-18 -189 113 -188q64 0 102 48.5t46 140.5z" />
    <glyph glyph-name="p" unicode="p" horiz-adv-x="541" 
d="M334 514q29 2 55.5 -3t54 -22.5t46 -46t27.5 -78.5t3 -116q-7 -64 -27 -113t-44.5 -75.5t-56 -43t-56.5 -21t-50 -3.5q-26 1 -48 8t-36 16.5t-23.5 19t-13.5 16.5l-4 6q-20 -194 -23 -225h-106l67 673h106l-6 -63q2 3 5 7t15 15.5t26.5 20.5t38 17.5t50.5 10.5zM413 243
q5 41 0 76t-17.5 59.5t-38.5 35.5t-63 4q-98 -19 -113 -173q-7 -67 16.5 -106.5t63.5 -48.5q63 -15 103.5 29t48.5 124z" />
    <glyph glyph-name="q" unicode="q" horiz-adv-x="525" 
d="M387 506h106l-67 -673h-106l22 225q-2 -2 -5.5 -6.5t-16.5 -15.5t-28 -19.5t-39 -16t-50 -8.5q-25 -1 -49 3.5t-52 21t-47.5 43t-30 75.5t-3.5 113q6 66 25 116t43.5 78.5t55.5 46t58.5 22.5t55.5 3q26 -2 48.5 -10t35 -18t22 -20t12.5 -16l4 -7zM360 245q15 154 -80 173
q-35 7 -63.5 -3.5t-46.5 -36t-28.5 -59.5t-14.5 -76q-8 -80 23 -124t98 -29q42 9 73.5 48.5t38.5 106.5z" />
    <glyph glyph-name="r" unicode="r" horiz-adv-x="426" 
d="M323 513q11 1 22.5 0t21 -3t17.5 -4.5t14 -5.5t10.5 -5t7.5 -4l2 -1q-12 -16 -32 -43.5t-30 -42.5l-7.5 5t-21.5 6.5t-36 2.5q-46 -4 -77 -36t-42 -76q-2 -8 -4.5 -29t-3.5 -38l-2 -17l-24 -223l-106 1l50 505h108l-7 -70q1 3 4.5 8t16 18t27 23t39.5 19t53 10z" />
    <glyph glyph-name="s" unicode="s" horiz-adv-x="485" 
d="M330 287q65 -16 93.5 -58.5t18.5 -104.5q-6 -33 -25.5 -58.5t-48 -41.5t-63 -24t-71.5 -8q-54 -1 -95.5 12.5t-62 33t-34 39t-16.5 32.5l-3 14l112 24q0 -3 0.5 -7.5t6.5 -16.5t16.5 -21t32.5 -16.5t52 -7.5q34 1 60.5 15t33.5 42q4 16 -1 29t-13.5 20t-26 13t-28.5 8.5
t-31 5.5q-35 6 -57 11t-52 18.5t-48 32.5q-11 13 -17 35.5t-5.5 50.5t14.5 56.5t38 51.5t69.5 36.5t105.5 11.5q152 -5 177 -122l-102 -29q0 1 -0.5 3.5t-2.5 9t-5.5 13t-10.5 14t-16 13.5t-22.5 10t-30.5 4q-56 1 -84.5 -20t-24.5 -54q2 -14 11.5 -24t28.5 -17t36 -11
t46 -9t45 -9z" />
    <glyph glyph-name="s" unicode="&#xdf;" horiz-adv-x="485" 
d="M330 287q65 -16 93.5 -58.5t18.5 -104.5q-6 -33 -25.5 -58.5t-48 -41.5t-63 -24t-71.5 -8q-54 -1 -95.5 12.5t-62 33t-34 39t-16.5 32.5l-3 14l112 24q0 -3 0.5 -7.5t6.5 -16.5t16.5 -21t32.5 -16.5t52 -7.5q34 1 60.5 15t33.5 42q4 16 -1 29t-13.5 20t-26 13t-28.5 8.5
t-31 5.5q-35 6 -57 11t-52 18.5t-48 32.5q-11 13 -17 35.5t-5.5 50.5t14.5 56.5t38 51.5t69.5 36.5t105.5 11.5q152 -5 177 -122l-102 -29q0 1 -0.5 3.5t-2.5 9t-5.5 13t-10.5 14t-16 13.5t-22.5 10t-30.5 4q-56 1 -84.5 -20t-24.5 -54q2 -14 11.5 -24t28.5 -17t36 -11
t46 -9t45 -9z" />
    <glyph glyph-name="t" unicode="t" horiz-adv-x="351" 
d="M205 373l-13 -135q-10 -98 -9.5 -110.5t6.5 -21t14.5 -12t19 -5t21 -1t19.5 2t14 2.5l5 2l13 -94q-39 -7 -70.5 -8t-54 1.5t-39.5 11t-27.5 16.5t-17 23t-9.5 26t-3 30t1 29.5t3 29.5q0 6 1 9v1.5v1.5l20 203l6 45l-77 -1l9 86l76 -1l5 59l11 106l109 28l-14 -138l-7 -54
h53h62l-8 -86h-57h-58z" />
    <glyph glyph-name="u" unicode="u" horiz-adv-x="528" 
d="M392 506l103 -1l-49 -505h-101l7 73q-2 -3 -5 -8.5t-16.5 -19t-30 -24.5t-45.5 -20t-62 -10q-60 -1 -102 28.5t-54 88.5q-9 49 3 175l22 223h107l-26 -279q-7 -76 14.5 -115t78.5 -36q35 1 67 23t45 56q12 30 17 83z" />
    <glyph glyph-name="u" unicode="&#xfc;" horiz-adv-x="528" 
d="M392 506l103 -1l-49 -505h-101l7 73q-2 -3 -5 -8.5t-16.5 -19t-30 -24.5t-45.5 -20t-62 -10q-60 -1 -102 28.5t-54 88.5q-9 49 3 175l22 223h107l-26 -279q-7 -76 14.5 -115t78.5 -36q35 1 67 23t45 56q12 30 17 83z" />
    <glyph glyph-name="u" unicode="&#xfb;" horiz-adv-x="528" 
d="M392 506l103 -1l-49 -505h-101l7 73q-2 -3 -5 -8.5t-16.5 -19t-30 -24.5t-45.5 -20t-62 -10q-60 -1 -102 28.5t-54 88.5q-9 49 3 175l22 223h107l-26 -279q-7 -76 14.5 -115t78.5 -36q35 1 67 23t45 56q12 30 17 83z" />
    <glyph glyph-name="u" unicode="&#xfa;" horiz-adv-x="528" 
d="M392 506l103 -1l-49 -505h-101l7 73q-2 -3 -5 -8.5t-16.5 -19t-30 -24.5t-45.5 -20t-62 -10q-60 -1 -102 28.5t-54 88.5q-9 49 3 175l22 223h107l-26 -279q-7 -76 14.5 -115t78.5 -36q35 1 67 23t45 56q12 30 17 83z" />
    <glyph glyph-name="u" unicode="&#xf9;" horiz-adv-x="528" 
d="M392 506l103 -1l-49 -505h-101l7 73q-2 -3 -5 -8.5t-16.5 -19t-30 -24.5t-45.5 -20t-62 -10q-60 -1 -102 28.5t-54 88.5q-9 49 3 175l22 223h107l-26 -279q-7 -76 14.5 -115t78.5 -36q35 1 67 23t45 56q12 30 17 83z" />
    <glyph glyph-name="v" unicode="v" horiz-adv-x="490" 
d="M367 506h114l-245 -506h-82l-146 506h116l65 -270l18 -110h3l39 110z" />
    <glyph glyph-name="w" unicode="w" horiz-adv-x="764" 
d="M643 506h113l-225 -506h-81l-84 345l-153 -345h-81l-124 506h113l52 -253l14 -92h3l32 92l103 253h114l53 -256l14 -89h2l33 92z" />
    <glyph glyph-name="x" unicode="x" horiz-adv-x="537" 
d="M529 506l-199 -258l155 -248h-131l-94 161l-121 -161h-131l203 253l-144 253h121l92 -167l120 167h129z" />
    <glyph glyph-name="y" unicode="y" horiz-adv-x="522" 
d="M395 506h118l-246 -523q-26 -52 -62 -89t-69 -52.5t-62.5 -23.5t-47.5 -7h-18l21 108h12.5t28 5t38 14.5t36.5 30.5t29 50l-149 487h116l99 -342h3z" />
    <glyph glyph-name="y" unicode="&#xff;" horiz-adv-x="522" 
d="M395 506h118l-246 -523q-26 -52 -62 -89t-69 -52.5t-62.5 -23.5t-47.5 -7h-18l21 108h12.5t28 5t38 14.5t36.5 30.5t29 50l-149 487h116l99 -342h3z" />
    <glyph glyph-name="y" unicode="&#xfd;" horiz-adv-x="522" 
d="M395 506h118l-246 -523q-26 -52 -62 -89t-69 -52.5t-62.5 -23.5t-47.5 -7h-18l21 108h12.5t28 5t38 14.5t36.5 30.5t29 50l-149 487h116l99 -342h3z" />
    <glyph glyph-name="z" unicode="z" horiz-adv-x="496" 
d="M477 506l-7 -80l-306 -334h272q-7 -72 -9 -92h-128h-152h-129l9 87l311 328l-279 -3l10 94h408z" />
    <glyph glyph-name="braceleft" unicode="{" horiz-adv-x="458" 
d="M272 761q63 35 154 15l-8 -75q-46 13 -85.5 -6t-43.5 -59q-4 -44 -5 -58q-1 -84 -21 -140q-15 -41 -29 -58q-33 -39 -93 -59q55 -18 81 -59q11 -16 18 -57q9 -55 -7 -140q-4 -24 -7 -57q-3 -44 30 -60.5t88 0.5l-8 -81q-93 -22 -151 16q-38 24 -50 61.5t-5 109.5
q9 84 9 111q0 66 -21 87q-21 23 -56 28q-13 2 -30 0q4 28 5 41q2 15 3 42q16 -2 30 0q34 4 62 28q25 22 38 87q3 16 5 30t4 36t4 45q9 65 27.5 106t61.5 66z" />
    <glyph glyph-name="braceright" unicode="}" horiz-adv-x="458" 
d="M397 362q13 -2 29 0q-4 -27 -5 -41q-2 -15 -3 -41q-16 1 -30 0q-36 -5 -61 -29q-26 -21 -39 -87q-5 -27 -13 -111q-7 -72 -26.5 -109.5t-62.5 -61.5q-66 -38 -154 -16l8 81q51 -17 87.5 0t41.5 60q4 34 5 57q1 85 21 141q15 40 29 57q34 40 93 59q-56 19 -81 59
q-11 17 -18 57q-8 56 7 141q2 13 7 57q2 26 -14 44.5t-42.5 23.5t-60.5 -3l8 76q95 19 151 -16q38 -24 48.5 -65t5.5 -107q-2 -22 -4 -44.5t-3.5 -36.5t-0.5 -30q-1 -65 20 -86q23 -24 57 -29z" />
    <glyph glyph-name="asciitilde" unicode="~" horiz-adv-x="570" 
d="M417 249q54 0 120 60l-14 -130q-5 -5 -15 -11t-40 -17t-61 -11q-43 0 -126.5 33t-127.5 33q-29 0 -59.5 -16t-45.5 -33l-16 -16q2 17 3.5 39t3.5 44.5t4 39.5l6 6t16.5 14.5t26 18.5t33 14.5t38.5 6.5q37 0 81.5 -18.5t89.5 -37.5t83 -19z" />
    <glyph glyph-name="nonbreakingspace" unicode="&#xa0;" horiz-adv-x="347" 
 />
    <glyph glyph-name="cent" unicode="&#xa2;" horiz-adv-x="511" 
d="M283 85q19 2 36 11.5t27.5 22.5t15 19t7.5 11v1l90 -22q-2 -5 -5.5 -12.5t-18.5 -28.5t-34 -38t-53 -32.5t-73 -20.5l-10 -97h-82l10 99q-86 14 -128 80.5t-30 186.5q10 106 65.5 170t143.5 78l11 105h82l-11 -103q36 -5 65.5 -19.5t45 -32.5t26 -35.5t13.5 -28.5l3 -12
l-89 -23q-1 2 -2.5 6.5t-7.5 15t-13.5 19t-21 15.5t-27.5 7zM202 86l33 340q-39 -7 -68.5 -52.5t-35.5 -108.5q-7 -77 11 -123t60 -56z" />
    <glyph glyph-name="sterling" unicode="&#xa3;" horiz-adv-x="599" 
d="M467 128l100 -41q-41 -58 -89.5 -73t-169.5 -15h-247q-8 9 -11 13q-22 33 -17 71q11 81 102 137q16 10 25 20h-111l8 83h106q-11 17 -25 30q-35 34 -47 77.5t-3 83t26 72t39 53.5q20 20 48 35t59 23.5t65 10t66 -3t61.5 -18.5t53 -35t39 -53t20.5 -72l-112 -15
q1 33 -12 56q-17 27 -55 38.5t-80 5.5q-32 -5 -60 -23t-43.5 -42.5t-18 -53t17.5 -54.5q4 -5 25 -29.5t33 -43.5t19 -42h128l-8 -83h-123q-16 -39 -53 -70q-6 -5 -16.5 -12.5t-19.5 -14t-18 -14.5t-15 -17t-7 -19h145h25q50 0 72 1t44.5 9t33.5 25z" />
    <glyph glyph-name="divide" unicode="&#xf7;" horiz-adv-x="500" 
d="M41 285h427l-8 -83h-428zM330 474l-12 -117h-113l12 117h113zM171 13l11 117h113l-11 -117h-113z" />
    <glyph glyph-name="quoteleft" unicode="&#x2018;" horiz-adv-x="196" 
d="M129 574h35l-12 -122h-120l12 122l47 121h50z" />
    <glyph glyph-name="quoteright" unicode="&#x2019;" horiz-adv-x="196" 
d="M44 695h120l-12 -122l-47 -121h-50l12 121h-35z" />
    <glyph glyph-name="quotedblleft" unicode="&#x201c;" horiz-adv-x="336" 
d="M269 574h35l-12 -122h-120l13 122l46 121h50zM141 695l-12 -121h35l-12 -122h-120l12 122l47 121h50z" />
    <glyph glyph-name="quotedblright" unicode="&#x201d;" horiz-adv-x="336" 
d="M32 573l12 122h120l-12 -122l-47 -121h-50l12 121h-35zM185 695h119l-12 -122l-47 -121h-50l12 121h-35z" />
    <glyph glyph-name="Euro" unicode="&#x20ac;" horiz-adv-x="614" 
d="M482 603q-99 -2 -155 -59q-39 -39 -59 -102h284l-19 -70h-280q-2 -9 -3 -26q-1 -9 -1 -27h270l-19 -70h-245q12 -67 45 -103q48 -52 141 -55q47 -1 82 12l-10 -107q-43 -10 -91 -10q-122 0 -199.5 68t-89.5 195h-101l19 70h81q0 21 3 43q0 7 1 10h-92l20 70h86
q36 125 128.5 194t211.5 69q50 0 92 -11l-11 -110q-38 19 -89 19z" />
    </font>
</defs>
</svg>
