<?xml version="1.0" standalone="no"?>
<!DOCTYPE svg PUBLIC "-//W3C//DTD SVG 1.1//EN" "http://www.w3.org/Graphics/SVG/1.1/DTD/svg11.dtd" >
<svg xmlns="http://www.w3.org/2000/svg" xmlns:xlink="http://www.w3.org/1999/xlink" version="1.1">
<metadata>
Created by FontForge 20170731 at Tue Nov 14 03:01:30 2017
 By Aleksey,,,
</metadata>
<defs>
<font id="AndersonGroteskUltraOblique" horiz-adv-x="0" >
  <font-face 
    font-family="Anderson Grotesk Ultra Oblique"
    font-weight="400"
    font-style="oblique"
    font-stretch="normal"
    units-per-em="1000"
    panose-1="0 0 0 0 0 0 0 0 0 0"
    ascent="800"
    descent="-200"
    x-height="504"
    cap-height="696"
    bbox="-141 -229 1119 779.143"
    underline-thickness="50"
    underline-position="-200"
    unicode-range="U+000A-20AC"
  />
<missing-glyph horiz-adv-x="454" 
 />
    <glyph glyph-name=".notdef" horiz-adv-x="454" 
 />
    <glyph glyph-name=".notdef" horiz-adv-x="454" 
 />
    <glyph glyph-name=".null" 
 />
    <glyph glyph-name="nonmarkingreturn" horiz-adv-x="333" 
 />
    <glyph glyph-name="LF" unicode="&#xa;" 
 />
    <glyph glyph-name="controlCR" unicode="&#xd;" 
 />
    <glyph glyph-name="space" unicode=" " horiz-adv-x="280" 
 />
    <glyph glyph-name="exclam" unicode="!" horiz-adv-x="332" 
d="M45 3l20 146h145l-20 -146h-145zM142 700h145l-40 -288l-41 -189h-116l12 189z" />
    <glyph glyph-name="quotedbl" unicode="&#x22;" horiz-adv-x="426" 
d="M45 581l17 119h144l-16 -119l-35 -119h-104zM236 700h145l-16 -119l-35 -119h-104l-6 119z" />
    <glyph glyph-name="numbersign" unicode="#" horiz-adv-x="879" 
d="M807 428h-174l-37 -154h174l-28 -117h-174l-36 -154h-117l37 154h-127l-37 -154h-117l37 154h-163l28 117h163l37 154h-163l27 116h163l37 156h117l-37 -156h127l37 156h116l-37 -156h174zM479 274l37 154h-126l-37 -154h126z" />
    <glyph glyph-name="dollar" unicode="$" horiz-adv-x="668" 
d="M452 371q157 -50 139 -197q-6 -45 -29 -82t-57.5 -61.5t-76 -39.5t-87.5 -20l-10 -71h-88l10 72q-98 11 -147 65q-15 17 -26.5 35t-17.5 32.5t-10.5 27t-5.5 18.5l-1 7l145 40v-2.5t1.5 -7.5t3 -11.5t4.5 -13.5t7.5 -15t10.5 -15t13.5 -14t18 -11.5t22.5 -8.5l25 180
q-37 9 -64 19t-56 25.5t-47.5 39t-23.5 53.5q-12 70 17 131.5t90.5 100.5t140.5 45l10 71h88l-10 -73q45 -8 80 -26.5t55.5 -42.5t31.5 -47.5t15 -45.5l-139 -39q2 20 -18 47q-15 19 -42 28l-25 -178q30 -8 53 -15zM314 411l22 158q-14 -3 -27 -9q-40 -17 -54 -48.5t2 -64.5
q9 -20 57 -36zM442 151q23 72 -61 104l-23 -161q34 6 55.5 21t28.5 36z" />
    <glyph glyph-name="percent" unicode="%" horiz-adv-x="807" 
d="M200 367q-74 0 -106.5 43.5t-23.5 113.5q23 164 175 164q76 0 108 -43t21 -118q-9 -67 -53.5 -113.5t-120.5 -46.5zM169 535q-11 -76 44 -76q26 0 43.5 19t22.5 57q9 64 -46 64q-16 0 -29 -7t-22.5 -21.5t-12.5 -35.5zM609 288q76 0 108 -43t22 -118
q-10 -67 -54.5 -113.5t-120.5 -46.5q-73 0 -106 43.5t-23 113.5q22 164 174 164zM643 135q9 64 -46 64q-24 0 -42 -16.5t-22 -47.5q-11 -76 44 -76q26 0 43.5 19t22.5 57zM611 679h151l-565 -700l-152 1z" />
    <glyph glyph-name="ampersand" unicode="&#x26;" horiz-adv-x="695" 
d="M557 120l83 -121l-163 1l-24 43q-28 -22 -75 -37t-99 -20t-103.5 10t-82.5 50q-26 29 -38.5 71t-8.5 77q10 72 50 128.5t140 107.5l-25 50q-26 61 -11.5 108t53 76.5t88.5 36.5q76 10 127 -16t62 -99q5 -31 -7.5 -62t-33.5 -53t-43 -39.5t-38 -26.5l-16 -9l105 -171
q15 18 28.5 41.5t19.5 37.5l6 15l99 -66q-35 -75 -93 -133zM336 590q-41 -37 6 -108q30 19 47.5 38t20.5 32.5t-1 25.5q-8 18 -32 22t-41 -10zM201 139q27 -32 85 -28.5t107 35.5l-110 194q-74 -38 -97 -96.5t15 -104.5z" />
    <glyph glyph-name="quotesingle" unicode="'" horiz-adv-x="251" 
d="M62 700h144l-16 -119l-35 -119h-104l-6 119z" />
    <glyph glyph-name="parenleft" unicode="(" horiz-adv-x="507" 
d="M200 284q-10 -90 -3.5 -163t29 -134t49.5 -101.5t58 -65.5h-137q-78 54 -122 182.5t-22 289.5q11 76 35 144t52 115.5t64.5 89t66 66t60.5 44.5h133q-33 -20 -72.5 -63.5t-78.5 -103.5t-70 -140t-42 -160z" />
    <glyph glyph-name="parenright" unicode=")" horiz-adv-x="510" 
d="M307 752q16 -12 30.5 -26t30.5 -33t30 -42t27 -50.5t21.5 -61t14 -71t4.5 -82.5t-7 -93q-23 -161 -103 -289.5t-173 -183.5h-137q38 25 76.5 67t76.5 100t67.5 136t42.5 162q10 85 2 160.5t-31 138t-50 105.5t-54 63h132z" />
    <glyph glyph-name="asterisk" unicode="*" horiz-adv-x="440" 
d="M395 529l-11 -82l-102 13l74 -63l-66 -58l-53 83v-104h-81l26 104l-74 -83l-49 58l100 67l-114 -17l11 82l101 -13l-73 63l66 58l52 -83l1 103h82l-27 -101l74 81l50 -58l-90 -62z" />
    <glyph glyph-name="plus" unicode="+" horiz-adv-x="504" 
d="M459 386l-15 -109h-143l-21 -150h-113l21 150h-143l15 109h143l20 140h112l-19 -140h143z" />
    <glyph glyph-name="comma" unicode="," horiz-adv-x="254" 
d="M65 146h144l-20 -145l-62 -144h-60l20 144h-42z" />
    <glyph glyph-name="hyphen" unicode="-" horiz-adv-x="446" 
d="M50 303h366l-17 -126h-367z" />
    <glyph glyph-name="period" unicode="." horiz-adv-x="255" 
d="M65 145h145l-20 -146h-145z" />
    <glyph glyph-name="slash" unicode="/" horiz-adv-x="626" 
d="M436 718h145l-391 -719h-145z" />
    <glyph glyph-name="zero" unicode="0" horiz-adv-x="634" 
d="M366 696q90 0 144 -45t70.5 -122t1.5 -185q-7 -55 -23.5 -105t-43.5 -96t-62 -79.5t-82.5 -53.5t-102.5 -20q-87 0 -141.5 46.5t-72 123t-3.5 176.5q50 360 315 360zM452 366q10 73 -1 120.5t-36.5 67t-65.5 19.5q-57 0 -101.5 -54t-58.5 -153q-34 -244 98 -244
q62 0 105 61.5t60 182.5z" />
    <glyph glyph-name="one" unicode="1" horiz-adv-x="360" 
d="M192 687l123 2l-96 -688l-137 -1l69 490l-2.5 -3.5t-7 -8.5t-11 -11t-15.5 -12t-19 -11t-23.5 -8t-27.5 -3l19 152q47 1 84.5 30.5t43.5 71.5z" />
    <glyph glyph-name="two" unicode="2" horiz-adv-x="631" 
d="M496 321q-35 -31 -81.5 -56.5t-79.5 -39t-62.5 -39t-41.5 -62.5h302l-19 -124h-365l-70 1h-34q13 95 53.5 170.5t109.5 118.5q31 18 73 41t66 36t47.5 32t36.5 39q15 25 18 49t-4.5 42.5t-22 31t-33.5 17.5q-28 7 -61.5 -3t-52.5 -33q-9 -10 -15 -24.5t-8 -23.5l-2 -9
l-134 27q22 65 67 110.5t97.5 64t105.5 20.5t98 -16.5t68 -51.5q18 -25 26.5 -62t6.5 -80t-24.5 -90.5t-64.5 -85.5zM111 0h70h-70z" />
    <glyph glyph-name="three" unicode="3" horiz-adv-x="612" 
d="M453 358q4 -1 11 -4t24.5 -16t29.5 -31t19.5 -51.5t1.5 -73.5q-12 -86 -89.5 -139t-185.5 -53q-90 0 -149.5 40.5t-69.5 126.5l138 39q0 -81 107 -78q82 2 114 58q25 46 -1 86q-26 37 -82 37h-54l18 120l56 1q31 0 55 17t32.5 41.5t6 49t-26 41.5t-62.5 17
q-106 0 -126 -96l-130 23q19 64 61.5 107.5t94.5 62t113 18.5q103 0 158.5 -53t48.5 -130q-3 -25 -10.5 -47t-17.5 -38t-22 -29t-23 -21.5t-20 -14t-15 -7.5z" />
    <glyph glyph-name="four" unicode="4" horiz-adv-x="604" 
d="M485 318h75l-18 -125h-75l-27 -193h-128l27 193h-294l13 96l362 400l116 -1zM355 313l25 184l-166 -184h141z" />
    <glyph glyph-name="five" unicode="5" horiz-adv-x="627" 
d="M374 455q74 0 124 -30.5t70.5 -85.5t9.5 -129q-5 -34 -19 -65.5t-39 -60t-58.5 -49.5t-79.5 -33.5t-99 -13.5q-46 0 -84.5 9.5t-62.5 25t-42 34.5t-27 38t-14.5 35t-6.5 26l-1 10l139 34q0 -4 1.5 -10.5t9 -23t19 -29t35 -22.5t54.5 -9q61 1 101.5 36.5t44.5 85.5
q4 43 -27.5 77.5t-79.5 34.5q-29 0 -55.5 -8t-42.5 -20t-28 -24t-17 -21l-5 -8l-116 57l109 372h387l-16 -122h-274l-50 -160q6 6 17.5 14t48 21.5t74.5 13.5z" />
    <glyph glyph-name="six" unicode="6" horiz-adv-x="613" 
d="M203 433q38 31 84 45t89 10t83.5 -22.5t66.5 -53.5t38 -82t-2 -108q-21 -102 -94.5 -167t-195.5 -65q-53 0 -94 15.5t-66 43t-41 61t-21 74.5t-4.5 79.5t5.5 80.5q24 168 107.5 260t211.5 92q26 0 50 -4t42 -11t33.5 -15t26 -16.5t18 -15t10.5 -10.5l3 -5l-102 -82
q-1 1 -3.5 4.5t-11.5 11t-19.5 13t-28 9t-36.5 2.5q-58 -5 -95 -43.5t-54 -100.5zM433 239q4 26 -3 49.5t-21.5 40.5t-36.5 27t-48 10q-35 0 -66.5 -17t-52.5 -46t-26 -64q-7 -53 25 -90t85 -37q52 0 94.5 37.5t49.5 89.5z" />
    <glyph glyph-name="seven" unicode="7" horiz-adv-x="575" 
d="M62 688h469l-14 -96l-322 -592l-148 1l312 563h-314z" />
    <glyph glyph-name="eight" unicode="8" horiz-adv-x="629" 
d="M581 505q-4 -32 -18.5 -59t-32 -43t-34 -28t-27.5 -17l-11 -4q4 -2 11.5 -5.5t25.5 -18t31 -32.5t21 -50.5t3 -69.5t-24 -69.5t-51.5 -59.5t-83.5 -43.5t-115 -18.5h-4q-64 2 -111.5 18.5t-73 43.5t-35.5 59.5t-5 69.5t21.5 69t37 51t39.5 32.5t32 18.5l13 5
q-4 1 -10.5 4.5t-22.5 16t-27.5 28.5t-19.5 43t-3 59q12 85 82.5 137t181.5 53h4q72 -1 121.5 -25t71 -66.5t13.5 -98.5zM290 102q52 0 87.5 26.5t38.5 69.5q2 22 -9.5 45.5t-32.5 34.5q-24 12 -58 11q-32 1 -64 -13q-24 -11 -41.5 -33.5t-21.5 -44.5q-9 -43 18.5 -69
t82.5 -27zM387 422q28 13 44 37t15 47q-2 33 -24 55.5t-66 22.5q-44 -1 -72.5 -23.5t-39.5 -54.5q-7 -23 2.5 -47t34.5 -37q21 -11 52 -11q34 2 54 11z" />
    <glyph glyph-name="nine" unicode="9" horiz-adv-x="613" 
d="M342 695q53 0 94 -15.5t65.5 -42.5t40.5 -60.5t21.5 -75t5 -80t-6.5 -79.5q-23 -169 -106.5 -261t-211.5 -92q-36 0 -68 8t-52.5 19.5t-35.5 23t-21 18.5l-7 8l103 83q1 -2 3.5 -5t11.5 -10.5t19 -13t27.5 -9.5t37.5 -2q57 5 94.5 43.5t53.5 99.5q-38 -30 -84 -44
t-89 -10t-83 22.5t-66 53t-38 81.5t1 108q21 102 95 167t196 65zM434 446q8 53 -24 90.5t-85 37.5t-95.5 -37.5t-49.5 -90t25 -90t85 -37.5q34 0 65.5 17t53 46.5t25.5 63.5z" />
    <glyph glyph-name="colon" unicode=":" horiz-adv-x="307" 
d="M45 1l20 146h145l-20 -146h-145zM117 508h145l-20 -145h-145z" />
    <glyph glyph-name="semicolon" unicode=";" horiz-adv-x="305" 
d="M45 1l20 145h144l-20 -145l-62 -144h-60l20 144h-42zM115 508h145l-20 -145h-145z" />
    <glyph glyph-name="less" unicode="&#x3c;" horiz-adv-x="625" 
d="M580 578l-20 -141l-299 -103l271 -100l-20 -144l-467 198l13 91z" />
    <glyph glyph-name="equal" unicode="=" horiz-adv-x="551" 
d="M89 478h417l-17 -120h-417zM45 161l17 120h416l-17 -120h-416z" />
    <glyph glyph-name="greater" unicode="&#x3e;" horiz-adv-x="625" 
d="M113 575l467 -199l-13 -91l-522 -198l20 144l298 100l-270 103z" />
    <glyph glyph-name="question" unicode="?" horiz-adv-x="530" 
d="M97 3l20 146h145l-20 -146h-145zM448 674q21 -21 30.5 -61t5 -85t-33.5 -90.5t-79 -72.5q-29 -15 -44.5 -24.5t-30.5 -23t-22 -28t-9 -34.5q-3 -15 -2 -32h-130q0 92 35 143.5t112 83.5q33 13 52 39t20.5 51t-18 44.5t-57.5 20.5q-18 1 -32.5 -3.5t-24 -11.5t-17 -16
t-11.5 -18t-6.5 -16t-3.5 -12v-5l-137 34q16 58 55 98.5t87 57t98 18.5t93.5 -14t69.5 -43z" />
    <glyph glyph-name="at" unicode="@" horiz-adv-x="1045" 
d="M851 659q67 -47 105 -118.5t42.5 -149t-10.5 -152.5t-47 -139q-23 -44 -61.5 -72.5t-79 -35t-78.5 -0.5t-64.5 29.5t-30.5 56.5q-2 -3 -6 -9.5t-19 -22.5t-31.5 -28.5t-44.5 -24t-59 -13.5q-45 -4 -84.5 9t-70.5 43t-44.5 85.5t-3.5 129.5q8 57 29 101.5t48 71t60 43
t64.5 22t62.5 3.5q26 -2 48 -9t35.5 -16t23.5 -17.5t14 -14.5l4 -6l7 54l123 -1l-37 -308q-5 -31 20 -44q31 -17 60 18q24 29 35 86q35 179 -42 278t-239 100q-75 0 -140.5 -23.5t-118 -69t-88.5 -120t-48 -171.5q-10 -80 4 -142.5t47 -100.5t78.5 -60.5t98 -26.5t105.5 5.5
t102 31.5l33 -117q-9 -5 -25 -12t-71.5 -19t-118.5 -12q-156 0 -254.5 70.5t-128.5 214.5q-8 36 -9.5 77.5t2.5 86.5t16 91t30 91t46.5 87.5t63.5 79.5t81.5 68.5t101.5 52.5q65 26 149 33.5t170 -8.5t145 -56zM628 244q5 39 -2 68.5t-23.5 46t-34.5 24.5t-38 10
q-48 4 -86.5 -39.5t-48.5 -111.5q-10 -73 19 -114.5t83 -36.5q111 11 131 153z" />
    <glyph glyph-name="A" unicode="A" horiz-adv-x="684" 
d="M498 699l167 -699h-157l-33 141l-236 1l-70 -141l-149 -1l363 699h115zM308 270h139l-40 213z" />
    <glyph glyph-name="A" unicode="&#xc5;" horiz-adv-x="684" 
d="M498 699l167 -699h-157l-33 141l-236 1l-70 -141l-149 -1l363 699h115zM308 270h139l-40 213z" />
    <glyph glyph-name="A" unicode="&#xc4;" horiz-adv-x="684" 
d="M498 699l167 -699h-157l-33 141l-236 1l-70 -141l-149 -1l363 699h115zM308 270h139l-40 213z" />
    <glyph glyph-name="A" unicode="&#xc3;" horiz-adv-x="684" 
d="M498 699l167 -699h-157l-33 141l-236 1l-70 -141l-149 -1l363 699h115zM308 270h139l-40 213z" />
    <glyph glyph-name="A" unicode="&#xc2;" horiz-adv-x="684" 
d="M498 699l167 -699h-157l-33 141l-236 1l-70 -141l-149 -1l363 699h115zM308 270h139l-40 213z" />
    <glyph glyph-name="A" unicode="&#xc1;" horiz-adv-x="684" 
d="M498 699l167 -699h-157l-33 141l-236 1l-70 -141l-149 -1l363 699h115zM308 270h139l-40 213z" />
    <glyph glyph-name="A" unicode="&#xc0;" horiz-adv-x="684" 
d="M498 699l167 -699h-157l-33 141l-236 1l-70 -141l-149 -1l363 699h115zM308 270h139l-40 213z" />
    <glyph glyph-name="B" unicode="B" horiz-adv-x="636" 
d="M496 375q2 -1 5 -1.5t12 -4.5t16.5 -9t19 -13.5t19.5 -19t17 -26t12.5 -33.5t5.5 -42t-4 -51q-10 -58 -59 -107.5t-125 -61.5q-41 -6 -113 -6h-21h-170h-66l97 699h265q94 0 147 -42t46 -131q-3 -33 -14.5 -61t-26.5 -44t-29 -27t-24 -15zM453 211q2 16 -0.5 30.5
t-12 28.5t-31 22.5t-53.5 8.5h-131l-26 -187h83h22q78 -2 110 23.5t39 73.5zM463 500q5 40 -12 67t-54 26l-131 1l-24 -174h41h22h51q45 0 73.5 21t33.5 59z" />
    <glyph glyph-name="C" unicode="C" horiz-adv-x="700" 
d="M340 112q37 0 69.5 9t52 22t33.5 26t20 22l5 9l115 -55q-4 -7 -11 -17.5t-34.5 -38t-61 -48.5t-90 -38.5t-120.5 -17.5q-157 0 -234.5 97t-49.5 277q17 108 72.5 187t134.5 117t173 38q38 0 71 -6t57 -16.5t44 -24t33 -28.5t23.5 -29.5t16 -28t9 -24t4.5 -16.5l1 -6
l-128 -38q0 4 -2 10.5t-12.5 23.5t-25.5 30t-44 22.5t-66 8.5q-35 -1 -64.5 -11t-50.5 -24.5t-38 -35t-27.5 -41t-18.5 -44t-12 -41.5t-6 -36q-3 -23 -3 -44t2.5 -49.5t13 -52t28 -44t48.5 -32.5t73 -12z" />
    <glyph glyph-name="C" unicode="&#xc7;" horiz-adv-x="700" 
d="M340 112q37 0 69.5 9t52 22t33.5 26t20 22l5 9l115 -55q-4 -7 -11 -17.5t-34.5 -38t-61 -48.5t-90 -38.5t-120.5 -17.5q-157 0 -234.5 97t-49.5 277q17 108 72.5 187t134.5 117t173 38q38 0 71 -6t57 -16.5t44 -24t33 -28.5t23.5 -29.5t16 -28t9 -24t4.5 -16.5l1 -6
l-128 -38q0 4 -2 10.5t-12.5 23.5t-25.5 30t-44 22.5t-66 8.5q-35 -1 -64.5 -11t-50.5 -24.5t-38 -35t-27.5 -41t-18.5 -44t-12 -41.5t-6 -36q-3 -23 -3 -44t2.5 -49.5t13 -52t28 -44t48.5 -32.5t73 -12z" />
    <glyph glyph-name="D" unicode="D" horiz-adv-x="716" 
d="M361 697q31 0 58.5 -2t57 -7.5t54 -15t49.5 -24t42.5 -34.5t33.5 -46t22.5 -60t9.5 -75.5t-6 -91.5q-12 -84 -40 -145.5t-65.5 -99t-92 -59.5t-110 -29.5t-128.5 -7.5h-201l97 697h219zM543 349q7 40 3.5 71t-10 54t-22 39.5t-32 27.5t-39 17t-44.5 8.5t-49 2.5l-86 -1
l-62 -441h76q42 0 73 4t65 18t57.5 37.5t42.5 64.5t27 98z" />
    <glyph glyph-name="E" unicode="E" horiz-adv-x="630" 
d="M593 568l-346 -1l-20 -148l264 1l-18 -121l-264 -1l-23 -176h346l-18 -122h-487l97 696h487z" />
    <glyph glyph-name="E" unicode="&#xcb;" horiz-adv-x="630" 
d="M593 568l-346 -1l-20 -148l264 1l-18 -121l-264 -1l-23 -176h346l-18 -122h-487l97 696h487z" />
    <glyph glyph-name="E" unicode="&#xca;" horiz-adv-x="630" 
d="M593 568l-346 -1l-20 -148l264 1l-18 -121l-264 -1l-23 -176h346l-18 -122h-487l97 696h487z" />
    <glyph glyph-name="E" unicode="&#xc9;" horiz-adv-x="630" 
d="M593 568l-346 -1l-20 -148l264 1l-18 -121l-264 -1l-23 -176h346l-18 -122h-487l97 696h487z" />
    <glyph glyph-name="E" unicode="&#xc8;" horiz-adv-x="630" 
d="M593 568l-346 -1l-20 -148l264 1l-18 -121l-264 -1l-23 -176h346l-18 -122h-487l97 696h487z" />
    <glyph glyph-name="F" unicode="F" horiz-adv-x="639" 
d="M612 570l-347 -1l-20 -148h264l-18 -121l-263 -1l-41 -299h-142l97 697h487z" />
    <glyph glyph-name="G" unicode="G" horiz-adv-x="709" 
d="M399 392h291l-2 -24l-51 -370h-109l-3 104q-2 -5 -6 -12.5t-21 -27.5t-38.5 -35t-59.5 -27.5t-82 -12.5q-156 0 -229 96t-45 278q26 164 128 253.5t252 89.5q48 0 88.5 -10t66.5 -26t47 -35t32 -38t18.5 -35t9.5 -26l2 -10l-136 -38q0 2 -0.5 5.5t-4 13.5t-8.5 19
t-16.5 20t-26 19t-38.5 13t-54 5q-47 0 -85 -17.5t-60.5 -42t-38.5 -59t-22.5 -60.5t-10.5 -54q-7 -45 -1.5 -92.5t23.5 -76.5q26 -41 76 -58t102 -9t88 36q28 21 43 51t16 50l1 19h-152z" />
    <glyph glyph-name="H" unicode="H" horiz-adv-x="672" 
d="M511 696h143l-97 -696h-141l41 300h-256l-42 -300h-141l97 696h141l-39 -277h255z" />
    <glyph glyph-name="I" unicode="I" horiz-adv-x="306" 
d="M131 696h141l-97 -696h-141z" />
    <glyph glyph-name="I" unicode="&#xcf;" horiz-adv-x="306" 
d="M131 696h141l-97 -696h-141z" />
    <glyph glyph-name="I" unicode="&#xce;" horiz-adv-x="306" 
d="M131 696h141l-97 -696h-141z" />
    <glyph glyph-name="I" unicode="&#xcd;" horiz-adv-x="306" 
d="M131 696h141l-97 -696h-141z" />
    <glyph glyph-name="I" unicode="&#xcc;" horiz-adv-x="306" 
d="M131 696h141l-97 -696h-141z" />
    <glyph glyph-name="J" unicode="J" horiz-adv-x="565" 
d="M379 694h141l-68 -483q-29 -226 -226 -228q-170 -1 -191 176l146 34v-7t3.5 -14.5t8.5 -19t16.5 -15t26.5 -6.5q19 0 32.5 8t21.5 18t14 31t8.5 35t6.5 42q1 11 2 17z" />
    <glyph glyph-name="K" unicode="K" horiz-adv-x="614" 
d="M632 696l-292 -346l224 -350l-180 1l-174 302l-42 -302h-141l96 696h142l-42 -302l243 302z" />
    <glyph glyph-name="L" unicode="L" horiz-adv-x="533" 
d="M196 136l311 -1l-19 -135h-461l97 697h150z" />
    <glyph glyph-name="M" unicode="M" horiz-adv-x="838" 
d="M657 697h144l-48 -697h-139l35 395l-189 -395h-135l-90 396l-65 -396h-133l128 697l155 -1l99 -498z" />
    <glyph glyph-name="N" unicode="N" horiz-adv-x="663" 
d="M522 697l132 1l-8 -56l-34 -249l-8 -57l-39 -279l-5 -35l-3 -22h-123l-231 450l-61 -450l-133 1l97 697h127l227 -442z" />
    <glyph glyph-name="N" unicode="&#xd1;" horiz-adv-x="663" 
d="M522 697l132 1l-8 -56l-34 -249l-8 -57l-39 -279l-5 -35l-3 -22h-123l-231 450l-61 -450l-133 1l97 697h127l227 -442z" />
    <glyph glyph-name="O" unicode="O" horiz-adv-x="741" 
d="M425 704q161 0 239.5 -99t56.5 -260q-23 -162 -131.5 -260.5t-263.5 -98.5q-162 0 -241 92t-54 267q12 87 48.5 156t90 113t118.5 67t137 23zM580 345q15 105 -34.5 172t-136.5 67q-89 0 -157 -65.5t-83 -175.5q-15 -114 32.5 -175t141.5 -61q88 0 155.5 65.5t81.5 172.5
z" />
    <glyph glyph-name="O" unicode="&#xd8;" horiz-adv-x="741" 
d="M425 704q161 0 239.5 -99t56.5 -260q-23 -162 -131.5 -260.5t-263.5 -98.5q-162 0 -241 92t-54 267q12 87 48.5 156t90 113t118.5 67t137 23zM580 345q15 105 -34.5 172t-136.5 67q-89 0 -157 -65.5t-83 -175.5q-15 -114 32.5 -175t141.5 -61q88 0 155.5 65.5t81.5 172.5
z" />
    <glyph glyph-name="O" unicode="&#xd6;" horiz-adv-x="741" 
d="M425 704q161 0 239.5 -99t56.5 -260q-23 -162 -131.5 -260.5t-263.5 -98.5q-162 0 -241 92t-54 267q12 87 48.5 156t90 113t118.5 67t137 23zM580 345q15 105 -34.5 172t-136.5 67q-89 0 -157 -65.5t-83 -175.5q-15 -114 32.5 -175t141.5 -61q88 0 155.5 65.5t81.5 172.5
z" />
    <glyph glyph-name="O" unicode="&#xd5;" horiz-adv-x="741" 
d="M425 704q161 0 239.5 -99t56.5 -260q-23 -162 -131.5 -260.5t-263.5 -98.5q-162 0 -241 92t-54 267q12 87 48.5 156t90 113t118.5 67t137 23zM580 345q15 105 -34.5 172t-136.5 67q-89 0 -157 -65.5t-83 -175.5q-15 -114 32.5 -175t141.5 -61q88 0 155.5 65.5t81.5 172.5
z" />
    <glyph glyph-name="O" unicode="&#xd4;" horiz-adv-x="741" 
d="M425 704q161 0 239.5 -99t56.5 -260q-23 -162 -131.5 -260.5t-263.5 -98.5q-162 0 -241 92t-54 267q12 87 48.5 156t90 113t118.5 67t137 23zM580 345q15 105 -34.5 172t-136.5 67q-89 0 -157 -65.5t-83 -175.5q-15 -114 32.5 -175t141.5 -61q88 0 155.5 65.5t81.5 172.5
z" />
    <glyph glyph-name="O" unicode="&#xd3;" horiz-adv-x="741" 
d="M425 704q161 0 239.5 -99t56.5 -260q-23 -162 -131.5 -260.5t-263.5 -98.5q-162 0 -241 92t-54 267q12 87 48.5 156t90 113t118.5 67t137 23zM580 345q15 105 -34.5 172t-136.5 67q-89 0 -157 -65.5t-83 -175.5q-15 -114 32.5 -175t141.5 -61q88 0 155.5 65.5t81.5 172.5
z" />
    <glyph glyph-name="O" unicode="&#xd2;" horiz-adv-x="741" 
d="M425 704q161 0 239.5 -99t56.5 -260q-23 -162 -131.5 -260.5t-263.5 -98.5q-162 0 -241 92t-54 267q12 87 48.5 156t90 113t118.5 67t137 23zM580 345q15 105 -34.5 172t-136.5 67q-89 0 -157 -65.5t-83 -175.5q-15 -114 32.5 -175t141.5 -61q88 0 155.5 65.5t81.5 172.5
z" />
    <glyph glyph-name="P" unicode="P" horiz-adv-x="690" 
d="M437 698q57 1 100.5 -13.5t67 -36.5t38.5 -50.5t19.5 -51t3.5 -42.5q-1 -24 -7 -51t-16 -53t-25.5 -49.5t-33.5 -38.5q-19 -15 -31 -24h-1.5h-0.5q-24 -15 -46 -23.5t-55.5 -13.5t-80.5 -6h-152l-34 -245h-138l97 698h295zM518 474q7 47 -17.5 80.5t-90.5 33.5h-146
l-32 -228l8 -1h140q30 0 54 8t38.5 20t25 28.5t14.5 30t6 28.5z" />
    <glyph glyph-name="Q" unicode="Q" horiz-adv-x="755" 
d="M718 359q-11 -86 -57 -157t-97 -100l113 28l14 -130h-368q-11 0 -17 1q-153 4 -227.5 96t-50.5 262q12 87 48.5 156t90 113t119 67t137.5 23q160 0 238.5 -99t56.5 -260zM582 359q15 106 -34.5 173.5t-137.5 67.5q-90 0 -158 -66t-84 -177q-16 -115 32 -176.5t143 -61.5
q88 0 156 66t83 174z" />
    <glyph glyph-name="R" unicode="R" horiz-adv-x="660" 
d="M422 316q94 -21 123 -149q10 -46 25.5 -88t26.5 -61l10 -18h-170q-15 42 -33 134q-13 74 -53 108.5t-91 35.5h-38l-39 -278h-138l97 697h264q65 3 112.5 -11.5t72 -41t35.5 -57t10 -64.5q-1 -41 -13 -74t-31 -54t-41.5 -37t-45.5 -23.5t-41.5 -12t-29.5 -5.5zM360 392
q118 0 131 96t-106 96l-121 -1l-26 -190h7z" />
    <glyph glyph-name="S" unicode="S" horiz-adv-x="633" 
d="M434 380q158 -50 140 -197q-7 -54 -38.5 -96t-76 -66t-98.5 -35.5t-105 -7.5t-96 21t-71 47q-23 26 -38.5 56t-19.5 47l-3 17l144 40q1 -4 2 -10t7 -22.5t15.5 -29.5t29 -25.5t44.5 -16.5q63 -8 103.5 9.5t50.5 48.5q28 84 -93 113q-5 2 -17 4q-30 8 -47 12.5t-46.5 14
t-47.5 19.5t-38 24.5t-31.5 33.5t-15.5 42q-13 76 20.5 140.5t103 102t156.5 37.5q60 0 106.5 -17t72.5 -44t40 -53t19 -53l-140 -39q3 21 -17 48q-23 29 -73 35t-84 -11q-40 -18 -54.5 -49t2.5 -64q6 -13 25.5 -23.5t40.5 -16.5t61.5 -17t66.5 -19z" />
    <glyph glyph-name="T" unicode="T" horiz-adv-x="564" 
d="M48 698h546l-17 -118h-206l-80 -580h-137l81 579l-204 1z" />
    <glyph glyph-name="U" unicode="U" horiz-adv-x="662" 
d="M517 697h135l-59 -420q-3 -26 -5.5 -39.5t-7.5 -36.5t-10.5 -37.5t-15.5 -34t-23 -34t-31.5 -30.5t-41.5 -31q-18 -11 -38.5 -19t-41 -12.5t-38.5 -7t-36.5 -3t-30 -0.5t-23.5 0.5t-13 0.5q-38 1 -73.5 12.5t-67.5 34t-52 62t-21 90.5q-2 59 9 134l50 371h136l-44 -340
q-16 -133 -8 -169q17 -84 118 -84q113 0 153 85q11 24 34 171z" />
    <glyph glyph-name="U" unicode="&#xdc;" horiz-adv-x="662" 
d="M517 697h135l-59 -420q-3 -26 -5.5 -39.5t-7.5 -36.5t-10.5 -37.5t-15.5 -34t-23 -34t-31.5 -30.5t-41.5 -31q-18 -11 -38.5 -19t-41 -12.5t-38.5 -7t-36.5 -3t-30 -0.5t-23.5 0.5t-13 0.5q-38 1 -73.5 12.5t-67.5 34t-52 62t-21 90.5q-2 59 9 134l50 371h136l-44 -340
q-16 -133 -8 -169q17 -84 118 -84q113 0 153 85q11 24 34 171z" />
    <glyph glyph-name="U" unicode="&#xdb;" horiz-adv-x="662" 
d="M517 697h135l-59 -420q-3 -26 -5.5 -39.5t-7.5 -36.5t-10.5 -37.5t-15.5 -34t-23 -34t-31.5 -30.5t-41.5 -31q-18 -11 -38.5 -19t-41 -12.5t-38.5 -7t-36.5 -3t-30 -0.5t-23.5 0.5t-13 0.5q-38 1 -73.5 12.5t-67.5 34t-52 62t-21 90.5q-2 59 9 134l50 371h136l-44 -340
q-16 -133 -8 -169q17 -84 118 -84q113 0 153 85q11 24 34 171z" />
    <glyph glyph-name="U" unicode="&#xda;" horiz-adv-x="662" 
d="M517 697h135l-59 -420q-3 -26 -5.5 -39.5t-7.5 -36.5t-10.5 -37.5t-15.5 -34t-23 -34t-31.5 -30.5t-41.5 -31q-18 -11 -38.5 -19t-41 -12.5t-38.5 -7t-36.5 -3t-30 -0.5t-23.5 0.5t-13 0.5q-38 1 -73.5 12.5t-67.5 34t-52 62t-21 90.5q-2 59 9 134l50 371h136l-44 -340
q-16 -133 -8 -169q17 -84 118 -84q113 0 153 85q11 24 34 171z" />
    <glyph glyph-name="U" unicode="&#xd9;" horiz-adv-x="662" 
d="M517 697h135l-59 -420q-3 -26 -5.5 -39.5t-7.5 -36.5t-10.5 -37.5t-15.5 -34t-23 -34t-31.5 -30.5t-41.5 -31q-18 -11 -38.5 -19t-41 -12.5t-38.5 -7t-36.5 -3t-30 -0.5t-23.5 0.5t-13 0.5q-38 1 -73.5 12.5t-67.5 34t-52 62t-21 90.5q-2 59 9 134l50 371h136l-44 -340
q-16 -133 -8 -169q17 -84 118 -84q113 0 153 85q11 24 34 171z" />
    <glyph glyph-name="V" unicode="V" horiz-adv-x="662" 
d="M505 698h149l-364 -698h-115l-166 698h157l83 -416l8 -102l39 103z" />
    <glyph glyph-name="W" unicode="W" horiz-adv-x="924" 
d="M763 698h148l-284 -698h-128l-63 501l-207 -501h-128l-86 698h153l24 -345v-146l46 142l149 349h148l55 -340l9 -149l42 149z" />
    <glyph glyph-name="X" unicode="X" horiz-adv-x="740" 
d="M732 698l-289 -349l192 -349h-175l-106 230l-173 -230h-173l287 349l-190 349h165l116 -233l180 232z" />
    <glyph glyph-name="Y" unicode="Y" horiz-adv-x="583" 
d="M461 698l155 -1l-291 -397l-38 -300h-142l46 301l-179 396h156l109 -267z" />
    <glyph glyph-name="Y" unicode="&#xdd;" horiz-adv-x="583" 
d="M461 698l155 -1l-291 -397l-38 -300h-142l46 301l-179 396h156l109 -267z" />
    <glyph glyph-name="Z" unicode="Z" horiz-adv-x="687" 
d="M656 697l-14 -99l-411 -467h341q-11 -103 -14 -131h-264h-264l16 116l402 456l-340 1l20 125q74 0 259 -0.5t269 -0.5z" />
    <glyph glyph-name="bracketleft" unicode="[" horiz-adv-x="453" 
d="M392 595h-106l-92 -664h106l-16 -111h-239l124 889l239 1z" />
    <glyph glyph-name="backslash" unicode="\" horiz-adv-x="426" 
d="M190 718l191 -719h-146l-190 719h145z" />
    <glyph glyph-name="bracketright" unicode="]" horiz-adv-x="453" 
d="M169 710h239l-124 -890h-239l16 112h105l93 664h-106z" />
    <glyph glyph-name="underscore" unicode="_" horiz-adv-x="628" 
d="M60 -1h523l-15 -106h-523z" />
    <glyph glyph-name="a" unicode="a" horiz-adv-x="552" 
d="M488 463q35 -35 39.5 -83t-10.5 -137l-23 -174l14 -70l-158 1l3 63q-2 -3 -6 -8t-19 -17.5t-33 -22.5t-48 -17.5t-64 -7.5q-75 0 -118 30q-48 34 -46 102q2 74 59 123q49 41 144 48q11 1 29 3q65 5 89.5 10.5t37.5 23.5q7 9 8.5 22.5t-4.5 25.5q-7 12 -28.5 20t-46.5 8
t-50 -14.5t-36 -43.5l-134 32q50 134 241 134q110 0 160 -51zM323 124q12 8 20 18.5t13.5 24t8.5 30.5t5 40q-20 -13 -60 -17t-75.5 -11t-51.5 -28q-20 -28 -8 -53t47 -31q14 -2 30.5 0t36 9t34.5 18z" />
    <glyph glyph-name="a" unicode="&#xe5;" horiz-adv-x="552" 
d="M488 463q35 -35 39.5 -83t-10.5 -137l-23 -174l14 -70l-158 1l3 63q-2 -3 -6 -8t-19 -17.5t-33 -22.5t-48 -17.5t-64 -7.5q-75 0 -118 30q-48 34 -46 102q2 74 59 123q49 41 144 48q11 1 29 3q65 5 89.5 10.5t37.5 23.5q7 9 8.5 22.5t-4.5 25.5q-7 12 -28.5 20t-46.5 8
t-50 -14.5t-36 -43.5l-134 32q50 134 241 134q110 0 160 -51zM323 124q12 8 20 18.5t13.5 24t8.5 30.5t5 40q-20 -13 -60 -17t-75.5 -11t-51.5 -28q-20 -28 -8 -53t47 -31q14 -2 30.5 0t36 9t34.5 18z" />
    <glyph glyph-name="a" unicode="&#xe4;" horiz-adv-x="552" 
d="M488 463q35 -35 39.5 -83t-10.5 -137l-23 -174l14 -70l-158 1l3 63q-2 -3 -6 -8t-19 -17.5t-33 -22.5t-48 -17.5t-64 -7.5q-75 0 -118 30q-48 34 -46 102q2 74 59 123q49 41 144 48q11 1 29 3q65 5 89.5 10.5t37.5 23.5q7 9 8.5 22.5t-4.5 25.5q-7 12 -28.5 20t-46.5 8
t-50 -14.5t-36 -43.5l-134 32q50 134 241 134q110 0 160 -51zM323 124q12 8 20 18.5t13.5 24t8.5 30.5t5 40q-20 -13 -60 -17t-75.5 -11t-51.5 -28q-20 -28 -8 -53t47 -31q14 -2 30.5 0t36 9t34.5 18z" />
    <glyph glyph-name="a" unicode="&#xe3;" horiz-adv-x="552" 
d="M488 463q35 -35 39.5 -83t-10.5 -137l-23 -174l14 -70l-158 1l3 63q-2 -3 -6 -8t-19 -17.5t-33 -22.5t-48 -17.5t-64 -7.5q-75 0 -118 30q-48 34 -46 102q2 74 59 123q49 41 144 48q11 1 29 3q65 5 89.5 10.5t37.5 23.5q7 9 8.5 22.5t-4.5 25.5q-7 12 -28.5 20t-46.5 8
t-50 -14.5t-36 -43.5l-134 32q50 134 241 134q110 0 160 -51zM323 124q12 8 20 18.5t13.5 24t8.5 30.5t5 40q-20 -13 -60 -17t-75.5 -11t-51.5 -28q-20 -28 -8 -53t47 -31q14 -2 30.5 0t36 9t34.5 18z" />
    <glyph glyph-name="a" unicode="&#xe2;" horiz-adv-x="552" 
d="M488 463q35 -35 39.5 -83t-10.5 -137l-23 -174l14 -70l-158 1l3 63q-2 -3 -6 -8t-19 -17.5t-33 -22.5t-48 -17.5t-64 -7.5q-75 0 -118 30q-48 34 -46 102q2 74 59 123q49 41 144 48q11 1 29 3q65 5 89.5 10.5t37.5 23.5q7 9 8.5 22.5t-4.5 25.5q-7 12 -28.5 20t-46.5 8
t-50 -14.5t-36 -43.5l-134 32q50 134 241 134q110 0 160 -51zM323 124q12 8 20 18.5t13.5 24t8.5 30.5t5 40q-20 -13 -60 -17t-75.5 -11t-51.5 -28q-20 -28 -8 -53t47 -31q14 -2 30.5 0t36 9t34.5 18z" />
    <glyph glyph-name="a" unicode="&#xe1;" horiz-adv-x="552" 
d="M488 463q35 -35 39.5 -83t-10.5 -137l-23 -174l14 -70l-158 1l3 63q-2 -3 -6 -8t-19 -17.5t-33 -22.5t-48 -17.5t-64 -7.5q-75 0 -118 30q-48 34 -46 102q2 74 59 123q49 41 144 48q11 1 29 3q65 5 89.5 10.5t37.5 23.5q7 9 8.5 22.5t-4.5 25.5q-7 12 -28.5 20t-46.5 8
t-50 -14.5t-36 -43.5l-134 32q50 134 241 134q110 0 160 -51zM323 124q12 8 20 18.5t13.5 24t8.5 30.5t5 40q-20 -13 -60 -17t-75.5 -11t-51.5 -28q-20 -28 -8 -53t47 -31q14 -2 30.5 0t36 9t34.5 18z" />
    <glyph glyph-name="a" unicode="&#xe0;" horiz-adv-x="552" 
d="M488 463q35 -35 39.5 -83t-10.5 -137l-23 -174l14 -70l-158 1l3 63q-2 -3 -6 -8t-19 -17.5t-33 -22.5t-48 -17.5t-64 -7.5q-75 0 -118 30q-48 34 -46 102q2 74 59 123q49 41 144 48q11 1 29 3q65 5 89.5 10.5t37.5 23.5q7 9 8.5 22.5t-4.5 25.5q-7 12 -28.5 20t-46.5 8
t-50 -14.5t-36 -43.5l-134 32q50 134 241 134q110 0 160 -51zM323 124q12 8 20 18.5t13.5 24t8.5 30.5t5 40q-20 -13 -60 -17t-75.5 -11t-51.5 -28q-20 -28 -8 -53t47 -31q14 -2 30.5 0t36 9t34.5 18z" />
    <glyph glyph-name="b" unicode="b" horiz-adv-x="597" 
d="M361 513q22 2 42.5 1t45 -7t43.5 -18t38 -31t28 -47.5t14 -67t-4 -89.5q-8 -56 -27 -102t-45 -76t-54 -49t-59 -29q-17 -6 -44.5 -8.5t-66.5 4t-65 26.5q-12 9 -22 20.5t-14 18.5l-4 7l-10 -67h-6h-133l97 696h139l-36 -259q3 3 7.5 8t19.5 17.5t30.5 22.5t39 19t46.5 10
zM421 261q10 73 -21 113.5t-95 29.5q-44 -8 -72 -47.5t-36 -96.5q-9 -67 5.5 -104.5t64.5 -48.5q24 -4 43.5 -1t35.5 14t28.5 26t22 34.5t15.5 39.5t9 41z" />
    <glyph glyph-name="c" unicode="c" horiz-adv-x="548" 
d="M261 110q67 -5 101 43l3 4l120 -50q-2 -5 -7.5 -13t-26 -29t-45.5 -36.5t-69 -27.5t-94 -10q-82 4 -129.5 32.5t-75.5 89.5q-13 37 -13.5 86.5t14.5 106t45 99.5q78 111 237 110q51 0 91.5 -14t61.5 -34t35 -39.5t18 -33.5l3 -13l-136 -46q0 3 -1 7t-6.5 14.5t-13 18.5
t-22.5 15.5t-33 8.5q-57 4 -94 -35.5t-46 -103.5q-10 -67 13.5 -106.5t69.5 -43.5z" />
    <glyph glyph-name="c" unicode="&#xe7;" horiz-adv-x="548" 
d="M261 110q67 -5 101 43l3 4l120 -50q-2 -5 -7.5 -13t-26 -29t-45.5 -36.5t-69 -27.5t-94 -10q-82 4 -129.5 32.5t-75.5 89.5q-13 37 -13.5 86.5t14.5 106t45 99.5q78 111 237 110q51 0 91.5 -14t61.5 -34t35 -39.5t18 -33.5l3 -13l-136 -46q0 3 -1 7t-6.5 14.5t-13 18.5
t-22.5 15.5t-33 8.5q-57 4 -94 -35.5t-46 -103.5q-10 -67 13.5 -106.5t69.5 -43.5z" />
    <glyph glyph-name="d" unicode="d" horiz-adv-x="623" 
d="M465 698h140l-97 -698l-133 -1h-7l9 67q-20 -25 -53 -46q-32 -19 -72.5 -26t-67.5 -4t-42 9q-61 23 -95.5 85.5t-18.5 171.5q7 57 25 102t42 72.5t50.5 46.5t56.5 27.5t55 11t50 0.5q23 -2 44 -10.5t34.5 -20t24 -22t15.5 -18.5l4 -7q33 229 36 260zM401 261q5 38 0 68
t-22 51t-45 26q-62 11 -104.5 -29.5t-52.5 -114.5q-6 -31 -1.5 -61.5t15.5 -54t36.5 -34.5t61.5 -4q53 12 78 49t34 104z" />
    <glyph glyph-name="e" unicode="e" horiz-adv-x="550" 
d="M521 210h-134h-219q-4 -44 23 -75t68 -31q17 0 32.5 3.5t27 8.5t22 11t17 12.5l11.5 11.5t7 8l2 3l115 -56l-9 -12t-27 -28t-46.5 -35t-69 -27.5t-92.5 -12.5q-155 2 -210 122q-16 35 -17 87.5t15.5 109.5t47.5 96q92 112 230 112q75 0 121 -26.5t72 -84.5
q10 -20 14.5 -48t4.5 -53t-1 -47.5t-3 -35.5zM302 412q-29 0 -54.5 -14t-41.5 -37t-23 -50h209q3 43 -19 72.5t-71 28.5z" />
    <glyph glyph-name="e" unicode="&#xeb;" horiz-adv-x="550" 
d="M521 210h-134h-219q-4 -44 23 -75t68 -31q17 0 32.5 3.5t27 8.5t22 11t17 12.5l11.5 11.5t7 8l2 3l115 -56l-9 -12t-27 -28t-46.5 -35t-69 -27.5t-92.5 -12.5q-155 2 -210 122q-16 35 -17 87.5t15.5 109.5t47.5 96q92 112 230 112q75 0 121 -26.5t72 -84.5
q10 -20 14.5 -48t4.5 -53t-1 -47.5t-3 -35.5zM302 412q-29 0 -54.5 -14t-41.5 -37t-23 -50h209q3 43 -19 72.5t-71 28.5z" />
    <glyph glyph-name="e" unicode="&#xea;" horiz-adv-x="550" 
d="M521 210h-134h-219q-4 -44 23 -75t68 -31q17 0 32.5 3.5t27 8.5t22 11t17 12.5l11.5 11.5t7 8l2 3l115 -56l-9 -12t-27 -28t-46.5 -35t-69 -27.5t-92.5 -12.5q-155 2 -210 122q-16 35 -17 87.5t15.5 109.5t47.5 96q92 112 230 112q75 0 121 -26.5t72 -84.5
q10 -20 14.5 -48t4.5 -53t-1 -47.5t-3 -35.5zM302 412q-29 0 -54.5 -14t-41.5 -37t-23 -50h209q3 43 -19 72.5t-71 28.5z" />
    <glyph glyph-name="e" unicode="&#xe9;" horiz-adv-x="550" 
d="M521 210h-134h-219q-4 -44 23 -75t68 -31q17 0 32.5 3.5t27 8.5t22 11t17 12.5l11.5 11.5t7 8l2 3l115 -56l-9 -12t-27 -28t-46.5 -35t-69 -27.5t-92.5 -12.5q-155 2 -210 122q-16 35 -17 87.5t15.5 109.5t47.5 96q92 112 230 112q75 0 121 -26.5t72 -84.5
q10 -20 14.5 -48t4.5 -53t-1 -47.5t-3 -35.5zM302 412q-29 0 -54.5 -14t-41.5 -37t-23 -50h209q3 43 -19 72.5t-71 28.5z" />
    <glyph glyph-name="e" unicode="&#xe8;" horiz-adv-x="550" 
d="M521 210h-134h-219q-4 -44 23 -75t68 -31q17 0 32.5 3.5t27 8.5t22 11t17 12.5l11.5 11.5t7 8l2 3l115 -56l-9 -12t-27 -28t-46.5 -35t-69 -27.5t-92.5 -12.5q-155 2 -210 122q-16 35 -17 87.5t15.5 109.5t47.5 96q92 112 230 112q75 0 121 -26.5t72 -84.5
q10 -20 14.5 -48t4.5 -53t-1 -47.5t-3 -35.5zM302 412q-29 0 -54.5 -14t-41.5 -37t-23 -50h209q3 43 -19 72.5t-71 28.5z" />
    <glyph glyph-name="f" unicode="f" horiz-adv-x="381" 
d="M356 586q-80 24 -99 -33l-10 -37l101 2l-16 -116l-100 3l-6 -59l-48 -345l-144 -1l49 348l10 57l-72 -2l16 115l72 -2l4 40l1 13q11 77 71 119q18 12 43 20.5t64 11.5t82 -9z" />
    <glyph glyph-name="g" unicode="g" horiz-adv-x="637" 
d="M476 514h143l-67 -479q-35 -253 -329 -253q-87 0 -142 25.5t-74 56.5l101 110q1 -3 4.5 -7.5t14.5 -16.5t24 -21.5t34.5 -17.5t44.5 -9q81 -3 123.5 30t52.5 79q2 8 3.5 16t2 14l1 12t0.5 9v1q-20 -26 -55 -47q-32 -20 -73.5 -26.5t-69 -4t-43.5 8.5q-62 23 -96.5 87
t-19.5 175q10 69 34.5 121t54 80t67 44t68 19.5t61.5 0.5q24 -1 45 -10t35 -20.5t25 -22.5t15 -19l5 -7q6 41 10 72zM437 261q9 59 -8.5 99.5t-60.5 48.5q-41 8 -75.5 -9t-56 -52.5t-27.5 -84.5q-7 -31 -2 -62.5t16 -55.5t37 -35.5t62 -3.5q55 11 80.5 49.5t34.5 105.5z" />
    <glyph glyph-name="h" unicode="h" horiz-adv-x="586" 
d="M550 381q4 -44 -12 -158l-31 -223h-148l36 277q12 79 -9 110.5t-68 26.5q-71 -9 -100 -73q-3 -6 -5 -11t-3.5 -12.5t-3 -12.5t-3 -16.5t-2.5 -17.5t-3.5 -23.5t-3.5 -26.5l-30 -221l-146 1l97 698h142l-37 -263q2 3 6 8.5t18.5 19.5t32 24.5t47 19.5t63.5 9q69 0 113 -33
t50 -103z" />
    <glyph glyph-name="i" unicode="i" horiz-adv-x="252" 
d="M10 0l70 505h144l-73 -505h-141zM108 698h144l-20 -145h-145z" />
    <glyph glyph-name="i" unicode="&#xef;" horiz-adv-x="252" 
d="M10 0l70 505h144l-73 -505h-141zM108 698h144l-20 -145h-145z" />
    <glyph glyph-name="i" unicode="&#xee;" horiz-adv-x="252" 
d="M10 0l70 505h144l-73 -505h-141zM108 698h144l-20 -145h-145z" />
    <glyph glyph-name="i" unicode="&#xed;" horiz-adv-x="252" 
d="M10 0l70 505h144l-73 -505h-141zM108 698h144l-20 -145h-145z" />
    <glyph glyph-name="i" unicode="&#xec;" horiz-adv-x="252" 
d="M10 0l70 505h144l-73 -505h-141zM108 698h144l-20 -145h-145z" />
    <glyph glyph-name="j" unicode="j" horiz-adv-x="295" 
d="M40 19l68 486h151l-72 -491q-6 -47 -24.5 -85t-44 -63t-57.5 -43.5t-66 -25.5t-69 -10t-67 4l20 145q6 -2 15.5 -3.5t35 -0.5t46 7.5t40 27t24.5 52.5zM138 698h148l-20 -144h-148z" />
    <glyph glyph-name="k" unicode="k" horiz-adv-x="580" 
d="M571 506l-251 -230l205 -276h-194l-137 221l-30 -220l-146 -1l97 697h146l-52 -366l175 175h187z" />
    <glyph glyph-name="l" unicode="l" horiz-adv-x="259" 
d="M102 696h149l-97 -696h-149z" />
    <glyph glyph-name="m" unicode="m" horiz-adv-x="894" 
d="M872 379q4 -43 -12 -157l-31 -221h-147l36 275q12 81 -6 114t-66 26q-18 -2 -37.5 -13.5t-36 -30t-23.5 -39.5q-6 -18 -20 -114l-30 -219l-137 1l36 275q11 78 -9 109.5t-64 26.5q-70 -9 -99 -73q-3 -5 -5 -10t-3.5 -12.5t-3 -12.5t-3 -16.5t-2.5 -18t-3 -23t-4 -26.5
l-30 -219h-145l70 504h141l-10 -71q2 3 6 8.5t18.5 19.5t32 24.5t47 19t62.5 8.5q114 0 149 -80h1q2 3 5.5 8.5t18.5 19.5t32 24.5t46.5 19t62.5 8.5q69 0 112.5 -32.5t50.5 -102.5z" />
    <glyph glyph-name="n" unicode="n" horiz-adv-x="585" 
d="M556 379q4 -43 -12 -157l-30 -222h-148l37 276q11 78 -9.5 109.5t-68.5 26.5q-70 -9 -99 -73q-3 -5 -5 -10.5t-3.5 -13l-2.5 -12.5t-3 -16t-3 -17.5t-3 -23.5t-4 -26l-30 -220l-145 1l70 504h141l-10 -71q2 3 6 8.5t18.5 19t32 24.5t47 19.5t62.5 8.5q69 0 112.5 -32.5
t49.5 -102.5z" />
    <glyph glyph-name="n" unicode="&#xf1;" horiz-adv-x="585" 
d="M556 379q4 -43 -12 -157l-30 -222h-148l37 276q11 78 -9.5 109.5t-68.5 26.5q-70 -9 -99 -73q-3 -5 -5 -10.5t-3.5 -13l-2.5 -12.5t-3 -16t-3 -17.5t-3 -23.5t-4 -26l-30 -220l-145 1l70 504h141l-10 -71q2 3 6 8.5t18.5 19t32 24.5t47 19.5t62.5 8.5q69 0 112.5 -32.5
t49.5 -102.5z" />
    <glyph glyph-name="o" unicode="o" horiz-adv-x="577" 
d="M318 521q127 0 189.5 -76t45.5 -190q-5 -37 -16 -70.5t-34 -70t-55 -62.5t-82.5 -43.5t-112.5 -18.5q-52 -1 -95.5 15t-76 47t-48 82.5t-7.5 115.5q6 56 28.5 103t53 77t68.5 51.5t73.5 30.5t68.5 9zM402 259q11 79 -16.5 121.5t-82.5 40.5q-32 -1 -59 -20.5t-44 -52
t-22 -74.5q-10 -71 10.5 -120.5t71.5 -49.5q62 0 96.5 38t45.5 117z" />
    <glyph glyph-name="o" unicode="&#xf8;" horiz-adv-x="577" 
d="M318 521q127 0 189.5 -76t45.5 -190q-5 -37 -16 -70.5t-34 -70t-55 -62.5t-82.5 -43.5t-112.5 -18.5q-52 -1 -95.5 15t-76 47t-48 82.5t-7.5 115.5q6 56 28.5 103t53 77t68.5 51.5t73.5 30.5t68.5 9zM402 259q11 79 -16.5 121.5t-82.5 40.5q-32 -1 -59 -20.5t-44 -52
t-22 -74.5q-10 -71 10.5 -120.5t71.5 -49.5q62 0 96.5 38t45.5 117z" />
    <glyph glyph-name="o" unicode="&#xf6;" horiz-adv-x="577" 
d="M318 521q127 0 189.5 -76t45.5 -190q-5 -37 -16 -70.5t-34 -70t-55 -62.5t-82.5 -43.5t-112.5 -18.5q-52 -1 -95.5 15t-76 47t-48 82.5t-7.5 115.5q6 56 28.5 103t53 77t68.5 51.5t73.5 30.5t68.5 9zM402 259q11 79 -16.5 121.5t-82.5 40.5q-32 -1 -59 -20.5t-44 -52
t-22 -74.5q-10 -71 10.5 -120.5t71.5 -49.5q62 0 96.5 38t45.5 117z" />
    <glyph glyph-name="o" unicode="&#xf5;" horiz-adv-x="577" 
d="M318 521q127 0 189.5 -76t45.5 -190q-5 -37 -16 -70.5t-34 -70t-55 -62.5t-82.5 -43.5t-112.5 -18.5q-52 -1 -95.5 15t-76 47t-48 82.5t-7.5 115.5q6 56 28.5 103t53 77t68.5 51.5t73.5 30.5t68.5 9zM402 259q11 79 -16.5 121.5t-82.5 40.5q-32 -1 -59 -20.5t-44 -52
t-22 -74.5q-10 -71 10.5 -120.5t71.5 -49.5q62 0 96.5 38t45.5 117z" />
    <glyph glyph-name="o" unicode="&#xf4;" horiz-adv-x="577" 
d="M318 521q127 0 189.5 -76t45.5 -190q-5 -37 -16 -70.5t-34 -70t-55 -62.5t-82.5 -43.5t-112.5 -18.5q-52 -1 -95.5 15t-76 47t-48 82.5t-7.5 115.5q6 56 28.5 103t53 77t68.5 51.5t73.5 30.5t68.5 9zM402 259q11 79 -16.5 121.5t-82.5 40.5q-32 -1 -59 -20.5t-44 -52
t-22 -74.5q-10 -71 10.5 -120.5t71.5 -49.5q62 0 96.5 38t45.5 117z" />
    <glyph glyph-name="o" unicode="&#xf3;" horiz-adv-x="577" 
d="M318 521q127 0 189.5 -76t45.5 -190q-5 -37 -16 -70.5t-34 -70t-55 -62.5t-82.5 -43.5t-112.5 -18.5q-52 -1 -95.5 15t-76 47t-48 82.5t-7.5 115.5q6 56 28.5 103t53 77t68.5 51.5t73.5 30.5t68.5 9zM402 259q11 79 -16.5 121.5t-82.5 40.5q-32 -1 -59 -20.5t-44 -52
t-22 -74.5q-10 -71 10.5 -120.5t71.5 -49.5q62 0 96.5 38t45.5 117z" />
    <glyph glyph-name="o" unicode="&#xf2;" horiz-adv-x="577" 
d="M318 521q127 0 189.5 -76t45.5 -190q-5 -37 -16 -70.5t-34 -70t-55 -62.5t-82.5 -43.5t-112.5 -18.5q-52 -1 -95.5 15t-76 47t-48 82.5t-7.5 115.5q6 56 28.5 103t53 77t68.5 51.5t73.5 30.5t68.5 9zM402 259q11 79 -16.5 121.5t-82.5 40.5q-32 -1 -59 -20.5t-44 -52
t-22 -74.5q-10 -71 10.5 -120.5t71.5 -49.5q62 0 96.5 38t45.5 117z" />
    <glyph glyph-name="p" unicode="p" horiz-adv-x="621" 
d="M394 515q31 3 60 -0.5t61.5 -19.5t54 -43t31 -77.5t0.5 -118.5q-15 -109 -66.5 -171.5t-118.5 -84.5q-12 -4 -31.5 -6.5t-45 -2.5t-52.5 7.5t-48 22.5q-12 9 -22 20.5t-14 18.5l-4 7l-36 -259h-7l-138 1l97 695h145l-9 -66q2 3 6.5 7.5t19.5 17.5t31 23t39.5 18.5
t46.5 10.5zM453 263q10 73 -21 113.5t-95 28.5q-44 -7 -71.5 -46.5t-35.5 -97.5q-9 -66 5 -103.5t64 -48.5q34 -8 62 3t46.5 35.5t30 53.5t15.5 62z" />
    <glyph glyph-name="q" unicode="q" horiz-adv-x="594" 
d="M430 504h146l-97 -695l-139 -1h-7l36 259q-19 -25 -53 -46q-31 -20 -72 -26.5t-68 -3.5t-42 9q-60 22 -94.5 84.5t-19.5 171.5q10 68 34 118.5t52.5 77.5t65.5 43t67 19.5t60 0.5q23 -2 44 -10.5t34.5 -19.5t24 -21.5t14.5 -18.5l5 -7q6 36 9 66zM393 261q8 58 -9 97.5
t-58 46.5q-61 12 -103.5 -28.5t-52.5 -113.5q-6 -31 -1.5 -61.5t15.5 -54t36.5 -35t60.5 -3.5q53 11 78 48.5t34 103.5z" />
    <glyph glyph-name="r" unicode="r" horiz-adv-x="476" 
d="M388 508q11 0 22 -1t18.5 -2t14 -3t11 -3.5t7.5 -3l4 -2l1 -0.5l-71 -116q-3 3 -9.5 7t-26.5 8.5t-41 1.5q-71 -12 -99 -72q-2 -6 -4 -10.5t-3.5 -10.5l-2.5 -10t-2.5 -13.5t-2.5 -15t-3 -21.5t-3 -26l-31 -218l-144 1l70 504l141 1l-10 -75q2 3 5.5 8.5t18 19t32 24
t46.5 19.5t62 9z" />
    <glyph glyph-name="s" unicode="s" horiz-adv-x="527" 
d="M354 296q10 -3 16 -4.5t18 -6.5t20.5 -10t20 -13.5t19.5 -17.5t15.5 -22.5t10.5 -28t2.5 -34t-5.5 -40.5q-12 -54 -66 -87.5t-118.5 -40t-128 7.5t-96.5 47q-17 16 -28.5 36.5t-14.5 31.5l-3 12l140 39q1 -2 1.5 -4.5t3.5 -10.5t7.5 -14.5t13.5 -13.5t20 -11q31 -8 63 -8
t55.5 14.5t21.5 39.5q-1 6 -4 11t-8.5 9t-12 7t-14.5 5.5l-16 5t-16.5 4t-16 3t-14.5 3t-12 2.5q-3 1 -22.5 5t-29 6.5t-25.5 7.5t-28.5 12t-22.5 16q-24 21 -34 48.5t-6 54.5t17.5 52.5t33.5 44.5q43 41 111.5 55t125 6t83.5 -27q68 -48 81 -104l-141 -41v5t-2.5 11
t-6.5 15t-14 15t-24 12q-28 5 -57 3t-47.5 -17.5t-10.5 -38.5q2 -6 9 -11t16 -9t23.5 -7.5t28 -6.5t33 -8t35.5 -10z" />
    <glyph glyph-name="s" unicode="&#xdf;" horiz-adv-x="527" 
d="M354 296q10 -3 16 -4.5t18 -6.5t20.5 -10t20 -13.5t19.5 -17.5t15.5 -22.5t10.5 -28t2.5 -34t-5.5 -40.5q-12 -54 -66 -87.5t-118.5 -40t-128 7.5t-96.5 47q-17 16 -28.5 36.5t-14.5 31.5l-3 12l140 39q1 -2 1.5 -4.5t3.5 -10.5t7.5 -14.5t13.5 -13.5t20 -11q31 -8 63 -8
t55.5 14.5t21.5 39.5q-1 6 -4 11t-8.5 9t-12 7t-14.5 5.5l-16 5t-16.5 4t-16 3t-14.5 3t-12 2.5q-3 1 -22.5 5t-29 6.5t-25.5 7.5t-28.5 12t-22.5 16q-24 21 -34 48.5t-6 54.5t17.5 52.5t33.5 44.5q43 41 111.5 55t125 6t83.5 -27q68 -48 81 -104l-141 -41v5t-2.5 11
t-6.5 15t-14 15t-24 12q-28 5 -57 3t-47.5 -17.5t-10.5 -38.5q2 -6 9 -11t16 -9t23.5 -7.5t28 -6.5t33 -8t35.5 -10z" />
    <glyph glyph-name="t" unicode="t" horiz-adv-x="397" 
d="M237 327l-13 -93q-9 -63 -9 -76q0 -17 10.5 -26.5t24.5 -11.5t28.5 -1t24.5 3l11 3l3 -128q-40 -7 -73.5 -8t-58 2t-44 11.5t-32 18.5t-21 24.5t-12.5 28t-5.5 30.5t-0.5 31t3 30v1.5v1.5l24 173l10 52l-78 -3l16 117l77 -1l9 73l12 86l146 29l-17 -115l-12 -73l61 1h55
l-16 -117h-62l-54 2z" />
    <glyph glyph-name="u" unicode="u" horiz-adv-x="585" 
d="M413 503h145l-70 -504h-141l10 71q-2 -3 -6 -8.5t-18.5 -19.5t-32 -24.5t-47 -19t-62.5 -8.5q-69 0 -112.5 32.5t-50.5 102.5q-3 43 13 157l30 221l148 1l-37 -276q-11 -79 9.5 -110t68.5 -26q70 8 99 73q3 5 5 10t3.5 12.5l2.5 12.5t3 16.5t3 18t3 23t4 26.5z" />
    <glyph glyph-name="u" unicode="&#xfc;" horiz-adv-x="585" 
d="M413 503h145l-70 -504h-141l10 71q-2 -3 -6 -8.5t-18.5 -19.5t-32 -24.5t-47 -19t-62.5 -8.5q-69 0 -112.5 32.5t-50.5 102.5q-3 43 13 157l30 221l148 1l-37 -276q-11 -79 9.5 -110t68.5 -26q70 8 99 73q3 5 5 10t3.5 12.5l2.5 12.5t3 16.5t3 18t3 23t4 26.5z" />
    <glyph glyph-name="u" unicode="&#xfb;" horiz-adv-x="585" 
d="M413 503h145l-70 -504h-141l10 71q-2 -3 -6 -8.5t-18.5 -19.5t-32 -24.5t-47 -19t-62.5 -8.5q-69 0 -112.5 32.5t-50.5 102.5q-3 43 13 157l30 221l148 1l-37 -276q-11 -79 9.5 -110t68.5 -26q70 8 99 73q3 5 5 10t3.5 12.5l2.5 12.5t3 16.5t3 18t3 23t4 26.5z" />
    <glyph glyph-name="u" unicode="&#xfa;" horiz-adv-x="585" 
d="M413 503h145l-70 -504h-141l10 71q-2 -3 -6 -8.5t-18.5 -19.5t-32 -24.5t-47 -19t-62.5 -8.5q-69 0 -112.5 32.5t-50.5 102.5q-3 43 13 157l30 221l148 1l-37 -276q-11 -79 9.5 -110t68.5 -26q70 8 99 73q3 5 5 10t3.5 12.5l2.5 12.5t3 16.5t3 18t3 23t4 26.5z" />
    <glyph glyph-name="u" unicode="&#xf9;" horiz-adv-x="585" 
d="M413 503h145l-70 -504h-141l10 71q-2 -3 -6 -8.5t-18.5 -19.5t-32 -24.5t-47 -19t-62.5 -8.5q-69 0 -112.5 32.5t-50.5 102.5q-3 43 13 157l30 221l148 1l-37 -276q-11 -79 9.5 -110t68.5 -26q70 8 99 73q3 5 5 10t3.5 12.5l2.5 12.5t3 16.5t3 18t3 23t4 26.5z" />
    <glyph glyph-name="v" unicode="v" horiz-adv-x="553" 
d="M384 504l158 1l-263 -505h-137l-128 505h162l53 -351z" />
    <glyph glyph-name="w" unicode="w" horiz-adv-x="828" 
d="M675 505l143 -1l-254 -504h-109l-68 312l-158 -312h-108l-110 504l138 1l55 -316l136 316h50h94l54 -315z" />
    <glyph glyph-name="x" unicode="x" horiz-adv-x="578" 
d="M567 506l-204 -255l142 -251h-161l-73 136l-109 -136h-161l213 251l-134 255h167l57 -135l96 135h167z" />
    <glyph glyph-name="y" unicode="y" horiz-adv-x="604" 
d="M434 505h158l-283 -543q-30 -55 -72 -94t-79.5 -54.5t-71.5 -23.5t-54 -8l-20 1l33 150q2 0 5 -1t12.5 -1t19.5 1t24 6t27 13t28.5 22.5t28.5 33.5l-141 498h162l72 -330z" />
    <glyph glyph-name="y" unicode="&#xff;" horiz-adv-x="604" 
d="M434 505h158l-283 -543q-30 -55 -72 -94t-79.5 -54.5t-71.5 -23.5t-54 -8l-20 1l33 150q2 0 5 -1t12.5 -1t19.5 1t24 6t27 13t28.5 22.5t28.5 33.5l-141 498h162l72 -330z" />
    <glyph glyph-name="y" unicode="&#xfd;" horiz-adv-x="604" 
d="M434 505h158l-283 -543q-30 -55 -72 -94t-79.5 -54.5t-71.5 -23.5t-54 -8l-20 1l33 150q2 0 5 -1t12.5 -1t19.5 1t24 6t27 13t28.5 22.5t28.5 33.5l-141 498h162l72 -330z" />
    <glyph glyph-name="z" unicode="z" horiz-adv-x="526" 
d="M509 507l-10 -75l-267 -309l225 3l-17 -125l-425 -1l11 80l267 304l-224 -2l17 125h423z" />
    <glyph glyph-name="braceleft" unicode="{" horiz-adv-x="570" 
d="M342 756q76 36 183 16l-12 -87q-55 13 -96.5 -6t-47.5 -59q-5 -37 -6 -58q-3 -81 -28 -140q-16 -38 -36 -57q-44 -44 -93 -58q41 -12 77 -60q13 -18 19 -58q9 -51 -11 -140q-7 -32 -9 -57q-5 -45 28.5 -64.5t96.5 -3.5l-14 -96q-110 -22 -178 16q-42 23 -55 71t-2 123
q12 84 12 111q1 28 -3 44t-7.5 20t-13.5 12q-25 24 -66 29q-16 2 -35 0q5 28 8 52q4 24 6 50q19 -2 35 0q41 5 74 29q12 8 17 12.5t13.5 21t15.5 43.5q3 13 5.5 25.5t3.5 22t3.5 27.5t5.5 36q6 32 12.5 56.5t19 50t32 45t46.5 31.5z" />
    <glyph glyph-name="braceright" unicode="}" horiz-adv-x="572" 
d="M58 -82q59 -16 98 3.5t46 64.5q5 26 6 57q6 89 29 141q17 39 35 57q50 48 94 60q-45 14 -77 58q-15 19 -20 57q-8 59 11 141q5 21 10 57q6 40 -31 59t-95 6l12 87q114 19 179 -16q44 -24 55 -69.5t4 -112.5q-3 -23 -6 -45.5t-4.5 -36t-2.5 -30.5q0 -27 4 -43.5t7.5 -21
t13.5 -12.5q26 -24 65 -29q16 -2 35 0q-5 -27 -8 -50q-3 -24 -6 -52q-19 2 -35 0q-43 -5 -74 -29q-12 -8 -16.5 -12t-13 -20t-15.5 -43q-8 -28 -19 -112q-10 -75 -36 -123t-75 -71q-79 -38 -183 -16z" />
    <glyph glyph-name="asciitilde" unicode="~" horiz-adv-x="606" 
d="M438 372q57 -1 123 59l-24 -158q-5 -5 -15 -11.5t-41 -17t-61 -10.5q-43 0 -125.5 33t-126.5 33q-29 0 -60 -16t-47 -33l-16 -16q2 19 9.5 74.5t9.5 76.5q1 2 3.5 4t9.5 8.5t14.5 12t18.5 12.5t22.5 12t26 8.5t28.5 3.5q37 0 81 -18.5t88 -37.5t82 -19z" />
    <glyph glyph-name="nonbreakingspace" unicode="&#xa0;" horiz-adv-x="316" 
 />
    <glyph glyph-name="cent" unicode="&#xa2;" horiz-adv-x="602" 
d="M334 94q19 5 35 15t22 17l7 8l113 -48q-2 -4 -6.5 -11t-21 -25t-36.5 -32.5t-55 -28.5t-75 -17l-11 -80h-91l11 83q-60 9 -98.5 38t-63.5 80q-12 27 -16.5 62t-0.5 74t20 80t43 75q74 92 188 107l12 82h90l-11 -82q41 -5 73 -20.5t49 -34t28 -36t14 -28.5l4 -12l-129 -43
q-1 2 -2 4.5t-5.5 10.5t-10 14.5t-15.5 14t-23 12.5zM244 103l37 265q-35 -16 -59 -49.5t-31 -77.5q-7 -49 8 -85t45 -53z" />
    <glyph glyph-name="sterling" unicode="&#xa3;" horiz-adv-x="640" 
d="M305 105q79 0 111 6.5t49 33.5l114 -46q-37 -60 -91.5 -80.5t-171.5 -20.5h-247q-8 9 -10 13q-16 24 -14 84q3 85 88 137q3 1 10.5 5t13 8t8.5 7h-98l12 83h94q-1 3 -30 31q-35 35 -46.5 76.5t-1.5 80t29.5 72t47.5 59.5t70 43.5t88 24.5t92 -0.5t83.5 -27.5t62 -60.5
t26.5 -95.5l-123 -16q0 32 -13 55q-16 31 -45.5 40.5t-73.5 5.5q-35 -3 -64 -21t-44.5 -43t-18.5 -54t16 -55q6 -8 16 -19t18.5 -21t17.5 -21.5t15.5 -25.5t10.5 -28h123l-12 -83h-117q-14 -32 -62 -71q-5 -4 -20 -13.5t-24 -16.5t-16 -19.5t-5 -26.5h132z" />
    <glyph glyph-name="AE" unicode="&#xc6;" horiz-adv-x="1164" 
d="M693 125h346l-17 -123h-488v2l19 137h-236l-115 -141h-157l586 698h488l-18 -128l-347 -1l-20 -148h264l-18 -120l-263 -1zM572 270l30 213l-1 -1l-168 -212h139z" />
    <glyph glyph-name="ae" unicode="&#xe6;" horiz-adv-x="921" 
d="M870 218l-134 1h-220q-2 -29 10 -54t33.5 -38.5t47.5 -13.5q17 0 33 3t27.5 8.5t21.5 11.5t17 12t11.5 11.5t7.5 8.5l2 3l114 -56q-3 -5 -8.5 -12.5t-26.5 -27.5t-46.5 -35.5t-69 -27.5t-93.5 -12q-68 1 -111.5 23t-61.5 54q-72 -76 -196 -76q-94 0 -137 30
q-48 34 -46 103q3 73 59 122q49 41 144 49q11 1 30 2q24 2 34.5 3t27 3t23.5 4t16.5 5.5t15 8t9.5 11.5q7 9 8.5 22t-4.5 26q-7 12 -28.5 19.5t-46.5 8t-49.5 -14.5t-36.5 -44l-133 32q50 134 240 134q104 0 153 -43q71 44 157 44q75 0 121 -26.5t72 -83.5q9 -20 14 -48
t5 -53.5t-1 -47.5t-3 -35zM350 135q22 17 32.5 42.5t14.5 70.5q-20 -13 -60.5 -17t-76 -11t-50.5 -28q-20 -28 -8.5 -53t46.5 -31q22 -3 50.5 4t51.5 23zM532 319h209q3 43 -19 72.5t-71 29.5q-44 0 -76 -29.5t-43 -72.5z" />
    <glyph glyph-name="divide" unicode="&#xf7;" horiz-adv-x="533" 
d="M60 373h428l-15 -109h-428zM180 90l16 113h109l-16 -113h-109zM353 548l-16 -114h-109l16 114h109z" />
    <glyph glyph-name="quoteleft" unicode="&#x2018;" horiz-adv-x="254" 
d="M167 556h42l-20 -144h-144l20 144l62 144h60z" />
    <glyph glyph-name="quoteright" unicode="&#x2019;" horiz-adv-x="254" 
d="M65 700h144l-20 -145l-62 -143h-60l20 143h-42z" />
    <glyph glyph-name="quotedblleft" unicode="&#x201c;" horiz-adv-x="430" 
d="M187 700l-20 -144h42l-20 -144h-144l20 144l62 144h60zM343 556h42l-20 -144h-144l20 144l62 144h60z" />
    <glyph glyph-name="quotedblright" unicode="&#x201d;" horiz-adv-x="430" 
d="M45 555l20 145h144l-20 -145l-62 -143h-60l20 143h-42zM241 700h144l-20 -145l-62 -143h-60l20 143h-42z" />
    <glyph glyph-name="Euro" unicode="&#x20ac;" horiz-adv-x="648" 
d="M488 581q-136 -4 -191 -134h272q-4 -11 -11 -34.5t-11 -35.5h-270q-3 -11 -5 -29q-1 -6 -2 -21h265q-14 -42 -22 -70h-242q3 -22 9 -41.5t18.5 -38.5t30 -32.5t44 -22t60.5 -8.5q51 0 92 17l-19 -133q-45 -10 -95 -10q-131 0 -208 69t-82 200h-76q8 28 22 70h56
q1 11 4 35q1 4 3 15h-68q8 29 21 70h65q43 123 140 190t220 66q51 0 95 -12l-18 -131q-39 24 -97 21z" />
    </font>
</defs>
</svg>
