<?xml version="1.0" standalone="no"?>
<!DOCTYPE svg PUBLIC "-//W3C//DTD SVG 1.1//EN" "http://www.w3.org/Graphics/SVG/1.1/DTD/svg11.dtd" >
<svg xmlns="http://www.w3.org/2000/svg" xmlns:xlink="http://www.w3.org/1999/xlink" version="1.1">
<metadata>
Created by FontForge 20170731 at Mon Nov 13 06:42:52 2017
 By Aleksey,,,
</metadata>
<defs>
<font id="AndersonGroteskLight" horiz-adv-x="177" >
  <font-face 
    font-family="Anderson Grotesk Light"
    font-weight="400"
    font-stretch="normal"
    units-per-em="1000"
    panose-1="0 0 0 0 0 0 0 0 0 0"
    ascent="800"
    descent="-200"
    x-height="504"
    cap-height="697"
    bbox="-67 -223.143 1083 779"
    underline-thickness="50"
    underline-position="-200"
    unicode-range="U+000A-F00F"
  />
<missing-glyph horiz-adv-x="455" 
 />
    <glyph glyph-name=".notdef" horiz-adv-x="455" 
 />
    <glyph glyph-name=".notdef" horiz-adv-x="455" 
 />
    <glyph glyph-name=".null" horiz-adv-x="0" 
 />
    <glyph glyph-name="nonmarkingreturn" horiz-adv-x="333" 
 />
    <glyph glyph-name="LF" unicode="&#xa;" horiz-adv-x="0" 
 />
    <glyph glyph-name="controlCR" unicode="&#xd;" horiz-adv-x="0" 
 />
    <glyph glyph-name="space" unicode=" " horiz-adv-x="270" 
 />
    <glyph glyph-name="exclam" unicode="!" 
d="M66 93h44v-93h-44v93zM66 698h45v-220l-5 -291h-35l-5 291v220z" />
    <glyph glyph-name="quotedbl" unicode="&#x22;" horiz-adv-x="249" 
d="M66 578v118h44v-118l-6 -118h-31zM139 696h44v-118l-6 -118h-31l-7 118v118z" />
    <glyph glyph-name="numbersign" unicode="#" horiz-adv-x="855" 
d="M785 457h-201l-19 -226h201l-3 -39h-202l-16 -192h-39l16 192h-225l-17 -192h-39l17 192h-192l3 39h192l19 226h-192l4 39h192l17 201h39l-18 -201h226l17 201h39l-17 -201h202zM526 231l19 226h-226l-19 -226h226z" />
    <glyph glyph-name="dollar" unicode="$" horiz-adv-x="638" 
d="M572 183q3 -59 -29 -104t-82 -67t-111 -26v-84h-44v83q-112 6 -173 67q-27 26 -45 56.5t-22 54.5l50 5q1 -5 3.5 -13t14 -29.5t26.5 -39t43.5 -34t62.5 -21.5q19 -3 40 -4v301q-6 1 -8 2q-10 1 -34 5.5t-32 6.5t-25.5 6.5t-26 8.5t-20.5 10.5t-23 14.5q-49 38 -58 94.5
t16 106.5t70 77q59 36 141 40v79h44v-79q80 -5 138.5 -47.5t74.5 -124.5l-46 -5q-2 35 -28 74q-18 26 -55 44.5t-84 22.5v-297q37 -7 61 -13q153 -38 161 -171zM157 429q21 -23 56.5 -34t92.5 -21v290q-41 -3 -80 -17q-47 -17 -75 -55.5t-27 -83.5t33 -79zM350 27
q62 4 104 30t56.5 60.5t10 72.5t-28.5 66q-37 44 -142 64v-293z" />
    <glyph glyph-name="percent" unicode="%" horiz-adv-x="858" 
d="M202 723q68 0 102 -43.5t34 -119.5q0 -68 -34 -116t-102 -48q-45 0 -76 21.5t-45.5 57t-14.5 81.5q0 167 136 167zM202 429q45 0 70.5 36t25.5 107q0 64 -26 93t-70 29q-42 0 -69 -31.5t-27 -90.5q0 -143 96 -143zM656 336q68 0 102 -44t34 -120q0 -68 -34 -116t-102 -48
q-66 0 -101 44.5t-35 115.5q0 168 136 168zM656 41q45 0 70.5 36t25.5 108q0 43 -12.5 70.5t-33.5 39t-50 11.5q-42 0 -69 -31.5t-27 -89.5q0 -144 96 -144zM607 715h49l-419 -715h-49z" />
    <glyph glyph-name="ampersand" unicode="&#x26;" horiz-adv-x="719" 
d="M535 125l119 -126h-63l-79 88q-36 -52 -103 -82.5t-142 -25.5t-128 51q-34 30 -53.5 69t-19.5 80.5t16.5 81t56 75t96.5 59.5q-48 61 -68 88q-33 46 -34.5 95.5t31.5 87t93 49.5q66 13 122.5 -15t70.5 -90q18 -78 -46 -152q-15 -17 -40.5 -36t-44.5 -29l-18 -10l205 -226
q16 27 27.5 62t14.5 56l2 20l42 -19q-2 -9 -5 -24.5t-17.5 -55.5t-34.5 -71zM180 546q13 -38 96 -133q67 32 98 69t37 75.5t-10 66.5t-46 44.5t-66 14.5q-61 -4 -93.5 -45t-15.5 -92zM162 67q35 -38 94.5 -47t123 17t105.5 83l-224 245q-65 -25 -102.5 -64.5t-44.5 -80.5
t5.5 -81t42.5 -72z" />
    <glyph glyph-name="quotesingle" unicode="'" 
d="M66 696h44v-118l-5 -118h-32l-7 118v118z" />
    <glyph glyph-name="parenleft" unicode="(" horiz-adv-x="330" 
d="M264 766q-144 -193 -144 -467q0 -261 144 -463h-48q-150 196 -150 463q2 270 150 467h48z" />
    <glyph glyph-name="parenright" unicode=")" horiz-adv-x="330" 
d="M114 762q149 -198 150 -467q0 -267 -150 -463h-48q144 202 144 463q0 274 -144 467h48z" />
    <glyph glyph-name="asterisk" unicode="*" horiz-adv-x="480" 
d="M414 552v-65l-126 13l98 -79l-44 -44l-86 100l16 -130h-61l6 129l-80 -99l-43 44l100 80l-128 -12v64l127 -8l-95 80l40 41l79 -92l-6 121h59l-8 -121l78 93l44 -43l-93 -80z" />
    <glyph glyph-name="plus" unicode="+" horiz-adv-x="472" 
d="M253 295h152v-43h-152v-148h-42v148h-145v43h145v148h42v-148z" />
    <glyph glyph-name="comma" unicode="," horiz-adv-x="188" 
d="M78 97h44v-96l-14 -97h-42l12 97v96z" />
    <glyph glyph-name="hyphen" unicode="-" horiz-adv-x="414" 
d="M376 252h-339v42h339v-42z" />
    <glyph glyph-name="period" unicode="." 
d="M66 93h45v-97h-45v97z" />
    <glyph glyph-name="slash" unicode="/" horiz-adv-x="385" 
d="M271 728h47l-205 -729h-47z" />
    <glyph glyph-name="zero" unicode="0" horiz-adv-x="670" 
d="M335 705q90 0 151.5 -45.5t89 -124.5t27.5 -187q0 -56 -9 -107t-30 -97.5t-52 -80.5t-76.5 -54t-100.5 -20q-88 0 -150 47t-90.5 124.5t-28.5 178.5q0 366 269 366zM335 32q106 0 165 85t59 258q0 63 -12 113t-32.5 83t-50 54.5t-63 30.5t-73.5 9q-98 0 -157.5 -74
t-59.5 -216q0 -343 224 -343z" />
    <glyph glyph-name="one" unicode="1" horiz-adv-x="283" 
d="M174 697h43v-697h-46v595q-5 -11 -17 -21q-27 -22 -88 -25v39q52 0 80 31.5t28 77.5z" />
    <glyph glyph-name="two" unicode="2" horiz-adv-x="616" 
d="M119 42l47 1l384 3v-46h-378h-72h-34q0 127 83 200q31 29 87.5 61.5t104 56t90.5 53t55 54.5q22 38 18.5 79.5t-22 76t-57.5 58.5t-89 28q-75 5 -125 -20t-75 -65q-10 -15 -15.5 -32.5t-6.5 -27.5l-1 -9l-47 6q13 65 53 110.5t92.5 63t107.5 18t103.5 -19.5t76.5 -54
q15 -18 26 -40.5t19 -51t5.5 -62t-16.5 -66.5q-17 -39 -62.5 -75t-94 -59t-107 -55t-90.5 -61q-36 -33 -50 -72q-8 -26 -10 -53z" />
    <glyph glyph-name="three" unicode="3" horiz-adv-x="624" 
d="M425 359q6 -1 14.5 -5t31.5 -18.5t40 -33t31.5 -51t14.5 -70.5q0 -25 -6.5 -48.5t-19.5 -45.5t-34 -40t-48.5 -31.5t-65.5 -21.5t-82 -8q-84 0 -145 38.5t-78 101.5l52 10q10 -43 51.5 -74.5t120.5 -31.5q38 0 72.5 8t66.5 25t50.5 49.5t17.5 75.5q-1 49 -32.5 89
t-94.5 55q-23 5 -49.5 7.5t-41.5 1.5h-15v44q63 -4 108 6q58 12 85 50t27 78q-2 70 -53.5 108t-131.5 38q-90 0 -141.5 -45t-53.5 -109l-50 6q7 50 29.5 87.5t56.5 59t74 32t86 10.5q107 0 169 -52.5t62 -140.5q0 -23 -6.5 -44t-17 -36t-23 -28t-25 -21t-23 -14t-16.5 -8z
" />
    <glyph glyph-name="four" unicode="4" horiz-adv-x="648" 
d="M467 233h114v-44h-114v-189h-48v189h-353v41l353 467h48v-464zM419 233v395l-299 -395h299z" />
    <glyph glyph-name="five" unicode="5" horiz-adv-x="621" 
d="M551 278q4 -24 4 -45v-2q0 -56 -17 -102v-0.5t-1 -0.5q0 -1 -1 -2v-3l-2 -4q0 -1 -0.5 -2l-0.5 -1l-1 -2q-2 -2 -3 -6l-1 -1q0 -1 -1 -2.5t-2 -2.5v-1l-1 -1t-1 -2v-1l-1 -2q-1 0 -1.5 -1t-0.5 -2q-25 -40 -83.5 -73.5t-140.5 -32.5q-165 1 -230 115q22 9 32 13q2 0 14 6
q53 -98 184 -92q104 5 156.5 59.5t52.5 142.5q0 90 -56 151t-154 58q-57 -1 -104 -29.5t-75 -75.5q-3 1 -6.5 2.5t-7 3.5t-5.5 2l-15 6l-10 5l18 344h423v-40h-384l-14 -272q17 34 44 51q31 21 59 31.5t75 12.5h12q58 2 116 -25q16 -7 30 -16q40 -26 73 -81q18 -29 27 -80z
" />
    <glyph glyph-name="six" unicode="6" horiz-adv-x="655" 
d="M585 278q4 -24 4 -45v-1q0 -56 -17 -101v-1v-1l-1 -2q0 -1 -1 -2q-1 -3 -2 -4q0 -1 -0.5 -2t-0.5 -2q-1 -1 -1 -2q-1 -1 -3 -6q-1 -1 -2 -3t-1 -3l-0.5 -0.5l-0.5 -0.5l-1 -2q0 -1 -0.5 -2t-1.5 -1v-1q-1 -1 -1 -2q-24 -40 -81 -73t-137 -32q-65 0 -113 18t-84.5 57.5
t-55 108t-18.5 165.5q0 366 269 366q35 0 65.5 -7t50.5 -18.5t36 -26t25 -28.5t15 -25.5t7 -18.5l2 -8l-46 -11q-1 4 -3.5 11.5t-13.5 26t-27 32.5t-47 25.5t-69 11.5q-80 1 -133 -51t-71 -134q-12 -52 -17 -119q-1 -11 3 -55q3 27 24 59q12 19 23.5 32.5t35 33t59.5 31
t80 13.5h12q56 2 113 -25q15 -7 29 -16q38 -25 71 -80q17 -28 26 -79zM337 30q101 5 152 59t51 142q0 86 -56 144.5t-147 58.5q-84 0 -144 -59.5t-60 -143.5q0 -90 52.5 -147.5t151.5 -53.5z" />
    <glyph glyph-name="seven" unicode="7" horiz-adv-x="611" 
d="M544 703v-48l-258 -654l-56 -1l263 655h-427l1 48h477z" />
    <glyph glyph-name="eight" unicode="8" horiz-adv-x="643" 
d="M428 359q6 -2 16 -5.5t35.5 -17.5t45 -32.5t35.5 -51t16 -70.5q0 -36 -14.5 -69t-43.5 -60.5t-78.5 -44.5t-113.5 -19h-4q-66 2 -116.5 18.5t-80 44t-44.5 60.5t-15 70q0 28 8.5 52.5t21.5 42t29 31.5t32 23t29.5 15t21.5 8l8 3q-5 1 -14 5t-32.5 17.5t-41.5 29.5
t-32.5 44.5t-14.5 60.5q0 56 28.5 99.5t83.5 68t129 24.5h3h1q110 -1 173 -53.5t63 -138.5q0 -24 -7.5 -45t-19.5 -36t-26.5 -28t-28.5 -21t-26 -14t-19 -8zM130 540q-6 -41 17.5 -80.5t73.5 -61.5q41 -19 103 -19q65 2 100 19q49 22 73.5 62t16.5 80q-12 56 -60.5 93.5
t-131.5 37.5h-1q-57 -1 -99.5 -20t-64.5 -47.5t-27 -63.5zM325 28q97 1 155.5 44.5t53.5 114.5q-3 35 -30 73.5t-69 55.5q-46 20 -109 19q-60 0 -114 -21q-29 -12 -51 -35t-33 -46.5t-13 -45.5q-5 -71 52.5 -114t157.5 -45z" />
    <glyph glyph-name="nine" unicode="9" horiz-adv-x="655" 
d="M70 415q-4 24 -4 45v2q0 55 17 101v1q0 1 1 2q0 1 1 3l2 4l0.5 1t0.5 2l1 2l3 6q1 1 2 3l1 3v1q1 0 1.5 1t0.5 2l1 1t1 2l0.5 1t0.5 2q24 39 81 72t137 32q65 0 113 -17.5t84.5 -57t55 -108t18.5 -166.5q0 -366 -269 -366q-48 0 -87 13.5t-59 33t-33.5 39t-17.5 32.5
l-4 14l46 12q1 -5 3.5 -12t13.5 -25.5t27 -32.5t47 -26t69 -12q80 0 133 51.5t71 134.5q12 51 17 119q1 10 -2 54q-3 -26 -25 -59q-9 -14 -17 -24.5t-25.5 -27t-37.5 -27.5t-51 -20t-67 -10h-12q-56 -2 -113 24q-15 7 -29 16q-38 26 -71 80q-17 29 -26 79zM318 663
q-68 -3 -114.5 -30t-67.5 -70t-21 -100q0 -87 56 -145.5t147 -58.5q84 0 144 59.5t60 144.5q0 90 -52.5 147.5t-151.5 52.5z" />
    <glyph glyph-name="colon" unicode=":" 
d="M111 -2h-45v97h45v-97zM111 406h-45v97h45v-97z" />
    <glyph glyph-name="semicolon" unicode=";" horiz-adv-x="188" 
d="M122 409h-44v97h44v-97zM78 1v96h44v-96l-14 -97h-42z" />
    <glyph glyph-name="less" unicode="&#x3c;" horiz-adv-x="639" 
d="M572 437l-455 -169v-4l455 -168v-51l-506 194v57l506 193v-52z" />
    <glyph glyph-name="equal" unicode="=" horiz-adv-x="472" 
d="M405 335h-339v42h339v-42zM405 161h-339v43h339v-43z" />
    <glyph glyph-name="greater" unicode="&#x3e;" horiz-adv-x="639" 
d="M66 492l506 -193v-57l-506 -194v51l455 168v4l-455 169v52z" />
    <glyph glyph-name="question" unicode="?" horiz-adv-x="557" 
d="M279 95h46v-95h-46v95zM443 653q17 -17 29.5 -42t16.5 -55t0 -60.5t-22 -61t-48 -52.5q-5 -4 -19 -14t-20 -15t-17.5 -16t-16.5 -23t-11 -29.5t-8 -41t-2 -52.5h-46q-1 53 8.5 93t26.5 63t33 37t36 27t28 22q28 30 32.5 72t-9 76.5t-34.5 53.5q-32 29 -82.5 37
t-102.5 -12.5t-81 -67.5q-7 -12 -12.5 -29.5t-7.5 -28.5l-2 -11l-46 6q8 60 41 102t78 59.5t93.5 20t92.5 -13.5t72 -44z" />
    <glyph glyph-name="at" unicode="@" horiz-adv-x="985" 
d="M743 647q63 -46 104.5 -114t57 -142.5t14 -150.5t-20.5 -147q-11 -41 -39.5 -68.5t-62.5 -34.5t-67.5 0t-57 36t-27.5 72q-2 -6 -6 -13q-14 -27 -32 -44q-60 -55 -131 -55q-29 0 -56.5 6t-59 23.5t-55 45t-39.5 76.5t-16 112q0 62 14.5 110t37.5 77t54 47t61.5 23.5
t62.5 4.5q77 -5 130 -58q20 -19 27 -34l8 -22v103h48v-324q0 -75 9 -101q9 -22 26.5 -32.5t35.5 -9t34 8t25 14.5q25 24 35.5 60.5t13.5 90.5q4 82 -8 153t-55 146q-104 175 -319 175q-177 0 -279 -126.5t-95 -339.5q4 -107 45 -191t108 -134q48 -37 116.5 -49t132.5 -1
t111 40l20 -41q-8 -6 -24.5 -14t-68 -21t-104.5 -13q-59 0 -111 14.5t-99 45t-84.5 83t-60.5 124.5q-18 53 -26 118t-0.5 141.5t32 145.5t79.5 130t136 95q62 26 135 33t151.5 -11t139.5 -63zM477 26q14 0 29 3t32 11t32.5 19.5t30 29.5t25 40.5t17 53.5t6.5 67
q0 43 -10.5 80t-27 62.5t-38 44t-44.5 28t-46 10.5q-81 5 -131 -54.5t-50 -170.5q0 -224 175 -224z" />
    <glyph glyph-name="A" unicode="A" horiz-adv-x="680" 
d="M365 697l286 -696l-51 -1l-88 220h-347l-88 -220l-48 1l286 696h50zM182 262h313l-155 393z" />
    <glyph glyph-name="A" unicode="&#xc5;" horiz-adv-x="680" 
d="M365 697l286 -696l-51 -1l-88 220h-347l-88 -220l-48 1l286 696h50zM182 262h313l-155 393z" />
    <glyph glyph-name="A" unicode="&#xc4;" horiz-adv-x="680" 
d="M365 697l286 -696l-51 -1l-88 220h-347l-88 -220l-48 1l286 696h50zM182 262h313l-155 393z" />
    <glyph glyph-name="A" unicode="&#xc3;" horiz-adv-x="680" 
d="M365 697l286 -696l-51 -1l-88 220h-347l-88 -220l-48 1l286 696h50zM182 262h313l-155 393z" />
    <glyph glyph-name="A" unicode="&#xc2;" horiz-adv-x="680" 
d="M365 697l286 -696l-51 -1l-88 220h-347l-88 -220l-48 1l286 696h50zM182 262h313l-155 393z" />
    <glyph glyph-name="A" unicode="&#xc1;" horiz-adv-x="680" 
d="M365 697l286 -696l-51 -1l-88 220h-347l-88 -220l-48 1l286 696h50zM182 262h313l-155 393z" />
    <glyph glyph-name="A" unicode="&#xc0;" horiz-adv-x="680" 
d="M365 697l286 -696l-51 -1l-88 220h-347l-88 -220l-48 1l286 696h50zM182 262h313l-155 393z" />
    <glyph glyph-name="B" unicode="B" horiz-adv-x="638" 
d="M429 372q3 0 9.5 -1.5t24 -7.5t33.5 -14.5t35 -24.5t33 -36t23 -49.5t8 -63.5q-2 -60 -42.5 -109t-118.5 -60q-46 -6 -133 -6h-169h-66v697h207q98 -1 140 -12q125 -34 125 -161q0 -33 -11 -61t-27.5 -44t-32.5 -27t-27 -16zM112 658v-269h79h41q17 0 60 0.5t48 0.5
q75 0 116 35.5t41 101.5q0 21 -4 38t-18 36t-37.5 32t-65.5 20.5t-99 6.5zM299 39q75 -2 125 7.5t77 30.5t38 49t11 68q0 27 -10 52t-31.5 49t-63.5 38.5t-99 14.5l-162 -1h-72v-308h147h40z" />
    <glyph glyph-name="C" unicode="C" horiz-adv-x="668" 
d="M351 25q32 0 60.5 4.5t49.5 13t39 19t30.5 22.5t22 23.5t15 22t9.5 19t5 13.5l2 4l46 -12q-1 -2 -2 -5.5t-5.5 -15t-11 -23t-18 -26.5t-25.5 -28t-35.5 -26t-46 -22.5t-58.5 -15.5t-72 -6q-96 0 -167 42t-111 125.5t-40 201.5q0 83 23.5 150t66 110t100 66t125.5 23
q48 0 89 -10t68 -25.5t48.5 -34.5t33 -38t19 -34.5t10.5 -25.5l2 -9l-44 -7q-1 6 -4 16t-19 35.5t-39 45t-67.5 35.5t-100.5 16q-54 0 -101 -19.5t-83.5 -57t-57.5 -98.5t-21 -139q0 -84 22 -149t60 -103.5t84 -57.5t99 -19z" />
    <glyph glyph-name="C" unicode="&#xc7;" horiz-adv-x="668" 
d="M351 25q32 0 60.5 4.5t49.5 13t39 19t30.5 22.5t22 23.5t15 22t9.5 19t5 13.5l2 4l46 -12q-1 -2 -2 -5.5t-5.5 -15t-11 -23t-18 -26.5t-25.5 -28t-35.5 -26t-46 -22.5t-58.5 -15.5t-72 -6q-96 0 -167 42t-111 125.5t-40 201.5q0 83 23.5 150t66 110t100 66t125.5 23
q48 0 89 -10t68 -25.5t48.5 -34.5t33 -38t19 -34.5t10.5 -25.5l2 -9l-44 -7q-1 6 -4 16t-19 35.5t-39 45t-67.5 35.5t-100.5 16q-54 0 -101 -19.5t-83.5 -57t-57.5 -98.5t-21 -139q0 -84 22 -149t60 -103.5t84 -57.5t99 -19z" />
    <glyph glyph-name="D" unicode="D" horiz-adv-x="690" 
d="M285 696q57 0 105 -7t98.5 -30.5t85 -61t56.5 -103.5t22 -154q0 -77 -19 -136.5t-51.5 -97.5t-82 -62t-106 -34t-126.5 -10h-201v696h219zM250 45q42 0 75 2t71.5 9.5t66.5 20.5t56 36t45.5 54.5t28 78t10.5 105.5q0 73 -18.5 128t-48 88t-73 54t-87 28.5t-96.5 7.5h-169
l-1 -304v-5l1 -303h139z" />
    <glyph glyph-name="E" unicode="E" horiz-adv-x="588" 
d="M522 655l-410 -1v-270l376 1l-1 -41l-376 -1v-300h411v-43h-372h-84v697h456v-42z" />
    <glyph glyph-name="E" unicode="&#xcb;" horiz-adv-x="588" 
d="M522 655l-410 -1v-270l376 1l-1 -41l-376 -1v-300h411v-43h-372h-84v697h456v-42z" />
    <glyph glyph-name="E" unicode="&#xca;" horiz-adv-x="588" 
d="M522 655l-410 -1v-270l376 1l-1 -41l-376 -1v-300h411v-43h-372h-84v697h456v-42z" />
    <glyph glyph-name="E" unicode="&#xc9;" horiz-adv-x="588" 
d="M522 655l-410 -1v-270l376 1l-1 -41l-376 -1v-300h411v-43h-372h-84v697h456v-42z" />
    <glyph glyph-name="E" unicode="&#xc8;" horiz-adv-x="588" 
d="M522 655l-410 -1v-270l376 1l-1 -41l-376 -1v-300h411v-43h-372h-84v697h456v-42z" />
    <glyph glyph-name="F" unicode="F" horiz-adv-x="588" 
d="M111 0h-45v697h456v-42l-410 -1v-270l376 1l-1 -41l-376 -1v-343z" />
    <glyph glyph-name="G" unicode="G" horiz-adv-x="674" 
d="M625 347l1 -348h-35l-7 76l-1 37q-2 -3 -4.5 -8.5t-4.5 -10t-4.5 -9.5t-4.5 -8q-66 -89 -209 -89q-146 0 -232 96t-86 272q0 166 87.5 257.5t228.5 91.5q42 0 78.5 -9.5t61.5 -24.5t45.5 -33t33 -36.5t20.5 -33.5t11 -25l3 -9l-41 -14q-2 6 -5.5 16t-20 36t-38.5 46
t-64.5 36t-94.5 16q-111 0 -182.5 -84.5t-71.5 -230.5q0 -68 14 -123t38 -92.5t57.5 -62.5t72 -36.5t81.5 -11.5q150 0 210 108q14 26 18 48l-1 123l-197 1v39h243z" />
    <glyph glyph-name="H" unicode="H" horiz-adv-x="670" 
d="M557 696h47v-696h-46v82v260l-223 1l-220 -1v-260v-82h-49v696h50v-308h441v308z" />
    <glyph glyph-name="I" unicode="I" horiz-adv-x="179" 
d="M113 0h-47v697h47v-697z" />
    <glyph glyph-name="I" unicode="&#xcf;" horiz-adv-x="179" 
d="M113 0h-47v697h47v-697z" />
    <glyph glyph-name="I" unicode="&#xce;" horiz-adv-x="179" 
d="M113 0h-47v697h47v-697z" />
    <glyph glyph-name="I" unicode="&#xcd;" horiz-adv-x="179" 
d="M113 0h-47v697h47v-697z" />
    <glyph glyph-name="I" unicode="&#xcc;" horiz-adv-x="179" 
d="M113 0h-47v697h47v-697z" />
    <glyph glyph-name="J" unicode="J" horiz-adv-x="467" 
d="M213 -11q-40 0 -73 12t-51 28.5t-30.5 33.5t-16.5 28l-4 12l49 18q1 -3 2.5 -9.5t10 -22t21 -27.5t37.5 -21.5t57 -10.5q31 0 54.5 7t38 21t24 30.5t14 40.5t6 44.5t1.5 48.5v478h48v-495q0 -39 -4.5 -69t-16.5 -58.5t-32 -47.5t-54 -30t-81 -11z" />
    <glyph glyph-name="K" unicode="K" horiz-adv-x="505" 
d="M487 697l-335 -349l335 -348h-67l-308 330v-330h-46v696h46v-332l313 333h62z" />
    <glyph glyph-name="L" unicode="L" horiz-adv-x="561" 
d="M114 42h408v-42h-456v696l46 1z" />
    <glyph glyph-name="M" unicode="M" horiz-adv-x="805" 
d="M699 697l57 -697h-47l-45 614l-247 -614h-30l-262 610l-32 -610h-45l42 697h45l266 -617l247 617h51z" />
    <glyph glyph-name="N" unicode="N" horiz-adv-x="669" 
d="M603 698v-57v-249v-57v-278v-36v-21l-47 1l-1 1l-446 615l-1 -617l-42 1v696h37l1 -1l456 -626l-2 628h45z" />
    <glyph glyph-name="N" unicode="&#xd1;" horiz-adv-x="669" 
d="M603 698v-57v-249v-57v-278v-36v-21l-47 1l-1 1l-446 615l-1 -617l-42 1v696h37l1 -1l456 -626l-2 628h45z" />
    <glyph glyph-name="O" unicode="O" horiz-adv-x="765" 
d="M382 702q107 0 185.5 -45.5t119 -126t40.5 -186.5q0 -162 -95 -260t-250 -98q-161 0 -252.5 91.5t-91.5 266.5q0 87 27 156t74 112.5t109 66.5t134 23zM382 22q61 0 114 21.5t93 61.5t63.5 101t23.5 136q0 73 -23.5 135t-63.5 103.5t-93.5 64.5t-113.5 23
q-48 0 -92 -13.5t-81 -40.5t-64 -65t-42.5 -91t-15.5 -116q0 -156 81.5 -238t213.5 -82z" />
    <glyph glyph-name="O" unicode="&#xd8;" horiz-adv-x="765" 
d="M382 702q107 0 185.5 -45.5t119 -126t40.5 -186.5q0 -162 -95 -260t-250 -98q-161 0 -252.5 91.5t-91.5 266.5q0 87 27 156t74 112.5t109 66.5t134 23zM382 22q61 0 114 21.5t93 61.5t63.5 101t23.5 136q0 73 -23.5 135t-63.5 103.5t-93.5 64.5t-113.5 23
q-48 0 -92 -13.5t-81 -40.5t-64 -65t-42.5 -91t-15.5 -116q0 -156 81.5 -238t213.5 -82z" />
    <glyph glyph-name="O" unicode="&#xd6;" horiz-adv-x="765" 
d="M382 702q107 0 185.5 -45.5t119 -126t40.5 -186.5q0 -162 -95 -260t-250 -98q-161 0 -252.5 91.5t-91.5 266.5q0 87 27 156t74 112.5t109 66.5t134 23zM382 22q61 0 114 21.5t93 61.5t63.5 101t23.5 136q0 73 -23.5 135t-63.5 103.5t-93.5 64.5t-113.5 23
q-48 0 -92 -13.5t-81 -40.5t-64 -65t-42.5 -91t-15.5 -116q0 -156 81.5 -238t213.5 -82z" />
    <glyph glyph-name="O" unicode="&#xd5;" horiz-adv-x="765" 
d="M382 702q107 0 185.5 -45.5t119 -126t40.5 -186.5q0 -162 -95 -260t-250 -98q-161 0 -252.5 91.5t-91.5 266.5q0 87 27 156t74 112.5t109 66.5t134 23zM382 22q61 0 114 21.5t93 61.5t63.5 101t23.5 136q0 73 -23.5 135t-63.5 103.5t-93.5 64.5t-113.5 23
q-48 0 -92 -13.5t-81 -40.5t-64 -65t-42.5 -91t-15.5 -116q0 -156 81.5 -238t213.5 -82z" />
    <glyph glyph-name="O" unicode="&#xd4;" horiz-adv-x="765" 
d="M382 702q107 0 185.5 -45.5t119 -126t40.5 -186.5q0 -162 -95 -260t-250 -98q-161 0 -252.5 91.5t-91.5 266.5q0 87 27 156t74 112.5t109 66.5t134 23zM382 22q61 0 114 21.5t93 61.5t63.5 101t23.5 136q0 73 -23.5 135t-63.5 103.5t-93.5 64.5t-113.5 23
q-48 0 -92 -13.5t-81 -40.5t-64 -65t-42.5 -91t-15.5 -116q0 -156 81.5 -238t213.5 -82z" />
    <glyph glyph-name="O" unicode="&#xd3;" horiz-adv-x="765" 
d="M382 702q107 0 185.5 -45.5t119 -126t40.5 -186.5q0 -162 -95 -260t-250 -98q-161 0 -252.5 91.5t-91.5 266.5q0 87 27 156t74 112.5t109 66.5t134 23zM382 22q61 0 114 21.5t93 61.5t63.5 101t23.5 136q0 73 -23.5 135t-63.5 103.5t-93.5 64.5t-113.5 23
q-48 0 -92 -13.5t-81 -40.5t-64 -65t-42.5 -91t-15.5 -116q0 -156 81.5 -238t213.5 -82z" />
    <glyph glyph-name="O" unicode="&#xd2;" horiz-adv-x="765" 
d="M382 702q107 0 185.5 -45.5t119 -126t40.5 -186.5q0 -162 -95 -260t-250 -98q-161 0 -252.5 91.5t-91.5 266.5q0 87 27 156t74 112.5t109 66.5t134 23zM382 22q61 0 114 21.5t93 61.5t63.5 101t23.5 136q0 73 -23.5 135t-63.5 103.5t-93.5 64.5t-113.5 23
q-48 0 -92 -13.5t-81 -40.5t-64 -65t-42.5 -91t-15.5 -116q0 -156 81.5 -238t213.5 -82z" />
    <glyph glyph-name="P" unicode="P" horiz-adv-x="606" 
d="M573 487q0 -94 -52 -146q-13 -13 -28 -23q0 -1 -1 -1q-34 -22 -70.5 -32t-105.5 -10h-120h-11h-71v-275h-48v696h256q47 1 86.5 -7t66.5 -23.5t46.5 -35.5t30.5 -44.5t16 -48.5t5 -50zM335 318q188 0 188 169q0 73 -49.5 121.5t-142.5 48.5h-217v-338h10z" />
    <glyph glyph-name="Q" unicode="Q" horiz-adv-x="759" 
d="M720 354q0 -108 -44.5 -189.5t-124.5 -124.5l169 13v-53h-332h-9q-160 0 -250.5 91t-90.5 263q0 86 26.5 154.5t73.5 111.5t108.5 66t132.5 23q159 0 250 -97.5t91 -257.5zM379 35q60 0 112.5 21.5t92.5 61t63.5 100.5t23.5 135q0 73 -23.5 134.5t-63.5 102t-93 63
t-112 22.5q-60 0 -112.5 -21t-92.5 -60t-63 -101t-23 -139q0 -155 80 -237t211 -82z" />
    <glyph glyph-name="R" unicode="R" horiz-adv-x="639" 
d="M524 156q11 -31 28.5 -70t30.5 -63t13 -23h-59q-29 59 -62 157q-46 143 -199 145l-79 1h-83l-1 -303h-47v696h239q118 2 172 -31q77 -48 77 -163q0 -79 -41.5 -127t-118.5 -58q83 -24 130 -161zM123 345l184 2q46 0 78.5 6t61 22t42.5 47.5t14 79.5q0 84 -43.5 119.5
t-145.5 35.5h-201l1 -312h9z" />
    <glyph glyph-name="S" unicode="S" horiz-adv-x="593" 
d="M387 360q154 -39 162 -171q2 -51 -20.5 -91.5t-61.5 -64t-88.5 -35t-98.5 -8t-95 20.5t-75 46q-18 18 -32.5 38t-23 39t-11.5 35l50 5q1 -5 3.5 -13t14 -30t26.5 -39t43.5 -33.5t62.5 -21.5q70 -10 124 1.5t83 37.5t41.5 59t6 67t-28.5 60q-13 15 -30.5 26.5t-44.5 19.5
t-40 12t-45.5 9.5t-34.5 5.5q-8 2 -33 6.5t-32.5 6t-25 6t-26 8.5t-21 10.5t-22.5 15.5q-49 38 -58 94.5t16 106.5t71 77q35 21 81.5 32t97 8t95 -20t78.5 -56.5t45 -96.5l-46 -4q-2 34 -28 73q-19 28 -58.5 46.5t-92 21.5t-112.5 -17q-46 -17 -74.5 -55.5t-27.5 -84
t33 -79.5q22 -23 60 -35t101.5 -22t91.5 -17z" />
    <glyph glyph-name="T" unicode="T" horiz-adv-x="553" 
d="M23 694h505v-40l-230 1v-656l-47 -1v656h-228v40z" />
    <glyph glyph-name="U" unicode="U" horiz-adv-x="652" 
d="M500 34q-16 -11 -35 -19.5t-37.5 -13t-35.5 -7t-35 -3t-28.5 -0.5t-22.5 0.5l-12 0.5q-37 1 -73.5 12.5t-71.5 34t-61 62t-34 91.5q-6 41 -9 134l-2 372h48l2 -296v-14v-9v-22q0 -93 8.5 -152t34.5 -92q28 -36 75.5 -58.5t109.5 -22.5q184 0 227 143q12 38 12 103l3 419
l46 1l-4 -421q0 -41 -3 -69t-13 -61t-32.5 -61t-56.5 -52z" />
    <glyph glyph-name="U" unicode="&#xdc;" horiz-adv-x="652" 
d="M500 34q-16 -11 -35 -19.5t-37.5 -13t-35.5 -7t-35 -3t-28.5 -0.5t-22.5 0.5l-12 0.5q-37 1 -73.5 12.5t-71.5 34t-61 62t-34 91.5q-6 41 -9 134l-2 372h48l2 -296v-14v-9v-22q0 -93 8.5 -152t34.5 -92q28 -36 75.5 -58.5t109.5 -22.5q184 0 227 143q12 38 12 103l3 419
l46 1l-4 -421q0 -41 -3 -69t-13 -61t-32.5 -61t-56.5 -52z" />
    <glyph glyph-name="U" unicode="&#xdb;" horiz-adv-x="652" 
d="M500 34q-16 -11 -35 -19.5t-37.5 -13t-35.5 -7t-35 -3t-28.5 -0.5t-22.5 0.5l-12 0.5q-37 1 -73.5 12.5t-71.5 34t-61 62t-34 91.5q-6 41 -9 134l-2 372h48l2 -296v-14v-9v-22q0 -93 8.5 -152t34.5 -92q28 -36 75.5 -58.5t109.5 -22.5q184 0 227 143q12 38 12 103l3 419
l46 1l-4 -421q0 -41 -3 -69t-13 -61t-32.5 -61t-56.5 -52z" />
    <glyph glyph-name="U" unicode="&#xda;" horiz-adv-x="652" 
d="M500 34q-16 -11 -35 -19.5t-37.5 -13t-35.5 -7t-35 -3t-28.5 -0.5t-22.5 0.5l-12 0.5q-37 1 -73.5 12.5t-71.5 34t-61 62t-34 91.5q-6 41 -9 134l-2 372h48l2 -296v-14v-9v-22q0 -93 8.5 -152t34.5 -92q28 -36 75.5 -58.5t109.5 -22.5q184 0 227 143q12 38 12 103l3 419
l46 1l-4 -421q0 -41 -3 -69t-13 -61t-32.5 -61t-56.5 -52z" />
    <glyph glyph-name="U" unicode="&#xd9;" horiz-adv-x="652" 
d="M500 34q-16 -11 -35 -19.5t-37.5 -13t-35.5 -7t-35 -3t-28.5 -0.5t-22.5 0.5l-12 0.5q-37 1 -73.5 12.5t-71.5 34t-61 62t-34 91.5q-6 41 -9 134l-2 372h48l2 -296v-14v-9v-22q0 -93 8.5 -152t34.5 -92q28 -36 75.5 -58.5t109.5 -22.5q184 0 227 143q12 38 12 103l3 419
l46 1l-4 -421q0 -41 -3 -69t-13 -61t-32.5 -61t-56.5 -52z" />
    <glyph glyph-name="V" unicode="V" horiz-adv-x="658" 
d="M304 0l-286 696l51 1l260 -646l262 646l49 -1l-286 -696h-50z" />
    <glyph glyph-name="W" unicode="W" horiz-adv-x="919" 
d="M852 697l49 -1l-213 -696h-42l-173 574l-13 66l-14 -66l-174 -574h-41l-213 696l47 1l170 -564l17 -65l16 64l166 565h50l167 -563l16 -65l16 65z" />
    <glyph glyph-name="X" unicode="X" horiz-adv-x="648" 
d="M610 696l-260 -345l260 -351h-61l-226 314l-224 -314h-61l260 350l-260 346l63 1l223 -309l223 309z" />
    <glyph glyph-name="Y" unicode="Y" horiz-adv-x="698" 
d="M602 696l58 -1l-287 -397v-298h-48v298l-287 397l57 1l254 -351z" />
    <glyph glyph-name="Y" unicode="&#xdd;" horiz-adv-x="698" 
d="M602 696l58 -1l-287 -397v-298h-48v298l-287 397l57 1l254 -351z" />
    <glyph glyph-name="Z" unicode="Z" horiz-adv-x="638" 
d="M43 655v42h536v-32l-473 -625l489 1v-41h-552v34l471 623z" />
    <glyph glyph-name="bracketleft" unicode="[" horiz-adv-x="244" 
d="M178 632h-66v-811h66v-40h-112v890h112v-39z" />
    <glyph glyph-name="backslash" unicode="\" horiz-adv-x="385" 
d="M113 707l205 -729h-47l-205 729h47z" />
    <glyph glyph-name="bracketright" unicode="]" horiz-adv-x="244" 
d="M66 696h112v-890h-112v40h65v812h-65v38z" />
    <glyph glyph-name="underscore" unicode="_" horiz-adv-x="631" 
d="M66 -4h499v-49h-499v49z" />
    <glyph glyph-name="a" unicode="a" horiz-adv-x="541" 
d="M467 102l20 -102h-52l-14 85q-2 -4 -7 -10.5t-22 -23t-37 -29t-54 -23t-72 -10.5q-118 0 -168 75q-40 60 -13 126q27 69 110 88q11 3 24 4q16 2 50.5 4.5t44.5 3.5q78 8 109 15.5t35 25.5q0 3 0.5 8.5t-1.5 21.5t-6 30.5t-14.5 31t-26.5 27.5q-29 19 -76 25.5t-95.5 -8.5
t-71.5 -52q-10 -16 -15 -39l-49 13q7 26 21 46q25 39 71.5 58.5t93 20t88.5 -9.5t64 -27q38 -29 50.5 -68.5t12.5 -93.5v-213zM423 181l1 96q-29 -13 -67 -19.5t-72.5 -8.5t-68 -5t-63 -13.5t-48.5 -28.5q-27 -30 -19.5 -74.5t39.5 -66.5q35 -25 86 -28t96.5 13t79 52
t36.5 83z" />
    <glyph glyph-name="a" unicode="&#xe5;" horiz-adv-x="541" 
d="M467 102l20 -102h-52l-14 85q-2 -4 -7 -10.5t-22 -23t-37 -29t-54 -23t-72 -10.5q-118 0 -168 75q-40 60 -13 126q27 69 110 88q11 3 24 4q16 2 50.5 4.5t44.5 3.5q78 8 109 15.5t35 25.5q0 3 0.5 8.5t-1.5 21.5t-6 30.5t-14.5 31t-26.5 27.5q-29 19 -76 25.5t-95.5 -8.5
t-71.5 -52q-10 -16 -15 -39l-49 13q7 26 21 46q25 39 71.5 58.5t93 20t88.5 -9.5t64 -27q38 -29 50.5 -68.5t12.5 -93.5v-213zM423 181l1 96q-29 -13 -67 -19.5t-72.5 -8.5t-68 -5t-63 -13.5t-48.5 -28.5q-27 -30 -19.5 -74.5t39.5 -66.5q35 -25 86 -28t96.5 13t79 52
t36.5 83z" />
    <glyph glyph-name="a" unicode="&#xe4;" horiz-adv-x="541" 
d="M467 102l20 -102h-52l-14 85q-2 -4 -7 -10.5t-22 -23t-37 -29t-54 -23t-72 -10.5q-118 0 -168 75q-40 60 -13 126q27 69 110 88q11 3 24 4q16 2 50.5 4.5t44.5 3.5q78 8 109 15.5t35 25.5q0 3 0.5 8.5t-1.5 21.5t-6 30.5t-14.5 31t-26.5 27.5q-29 19 -76 25.5t-95.5 -8.5
t-71.5 -52q-10 -16 -15 -39l-49 13q7 26 21 46q25 39 71.5 58.5t93 20t88.5 -9.5t64 -27q38 -29 50.5 -68.5t12.5 -93.5v-213zM423 181l1 96q-29 -13 -67 -19.5t-72.5 -8.5t-68 -5t-63 -13.5t-48.5 -28.5q-27 -30 -19.5 -74.5t39.5 -66.5q35 -25 86 -28t96.5 13t79 52
t36.5 83z" />
    <glyph glyph-name="a" unicode="&#xe3;" horiz-adv-x="541" 
d="M467 102l20 -102h-52l-14 85q-2 -4 -7 -10.5t-22 -23t-37 -29t-54 -23t-72 -10.5q-118 0 -168 75q-40 60 -13 126q27 69 110 88q11 3 24 4q16 2 50.5 4.5t44.5 3.5q78 8 109 15.5t35 25.5q0 3 0.5 8.5t-1.5 21.5t-6 30.5t-14.5 31t-26.5 27.5q-29 19 -76 25.5t-95.5 -8.5
t-71.5 -52q-10 -16 -15 -39l-49 13q7 26 21 46q25 39 71.5 58.5t93 20t88.5 -9.5t64 -27q38 -29 50.5 -68.5t12.5 -93.5v-213zM423 181l1 96q-29 -13 -67 -19.5t-72.5 -8.5t-68 -5t-63 -13.5t-48.5 -28.5q-27 -30 -19.5 -74.5t39.5 -66.5q35 -25 86 -28t96.5 13t79 52
t36.5 83z" />
    <glyph glyph-name="a" unicode="&#xe2;" horiz-adv-x="541" 
d="M467 102l20 -102h-52l-14 85q-2 -4 -7 -10.5t-22 -23t-37 -29t-54 -23t-72 -10.5q-118 0 -168 75q-40 60 -13 126q27 69 110 88q11 3 24 4q16 2 50.5 4.5t44.5 3.5q78 8 109 15.5t35 25.5q0 3 0.5 8.5t-1.5 21.5t-6 30.5t-14.5 31t-26.5 27.5q-29 19 -76 25.5t-95.5 -8.5
t-71.5 -52q-10 -16 -15 -39l-49 13q7 26 21 46q25 39 71.5 58.5t93 20t88.5 -9.5t64 -27q38 -29 50.5 -68.5t12.5 -93.5v-213zM423 181l1 96q-29 -13 -67 -19.5t-72.5 -8.5t-68 -5t-63 -13.5t-48.5 -28.5q-27 -30 -19.5 -74.5t39.5 -66.5q35 -25 86 -28t96.5 13t79 52
t36.5 83z" />
    <glyph glyph-name="a" unicode="&#xe1;" horiz-adv-x="541" 
d="M467 102l20 -102h-52l-14 85q-2 -4 -7 -10.5t-22 -23t-37 -29t-54 -23t-72 -10.5q-118 0 -168 75q-40 60 -13 126q27 69 110 88q11 3 24 4q16 2 50.5 4.5t44.5 3.5q78 8 109 15.5t35 25.5q0 3 0.5 8.5t-1.5 21.5t-6 30.5t-14.5 31t-26.5 27.5q-29 19 -76 25.5t-95.5 -8.5
t-71.5 -52q-10 -16 -15 -39l-49 13q7 26 21 46q25 39 71.5 58.5t93 20t88.5 -9.5t64 -27q38 -29 50.5 -68.5t12.5 -93.5v-213zM423 181l1 96q-29 -13 -67 -19.5t-72.5 -8.5t-68 -5t-63 -13.5t-48.5 -28.5q-27 -30 -19.5 -74.5t39.5 -66.5q35 -25 86 -28t96.5 13t79 52
t36.5 83z" />
    <glyph glyph-name="a" unicode="&#xe0;" horiz-adv-x="541" 
d="M467 102l20 -102h-52l-14 85q-2 -4 -7 -10.5t-22 -23t-37 -29t-54 -23t-72 -10.5q-118 0 -168 75q-40 60 -13 126q27 69 110 88q11 3 24 4q16 2 50.5 4.5t44.5 3.5q78 8 109 15.5t35 25.5q0 3 0.5 8.5t-1.5 21.5t-6 30.5t-14.5 31t-26.5 27.5q-29 19 -76 25.5t-95.5 -8.5
t-71.5 -52q-10 -16 -15 -39l-49 13q7 26 21 46q25 39 71.5 58.5t93 20t88.5 -9.5t64 -27q38 -29 50.5 -68.5t12.5 -93.5v-213zM423 181l1 96q-29 -13 -67 -19.5t-72.5 -8.5t-68 -5t-63 -13.5t-48.5 -28.5q-27 -30 -19.5 -74.5t39.5 -66.5q35 -25 86 -28t96.5 13t79 52
t36.5 83z" />
    <glyph glyph-name="b" unicode="b" horiz-adv-x="546" 
d="M278 517q32 2 62.5 -4t61.5 -24t54 -47t37.5 -77t14.5 -110q0 -53 -10.5 -96t-29.5 -70.5t-41 -47.5t-48.5 -30t-49.5 -14.5t-46 -4.5q-72 0 -132 55q-16 16 -31 44l-6 13v-103h-48v696h48v-294q4 15 7 22q9 16 27 34q53 53 130 58zM281 32q85 0 130 58.5t45 172.5
q0 110 -50 166.5t-131 51.5q-29 -1 -57.5 -16t-53 -41.5t-40 -70t-15.5 -97.5q0 -50 12 -90t30.5 -64.5t42 -40.5t45 -22.5t42.5 -6.5z" />
    <glyph glyph-name="c" unicode="c" horiz-adv-x="502" 
d="M424 127l39 -18q-56 -120 -196 -120q-47 0 -86.5 15t-65.5 39.5t-43.5 58.5t-25.5 70.5t-8 76.5q0 116 62 192.5t168 76.5q137 0 195 -127q-24 -10 -27 -11l-12 -6q-21 51 -62.5 79t-94.5 28q-80 0 -129.5 -64.5t-49.5 -167.5q0 -105 50.5 -163.5t129.5 -58.5
q50 0 92 24.5t64 75.5z" />
    <glyph glyph-name="c" unicode="&#xe7;" horiz-adv-x="502" 
d="M424 127l39 -18q-56 -120 -196 -120q-47 0 -86.5 15t-65.5 39.5t-43.5 58.5t-25.5 70.5t-8 76.5q0 116 62 192.5t168 76.5q137 0 195 -127q-24 -10 -27 -11l-12 -6q-21 51 -62.5 79t-94.5 28q-80 0 -129.5 -64.5t-49.5 -167.5q0 -105 50.5 -163.5t129.5 -58.5
q50 0 92 24.5t64 75.5z" />
    <glyph glyph-name="d" unicode="d" horiz-adv-x="547" 
d="M38 252q0 62 14.5 110t37.5 77t54 47t61.5 24t62.5 4q77 -5 130 -57q19 -19 27 -35l8 -22v295h47v-697h-47v103q-2 -6 -6 -13q-16 -28 -32 -44q-60 -55 -132 -55q-28 0 -55.5 6t-59 23.5t-55 45.5t-39.5 76.5t-16 111.5zM90 260q0 -114 45 -172.5t131 -58.5
q20 0 41.5 6.5t45.5 22.5t42 40.5t30 65t12 89.5q0 36 -7 68t-19 56t-28.5 43t-35 31t-37.5 19t-38 8q-82 5 -132 -51.5t-50 -166.5z" />
    <glyph glyph-name="e" unicode="e" horiz-adv-x="517" 
d="M427 125q6 -2 17 -7.5t16 -8.5q1 0 3.5 -1t3.5 -1q-47 -118 -202 -118q-59 0 -104 22.5t-71 60t-39 82.5t-13 95q0 116 61 192.5t166 76.5q118 0 175 -95q30 -49 38 -127l1 -61l-393 -2q3 -42 5 -54q16 -73 62.5 -111.5t111.5 -39.5q118 -3 162 97zM93 327q-6 -22 -7 -54
l346 1q0 12 -1 23q-5 71 -26 106q-21 36 -57.5 57t-83.5 21q-63 -1 -109 -42.5t-62 -111.5z" />
    <glyph glyph-name="e" unicode="&#xeb;" horiz-adv-x="517" 
d="M427 125q6 -2 17 -7.5t16 -8.5q1 0 3.5 -1t3.5 -1q-47 -118 -202 -118q-59 0 -104 22.5t-71 60t-39 82.5t-13 95q0 116 61 192.5t166 76.5q118 0 175 -95q30 -49 38 -127l1 -61l-393 -2q3 -42 5 -54q16 -73 62.5 -111.5t111.5 -39.5q118 -3 162 97zM93 327q-6 -22 -7 -54
l346 1q0 12 -1 23q-5 71 -26 106q-21 36 -57.5 57t-83.5 21q-63 -1 -109 -42.5t-62 -111.5z" />
    <glyph glyph-name="e" unicode="&#xea;" horiz-adv-x="517" 
d="M427 125q6 -2 17 -7.5t16 -8.5q1 0 3.5 -1t3.5 -1q-47 -118 -202 -118q-59 0 -104 22.5t-71 60t-39 82.5t-13 95q0 116 61 192.5t166 76.5q118 0 175 -95q30 -49 38 -127l1 -61l-393 -2q3 -42 5 -54q16 -73 62.5 -111.5t111.5 -39.5q118 -3 162 97zM93 327q-6 -22 -7 -54
l346 1q0 12 -1 23q-5 71 -26 106q-21 36 -57.5 57t-83.5 21q-63 -1 -109 -42.5t-62 -111.5z" />
    <glyph glyph-name="e" unicode="&#xe9;" horiz-adv-x="517" 
d="M427 125q6 -2 17 -7.5t16 -8.5q1 0 3.5 -1t3.5 -1q-47 -118 -202 -118q-59 0 -104 22.5t-71 60t-39 82.5t-13 95q0 116 61 192.5t166 76.5q118 0 175 -95q30 -49 38 -127l1 -61l-393 -2q3 -42 5 -54q16 -73 62.5 -111.5t111.5 -39.5q118 -3 162 97zM93 327q-6 -22 -7 -54
l346 1q0 12 -1 23q-5 71 -26 106q-21 36 -57.5 57t-83.5 21q-63 -1 -109 -42.5t-62 -111.5z" />
    <glyph glyph-name="e" unicode="&#xe8;" horiz-adv-x="517" 
d="M427 125q6 -2 17 -7.5t16 -8.5q1 0 3.5 -1t3.5 -1q-47 -118 -202 -118q-59 0 -104 22.5t-71 60t-39 82.5t-13 95q0 116 61 192.5t166 76.5q118 0 175 -95q30 -49 38 -127l1 -61l-393 -2q3 -42 5 -54q16 -73 62.5 -111.5t111.5 -39.5q118 -3 162 97zM93 327q-6 -22 -7 -54
l346 1q0 12 -1 23q-5 71 -26 106q-21 36 -57.5 57t-83.5 21q-63 -1 -109 -42.5t-62 -111.5z" />
    <glyph glyph-name="f" unicode="f" horiz-adv-x="340" 
d="M301 656q-47 3 -77.5 -4t-45.5 -23.5t-20 -36t-5 -48.5l-1 -37l65 1l73 -1v-40l-73 1l-65 1l1 -52v-416l-45 -1v418l1 52l-71 -1v38h71l-1 37v1.5v2.5q0 21 2 38t13 40t30.5 38t57.5 25t90 9v-42z" />
    <glyph glyph-name="g" unicode="g" horiz-adv-x="547" 
d="M433 502h47v-507q0 -84 -57.5 -140t-158.5 -56q-44 0 -81.5 12t-59.5 29.5t-38 34.5t-22 29l-6 12l39 21q2 -4 4.5 -10.5t15 -23t29 -29t47 -23t67.5 -10.5q174 0 174 171v83q-14 -32 -40 -54q-59 -53 -130 -53q-24 0 -47.5 4.5t-50 14.5t-48.5 30t-40 48t-28.5 70.5
t-10.5 95.5q0 62 14.5 110.5t37.5 77t54 46.5t61.5 24t62.5 4q70 -4 125 -54q9 -9 19 -23.5t15 -24.5l6 -10v101zM265 28q21 0 42.5 6.5t45.5 22.5t42 40.5t30 65t12 90.5q0 43 -10 79.5t-26.5 62t-38.5 44.5t-44.5 28t-45.5 11q-82 4 -132 -52.5t-50 -166.5
q0 -114 45 -172.5t130 -58.5z" />
    <glyph glyph-name="h" unicode="h" horiz-adv-x="549" 
d="M493 361q2 -15 4 -46t2 -54l1 -23v-237l-47 -1v183v17v17l-2 74q1 55 -11.5 92.5t-38.5 58.5t-67 26q-13 1 -24 1q-8 0 -22 -1q-71 -4 -121.5 -56t-52.5 -113v-299h-47l-1 697h47v-299q3 4 8 12t23 28.5t39 36t55.5 28t72.5 11.5q31 0 59 -8t54 -25t44.5 -47.5
t24.5 -72.5z" />
    <glyph glyph-name="i" unicode="i" horiz-adv-x="180" 
d="M66 1v505h48l-1 -505h-47zM114 610h-48v87h48v-87z" />
    <glyph glyph-name="i" unicode="&#xef;" horiz-adv-x="180" 
d="M66 1v505h48l-1 -505h-47zM114 610h-48v87h48v-87z" />
    <glyph glyph-name="i" unicode="&#xee;" horiz-adv-x="180" 
d="M66 1v505h48l-1 -505h-47zM114 610h-48v87h48v-87z" />
    <glyph glyph-name="i" unicode="&#xed;" horiz-adv-x="180" 
d="M66 1v505h48l-1 -505h-47zM114 610h-48v87h48v-87z" />
    <glyph glyph-name="i" unicode="&#xec;" horiz-adv-x="180" 
d="M66 1v505h48l-1 -505h-47zM114 610h-48v87h48v-87z" />
    <glyph glyph-name="j" unicode="j" horiz-adv-x="180" 
d="M67 -35v541h46l-1 -526q1 -59 -13 -86q-13 -26 -33.5 -43t-47 -24t-41.5 -9t-37 -3h-7v46q32 0 53 3.5t41 13.5t30 31.5t10 55.5zM113 610h-47v87h47v-87z" />
    <glyph glyph-name="k" unicode="k" horiz-adv-x="482" 
d="M464 0h-64l-291 263l3 -263h-46v698l46 1l-2 -406l254 214h62l-267 -228z" />
    <glyph glyph-name="l" unicode="l" horiz-adv-x="173" 
d="M111 0h-45v696h45v-696z" />
    <glyph glyph-name="m" unicode="m" horiz-adv-x="866" 
d="M811 364q2 -15 3.5 -46t2.5 -54v-24v-240h-48v203v31l-1 59q0 169 -102 181q-11 1 -21 1h-21q-42 -3 -79 -30t-58 -65.5t-22 -77.5v-248l1 -53h-50v182l-1 108q1 170 -100 181q-8 1 -21 1h-21q-63 -4 -110 -63t-49 -121v-289l-48 1v505h48v-122q9 33 29 56q63 76 151 75
q48 -1 89.5 -24.5t61.5 -73.5l10 -34q11 27 19 38q10 15 23.5 29.5t35 31t51 26t61.5 9.5q28 -1 53.5 -9t49.5 -24.5t41 -47.5t22 -72z" />
    <glyph glyph-name="n" unicode="n" horiz-adv-x="549" 
d="M493 361q2 -15 4 -45.5t2 -54.5l1 -23v-237l-50 -1v183v17v17l-1 74q0 165 -115 177q-13 1 -24 1q-8 0 -22 -1q-24 -1 -46.5 -9t-41.5 -20t-34.5 -28.5t-27 -34.5t-17.5 -38t-7 -39v-299h-47l-1 506h47v-108q3 5 8 12.5t23 28t39 36t55.5 28t72.5 11.5q31 0 59 -8t54 -25
t44.5 -47.5t24.5 -72.5z" />
    <glyph glyph-name="n" unicode="&#xf1;" horiz-adv-x="549" 
d="M493 361q2 -15 4 -45.5t2 -54.5l1 -23v-237l-50 -1v183v17v17l-1 74q0 165 -115 177q-13 1 -24 1q-8 0 -22 -1q-24 -1 -46.5 -9t-41.5 -20t-34.5 -28.5t-27 -34.5t-17.5 -38t-7 -39v-299h-47l-1 506h47v-108q3 5 8 12.5t23 28t39 36t55.5 28t72.5 11.5q31 0 59 -8t54 -25
t44.5 -47.5t24.5 -72.5z" />
    <glyph glyph-name="o" unicode="o" horiz-adv-x="568" 
d="M284 516q80 0 136.5 -37.5t83 -96t26.5 -130.5q0 -39 -8 -75.5t-27 -71t-46.5 -60.5t-70 -42t-94.5 -16q-64 0 -112.5 22.5t-77 60t-42.5 82.5t-14 95q0 116 66.5 192.5t179.5 76.5zM284 24q89 0 142.5 60.5t53.5 167.5q0 111 -53 170t-143 59t-142.5 -63t-52.5 -166
q0 -110 54 -169t141 -59z" />
    <glyph glyph-name="o" unicode="&#xf8;" horiz-adv-x="568" 
d="M284 516q80 0 136.5 -37.5t83 -96t26.5 -130.5q0 -39 -8 -75.5t-27 -71t-46.5 -60.5t-70 -42t-94.5 -16q-64 0 -112.5 22.5t-77 60t-42.5 82.5t-14 95q0 116 66.5 192.5t179.5 76.5zM284 24q89 0 142.5 60.5t53.5 167.5q0 111 -53 170t-143 59t-142.5 -63t-52.5 -166
q0 -110 54 -169t141 -59z" />
    <glyph glyph-name="o" unicode="&#xf6;" horiz-adv-x="568" 
d="M284 516q80 0 136.5 -37.5t83 -96t26.5 -130.5q0 -39 -8 -75.5t-27 -71t-46.5 -60.5t-70 -42t-94.5 -16q-64 0 -112.5 22.5t-77 60t-42.5 82.5t-14 95q0 116 66.5 192.5t179.5 76.5zM284 24q89 0 142.5 60.5t53.5 167.5q0 111 -53 170t-143 59t-142.5 -63t-52.5 -166
q0 -110 54 -169t141 -59z" />
    <glyph glyph-name="o" unicode="&#xf5;" horiz-adv-x="568" 
d="M284 516q80 0 136.5 -37.5t83 -96t26.5 -130.5q0 -39 -8 -75.5t-27 -71t-46.5 -60.5t-70 -42t-94.5 -16q-64 0 -112.5 22.5t-77 60t-42.5 82.5t-14 95q0 116 66.5 192.5t179.5 76.5zM284 24q89 0 142.5 60.5t53.5 167.5q0 111 -53 170t-143 59t-142.5 -63t-52.5 -166
q0 -110 54 -169t141 -59z" />
    <glyph glyph-name="o" unicode="&#xf4;" horiz-adv-x="568" 
d="M284 516q80 0 136.5 -37.5t83 -96t26.5 -130.5q0 -39 -8 -75.5t-27 -71t-46.5 -60.5t-70 -42t-94.5 -16q-64 0 -112.5 22.5t-77 60t-42.5 82.5t-14 95q0 116 66.5 192.5t179.5 76.5zM284 24q89 0 142.5 60.5t53.5 167.5q0 111 -53 170t-143 59t-142.5 -63t-52.5 -166
q0 -110 54 -169t141 -59z" />
    <glyph glyph-name="o" unicode="&#xf3;" horiz-adv-x="568" 
d="M284 516q80 0 136.5 -37.5t83 -96t26.5 -130.5q0 -39 -8 -75.5t-27 -71t-46.5 -60.5t-70 -42t-94.5 -16q-64 0 -112.5 22.5t-77 60t-42.5 82.5t-14 95q0 116 66.5 192.5t179.5 76.5zM284 24q89 0 142.5 60.5t53.5 167.5q0 111 -53 170t-143 59t-142.5 -63t-52.5 -166
q0 -110 54 -169t141 -59z" />
    <glyph glyph-name="o" unicode="&#xf2;" horiz-adv-x="568" 
d="M284 516q80 0 136.5 -37.5t83 -96t26.5 -130.5q0 -39 -8 -75.5t-27 -71t-46.5 -60.5t-70 -42t-94.5 -16q-64 0 -112.5 22.5t-77 60t-42.5 82.5t-14 95q0 116 66.5 192.5t179.5 76.5zM284 24q89 0 142.5 60.5t53.5 167.5q0 111 -53 170t-143 59t-142.5 -63t-52.5 -166
q0 -110 54 -169t141 -59z" />
    <glyph glyph-name="p" unicode="p" horiz-adv-x="547" 
d="M278 516q32 2 62.5 -4t61.5 -24t54 -46.5t37.5 -76.5t14.5 -110q0 -63 -15.5 -112t-39 -76.5t-55.5 -45.5t-59.5 -24t-55.5 -6q-78 0 -140 61q-8 8 -15.5 19.5t-10.5 18.5l-3 8v-262h-48v668h48v-95q12 32 36 53q56 50 128 54zM281 32q85 0 130 58t45 172
q0 110 -50 166.5t-131 52.5q-29 -2 -57.5 -17t-53 -41.5t-40 -70t-15.5 -96.5q0 -50 12 -90t30.5 -64.5t42 -41t45 -23t42.5 -5.5z" />
    <glyph glyph-name="q" unicode="q" horiz-adv-x="547" 
d="M38 253q0 62 14.5 110.5t37.5 77t54 46.5t61.5 24t62.5 4q67 -4 121 -48q13 -10 24 -24t15 -23l5 -8v92h47v-668h-47v259q-11 -26 -31 -46q-62 -59 -139 -59q-28 0 -55.5 6t-59 23.5t-55 45.5t-39.5 76.5t-16 111.5zM90 261q0 -114 45 -172.5t131 -58.5q20 0 41.5 6.5
t45.5 23t42 40.5t30 64.5t12 90.5q0 43 -10 79.5t-26.5 62t-38.5 44.5t-44.5 28t-45.5 10q-82 5 -132 -51.5t-50 -166.5z" />
    <glyph glyph-name="r" unicode="r" horiz-adv-x="382" 
d="M359 492l-25 -39q-4 3 -11 8t-30 11t-47 3q-45 -7 -76 -38t-43.5 -70.5t-12.5 -83.5v-283h-47l-1 506h47v-96q2 4 4.5 10.5t14.5 23.5t26.5 30t40 25t55.5 15q31 2 57 -3.5t37 -12.5z" />
    <glyph glyph-name="s" unicode="s" horiz-adv-x="506" 
d="M277 267q42 -7 58 -10t41.5 -12.5t41.5 -23.5q49 -43 45 -102q-3 -55 -48 -89.5t-104 -42t-121 6t-98 45.5q-18 16 -30 35.5t-16 31.5l-3 12l47 10q1 -3 2 -8.5t8.5 -19.5t18.5 -26t33.5 -24.5t52.5 -18.5q21 -4 47 -5t60.5 5t61.5 21q28 16 37.5 42.5t2 52t-27.5 41.5
q-24 20 -83 29.5t-119.5 19.5t-86.5 31q-19 14 -30.5 33t-15 39t-1 41t11 39.5t22.5 34.5t32 27q36 21 87 28t95.5 1t72.5 -21q67 -35 89 -107l-45 -14v4.5t-2.5 10t-6 14.5t-10.5 17t-16 18.5t-23 16.5t-32 14q-34 11 -77 11q-50 0 -84 -15.5t-46 -28.5q-19 -20 -24 -48
q-8 -36 10 -59q11 -13 22 -21.5t28.5 -13.5t30 -7.5t42.5 -6.5t50 -8z" />
    <glyph glyph-name="s" unicode="&#xdf;" horiz-adv-x="506" 
d="M277 267q42 -7 58 -10t41.5 -12.5t41.5 -23.5q49 -43 45 -102q-3 -55 -48 -89.5t-104 -42t-121 6t-98 45.5q-18 16 -30 35.5t-16 31.5l-3 12l47 10q1 -3 2 -8.5t8.5 -19.5t18.5 -26t33.5 -24.5t52.5 -18.5q21 -4 47 -5t60.5 5t61.5 21q28 16 37.5 42.5t2 52t-27.5 41.5
q-24 20 -83 29.5t-119.5 19.5t-86.5 31q-19 14 -30.5 33t-15 39t-1 41t11 39.5t22.5 34.5t32 27q36 21 87 28t95.5 1t72.5 -21q67 -35 89 -107l-45 -14v4.5t-2.5 10t-6 14.5t-10.5 17t-16 18.5t-23 16.5t-32 14q-34 11 -77 11q-50 0 -84 -15.5t-46 -28.5q-19 -20 -24 -48
q-8 -36 10 -59q11 -13 22 -21.5t28.5 -13.5t30 -7.5t42.5 -6.5t50 -8z" />
    <glyph glyph-name="t" unicode="t" horiz-adv-x="372" 
d="M163 216q0 -11 -0.5 -34t-0.5 -34.5t1 -28.5t2.5 -28t5.5 -19q18 -45 92 -38q9 1 18.5 3t16.5 5t12.5 5.5t8.5 4.5l3 1l12 -44q-36 -19 -96 -18q-33 1 -56.5 10.5t-36.5 23.5t-20 39t-9 48t-2 58v2v2v227l2 70l-78 -2v42l80 -2l-3 82l1 85l48 21l-1 -105l-2 -83l70 2
l81 1v-43h-82l-69 2l2 -71v-184z" />
    <glyph glyph-name="u" unicode="u" horiz-adv-x="549" 
d="M55 142q-2 15 -4 46t-2 55l-1 23v238h50v-183v-17v-17l2 -74q-1 -165 114 -177q13 -2 24 -2t22 1q79 7 126.5 60t47.5 128l1 281h47v-507h-47l-1 106q-9 -22 -17 -32q-69 -84 -180 -82q-30 0 -58.5 8.5t-54.5 25t-44.5 47.5t-24.5 72z" />
    <glyph glyph-name="u" unicode="&#xfc;" horiz-adv-x="549" 
d="M55 142q-2 15 -4 46t-2 55l-1 23v238h50v-183v-17v-17l2 -74q-1 -165 114 -177q13 -2 24 -2t22 1q79 7 126.5 60t47.5 128l1 281h47v-507h-47l-1 106q-9 -22 -17 -32q-69 -84 -180 -82q-30 0 -58.5 8.5t-54.5 25t-44.5 47.5t-24.5 72z" />
    <glyph glyph-name="u" unicode="&#xfb;" horiz-adv-x="549" 
d="M55 142q-2 15 -4 46t-2 55l-1 23v238h50v-183v-17v-17l2 -74q-1 -165 114 -177q13 -2 24 -2t22 1q79 7 126.5 60t47.5 128l1 281h47v-507h-47l-1 106q-9 -22 -17 -32q-69 -84 -180 -82q-30 0 -58.5 8.5t-54.5 25t-44.5 47.5t-24.5 72z" />
    <glyph glyph-name="u" unicode="&#xfa;" horiz-adv-x="549" 
d="M55 142q-2 15 -4 46t-2 55l-1 23v238h50v-183v-17v-17l2 -74q-1 -165 114 -177q13 -2 24 -2t22 1q79 7 126.5 60t47.5 128l1 281h47v-507h-47l-1 106q-9 -22 -17 -32q-69 -84 -180 -82q-30 0 -58.5 8.5t-54.5 25t-44.5 47.5t-24.5 72z" />
    <glyph glyph-name="u" unicode="&#xf9;" horiz-adv-x="549" 
d="M55 142q-2 15 -4 46t-2 55l-1 23v238h50v-183v-17v-17l2 -74q-1 -165 114 -177q13 -2 24 -2t22 1q79 7 126.5 60t47.5 128l1 281h47v-507h-47l-1 106q-9 -22 -17 -32q-69 -84 -180 -82q-30 0 -58.5 8.5t-54.5 25t-44.5 47.5t-24.5 72z" />
    <glyph glyph-name="v" unicode="v" horiz-adv-x="480" 
d="M411 506h51l-194 -506h-57l-193 506h52l169 -455h4z" />
    <glyph glyph-name="w" unicode="w" horiz-adv-x="761" 
d="M694 506h48l-165 -496l-3 -10h-49l-4 10l-120 357l-20 77h-2l-20 -76l-125 -368h-49l-167 506h50l141 -439h4l142 439h51l143 -438h4z" />
    <glyph glyph-name="x" unicode="x" horiz-adv-x="484" 
d="M267 252l198 -252h-53l-170 216l-164 -216h-60l198 252l-182 254h61l147 -217l151 217h56z" />
    <glyph glyph-name="y" unicode="y" horiz-adv-x="480" 
d="M411 505h51l-157 -409l-52 -135q-21 -48 -52.5 -81t-61.5 -46t-57 -18.5t-44 -3.5l-16 1l3 47q6 -1 15.5 -1.5t36.5 3.5t50.5 15.5t50 41.5t42.5 73l-202 513h52l170 -450h3l16 41z" />
    <glyph glyph-name="y" unicode="&#xff;" horiz-adv-x="480" 
d="M411 505h51l-157 -409l-52 -135q-21 -48 -52.5 -81t-61.5 -46t-57 -18.5t-44 -3.5l-16 1l3 47q6 -1 15.5 -1.5t36.5 3.5t50.5 15.5t50 41.5t42.5 73l-202 513h52l170 -450h3l16 41z" />
    <glyph glyph-name="y" unicode="&#xfd;" horiz-adv-x="480" 
d="M411 505h51l-157 -409l-52 -135q-21 -48 -52.5 -81t-61.5 -46t-57 -18.5t-44 -3.5l-16 1l3 47q6 -1 15.5 -1.5t36.5 3.5t50.5 15.5t50 41.5t42.5 73l-202 513h52l170 -450h3l16 41z" />
    <glyph glyph-name="z" unicode="z" horiz-adv-x="517" 
d="M48 466v38h409v-31l-349 -432l361 2v-43h-421v38l349 426z" />
    <glyph glyph-name="braceleft" unicode="{" horiz-adv-x="441" 
d="M273 -170q41 -19 87 0l15 -38q-86 -20 -137 16q-12 8 -21 17.5t-15.5 18.5t-11 20.5t-7 20.5t-4 21.5t-1.5 20t0.5 20.5t1.5 18t2.5 17t1.5 14q6 51 -2.5 105.5t-33.5 80.5q-11 12 -31.5 17.5t-35.5 5.5h-15v41h16.5t32.5 6t33 17q25 26 33.5 81t2.5 105q0 1 -2 16
t-2.5 20t-1.5 20t0.5 23t3 22.5t6 24.5t11 22t16.5 22t23 19q51 35 137 16l-15 -38q-46 19 -87 -1q-27 -12 -42.5 -44t-10.5 -71q7 -52 9 -87.5t-6.5 -80t-31.5 -74.5q-10 -14 -24 -23.5t-23 -12.5l-9 -2q33 -7 56 -38t31.5 -75t6.5 -80t-9 -87q-5 -39 10.5 -71t42.5 -45z
" />
    <glyph glyph-name="braceright" unicode="}" horiz-adv-x="441" 
d="M293 262q7 -8 18 -13t21.5 -7t20.5 -3t16 -1h6v-40h-17t-32 -6t-33 -17q-25 -27 -34 -81.5t-2 -104.5q0 -3 1.5 -14.5t2 -17t1.5 -18t0.5 -20t-1.5 -20.5t-4 -21.5t-7.5 -20.5t-10.5 -21t-15.5 -18.5t-20.5 -17.5q-51 -36 -137 -16l15 38q46 -19 86 1q28 12 43.5 44
t9.5 71q-7 52 -9 87.5t6.5 80t31.5 74.5q7 9 15 16t15 11t13.5 6.5t9.5 3.5l4 1q-33 7 -57 38q-23 31 -31.5 75t-6.5 80t9 87q4 26 -2 50t-19.5 40.5t-31.5 25.5q-40 19 -86 0l-15 38q86 20 137 -16q12 -8 22 -18.5t16.5 -22.5t11.5 -22t6.5 -24t2.5 -22t0 -23.5t-1 -20.5
t-2 -20l-2 -15q-7 -51 2 -105.5t34 -80.5z" />
    <glyph glyph-name="asciitilde" unicode="~" horiz-adv-x="623" 
d="M442 279q60 -1 114 23v1l-1 -52q-47 -19 -115 -19q-43 0 -128.5 14.5t-129.5 14.5q-13 0 -26.5 -1t-24.5 -3.5t-21.5 -5.5t-17.5 -5.5t-13 -5t-8 -3.5l-3 -1q0 7 -0.5 15.5t-1 17.5t-0.5 15q46 25 114 25q45 0 130.5 -15t131.5 -15z" />
    <glyph glyph-name="nonbreakingspace" unicode="&#xa0;" horiz-adv-x="314" 
 />
    <glyph glyph-name="cent" unicode="&#xa2;" horiz-adv-x="580" 
d="M513 106q-54 -110 -183 -118v-84h-48v84q-55 4 -98 28t-68 60.5t-37.5 79.5t-12.5 90q0 110 58 184.5t158 83.5v84h48v-84q127 -10 183 -126l-28 -11q-1 0 -13 -5q-19 45 -56.5 72t-85.5 33v-451q30 3 56 13.5t49 32t37 52.5zM116 246q0 -96 46 -153t120 -66v449
q-49 -7 -87 -37.5t-58.5 -80.5t-20.5 -112z" />
    <glyph glyph-name="sterling" unicode="&#xa3;" horiz-adv-x="651" 
d="M536 102l48 -12q-13 -32 -32.5 -52.5t-58.5 -31.5q-28 -7 -120 -7h-274q-9 9 -11 12q-7 10 -13.5 32.5t-8.5 53.5t15.5 64t54.5 54q18 10 54.5 25t46.5 23h-153v45h150q-10 9 -39 25t-42 27q-39 35 -57 76t-15 78.5t17 69.5t36 56q25 26 62.5 43t80 22.5t87 -2.5
t82 -28.5t66.5 -59.5t40 -91l-45 -6q-8 52 -41 88q-34 37 -84 51.5t-107 5.5q-68 -11 -101 -41q-43 -39 -45 -104.5t40 -112.5q17 -18 53.5 -38.5t48.5 -33.5q13 -13 18 -25h189v-45h-187q-6 -21 -26 -36t-53 -27.5t-38 -15.5q-18 -10 -30 -20t-22.5 -26.5t-9 -41
t15.5 -54.5h243q73 0 89 3q21 4 36.5 11.5t22.5 15t11 14.5t5 12z" />
    <glyph glyph-name="yen" unicode="&#xa5;" horiz-adv-x="754" 
d="M688 693l-262 -362h148v-45h-173v-38h173v-44h-173v-206h-48v206h-173v44h173v38h-173v45h148l-262 362h57l254 -350l253 350h58z" />
    <glyph glyph-name="copyright" unicode="&#xa9;" horiz-adv-x="335" 
d="M168 568q23 -1 29 14v1l20 -5q-1 -3 -4 -8t-15.5 -13t-30.5 -8q-27 0 -43 17.5t-15 50.5q0 29 16.5 45t40.5 16q19 0 31.5 -8t15.5 -16l3 -9l-19 -3l-2.5 5t-9.5 8t-18 5q-18 -1 -27 -11q-11 -12 -10 -35q0 -24 12 -36q10 -9 26 -10zM167 716q42 0 71.5 -30t29.5 -71.5
t-29.5 -71.5t-71.5 -30t-71.5 30t-29.5 71.5t29.5 71.5t71.5 30zM167 530q35 0 59.5 25t24.5 59.5t-24.5 59t-59.5 24.5t-59.5 -24.5t-24.5 -59t24.5 -59.5t59.5 -25z" />
    <glyph glyph-name="registered" unicode="&#xae;" horiz-adv-x="346" 
d="M191 93q12 -5 22 -30l12 -25h-23q-2 6 -9 23q-13 29 -36 29h-7v-52h-20v123h41q39 2 45 -27q3 -19 -8 -32q-3 -3 -6 -5q-8 -4 -11 -4zM175 107q13 0 17.5 6t3.5 13q0 7 -5.5 12.5t-16.5 4.5h-24v-36h25zM173 205q44 0 75 -31.5t31 -75.5t-31 -75.5t-75 -31.5t-75.5 31.5
t-31.5 75.5t31.5 75.5t75.5 31.5zM172.5 9q36.5 0 62.5 26t26 63q0 24 -11.5 44.5t-32 32.5t-44.5 12t-44.5 -12t-32.5 -32.5t-12 -44.5q0 -37 26 -63t62.5 -26z" />
    <glyph glyph-name="divide" unicode="&#xf7;" horiz-adv-x="472" 
d="M254 366h-37v98h37v-98zM254 75h-37v98h37v-98zM405 253h-339v42h339v-42z" />
    <glyph glyph-name="quoteleft" unicode="&#x2018;" horiz-adv-x="188" 
d="M80 694h42l-11 -97v-97h-45v97z" />
    <glyph glyph-name="quoteright" unicode="&#x2019;" horiz-adv-x="188" 
d="M78 694h44v-97l-14 -97h-42l12 97v97z" />
    <glyph glyph-name="quotedblleft" unicode="&#x201c;" horiz-adv-x="262" 
d="M66 597l14 97h42l-11 -97v-97h-45v97zM154 694h42l-11 -97v-97h-45v97z" />
    <glyph glyph-name="quotedblright" unicode="&#x201d;" horiz-adv-x="261" 
d="M78 596v97h44v-97l-14 -97h-42zM150 693h45v-97l-14 -97h-42l11 97v97z" />
    <glyph glyph-name="Euro" unicode="&#x20ac;" horiz-adv-x="676" 
d="M480 666q-97 0 -168.5 -69t-87.5 -188h386l-8 -46h-381v-6v-6q0 -12 1 -32h373l-7 -46h-362q18 -125 89 -187.5t167 -62.5q73 0 128 25v-46q-54 -18 -122 -18q-129 0 -211.5 74.5t-101.5 214.5h-105l7 46h93q-1 21 -1 34q0 1 0.5 4.5t0.5 5.5h-104l7 46h99
q16 140 100.5 216t212.5 76q69 0 125 -20v-43q-55 28 -130 28z" />
    <glyph glyph-name="trademark" unicode="&#x2122;" horiz-adv-x="357" 
d="M66 674v17h94v-17h-37v-106h-20v106h-37zM281 691l9 -123h-20l-5 76l-33 -76h-10l-33 75l-4 -75l-20 1l8 122h17l38 -86l37 86h16z" />
    <glyph glyph-name="Q.alt1" unicode="&#xf008;" horiz-adv-x="794" 
d="M664 33q28 -1 50.5 11t31.5 23l9 12v-59q-3 -4 -9 -9t-30.5 -13.5t-56.5 -8.5q-56 1 -100 41q-80 -41 -176 -41q-155 0 -250 93t-95 265q0 87 27 156t74 112.5t109 66.5t135 23q160 0 252 -98.5t92 -259.5q0 -63 -16 -119t-45.5 -99t-71.5 -74q28 -22 70 -22zM223 64
q-15 20 -17 49t6 43q11 25 37.5 41.5t62.5 15.5q39 -1 77.5 -14t72.5 -36t54 -40t45 -41q54 39 84 106.5t30 155.5q0 77 -23 139.5t-63 103.5t-92.5 63.5t-113.5 22.5t-113 -20t-92.5 -59.5t-64 -103t-24.5 -145.5q0 -101 36 -172.5t98 -108.5zM385 25q72 0 142 35
q-107 104 -207 102q-43 0 -62.5 -25t-10.5 -54.5t38 -43.5q46 -14 100 -14z" />
    <glyph glyph-name="W.alt1" unicode="&#xf00b;" horiz-adv-x="1052" 
d="M937 697l48 -1l-286 -696h-50l-114 278l-9 40l-10 -40l-114 -278h-50l-286 696l51 1l260 -646l125 308l-139 337l51 1l102 -254l10 -38l10 39l103 253l49 -1l-138 -336l124 -309z" />
    <glyph glyph-name="hyphen.alt1" unicode="&#xf00e;" horiz-adv-x="810" 
d="M744 252h-678v42h678v-42z" />
    <glyph glyph-name="hyphen.alt2" unicode="&#xf00f;" horiz-adv-x="1149" 
d="M1083 251h-1017v42h1017v-42z" />
    </font>
</defs>
</svg>
