<?xml version="1.0" standalone="no"?>
<!DOCTYPE svg PUBLIC "-//W3C//DTD SVG 1.1//EN" "http://www.w3.org/Graphics/SVG/1.1/DTD/svg11.dtd" >
<svg xmlns="http://www.w3.org/2000/svg" xmlns:xlink="http://www.w3.org/1999/xlink" version="1.1">
<metadata>
Created by FontForge 20170731 at Wed Jul 13 19:08:15 2016
 By Aleksey,,,
copyright missing
</metadata>
<defs>
<font id="CharlevoixPro-Black" horiz-adv-x="0" >
  <font-face 
    font-family="Charlevoix Pro Black"
    font-weight="900"
    font-stretch="normal"
    units-per-em="1000"
    panose-1="0 0 10 0 0 0 0 0 0 0"
    ascent="800"
    descent="-200"
    x-height="527"
    cap-height="713"
    bbox="-905 -350 1941 1062"
    underline-thickness="50"
    underline-position="-200"
    unicode-range="U+0020-2260"
  />
<missing-glyph horiz-adv-x="480" 
d="M394 753v-960h-305v960h305zM320 689h-159v-32h63v-36h-64v-31h160v31h-64v36h64v32zM256 565h-96v-100h160v33h-64v67zM224 532v-34h-32v34h32zM320 439h-160v-32h64v-35h-64v-32h96v67h64v32zM320 381h-32v-63h-128v-33h160v96zM320 264h-96v-53h32v22h32v-45h-96v76
h-32v-108h160v108zM320 98h-160v-108h160v108zM288 67v-46h-96v46h96zM320 -32h-160v-32h68l-68 -45v-32h160v32h-98l67 45h31v32z" />
    <glyph glyph-name=".notdef" horiz-adv-x="480" 
d="M394 753v-960h-305v960h305zM320 689h-159v-32h63v-36h-64v-31h160v31h-64v36h64v32zM256 565h-96v-100h160v33h-64v67zM224 532v-34h-32v34h32zM320 439h-160v-32h64v-35h-64v-32h96v67h64v32zM320 381h-32v-63h-128v-33h160v96zM320 264h-96v-53h32v22h32v-45h-96v76
h-32v-108h160v108zM320 98h-160v-108h160v108zM288 67v-46h-96v46h96zM320 -32h-160v-32h68l-68 -45v-32h160v32h-98l67 45h31v32z" />
    <glyph glyph-name=".null" 
 />
    <glyph glyph-name="nonmarkingreturn" horiz-adv-x="333" 
 />
    <glyph glyph-name="space" unicode=" " horiz-adv-x="390" 
 />
    <glyph glyph-name="exclam" unicode="!" horiz-adv-x="327" 
d="M88 753q-10 0 -10 -10l18 -461q0 -10 10 -10h147q10 0 10 10l18 461q0 10 -10 10h-183zM179 -3q-43 0 -74 31t-31 74q0 44 31 74.5t74 30.5q44 0 74.5 -30.5t30.5 -74.5q0 -43 -31 -74t-74 -31z" />
    <glyph glyph-name="quotedbl" unicode="&#x22;" horiz-adv-x="537" 
d="M45 743q0 10 10 10h159q10 0 10 -10l-11 -259q0 -10 -10 -10h-137q-10 0 -10 10zM288 743q0 10 10 10h159q10 0 10 -10l-11 -259q0 -10 -10 -10h-137q-10 0 -10 10z" />
    <glyph glyph-name="numbersign" unicode="#" horiz-adv-x="905" 
d="M857 418q0 -10 -10 -10h-93q-9 0 -10 -9l-12 -100q-1 -4 2 -7.5t8 -3.5h62q10 0 10 -10v-159q0 -10 -10 -10h-84q-9 0 -10 -9l-10 -91q-1 -9 -10 -9h-185q-5 0 -8 3.5t-2 7.5l10 87q1 4 -2 7.5t-8 3.5h-103q-9 0 -10 -9l-9 -91q-1 -9 -10 -9h-185q-5 0 -8 3.5t-2 7.5
l9 87q1 4 -2 7.5t-8 3.5h-79q-10 0 -10 10v159q0 10 10 10h102q9 0 10 9l12 100q1 4 -2 7.5t-8 3.5h-72q-10 0 -10 10v159q0 10 10 10h93q9 0 10 9l13 108q1 9 10 9h185q5 0 8 -3.5t2 -7.5l-13 -104q-1 -4 2 -7.5t8 -3.5h103q9 0 10 9l12 108q1 9 10 9h185q5 0 8 -3.5
t2 -7.5l-12 -104q-1 -4 2 -7.5t8 -3.5h71q10 0 10 -10v-159zM517 288q9 0 10 9l12 100q1 4 -2 7.5t-8 3.5h-102q-9 0 -10 -9l-12 -100q-1 -4 2 -7.5t8 -3.5h102z" />
    <glyph glyph-name="dollar" unicode="$" horiz-adv-x="745" 
d="M633 204q0 -83 -55.5 -135.5t-150.5 -66.5v-92q0 -10 -10 -10h-84q-10 0 -10 10v88q-51 4 -94.5 16.5t-81.5 37t-60 67t-22 98.5v2q0 12 11 14l171 21q14 2 14 -6q0 -40 30.5 -56t66.5 -16q71 0 71 40q0 20 -23 31t-81.5 24.5t-93.5 25.5q-151 52 -151 207
q0 95 61.5 148.5t159.5 62.5v88q0 10 10 10h83q10 0 10 -10v-93q86 -15 139 -66.5t53 -141.5q0 -9 -11 -9l-169 -22q-11 -2 -11 10q1 29 -21.5 42.5t-53.5 13.5q-47 0 -47 -38q0 -5 1.5 -9.5t5 -8t7.5 -6.5t11 -6t12.5 -5t16 -5t17.5 -4.5t20 -5t21 -5.5q71 -19 120 -46
t73.5 -59.5t34.5 -64t10 -70.5z" />
    <glyph glyph-name="percent" unicode="%" horiz-adv-x="1437" 
d="M382 261q-113 0 -183 74.5t-70 178.5t70 178t183 74t182.5 -74t69.5 -178t-69.5 -178.5t-182.5 -74.5zM635 -40q8 0 11 7l365 774q5 12 -7 12h-136q-8 0 -11 -7l-365 -774q-5 -12 7 -12h136zM382 586q-19 0 -33.5 -16.5t-14.5 -55.5t14.5 -56t33.5 -17t33 17t14 56
q0 72 -47 72zM1165 -3q-113 0 -183 74.5t-70 178.5t70 178.5t183 74.5t182.5 -74t69.5 -179q0 -104 -69.5 -178.5t-182.5 -74.5zM1165 323q-19 0 -33.5 -17t-14.5 -56t14.5 -56t33.5 -17t33 17t14 56t-14 56t-33 17z" />
    <glyph glyph-name="ampersand" unicode="&#x26;" horiz-adv-x="818" 
d="M757 344q12 -2 6 -12q-41 -78 -67 -118q2 -2 50 -41q6 -7 5 -13l-20 -156q-2 -13 -13 -7q-42 27 -128 90q-100 -90 -224 -90q-72 0 -132.5 20.5t-103 71t-42.5 124.5q0 124 111 176q-33 33 -45.5 62t-12.5 70q0 77 65 136t181 59q120 0 180.5 -55.5t60.5 -134.5
q0 -107 -123 -162q3 -2 18 -14t23 -18q7 11 16 29q4 7 12 6zM385 537q-20 0 -30 -11t-10 -27q0 -24 35 -49q44 23 44 53q0 34 -39 34zM372 176q31 0 65 24q-7 5 -38 28.5t-49 36.5l-32 25q-27 -19 -27 -56q0 -27 25 -42.5t56 -15.5z" />
    <glyph glyph-name="quotesingle" unicode="'" horiz-adv-x="294" 
d="M58 743q0 10 10 10h158q10 0 10 -10l-11 -259q0 -10 -10 -10h-136q-10 0 -10 10z" />
    <glyph glyph-name="parenleft" unicode="(" horiz-adv-x="401" 
d="M362 -177q7 -12 -6 -12h-119q-7 0 -13 3q-57 31 -111.5 164t-54.5 300t55 304.5t111 167.5q6 3 13 3h119q15 0 6 -12q-36 -58 -68.5 -184.5t-32.5 -278.5q0 -151 32.5 -273t68.5 -182z" />
    <glyph glyph-name="parenright" unicode=")" horiz-adv-x="389" 
d="M59 -177q36 60 68.5 182t32.5 273q0 152 -32.5 278.5t-68.5 184.5q-7 12 6 12h120q5 0 13 -3q56 -30 111 -167.5t55 -304.5t-54.5 -300t-111.5 -164q-8 -3 -13 -3h-120q-13 0 -6 12z" />
    <glyph glyph-name="asterisk" unicode="*" horiz-adv-x="552" 
d="M358 348q-8 -8 -13 3l-51 91q-8 10 -16 0l-52 -91q-5 -10 -13 -3l-99 72q-8 7 0 15l69 75q10 10 -4 14l-103 23q-10 3 -7 12l37 115q3 11 14 6l96 -45q6 -2 9.5 0.5t2.5 8.5l-12 107q-2 10 10 10h122q11 0 9 -10l-13 -107q-1 -6 3 -8.5t9 -0.5l96 45q10 7 13 -6l38 -115
q3 -9 -7 -12l-104 -23q-14 -3 -5 -14l72 -76q6 -8 -2 -14z" />
    <glyph glyph-name="plus" unicode="+" horiz-adv-x="663" 
d="M586 439q10 0 10 -10v-158q0 -10 -10 -10h-117q-10 0 -10 -10v-129q0 -10 -10 -10h-184q-10 0 -10 10v129q0 10 -10 10h-117q-10 0 -10 10v158q0 10 10 10h117q10 0 10 10v131q0 10 10 10h184q10 0 10 -10v-131q0 -10 10 -10h117z" />
    <glyph glyph-name="comma" unicode="," horiz-adv-x="341" 
d="M106 165q2 9 11 9h158q11 0 8 -11l-93 -266q-3 -8 -12 -8h-124q-12 0 -8 11z" />
    <glyph glyph-name="hyphen" unicode="-" horiz-adv-x="615" 
d="M558 241q0 -10 -10 -10h-430q-10 0 -10 10v159q0 10 10 10h430q10 0 10 -10v-159z" />
    <glyph glyph-name="period" unicode="." horiz-adv-x="342" 
d="M140 -3q-43 0 -74 31t-31 74q0 44 30.5 74.5t74.5 30.5t74.5 -30.5t30.5 -74.5q0 -43 -31 -74t-74 -31z" />
    <glyph glyph-name="slash" unicode="/" horiz-adv-x="605" 
d="M230 -40q8 0 11 7l365 774q5 12 -7 12h-204q-8 0 -11 -7l-365 -774q-5 -12 7 -12h204z" />
    <glyph glyph-name="zero" unicode="0" horiz-adv-x="769" 
d="M395 716q-106 0 -179.5 -52.5t-105.5 -131.5t-32 -175q0 -71 19 -134t56 -114.5t99.5 -81.5t142.5 -30q84 0 147.5 30t99.5 82t53 114t17 134t-17 134t-53 114t-99.5 81.5t-147.5 29.5zM395 537q63 0 88 -45.5t25 -134.5q0 -88 -25 -134.5t-88 -46.5q-56 0 -85 49
t-29 132q0 84 29 132t85 48z" />
    <glyph glyph-name="one" unicode="1" horiz-adv-x="585" 
d="M409 189q0 -10 10 -10h108q10 0 10 -10v-159q0 -10 -10 -10h-439q-10 0 -10 10v159q0 10 10 10h107q10 0 10 10v334q0 10 -10 10h-111q-10 0 -10 10l24 159q0 10 10 10l291 1q10 0 10 -10v-514z" />
    <glyph glyph-name="two" unicode="2" horiz-adv-x="666" 
d="M584 11q-2 -10 -10 -10h-486q-10 0 -10 11q0 79 18 142t46 102t61.5 69t67.5 49t61.5 36t45 37t17.5 44q0 22 -15 34.5t-35 12.5q-7 0 -15 -3t-19 -11t-18 -28t-7 -49q0 -12 -11 -10l-170 22q-9 1 -9 12q3 43 17.5 83t42 78t76.5 61t113 23q109 0 181.5 -65t72.5 -160
q0 -45 -20 -86t-49.5 -69t-64.5 -53t-64.5 -40.5t-49 -29.5t-19.5 -22q0 -11 10 -11h256q12 0 10 -10z" />
    <glyph glyph-name="three" unicode="3" horiz-adv-x="690" 
d="M539 366q-3 0 -4 -2t0 -4t4 -2q41 -7 72 -47.5t31 -101.5q0 -104 -81 -158t-190 -54q-132 0 -209 67t-84 171q0 9 9 11l170 22q8 2 9 -8q6 -84 97 -84q33 0 54.5 16t21.5 42q0 63 -70 63h-32q-11 0 -11 10v109q0 10 11 10h32q23 0 35 16t12 40q0 55 -55 55
q-24 0 -41.5 -21t-21.5 -67q-3 -9 -11 -8l-170 22q-11 2 -9 11q25 242 259 242q60 0 116 -21.5t96.5 -70t40.5 -115.5q0 -53 -25 -96.5t-56 -46.5z" />
    <glyph glyph-name="four" unicode="4" horiz-adv-x="781" 
d="M594 320q0 -10 10 -10h99q12 0 10 -10l-24 -159q-2 -10 -10 -10h-75q-10 0 -10 -10v-111q0 -10 -10 -10h-172q-10 0 -10 10v111q0 10 -10 10h-294q-10 0 -10 10v162q0 8 4 13l305 391q5 6 13 6h174q10 0 10 -10v-383zM392 310q10 0 10 10v83q0 7 -3.5 8.5t-8.5 -4.5
l-58 -85q-7 -12 6 -12h54z" />
    <glyph glyph-name="five" unicode="5" horiz-adv-x="634" 
d="M524 544q-2 -10 -10 -10h-217q-10 0 -11 -10l-6 -55q-1 -6 0.5 -6.5t8.5 3.5q23 13 38.5 16t49.5 3q85 0 147 -69.5t62 -163.5q0 -104 -69.5 -179.5t-188.5 -75.5q-93 0 -163 47t-98 147q-2 9 9 11l171 22q8 2 12 -7q16 -41 66 -41q31 0 44 20.5t13 49.5q0 37 -15.5 55
t-37.5 18q-36 0 -58 -35q-5 -6 -13 -6l-173 11q-11 0 -9 11l52 403q1 10 11 10h400q12 0 10 -10z" />
    <glyph glyph-name="six" unicode="6" horiz-adv-x="683" 
d="M365 -3q-131 0 -209 92t-78 276q0 166 83 258.5t217 92.5q201 0 250 -184q2 -11 -2 -12l-168 -21q-6 -1 -8 0t-6 9q-22 29 -69 29q-41 0 -69 -34.5t-25 -82.5q1 -5 2 -6.5t2 1.5q1 1 1 2q11 34 49 51t72 17q103 0 167 -74.5t64 -170.5q0 -98 -71 -170.5t-202 -72.5z
M368 306q-33 0 -53.5 -20t-20.5 -47q0 -29 22 -46t56 -17t54 18t20 46q0 27 -21.5 46.5t-56.5 19.5z" />
    <glyph glyph-name="seven" unicode="7" horiz-adv-x="700" 
d="M632 713q10 0 10 -10v-107q0 -6 -6 -12q-48 -46 -82 -88t-72.5 -111t-59.5 -164t-22 -211q0 -10 -10 -10h-184q-10 0 -10 10q3 130 48.5 280t99.5 232q4 5 2 8.5t-8 3.5h-260q-10 0 -10 10v159q0 10 10 10h554z" />
    <glyph glyph-name="eight" unicode="8" horiz-adv-x="667" 
d="M344 -3q-115 0 -193 59t-78 159q0 134 135 177q-53 18 -79 57t-26 80q-1 86 66 136.5t175 50.5q113 0 177 -49.5t64 -137.5q0 -40 -26 -79.5t-74 -57.5q130 -47 130 -177q0 -101 -75.5 -159.5t-195.5 -58.5zM306 517q0 -16 12 -24t26 -8t25.5 8t11.5 24q0 12 -9.5 22.5
t-27.5 10.5q-19 0 -28.5 -10t-9.5 -23zM276 223q0 -47 68 -47q67 0 67 47q0 20 -20 33t-47 13t-47.5 -13t-20.5 -33z" />
    <glyph glyph-name="nine" unicode="9" horiz-adv-x="675" 
d="M347 716q131 0 209.5 -91.5t78.5 -276.5q0 -166 -83.5 -258.5t-216.5 -92.5q-201 0 -250 185q-2 10 2 11l168 22q8 1 14 -9q22 -30 69 -30q40 0 68.5 35t24.5 82q0 6 -2 7l-2 -4q-11 -34 -49 -51t-72 -17q-103 0 -167 74.5t-64 170.5q0 98 71 170.5t201 72.5zM345 407
q33 0 53.5 20t20.5 48t-22.5 45t-55.5 17q-34 0 -54.5 -18t-20.5 -46q0 -27 22 -46.5t57 -19.5z" />
    <glyph glyph-name="colon" unicode=":" horiz-adv-x="275" 
d="M138 295q44 0 74.5 30.5t30.5 74.5t-30.5 74.5t-74.5 30.5t-74.5 -30.5t-30.5 -74.5t30.5 -74.5t74.5 -30.5zM138 7q-43 0 -74 31t-31 74q0 44 30.5 74.5t74.5 30.5t74.5 -30.5t30.5 -74.5q0 -43 -31 -74t-74 -31z" />
    <glyph glyph-name="semicolon" unicode=";" horiz-adv-x="377" 
d="M224 298q-43 0 -74 31t-31 74q0 44 31 74.5t74 30.5q44 0 74.5 -30.5t30.5 -74.5q0 -43 -30.5 -74t-74.5 -31zM106 165q2 9 11 9h158q11 0 8 -11l-93 -266q-3 -8 -12 -8h-124q-12 0 -8 11z" />
    <glyph glyph-name="less" unicode="&#x3c;" horiz-adv-x="487" 
d="M62 415l384 230q2 2 4 0t2 -6v-162q0 -7 -5 -10l-190 -117q-8 -5 0 -10l190 -117q5 -3 5 -10v-162q0 -4 -2 -6t-4 0l-384 231q-4 2 -4 10v119q0 8 4 10z" />
    <glyph glyph-name="equal" unicode="=" horiz-adv-x="698" 
d="M598 398q0 -10 -10 -10h-430q-10 0 -10 10v159q0 10 10 10h430q10 0 10 -10v-159zM598 143q0 -10 -10 -10h-430q-10 0 -10 10v159q0 10 10 10h430q10 0 10 -10v-159z" />
    <glyph glyph-name="greater" unicode="&#x3e;" horiz-adv-x="520" 
d="M477 415q5 -3 5 -10v-119q0 -8 -5 -10l-383 -231q-6 -3 -6 6v162q0 7 4 10l191 117q7 5 0 10l-191 117q-4 3 -4 10v162q0 9 6 6z" />
    <glyph glyph-name="question" unicode="?" horiz-adv-x="603" 
d="M211 272q-10 0 -10 10q-4 59 18.5 106.5t51.5 72t53.5 47.5t24.5 38q0 16 -7 23t-11.5 7.5t-17.5 0.5q-7 0 -16 -3t-20 -14.5t-16 -30.5q-2 -9 -13 -7l-184 22q-10 2 -8 11q23 89 94.5 145t168.5 56q107 0 170.5 -49t63.5 -148q0 -40 -19 -73t-45.5 -55t-52.5 -43
t-42.5 -47.5t-13.5 -58.5q2 -10 -10 -10h-159zM292 -3q-43 0 -74 31t-31 74q0 44 31 74.5t74 30.5q44 0 74.5 -30.5t30.5 -74.5q0 -43 -30.5 -74t-74.5 -31z" />
    <glyph glyph-name="at" unicode="@" horiz-adv-x="1027" 
d="M484 -106q94 0 162 26t101 59q5 6 12 6h106q14 0 7 -12q-13 -22 -40.5 -48.5t-74.5 -59t-120 -54t-156 -21.5q-117 0 -206.5 36.5t-142 100t-78.5 141.5t-26 168q0 94 35 185.5t99 166.5t165.5 121.5t223.5 46.5q178 0 287 -116.5t109 -284.5q0 -80 -22.5 -144.5
t-56 -103t-75.5 -64.5t-77.5 -35.5t-65.5 -9.5q-89 0 -124 57q-5 10 -13 2q-53 -60 -128 -60q-53 0 -90.5 28t-52.5 71t-19.5 95t7.5 101q19 99 88 168.5t163 69.5q49 0 79 -30q10 -10 13 4l2 14q1 9 11 9h172q11 0 9 -11l-72 -341q-6 -34 -1.5 -51t26.5 -17q17 0 41.5 28.5
t46.5 91.5t22 140q0 128 -72 206.5t-207 78.5q-124 0 -219 -60t-141.5 -151t-46.5 -195q0 -172 91 -262t249 -90zM426 257q0 -1 -1 -11t-1 -16t0.5 -16.5t3.5 -16.5t7 -13t12 -10.5t18 -3.5q14 0 30.5 14.5t21.5 44.5l11 58q13 71 -32 71q-57 0 -70 -101z" />
    <glyph glyph-name="A" unicode="A" horiz-adv-x="864" 
d="M385 706q3 7 12 7h81q9 0 12 -7l326 -694q5 -12 -7 -12h-175q-9 0 -12 7l-38 75q-3 7 -11 7h-272q-9 0 -12 -7l-38 -75q-3 -7 -11 -7h-174q-12 0 -7 12zM378 280q-5 -12 7 -12h104q12 0 7 12l-51 109q-2 5 -7 5t-7 -5z" />
    <glyph glyph-name="B" unicode="B" horiz-adv-x="704" 
d="M98 0q-10 0 -10 10v693q0 10 10 10h287q113 0 171 -56t58 -156q0 -39 -14.5 -71.5t-37.5 -48.5q-7 -5 1 -11q37 -20 58 -63t21 -96q0 -100 -58 -155.5t-164 -55.5h-322zM301 445h89q19 0 32 13.5t13 30.5q0 14 -11.5 29.5t-38.5 15.5h-84q-10 0 -10 -10v-69q0 -10 10 -10
zM301 179h119q22 0 32.5 16.5t10.5 28.5q0 15 -10 28.5t-33 13.5h-119q-10 0 -10 -10v-67q0 -10 10 -10z" />
    <glyph glyph-name="C" unicode="C" horiz-adv-x="811" 
d="M562 272q4 9 14 7l170 -22q10 -1 7 -15q-16 -108 -105 -176.5t-208 -68.5q-151 0 -251.5 105t-100.5 256t100 254.5t252 103.5q119 0 207 -68.5t106 -176.5q3 -14 -7 -15l-170 -22q-10 -2 -14 7q-10 26 -21.5 44t-40.5 35t-69 17q-54 0 -97 -43.5t-43 -135.5
q0 -93 43.5 -137.5t96.5 -44.5q40 0 69 17t40.5 35t21.5 44z" />
    <glyph glyph-name="D" unicode="D" horiz-adv-x="776" 
d="M729 356q0 -151 -108 -253.5t-263 -102.5h-260q-10 0 -10 10v693q0 10 10 10h260q156 0 263.5 -102.5t107.5 -254.5zM525 356q0 85 -51 131.5t-104 46.5h-69q-10 0 -10 -10v-336q0 -10 10 -10h69q53 0 104 46.5t51 131.5z" />
    <glyph glyph-name="E" unicode="E" horiz-adv-x="612" 
d="M544 179q10 0 10 -10v-159q0 -10 -10 -10h-456q-10 0 -10 10v693q0 10 10 10h446q10 0 10 -10v-159q0 -10 -10 -10h-243q-10 0 -10 -10v-72q0 -10 10 -10h176q10 0 10 -10v-159q0 -10 -10 -10h-176q-10 0 -10 -10v-64q0 -10 10 -10h253z" />
    <glyph glyph-name="F" unicode="F" horiz-adv-x="629" 
d="M301 239q-10 0 -10 -10v-219q0 -10 -10 -10h-183q-10 0 -10 10v693q0 10 10 10h464q10 0 10 -10v-159q0 -10 -10 -10h-261q-10 0 -10 -10v-96q0 -10 10 -10h156q10 0 10 -10v-159q0 -10 -10 -10h-156z" />
    <glyph glyph-name="G" unicode="G" horiz-adv-x="839" 
d="M777 404q10 0 10 -10v-37q0 -154 -93 -257t-245 -103q-149 0 -255 105.5t-106 254.5q0 150 99.5 254.5t247.5 104.5q124 0 212.5 -65.5t118.5 -166.5q3 -11 -5 -11l-169 -21q-12 -2 -18 8q-44 77 -126 77q-71 0 -114 -51t-43 -129q0 -79 46 -130t125 -51q56 0 88.5 26.5
t32.5 50.5q0 10 -9 10h-132q-10 0 -10 10v121q0 10 10 10h335z" />
    <glyph glyph-name="H" unicode="H" horiz-adv-x="826" 
d="M555 703q0 10 10 10h184q10 0 10 -10v-693q0 -10 -10 -10h-184q-10 0 -10 10v228q0 10 -10 10h-244q-10 0 -10 -10v-228q0 -10 -10 -10h-183q-10 0 -10 10v693q0 10 10 10h183q10 0 10 -10v-266q0 -10 10 -10h244q10 0 10 10v266z" />
    <glyph glyph-name="I" unicode="I" horiz-adv-x="339" 
d="M281 10q0 -10 -10 -10h-183q-10 0 -10 10v693q0 10 10 10h183q10 0 10 -10v-693z" />
    <glyph glyph-name="J" unicode="J" horiz-adv-x="675" 
d="M423 703q0 10 10 10h184q10 0 10 -10v-378v-6q0 -29 -0.5 -44.5t-2.5 -46t-6.5 -49t-14 -45.5t-23 -44t-34 -36.5t-47 -30.5t-63.5 -18.5t-81 -7.5q-72 0 -125.5 21.5t-81.5 51.5t-45 71.5t-21 71.5t-4 62q0 8 10 10l184 24q4 1 7 -2t3 -8q1 -70 13 -92q18 -30 60 -31
q13 0 23 1.5t17 6t12 8.5t8.5 13.5t5 15.5t2 21t0.5 23.5v28.5v31v378z" />
    <glyph glyph-name="K" unicode="K" horiz-adv-x="831" 
d="M553 0q-8 0 -13 6l-178 216q-7 9 -14 0l-52 -59q-5 -10 -5 -12v-141q0 -10 -10 -10h-183q-10 0 -10 10v693q0 10 10 10h183q10 0 10 -10v-261q0 -7 3.5 -8.5t8.5 3.5l235 270q4 6 12 6h214q6 0 8 -3.5t-2 -8.5l-285 -331q-6 -6 0 -14l286 -344q4 -4 2 -8t-8 -4h-212z" />
    <glyph glyph-name="L" unicode="L" horiz-adv-x="584" 
d="M516 179q10 0 10 -10v-159q0 -10 -10 -10h-428q-10 0 -10 10v693q0 10 10 10h183q10 0 10 -10v-514q0 -10 10 -10h225z" />
    <glyph glyph-name="M" unicode="M" horiz-adv-x="904" 
d="M727 707q4 6 13 6h97q10 0 10 -10v-693q0 -10 -10 -10h-184q-10 0 -10 10v214q0 7 -4 8.5t-8 -3.5l-157 -210q-7 -10 -14 0l-157 209q-4 5 -8 4t-4 -8v-214q0 -10 -10 -10h-183q-10 0 -10 10v693q0 10 10 10h97q9 0 13 -6l252 -373q6 -9 14 0z" />
    <glyph glyph-name="N" unicode="N" horiz-adv-x="767" 
d="M709 10q0 -10 -10 -10h-116q-7 0 -12 6l-268 307q-4 6 -8 4t-4 -9v-298q0 -10 -10 -10h-183q-10 0 -10 10v693q0 10 10 10h116q8 0 12 -6l267 -307q5 -5 8.5 -3.5t3.5 8.5v298q0 10 10 10h184q10 0 10 -10v-693z" />
    <glyph glyph-name="O" unicode="O" horiz-adv-x="874" 
d="M453 716q155 0 259.5 -102.5t104.5 -256.5t-104.5 -257t-259.5 -103t-260 103t-105 257t105 256.5t260 102.5zM453 537q-64 0 -113 -45t-49 -135t49 -135.5t113 -45.5q63 0 111.5 45.5t48.5 135.5t-48.5 135t-111.5 45z" />
    <glyph glyph-name="P" unicode="P" horiz-adv-x="741" 
d="M88 0q-10 0 -10 10v693q0 10 10 10h300q123 0 209.5 -76.5t86.5 -194.5t-86.5 -194.5t-209.5 -76.5h-97q-10 0 -10 -10v-151q0 -10 -10 -10h-183zM291 350h87q102 0 102 92t-102 92h-87q-10 0 -10 -10v-164q0 -10 10 -10z" />
    <glyph glyph-name="Q" unicode="Q" horiz-adv-x="906" 
d="M843 101q7 -6 2 -14l-108 -117q-11 -6 -14 0l-83 76q-85 -49 -187 -49q-155 0 -260 103t-105 257t105 256.5t260 102.5t259.5 -102.5t104.5 -256.5q0 -103 -50 -186zM453 176q23 0 41 5l-65 60q-7 4 -1 14l108 117q10 6 14 0l60 -56q3 20 3 41q0 90 -48.5 135t-111.5 45
q-64 0 -113 -45t-49 -135t49 -135.5t113 -45.5z" />
    <glyph glyph-name="R" unicode="R" horiz-adv-x="732" 
d="M88 0q-10 0 -10 10v693q0 10 10 10h322q108 0 186 -74.5t78 -182.5q0 -139 -119 -216q-8 -5 -3 -14l116 -214q3 -5 0.5 -8.5t-7.5 -3.5h-198q-9 0 -12 7l-95 185q-3 7 -12 7h-53q-10 0 -10 -10v-179q0 -10 -10 -10h-183zM291 377h87q43 0 67.5 23.5t24.5 55.5t-25.5 55
t-59.5 23h-94q-10 0 -10 -10v-137q0 -10 10 -10z" />
    <glyph glyph-name="S" unicode="S" horiz-adv-x="693" 
d="M373 -3q-56 0 -105 10.5t-93.5 34t-70.5 68.5t-26 107v2q0 12 11 14l170 21q15 2 15 -6q0 -40 30 -56t67 -16q70 0 70 40q0 20 -22.5 31t-81 24.5t-93.5 25.5q-77 27 -114.5 77t-37.5 130q0 104 73 158t184 54q52 0 97.5 -12.5t82.5 -37.5t58 -67t21 -97q0 -9 -10 -9
l-170 -22q-11 -2 -11 10q1 29 -21 42.5t-53 13.5q-47 0 -47 -38q0 -5 1.5 -9.5t5 -8t7 -6.5t11 -6t13 -5t16 -5t17 -4.5t19.5 -5t21 -5.5q72 -19 121 -46t73.5 -59.5t34 -64t9.5 -70.5q0 -97 -74.5 -152t-197.5 -55z" />
    <glyph glyph-name="T" unicode="T" horiz-adv-x="673" 
d="M628 713q10 0 10 -10v-159q0 -10 -10 -10h-169q-10 0 -10 -10v-514q0 -10 -10 -10h-184q-10 0 -10 10v514q0 10 -10 10h-170q-10 0 -10 10v159q0 10 10 10h563z" />
    <glyph glyph-name="U" unicode="U" horiz-adv-x="798" 
d="M537 703q0 10 10 10h184q10 0 10 -10v-396q0 -55 -15.5 -105.5t-50 -98.5t-101.5 -77t-159 -29t-159.5 29t-102 77t-50 98.5t-15.5 105.5v396q0 10 10 10h183q10 0 10 -10v-396q0 -67 33 -99t91 -32q116 0 122 131v396z" />
    <glyph glyph-name="V" unicode="V" horiz-adv-x="895" 
d="M505 7q-3 -7 -11 -7h-83q-9 0 -12 8l-330 693q-5 12 8 12h183q7 0 11 -8l175 -383q6 -12 14 0l174 383q5 8 11 8h184q13 0 8 -12z" />
    <glyph glyph-name="W" unicode="W" horiz-adv-x="1086" 
d="M392 7l146 321q5 12 7.5 15t5 0t7.5 -15l145 -321q3 -7 12 -7h91q9 0 12 8l219 694q3 11 -8 11h-184q-10 0 -12 -8l-76 -340q-7 -33 -20 0l-132 340q-3 8 -11 8h-93q-9 0 -12 -8l-132 -340q-11 -33 -20 0l-75 340q0 1 1 3q1 4 -4 4q-3 1 -9 1h-183q-11 0 -8 -11l217 -694
q3 -8 12 -8h92q9 0 12 7z" />
    <glyph glyph-name="X" unicode="X" horiz-adv-x="875" 
d="M820 713q6 0 8 -3.5t-2 -8.5l-255 -338q-5 -7 0 -14l255 -337q4 -5 2 -8.5t-8 -3.5h-212q-8 0 -13 6l-141 210q-7 10 -14 0l-140 -210q-4 -6 -13 -6h-212q-13 0 -6 12l254 337q5 7 0 14l-253 338q-7 12 6 12h211q9 0 13 -6l140 -197q7 -10 14 0l141 197q5 6 13 6h212z
" />
    <glyph glyph-name="Y" unicode="Y" horiz-adv-x="844" 
d="M798 713q6 0 8 -3.5t-2 -8.5l-272 -378q0 -1 -2 -5.5t-2 -7.5v-300q0 -10 -10 -10h-183q-10 0 -10 10v300q0 8 -4 13l-271 378q-3 5 -1.5 8.5t7.5 3.5h202q8 0 12 -6l150 -211q7 -11 14 0l150 211q5 6 12 6h202z" />
    <glyph glyph-name="Z" unicode="Z" horiz-adv-x="755" 
d="M677 713q10 0 10 -10v-91q0 -7 -4 -12l-303 -408q-4 -4 -2 -8.5t8 -4.5h291q10 0 10 -10v-159q0 -10 -10 -10h-579q-10 0 -10 10v91q0 8 4 13l301 407q4 5 2 9t-8 4h-289q-10 0 -10 10v159q0 10 10 10h579z" />
    <glyph glyph-name="bracketleft" unicode="[" horiz-adv-x="392" 
d="M355 604q0 -10 -10 -10h-74q-10 0 -10 -10v-602q0 -10 10 -10h74q10 0 10 -10v-159q0 -10 -10 -10h-277q-10 0 -10 10v961q0 10 10 10l277 -1q10 0 10 -10v-159z" />
    <glyph glyph-name="backslash" unicode="\" horiz-adv-x="625" 
d="M400 -40q-8 0 -11 7l-365 774q-5 12 7 12h204q8 0 11 -7l365 -774q5 -12 -7 -12h-204z" />
    <glyph glyph-name="bracketright" unicode="]" horiz-adv-x="392" 
d="M58 604v159q0 10 10 10l277 1q10 0 10 -10v-961q0 -10 -10 -10h-277q-10 0 -10 10v159q0 10 10 10h73q10 0 10 10v602q0 10 -10 10h-73q-10 0 -10 10z" />
    <glyph glyph-name="asciicircum" unicode="^" horiz-adv-x="755" 
d="M319 696q1 5 10 5h119q8 0 10 -5l231 -383q2 -7 -6 -7h-162q-7 0 -10 5l-117 190q-6 10 -10 0l-118 -190q-1 -5 -10 -5h-161q-9 0 -6 7z" />
    <glyph glyph-name="underscore" unicode="_" horiz-adv-x="915" 
d="M868 -166q0 -10 -10 -10h-780q-10 0 -10 10v122q0 10 10 10h780q10 0 10 -10v-122z" />
    <glyph glyph-name="grave" unicode="`" horiz-adv-x="600" 
d="M274 746l68 -137q5 -12 -8 -12h-119q-8 0 -12 6l-101 138q-4 5 -2 8.5t8 3.5h154q11 0 12 -7z" />
    <glyph glyph-name="a" unicode="a" horiz-adv-x="539" 
d="M297 530q57 0 98.5 -15.5t64 -38t35 -57.5t16 -64.5t3.5 -67.5v-279q0 -8 -8 -8h-176q-8 0 -8 8v38q0 5 -3 6.5t-6 -2.5q-49 -53 -115 -53q-65 0 -107.5 38.5t-42.5 105.5q0 49 23 86t63.5 57.5t84 31.5t95.5 14q8 0 8 9q0 42 -69 42q-79 0 -132 -26q-8 -5 -10 4l-19 108
q-1 5 4 10q82 53 201 53zM282 133q10 0 18 2.5t12 5.5t4 5q6 6 6 11v47q0 8 -8 8q-10 0 -18.5 -1.5t-14.5 -3.5t-10.5 -5t-7.5 -6.5t-5 -7.5t-3 -7t-1.5 -7t-0.5 -6v-5v-3q0 -10 6.5 -18.5t22.5 -8.5z" />
    <glyph glyph-name="b" unicode="b" horiz-adv-x="624" 
d="M377 -3q-66 0 -116 55q-3 3 -5.5 3.5t-4 -1.5t-1.5 -5v-41q0 -8 -8 -8h-176q-8 0 -8 8v737q0 8 8 8h176q8 0 8 -8v-266q0 -6 2.5 -8t5.5 2q52 57 119 57q104 0 163 -79t59 -187t-59 -187.5t-163 -79.5zM323 381q-11 0 -19.5 -1.5t-17.5 -6t-12 -6.5t-12.5 -9.5
t-11.5 -8.5v-171q2 -1 8 -6t8.5 -7t8 -6t10 -5.5l10.5 -3.5t13 -3t15 -1q26 0 44 12.5t26 33t11 37.5t3 35q0 17 -3 34.5t-11 37.5t-26 32.5t-44 12.5z" />
    <glyph glyph-name="c" unicode="c" horiz-adv-x="575" 
d="M544 196q6 -2 4 -11q-5 -68 -70 -128t-178 -60q-117 0 -191 77t-74 190t74 189.5t191 76.5q113 0 178.5 -59.5t69.5 -127.5q3 -11 -4 -13l-164 -21q-11 -2 -11 7q-14 65 -65 65q-76 0 -76 -117q0 -118 76 -118q48 0 65 64q1 8 11 7z" />
    <glyph glyph-name="d" unicode="d" horiz-adv-x="612" 
d="M268 -3q-104 0 -163.5 79.5t-59.5 187.5t59.5 187t163.5 79q64 0 116 -55q4 -5 7 -3.5t3 7.5v266q0 8 9 8h176q8 0 8 -8v-737q0 -8 -8 -8h-177q-8 0 -8 8v41q0 3 -1.5 5t-4 1.5t-4.5 -3.5q-52 -55 -116 -55zM322 381q-26 0 -44.5 -12.5t-26 -33t-10.5 -37t-3 -34.5t3 -35
t10.5 -37.5t26 -33t44.5 -12.5q9 0 17.5 1.5t13 3t12.5 6t10 6t10 8.5t9 7v171q-1 0 -9 7t-10 8.5t-10 6t-12.5 6t-13 3t-17.5 1.5z" />
    <glyph glyph-name="e" unicode="e" horiz-adv-x="570" 
d="M555 267v-52q0 -8 -8 -8h-302q-6 0 -6 -8q0 -22 14.5 -35t26.5 -15.5t22 -2.5q42 0 61 25q3 7 10 5l164 -21q9 -2 6 -9q-21 -64 -82.5 -106.5t-154.5 -42.5q-130 0 -200.5 75.5t-70.5 191.5q0 113 71.5 189.5t188.5 76.5q124 0 192 -76t68 -187zM295 394q-54 0 -55 -54
q0 -10 5 -10h98q8 0 8 7q0 32 -14.5 44.5t-41.5 12.5z" />
    <glyph glyph-name="f" unicode="f" horiz-adv-x="473" 
d="M369 607q-55 0 -56 -73q0 -7 8 -7h102q8 0 8 -8v-133q0 -8 -8 -8h-102q-8 0 -8 -8v-362q0 -8 -8 -8h-176q-8 0 -8 8v362q0 8 -8 8h-57q-8 0 -8 8v133q0 8 8 8h57q8 0 8 8v10q0 97 44 154t140 57q89 0 139 -47q4 -4 3 -10l-20 -105q-1 -9 -10 -4q-28 17 -48 17z" />
    <glyph glyph-name="g" unicode="g" horiz-adv-x="629" 
d="M584 527q8 0 8 -8v-493q0 -99 -78.5 -167.5t-184.5 -68.5q-136 0 -235 54q-7 2 -5 9l20 109q0 11 9 6q75 -29 160 -29q25 0 42 2t37.5 10t31 27t10.5 48v23q0 3 -1.5 5t-4 1.5t-4.5 -3.5q-52 -55 -116 -55q-104 0 -163.5 79.5t-59.5 187.5t59.5 187t163.5 79
q64 0 116 -55q4 -5 7 -3.5t3 7.5v40q0 8 8 8h177zM327 146q11 0 19.5 1.5t16.5 6t12 6.5t13 9.5t11 8.5v171q-2 1 -11 8.5t-13 9.5t-12 6.5t-16.5 6t-19.5 1.5q-26 0 -44.5 -12.5t-26 -33t-10.5 -37t-3 -34.5t3 -35t10.5 -37.5t26 -33t44.5 -12.5z" />
    <glyph glyph-name="h" unicode="h" horiz-adv-x="625" 
d="M53 0q-8 0 -8 8v737q0 8 8 8h177q8 0 8 -8v-282q0 -3 1.5 -5t3.5 -1.5t4 3.5q60 70 139 70q105 0 159.5 -68t54.5 -167v-287q0 -8 -8 -8h-177q-8 0 -8 8v289q0 40 -23 62t-62 22q-38 0 -64.5 -28.5t-19.5 -68.5v-276q0 -8 -8 -8h-177z" />
    <glyph glyph-name="i" unicode="i" horiz-adv-x="265" 
d="M136 574q-43 0 -74 31t-31 74t31 74t74 31q44 0 74.5 -30.5t30.5 -74.5t-30.5 -74.5t-74.5 -30.5zM40 519q0 8 8 8h177q8 0 8 -8v-511q0 -8 -8 -8h-177q-8 0 -8 8v511z" />
    <glyph glyph-name="j" unicode="j" horiz-adv-x="292" 
d="M161 574q-43 0 -74 31t-31 74t31 74t74 31t74 -31t31 -74t-31 -74t-74 -31zM257 519v-486q0 -110 -46 -176.5t-149 -66.5q-96 0 -143 49q-4 4 -3 9l20 107q2 12 10 2q18 -18 53 -18q65 0 65 96v484q0 8 8 8h176q9 0 9 -8z" />
    <glyph glyph-name="k" unicode="k" horiz-adv-x="702" 
d="M444 0q-7 0 -10 5l-136 179q-5 7 -11 1l-33 -37q-4 -4 -4 -10v-130q0 -8 -8 -8h-176q-8 0 -8 8v737q0 8 8 8h176q8 0 8 -8v-355q0 -5 3 -7t7 2l142 138q4 4 10 4h243q5 0 6.5 -3t-2.5 -7l-222 -212q-5 -6 -1 -11l226 -284q8 -10 -4 -10h-214z" />
    <glyph glyph-name="l" unicode="l" horiz-adv-x="263" 
d="M45 745q0 8 8 8h177q8 0 8 -8v-737q0 -8 -8 -8h-177q-8 0 -8 8v737z" />
    <glyph glyph-name="m" unicode="m" horiz-adv-x="979" 
d="M738 530q100 0 149 -64.5t55 -173.5v-284q0 -8 -8 -8h-177q-8 0 -8 8v284q0 46 -18 67.5t-56 21.5t-58.5 -29.5t-19.5 -73.5v-270q0 -8 -8 -8h-176q-8 0 -8 8v284q0 55 -18.5 72t-56.5 17q-40 0 -61.5 -34t-18.5 -85v-254q0 -8 -8 -8h-176q-8 0 -8 8v511q0 8 8 8h176
q8 0 8 -8v-58q0 -5 3 -6.5t6 2.5q54 73 135 73q124 0 172 -98q6 -8 8 -4q20 41 64 71.5t100 30.5z" />
    <glyph glyph-name="n" unicode="n" horiz-adv-x="622" 
d="M53 0q-8 0 -8 8v511q0 8 8 8h177q8 0 8 -8v-56q0 -3 1.5 -5t3.5 -1.5t4 3.5q27 31 68.5 50.5t83.5 19.5q198 0 198 -223v-299q0 -8 -8 -8h-176q-8 0 -8 8v289q0 84 -83 84q-36 0 -59 -27.5t-25 -69.5v-276q0 -8 -8 -8h-177z" />
    <glyph glyph-name="o" unicode="o" horiz-adv-x="608" 
d="M314 -3q-125 0 -202 77t-77 190t77 189.5t202 76.5q124 0 201.5 -76.5t77.5 -189.5t-77.5 -190t-201.5 -77zM314 381q-43 0 -64.5 -32t-21.5 -85q0 -52 22 -85t64 -33t64.5 33t22.5 85t-22.5 84.5t-64.5 32.5z" />
    <glyph glyph-name="p" unicode="p" horiz-adv-x="614" 
d="M364 530q104 0 163.5 -79t59.5 -187t-59.5 -187.5t-163.5 -79.5q-64 0 -116 55q-2 3 -4.5 3.5t-4 -1.5t-1.5 -5v-248q0 -8 -9 -8h-176q-8 0 -8 8v718q0 8 8 8h177q8 0 8 -8v-40q0 -6 2.5 -8t5.5 2q50 57 118 57zM310 146q26 0 44.5 12.5t26 33t10.5 37.5t3 35t-3 34.5
t-10.5 37t-26 33t-44.5 12.5q-9 0 -17.5 -1.5t-13 -3t-12.5 -6t-10 -6t-10 -8.5t-9 -7v-171l6 -4l6 -6t6 -5t7.5 -5t7 -3.5t8.5 -3.5t9 -2.5t10.5 -2t11.5 -0.5z" />
    <glyph glyph-name="q" unicode="q" horiz-adv-x="637" 
d="M591 527q8 0 8 -8v-718q0 -8 -8 -8h-176q-8 0 -8 8v248q0 3 -1.5 5t-4.5 1.5t-5 -3.5q-50 -55 -116 -55q-104 0 -163 79.5t-59 187.5t59 187t163 79q66 0 116 -55q4 -5 7.5 -3.5t3.5 7.5v40q0 8 8 8h176zM334 146q9 0 17 1.5t13.5 3t12.5 6t10 6.5t10.5 7.5t9.5 7.5v171
q-2 2 -9.5 7.5t-10.5 7.5t-10 6.5t-12.5 6t-13.5 3t-17 1.5q-26 0 -44 -12.5t-26 -32.5t-11 -37.5t-3 -34.5q0 -18 3 -35t11 -37.5t26 -33t44 -12.5z" />
    <glyph glyph-name="r" unicode="r" horiz-adv-x="483" 
d="M450 508q7 -3 5 -10l-46 -172q-2 -8 -10 -5q-5 5 -21.5 11.5t-34.5 6.5q-105 0 -105 -138v-193q0 -8 -8 -8h-177q-8 0 -8 8v511q0 8 8 8h177q8 0 8 -8v-69q0 -6 3 -7t5 4q44 83 126 83q16 0 30.5 -3t22 -6t16.5 -8z" />
    <glyph glyph-name="s" unicode="s" horiz-adv-x="563" 
d="M310 -3q-71 0 -127.5 14.5t-95.5 51t-39 92.5q0 11 7 11l166 22q9 2 9 -3q0 -17 20.5 -28t46.5 -11q46 0 46 20q0 8 -5.5 13.5t-16.5 9.5t-22.5 6.5t-30.5 6.5t-34 8q-87 25 -124 69t-37 93q0 70 59 114t156 44q99 0 166 -49t67 -109q0 -5 -8 -7l-165 -22q-3 -1 -5 1
t-2 6q0 13 -14 22t-33 9q-29 0 -29 -18q0 -12 11.5 -19t52.5 -19q96 -28 151 -67.5t55 -108.5q0 -55 -33.5 -90t-81.5 -48.5t-110 -13.5z" />
    <glyph glyph-name="t" unicode="t" horiz-adv-x="474" 
d="M449 46q1 -7 -3 -10q-58 -39 -169 -39q-48 0 -79.5 16.5t-47.5 48.5t-22 68t-6 87v153q0 8 -8 8h-61q-8 0 -8 8v133q0 8 8 8h61q8 0 8 8v110q0 8 7 9l177 22q4 1 6 -1.5t2 -6.5v-133q0 -8 8 -8h115q8 0 8 -8v-133q0 -8 -8 -8h-115q-8 0 -8 -8v-153q0 -71 51 -71
q31 0 53 8q1 0 3 1q3 2 4.5 1.5t2.5 -4.5z" />
    <glyph glyph-name="u" unicode="u" horiz-adv-x="622" 
d="M602 527q8 0 8 -8v-511q0 -8 -8 -8h-177q-8 0 -8 8v56q0 3 -1.5 5t-3.5 1.5t-4 -3.5q-27 -31 -68.5 -50.5t-83.5 -19.5q-198 0 -198 223v299q0 8 8 8h176q8 0 8 -8v-289q0 -42 21.5 -63t60.5 -21q37 0 59.5 27.5t25.5 69.5v276q0 8 8 8h177z" />
    <glyph glyph-name="v" unicode="v" horiz-adv-x="665" 
d="M395 6q-3 -6 -10 -6h-94q-7 0 -10 6l-244 512q-4 9 6 9h180q8 0 10 -6l99 -247q5 -10 10 0l100 247q2 6 10 6h179q10 0 6 -9z" />
    <glyph glyph-name="w" unicode="w" horiz-adv-x="989" 
d="M765 520q2 7 9 7h180q10 0 6 -9l-221 -512q-2 -6 -10 -6h-94q-8 0 -10 6l-121 245q-4 10 -10 0l-119 -245q-2 -6 -10 -6h-94q-8 0 -10 6l-222 512q-4 9 6 9h179q9 0 9 -7l79 -246q6 -12 11 0l101 247q2 6 9 6h133q7 0 9 -6l100 -247q6 -14 11 0z" />
    <glyph glyph-name="x" unicode="x" horiz-adv-x="736" 
d="M702 527q12 0 4 -10l-212 -247q-6 -6 0 -12l212 -248q8 -10 -4 -10h-209q-7 0 -10 5l-100 139q-6 8 -12 0l-101 -139q-3 -5 -10 -5h-205q-12 0 -4 10l211 248q4 6 0 12l-211 247q-8 10 4 10h205q7 0 10 -5l101 -138q6 -8 12 0l100 138q3 5 10 5h209z" />
    <glyph glyph-name="y" unicode="y" horiz-adv-x="623" 
d="M403 521q1 6 9 6h187q10 0 6 -9l-194 -521q-42 -112 -90 -159.5t-129 -47.5q-40 0 -74.5 19t-52.5 52q-3 7 -2 11l19 106q2 13 10 3q32 -30 61 -30q37 0 56 16.5t33 51.5q2 4 0 10l-193 489q-3 9 6 9h186q7 0 9 -6l69 -249q1 -3 3 -4.5t4.5 0t2.5 4.5z" />
    <glyph glyph-name="z" unicode="z" horiz-adv-x="564" 
d="M539 435q0 -4 -4 -10l-233 -265q-8 -10 4 -10h225q8 0 8 -8v-133q0 -8 -8 -8h-490q-8 0 -8 8v84q0 4 4 10l235 265q8 10 -4 10h-227q-8 0 -8 8v133q0 8 8 8h490q8 0 8 -8v-84z" />
    <glyph glyph-name="braceleft" unicode="{" horiz-adv-x="459" 
d="M419 -178q2 -11 -10 -11q-44 0 -72 1.5t-66 6t-61.5 15t-46.5 27.5t-33.5 45t-10.5 66q0 11 2.5 46t2.5 62t-3.5 58t-16.5 50t-36 22q-10 1 -10 12v89q0 10 10 11q23 4 36 23t16.5 50t3.5 57.5t-2.5 61.5t-2.5 46q0 189 290 193q13 0 11 -11l-21 -158q-1 -10 -12 -10
q-34 -2 -53 -14t-22 -32t-1 -39t7 -43t5 -35q0 -42 -21 -89.5t-57 -59.5q-5 -2 -5 -7.5t5 -7.5q36 -14 57 -60.5t21 -87.5q0 -12 -5 -31.5t-7 -33t1 -27t21.5 -21.5t53.5 -9q11 0 12 -9z" />
    <glyph glyph-name="bar" unicode="|" horiz-adv-x="359" 
d="M98 -207q-10 0 -10 10v980q0 10 10 10h183q10 0 10 -10v-980q0 -10 -10 -10h-183z" />
    <glyph glyph-name="braceright" unicode="}" horiz-adv-x="445" 
d="M59 -178l20 146q1 9 11 9q35 1 53.5 9t22 21.5t1.5 27t-7 33t-5 31.5q0 41 21 87.5t57 60.5q5 2 5 7.5t-5 7.5q-36 12 -57 59.5t-21 89.5q0 11 5 35t7 43t-1.5 39t-22 32t-53.5 14q-10 0 -11 10l-21 158q-2 11 10 11q290 -4 290 -193q0 -11 -2.5 -46t-2.5 -61.5t4 -57.5
t17 -50t36 -23q10 -1 10 -11v-89q0 -11 -10 -12q-23 -3 -36 -22t-17 -50.5t-4 -58t2.5 -61.5t2.5 -46q0 -38 -10.5 -66t-33.5 -45t-46.5 -27.5t-61.5 -15t-66 -6t-72 -1.5q-11 0 -9 11z" />
    <glyph glyph-name="asciitilde" unicode="~" horiz-adv-x="593" 
d="M391 206q-38 0 -66.5 18t-50 35.5t-41.5 17.5q-19 0 -37 -11t-26 -30q-3 -7 -11 -5l-65 18q-7 1 -7 10q36 167 146 167q34 0 62 -18t51 -35.5t45 -17.5q50 0 63 40q3 7 10 7l64 -19q11 -2 8 -12q-5 -23 -8.5 -35.5t-15 -40.5t-25.5 -44.5t-39.5 -30.5t-56.5 -14z" />
    <glyph glyph-name="exclamdown" unicode="&#xa1;" horiz-adv-x="439" 
d="M229 549q43 0 74 -31t31 -74q0 -44 -30.5 -74.5t-74.5 -30.5q-43 0 -74 30.5t-31 74.5q0 43 31 74t74 31zM137 -207h184q10 0 10 10l-18 461q0 10 -10 10h-148q-10 0 -10 -10l-18 -461q0 -10 10 -10z" />
    <glyph glyph-name="cent" unicode="&#xa2;" horiz-adv-x="554" 
d="M531 196q7 -2 5 -11q-4 -54 -49 -107t-124 -72v-96q0 -10 -10 -10h-84q-10 0 -10 10v88q-106 10 -171 85t-65 181t65 180.5t171 84.5v88q0 10 10 10h84q10 0 10 -10v-96q79 -19 124.5 -71.5t48.5 -106.5q3 -11 -5 -13l-164 -21q-9 -1 -11 7q-14 65 -65 65
q-37 0 -56.5 -31t-19.5 -86t19.5 -86.5t56.5 -31.5q50 0 65 64q3 8 11 7z" />
    <glyph glyph-name="sterling" unicode="&#xa3;" horiz-adv-x="653" 
d="M609 179q11 0 9 -11l-20 -159q-2 -9 -11 -9h-499q-10 0 -10 10v157q0 11 10 11q19 -1 30 5t15 23.5t5 30.5t1 43q0 4 -0.5 11.5t-0.5 10.5h-65q-9 0 -9 5v80q0 5 9 5h40q-20 53 -20 124q0 84 74.5 142t173.5 58q109 0 176 -61.5t90 -149.5q2 -9 -8 -11l-171 -21
q-9 0 -12 8q-14 56 -63 56q-21 0 -39 -17t-18 -44q0 -34 22 -84h128q9 0 9 -5v-80q0 -5 -9 -5h-104q0 -2 0.5 -6t0.5 -6q0 -67 -39 -100q-11 -11 4 -11h301z" />
    <glyph glyph-name="currency" unicode="&#xa4;" horiz-adv-x="642" 
d="M590 373q0 -113 -78 -190t-202 -77q-79 0 -138 32l-47 -47q-7 -7 -14 0l-60 59q-7 7 0 14l40 39q-59 71 -59 170q0 98 59 169l-40 40q-7 7 0 14l60 59q6 8 14 0l47 -47q60 31 138 31q124 0 202 -76.5t78 -189.5zM565 531q-6 -8 -1 -15l-88 85q8 -5 14 1l53 53q7 7 14 0
l58 -60q8 -6 0 -14zM224 373q0 -52 22 -85t64 -33t64.5 33t22.5 85q0 53 -22 85t-65 32q-42 0 -64 -32.5t-22 -84.5zM565 215l50 -51q7 -7 0 -14l-59 -60q-8 -6 -14 0l-51 51q-6 6 -14 2l87 86q-4 -9 1 -14z" />
    <glyph glyph-name="yen" unicode="&#xa5;" horiz-adv-x="869" 
d="M786 713q6 0 8 -3.5t-2 -8.5l-250 -347h100q10 0 10 -5v-79q0 -5 -10 -5h-126v-51h126q10 0 10 -5v-79q0 -5 -10 -5h-126v-115q0 -10 -10 -10h-184q-10 0 -10 10v115h-127q-11 0 -11 5v79q0 5 11 5h127v51h-127q-11 0 -11 5v79q0 5 11 5h101l-249 347q-3 5 -1.5 8.5
t7.5 3.5h202q8 0 12 -6l150 -211q7 -11 14 0l150 211q5 6 12 6h203z" />
    <glyph glyph-name="dieresis" unicode="&#xa8;" horiz-adv-x="600" 
d="M153 578q-43 0 -74 31t-31 74q0 44 31 74.5t74 30.5q44 0 74.5 -30.5t30.5 -74.5q0 -43 -30.5 -74t-74.5 -31zM412 578q-43 0 -74 31t-31 74q0 44 30.5 74.5t74.5 30.5t74.5 -30.5t30.5 -74.5q0 -43 -31 -74t-74 -31z" />
    <glyph glyph-name="copyright" unicode="&#xa9;" horiz-adv-x="874" 
d="M453 716q-159 0 -262 -98.5t-103 -260.5t103 -261t262 -99q157 0 260.5 99t103.5 261q0 161 -103.5 260t-260.5 99zM454 654q50 0 100 -18t94.5 -52.5t72.5 -93.5t28 -133t-28 -133.5t-72.5 -93.5t-94.5 -52t-100 -18q-51 0 -102 18t-95.5 52t-73 93.5t-28.5 133.5
t28.5 133t73 93.5t95.5 52.5t102 18zM538 266q4 7 9 0l65 -72q2 -1 2 -3.5t-2 -3.5q-64 -57 -152 -57q-98 0 -168 67t-70 160q0 92 70 158.5t168 66.5q87 0 152 -57q5 -2 0 -7l-65 -72q-5 -4 -9 0q-24 27 -78 27q-39 0 -76.5 -29t-37.5 -87q0 -60 37.5 -89t76.5 -29
q55 0 78 27z" />
    <glyph glyph-name="guillemotleft" unicode="&#xab;" horiz-adv-x="658" 
d="M137 465q1 7 12 7h180q14 0 7 -12l-99 -163q-3 -7 0 -14l100 -167q3 -5 0.5 -8.5t-8.5 -3.5h-180q-11 0 -12 7l-90 172q-3 7 0 14zM397 465q1 7 12 7h180q14 0 7 -12l-99 -163q-3 -7 0 -14l100 -167q3 -5 0.5 -8.5t-8.5 -3.5h-180q-11 0 -12 7l-90 172q-3 7 0 14z" />
    <glyph glyph-name="logicalnot" unicode="&#xac;" horiz-adv-x="641" 
d="M573 443q10 0 10 -10v-304q0 -10 -10 -10h-184q-10 0 -10 10v125q0 10 -10 10h-271q-10 0 -10 10v159q0 10 10 10h475z" />
    <glyph glyph-name="registered" unicode="&#xae;" horiz-adv-x="874" 
d="M453 716q-159 0 -262 -98.5t-103 -260.5t103 -261t262 -99q157 0 260.5 99t103.5 261q0 161 -103.5 260t-260.5 99zM454 654q50 0 100 -18t94.5 -52.5t72.5 -93.5t28 -133t-28 -133.5t-72.5 -93.5t-94.5 -52t-100 -18q-51 0 -102 18t-95.5 52t-73 93.5t-28.5 133.5
t28.5 133t73 93.5t95.5 52.5t102 18zM314 176q-5 0 -5 5v351q0 5 5 5h165q55 0 94 -38t39 -93q0 -71 -60 -109q-2 -1 -2.5 -3.5t0.5 -3.5l60 -108q2 -6 -4 -6h-99q-5 0 -5 3l-49 93q-2 4 -6 4h-32q-5 0 -5 -6v-89q0 -5 -4 -5h-92zM419 365h46q22 0 35 12.5t13 28.5
q0 17 -13 29.5t-31 12.5h-50q-5 0 -5 -5v-73q0 -5 5 -5z" />
    <glyph glyph-name="macron" unicode="&#xaf;" horiz-adv-x="600" 
d="M100 705q0 8 8 8h264q8 0 8 -8v-114q0 -8 -8 -8h-264q-8 0 -8 8v114z" />
    <glyph glyph-name="degree" unicode="&#xb0;" horiz-adv-x="380" 
d="M186 401q-65 0 -111.5 46t-46.5 111t46.5 111.5t111.5 46.5q66 0 111.5 -46t45.5 -112q0 -65 -45.5 -111t-111.5 -46zM186 617q-18 0 -33 -14t-15 -45q0 -30 15 -44.5t33 -14.5q17 0 32 14.5t15 44.5q0 31 -15 45t-32 14z" />
    <glyph glyph-name="plusminus" unicode="&#xb1;" horiz-adv-x="637" 
d="M439 260q-10 0 -10 -10v-56h126q11 0 11 -10v-158q0 -10 -11 -10h-457q-11 0 -11 10v158q0 10 11 10h127v56q0 10 -10 10h-117q-10 0 -10 10v159q0 10 10 10h117q10 0 10 10v130q0 10 10 10h184q10 0 10 -10v-130q0 -10 10 -10h117q10 0 10 -10v-159q0 -10 -10 -10h-117z
" />
    <glyph glyph-name="acute" unicode="&#xb4;" horiz-adv-x="600" 
d="M168 746q3 7 12 7h155q6 0 8 -3.5t-2 -8.5l-101 -138q-4 -6 -12 -6h-119q-6 0 -8.5 3.5t0.5 8.5z" />
    <glyph glyph-name="periodcentered" unicode="&#xb7;" horiz-adv-x="484" 
d="M273 209q-43 0 -74 31t-31 74q0 44 30.5 74.5t74.5 30.5t74.5 -30.5t30.5 -74.5q0 -43 -31 -74t-74 -31z" />
    <glyph glyph-name="cedilla" unicode="&#xb8;" horiz-adv-x="600" 
d="M182 -210q-51 0 -84 19q-5 3 -5 9l-1 49q0 4 2.5 6t6.5 1q16 -4 47 -4q44 0 44 23q0 33 -45 33q-19 0 -35 -8q-5 -2 -7.5 0t-0.5 7l40 97h110l-11 -56q-1 -9 7 -9q61 -16 61 -74q0 -37 -42.5 -65t-86.5 -28z" />
    <glyph glyph-name="guillemotright" unicode="&#xbb;" horiz-adv-x="646" 
d="M271 465l90 -168q3 -7 0 -14l-90 -172q-1 -7 -12 -7h-180q-6 0 -8.5 3.5t0.5 8.5l100 167q3 7 0 14l-99 163q-7 12 7 12h180q11 0 12 -7zM531 465l90 -168q3 -7 0 -14l-90 -172q-1 -7 -12 -7h-180q-6 0 -8.5 3.5t0.5 8.5l100 167q3 7 0 14l-99 163q-7 12 7 12h180
q11 0 12 -7z" />
    <glyph glyph-name="questiondown" unicode="&#xbf;" horiz-adv-x="581" 
d="M331 549q43 0 74 -31t31 -74q0 -44 -31 -74.5t-74 -30.5q-44 0 -74.5 30.5t-30.5 74.5q0 43 30.5 74t74.5 31zM412 274q10 0 10 -10q3 -48 -11 -88t-36 -65.5t-45 -45t-39.5 -36t-16.5 -29.5q0 -16 7 -23t11.5 -7.5t17.5 -0.5q7 0 16 3t20 14.5t16 30.5q2 9 13 7l184 -22
q10 -2 8 -11q-23 -89 -94.5 -145t-168.5 -56q-107 0 -170.5 49t-63.5 148q0 40 19 73.5t45.5 55.5t52.5 42.5t42.5 47t13.5 58.5q-2 10 10 10h159z" />
    <glyph glyph-name="Agrave" unicode="&#xc0;" horiz-adv-x="864" 
d="M429 932l67 -137q3 -5 0.5 -8.5t-8.5 -3.5h-118q-8 0 -12 6l-101 138q-4 5 -2 8.5t8 3.5h154q9 0 12 -7zM385 706q3 7 12 7h81q9 0 12 -7l326 -694q5 -12 -7 -12h-175q-9 0 -12 7l-38 75q-3 7 -11 7h-272q-9 0 -12 -7l-38 -75q-3 -7 -11 -7h-174q-12 0 -7 12zM378 280
q-5 -12 7 -12h104q12 0 7 12l-51 109q-2 5 -7 5t-7 -5z" />
    <glyph glyph-name="Aacute" unicode="&#xc1;" horiz-adv-x="864" 
d="M453 932q3 7 12 7h155q6 0 8 -3.5t-2 -8.5l-101 -138q-4 -6 -12 -6h-119q-6 0 -8.5 3.5t0.5 8.5zM385 706q3 7 12 7h81q9 0 12 -7l326 -694q5 -12 -7 -12h-175q-9 0 -12 7l-38 75q-3 7 -11 7h-272q-9 0 -12 -7l-38 -75q-3 -7 -11 -7h-174q-12 0 -7 12zM378 280
q-5 -12 7 -12h104q12 0 7 12l-51 109q-2 5 -7 5t-7 -5z" />
    <glyph glyph-name="Acircumflex" unicode="&#xc2;" horiz-adv-x="864" 
d="M291 878q0 7 8 12l130 61q7 3 14 0l130 -61q8 -5 8 -12v-106q0 -13 -12 -8l-126 59q-7 3 -14 0l-126 -59q-12 -5 -12 8v106zM385 706q3 7 12 7h81q9 0 12 -7l326 -694q5 -12 -7 -12h-175q-9 0 -12 7l-38 75q-3 7 -11 7h-272q-9 0 -12 -7l-38 -75q-3 -7 -11 -7h-174
q-12 0 -7 12zM378 280q-5 -12 7 -12h104q12 0 7 12l-51 109q-2 5 -7 5t-7 -5z" />
    <glyph glyph-name="Atilde" unicode="&#xc3;" horiz-adv-x="864" 
d="M522 757q-30 0 -55 11t-38.5 24.5t-30.5 24.5t-34 11q-19 0 -37 -11t-26 -30q-3 -7 -11 -5l-65 18q-7 1 -7 10q36 167 146 167q27 0 51 -11t38 -24.5t32.5 -24.5t36.5 -11q50 0 63 40q3 7 10 7l64 -19q11 -2 8 -12q-5 -23 -8.5 -35.5t-15 -40.5t-25.5 -44.5t-39.5 -30.5
t-56.5 -14zM385 706q3 7 12 7h81q9 0 12 -7l326 -694q5 -12 -7 -12h-175q-9 0 -12 7l-38 75q-3 7 -11 7h-272q-9 0 -12 -7l-38 -75q-3 -7 -11 -7h-174q-12 0 -7 12zM378 280q-5 -12 7 -12h104q12 0 7 12l-51 109q-2 5 -7 5t-7 -5z" />
    <glyph glyph-name="Adieresis" unicode="&#xc4;" horiz-adv-x="864" 
d="M312 764q-43 0 -74 31t-31 74q0 44 30.5 74.5t74.5 30.5t74.5 -30.5t30.5 -74.5q0 -43 -31 -74t-74 -31zM570 764q-43 0 -74 31t-31 74q0 44 30.5 74.5t74.5 30.5t74.5 -30.5t30.5 -74.5q0 -43 -31 -74t-74 -31zM385 706q3 7 12 7h81q9 0 12 -7l326 -694q5 -12 -7 -12
h-175q-9 0 -12 7l-38 75q-3 7 -11 7h-272q-9 0 -12 -7l-38 -75q-3 -7 -11 -7h-174q-12 0 -7 12zM378 280q-5 -12 7 -12h104q12 0 7 12l-51 109q-2 5 -7 5t-7 -5z" />
    <glyph glyph-name="Aring" unicode="&#xc5;" horiz-adv-x="864" 
d="M436 792q-31 0 -53 22t-22 53t21.5 53t53.5 22q31 0 53 -22t22 -53t-22 -53t-53 -22zM436 887q-20 0 -20 -20t20 -20t20 20t-20 20zM385 706q3 7 12 7h81q9 0 12 -7l326 -694q5 -12 -7 -12h-175q-9 0 -12 7l-38 75q-3 7 -11 7h-272q-9 0 -12 -7l-38 -75q-3 -7 -11 -7
h-174q-12 0 -7 12zM378 280q-5 -12 7 -12h104q12 0 7 12l-51 109q-2 5 -7 5t-7 -5z" />
    <glyph glyph-name="AE" unicode="&#xc6;" horiz-adv-x="1111" 
d="M1043 179q10 0 10 -10v-159q0 -10 -10 -10h-454q-10 0 -10 10v69q0 10 -10 10h-187q-10 0 -12 -6l-60 -77q-2 -6 -12 -6h-232q-6 0 -8 4t2 8l511 695q4 6 12 6h450q10 0 10 -10v-159q0 -10 -10 -10h-240q-10 0 -10 -10v-76q0 -10 10 -10h148q10 0 10 -10v-159
q0 -10 -10 -10h-148q-10 0 -10 -10v-60q0 -10 10 -10h250zM497 280q-3 -4 -1 -8t8 -4h65q10 0 10 10v95q0 7 -4 8t-8 -5z" />
    <glyph glyph-name="Ccedilla" unicode="&#xc7;" horiz-adv-x="811" 
d="M746 257q10 -1 7 -15q-15 -98 -90 -164.5t-181 -78.5l-7 -34q-1 -9 7 -9q61 -16 61 -74q0 -37 -42.5 -65t-86.5 -28q-51 0 -84 19q-5 2 -5 9l-1 49q0 4 2.5 6t6.5 1q16 -4 47 -4q44 0 44 23q0 33 -45 33q-19 0 -35 -8q-5 -2 -7.5 0t-0.5 7l33 80q-125 24 -203 123
t-78 231q0 151 100 254.5t252 103.5q119 0 207 -68.5t106 -176.5q3 -14 -7 -15l-170 -22q-10 -2 -14 7q-10 26 -21.5 44t-40.5 35t-69 17q-54 0 -97 -43.5t-43 -135.5q0 -93 43.5 -137.5t96.5 -44.5q40 0 69 17t40.5 35t21.5 44q4 9 14 7z" />
    <glyph glyph-name="Egrave" unicode="&#xc8;" horiz-adv-x="612" 
d="M309 932l67 -137q3 -5 0.5 -8.5t-8.5 -3.5h-118q-8 0 -12 6l-101 138q-4 5 -2 8.5t8 3.5h154q9 0 12 -7zM544 179q10 0 10 -10v-159q0 -10 -10 -10h-456q-10 0 -10 10v693q0 10 10 10h446q10 0 10 -10v-159q0 -10 -10 -10h-243q-10 0 -10 -10v-72q0 -10 10 -10h176
q10 0 10 -10v-159q0 -10 -10 -10h-176q-10 0 -10 -10v-64q0 -10 10 -10h253z" />
    <glyph glyph-name="Eacute" unicode="&#xc9;" horiz-adv-x="612" 
d="M332 932q3 7 12 7h155q6 0 8 -3.5t-2 -8.5l-101 -138q-4 -6 -12 -6h-119q-6 0 -8.5 3.5t0.5 8.5zM544 179q10 0 10 -10v-159q0 -10 -10 -10h-456q-10 0 -10 10v693q0 10 10 10h446q10 0 10 -10v-159q0 -10 -10 -10h-243q-10 0 -10 -10v-72q0 -10 10 -10h176q10 0 10 -10
v-159q0 -10 -10 -10h-176q-10 0 -10 -10v-64q0 -10 10 -10h253z" />
    <glyph glyph-name="Ecircumflex" unicode="&#xca;" horiz-adv-x="612" 
d="M171 878q0 7 8 12l130 61q7 3 14 0l130 -61q8 -5 8 -12v-106q0 -13 -12 -8l-126 59q-7 3 -14 0l-126 -59q-12 -5 -12 8v106zM544 179q10 0 10 -10v-159q0 -10 -10 -10h-456q-10 0 -10 10v693q0 10 10 10h446q10 0 10 -10v-159q0 -10 -10 -10h-243q-10 0 -10 -10v-72
q0 -10 10 -10h176q10 0 10 -10v-159q0 -10 -10 -10h-176q-10 0 -10 -10v-64q0 -10 10 -10h253z" />
    <glyph glyph-name="Edieresis" unicode="&#xcb;" horiz-adv-x="612" 
d="M191 764q-43 0 -74 31t-31 74q0 44 30.5 74.5t74.5 30.5t74.5 -30.5t30.5 -74.5q0 -43 -31 -74t-74 -31zM449 764q-43 0 -74 31t-31 74q0 44 30.5 74.5t74.5 30.5t74.5 -30.5t30.5 -74.5q0 -43 -31 -74t-74 -31zM544 179q10 0 10 -10v-159q0 -10 -10 -10h-456
q-10 0 -10 10v693q0 10 10 10h446q10 0 10 -10v-159q0 -10 -10 -10h-243q-10 0 -10 -10v-72q0 -10 10 -10h176q10 0 10 -10v-159q0 -10 -10 -10h-176q-10 0 -10 -10v-64q0 -10 10 -10h253z" />
    <glyph glyph-name="Igrave" unicode="&#xcc;" horiz-adv-x="339" 
d="M175 932l67 -137q3 -5 0.5 -8.5t-8.5 -3.5h-118q-8 0 -12 6l-101 138q-4 5 -2 8.5t8 3.5h154q9 0 12 -7zM281 10q0 -10 -10 -10h-183q-10 0 -10 10v693q0 10 10 10h183q10 0 10 -10v-693z" />
    <glyph glyph-name="Iacute" unicode="&#xcd;" horiz-adv-x="339" 
d="M199 932q3 7 12 7h155q6 0 8 -3.5t-2 -8.5l-101 -138q-4 -6 -12 -6h-119q-6 0 -8.5 3.5t0.5 8.5zM281 10q0 -10 -10 -10h-183q-10 0 -10 10v693q0 10 10 10h183q10 0 10 -10v-693z" />
    <glyph glyph-name="Icircumflex" unicode="&#xce;" horiz-adv-x="339" 
d="M37 878q0 7 8 12l130 61q7 3 14 0l130 -61q8 -5 8 -12v-106q0 -13 -12 -8l-126 59q-7 3 -14 0l-126 -59q-12 -5 -12 8v106zM281 10q0 -10 -10 -10h-183q-10 0 -10 10v693q0 10 10 10h183q10 0 10 -10v-693z" />
    <glyph glyph-name="Idieresis" unicode="&#xcf;" horiz-adv-x="339" 
d="M56 764q-43 0 -74.5 31t-31.5 74q0 44 31 74.5t75 30.5t74.5 -30.5t30.5 -74.5q0 -43 -31 -74t-74 -31zM315 764q-43 0 -74 31t-31 74q0 44 30.5 74.5t74.5 30.5t74.5 -30.5t30.5 -74.5q0 -43 -31 -74t-74 -31zM281 10q0 -10 -10 -10h-183q-10 0 -10 10v693q0 10 10 10
h183q10 0 10 -10v-693z" />
    <glyph glyph-name="Eth" unicode="&#xd0;" horiz-adv-x="966" 
d="M523 713q156 0 263.5 -102.5t107.5 -254.5q0 -151 -108 -253.5t-263 -102.5h-260q-10 0 -10 10v241h-117q-10 0 -10 10v159q0 10 10 10h117v273q0 10 10 10h260zM535 178q53 0 104 46.5t51 131.5t-51 131.5t-104 46.5h-69q-10 0 -10 -10v-94h110q10 0 10 -10v-159
q0 -10 -10 -10h-110v-63q0 -10 10 -10h69z" />
    <glyph glyph-name="Ntilde" unicode="&#xd1;" horiz-adv-x="767" 
d="M474 757q-30 0 -55 11t-38.5 24.5t-30.5 24.5t-34 11q-19 0 -37 -11t-26 -30q-3 -7 -11 -5l-65 18q-7 1 -7 10q36 167 146 167q27 0 51 -11t38 -24.5t32.5 -24.5t36.5 -11q50 0 63 40q3 7 10 7l64 -19q11 -2 8 -12q-5 -23 -8.5 -35.5t-15 -40.5t-25.5 -44.5t-39.5 -30.5
t-56.5 -14zM709 10q0 -10 -10 -10h-116q-7 0 -12 6l-268 307q-4 6 -8 4t-4 -9v-298q0 -10 -10 -10h-183q-10 0 -10 10v693q0 10 10 10h116q8 0 12 -6l267 -307q5 -5 8.5 -3.5t3.5 8.5v298q0 10 10 10h184q10 0 10 -10v-693z" />
    <glyph glyph-name="Ograve" unicode="&#xd2;" horiz-adv-x="874" 
d="M446 935l67 -137q3 -5 0.5 -8.5t-8.5 -3.5h-118q-8 0 -12 6l-101 138q-4 4 -2 8t8 4h154q9 0 12 -7zM453 716q155 0 259.5 -102.5t104.5 -256.5t-104.5 -257t-259.5 -103t-260 103t-105 257t105 256.5t260 102.5zM453 537q-64 0 -113 -45t-49 -135t49 -135.5t113 -45.5
q63 0 111.5 45.5t48.5 135.5t-48.5 135t-111.5 45z" />
    <glyph glyph-name="Oacute" unicode="&#xd3;" horiz-adv-x="874" 
d="M469 935q3 7 12 7h155q6 0 8 -4t-2 -8l-101 -138q-4 -6 -12 -6h-119q-6 0 -8.5 3.5t0.5 8.5zM453 716q155 0 259.5 -102.5t104.5 -256.5t-104.5 -257t-259.5 -103t-260 103t-105 257t105 256.5t260 102.5zM453 537q-64 0 -113 -45t-49 -135t49 -135.5t113 -45.5
q63 0 111.5 45.5t48.5 135.5t-48.5 135t-111.5 45z" />
    <glyph glyph-name="Ocircumflex" unicode="&#xd4;" horiz-adv-x="874" 
d="M308 881q0 7 8 12l130 61q7 4 14 0l130 -61q8 -5 8 -12v-106q0 -13 -12 -8l-126 59q-7 4 -14 0l-126 -59q-12 -5 -12 8v106zM453 716q155 0 259.5 -102.5t104.5 -256.5t-104.5 -257t-259.5 -103t-260 103t-105 257t105 256.5t260 102.5zM453 537q-64 0 -113 -45t-49 -135
t49 -135.5t113 -45.5q63 0 111.5 45.5t48.5 135.5t-48.5 135t-111.5 45z" />
    <glyph glyph-name="Otilde" unicode="&#xd5;" horiz-adv-x="874" 
d="M538 760q-38 0 -66.5 18t-50 35.5t-41.5 17.5q-19 0 -37 -11t-26 -30q-3 -7 -11 -5l-65 18q-7 1 -7 10q36 167 146 167q34 0 62 -18t51 -35.5t45 -17.5q50 0 63 40q3 7 10 7l64 -19q11 -2 8 -12q-5 -23 -8.5 -35.5t-15 -40.5t-25.5 -44.5t-39.5 -30.5t-56.5 -14zM453 716
q155 0 259.5 -102.5t104.5 -256.5t-104.5 -257t-259.5 -103t-260 103t-105 257t105 256.5t260 102.5zM453 537q-64 0 -113 -45t-49 -135t49 -135.5t113 -45.5q63 0 111.5 45.5t48.5 135.5t-48.5 135t-111.5 45z" />
    <glyph glyph-name="Odieresis" unicode="&#xd6;" horiz-adv-x="874" 
d="M328 767q-43 0 -74 31t-31 74q0 44 30.5 74.5t74.5 30.5t74.5 -30.5t30.5 -74.5q0 -43 -31 -74t-74 -31zM586 767q-43 0 -74 31t-31 74q0 44 30.5 74.5t74.5 30.5t74.5 -30.5t30.5 -74.5q0 -43 -31 -74t-74 -31zM453 716q155 0 259.5 -102.5t104.5 -256.5t-104.5 -257
t-259.5 -103t-260 103t-105 257t105 256.5t260 102.5zM453 537q-64 0 -113 -45t-49 -135t49 -135.5t113 -45.5q63 0 111.5 45.5t48.5 135.5t-48.5 135t-111.5 45z" />
    <glyph glyph-name="multiply" unicode="&#xd7;" horiz-adv-x="631" 
d="M534 239q9 -7 0 -14l-112 -113q-7 -7 -14 0l-82 83q-7 7 -14 0l-92 -91q-6 -8 -14 0l-130 130q-6 6 0 14l92 91q7 7 0 14l-84 83q-6 8 0 14l113 113q6 6 14 0l83 -84q7 -7 14 0l92 92q7 9 14 0l130 -129q6 -8 0 -15l-92 -92q-7 -7 0 -14z" />
    <glyph glyph-name="Oslash" unicode="&#xd8;" horiz-adv-x="899" 
d="M651 662q77 -48 121.5 -128t44.5 -177q0 -154 -104.5 -257t-259.5 -103q-58 0 -109 15l-21 -45q-3 -7 -11 -7h-104q-12 0 -7 12l41 88q-72 48 -113 125.5t-41 171.5q0 154 105 256.5t260 102.5q46 0 93 -11l20 41q3 7 11 7h104q12 0 7 -12zM291 357q0 -72 35 -119
l141 299h-14q-64 0 -113 -45t-49 -135zM453 176q63 0 111.5 45.5t48.5 135.5q0 82 -44 131l-146 -310q20 -2 30 -2z" />
    <glyph glyph-name="Ugrave" unicode="&#xd9;" horiz-adv-x="798" 
d="M413 932l67 -137q3 -5 0.5 -8.5t-8.5 -3.5h-118q-8 0 -12 6l-101 138q-4 5 -2 8.5t8 3.5h154q9 0 12 -7zM537 703q0 10 10 10h184q10 0 10 -10v-396q0 -55 -15.5 -105.5t-50 -98.5t-101.5 -77t-159 -29t-159.5 29t-102 77t-50 98.5t-15.5 105.5v396q0 10 10 10h183
q10 0 10 -10v-396q0 -67 33 -99t91 -32q116 0 122 131v396z" />
    <glyph glyph-name="Uacute" unicode="&#xda;" horiz-adv-x="798" 
d="M436 932q3 7 12 7h155q6 0 8 -3.5t-2 -8.5l-101 -138q-4 -6 -12 -6h-119q-6 0 -8.5 3.5t0.5 8.5zM537 703q0 10 10 10h184q10 0 10 -10v-396q0 -55 -15.5 -105.5t-50 -98.5t-101.5 -77t-159 -29t-159.5 29t-102 77t-50 98.5t-15.5 105.5v396q0 10 10 10h183q10 0 10 -10
v-396q0 -67 33 -99t91 -32q116 0 122 131v396z" />
    <glyph glyph-name="Ucircumflex" unicode="&#xdb;" horiz-adv-x="798" 
d="M275 878q0 7 8 12l130 61q7 3 14 0l130 -61q8 -5 8 -12v-106q0 -13 -12 -8l-126 59q-7 3 -14 0l-126 -59q-12 -5 -12 8v106zM537 703q0 10 10 10h184q10 0 10 -10v-396q0 -55 -15.5 -105.5t-50 -98.5t-101.5 -77t-159 -29t-159.5 29t-102 77t-50 98.5t-15.5 105.5v396
q0 10 10 10h183q10 0 10 -10v-396q0 -67 33 -99t91 -32q116 0 122 131v396z" />
    <glyph glyph-name="Udieresis" unicode="&#xdc;" horiz-adv-x="798" 
d="M295 764q-43 0 -74 31t-31 74q0 44 30.5 74.5t74.5 30.5t74.5 -30.5t30.5 -74.5q0 -43 -31 -74t-74 -31zM553 764q-43 0 -74 31t-31 74q0 44 30.5 74.5t74.5 30.5t74.5 -30.5t30.5 -74.5q0 -43 -31 -74t-74 -31zM537 703q0 10 10 10h184q10 0 10 -10v-396
q0 -55 -15.5 -105.5t-50 -98.5t-101.5 -77t-159 -29t-159.5 29t-102 77t-50 98.5t-15.5 105.5v396q0 10 10 10h183q10 0 10 -10v-396q0 -67 33 -99t91 -32q116 0 122 131v396z" />
    <glyph glyph-name="Yacute" unicode="&#xdd;" horiz-adv-x="844" 
d="M439 932q3 7 12 7h155q6 0 8 -3.5t-2 -8.5l-101 -138q-4 -6 -12 -6h-119q-6 0 -8.5 3.5t0.5 8.5zM798 713q6 0 8 -3.5t-2 -8.5l-272 -378q0 -1 -2 -5.5t-2 -7.5v-300q0 -10 -10 -10h-183q-10 0 -10 10v300q0 8 -4 13l-271 378q-3 5 -1.5 8.5t7.5 3.5h202q8 0 12 -6
l150 -211q7 -11 14 0l150 211q5 6 12 6h202z" />
    <glyph glyph-name="Thorn" unicode="&#xde;" horiz-adv-x="751" 
d="M88 10v736q0 7 7 7h189q7 0 7 -7v-58q0 -10 10 -10h97q123 0 209.5 -77.5t86.5 -195.5t-86.5 -196t-209.5 -78h-97q-10 0 -10 -10v-111q0 -10 -10 -10h-183q-10 0 -10 10zM291 320q0 -10 10 -10h87q102 0 102 95q0 94 -102 94h-87q-10 0 -10 -10v-169z" />
    <glyph glyph-name="germandbls" unicode="&#xdf;" horiz-adv-x="775" 
d="M564 366q-3 0 -4 -2t0 -4t4 -2q23 -4 45.5 -13.5t49 -28t42.5 -52t16 -77.5q0 -49 -23.5 -87.5t-60.5 -59.5t-75 -32t-72 -11q-55 0 -108 20t-81 45q-2 2 -2 11l54 146q4 11 11 4q52 -47 102 -47q52 0 52 42q0 38 -30.5 58.5t-76.5 20.5h-45q-11 0 -11 10v109q0 10 11 10
h45q23 0 36 16.5t13 39.5q0 26 -19.5 40.5t-46.5 14.5q-72 0 -101 -32t-29 -106v-391q-1 -8 -11 -8h-170q-11 0 -9 11q2 20 2 95t-1 187t-1 156q0 121 83 194t227 73q68 0 129.5 -21.5t106 -70t44.5 -115.5q0 -51 -32 -95.5t-64 -47.5z" />
    <glyph glyph-name="agrave" unicode="&#xe0;" horiz-adv-x="539" 
d="M294 749l67 -137q3 -5 0.5 -8.5t-8.5 -3.5h-118q-8 0 -12 6l-101 138q-4 4 -2 8t8 4h154q9 0 12 -7zM297 530q57 0 98.5 -15.5t64 -38t35 -57.5t16 -64.5t3.5 -67.5v-279q0 -8 -8 -8h-176q-8 0 -8 8v38q0 5 -3 6.5t-6 -2.5q-49 -53 -115 -53q-65 0 -107.5 38.5
t-42.5 105.5q0 49 23 86t63.5 57.5t84 31.5t95.5 14q8 0 8 9q0 42 -69 42q-79 0 -132 -26q-8 -5 -10 4l-19 108q-1 5 4 10q82 53 201 53zM282 133q10 0 18 2.5t12 5.5t4 5q6 6 6 11v47q0 8 -8 8q-10 0 -18.5 -1.5t-14.5 -3.5t-10.5 -5t-7.5 -6.5t-5 -7.5t-3 -7t-1.5 -7
t-0.5 -6v-5v-3q0 -10 6.5 -18.5t22.5 -8.5z" />
    <glyph glyph-name="aacute" unicode="&#xe1;" horiz-adv-x="539" 
d="M317 749q3 7 12 7h155q6 0 8 -4t-2 -8l-101 -138q-4 -6 -12 -6h-119q-6 0 -8.5 3.5t0.5 8.5zM297 530q57 0 98.5 -15.5t64 -38t35 -57.5t16 -64.5t3.5 -67.5v-279q0 -8 -8 -8h-176q-8 0 -8 8v38q0 5 -3 6.5t-6 -2.5q-49 -53 -115 -53q-65 0 -107.5 38.5t-42.5 105.5
q0 49 23 86t63.5 57.5t84 31.5t95.5 14q8 0 8 9q0 42 -69 42q-79 0 -132 -26q-8 -5 -10 4l-19 108q-1 5 4 10q82 53 201 53zM282 133q10 0 18 2.5t12 5.5t4 5q6 6 6 11v47q0 8 -8 8q-10 0 -18.5 -1.5t-14.5 -3.5t-10.5 -5t-7.5 -6.5t-5 -7.5t-3 -7t-1.5 -7t-0.5 -6v-5v-3
q0 -10 6.5 -18.5t22.5 -8.5z" />
    <glyph glyph-name="acircumflex" unicode="&#xe2;" horiz-adv-x="539" 
d="M156 695q0 7 8 12l130 61q7 4 14 0l130 -61q8 -5 8 -12v-106q0 -13 -12 -8l-126 59q-7 4 -14 0l-126 -59q-12 -5 -12 8v106zM297 530q57 0 98.5 -15.5t64 -38t35 -57.5t16 -64.5t3.5 -67.5v-279q0 -8 -8 -8h-176q-8 0 -8 8v38q0 5 -3 6.5t-6 -2.5q-49 -53 -115 -53
q-65 0 -107.5 38.5t-42.5 105.5q0 49 23 86t63.5 57.5t84 31.5t95.5 14q8 0 8 9q0 42 -69 42q-79 0 -132 -26q-8 -5 -10 4l-19 108q-1 5 4 10q82 53 201 53zM282 133q10 0 18 2.5t12 5.5t4 5q6 6 6 11v47q0 8 -8 8q-10 0 -18.5 -1.5t-14.5 -3.5t-10.5 -5t-7.5 -6.5t-5 -7.5
t-3 -7t-1.5 -7t-0.5 -6v-5v-3q0 -10 6.5 -18.5t22.5 -8.5z" />
    <glyph glyph-name="atilde" unicode="&#xe3;" horiz-adv-x="539" 
d="M386 574q-38 0 -66.5 18t-50 35.5t-41.5 17.5q-19 0 -37 -11t-26 -30q-3 -7 -11 -5l-65 18q-7 1 -7 10q36 167 146 167q34 0 62 -18t51 -35.5t45 -17.5q50 0 63 40q3 7 10 7l64 -19q11 -2 8 -12q-5 -23 -8.5 -35.5t-15 -40.5t-25.5 -44.5t-39.5 -30.5t-56.5 -14zM297 530
q57 0 98.5 -15.5t64 -38t35 -57.5t16 -64.5t3.5 -67.5v-279q0 -8 -8 -8h-176q-8 0 -8 8v38q0 5 -3 6.5t-6 -2.5q-49 -53 -115 -53q-65 0 -107.5 38.5t-42.5 105.5q0 49 23 86t63.5 57.5t84 31.5t95.5 14q8 0 8 9q0 42 -69 42q-79 0 -132 -26q-8 -5 -10 4l-19 108q-1 5 4 10
q82 53 201 53zM282 133q10 0 18 2.5t12 5.5t4 5q6 6 6 11v47q0 8 -8 8q-10 0 -18.5 -1.5t-14.5 -3.5t-10.5 -5t-7.5 -6.5t-5 -7.5t-3 -7t-1.5 -7t-0.5 -6v-5v-3q0 -10 6.5 -18.5t22.5 -8.5z" />
    <glyph glyph-name="adieresis" unicode="&#xe4;" horiz-adv-x="539" 
d="M176 581q-43 0 -74 31t-31 74q0 44 30.5 74.5t74.5 30.5t74.5 -30.5t30.5 -74.5q0 -43 -31 -74t-74 -31zM434 581q-43 0 -74 31t-31 74q0 44 30.5 74.5t74.5 30.5t74.5 -30.5t30.5 -74.5q0 -43 -31 -74t-74 -31zM297 530q57 0 98.5 -15.5t64 -38t35 -57.5t16 -64.5
t3.5 -67.5v-279q0 -8 -8 -8h-176q-8 0 -8 8v38q0 5 -3 6.5t-6 -2.5q-49 -53 -115 -53q-65 0 -107.5 38.5t-42.5 105.5q0 49 23 86t63.5 57.5t84 31.5t95.5 14q8 0 8 9q0 42 -69 42q-79 0 -132 -26q-8 -5 -10 4l-19 108q-1 5 4 10q82 53 201 53zM282 133q10 0 18 2.5t12 5.5
t4 5q6 6 6 11v47q0 8 -8 8q-10 0 -18.5 -1.5t-14.5 -3.5t-10.5 -5t-7.5 -6.5t-5 -7.5t-3 -7t-1.5 -7t-0.5 -6v-5v-3q0 -10 6.5 -18.5t22.5 -8.5z" />
    <glyph glyph-name="aring" unicode="&#xe5;" horiz-adv-x="539" 
d="M300 609q-31 0 -53 22t-22 53q0 32 21.5 53.5t53.5 21.5q31 0 53 -22t22 -53t-22 -53t-53 -22zM300 704q-20 0 -20 -20t20 -20t20 20t-20 20zM297 530q57 0 98.5 -15.5t64 -38t35 -57.5t16 -64.5t3.5 -67.5v-279q0 -8 -8 -8h-176q-8 0 -8 8v38q0 5 -3 6.5t-6 -2.5
q-49 -53 -115 -53q-65 0 -107.5 38.5t-42.5 105.5q0 49 23 86t63.5 57.5t84 31.5t95.5 14q8 0 8 9q0 42 -69 42q-79 0 -132 -26q-8 -5 -10 4l-19 108q-1 5 4 10q82 53 201 53zM282 133q10 0 18 2.5t12 5.5t4 5q6 6 6 11v47q0 8 -8 8q-10 0 -18.5 -1.5t-14.5 -3.5t-10.5 -5
t-7.5 -6.5t-5 -7.5t-3 -7t-1.5 -7t-0.5 -6v-5v-3q0 -10 6.5 -18.5t22.5 -8.5z" />
    <glyph glyph-name="ae" unicode="&#xe6;" horiz-adv-x="901" 
d="M576 530q125 0 192.5 -76t67.5 -187v-52q0 -8 -8 -8h-301q-7 0 -7 -8q0 -22 14.5 -35t26.5 -15.5t22 -2.5q42 0 61 25q3 7 10 5l164 -21q9 -2 6 -9q-21 -64 -82.5 -106.5t-154.5 -42.5q-34 0 -74 7q-2 -4 -7 -4h-176q-8 0 -8 8v38q0 5 -3 6.5t-6 -2.5q-49 -53 -115 -53
q-65 0 -107.5 38.5t-42.5 105.5q0 49 23 86t63.5 57.5t84 31.5t95.5 14q8 0 8 9q0 42 -69 42q-79 0 -132 -26q-8 -5 -10 4l-19 108q-1 5 4 10q82 53 201 53q90 0 141 -37q60 37 138 37zM624 330q8 0 8 7q0 32 -14.5 44.5t-41.5 12.5q-54 0 -55 -54q0 -10 5 -10h98zM316 146
q6 6 6 11v46q-1 2 -1 5q-3 4 -7 4q-10 0 -18.5 -1.5t-14.5 -3.5t-10.5 -5t-7.5 -6.5t-5 -7.5t-3 -7t-1.5 -7t-0.5 -6v-5v-3q0 -10 6.5 -18.5t22.5 -8.5q10 0 18 2.5t12 5.5t4 5z" />
    <glyph glyph-name="ccedilla" unicode="&#xe7;" horiz-adv-x="575" 
d="M544 196q6 -2 4 -11q-4 -58 -54.5 -113.5t-138.5 -69.5l-7 -37q-2 -9 7 -9q61 -16 61 -74q0 -37 -42.5 -65t-86.5 -28q-51 0 -84 19q-5 2 -5 9l-1 49q0 4 2.5 6t6.5 1q16 -4 47 -4q44 0 44 23q0 33 -45 33q-19 0 -35 -8q-5 -2 -7.5 0t-0.5 7l32 79q-94 19 -150 91
t-56 170q0 113 74 189.5t191 76.5q113 0 178.5 -59.5t69.5 -127.5q3 -11 -4 -13l-164 -21q-11 -2 -11 7q-14 65 -65 65q-76 0 -76 -117q0 -118 76 -118q48 0 65 64q1 8 11 7z" />
    <glyph glyph-name="egrave" unicode="&#xe8;" horiz-adv-x="570" 
d="M287 749l67 -137q3 -5 0.5 -8.5t-8.5 -3.5h-118q-8 0 -12 6l-101 138q-4 4 -2 8t8 4h154q9 0 12 -7zM555 267v-52q0 -8 -8 -8h-302q-6 0 -6 -8q0 -22 14.5 -35t26.5 -15.5t22 -2.5q42 0 61 25q3 7 10 5l164 -21q9 -2 6 -9q-21 -64 -82.5 -106.5t-154.5 -42.5
q-130 0 -200.5 75.5t-70.5 191.5q0 113 71.5 189.5t188.5 76.5q124 0 192 -76t68 -187zM295 394q-54 0 -55 -54q0 -10 5 -10h98q8 0 8 7q0 32 -14.5 44.5t-41.5 12.5z" />
    <glyph glyph-name="eacute" unicode="&#xe9;" horiz-adv-x="570" 
d="M311 749q3 7 12 7h155q6 0 8 -4t-2 -8l-101 -138q-4 -6 -12 -6h-119q-6 0 -8.5 3.5t0.5 8.5zM555 267v-52q0 -8 -8 -8h-302q-6 0 -6 -8q0 -22 14.5 -35t26.5 -15.5t22 -2.5q42 0 61 25q3 7 10 5l164 -21q9 -2 6 -9q-21 -64 -82.5 -106.5t-154.5 -42.5q-130 0 -200.5 75.5
t-70.5 191.5q0 113 71.5 189.5t188.5 76.5q124 0 192 -76t68 -187zM295 394q-54 0 -55 -54q0 -10 5 -10h98q8 0 8 7q0 32 -14.5 44.5t-41.5 12.5z" />
    <glyph glyph-name="ecircumflex" unicode="&#xea;" horiz-adv-x="570" 
d="M149 695q0 7 8 12l130 61q7 4 14 0l130 -61q8 -5 8 -12v-106q0 -13 -12 -8l-126 59q-7 4 -14 0l-126 -59q-12 -5 -12 8v106zM555 267v-52q0 -8 -8 -8h-302q-6 0 -6 -8q0 -22 14.5 -35t26.5 -15.5t22 -2.5q42 0 61 25q3 7 10 5l164 -21q9 -2 6 -9q-21 -64 -82.5 -106.5
t-154.5 -42.5q-130 0 -200.5 75.5t-70.5 191.5q0 113 71.5 189.5t188.5 76.5q124 0 192 -76t68 -187zM295 394q-54 0 -55 -54q0 -10 5 -10h98q8 0 8 7q0 32 -14.5 44.5t-41.5 12.5z" />
    <glyph glyph-name="edieresis" unicode="&#xeb;" horiz-adv-x="570" 
d="M169 581q-43 0 -74 31t-31 74q0 44 30.5 74.5t74.5 30.5t74.5 -30.5t30.5 -74.5q0 -43 -31 -74t-74 -31zM427 581q-43 0 -74 31t-31 74q0 44 30.5 74.5t74.5 30.5t74.5 -30.5t30.5 -74.5q0 -43 -31 -74t-74 -31zM555 267v-52q0 -8 -8 -8h-302q-6 0 -6 -8q0 -22 14.5 -35
t26.5 -15.5t22 -2.5q42 0 61 25q3 7 10 5l164 -21q9 -2 6 -9q-21 -64 -82.5 -106.5t-154.5 -42.5q-130 0 -200.5 75.5t-70.5 191.5q0 113 71.5 189.5t188.5 76.5q124 0 192 -76t68 -187zM295 394q-54 0 -55 -54q0 -10 5 -10h98q8 0 8 7q0 32 -14.5 44.5t-41.5 12.5z" />
    <glyph glyph-name="igrave" unicode="&#xec;" horiz-adv-x="313" 
d="M159 746l67 -137q3 -5 0.5 -8.5t-8.5 -3.5h-118q-8 0 -12 6l-102 138q-4 5 -2 8.5t8 3.5h155q9 0 12 -7zM70 519q0 8 8 8h177q8 0 8 -8v-511q0 -8 -8 -8h-177q-8 0 -8 8v511z" />
    <glyph glyph-name="iacute" unicode="&#xed;" horiz-adv-x="313" 
d="M183 746q3 7 12 7h155q6 0 8 -3.5t-2 -8.5l-101 -138q-4 -6 -12 -6h-119q-6 0 -8.5 3.5t0.5 8.5zM70 519q0 8 8 8h177q8 0 8 -8v-511q0 -8 -8 -8h-177q-8 0 -8 8v511z" />
    <glyph glyph-name="icircumflex" unicode="&#xee;" horiz-adv-x="313" 
d="M21 692q0 7 8 12l130 61q7 3 14 0l130 -61q8 -5 8 -12v-106q0 -13 -12 -8l-126 59q-7 3 -14 0l-126 -59q-12 -5 -12 8v106zM70 519q0 8 8 8h177q8 0 8 -8v-511q0 -8 -8 -8h-177q-8 0 -8 8v511z" />
    <glyph glyph-name="idieresis" unicode="&#xef;" horiz-adv-x="313" 
d="M40 578q-43 0 -74.5 31t-31.5 74q0 44 31 74.5t75 30.5t74.5 -30.5t30.5 -74.5q0 -43 -31 -74t-74 -31zM299 578q-43 0 -74 31t-31 74q0 44 30.5 74.5t74.5 30.5t74.5 -30.5t30.5 -74.5q0 -43 -31 -74t-74 -31zM70 519q0 8 8 8h177q8 0 8 -8v-511q0 -8 -8 -8h-177
q-8 0 -8 8v511z" />
    <glyph glyph-name="eth" unicode="&#xf0;" horiz-adv-x="713" 
d="M479 681q174 -104 174 -353v-23q0 -137 -81.5 -222.5t-207.5 -85.5q-120 0 -197 67.5t-77 175.5q0 96 67.5 170.5t182.5 74.5q94 0 127 -71q7 -12 7 3q0 88 -101 127l-27 -36q-6 -7 -11 -7h-104q-6 0 -8 3.5t1 8.5l42 56q-48 5 -121 5q-5 0 -8 4t-2 8l24 158q1 9 10 9
q121 0 215 -30l18 23q6 7 11 7h104q6 0 8 -3.5t-1 -8.5zM370 176q33 0 56 16.5t23 48.5q0 27 -22 46t-56 19q-33 0 -55 -19t-22 -47q0 -30 20 -47t56 -17z" />
    <glyph glyph-name="ntilde" unicode="&#xf1;" horiz-adv-x="622" 
d="M429 574q-38 0 -66.5 18t-50 35.5t-41.5 17.5q-19 0 -37 -11t-26 -30q-3 -7 -11 -5l-65 18q-7 1 -7 10q36 167 146 167q34 0 62 -18t51 -35.5t45 -17.5q50 0 63 40q3 7 10 7l64 -19q11 -2 8 -12q-5 -23 -8.5 -35.5t-15 -40.5t-25.5 -44.5t-39.5 -30.5t-56.5 -14zM53 0
q-8 0 -8 8v511q0 8 8 8h177q8 0 8 -8v-56q0 -3 1.5 -5t3.5 -1.5t4 3.5q27 31 68.5 50.5t83.5 19.5q198 0 198 -223v-299q0 -8 -8 -8h-176q-8 0 -8 8v289q0 84 -83 84q-36 0 -59 -27.5t-25 -69.5v-276q0 -8 -8 -8h-177z" />
    <glyph glyph-name="ograve" unicode="&#xf2;" horiz-adv-x="608" 
d="M303 749l67 -137q3 -5 0.5 -8.5t-8.5 -3.5h-118q-8 0 -12 6l-101 138q-4 4 -2 8t8 4h154q9 0 12 -7zM314 -3q-125 0 -202 77t-77 190t77 189.5t202 76.5q124 0 201.5 -76.5t77.5 -189.5t-77.5 -190t-201.5 -77zM314 381q-43 0 -64.5 -32t-21.5 -85q0 -52 22 -85t64 -33
t64.5 33t22.5 85t-22.5 84.5t-64.5 32.5z" />
    <glyph glyph-name="oacute" unicode="&#xf3;" horiz-adv-x="608" 
d="M327 749q3 7 12 7h155q6 0 8 -4t-2 -8l-101 -138q-4 -6 -12 -6h-119q-6 0 -8.5 3.5t0.5 8.5zM314 -3q-125 0 -202 77t-77 190t77 189.5t202 76.5q124 0 201.5 -76.5t77.5 -189.5t-77.5 -190t-201.5 -77zM314 381q-43 0 -64.5 -32t-21.5 -85q0 -52 22 -85t64 -33t64.5 33
t22.5 85t-22.5 84.5t-64.5 32.5z" />
    <glyph glyph-name="ocircumflex" unicode="&#xf4;" horiz-adv-x="608" 
d="M165 695q0 7 8 12l130 61q7 4 14 0l130 -61q8 -5 8 -12v-106q0 -13 -12 -8l-126 59q-7 4 -14 0l-126 -59q-12 -5 -12 8v106zM314 -3q-125 0 -202 77t-77 190t77 189.5t202 76.5q124 0 201.5 -76.5t77.5 -189.5t-77.5 -190t-201.5 -77zM314 381q-43 0 -64.5 -32t-21.5 -85
q0 -52 22 -85t64 -33t64.5 33t22.5 85t-22.5 84.5t-64.5 32.5z" />
    <glyph glyph-name="otilde" unicode="&#xf5;" horiz-adv-x="608" 
d="M395 574q-38 0 -66.5 18t-50 35.5t-41.5 17.5q-19 0 -37 -11t-26 -30q-3 -7 -11 -5l-65 18q-7 1 -7 10q36 167 146 167q34 0 62 -18t51 -35.5t45 -17.5q50 0 63 40q3 7 10 7l64 -19q11 -2 8 -12q-5 -23 -8.5 -35.5t-15 -40.5t-25.5 -44.5t-39.5 -30.5t-56.5 -14zM314 -3
q-125 0 -202 77t-77 190t77 189.5t202 76.5q124 0 201.5 -76.5t77.5 -189.5t-77.5 -190t-201.5 -77zM314 381q-43 0 -64.5 -32t-21.5 -85q0 -52 22 -85t64 -33t64.5 33t22.5 85t-22.5 84.5t-64.5 32.5z" />
    <glyph glyph-name="odieresis" unicode="&#xf6;" horiz-adv-x="608" 
d="M185 581q-43 0 -74 31t-31 74q0 44 30.5 74.5t74.5 30.5t74.5 -30.5t30.5 -74.5q0 -43 -31 -74t-74 -31zM443 581q-43 0 -74 31t-31 74q0 44 30.5 74.5t74.5 30.5t74.5 -30.5t30.5 -74.5q0 -43 -31 -74t-74 -31zM314 -3q-125 0 -202 77t-77 190t77 189.5t202 76.5
q124 0 201.5 -76.5t77.5 -189.5t-77.5 -190t-201.5 -77zM314 381q-43 0 -64.5 -32t-21.5 -85q0 -52 22 -85t64 -33t64.5 33t22.5 85t-22.5 84.5t-64.5 32.5z" />
    <glyph glyph-name="divide" unicode="&#xf7;" horiz-adv-x="628" 
d="M305 483q-41 0 -70.5 29.5t-29.5 69.5q0 42 29.5 71t70.5 29q42 0 71 -29t29 -71q0 -41 -29 -70t-71 -29zM533 259q0 -10 -10 -10h-430q-10 0 -10 10v159q0 10 10 10h430q10 0 10 -10v-159zM305 -12q-41 0 -70.5 29.5t-29.5 70.5t29.5 70t70.5 29q42 0 71 -29t29 -70
t-29 -70.5t-71 -29.5z" />
    <glyph glyph-name="oslash" unicode="&#xf8;" horiz-adv-x="633" 
d="M469 489q59 -35 91.5 -94.5t32.5 -130.5q0 -113 -77.5 -190t-201.5 -77q-38 0 -75 8l-18 -38q-3 -7 -11 -7h-81q-12 0 -7 12l32 69q-56 35 -87.5 94t-31.5 129q0 113 77 189.5t202 76.5q30 0 69 -7l18 37q3 7 11 7h81q12 0 7 -12zM228 264q0 -32 7 -54l81 171h-2
q-43 0 -64.5 -32t-21.5 -85zM314 146q42 0 64.5 33t22.5 85q0 31 -10 61l-85 -179h8z" />
    <glyph glyph-name="ugrave" unicode="&#xf9;" horiz-adv-x="622" 
d="M319 746l67 -137q3 -5 0.5 -8.5t-8.5 -3.5h-118q-8 0 -12 6l-101 138q-4 5 -2 8.5t8 3.5h154q9 0 12 -7zM602 527q8 0 8 -8v-511q0 -8 -8 -8h-177q-8 0 -8 8v56q0 3 -1.5 5t-3.5 1.5t-4 -3.5q-27 -31 -68.5 -50.5t-83.5 -19.5q-198 0 -198 223v299q0 8 8 8h176q8 0 8 -8
v-289q0 -42 21.5 -63t60.5 -21q37 0 59.5 27.5t25.5 69.5v276q0 8 8 8h177z" />
    <glyph glyph-name="uacute" unicode="&#xfa;" horiz-adv-x="622" 
d="M343 746q3 7 12 7h155q6 0 8 -3.5t-2 -8.5l-101 -138q-4 -6 -12 -6h-119q-6 0 -8.5 3.5t0.5 8.5zM602 527q8 0 8 -8v-511q0 -8 -8 -8h-177q-8 0 -8 8v56q0 3 -1.5 5t-3.5 1.5t-4 -3.5q-27 -31 -68.5 -50.5t-83.5 -19.5q-198 0 -198 223v299q0 8 8 8h176q8 0 8 -8v-289
q0 -42 21.5 -63t60.5 -21q37 0 59.5 27.5t25.5 69.5v276q0 8 8 8h177z" />
    <glyph glyph-name="ucircumflex" unicode="&#xfb;" horiz-adv-x="622" 
d="M181 692q0 7 8 12l130 61q7 3 14 0l130 -61q8 -5 8 -12v-106q0 -13 -12 -8l-126 59q-7 3 -14 0l-126 -59q-12 -5 -12 8v106zM602 527q8 0 8 -8v-511q0 -8 -8 -8h-177q-8 0 -8 8v56q0 3 -1.5 5t-3.5 1.5t-4 -3.5q-27 -31 -68.5 -50.5t-83.5 -19.5q-198 0 -198 223v299
q0 8 8 8h176q8 0 8 -8v-289q0 -42 21.5 -63t60.5 -21q37 0 59.5 27.5t25.5 69.5v276q0 8 8 8h177z" />
    <glyph glyph-name="udieresis" unicode="&#xfc;" horiz-adv-x="622" 
d="M202 578q-43 0 -74 31t-31 74q0 44 30.5 74.5t74.5 30.5t74.5 -30.5t30.5 -74.5q0 -43 -31 -74t-74 -31zM460 578q-43 0 -74 31t-31 74q0 44 30.5 74.5t74.5 30.5t74.5 -30.5t30.5 -74.5q0 -43 -31 -74t-74 -31zM602 527q8 0 8 -8v-511q0 -8 -8 -8h-177q-8 0 -8 8v56
q0 3 -1.5 5t-3.5 1.5t-4 -3.5q-27 -31 -68.5 -50.5t-83.5 -19.5q-198 0 -198 223v299q0 8 8 8h176q8 0 8 -8v-289q0 -42 21.5 -63t60.5 -21q37 0 59.5 27.5t25.5 69.5v276q0 8 8 8h177z" />
    <glyph glyph-name="yacute" unicode="&#xfd;" horiz-adv-x="623" 
d="M341 746q3 7 12 7h155q6 0 8 -3.5t-2 -8.5l-101 -138q-4 -6 -12 -6h-119q-6 0 -8.5 3.5t0.5 8.5zM403 521q1 6 9 6h187q10 0 6 -9l-194 -521q-42 -112 -90 -159.5t-129 -47.5q-40 0 -74.5 19t-52.5 52q-3 7 -2 11l19 106q2 13 10 3q32 -30 61 -30q37 0 56 16.5t33 51.5
q2 4 0 10l-193 489q-3 9 6 9h186q7 0 9 -6l69 -249q1 -3 3 -4.5t4.5 0t2.5 4.5z" />
    <glyph glyph-name="thorn" unicode="&#xfe;" horiz-adv-x="652" 
d="M389 530q104 0 163.5 -79t59.5 -187t-59.5 -187.5t-163.5 -79.5q-64 0 -116 55q-2 3 -4.5 3.5t-4 -1.5t-1.5 -5v-248q0 -8 -9 -8h-176q-8 0 -8 8v944q0 8 8 8h177q8 0 8 -8v-266q0 -6 3 -7.5t7 3.5q52 55 116 55zM335 146q26 0 44.5 12.5t26 33t10.5 37.5t3 35t-3 34.5
t-10.5 37t-26 33t-44.5 12.5q-9 0 -17.5 -1.5t-13 -3t-12.5 -6t-10 -6t-10 -8.5t-9 -7v-172q15 -12 20 -15.5t20 -9.5t32 -6z" />
    <glyph glyph-name="ydieresis" unicode="&#xff;" horiz-adv-x="623" 
d="M199 578q-43 0 -74 31t-31 74q0 44 30.5 74.5t74.5 30.5t74.5 -30.5t30.5 -74.5q0 -43 -31 -74t-74 -31zM457 578q-43 0 -74 31t-31 74q0 44 30.5 74.5t74.5 30.5t74.5 -30.5t30.5 -74.5q0 -43 -31 -74t-74 -31zM403 521q1 6 9 6h187q10 0 6 -9l-194 -521
q-42 -112 -90 -159.5t-129 -47.5q-40 0 -74.5 19t-52.5 52q-3 7 -2 11l19 106q2 13 10 3q32 -30 61 -30q37 0 56 16.5t33 51.5q2 4 0 10l-193 489q-3 9 6 9h186q7 0 9 -6l69 -249q1 -3 3 -4.5t4.5 0t2.5 4.5z" />
    <glyph glyph-name="Amacron" unicode="&#x100;" horiz-adv-x="864" 
d="M296 891q0 8 8 8h264q8 0 8 -8v-114q0 -8 -8 -8h-264q-8 0 -8 8v114zM385 706q3 7 12 7h81q9 0 12 -7l326 -694q5 -12 -7 -12h-175q-9 0 -12 7l-38 75q-3 7 -11 7h-272q-9 0 -12 -7l-38 -75q-3 -7 -11 -7h-174q-12 0 -7 12zM378 280q-5 -12 7 -12h104q12 0 7 12l-51 109
q-2 5 -7 5t-7 -5z" />
    <glyph glyph-name="amacron" unicode="&#x101;" horiz-adv-x="539" 
d="M161 708q0 8 8 8h264q8 0 8 -8v-114q0 -8 -8 -8h-264q-8 0 -8 8v114zM297 530q57 0 98.5 -15.5t64 -38t35 -57.5t16 -64.5t3.5 -67.5v-279q0 -8 -8 -8h-176q-8 0 -8 8v38q0 5 -3 6.5t-6 -2.5q-49 -53 -115 -53q-65 0 -107.5 38.5t-42.5 105.5q0 49 23 86t63.5 57.5
t84 31.5t95.5 14q8 0 8 9q0 42 -69 42q-79 0 -132 -26q-8 -5 -10 4l-19 108q-1 5 4 10q82 53 201 53zM282 133q10 0 18 2.5t12 5.5t4 5q6 6 6 11v47q0 8 -8 8q-10 0 -18.5 -1.5t-14.5 -3.5t-10.5 -5t-7.5 -6.5t-5 -7.5t-3 -7t-1.5 -7t-0.5 -6v-5v-3q0 -10 6.5 -18.5
t22.5 -8.5z" />
    <glyph glyph-name="Abreve" unicode="&#x102;" horiz-adv-x="864" 
d="M294 931q0 8 8 8h64q8 0 8 -8q4 -21 22.5 -31.5t40.5 -10.5q21 0 40 10.5t22 31.5q0 8 8 8h64q8 0 8 -8q-3 -74 -44.5 -110.5t-97.5 -36.5t-98 36.5t-45 110.5zM385 706q3 7 12 7h81q9 0 12 -7l326 -694q5 -12 -7 -12h-175q-9 0 -12 7l-38 75q-3 7 -11 7h-272
q-9 0 -12 -7l-38 -75q-3 -7 -11 -7h-174q-12 0 -7 12zM378 280q-5 -12 7 -12h104q12 0 7 12l-51 109q-2 5 -7 5t-7 -5z" />
    <glyph glyph-name="abreve" unicode="&#x103;" horiz-adv-x="539" 
d="M158 748q0 8 8 8h64q8 0 8 -8q4 -21 22.5 -31.5t40.5 -10.5q21 0 40 10.5t22 31.5q0 8 8 8h64q8 0 8 -8q-3 -74 -44.5 -110.5t-97.5 -36.5t-98 36.5t-45 110.5zM297 530q57 0 98.5 -15.5t64 -38t35 -57.5t16 -64.5t3.5 -67.5v-279q0 -8 -8 -8h-176q-8 0 -8 8v38
q0 5 -3 6.5t-6 -2.5q-49 -53 -115 -53q-65 0 -107.5 38.5t-42.5 105.5q0 49 23 86t63.5 57.5t84 31.5t95.5 14q8 0 8 9q0 42 -69 42q-79 0 -132 -26q-8 -5 -10 4l-19 108q-1 5 4 10q82 53 201 53zM282 133q10 0 18 2.5t12 5.5t4 5q6 6 6 11v47q0 8 -8 8q-10 0 -18.5 -1.5
t-14.5 -3.5t-10.5 -5t-7.5 -6.5t-5 -7.5t-3 -7t-1.5 -7t-0.5 -6v-5v-3q0 -10 6.5 -18.5t22.5 -8.5z" />
    <glyph glyph-name="Aogonek" unicode="&#x104;" horiz-adv-x="864" 
d="M806 -125q3 1 6 -1t3 -6v-48q0 -6 -3 -8q-29 -22 -84 -22q-53 0 -90 24t-37 68t26 71t77 47h-70q-9 0 -12 7l-38 75q-3 7 -11 7h-272q-9 0 -12 -7l-38 -75q-3 -7 -11 -7h-174q-12 0 -7 12l326 694q3 7 12 7h81q9 0 12 -7l326 -694q5 -12 -7 -12h-24q-66 -39 -66 -83
q0 -48 40 -48q17 0 47 6zM489 268q12 0 7 12l-51 109q-2 5 -7 5t-7 -5l-53 -109q-5 -12 7 -12h104z" />
    <glyph glyph-name="aogonek" unicode="&#x105;" horiz-adv-x="539" 
d="M297 530q57 0 98.5 -15.5t64 -38t35 -57.5t16 -64.5t3.5 -67.5v-279q0 -8 -8 -8h-33q-66 -39 -66 -83q0 -48 40 -48q17 0 47 6q3 1 6 -1t3 -6v-48q0 -6 -3 -8q-29 -22 -84 -22q-53 0 -90 24t-37 68t26 71t77 47h-62q-8 0 -8 8v38q0 5 -3 6.5t-6 -2.5q-49 -53 -115 -53
q-65 0 -107.5 38.5t-42.5 105.5q0 49 23 86t63.5 57.5t84 31.5t95.5 14q8 0 8 9q0 42 -69 42q-79 0 -132 -26q-8 -5 -10 4l-19 108q-1 5 4 10q82 53 201 53zM322 157v47q0 8 -8 8q-10 0 -18.5 -1.5t-14.5 -3.5t-10.5 -5t-7.5 -6.5t-5 -7.5t-3 -7t-1.5 -7t-0.5 -6v-5v-3
q0 -10 6.5 -18.5t22.5 -8.5q10 0 18 2.5t12 5.5t4 5q6 6 6 11z" />
    <glyph glyph-name="Cacute" unicode="&#x106;" horiz-adv-x="811" 
d="M457 936q3 7 12 7h155q6 0 8 -3.5t-2 -8.5l-101 -138q-4 -6 -12 -6h-119q-6 0 -8.5 3.5t0.5 8.5zM562 272q4 9 14 7l170 -22q10 -1 7 -15q-16 -108 -105 -176.5t-208 -68.5q-151 0 -251.5 105t-100.5 256t100 254.5t252 103.5q119 0 207 -68.5t106 -176.5q3 -14 -7 -15
l-170 -22q-10 -2 -14 7q-10 26 -21.5 44t-40.5 35t-69 17q-54 0 -97 -43.5t-43 -135.5q0 -93 43.5 -137.5t96.5 -44.5q40 0 69 17t40.5 35t21.5 44z" />
    <glyph glyph-name="cacute" unicode="&#x107;" horiz-adv-x="575" 
d="M317 749q3 7 12 7h155q6 0 8 -4t-2 -8l-101 -138q-4 -6 -12 -6h-119q-6 0 -8.5 3.5t0.5 8.5zM544 196q6 -2 4 -11q-5 -68 -70 -128t-178 -60q-117 0 -191 77t-74 190t74 189.5t191 76.5q113 0 178.5 -59.5t69.5 -127.5q3 -11 -4 -13l-164 -21q-11 -2 -11 7q-14 65 -65 65
q-76 0 -76 -117q0 -118 76 -118q48 0 65 64q1 8 11 7z" />
    <glyph glyph-name="Cdotaccent" unicode="&#x10a;" horiz-adv-x="811" 
d="M441 768q-43 0 -74 31t-31 74q0 44 30.5 74.5t74.5 30.5t74.5 -30.5t30.5 -74.5q0 -43 -31 -74t-74 -31zM562 272q4 9 14 7l170 -22q10 -1 7 -15q-16 -108 -105 -176.5t-208 -68.5q-151 0 -251.5 105t-100.5 256t100 254.5t252 103.5q119 0 207 -68.5t106 -176.5
q3 -14 -7 -15l-170 -22q-10 -2 -14 7q-10 26 -21.5 44t-40.5 35t-69 17q-54 0 -97 -43.5t-43 -135.5q0 -93 43.5 -137.5t96.5 -44.5q40 0 69 17t40.5 35t21.5 44z" />
    <glyph glyph-name="cdotaccent" unicode="&#x10b;" horiz-adv-x="575" 
d="M301 581q-43 0 -74 31t-31 74q0 44 30.5 74.5t74.5 30.5t74.5 -30.5t30.5 -74.5q0 -43 -31 -74t-74 -31zM544 196q6 -2 4 -11q-5 -68 -70 -128t-178 -60q-117 0 -191 77t-74 190t74 189.5t191 76.5q113 0 178.5 -59.5t69.5 -127.5q3 -11 -4 -13l-164 -21q-11 -2 -11 7
q-14 65 -65 65q-76 0 -76 -117q0 -118 76 -118q48 0 65 64q1 8 11 7z" />
    <glyph glyph-name="Ccaron" unicode="&#x10c;" horiz-adv-x="811" 
d="M295 841v106q0 13 12 8l126 -59q7 -4 14 0l126 59q12 5 12 -8v-106q0 -7 -8 -12l-130 -61q-7 -4 -14 0l-130 61q-8 5 -8 12zM562 272q4 9 14 7l170 -22q10 -1 7 -15q-16 -108 -105 -176.5t-208 -68.5q-151 0 -251.5 105t-100.5 256t100 254.5t252 103.5q119 0 207 -68.5
t106 -176.5q3 -14 -7 -15l-170 -22q-10 -2 -14 7q-10 26 -21.5 44t-40.5 35t-69 17q-54 0 -97 -43.5t-43 -135.5q0 -93 43.5 -137.5t96.5 -44.5q40 0 69 17t40.5 35t21.5 44z" />
    <glyph glyph-name="ccaron" unicode="&#x10d;" horiz-adv-x="575" 
d="M155 654v106q0 13 12 8l126 -59q7 -3 14 0l126 59q12 5 12 -8v-106q0 -7 -8 -12l-130 -61q-7 -3 -14 0l-130 61q-8 5 -8 12zM544 196q6 -2 4 -11q-5 -68 -70 -128t-178 -60q-117 0 -191 77t-74 190t74 189.5t191 76.5q113 0 178.5 -59.5t69.5 -127.5q3 -11 -4 -13
l-164 -21q-11 -2 -11 7q-14 65 -65 65q-76 0 -76 -117q0 -118 76 -118q48 0 65 64q1 8 11 7z" />
    <glyph glyph-name="Dcaron" unicode="&#x10e;" horiz-adv-x="776" 
d="M213 837v106q0 13 12 8l126 -59q7 -4 14 0l126 59q12 5 12 -8v-106q0 -7 -8 -12l-130 -61q-7 -4 -14 0l-130 61q-8 5 -8 12zM729 356q0 -151 -108 -253.5t-263 -102.5h-260q-10 0 -10 10v693q0 10 10 10h260q156 0 263.5 -102.5t107.5 -254.5zM525 356q0 85 -51 131.5
t-104 46.5h-69q-10 0 -10 -10v-336q0 -10 10 -10h69q53 0 104 46.5t51 131.5z" />
    <glyph glyph-name="dcaron" unicode="&#x10f;" horiz-adv-x="612" 
d="M724 745q2 9 11 9h158q11 0 8 -11l-93 -266q-3 -8 -12 -8h-124q-12 0 -8 11zM268 -3q-104 0 -163.5 79.5t-59.5 187.5t59.5 187t163.5 79q64 0 116 -55q4 -5 7 -3.5t3 7.5v266q0 8 9 8h176q8 0 8 -8v-737q0 -8 -8 -8h-177q-8 0 -8 8v41q0 3 -1.5 5t-4 1.5t-4.5 -3.5
q-52 -55 -116 -55zM322 381q-26 0 -44.5 -12.5t-26 -33t-10.5 -37t-3 -34.5t3 -35t10.5 -37.5t26 -33t44.5 -12.5q9 0 17.5 1.5t13 3t12.5 6t10 6t10 8.5t9 7v171q-1 0 -9 7t-10 8.5t-10 6t-12.5 6t-13 3t-17.5 1.5z" />
    <glyph glyph-name="Dcroat" unicode="&#x110;" horiz-adv-x="966" 
d="M523 713q156 0 263.5 -102.5t107.5 -254.5q0 -151 -108 -253.5t-263 -102.5h-260q-10 0 -10 10v241h-117q-10 0 -10 10v159q0 10 10 10h117v273q0 10 10 10h260zM535 178q53 0 104 46.5t51 131.5t-51 131.5t-104 46.5h-69q-10 0 -10 -10v-94h110q10 0 10 -10v-159
q0 -10 -10 -10h-110v-63q0 -10 10 -10h69z" />
    <glyph glyph-name="dcroat" unicode="&#x111;" horiz-adv-x="612" 
d="M652 689q10 0 10 -10v-85q0 -10 -10 -10h-65v-576q0 -8 -8 -8h-177q-8 0 -8 8v41q0 3 -1.5 5t-4 1.5t-4.5 -3.5q-52 -55 -116 -55q-104 0 -163.5 79.5t-59.5 187.5t59.5 187t163.5 79q64 0 116 -55q4 -5 7 -3.5t3 7.5v105h-167q-10 0 -10 10v85q0 10 10 10h167v56
q0 8 9 8h176q8 0 8 -8v-56h65zM394 178v171q-1 0 -9 7t-10 8.5t-10 6t-12.5 6t-13 3t-17.5 1.5q-26 0 -44.5 -12.5t-26 -33t-10.5 -37t-3 -34.5t3 -35t10.5 -37.5t26 -33t44.5 -12.5q9 0 17.5 1.5t13 3t12.5 6t10 6t10 8.5t9 7z" />
    <glyph glyph-name="Emacron" unicode="&#x112;" horiz-adv-x="612" 
d="M176 891q0 8 8 8h264q8 0 8 -8v-114q0 -8 -8 -8h-264q-8 0 -8 8v114zM544 179q10 0 10 -10v-159q0 -10 -10 -10h-456q-10 0 -10 10v693q0 10 10 10h446q10 0 10 -10v-159q0 -10 -10 -10h-243q-10 0 -10 -10v-72q0 -10 10 -10h176q10 0 10 -10v-159q0 -10 -10 -10h-176
q-10 0 -10 -10v-64q0 -10 10 -10h253z" />
    <glyph glyph-name="emacron" unicode="&#x113;" horiz-adv-x="570" 
d="M154 708q0 8 8 8h264q8 0 8 -8v-114q0 -8 -8 -8h-264q-8 0 -8 8v114zM555 267v-52q0 -8 -8 -8h-302q-6 0 -6 -8q0 -22 14.5 -35t26.5 -15.5t22 -2.5q42 0 61 25q3 7 10 5l164 -21q9 -2 6 -9q-21 -64 -82.5 -106.5t-154.5 -42.5q-130 0 -200.5 75.5t-70.5 191.5
q0 113 71.5 189.5t188.5 76.5q124 0 192 -76t68 -187zM295 394q-54 0 -55 -54q0 -10 5 -10h98q8 0 8 7q0 32 -14.5 44.5t-41.5 12.5z" />
    <glyph glyph-name="Edotaccent" unicode="&#x116;" horiz-adv-x="612" 
d="M316 764q-43 0 -74 31t-31 74q0 44 30.5 74.5t74.5 30.5t74.5 -30.5t30.5 -74.5q0 -43 -31 -74t-74 -31zM544 179q10 0 10 -10v-159q0 -10 -10 -10h-456q-10 0 -10 10v693q0 10 10 10h446q10 0 10 -10v-159q0 -10 -10 -10h-243q-10 0 -10 -10v-72q0 -10 10 -10h176
q10 0 10 -10v-159q0 -10 -10 -10h-176q-10 0 -10 -10v-64q0 -10 10 -10h253z" />
    <glyph glyph-name="edotaccent" unicode="&#x117;" horiz-adv-x="570" 
d="M295 581q-43 0 -74 31t-31 74q0 44 30.5 74.5t74.5 30.5t74.5 -30.5t30.5 -74.5q0 -43 -31 -74t-74 -31zM555 267v-52q0 -8 -8 -8h-302q-6 0 -6 -8q0 -22 14.5 -35t26.5 -15.5t22 -2.5q42 0 61 25q3 7 10 5l164 -21q9 -2 6 -9q-21 -64 -82.5 -106.5t-154.5 -42.5
q-130 0 -200.5 75.5t-70.5 191.5q0 113 71.5 189.5t188.5 76.5q124 0 192 -76t68 -187zM295 394q-54 0 -55 -54q0 -10 5 -10h98q8 0 8 7q0 32 -14.5 44.5t-41.5 12.5z" />
    <glyph glyph-name="Eogonek" unicode="&#x118;" horiz-adv-x="612" 
d="M544 179q10 0 10 -10v-159q0 -10 -10 -10h-82q-66 -39 -66 -83q0 -48 40 -48q17 0 47 6q3 1 6 -1t3 -6v-48q0 -6 -3 -8q-29 -22 -84 -22q-53 0 -90 24t-37 68t26 71t77 47h-293q-10 0 -10 10v693q0 10 10 10h446q10 0 10 -10v-159q0 -10 -10 -10h-243q-10 0 -10 -10v-72
q0 -10 10 -10h176q10 0 10 -10v-159q0 -10 -10 -10h-176q-10 0 -10 -10v-64q0 -10 10 -10h253z" />
    <glyph glyph-name="eogonek" unicode="&#x119;" horiz-adv-x="570" 
d="M295 530q124 0 192 -76t68 -187v-52q0 -8 -8 -8h-302q-6 0 -6 -8q0 -22 14.5 -35t26.5 -15.5t22 -2.5q42 0 61 25q3 7 10 5l164 -21q9 -2 6 -9q-17 -49 -56.5 -86t-100.5 -53q-40 -31 -40 -66q0 -48 40 -48q17 0 47 6q3 1 6 -1t3 -6v-48q0 -6 -3 -8q-29 -22 -84 -22
q-53 0 -90 24t-37 68q0 58 50 92q-117 9 -180 82.5t-63 183.5q0 113 71.5 189.5t188.5 76.5zM343 330q8 0 8 7q0 32 -14.5 44.5t-41.5 12.5q-54 0 -55 -54q0 -10 5 -10h98z" />
    <glyph glyph-name="Ecaron" unicode="&#x11a;" horiz-adv-x="612" 
d="M171 837v106q0 13 12 8l126 -59q7 -4 14 0l126 59q12 5 12 -8v-106q0 -7 -8 -12l-130 -61q-7 -4 -14 0l-130 61q-8 5 -8 12zM544 179q10 0 10 -10v-159q0 -10 -10 -10h-456q-10 0 -10 10v693q0 10 10 10h446q10 0 10 -10v-159q0 -10 -10 -10h-243q-10 0 -10 -10v-72
q0 -10 10 -10h176q10 0 10 -10v-159q0 -10 -10 -10h-176q-10 0 -10 -10v-64q0 -10 10 -10h253z" />
    <glyph glyph-name="ecaron" unicode="&#x11b;" horiz-adv-x="570" 
d="M149 654v106q0 13 12 8l126 -59q7 -3 14 0l126 59q12 5 12 -8v-106q0 -7 -8 -12l-130 -61q-7 -3 -14 0l-130 61q-8 5 -8 12zM555 267v-52q0 -8 -8 -8h-302q-6 0 -6 -8q0 -22 14.5 -35t26.5 -15.5t22 -2.5q42 0 61 25q3 7 10 5l164 -21q9 -2 6 -9q-21 -64 -82.5 -106.5
t-154.5 -42.5q-130 0 -200.5 75.5t-70.5 191.5q0 113 71.5 189.5t188.5 76.5q124 0 192 -76t68 -187zM295 394q-54 0 -55 -54q0 -10 5 -10h98q8 0 8 7q0 32 -14.5 44.5t-41.5 12.5z" />
    <glyph glyph-name="Gbreve" unicode="&#x11e;" horiz-adv-x="839" 
d="M305 934q0 8 8 8h64q8 0 8 -8q4 -21 22.5 -31.5t40.5 -10.5q21 0 40 10.5t22 31.5q0 8 8 8h64q8 0 8 -8q-3 -74 -44.5 -110.5t-97.5 -36.5t-98 36.5t-45 110.5zM777 404q10 0 10 -10v-37q0 -154 -93 -257t-245 -103q-149 0 -255 105.5t-106 254.5q0 150 99.5 254.5
t247.5 104.5q124 0 212.5 -65.5t118.5 -166.5q3 -11 -5 -11l-169 -21q-12 -2 -18 8q-44 77 -126 77q-71 0 -114 -51t-43 -129q0 -79 46 -130t125 -51q56 0 88.5 26.5t32.5 50.5q0 10 -9 10h-132q-10 0 -10 10v121q0 10 10 10h335z" />
    <glyph glyph-name="gbreve" unicode="&#x11f;" horiz-adv-x="629" 
d="M172 748q0 8 8 8h64q8 0 8 -8q4 -21 22.5 -31.5t40.5 -10.5q21 0 40 10.5t22 31.5q0 8 8 8h64q8 0 8 -8q-3 -74 -44.5 -110.5t-97.5 -36.5t-98 36.5t-45 110.5zM584 527q8 0 8 -8v-493q0 -99 -78.5 -167.5t-184.5 -68.5q-136 0 -235 54q-7 2 -5 9l20 109q0 11 9 6
q75 -29 160 -29q25 0 42 2t37.5 10t31 27t10.5 48v23q0 3 -1.5 5t-4 1.5t-4.5 -3.5q-52 -55 -116 -55q-104 0 -163.5 79.5t-59.5 187.5t59.5 187t163.5 79q64 0 116 -55q4 -5 7 -3.5t3 7.5v40q0 8 8 8h177zM327 146q11 0 19.5 1.5t16.5 6t12 6.5t13 9.5t11 8.5v171
q-2 1 -11 8.5t-13 9.5t-12 6.5t-16.5 6t-19.5 1.5q-26 0 -44.5 -12.5t-26 -33t-10.5 -37t-3 -34.5t3 -35t10.5 -37.5t26 -33t44.5 -12.5z" />
    <glyph glyph-name="Gdotaccent" unicode="&#x120;" horiz-adv-x="839" 
d="M448 767q-43 0 -74 31t-31 74q0 44 30.5 74.5t74.5 30.5t74.5 -30.5t30.5 -74.5q0 -43 -31 -74t-74 -31zM777 404q10 0 10 -10v-37q0 -154 -93 -257t-245 -103q-149 0 -255 105.5t-106 254.5q0 150 99.5 254.5t247.5 104.5q124 0 212.5 -65.5t118.5 -166.5q3 -11 -5 -11
l-169 -21q-12 -2 -18 8q-44 77 -126 77q-71 0 -114 -51t-43 -129q0 -79 46 -130t125 -51q56 0 88.5 26.5t32.5 50.5q0 10 -9 10h-132q-10 0 -10 10v121q0 10 10 10h335z" />
    <glyph glyph-name="gdotaccent" unicode="&#x121;" horiz-adv-x="629" 
d="M315 581q-43 0 -74 31t-31 74q0 44 30.5 74.5t74.5 30.5t74.5 -30.5t30.5 -74.5q0 -43 -31 -74t-74 -31zM584 527q8 0 8 -8v-493q0 -99 -78.5 -167.5t-184.5 -68.5q-136 0 -235 54q-7 2 -5 9l20 109q0 11 9 6q75 -29 160 -29q25 0 42 2t37.5 10t31 27t10.5 48v23
q0 3 -1.5 5t-4 1.5t-4.5 -3.5q-52 -55 -116 -55q-104 0 -163.5 79.5t-59.5 187.5t59.5 187t163.5 79q64 0 116 -55q4 -5 7 -3.5t3 7.5v40q0 8 8 8h177zM327 146q11 0 19.5 1.5t16.5 6t12 6.5t13 9.5t11 8.5v171q-2 1 -11 8.5t-13 9.5t-12 6.5t-16.5 6t-19.5 1.5
q-26 0 -44.5 -12.5t-26 -33t-10.5 -37t-3 -34.5t3 -35t10.5 -37.5t26 -33t44.5 -12.5z" />
    <glyph glyph-name="Gcommaaccent" unicode="&#x122;" horiz-adv-x="839" 
d="M777 404q10 0 10 -10v-37q0 -154 -93 -257t-245 -103q-149 0 -255 105.5t-106 254.5q0 150 99.5 254.5t247.5 104.5q124 0 212.5 -65.5t118.5 -166.5q3 -11 -5 -11l-169 -21q-12 -2 -18 8q-44 77 -126 77q-71 0 -114 -51t-43 -129q0 -79 46 -130t125 -51q56 0 88.5 26.5
t32.5 50.5q0 10 -9 10h-132q-10 0 -10 10v121q0 10 10 10h335zM342 -70q2 9 11 9h158q11 0 8 -11l-93 -265q-3 -8 -12 -8h-124q-12 0 -8 11z" />
    <glyph glyph-name="gcommaaccent" unicode="&#x123;" horiz-adv-x="629" 
d="M374 600q-2 -9 -11 -9h-157q-11 0 -8 11l92 265q3 8 12 8h124q12 0 8 -11zM584 527q8 0 8 -8v-493q0 -99 -78.5 -167.5t-184.5 -68.5q-136 0 -235 54q-7 2 -5 9l20 109q0 11 9 6q75 -29 160 -29q25 0 42 2t37.5 10t31 27t10.5 48v23q0 3 -1.5 5t-4 1.5t-4.5 -3.5
q-52 -55 -116 -55q-104 0 -163.5 79.5t-59.5 187.5t59.5 187t163.5 79q64 0 116 -55q4 -5 7 -3.5t3 7.5v40q0 8 8 8h177zM327 146q11 0 19.5 1.5t16.5 6t12 6.5t13 9.5t11 8.5v171q-2 1 -11 8.5t-13 9.5t-12 6.5t-16.5 6t-19.5 1.5q-26 0 -44.5 -12.5t-26 -33t-10.5 -37
t-3 -34.5t3 -35t10.5 -37.5t26 -33t44.5 -12.5z" />
    <glyph glyph-name="Hbar" unicode="&#x126;" horiz-adv-x="826" 
d="M830 638q10 0 10 -10v-84q0 -10 -10 -10h-71v-524q0 -10 -10 -10h-184q-10 0 -10 10v228q0 10 -10 10h-244q-10 0 -10 -10v-228q0 -10 -10 -10h-183q-10 0 -10 10v524h-73q-10 0 -10 10v84q0 10 10 10h73v65q0 10 10 10h183q10 0 10 -10v-65h264v65q0 10 10 10h184
q10 0 10 -10v-65h71zM555 437v97h-264v-97q0 -10 10 -10h244q10 0 10 10z" />
    <glyph glyph-name="hbar" unicode="&#x127;" horiz-adv-x="625" 
d="M386 530q105 0 159.5 -68t54.5 -167v-287q0 -8 -8 -8h-177q-8 0 -8 8v289q0 40 -23 62t-62 22q-38 0 -64.5 -28.5t-19.5 -68.5v-276q0 -8 -8 -8h-177q-8 0 -8 8v561h-42q-10 0 -10 10v85q0 10 10 10h42v71q0 8 8 8h177q8 0 8 -8v-71h190q10 0 10 -10v-85q0 -10 -10 -10
h-190v-106q0 -3 1.5 -5t3.5 -1.5t4 3.5q60 70 139 70z" />
    <glyph glyph-name="Imacron" unicode="&#x12a;" horiz-adv-x="339" 
d="M42 891q0 8 8 8h264q8 0 8 -8v-114q0 -8 -8 -8h-264q-8 0 -8 8v114zM281 10q0 -10 -10 -10h-183q-10 0 -10 10v693q0 10 10 10h183q10 0 10 -10v-693z" />
    <glyph glyph-name="imacron" unicode="&#x12b;" horiz-adv-x="313" 
d="M26 705q0 8 8 8h264q8 0 8 -8v-114q0 -8 -8 -8h-264q-8 0 -8 8v114zM70 519q0 8 8 8h177q8 0 8 -8v-511q0 -8 -8 -8h-177q-8 0 -8 8v511z" />
    <glyph glyph-name="Iogonek" unicode="&#x12e;" horiz-adv-x="339" 
d="M271 713q10 0 10 -10v-693q0 -10 -10 -10h-49q-64 -39 -64 -82q0 -48 40 -48q17 0 47 6q3 1 6 -1t3 -6v-48q0 -7 -3 -8q-29 -22 -84 -22q-53 0 -90 24t-37 68t25.5 70.5t74.5 46.5h-52q-10 0 -10 10v693q0 10 10 10h183z" />
    <glyph glyph-name="iogonek" unicode="&#x12f;" horiz-adv-x="313" 
d="M167 578q-43 0 -74 31t-31 74q0 44 30.5 74.5t74.5 30.5t74.5 -30.5t30.5 -74.5q0 -43 -31 -74t-74 -31zM255 527q8 0 8 -8v-511q0 -8 -8 -8h-47q-50 -35 -50 -73q0 -48 40 -48q24 0 47 7q4 1 6.5 -1t2.5 -6v-49q0 -6 -3 -8q-32 -22 -84 -22q-53 0 -90 24t-37 68
q0 72 79 108h-41q-8 0 -8 8v511q0 8 8 8h177z" />
    <glyph glyph-name="Idotaccent" unicode="&#x130;" horiz-adv-x="339" 
d="M182 764q-43 0 -74 31t-31 74q0 44 30.5 74.5t74.5 30.5t74.5 -30.5t30.5 -74.5q0 -43 -31 -74t-74 -31zM281 10q0 -10 -10 -10h-183q-10 0 -10 10v693q0 10 10 10h183q10 0 10 -10v-693z" />
    <glyph glyph-name="dotlessi" unicode="&#x131;" horiz-adv-x="313" 
d="M70 519q0 8 8 8h177q8 0 8 -8v-511q0 -8 -8 -8h-177q-8 0 -8 8v511z" />
    <glyph glyph-name="Kcommaaccent" unicode="&#x136;" horiz-adv-x="831" 
d="M553 0q-8 0 -13 6l-178 216q-7 9 -14 0l-52 -59q-5 -10 -5 -12v-141q0 -10 -10 -10h-183q-10 0 -10 10v693q0 10 10 10h183q10 0 10 -10v-261q0 -7 3.5 -8.5t8.5 3.5l235 270q4 6 12 6h214q6 0 8 -3.5t-2 -8.5l-285 -331q-6 -6 0 -14l286 -344q4 -4 2 -8t-8 -4h-212z
M338 -70q2 9 11 9h158q11 0 8 -11l-93 -265q-3 -8 -12 -8h-124q-12 0 -8 11z" />
    <glyph glyph-name="kcommaaccent" unicode="&#x137;" horiz-adv-x="702" 
d="M444 0q-7 0 -10 5l-136 179q-5 7 -11 1l-33 -37q-4 -4 -4 -10v-130q0 -8 -8 -8h-176q-8 0 -8 8v737q0 8 8 8h176q8 0 8 -8v-355q0 -5 3 -7t7 2l142 138q4 4 10 4h243q5 0 6.5 -3t-2.5 -7l-222 -212q-5 -6 -1 -11l226 -284q8 -10 -4 -10h-214zM267 -70q2 9 11 9h158
q11 0 8 -11l-93 -265q-3 -8 -12 -8h-124q-12 0 -8 11z" />
    <glyph glyph-name="Lacute" unicode="&#x139;" horiz-adv-x="584" 
d="M344 932q3 7 12 7h155q6 0 8 -3.5t-2 -8.5l-101 -138q-4 -6 -12 -6h-119q-6 0 -8.5 3.5t0.5 8.5zM516 179q10 0 10 -10v-159q0 -10 -10 -10h-428q-10 0 -10 10v693q0 10 10 10h183q10 0 10 -10v-514q0 -10 10 -10h225z" />
    <glyph glyph-name="lacute" unicode="&#x13a;" horiz-adv-x="263" 
d="M140 972q3 7 12 7h155q6 0 8 -3.5t-2 -8.5l-101 -138q-4 -6 -12 -6h-119q-6 0 -8.5 3.5t0.5 8.5zM45 745q0 8 8 8h177q8 0 8 -8v-737q0 -8 -8 -8h-177q-8 0 -8 8v737z" />
    <glyph glyph-name="Lcommaaccent" unicode="&#x13b;" horiz-adv-x="584" 
d="M516 179q10 0 10 -10v-159q0 -10 -10 -10h-428q-10 0 -10 10v693q0 10 10 10h183q10 0 10 -10v-514q0 -10 10 -10h225zM214 -70q2 9 11 9h158q11 0 8 -11l-93 -265q-3 -8 -12 -8h-124q-12 0 -8 11z" />
    <glyph glyph-name="lcommaaccent" unicode="&#x13c;" horiz-adv-x="263" 
d="M45 745q0 8 8 8h177q8 0 8 -8v-737q0 -8 -8 -8h-177q-8 0 -8 8v737zM50 -70q2 9 11 9h158q11 0 8 -11l-93 -265q-3 -8 -12 -8h-124q-12 0 -8 11z" />
    <glyph glyph-name="Lcaron" unicode="&#x13d;" horiz-adv-x="584" 
d="M450 745q2 9 11 9h158q11 0 8 -11l-93 -266q-3 -8 -12 -8h-124q-12 0 -8 11zM516 179q10 0 10 -10v-159q0 -10 -10 -10h-428q-10 0 -10 10v693q0 10 10 10h183q10 0 10 -10v-514q0 -10 10 -10h225z" />
    <glyph glyph-name="lcaron" unicode="&#x13e;" horiz-adv-x="263" 
d="M369 745q2 9 11 9h158q11 0 8 -11l-93 -266q-3 -8 -12 -8h-124q-12 0 -8 11zM45 745q0 8 8 8h177q8 0 8 -8v-737q0 -8 -8 -8h-177q-8 0 -8 8v737z" />
    <glyph glyph-name="Lslash" unicode="&#x141;" horiz-adv-x="584" 
d="M516 179q10 0 10 -10v-159q0 -10 -10 -10h-428q-10 0 -10 10v262l-54 -19q-7 -3 -13 3l-74 73q-9 9 3 14l138 49v311q0 10 10 10h183q10 0 10 -10v-239l85 30q8 3 12 -3l74 -73q9 -9 -4 -13l-167 -60v-156q0 -10 10 -10h225z" />
    <glyph glyph-name="lslash" unicode="&#x142;" horiz-adv-x="263" 
d="M409 430q9 -9 -4 -13l-167 -60v-349q0 -8 -8 -8h-177q-8 0 -8 8v280l-65 -23q-7 -3 -13 3l-73 73q-9 9 3 14l148 52v338q0 8 8 8h177q8 0 8 -8v-269l85 30q7 3 12 -3z" />
    <glyph glyph-name="Nacute" unicode="&#x143;" horiz-adv-x="767" 
d="M405 932q3 7 12 7h155q6 0 8 -3.5t-2 -8.5l-101 -138q-4 -6 -12 -6h-119q-6 0 -8.5 3.5t0.5 8.5zM709 10q0 -10 -10 -10h-116q-7 0 -12 6l-268 307q-4 6 -8 4t-4 -9v-298q0 -10 -10 -10h-183q-10 0 -10 10v693q0 10 10 10h116q8 0 12 -6l267 -307q5 -5 8.5 -3.5t3.5 8.5
v298q0 10 10 10h184q10 0 10 -10v-693z" />
    <glyph glyph-name="nacute" unicode="&#x144;" horiz-adv-x="622" 
d="M360 749q3 7 12 7h155q6 0 8 -4t-2 -8l-101 -138q-4 -6 -12 -6h-119q-6 0 -8.5 3.5t0.5 8.5zM53 0q-8 0 -8 8v511q0 8 8 8h177q8 0 8 -8v-56q0 -3 1.5 -5t3.5 -1.5t4 3.5q27 31 68.5 50.5t83.5 19.5q198 0 198 -223v-299q0 -8 -8 -8h-176q-8 0 -8 8v289q0 84 -83 84
q-36 0 -59 -27.5t-25 -69.5v-276q0 -8 -8 -8h-177z" />
    <glyph glyph-name="Ncommaaccent" unicode="&#x145;" horiz-adv-x="767" 
d="M709 10q0 -10 -10 -10h-116q-7 0 -12 6l-268 307q-4 6 -8 4t-4 -9v-298q0 -10 -10 -10h-183q-10 0 -10 10v693q0 10 10 10h116q8 0 12 -6l267 -307q5 -5 8.5 -3.5t3.5 8.5v298q0 10 10 10h184q10 0 10 -10v-693zM318 -70q2 9 11 9h158q11 0 8 -11l-93 -265q-3 -8 -12 -8
h-124q-12 0 -8 11z" />
    <glyph glyph-name="ncommaaccent" unicode="&#x146;" horiz-adv-x="622" 
d="M53 0q-8 0 -8 8v511q0 8 8 8h177q8 0 8 -8v-56q0 -3 1.5 -5t3.5 -1.5t4 3.5q27 31 68.5 50.5t83.5 19.5q198 0 198 -223v-299q0 -8 -8 -8h-176q-8 0 -8 8v289q0 84 -83 84q-36 0 -59 -27.5t-25 -69.5v-276q0 -8 -8 -8h-177zM233 -70q2 9 11 9h158q11 0 8 -11l-93 -265
q-3 -8 -12 -8h-124q-12 0 -8 11z" />
    <glyph glyph-name="Ncaron" unicode="&#x147;" horiz-adv-x="767" 
d="M243 837v106q0 13 12 8l126 -59q7 -4 14 0l126 59q12 5 12 -8v-106q0 -7 -8 -12l-130 -61q-7 -4 -14 0l-130 61q-8 5 -8 12zM709 10q0 -10 -10 -10h-116q-7 0 -12 6l-268 307q-4 6 -8 4t-4 -9v-298q0 -10 -10 -10h-183q-10 0 -10 10v693q0 10 10 10h116q8 0 12 -6
l267 -307q5 -5 8.5 -3.5t3.5 8.5v298q0 10 10 10h184q10 0 10 -10v-693z" />
    <glyph glyph-name="ncaron" unicode="&#x148;" horiz-adv-x="622" 
d="M198 654v106q0 13 12 8l126 -59q7 -3 14 0l126 59q12 5 12 -8v-106q0 -7 -8 -12l-130 -61q-7 -3 -14 0l-130 61q-8 5 -8 12zM53 0q-8 0 -8 8v511q0 8 8 8h177q8 0 8 -8v-56q0 -3 1.5 -5t3.5 -1.5t4 3.5q27 31 68.5 50.5t83.5 19.5q198 0 198 -223v-299q0 -8 -8 -8h-176
q-8 0 -8 8v289q0 84 -83 84q-36 0 -59 -27.5t-25 -69.5v-276q0 -8 -8 -8h-177z" />
    <glyph glyph-name="Eng" unicode="&#x14a;" horiz-adv-x="792" 
d="M699 713q10 0 10 -10v-693v-44q0 -83 -48.5 -129.5t-139.5 -46.5q-75 0 -154 44q-8 2 -6 9l20 84q2 11 10 6q47 -19 110 -19q33 0 59.5 15.5t26.5 36.5q0 19 -15 39l-1 1l-268 307q-4 6 -8 4t-4 -9v-298q0 -10 -10 -10h-183q-10 0 -10 10v693q0 10 10 10h116q8 0 12 -6
l267 -307q5 -5 8.5 -3.5t3.5 8.5v298q0 10 10 10h184z" />
    <glyph glyph-name="eng" unicode="&#x14b;" horiz-adv-x="672" 
d="M399 530q198 0 198 -223v-299v-1q-2 -106 -45.5 -161.5t-142.5 -55.5q-75 0 -154 44q-8 2 -6 9l20 84q2 11 10 6q7 -3 17 -7t14 -5.5t10.5 -3.5t13.5 -2.5t17 -0.5q54 0 54 100v283q0 84 -83 84q-36 0 -59 -27.5t-25 -69.5v-276q0 -8 -8 -8h-177q-8 0 -8 8v511q0 8 8 8
h177q8 0 8 -8v-56q0 -3 1.5 -5t3.5 -1.5t4 3.5q27 31 68.5 50.5t83.5 19.5z" />
    <glyph glyph-name="Omacron" unicode="&#x14c;" horiz-adv-x="874" 
d="M313 894q0 8 8 8h264q8 0 8 -8v-114q0 -8 -8 -8h-264q-8 0 -8 8v114zM453 716q155 0 259.5 -102.5t104.5 -256.5t-104.5 -257t-259.5 -103t-260 103t-105 257t105 256.5t260 102.5zM453 537q-64 0 -113 -45t-49 -135t49 -135.5t113 -45.5q63 0 111.5 45.5t48.5 135.5
t-48.5 135t-111.5 45z" />
    <glyph glyph-name="omacron" unicode="&#x14d;" horiz-adv-x="608" 
d="M170 708q0 8 8 8h264q8 0 8 -8v-114q0 -8 -8 -8h-264q-8 0 -8 8v114zM314 -3q-125 0 -202 77t-77 190t77 189.5t202 76.5q124 0 201.5 -76.5t77.5 -189.5t-77.5 -190t-201.5 -77zM314 381q-43 0 -64.5 -32t-21.5 -85q0 -52 22 -85t64 -33t64.5 33t22.5 85t-22.5 84.5
t-64.5 32.5z" />
    <glyph glyph-name="Ohungarumlaut" unicode="&#x150;" horiz-adv-x="874" 
d="M423 787q-2 -9 -11 -9h-157q-11 0 -8 11l92 265q3 8 12 8h124q12 0 8 -11zM660 787q-2 -9 -11 -9h-157q-11 0 -8 11l92 265q3 8 12 8h124q12 0 8 -11zM453 716q155 0 259.5 -102.5t104.5 -256.5t-104.5 -257t-259.5 -103t-260 103t-105 257t105 256.5t260 102.5zM453 537
q-64 0 -113 -45t-49 -135t49 -135.5t113 -45.5q63 0 111.5 45.5t48.5 135.5t-48.5 135t-111.5 45z" />
    <glyph glyph-name="ohungarumlaut" unicode="&#x151;" horiz-adv-x="608" 
d="M280 601q-2 -9 -11 -9h-157q-11 0 -8 11l92 265q3 8 12 8h124q12 0 8 -11zM517 601q-2 -9 -11 -9h-157q-11 0 -8 11l92 265q3 8 12 8h124q12 0 8 -11zM314 -3q-125 0 -202 77t-77 190t77 189.5t202 76.5q124 0 201.5 -76.5t77.5 -189.5t-77.5 -190t-201.5 -77zM314 381
q-43 0 -64.5 -32t-21.5 -85q0 -52 22 -85t64 -33t64.5 33t22.5 85t-22.5 84.5t-64.5 32.5z" />
    <glyph glyph-name="OE" unicode="&#x152;" horiz-adv-x="1168" 
d="M1117 179q10 0 10 -10v-159q0 -10 -10 -10h-457q-10 0 -10 10v41q-89 -54 -197 -54q-155 0 -260 103t-105 257t105 256.5t260 102.5q108 0 197 -54v41q0 10 10 10h447q10 0 10 -10v-159q0 -10 -10 -10h-243q-10 0 -10 -10v-72q0 -10 10 -10h176q10 0 10 -10v-159
q0 -10 -10 -10h-176q-10 0 -10 -10v-64q0 -10 10 -10h253zM453 176q63 0 111.5 45.5t48.5 135.5t-48.5 135t-111.5 45q-64 0 -113 -45t-49 -135t49 -135.5t113 -45.5z" />
    <glyph glyph-name="oe" unicode="&#x153;" horiz-adv-x="1023" 
d="M701 530q125 0 192.5 -76t67.5 -187v-52q0 -8 -8 -8h-301q-7 0 -7 -8q0 -22 14.5 -35t26.5 -15.5t22 -2.5q42 0 61 25q3 7 10 5l164 -21q9 -2 6 -9q-21 -64 -82.5 -106.5t-154.5 -42.5q-127 0 -199 74q-79 -74 -199 -74q-125 0 -202 77t-77 190t77 189.5t202 76.5
q122 0 200 -75q73 75 187 75zM749 330q8 0 8 7q0 32 -14.5 44.5t-41.5 12.5q-54 0 -55 -54q0 -10 5 -10h98zM314 146q42 0 64.5 33t22.5 85t-22.5 84.5t-64.5 32.5q-43 0 -64.5 -32t-21.5 -85q0 -52 22 -85t64 -33z" />
    <glyph glyph-name="Racute" unicode="&#x154;" horiz-adv-x="732" 
d="M335 932q3 7 12 7h155q6 0 8 -3.5t-2 -8.5l-101 -138q-4 -6 -12 -6h-119q-6 0 -8.5 3.5t0.5 8.5zM88 0q-10 0 -10 10v693q0 10 10 10h322q108 0 186 -74.5t78 -182.5q0 -139 -119 -216q-8 -5 -3 -14l116 -214q3 -5 0.5 -8.5t-7.5 -3.5h-198q-9 0 -12 7l-95 185
q-3 7 -12 7h-53q-10 0 -10 -10v-179q0 -10 -10 -10h-183zM291 377h87q43 0 67.5 23.5t24.5 55.5t-25.5 55t-59.5 23h-94q-10 0 -10 -10v-137q0 -10 10 -10z" />
    <glyph glyph-name="racute" unicode="&#x155;" horiz-adv-x="483" 
d="M260 746q3 7 12 7h155q6 0 8 -3.5t-2 -8.5l-101 -138q-4 -6 -12 -6h-119q-6 0 -8.5 3.5t0.5 8.5zM450 508q7 -3 5 -10l-46 -172q-2 -8 -10 -5q-5 5 -21.5 11.5t-34.5 6.5q-105 0 -105 -138v-193q0 -8 -8 -8h-177q-8 0 -8 8v511q0 8 8 8h177q8 0 8 -8v-69q0 -6 3 -7t5 4
q44 83 126 83q16 0 30.5 -3t22 -6t16.5 -8z" />
    <glyph glyph-name="Rcommaaccent" unicode="&#x156;" horiz-adv-x="732" 
d="M88 0q-10 0 -10 10v693q0 10 10 10h322q108 0 186 -74.5t78 -182.5q0 -139 -119 -216q-8 -5 -3 -14l116 -214q3 -5 0.5 -8.5t-7.5 -3.5h-198q-9 0 -12 7l-95 185q-3 7 -12 7h-53q-10 0 -10 -10v-179q0 -10 -10 -10h-183zM291 377h87q43 0 67.5 23.5t24.5 55.5t-25.5 55
t-59.5 23h-94q-10 0 -10 -10v-137q0 -10 10 -10zM288 -70q2 9 11 9h158q11 0 8 -11l-93 -265q-3 -8 -12 -8h-124q-12 0 -8 11z" />
    <glyph glyph-name="rcommaaccent" unicode="&#x157;" horiz-adv-x="483" 
d="M450 508q7 -3 5 -10l-46 -172q-2 -8 -10 -5q-5 5 -21.5 11.5t-34.5 6.5q-105 0 -105 -138v-193q0 -8 -8 -8h-177q-8 0 -8 8v511q0 8 8 8h177q8 0 8 -8v-69q0 -6 3 -7t5 4q44 83 126 83q16 0 30.5 -3t22 -6t16.5 -8zM51 -70q2 9 11 9h158q11 0 8 -11l-93 -265
q-3 -8 -12 -8h-124q-12 0 -8 11z" />
    <glyph glyph-name="Rcaron" unicode="&#x158;" horiz-adv-x="732" 
d="M173 837v106q0 13 12 8l126 -59q7 -4 14 0l126 59q12 5 12 -8v-106q0 -7 -8 -12l-130 -61q-7 -4 -14 0l-130 61q-8 5 -8 12zM88 0q-10 0 -10 10v693q0 10 10 10h322q108 0 186 -74.5t78 -182.5q0 -139 -119 -216q-8 -5 -3 -14l116 -214q3 -5 0.5 -8.5t-7.5 -3.5h-198
q-9 0 -12 7l-95 185q-3 7 -12 7h-53q-10 0 -10 -10v-179q0 -10 -10 -10h-183zM291 377h87q43 0 67.5 23.5t24.5 55.5t-25.5 55t-59.5 23h-94q-10 0 -10 -10v-137q0 -10 10 -10z" />
    <glyph glyph-name="rcaron" unicode="&#x159;" horiz-adv-x="483" 
d="M98 651v106q0 13 12 8l126 -59q7 -4 14 0l126 59q12 5 12 -8v-106q0 -7 -8 -12l-130 -61q-7 -4 -14 0l-130 61q-8 5 -8 12zM450 508q7 -3 5 -10l-46 -172q-2 -8 -10 -5q-5 5 -21.5 11.5t-34.5 6.5q-105 0 -105 -138v-193q0 -8 -8 -8h-177q-8 0 -8 8v511q0 8 8 8h177
q8 0 8 -8v-69q0 -6 3 -7t5 4q44 83 126 83q16 0 30.5 -3t22 -6t16.5 -8z" />
    <glyph glyph-name="Sacute" unicode="&#x15a;" horiz-adv-x="693" 
d="M366 931q3 7 12 7h155q6 0 8 -4t-2 -8l-101 -138q-4 -6 -12 -6h-119q-6 0 -8.5 3.5t0.5 8.5zM373 -3q-56 0 -105 10.5t-93.5 34t-70.5 68.5t-26 107v2q0 12 11 14l170 21q15 2 15 -6q0 -40 30 -56t67 -16q70 0 70 40q0 20 -22.5 31t-81 24.5t-93.5 25.5q-77 27 -114.5 77
t-37.5 130q0 104 73 158t184 54q52 0 97.5 -12.5t82.5 -37.5t58 -67t21 -97q0 -9 -10 -9l-170 -22q-11 -2 -11 10q1 29 -21 42.5t-53 13.5q-47 0 -47 -38q0 -5 1.5 -9.5t5 -8t7 -6.5t11 -6t13 -5t16 -5t17 -4.5t19.5 -5t21 -5.5q72 -19 121 -46t73.5 -59.5t34 -64t9.5 -70.5
q0 -97 -74.5 -152t-197.5 -55z" />
    <glyph glyph-name="sacute" unicode="&#x15b;" horiz-adv-x="563" 
d="M309 750q3 7 12 7h155q6 0 8 -3.5t-2 -8.5l-101 -138q-4 -6 -12 -6h-119q-6 0 -8.5 3.5t0.5 8.5zM310 -3q-71 0 -127.5 14.5t-95.5 51t-39 92.5q0 11 7 11l166 22q9 2 9 -3q0 -17 20.5 -28t46.5 -11q46 0 46 20q0 8 -5.5 13.5t-16.5 9.5t-22.5 6.5t-30.5 6.5t-34 8
q-87 25 -124 69t-37 93q0 70 59 114t156 44q99 0 166 -49t67 -109q0 -5 -8 -7l-165 -22q-3 -1 -5 1t-2 6q0 13 -14 22t-33 9q-29 0 -29 -18q0 -12 11.5 -19t52.5 -19q96 -28 151 -67.5t55 -108.5q0 -55 -33.5 -90t-81.5 -48.5t-110 -13.5z" />
    <glyph glyph-name="Scedilla" unicode="&#x15e;" horiz-adv-x="693" 
d="M402 -2l-6 -33q-2 -9 7 -9q61 -16 61 -74q0 -37 -42.5 -65t-86.5 -28q-51 0 -84 19q-5 2 -5 9l-1 49q0 4 2.5 6t6.5 1q16 -4 47 -4q44 0 44 23q0 33 -45 33q-19 0 -35 -8q-5 -2 -7.5 0t-0.5 7l33 79q-95 15 -153.5 66t-58.5 148v2q0 12 11 14l170 21q15 2 15 -6
q0 -40 30 -56t67 -16q70 0 70 40q0 20 -22.5 31t-81 24.5t-93.5 25.5q-77 27 -114.5 77t-37.5 130q0 104 73 158t184 54q52 0 97.5 -12.5t82.5 -37.5t58 -67t21 -97q0 -9 -10 -9l-170 -22q-11 -2 -11 10q1 29 -21 42.5t-53 13.5q-47 0 -47 -38q0 -5 1.5 -9.5t5 -8t7 -6.5
t11 -6t13 -5t16 -5t17 -4.5t19.5 -5t21 -5.5q72 -19 121 -46t73.5 -59.5t34 -64t9.5 -70.5q0 -91 -66 -145.5t-177 -60.5z" />
    <glyph glyph-name="scedilla" unicode="&#x15f;" horiz-adv-x="563" 
d="M310 -3q-71 0 -127.5 14.5t-95.5 51t-39 92.5q0 11 7 11l166 22q9 2 9 -3q0 -17 20.5 -28t46.5 -11q46 0 46 20q0 8 -5.5 13.5t-16.5 9.5t-22.5 6.5t-30.5 6.5t-34 8q-87 25 -124 69t-37 93q0 70 59 114t156 44q99 0 166 -49t67 -109q0 -5 -8 -7l-165 -22q-3 -1 -5 1
t-2 6q0 13 -14 22t-33 9q-29 0 -29 -18q0 -12 11.5 -19t52.5 -19q96 -28 151 -67.5t55 -108.5q0 -55 -33.5 -90t-81.5 -48.5t-110 -13.5zM258 -237q-51 0 -84 19q-5 2 -5 9l-1 49q0 4 2.5 6t6.5 1q16 -4 47 -4q44 0 44 23q0 33 -45 33q-19 0 -35 -8q-5 -2 -7.5 0t-0.5 7
l40 97h110l-11 -56q-1 -9 7 -9q61 -16 61 -74q0 -37 -42.5 -65t-86.5 -28z" />
    <glyph glyph-name="Scaron" unicode="&#x160;" horiz-adv-x="693" 
d="M204 836v106q0 13 12 8l126 -59q7 -3 14 0l126 59q12 5 12 -8v-106q0 -7 -8 -12l-130 -61q-7 -3 -14 0l-130 61q-8 5 -8 12zM373 -3q-56 0 -105 10.5t-93.5 34t-70.5 68.5t-26 107v2q0 12 11 14l170 21q15 2 15 -6q0 -40 30 -56t67 -16q70 0 70 40q0 20 -22.5 31
t-81 24.5t-93.5 25.5q-77 27 -114.5 77t-37.5 130q0 104 73 158t184 54q52 0 97.5 -12.5t82.5 -37.5t58 -67t21 -97q0 -9 -10 -9l-170 -22q-11 -2 -11 10q1 29 -21 42.5t-53 13.5q-47 0 -47 -38q0 -5 1.5 -9.5t5 -8t7 -6.5t11 -6t13 -5t16 -5t17 -4.5t19.5 -5t21 -5.5
q72 -19 121 -46t73.5 -59.5t34 -64t9.5 -70.5q0 -97 -74.5 -152t-197.5 -55z" />
    <glyph glyph-name="scaron" unicode="&#x161;" horiz-adv-x="563" 
d="M148 655v106q0 13 12 8l126 -59q7 -4 14 0l126 59q12 5 12 -8v-106q0 -7 -8 -12l-130 -61q-7 -4 -14 0l-130 61q-8 5 -8 12zM310 -3q-71 0 -127.5 14.5t-95.5 51t-39 92.5q0 11 7 11l166 22q9 2 9 -3q0 -17 20.5 -28t46.5 -11q46 0 46 20q0 8 -5.5 13.5t-16.5 9.5
t-22.5 6.5t-30.5 6.5t-34 8q-87 25 -124 69t-37 93q0 70 59 114t156 44q99 0 166 -49t67 -109q0 -5 -8 -7l-165 -22q-3 -1 -5 1t-2 6q0 13 -14 22t-33 9q-29 0 -29 -18q0 -12 11.5 -19t52.5 -19q96 -28 151 -67.5t55 -108.5q0 -55 -33.5 -90t-81.5 -48.5t-110 -13.5z" />
    <glyph glyph-name="uni0162" unicode="&#x162;" horiz-adv-x="673" 
d="M628 713q10 0 10 -10v-159q0 -10 -10 -10h-169q-10 0 -10 -10v-514q0 -10 -10 -10h-38l-7 -35q-2 -9 7 -9q61 -16 61 -74q0 -37 -42.5 -65t-86.5 -28q-51 0 -84 19q-5 2 -5 9l-1 49q0 4 2.5 6t6.5 1q16 -4 47 -4q44 0 44 23q0 33 -45 33q-19 0 -35 -8q-5 -2 -7.5 0
t-0.5 7l31 76h-31q-10 0 -10 10v514q0 10 -10 10h-170q-10 0 -10 10v159q0 10 10 10h563z" />
    <glyph glyph-name="uni0163" unicode="&#x163;" horiz-adv-x="474" 
d="M449 46q1 -7 -3 -10q-34 -23 -98 -34l-7 -37q-1 -9 7 -9q61 -16 61 -74q0 -37 -42.5 -65t-86.5 -28q-51 0 -84 19q-5 2 -5 9l-1 49q0 4 2.5 6t6.5 1q16 -4 47 -4q44 0 44 23q0 33 -45 33q-19 0 -35 -8q-5 -2 -7.5 0t-0.5 7l32 77q-65 14 -88.5 69t-23.5 147v153q0 8 -8 8
h-61q-8 0 -8 8v133q0 8 8 8h61q8 0 8 8v110q0 8 7 9l177 22q4 1 6 -1.5t2 -6.5v-133q0 -8 8 -8h115q8 0 8 -8v-133q0 -8 -8 -8h-115q-8 0 -8 -8v-153q0 -71 51 -71q31 0 53 8q1 0 3 1q3 2 4.5 1.5t2.5 -4.5z" />
    <glyph glyph-name="Tcaron" unicode="&#x164;" horiz-adv-x="673" 
d="M207 837v106q0 13 12 8l126 -59q7 -4 14 0l126 59q12 5 12 -8v-106q0 -7 -8 -12l-130 -61q-7 -4 -14 0l-130 61q-8 5 -8 12zM628 713q10 0 10 -10v-159q0 -10 -10 -10h-169q-10 0 -10 -10v-514q0 -10 -10 -10h-184q-10 0 -10 10v514q0 10 -10 10h-170q-10 0 -10 10v159
q0 10 10 10h563z" />
    <glyph glyph-name="tcaron" unicode="&#x165;" horiz-adv-x="474" 
d="M427 856q2 9 11 9h158q11 0 8 -11l-93 -266q-3 -8 -12 -8h-124q-12 0 -8 11zM449 46q1 -7 -3 -10q-58 -39 -169 -39q-48 0 -79.5 16.5t-47.5 48.5t-22 68t-6 87v153q0 8 -8 8h-61q-8 0 -8 8v133q0 8 8 8h61q8 0 8 8v110q0 8 7 9l177 22q4 1 6 -1.5t2 -6.5v-133q0 -8 8 -8
h115q8 0 8 -8v-133q0 -8 -8 -8h-115q-8 0 -8 -8v-153q0 -71 51 -71q31 0 53 8q1 0 3 1q3 2 4.5 1.5t2.5 -4.5z" />
    <glyph glyph-name="Tbar" unicode="&#x166;" horiz-adv-x="673" 
d="M628 713q10 0 10 -10v-159q0 -10 -10 -10h-169q-10 0 -10 -10v-114h111q10 0 10 -10v-85q0 -10 -10 -10h-111v-295q0 -10 -10 -10h-184q-10 0 -10 10v295h-110q-10 0 -10 10v85q0 10 10 10h110v114q0 10 -10 10h-170q-10 0 -10 10v159q0 10 10 10h563z" />
    <glyph glyph-name="tbar" unicode="&#x167;" horiz-adv-x="474" 
d="M449 46q1 -7 -3 -10q-58 -39 -169 -39q-48 0 -79.5 16.5t-47.5 48.5t-22 68t-6 87v12h-71q-9 0 -9 10v85q0 10 9 10h71v36q0 8 -8 8h-61q-8 0 -8 8v133q0 8 8 8h61q8 0 8 8v110q0 8 7 9l177 22q4 1 6 -1.5t2 -6.5v-133q0 -8 8 -8h115q8 0 8 -8v-133q0 -8 -8 -8h-115
q-8 0 -8 -8v-36h121q9 0 9 -10v-85q0 -10 -9 -10h-121v-12q0 -71 51 -71q31 0 53 8q1 0 3 1q3 2 4.5 1.5t2.5 -4.5z" />
    <glyph glyph-name="utilde" unicode="&#x169;" horiz-adv-x="622" 
d="M412 571q-30 0 -55 11t-38.5 24.5t-30.5 24.5t-34 11q-19 0 -37 -11t-26 -30q-3 -7 -11 -5l-65 18q-7 1 -7 10q36 167 146 167q27 0 51 -11t38 -24.5t32.5 -24.5t36.5 -11q50 0 63 40q3 7 10 7l64 -19q11 -2 8 -12q-5 -23 -8.5 -35.5t-15 -40.5t-25.5 -44.5t-39.5 -30.5
t-56.5 -14zM602 527q8 0 8 -8v-511q0 -8 -8 -8h-177q-8 0 -8 8v56q0 3 -1.5 5t-3.5 1.5t-4 -3.5q-27 -31 -68.5 -50.5t-83.5 -19.5q-198 0 -198 223v299q0 8 8 8h176q8 0 8 -8v-289q0 -42 21.5 -63t60.5 -21q37 0 59.5 27.5t25.5 69.5v276q0 8 8 8h177z" />
    <glyph glyph-name="Umacron" unicode="&#x16a;" horiz-adv-x="798" 
d="M280 891q0 8 8 8h264q8 0 8 -8v-114q0 -8 -8 -8h-264q-8 0 -8 8v114zM537 703q0 10 10 10h184q10 0 10 -10v-396q0 -55 -15.5 -105.5t-50 -98.5t-101.5 -77t-159 -29t-159.5 29t-102 77t-50 98.5t-15.5 105.5v396q0 10 10 10h183q10 0 10 -10v-396q0 -67 33 -99t91 -32
q116 0 122 131v396z" />
    <glyph glyph-name="umacron" unicode="&#x16b;" horiz-adv-x="622" 
d="M186 705q0 8 8 8h264q8 0 8 -8v-114q0 -8 -8 -8h-264q-8 0 -8 8v114zM602 527q8 0 8 -8v-511q0 -8 -8 -8h-177q-8 0 -8 8v56q0 3 -1.5 5t-3.5 1.5t-4 -3.5q-27 -31 -68.5 -50.5t-83.5 -19.5q-198 0 -198 223v299q0 8 8 8h176q8 0 8 -8v-289q0 -42 21.5 -63t60.5 -21
q37 0 59.5 27.5t25.5 69.5v276q0 8 8 8h177z" />
    <glyph glyph-name="Uring" unicode="&#x16e;" horiz-adv-x="798" 
d="M420 792q-31 0 -53 22t-22 53t21.5 53t53.5 22q31 0 53 -22t22 -53t-22 -53t-53 -22zM420 887q-20 0 -20 -20t20 -20t20 20t-20 20zM537 703q0 10 10 10h184q10 0 10 -10v-396q0 -55 -15.5 -105.5t-50 -98.5t-101.5 -77t-159 -29t-159.5 29t-102 77t-50 98.5t-15.5 105.5
v396q0 10 10 10h183q10 0 10 -10v-396q0 -67 33 -99t91 -32q116 0 122 131v396z" />
    <glyph glyph-name="uring" unicode="&#x16f;" horiz-adv-x="622" 
d="M326 606q-31 0 -53 22t-22 53t21.5 53t53.5 22q31 0 53 -22t22 -53t-22 -53t-53 -22zM326 701q-20 0 -20 -20t20 -20t20 20t-20 20zM602 527q8 0 8 -8v-511q0 -8 -8 -8h-177q-8 0 -8 8v56q0 3 -1.5 5t-3.5 1.5t-4 -3.5q-27 -31 -68.5 -50.5t-83.5 -19.5q-198 0 -198 223
v299q0 8 8 8h176q8 0 8 -8v-289q0 -42 21.5 -63t60.5 -21q37 0 59.5 27.5t25.5 69.5v276q0 8 8 8h177z" />
    <glyph glyph-name="Uhungarumlaut" unicode="&#x170;" horiz-adv-x="798" 
d="M390 784q-2 -9 -11 -9h-157q-11 0 -8 11l92 265q3 8 12 8h124q12 0 8 -11zM627 784q-2 -9 -11 -9h-157q-11 0 -8 11l92 265q3 8 12 8h124q12 0 8 -11zM537 703q0 10 10 10h184q10 0 10 -10v-396q0 -55 -15.5 -105.5t-50 -98.5t-101.5 -77t-159 -29t-159.5 29t-102 77
t-50 98.5t-15.5 105.5v396q0 10 10 10h183q10 0 10 -10v-396q0 -67 33 -99t91 -32q116 0 122 131v396z" />
    <glyph glyph-name="uhungarumlaut" unicode="&#x171;" horiz-adv-x="622" 
d="M297 598q-2 -9 -11 -9h-157q-11 0 -8 11l92 265q3 8 12 8h124q12 0 8 -11zM534 598q-2 -9 -11 -9h-157q-11 0 -8 11l92 265q3 8 12 8h124q12 0 8 -11zM602 527q8 0 8 -8v-511q0 -8 -8 -8h-177q-8 0 -8 8v56q0 3 -1.5 5t-3.5 1.5t-4 -3.5q-27 -31 -68.5 -50.5t-83.5 -19.5
q-198 0 -198 223v299q0 8 8 8h176q8 0 8 -8v-289q0 -42 21.5 -63t60.5 -21q37 0 59.5 27.5t25.5 69.5v276q0 8 8 8h177z" />
    <glyph glyph-name="Uogonek" unicode="&#x172;" horiz-adv-x="798" 
d="M731 713q10 0 10 -10v-396q0 -41 -8 -80t-29 -79.5t-52.5 -71.5t-84 -52.5t-118.5 -25.5q-64 -39 -64 -82q0 -48 40 -48q17 0 47 6q3 1 6 -1t3 -6v-48q0 -7 -3 -8q-29 -22 -84 -22q-53 0 -90 24t-37 68t26 71t76 47q-79 7 -136.5 38t-87.5 77t-43.5 93.5t-13.5 99.5v396
q0 10 10 10h183q10 0 10 -10v-396q0 -67 33 -99t91 -32q116 0 122 131v396q0 10 10 10h184z" />
    <glyph glyph-name="uogonek" unicode="&#x173;" horiz-adv-x="622" 
d="M602 527q8 0 8 -8v-511q0 -8 -8 -8h-58q-66 -39 -66 -83q0 -48 40 -48q17 0 47 6q3 1 6 -1t3 -6v-48q0 -6 -3 -8q-29 -22 -84 -22q-53 0 -90 24t-37 68t26 71t77 47h-38q-8 0 -8 8v56q0 3 -1.5 5t-3.5 1.5t-4 -3.5q-27 -31 -68.5 -50.5t-83.5 -19.5q-198 0 -198 223v299
q0 8 8 8h176q8 0 8 -8v-289q0 -42 21.5 -63t60.5 -21q37 0 59.5 27.5t25.5 69.5v276q0 8 8 8h177z" />
    <glyph glyph-name="Wcircumflex" unicode="&#x174;" horiz-adv-x="1086" 
d="M398 878q0 7 8 12l130 61q7 3 14 0l130 -61q8 -5 8 -12v-106q0 -13 -12 -8l-126 59q-7 3 -14 0l-126 -59q-12 -5 -12 8v106zM392 7l146 321q5 12 7.5 15t5 0t7.5 -15l145 -321q3 -7 12 -7h91q9 0 12 8l219 694q3 11 -8 11h-184q-10 0 -12 -8l-76 -340q-7 -33 -20 0
l-132 340q-3 8 -11 8h-93q-9 0 -12 -8l-132 -340q-11 -33 -20 0l-75 340q0 1 1 3q1 4 -4 4q-3 1 -9 1h-183q-11 0 -8 -11l217 -694q3 -8 12 -8h92q9 0 12 7z" />
    <glyph glyph-name="wcircumflex" unicode="&#x175;" horiz-adv-x="989" 
d="M356 692q0 7 8 12l130 61q7 3 14 0l130 -61q8 -5 8 -12v-106q0 -13 -12 -8l-126 59q-7 3 -14 0l-126 -59q-12 -5 -12 8v106zM765 520q2 7 9 7h180q10 0 6 -9l-221 -512q-2 -6 -10 -6h-94q-8 0 -10 6l-121 245q-4 10 -10 0l-119 -245q-2 -6 -10 -6h-94q-8 0 -10 6
l-222 512q-4 9 6 9h179q9 0 9 -7l79 -246q6 -12 11 0l101 247q2 6 9 6h133q7 0 9 -6l100 -247q6 -14 11 0z" />
    <glyph glyph-name="Ycircumflex" unicode="&#x176;" horiz-adv-x="844" 
d="M277 878q0 7 8 12l130 61q7 3 14 0l130 -61q8 -5 8 -12v-106q0 -13 -12 -8l-126 59q-7 3 -14 0l-126 -59q-12 -5 -12 8v106zM798 713q6 0 8 -3.5t-2 -8.5l-272 -378q0 -1 -2 -5.5t-2 -7.5v-300q0 -10 -10 -10h-183q-10 0 -10 10v300q0 8 -4 13l-271 378q-3 5 -1.5 8.5
t7.5 3.5h202q8 0 12 -6l150 -211q7 -11 14 0l150 211q5 6 12 6h202z" />
    <glyph glyph-name="ycircumflex" unicode="&#x177;" horiz-adv-x="623" 
d="M179 692q0 7 8 12l130 61q7 3 14 0l130 -61q8 -5 8 -12v-106q0 -13 -12 -8l-126 59q-7 3 -14 0l-126 -59q-12 -5 -12 8v106zM403 521q1 6 9 6h187q10 0 6 -9l-194 -521q-42 -112 -90 -159.5t-129 -47.5q-40 0 -74.5 19t-52.5 52q-3 7 -2 11l19 106q2 13 10 3
q32 -30 61 -30q37 0 56 16.5t33 51.5q2 4 0 10l-193 489q-3 9 6 9h186q7 0 9 -6l69 -249q1 -3 3 -4.5t4.5 0t2.5 4.5z" />
    <glyph glyph-name="Ydieresis" unicode="&#x178;" horiz-adv-x="844" 
d="M297 764q-43 0 -74 31t-31 74q0 44 30.5 74.5t74.5 30.5t74.5 -30.5t30.5 -74.5q0 -43 -31 -74t-74 -31zM555 764q-43 0 -74 31t-31 74q0 44 30.5 74.5t74.5 30.5t74.5 -30.5t30.5 -74.5q0 -43 -31 -74t-74 -31zM798 713q6 0 8 -3.5t-2 -8.5l-272 -378q0 -1 -2 -5.5
t-2 -7.5v-300q0 -10 -10 -10h-183q-10 0 -10 10v300q0 8 -4 13l-271 378q-3 5 -1.5 8.5t7.5 3.5h202q8 0 12 -6l150 -211q7 -11 14 0l150 211q5 6 12 6h202z" />
    <glyph glyph-name="Zacute" unicode="&#x179;" horiz-adv-x="755" 
d="M412 932q3 7 12 7h155q6 0 8 -3.5t-2 -8.5l-101 -138q-4 -6 -12 -6h-119q-6 0 -8.5 3.5t0.5 8.5zM677 713q10 0 10 -10v-91q0 -7 -4 -12l-303 -408q-4 -4 -2 -8.5t8 -4.5h291q10 0 10 -10v-159q0 -10 -10 -10h-579q-10 0 -10 10v91q0 8 4 13l301 407q4 5 2 9t-8 4h-289
q-10 0 -10 10v159q0 10 10 10h579z" />
    <glyph glyph-name="zacute" unicode="&#x17a;" horiz-adv-x="564" 
d="M313 746q3 7 12 7h155q6 0 8 -3.5t-2 -8.5l-101 -138q-4 -6 -12 -6h-119q-6 0 -8.5 3.5t0.5 8.5zM539 435q0 -4 -4 -10l-233 -265q-8 -10 4 -10h225q8 0 8 -8v-133q0 -8 -8 -8h-490q-8 0 -8 8v84q0 4 4 10l235 265q8 10 -4 10h-227q-8 0 -8 8v133q0 8 8 8h490q8 0 8 -8
v-84z" />
    <glyph glyph-name="Zdotaccent" unicode="&#x17b;" horiz-adv-x="755" 
d="M395 764q-43 0 -74 31t-31 74q0 44 30.5 74.5t74.5 30.5t74.5 -30.5t30.5 -74.5q0 -43 -31 -74t-74 -31zM677 713q10 0 10 -10v-91q0 -7 -4 -12l-303 -408q-4 -4 -2 -8.5t8 -4.5h291q10 0 10 -10v-159q0 -10 -10 -10h-579q-10 0 -10 10v91q0 8 4 13l301 407q4 5 2 9t-8 4
h-289q-10 0 -10 10v159q0 10 10 10h579z" />
    <glyph glyph-name="zdotaccent" unicode="&#x17c;" horiz-adv-x="564" 
d="M296 578q-43 0 -74 31t-31 74q0 44 30.5 74.5t74.5 30.5t74.5 -30.5t30.5 -74.5q0 -43 -31 -74t-74 -31zM539 435q0 -4 -4 -10l-233 -265q-8 -10 4 -10h225q8 0 8 -8v-133q0 -8 -8 -8h-490q-8 0 -8 8v84q0 4 4 10l235 265q8 10 -4 10h-227q-8 0 -8 8v133q0 8 8 8h490
q8 0 8 -8v-84z" />
    <glyph glyph-name="Zcaron" unicode="&#x17d;" horiz-adv-x="755" 
d="M250 837v106q0 13 12 8l126 -59q7 -4 14 0l126 59q12 5 12 -8v-106q0 -7 -8 -12l-130 -61q-7 -4 -14 0l-130 61q-8 5 -8 12zM677 713q10 0 10 -10v-91q0 -7 -4 -12l-303 -408q-4 -4 -2 -8.5t8 -4.5h291q10 0 10 -10v-159q0 -10 -10 -10h-579q-10 0 -10 10v91q0 8 4 13
l301 407q4 5 2 9t-8 4h-289q-10 0 -10 10v159q0 10 10 10h579z" />
    <glyph glyph-name="zcaron" unicode="&#x17e;" horiz-adv-x="564" 
d="M151 651v106q0 13 12 8l126 -59q7 -4 14 0l126 59q12 5 12 -8v-106q0 -7 -8 -12l-130 -61q-7 -4 -14 0l-130 61q-8 5 -8 12zM539 435q0 -4 -4 -10l-233 -265q-8 -10 4 -10h225q8 0 8 -8v-133q0 -8 -8 -8h-490q-8 0 -8 8v84q0 4 4 10l235 265q8 10 -4 10h-227q-8 0 -8 8
v133q0 8 8 8h490q8 0 8 -8v-84z" />
    <glyph glyph-name="Scommaaccent" unicode="&#x218;" horiz-adv-x="693" 
d="M373 -3q-56 0 -105 10.5t-93.5 34t-70.5 68.5t-26 107v2q0 12 11 14l170 21q15 2 15 -6q0 -40 30 -56t67 -16q70 0 70 40q0 20 -22.5 31t-81 24.5t-93.5 25.5q-77 27 -114.5 77t-37.5 130q0 104 73 158t184 54q52 0 97.5 -12.5t82.5 -37.5t58 -67t21 -97q0 -9 -10 -9
l-170 -22q-11 -2 -11 10q1 29 -21 42.5t-53 13.5q-47 0 -47 -38q0 -5 1.5 -9.5t5 -8t7 -6.5t11 -6t13 -5t16 -5t17 -4.5t19.5 -5t21 -5.5q72 -19 121 -46t73.5 -59.5t34 -64t9.5 -70.5q0 -97 -74.5 -152t-197.5 -55zM270 -49q2 9 11 9h158q11 0 8 -11l-93 -265q-3 -8 -12 -8
h-124q-12 0 -8 11z" />
    <glyph glyph-name="scommaaccent" unicode="&#x219;" horiz-adv-x="563" 
d="M310 -3q-71 0 -127.5 14.5t-95.5 51t-39 92.5q0 11 7 11l166 22q9 2 9 -3q0 -17 20.5 -28t46.5 -11q46 0 46 20q0 8 -5.5 13.5t-16.5 9.5t-22.5 6.5t-30.5 6.5t-34 8q-87 25 -124 69t-37 93q0 70 59 114t156 44q99 0 166 -49t67 -109q0 -5 -8 -7l-165 -22q-3 -1 -5 1
t-2 6q0 13 -14 22t-33 9q-29 0 -29 -18q0 -12 11.5 -19t52.5 -19q96 -28 151 -67.5t55 -108.5q0 -55 -33.5 -90t-81.5 -48.5t-110 -13.5zM193 -75q2 9 11 9h158q11 0 8 -11l-93 -265q-3 -8 -12 -8h-124q-12 0 -8 11z" />
    <glyph glyph-name="uni021A" unicode="&#x21a;" horiz-adv-x="673" 
d="M628 713q10 0 10 -10v-159q0 -10 -10 -10h-169q-10 0 -10 -10v-514q0 -10 -10 -10h-184q-10 0 -10 10v514q0 10 -10 10h-170q-10 0 -10 10v159q0 10 10 10h563zM268 -49q2 9 11 9h158q11 0 8 -11l-93 -265q-3 -8 -12 -8h-124q-12 0 -8 11z" />
    <glyph glyph-name="uni021B" unicode="&#x21b;" horiz-adv-x="474" 
d="M449 46q1 -7 -3 -10q-58 -39 -169 -39q-48 0 -79.5 16.5t-47.5 48.5t-22 68t-6 87v153q0 8 -8 8h-61q-8 0 -8 8v133q0 8 8 8h61q8 0 8 8v110q0 8 7 9l177 22q4 1 6 -1.5t2 -6.5v-133q0 -8 8 -8h115q8 0 8 -8v-133q0 -8 -8 -8h-115q-8 0 -8 -8v-153q0 -71 51 -71
q31 0 53 8q1 0 3 1q3 2 4.5 1.5t2.5 -4.5zM215 -49q2 9 11 9h158q11 0 8 -11l-93 -265q-3 -8 -12 -8h-124q-12 0 -8 11z" />
    <glyph glyph-name="circumflex" unicode="&#x2c6;" horiz-adv-x="600" 
d="M95 692q0 7 8 12l130 61q7 3 14 0l130 -61q8 -5 8 -12v-106q0 -13 -12 -8l-126 59q-7 3 -14 0l-126 -59q-12 -5 -12 8v106z" />
    <glyph glyph-name="caron" unicode="&#x2c7;" horiz-adv-x="600" 
d="M95 651v106q0 13 12 8l126 -59q7 -4 14 0l126 59q12 5 12 -8v-106q0 -7 -8 -12l-130 -61q-7 -4 -14 0l-130 61q-8 5 -8 12z" />
    <glyph glyph-name="breve" unicode="&#x2d8;" horiz-adv-x="600" 
d="M160 745q0 8 8 8h64q8 0 8 -8q4 -21 22.5 -31.5t40.5 -10.5q21 0 40 10.5t22 31.5q0 8 8 8h64q8 0 8 -8q-3 -74 -44.5 -110.5t-97.5 -36.5t-98 36.5t-45 110.5z" />
    <glyph glyph-name="dotaccent" unicode="&#x2d9;" horiz-adv-x="600" 
d="M193 578q-43 0 -74 31t-31 74q0 44 31 74.5t74 30.5q44 0 74.5 -30.5t30.5 -74.5q0 -43 -30.5 -74t-74.5 -31z" />
    <glyph glyph-name="ring" unicode="&#x2da;" horiz-adv-x="600" 
d="M323 606q-31 0 -53 22t-22 53t22 53t53 22t53 -22t22 -53t-22 -53t-53 -22zM323 701q-20 0 -20 -20t20 -20t20 20t-20 20z" />
    <glyph glyph-name="ogonek" unicode="&#x2db;" horiz-adv-x="600" 
d="M227 -210q-53 0 -90 24t-37 68q0 46 27.5 73t80.5 47h79q-69 -40 -69 -85q0 -48 40 -48q17 0 47 6q3 1 6 -1t3 -6v-48q0 -6 -3 -8q-29 -22 -84 -22z" />
    <glyph glyph-name="tilde" unicode="&#x2dc;" horiz-adv-x="600" 
d="M390 571q-38 0 -66 17.5t-49.5 35t-42.5 17.5q-19 0 -36.5 -11t-26.5 -29q-3 -6 -10 -6l-65 19q-9 2 -7 9q36 167 145 167q34 0 62.5 -17.5t51 -35t44.5 -17.5q49 0 64 40q2 8 10 6l64 -18q11 -2 8 -13q-21 -82 -48 -117q-39 -46 -98 -47z" />
    <glyph glyph-name="hungarumlaut" unicode="&#x2dd;" horiz-adv-x="600" 
d="M279 598q-2 -9 -11 -9h-157q-11 0 -8 11l92 265q3 8 12 8h124q12 0 8 -11zM516 598q-2 -9 -11 -9h-157q-11 0 -8 11l92 265q3 8 12 8h124q12 0 8 -11z" />
    <glyph glyph-name="gravecomb" unicode="&#x300;" 
d="M-139 746l68 -137q5 -12 -8 -12h-119q-8 0 -12 6l-101 138q-4 5 -2 8.5t8 3.5h154q11 0 12 -7z" />
    <glyph glyph-name="acutecomb" unicode="&#x301;" 
d="M-245 746q3 7 12 7h155q6 0 8 -3.5t-2 -8.5l-101 -138q-4 -6 -12 -6h-119q-6 0 -8.5 3.5t0.5 8.5z" />
    <glyph glyph-name="uni0302" unicode="&#x302;" 
d="M-355 692q0 7 8 12l130 61q7 3 14 0l130 -61q8 -5 8 -12v-106q0 -13 -12 -8l-126 59q-7 3 -14 0l-126 -59q-12 -5 -12 8v106z" />
    <glyph glyph-name="tildecomb" unicode="&#x303;" 
d="M-222 571q-38 0 -66 17.5t-49.5 35t-42.5 17.5q-19 0 -36.5 -11t-26.5 -29q-3 -6 -10 -6l-65 19q-9 2 -7 9q36 167 145 167q34 0 62.5 -17.5t51 -35t44.5 -17.5q49 0 64 40q2 8 10 6l64 -18q11 -2 8 -13q-21 -82 -48 -117q-39 -46 -98 -47z" />
    <glyph glyph-name="uni0304" unicode="&#x304;" 
d="M-350 705q0 8 8 8h264q8 0 8 -8v-114q0 -8 -8 -8h-264q-8 0 -8 8v114z" />
    <glyph glyph-name="uni0306" unicode="&#x306;" 
d="M-440 745q0 8 8 8h64q8 0 8 -8q4 -21 22.5 -31.5t40.5 -10.5q21 0 40 10.5t22 31.5q0 8 8 8h64q8 0 8 -8q-3 -74 -44.5 -110.5t-97.5 -36.5t-98 36.5t-45 110.5z" />
    <glyph glyph-name="uni0307" unicode="&#x307;" 
d="M-164 578q-43 0 -74 31t-31 74q0 44 31 74.5t74 30.5q44 0 74.5 -30.5t30.5 -74.5q0 -43 -30.5 -74t-74.5 -31z" />
    <glyph glyph-name="uni0308" unicode="&#x308;" 
d="M-427 578q-43 0 -74 31t-31 74q0 44 31 74.5t74 30.5q44 0 74.5 -30.5t30.5 -74.5q0 -43 -30.5 -74t-74.5 -31zM-168 578q-43 0 -74 31t-31 74q0 44 30.5 74.5t74.5 30.5t74.5 -30.5t30.5 -74.5q0 -43 -31 -74t-74 -31z" />
    <glyph glyph-name="uni030A" unicode="&#x30a;" 
d="M-277 606q-31 0 -53 22t-22 53t22 53t53 22t53 -22t22 -53t-22 -53t-53 -22zM-277 701q-20 0 -20 -20t20 -20t20 20t-20 20z" />
    <glyph glyph-name="uni030B" unicode="&#x30b;" 
d="M-367 598q-2 -9 -11 -9h-157q-11 0 -8 11l92 265q3 8 12 8h124q12 0 8 -11zM-130 598q-2 -9 -11 -9h-157q-11 0 -8 11l92 265q3 8 12 8h124q12 0 8 -11z" />
    <glyph glyph-name="uni030C" unicode="&#x30c;" 
d="M-355 651v106q0 13 12 8l126 -59q7 -4 14 0l126 59q12 5 12 -8v-106q0 -7 -8 -12l-130 -61q-7 -4 -14 0l-130 61q-8 5 -8 12z" />
    <glyph glyph-name="uni0312" unicode="&#x312;" 
d="M-80 596q-2 -9 -11 -9h-157q-11 0 -8 11l92 265q3 8 12 8h124q12 0 8 -11z" />
    <glyph glyph-name="uni0326" unicode="&#x326;" 
d="M-292 -70q2 9 11 9h157q11 0 8 -11l-93 -265q-3 -8 -12 -8h-124q-12 0 -8 11z" />
    <glyph glyph-name="uni0327" unicode="&#x327;" 
d="M-199 -210q-51 0 -84 19q-5 3 -5 9l-1 49q0 4 2.5 6t6.5 1q16 -4 47 -4q44 0 44 23q0 33 -45 33q-19 0 -35 -8q-5 -2 -7.5 0t-0.5 7l40 97h110l-11 -56q-2 -9 7 -9q61 -16 61 -74q0 -37 -42.5 -65t-86.5 -28z" />
    <glyph glyph-name="uni0328" unicode="&#x328;" 
d="M-157 -210q-53 0 -90 24t-37 68q0 46 27.5 73t80.5 47h79q-69 -40 -69 -85q0 -48 40 -48q17 0 47 6q3 1 6 -1t3 -6v-48q0 -6 -3 -8q-29 -22 -84 -22z" />
    <glyph glyph-name="uni0335" unicode="&#x335;" 
d="M-70 298q0 -10 -10 -10h-425q-10 0 -10 10v85q0 10 10 10h425q10 0 10 -10v-85z" />
    <glyph glyph-name="uni0336" unicode="&#x336;" 
d="M-70 299q0 -10 -10 -10h-815q-10 0 -10 10v84q0 10 10 10h815q10 0 10 -10v-84z" />
    <glyph glyph-name="uni0337" unicode="&#x337;" 
d="M-514 273l-74 73q-9 9 3 14l426 151q7 3 12 -3l74 -73q9 -9 -4 -13l-424 -152q-7 -3 -13 3z" />
    <glyph glyph-name="uni0338" unicode="&#x338;" 
d="M-447 -40q8 0 11 7l365 774q5 12 -7 12h-105q-8 0 -11 -7l-365 -774q-5 -12 7 -12h105z" />
    <glyph glyph-name="Wgrave" unicode="&#x1e80;" horiz-adv-x="1086" 
d="M536 932l67 -137q3 -5 0.5 -8.5t-8.5 -3.5h-118q-8 0 -12 6l-101 138q-4 5 -2 8.5t8 3.5h154q9 0 12 -7zM392 7l146 321q5 12 7.5 15t5 0t7.5 -15l145 -321q3 -7 12 -7h91q9 0 12 8l219 694q3 11 -8 11h-184q-10 0 -12 -8l-76 -340q-7 -33 -20 0l-132 340q-3 8 -11 8h-93
q-9 0 -12 -8l-132 -340q-11 -33 -20 0l-75 340q0 1 1 3q1 4 -4 4q-3 1 -9 1h-183q-11 0 -8 -11l217 -694q3 -8 12 -8h92q9 0 12 7z" />
    <glyph glyph-name="wgrave" unicode="&#x1e81;" horiz-adv-x="989" 
d="M494 746l67 -137q3 -5 0.5 -8.5t-8.5 -3.5h-118q-8 0 -12 6l-101 138q-4 5 -2 8.5t8 3.5h154q9 0 12 -7zM765 520q2 7 9 7h180q10 0 6 -9l-221 -512q-2 -6 -10 -6h-94q-8 0 -10 6l-121 245q-4 10 -10 0l-119 -245q-2 -6 -10 -6h-94q-8 0 -10 6l-222 512q-4 9 6 9h179
q9 0 9 -7l79 -246q6 -12 11 0l101 247q2 6 9 6h133q7 0 9 -6l100 -247q6 -14 11 0z" />
    <glyph glyph-name="Wacute" unicode="&#x1e82;" horiz-adv-x="1086" 
d="M560 932q3 7 12 7h155q6 0 8 -3.5t-2 -8.5l-101 -138q-4 -6 -12 -6h-119q-6 0 -8.5 3.5t0.5 8.5zM392 7l146 321q5 12 7.5 15t5 0t7.5 -15l145 -321q3 -7 12 -7h91q9 0 12 8l219 694q3 11 -8 11h-184q-10 0 -12 -8l-76 -340q-7 -33 -20 0l-132 340q-3 8 -11 8h-93
q-9 0 -12 -8l-132 -340q-11 -33 -20 0l-75 340q0 1 1 3q1 4 -4 4q-3 1 -9 1h-183q-11 0 -8 -11l217 -694q3 -8 12 -8h92q9 0 12 7z" />
    <glyph glyph-name="wacute" unicode="&#x1e83;" horiz-adv-x="989" 
d="M517 746q3 7 12 7h155q6 0 8 -3.5t-2 -8.5l-101 -138q-4 -6 -12 -6h-119q-6 0 -8.5 3.5t0.5 8.5zM765 520q2 7 9 7h180q10 0 6 -9l-221 -512q-2 -6 -10 -6h-94q-8 0 -10 6l-121 245q-4 10 -10 0l-119 -245q-2 -6 -10 -6h-94q-8 0 -10 6l-222 512q-4 9 6 9h179q9 0 9 -7
l79 -246q6 -12 11 0l101 247q2 6 9 6h133q7 0 9 -6l100 -247q6 -14 11 0z" />
    <glyph glyph-name="Wdieresis" unicode="&#x1e84;" horiz-adv-x="1086" 
d="M418 764q-43 0 -74 31t-31 74q0 44 30.5 74.5t74.5 30.5t74.5 -30.5t30.5 -74.5q0 -43 -31 -74t-74 -31zM676 764q-43 0 -74 31t-31 74q0 44 30.5 74.5t74.5 30.5t74.5 -30.5t30.5 -74.5q0 -43 -31 -74t-74 -31zM392 7l146 321q5 12 7.5 15t5 0t7.5 -15l145 -321
q3 -7 12 -7h91q9 0 12 8l219 694q3 11 -8 11h-184q-10 0 -12 -8l-76 -340q-7 -33 -20 0l-132 340q-3 8 -11 8h-93q-9 0 -12 -8l-132 -340q-11 -33 -20 0l-75 340q0 1 1 3q1 4 -4 4q-3 1 -9 1h-183q-11 0 -8 -11l217 -694q3 -8 12 -8h92q9 0 12 7z" />
    <glyph glyph-name="wdieresis" unicode="&#x1e85;" horiz-adv-x="989" 
d="M376 578q-43 0 -74 31t-31 74q0 44 30.5 74.5t74.5 30.5t74.5 -30.5t30.5 -74.5q0 -43 -31 -74t-74 -31zM634 578q-43 0 -74 31t-31 74q0 44 30.5 74.5t74.5 30.5t74.5 -30.5t30.5 -74.5q0 -43 -31 -74t-74 -31zM765 520q2 7 9 7h180q10 0 6 -9l-221 -512q-2 -6 -10 -6
h-94q-8 0 -10 6l-121 245q-4 10 -10 0l-119 -245q-2 -6 -10 -6h-94q-8 0 -10 6l-222 512q-4 9 6 9h179q9 0 9 -7l79 -246q6 -12 11 0l101 247q2 6 9 6h133q7 0 9 -6l100 -247q6 -14 11 0z" />
    <glyph glyph-name="uni1EBD" unicode="&#x1ebd;" horiz-adv-x="570" 
d="M379 574q-38 0 -66.5 18t-50 35.5t-41.5 17.5q-19 0 -37 -11t-26 -30q-3 -7 -11 -5l-65 18q-7 1 -7 10q36 167 146 167q34 0 62 -18t51 -35.5t45 -17.5q50 0 63 40q3 7 10 7l64 -19q11 -2 8 -12q-5 -23 -8.5 -35.5t-15 -40.5t-25.5 -44.5t-39.5 -30.5t-56.5 -14zM555 267
v-52q0 -8 -8 -8h-302q-6 0 -6 -8q0 -22 14.5 -35t26.5 -15.5t22 -2.5q42 0 61 25q3 7 10 5l164 -21q9 -2 6 -9q-21 -64 -82.5 -106.5t-154.5 -42.5q-130 0 -200.5 75.5t-70.5 191.5q0 113 71.5 189.5t188.5 76.5q124 0 192 -76t68 -187zM295 394q-54 0 -55 -54q0 -10 5 -10
h98q8 0 8 7q0 32 -14.5 44.5t-41.5 12.5z" />
    <glyph glyph-name="Ygrave" unicode="&#x1ef2;" horiz-adv-x="844" 
d="M415 932l67 -137q3 -5 0.5 -8.5t-8.5 -3.5h-118q-8 0 -12 6l-101 138q-4 5 -2 8.5t8 3.5h154q9 0 12 -7zM798 713q6 0 8 -3.5t-2 -8.5l-272 -378q0 -1 -2 -5.5t-2 -7.5v-300q0 -10 -10 -10h-183q-10 0 -10 10v300q0 8 -4 13l-271 378q-3 5 -1.5 8.5t7.5 3.5h202
q8 0 12 -6l150 -211q7 -11 14 0l150 211q5 6 12 6h202z" />
    <glyph glyph-name="ygrave" unicode="&#x1ef3;" horiz-adv-x="623" 
d="M317 746l67 -137q3 -5 0.5 -8.5t-8.5 -3.5h-118q-8 0 -12 6l-101 138q-4 5 -2 8.5t8 3.5h154q9 0 12 -7zM403 521q1 6 9 6h187q10 0 6 -9l-194 -521q-42 -112 -90 -159.5t-129 -47.5q-40 0 -74.5 19t-52.5 52q-3 7 -2 11l19 106q2 13 10 3q32 -30 61 -30q37 0 56 16.5
t33 51.5q2 4 0 10l-193 489q-3 9 6 9h186q7 0 9 -6l69 -249q1 -3 3 -4.5t4.5 0t2.5 4.5z" />
    <glyph glyph-name="uni1EF9" unicode="&#x1ef9;" horiz-adv-x="623" 
d="M410 571q-30 0 -55 11t-38.5 24.5t-30.5 24.5t-34 11q-19 0 -37 -11t-26 -30q-3 -7 -11 -5l-65 18q-7 1 -7 10q36 167 146 167q27 0 51 -11t38 -24.5t32.5 -24.5t36.5 -11q50 0 63 40q3 7 10 7l64 -19q11 -2 8 -12q-5 -23 -8.5 -35.5t-15 -40.5t-25.5 -44.5t-39.5 -30.5
t-56.5 -14zM403 521q1 6 9 6h187q10 0 6 -9l-194 -521q-42 -112 -90 -159.5t-129 -47.5q-40 0 -74.5 19t-52.5 52q-3 7 -2 11l19 106q2 13 10 3q32 -30 61 -30q37 0 56 16.5t33 51.5q2 4 0 10l-193 489q-3 9 6 9h186q7 0 9 -6l69 -249q1 -3 3 -4.5t4.5 0t2.5 4.5z" />
    <glyph glyph-name="endash" unicode="&#x2013;" horiz-adv-x="835" 
d="M748 204q0 -10 -10 -10h-630q-10 0 -10 10v159q0 10 10 10h630q10 0 10 -10v-159z" />
    <glyph glyph-name="emdash" unicode="&#x2014;" horiz-adv-x="985" 
d="M898 204q0 -10 -10 -10h-780q-10 0 -10 10v159q0 10 10 10h780q10 0 10 -10v-159z" />
    <glyph glyph-name="quoteleft" unicode="&#x2018;" horiz-adv-x="321" 
d="M235 478q-2 -9 -11 -9h-157q-11 0 -8 11l92 265q3 8 12 8h124q12 0 8 -11z" />
    <glyph glyph-name="quoteright" unicode="&#x2019;" horiz-adv-x="369" 
d="M119 744q2 9 11 9h157q11 0 8 -11l-93 -265q-3 -8 -12 -8h-123q-12 0 -8 11z" />
    <glyph glyph-name="quotesinglbase" unicode="&#x201a;" horiz-adv-x="366" 
d="M106 165q2 9 11 9h158q11 0 8 -11l-93 -266q-3 -8 -12 -8h-124q-12 0 -8 11z" />
    <glyph glyph-name="quotedblleft" unicode="&#x201c;" horiz-adv-x="558" 
d="M236 479q-2 -9 -11 -9h-157q-11 0 -8 11l92 265q3 8 12 8h124q12 0 8 -11zM473 479q-2 -9 -11 -9h-157q-11 0 -8 11l92 265q3 8 12 8h124q12 0 8 -11z" />
    <glyph glyph-name="quotedblright" unicode="&#x201d;" horiz-adv-x="593" 
d="M119 745q2 9 11 9h158q11 0 8 -11l-93 -266q-3 -8 -12 -8h-124q-12 0 -8 11zM356 745q2 9 11 9h158q11 0 8 -11l-93 -266q-3 -8 -12 -8h-124q-12 0 -8 11z" />
    <glyph glyph-name="quotedblbase" unicode="&#x201e;" horiz-adv-x="609" 
d="M349 165q2 9 11 9h157q11 0 8 -11l-93 -266q-3 -8 -12 -8h-123q-12 0 -8 11zM106 165q2 9 11 9h158q11 0 8 -11l-93 -266q-3 -8 -12 -8h-124q-12 0 -8 11z" />
    <glyph glyph-name="bullet" unicode="&#x2022;" horiz-adv-x="574" 
d="M318 164q-62 0 -106 44t-44 106t44 106t106 44t106 -44t44 -106t-44 -106t-106 -44z" />
    <glyph glyph-name="ellipsis" unicode="&#x2026;" horiz-adv-x="904" 
d="M173 -3q-43 0 -74 31t-31 74q0 44 30.5 74.5t74.5 30.5t74.5 -30.5t30.5 -74.5q0 -43 -31 -74t-74 -31zM433 -3q-43 0 -74 31t-31 74q0 44 30.5 74.5t74.5 30.5t74.5 -30.5t30.5 -74.5q0 -43 -31 -74t-74 -31zM693 -3q-43 0 -74 31t-31 74q0 44 30.5 74.5t74.5 30.5
t74.5 -30.5t30.5 -74.5q0 -43 -31 -74t-74 -31z" />
    <glyph glyph-name="perthousand" unicode="&#x2030;" horiz-adv-x="2011" 
d="M341 261q-113 0 -183 74.5t-70 178.5t70 178t183 74t182.5 -74t69.5 -178t-69.5 -178.5t-182.5 -74.5zM594 -40q8 0 11 7l365 774q5 12 -7 12h-136q-8 0 -11 -7l-365 -774q-5 -12 7 -12h136zM341 586q-19 0 -33.5 -16.5t-14.5 -55.5t14.5 -56t33.5 -17t33 17t14 56
q0 72 -47 72zM1124 -3q-113 0 -183.5 74.5t-70.5 178.5t70.5 178.5t183.5 74.5t182.5 -74.5t69.5 -178.5t-70 -178.5t-182 -74.5zM1689 -3q-113 0 -183.5 74.5t-70.5 178.5t70.5 178.5t183.5 74.5t182.5 -74.5t69.5 -178.5t-70 -178.5t-182 -74.5zM1124 323q-19 0 -34 -17
t-15 -56t15 -56t34 -17t33 17t14 56t-14 56t-33 17zM1689 323q-19 0 -34 -17t-15 -56t15 -56t34 -17t33 17t14 56t-14 56t-33 17z" />
    <glyph glyph-name="guilsinglleft" unicode="&#x2039;" horiz-adv-x="398" 
d="M149 465q3 7 12 7h181q14 0 7 -12l-100 -163q-3 -7 0 -14l101 -167q3 -5 0.5 -8.5t-8.5 -3.5h-181q-9 0 -12 7l-89 172q-4 7 0 14z" />
    <glyph glyph-name="guilsinglright" unicode="&#x203a;" horiz-adv-x="388" 
d="M262 465l89 -168q3 -7 0 -14l-89 -172q-3 -7 -12 -7h-181q-6 0 -8.5 3.5t0.5 8.5l100 167q3 7 0 14l-99 163q-7 12 7 12h181q9 0 12 -7z" />
    <glyph glyph-name="fraction" unicode="&#x2044;" horiz-adv-x="666" 
d="M226 -40q8 0 11 7l365 774q5 12 -7 12h-135q-8 0 -11 -7l-365 -774q-5 -12 7 -12h135z" />
    <glyph glyph-name="Euro" unicode="&#x20ac;" horiz-adv-x="901" 
d="M833 257q10 -1 7 -15q-16 -108 -105 -176.5t-208 -68.5q-117 0 -206.5 65.5t-125.5 171.5h-117q-10 0 -10 5v79q0 5 10 5h99q-2 22 -2 33h-97q-10 0 -10 5v80q0 5 10 5h107q28 119 121 194.5t221 75.5q119 0 207 -68.5t106 -176.5q3 -14 -7 -15l-170 -22q-9 -2 -13 7
q-37 96 -131 96q-37 0 -72 -22t-53 -69h114q10 0 10 -5v-80q0 -5 -10 -5h-129q0 -13 2 -33h127q10 0 10 -5v-79q0 -5 -10 -5h-96q40 -58 107 -58q94 0 131 96q4 9 13 7z" />
    <glyph glyph-name="trademark" unicode="&#x2122;" horiz-adv-x="670" 
d="M577 752q2 1 5 1h37q2 0 2 -2v-294q0 -3 -2 -3h-75q-3 0 -3 3v104q0 2 -1 2t-2 -1l-69 -92q-1 -1 -4 0l-68 92q-4 4 -4 -1v-104q0 -3 -2 -3h-75q-3 0 -3 3v294q0 2 3 2h38q3 0 3 -1l108 -159q3 -2 4 0zM296 753q3 0 3 -2v-64q0 -4 -3 -4h-70q-2 0 -2 -2v-224q0 -3 -4 -3
h-75q-2 0 -2 3v224q0 2 -3 2h-70q-2 0 -2 4v64q0 2 2 2h226z" />
    <glyph glyph-name="minus" unicode="&#x2212;" horiz-adv-x="608" 
d="M538 272q0 -10 -10 -10h-430q-10 0 -10 10v158q0 10 10 10h430q10 0 10 -10v-158z" />
    <glyph glyph-name="approxequal" unicode="&#x2248;" horiz-adv-x="587" 
d="M378 266q-38 0 -66 18t-49.5 35.5t-42.5 17.5q-19 0 -36.5 -11t-26.5 -30q-3 -6 -10 -5l-66 18q-8 2 -6 10q3 17 7 32.5t15.5 42t26 45t40 33t56.5 14.5q34 0 62.5 -18t51 -35.5t44.5 -17.5q50 0 63 40q3 7 11 7l63 -19q12 -2 9 -12q-21 -82 -48 -117q-37 -48 -98 -48z
M378 46q-38 0 -66 17.5t-49.5 35.5t-42.5 18q-19 0 -36.5 -11t-26.5 -30q-3 -6 -10 -5l-66 18q-8 2 -6 10q3 17 7 32.5t15.5 42t26 45t40 33t56.5 14.5q34 0 62.5 -18t51 -35.5t44.5 -17.5q50 0 63 40q3 7 11 7l63 -19q12 -2 9 -12q-21 -82 -48 -117q-37 -48 -98 -48z" />
    <glyph glyph-name="notequal" unicode="&#x2260;" horiz-adv-x="735" 
d="M626 388h-141l-36 -76h177q10 0 10 -10v-159q0 -10 -10 -10h-262l-59 -126q-3 -7 -11 -7h-105q-12 0 -7 12l57 121h-43q-10 0 -10 10v159q0 10 10 10h128l36 76h-164q-10 0 -10 10v159q0 10 10 10h249l65 139q3 7 11 7h105q12 0 7 -12l-64 -134h57q10 0 10 -10v-159
q0 -10 -10 -10z" />
    <glyph glyph-name="i.loclTRK" horiz-adv-x="313" 
d="M167 578q-43 0 -74 31t-31 74q0 44 30.5 74.5t74.5 30.5t74.5 -30.5t30.5 -74.5q0 -43 -31 -74t-74 -31zM70 519q0 8 8 8h177q8 0 8 -8v-511q0 -8 -8 -8h-177q-8 0 -8 8v511z" />
    </font>
</defs>
</svg>
