<?xml version="1.0" standalone="no"?>
<!DOCTYPE svg PUBLIC "-//W3C//DTD SVG 1.1//EN" "http://www.w3.org/Graphics/SVG/1.1/DTD/svg11.dtd" >
<svg xmlns="http://www.w3.org/2000/svg" xmlns:xlink="http://www.w3.org/1999/xlink" version="1.1">
<metadata>
Created by FontForge 20170731 at Sun Aug 20 00:26:14 2017
 By Aleksey,,,
 
</metadata>
<defs>
<font id="VirtuousSlabThin" horiz-adv-x="615" >
  <font-face 
    font-family="Virtuous Slab"
    font-weight="500"
    font-stretch="normal"
    units-per-em="1000"
    panose-1="0 0 0 0 0 0 0 0 0 0"
    ascent="800"
    descent="-200"
    x-height="620"
    cap-height="851"
    bbox="0 -225 1140 1073"
    underline-thickness="50"
    underline-position="-200"
    unicode-range="U+000D-00A0"
  />
<missing-glyph horiz-adv-x="650" 
 />
    <glyph glyph-name=".notdef" horiz-adv-x="650" 
 />
    <glyph glyph-name=".notdef" horiz-adv-x="650" 
 />
    <glyph glyph-name=".null" horiz-adv-x="0" 
 />
    <glyph glyph-name="nonmarkingreturn" horiz-adv-x="333" 
 />
    <glyph glyph-name="controlCR" unicode="&#xd;" horiz-adv-x="485" 
 />
    <glyph glyph-name="space" unicode=" " horiz-adv-x="485" 
 />
    <glyph glyph-name="exclam" unicode="!" horiz-adv-x="152" 
d="M38 225h64v-38h-102v627h38v-589zM0 0v80h38v-80h-38z" />
    <glyph glyph-name="quotedbl" unicode="&#x22;" horiz-adv-x="328" 
d="M171 0v0v0zM176 851h102v-152q0 -56 -28 -91q-26 -35 -68 -48l-11 36q30 10 50 35q19 25 19 68v115h-64v37zM6 814v37h101v-152q0 -56 -27 -91t-69 -48l-11 36q31 10 50 35t19 68v115h-63z" />
    <glyph glyph-name="numbersign" unicode="#" 
d="M405 337l27 188h-251l-28 -188h252zM475 562h90l-6 -37h-89l-27 -188h90l-6 -37h-90l-42 -300h-39l43 300h-251l-45 -300h-38l45 300h-110l5 37h110l28 188h-111l6 37h111l32 217h38l-32 -217h250l31 217h38z" />
    <glyph glyph-name="dollar" unicode="$" horiz-adv-x="632" 
d="M321 105q50 0 93 16t71 42t43.5 58t15.5 64q0 166 -223 207v-387zM178 562q47 -20 105 -27v356q-122 -2 -181 -59q-42 -42 -42 -112q0 -108 118 -158zM582 285q0 -39 -18.5 -78t-51.5 -70t-83 -50.5t-108 -19.5v-67h-38v69q-82 6 -145.5 43t-99.5 96v-43l-38 1l1 163v7
l37 1q0 -1 1 -5v-2q6 -86 68.5 -150t175.5 -74v391q-33 3 -65.5 11.5t-69 26t-63.5 41.5t-45 61.5t-18 82.5q0 86 54 138q70 69 207 70v45h38v-45q67 -4 118 -31t82 -69v74h38l-2 -166l1 -9h-37l-1 8v1q-5 53 -59.5 100.5t-139.5 53.5v-360q62 -11 109.5 -31.5t75.5 -44.5
t45.5 -54t24 -57.5t6.5 -57.5z" />
    <glyph glyph-name="percent" unicode="%" horiz-adv-x="940" 
d="M205 795q-34 0 -64 -14q-31 -13 -54 -37q-23 -23 -36 -53t-13 -65q0 -34 13 -64.5t36 -53.5t54 -37q64 -28 130 1q31 13 54 36t36 53q13 31 13 65.5t-13 65.5t-36 54q-23 22 -54 36q-31 13 -66 13zM205 421q-42 0 -80 16q-37 16 -64.5 44t-44.5 65q-16 38 -16 80t16 80
q17 37 44.5 65t64.5 44.5t80 17t81 -16.5q37 -16 65 -44t44.5 -66t16.5 -80q0 -43 -17 -80q-15 -37 -43.5 -65t-65.5 -44q-38 -16 -81 -16zM687 381q-34 0 -65 -13q-30 -13 -54 -36q-23 -24 -36.5 -54t-13.5 -65t13.5 -66t35.5 -54q24 -23 54 -36q66 -28 131 0q30 13 52 36
q23 23 35 54q13 32 13 66q0 35 -13 65q-12 31 -34.5 54t-52.5 36q-31 13 -65 13zM687 6q-42 0 -80 16t-66 44q-29 29 -44 67q-17 38 -17 80t17 80q17 37 44.5 65t65 44.5t80 16.5t80 -16.5t64.5 -44.5q28 -28 43 -65q16 -38 16 -80t-15.5 -80t-43 -66.5t-64.5 -44.5
q-38 -16 -80 -16zM241 0h-44l459 831l43 1z" />
    <glyph glyph-name="ampersand" unicode="&#x26;" horiz-adv-x="828" 
d="M256 829q-70 0 -105 -37q-34 -36 -28 -101q3 -42 27.5 -81t70.5 -87q37 24 56.5 37.5t45.5 36t38.5 45.5t16.5 50q7 59 -28 99q-34 38 -94 38zM215 475q-41 -26 -67 -46.5t-53.5 -51t-39.5 -67.5t-10 -82q3 -59 42 -104t95.5 -66.5t118.5 -19.5q154 4 233 128
q-197 187 -310 300l-2.5 2.5l-3.5 3.5zM293 0q-69 0 -132 26t-106.5 78.5t-47.5 121.5q-2 41 8 78t25.5 63.5t42 53t49.5 44t56 38.5q-30 32 -50 59t-35 60t-18 66q-6 81 38 129q46 50 133 50q77 0 122 -51q47 -52 37 -129q-4 -32 -18.5 -59.5t-41 -52t-49 -40.5t-58.5 -39
l3 -3q116 -117 302 -293q45 91 45 208v18l101 1v-38h-64q-3 -127 -52 -217q26 -25 52.5 -50t44 -41.5t22.5 -21.5h76v-37h-91l-5 5q-1 0 -15 13.5t-44 41.5t-60 57q-47 -68 -116.5 -102.5t-144.5 -36.5h-9z" />
    <glyph glyph-name="quotesingle" unicode="'" horiz-adv-x="157" 
d="M53 0v0v0zM6 851h101v-152q0 -56 -27 -91t-69 -48l-11 36q31 10 50 35t19 68v115h-63v37z" />
    <glyph glyph-name="parenleft" unicode="(" horiz-adv-x="276" 
d="M196 0q-46 64 -84 126q-37 62 -62 126t-37 135q-13 69 -13 152q0 80 13 149q13 70 38 135q26 67 62 127q36 61 83 123l30 -22q-46 -60 -81 -120q-34 -58 -58 -121q-24 -62 -37 -128q-12 -67 -12 -143q0 -78 12 -146q11 -66 35 -127t60 -120q36 -61 81 -124z" />
    <glyph glyph-name="parenright" unicode=")" horiz-adv-x="276" 
d="M30 0l-30 22q44 59 80 120q36 60 60 121q24 62 36 128q12 67 12 143q0 79 -12 145q-13 67 -36 128t-58 121q-37 60 -82 123l30 22q47 -64 84 -126q37 -61 61 -126q25 -66 38 -135t13 -152q0 -80 -13 -149t-38 -135q-25 -65 -62 -127q-38 -64 -83 -123z" />
    <glyph glyph-name="asterisk" unicode="*" horiz-adv-x="364" 
d="M157 0v0v0zM314 760l-125 -91l125 -91l-22 -30l-116 84v-136h-38v136l-116 -84l-22 30l125 91l-125 91l22 30l116 -84v136h38v-136l116 84z" />
    <glyph glyph-name="plus" unicode="+" 
d="M565 301v-37h-264v-264h-37v264h-264v37h264v264h37v-264h264z" />
    <glyph glyph-name="comma" unicode="," horiz-adv-x="157" 
d="M11 -160l-11 36q30 10 50 35q19 25 19 68v115h-63v37h101v-152q0 -56 -27 -91t-69 -48z" />
    <glyph glyph-name="hyphen" unicode="-" horiz-adv-x="336" 
d="M143 0v0v0zM0 296h286v-37h-286v37z" />
    <glyph glyph-name="period" unicode="." horiz-adv-x="88" 
d="M38 0h-38v100h38v-100z" />
    <glyph glyph-name="slash" unicode="/" horiz-adv-x="350" 
d="M300 920l-261 -920h-39l261 920h39z" />
    <glyph glyph-name="zero" unicode="0" horiz-adv-x="627" 
d="M289 813q-80 0 -129 -32q-49 -33 -75 -85q-27 -54 -37 -124t-10 -145q0 -82 11 -154q11 -71 39 -124q27 -51 76 -81q48 -30 125 -30t124 30q48 30 76 81q28 52 39 121q11 70 11 149q0 45 -3 93q-4 48 -13.5 92t-27.5 83q-17 38 -45 66q-27 27 -66.5 43.5t-94.5 16.5z
M289 0q-88 0 -145 36q-57 35 -89 96q-32 58 -44 136q-11 75 -11 159q0 77 10 151q11 75 41 135q31 62 89 99q57 38 149 38q63 0 109 -19q47 -19 79 -52t52 -77q20 -42 30.5 -90t13.5 -97q4 -49 4 -96q0 -79 -12 -154q-12 -76 -43 -134q-32 -60 -88 -95q-57 -36 -145 -36z
" />
    <glyph glyph-name="one" unicode="1" horiz-adv-x="355" 
d="M241 38h64v-38h-167v38h65v675q-20 -27 -46 -42q-30 -17 -71 -24q-36 -5 -83 -9l-3 38q44 3 80 9q34 5 58 19q24 13 40 39q17 26 25 74l19 -3h19v-776z" />
    <glyph glyph-name="two" unicode="2" 
d="M559 0h-559v31q1 32 11 58t27 47q15 21 35 38q18 17 38 32q14 11 103.5 65t118.5 71q36 20 74 46q35 24 62 54q26 28 43 67q16 37 16 86q0 42 -15 79q-14 37 -42 63q-29 27 -71 43q-42 17 -99 17q-55 0 -100 -18q-44 -17 -75 -48q-31 -32 -48 -76q-17 -45 -17 -101h-37
q0 63 19 114q20 52 56.5 89t88.5 57q51 20 113 20q64 0 113 -18q49 -19 83 -51q34 -33 51 -77t17 -93q0 -57 -19 -101t-49 -78q-31 -33 -69 -59q-38 -25 -77 -48q-29 -17 -117 -70t-100 -62q-17 -14 -36 -30q-17 -16 -30 -34q-13 -16 -21 -37q-7 -18 -9 -38h483v64h38v-102z
" />
    <glyph glyph-name="three" unicode="3" horiz-adv-x="628" 
d="M303 0q-72 0 -125 13q-55 14 -92 45q-38 32 -59 83q-20 49 -27 123l38 3q6 -68 24 -112q17 -42 48 -68t77 -37q49 -12 115 -12q58 1 102 19q45 18 75 49q30 30 46 69q15 40 15 86q0 24 -5 53q-5 26 -19 49q-14 24 -39 44q-26 20 -65 32l-48 16l46 20q53 22 77 62
q25 41 25 98q0 45 -16 79q-17 33 -44 55q-28 22 -65 32q-77 23 -176 2q-42 -8 -76 -39q-36 -34 -53 -74t-17 -90h-38q0 58 20 105t63 87q41 38 93 48q109 22 195 -2q45 -13 78 -40q34 -27 54 -68t20 -95q0 -67 -31 -117q-21 -35 -57 -58q22 -10 38 -24q30 -24 48 -53
q17 -29 24 -62q6 -31 6 -60q0 -53 -18 -100q-19 -46 -54.5 -82t-86.5 -57q-52 -21 -116 -22z" />
    <glyph glyph-name="four" unicode="4" horiz-adv-x="634" 
d="M75 233h380v516zM584 196h-92v-158h66v-38h-167v38h64v158h-455l492 668v-631h92v-37z" />
    <glyph glyph-name="five" unicode="5" horiz-adv-x="620" 
d="M299 0q-59 0 -110 12q-52 12 -93 41t-66 75q-8 15 -14.5 32.5t-10 37.5t-5.5 42l38 3q4 -59 25 -97.5t55 -62.5t80 -35q47 -10 101 -10q45 0 88 16q42 16 74 47t52 77q19 46 19 105q0 58 -17 104q-18 45 -48 76q-32 32 -74 48q-43 17 -94 17q-25 0 -47 -2q-20 -2 -39 -8
q-20 -6 -37 -15q-20 -11 -41 -24q-52 -40 -70 -76l-36 11l68 428h438v-102h-38v65h-368l-51 -325q17 16 34 30l2 1q26 16 45 25q22 11 43 18q22 7 46 9q22 3 51 3q58 0 107 -20q50 -19 87 -56q37 -36 57 -90q20 -52 20 -117q0 -66 -22 -119q-23 -53 -61 -90q-37 -36 -87 -55
q-49 -19 -101 -19z" />
    <glyph glyph-name="six" unicode="6" horiz-adv-x="622" 
d="M61 217q20 -62 53 -101q34 -42 80 -60q47 -18 104 -18q114 0 175 63q61 64 61 177q0 112 -60.5 174.5t-173.5 62.5q-41 0 -69 -9q-47 -16 -87 -53q-81 -87 -81 -236h-2zM298 0q-63 0 -118 21q-55 22 -95 71q-40 48 -63 124q-22 76 -22 184q0 73 13 150q13 80 46 145
q35 68 94 111q61 44 155 44q101 0 170 -54t82 -158l-38 -4q-10 88 -67 133q-58 46 -147 46q-82 0 -133 -37q-52 -38 -82 -98q-31 -60 -43 -134t-12 -144q0 -33 2 -61q21 80 78 140q46 44 101 62q35 12 81 12q129 0 201 -74q71 -74 71 -201q0 -129 -72 -203q-72 -75 -202 -75
z" />
    <glyph glyph-name="seven" unicode="7" horiz-adv-x="595" 
d="M222 0l-38 2q4 60 23 145q19 86 58 184t99 201q60 102 143 197v42h-469v-53h-38v91h545v-94l-5 -5q-84 -96 -143.5 -197.5t-96.5 -195.5q-38 -96 -56 -178q-19 -82 -22 -139z" />
    <glyph glyph-name="eight" unicode="8" horiz-adv-x="616" 
d="M511 164q18 42 18 97q0 64 -34 111q-35 47 -95 69h-237q-64 -26 -93 -70q-32 -52 -32 -117q0 -54 20 -94q21 -41 53.5 -68t74.5 -40q41 -14 81 -14q61 0 110 15q49 14 82 43q34 27 52 68zM119 512l8 -6q22 -18 38 -28h238q49 26 70 62q23 40 23 97q0 46 -18 78
q-18 33 -48 55q-32 22 -72 32q-41 11 -84 11h-3h-3q-41 0 -76 -13q-38 -13 -66 -38q-27 -24 -44 -56q-16 -33 -16 -69q0 -33 5 -56q6 -21 17.5 -37.5t30.5 -31.5zM525 394q41 -57 41 -133q0 -63 -21 -112t-62 -82q-39 -33 -95 -50q-55 -17 -121 -17q-45 0 -93 16t-86 47
q-39 32 -63 79q-25 48 -25 112q0 77 38 137q29 45 83 72q-10 8 -18 14l-7 6q-23 18 -38 39q-16 22 -23 50q-7 27 -7 65q0 45 20 85t53 69t78 45q44 15 96 14q47 0 93 -12t83 -38q38 -26 60 -66q23 -42 23 -97q0 -67 -28 -116q-20 -34 -58 -60q46 -25 77 -67z" />
    <glyph glyph-name="nine" unicode="9" horiz-adv-x="622" 
d="M274 813q-114 0 -175 -64q-61 -63 -61 -176t60.5 -175.5t173.5 -62.5q41 0 70 10q46 15 86 53q81 87 81 235h2q-20 63 -52 102q-35 41 -81 59q-47 19 -104 19zM264 0q-101 0 -170 54t-81 158l37 5q10 -89 68 -134q57 -45 146 -45q82 0 133 37q52 37 83 97q30 61 42 134
q12 74 12 145q0 33 -1 60q-22 -80 -79 -140q-46 -44 -100 -62q-35 -12 -82 -12q-129 0 -201 74q-71 74 -71 202t72 203q72 74 202 74q64 0 118 -21q55 -21 96 -70q40 -49 62 -125q22 -75 22 -183q0 -74 -12 -151q-13 -79 -47 -145q-34 -68 -94 -111q-61 -44 -155 -44z" />
    <glyph glyph-name="colon" unicode=":" horiz-adv-x="88" 
d="M0 0v100h38v-100h-38zM0 556h38v-99h-38v99z" />
    <glyph glyph-name="semicolon" unicode=";" horiz-adv-x="157" 
d="M107 629h-38v100h38v-100zM11 0l-11 36q31 10 50 35t19 68v115h-63v37h101v-152q0 -56 -27 -91t-69 -48z" />
    <glyph glyph-name="equal" unicode="=" 
d="M282 0v0v0zM0 397h565v-38h-565v38zM0 140v38h565v-38h-565z" />
    <glyph glyph-name="at" unicode="@" horiz-adv-x="901" 
d="M469 683q-66 0 -113 -30q-48 -30 -83 -77t-54 -106q-20 -57 -20 -110q0 -32 10 -59q9 -27 27 -48q18 -20 44 -32q56 -26 123 2q31 13 53 35l160 331q-8 16 -16 28t-24.5 29t-44 27t-62.5 10zM447 0q-94 0 -176 35t-143 97q-60 62 -94 143q-34 82 -34 175t35 174
q36 81 96.5 141t140.5 94q81 35 171 35q85 0 159 -27q75 -29 130 -78q55 -50 87 -119t32 -152q0 -70 -25 -133q-26 -63 -66 -110q-40 -48 -89 -77q-91 -51 -168 -12q-23 11 -37 31q-22 -17 -49 -29q-81 -34 -153 -1q-33 15 -56 41t-35 60q-11 33 -11 72q0 60 21 122.5
t60 115.5t93 87q56 35 133 35q113 0 167 -89l27 56l34 -16l-204 -425q8 -18 26 -27q60 -29 133 12q44 25 80 68t59 100t23 119q0 74 -29 136t-79 107t-117 70q-69 26 -146 26q-82 0 -156 -32q-73 -32 -129 -87.5t-88 -129.5q-32 -73 -32 -158t31 -160t87 -131
q54 -56 130 -89q74 -32 161 -32q54 0 105 13q52 14 98 40t83 63q38 37 64 84l33 -18q-28 -52 -70 -93t-92 -69q-49 -28 -106 -43t-115 -15z" />
    <glyph glyph-name="A" unicode="A" horiz-adv-x="939" 
d="M226 293h435l-217 493zM71 38l361 813h24l359 -813h74v-38h-167v38h51l-95 217h-469l-97 -217h55v-38h-167v38h71z" />
    <glyph glyph-name="B" unicode="B" horiz-adv-x="750" 
d="M644 149q19 40 19 99q0 75 -38 124q-36 48 -113 60h-410v-394h314q56 0 102 11t77 36q32 24 49 64zM377 814h-275v-345h409q24 7 42 17q21 11 36 28q16 19 26 46q10 28 10 68q0 42 -13 76t-42 58t-76 38q-49 14 -117 14zM574 454q51 -19 81 -59q45 -59 45 -147
q0 -67 -21 -115q-22 -48 -61 -78q-38 -30 -91 -43q-52 -12 -111 -12h-332h-19h-65v38h65v776h-65v37h65h19h293q74 0 128 -15q54 -16 90 -46q35 -30 52 -72q16 -42 16 -90q0 -46 -13 -80q-12 -35 -32 -58q-19 -22 -44 -36z" />
    <glyph glyph-name="C" unicode="C" horiz-adv-x="781" 
d="M141 764q-48 -48 -76 -126q-27 -78 -27 -191q0 -85 18 -160q19 -74 59 -130q40 -54 102 -87q62 -32 152 -32q78 0 135 22q58 22 97 59q40 37 64 86l34 -17q-27 -55 -72 -97t-109 -67q-64 -24 -149 -24q-98 0 -169 37q-71 36 -116 98q-44 62 -64 143q-20 80 -20 169
q0 120 30 204q30 85 84 139.5t127 79.5q72 24 156 24q65 0 122 -17q57 -18 101 -52q44 -36 72 -87q1 0 1 -0.5v-0.5v47h38v-169h-37q-10 60 -34 105q-25 44 -64 75q-38 30 -88 46q-52 16 -111 16q-78 0 -144 -23q-65 -21 -112 -70z" />
    <glyph glyph-name="D" unicode="D" horiz-adv-x="817" 
d="M724 347q5 40 5 79.5t-6 86.5t-20.5 92t-39.5 85q-24 39 -62 66q-26 19 -54 31q-29 12 -58 17.5t-61.5 7.5t-65.5 2h-260v-776h260q41 0 78 4q37 3 73 14q34 9 66 28q30 17 57 47q27 29 44 63q18 36 28 74q11 38 16 79zM760 518q7 -50 7 -91q0 -42 -5 -85q-6 -43 -17 -85
q-12 -42 -32 -80q-20 -39 -49 -71q-31 -34 -66 -55q-35 -20 -75 -32q-38 -11 -79 -15q-40 -4 -82 -4h-278h-19h-65v38h65v776h-65v37h65h19h278q34 0 67 -1q35 -2 67 -9q33 -6 65.5 -19.5t61.5 -34.5q44 -32 72 -77t43.5 -93.5t21.5 -98.5z" />
    <glyph glyph-name="E" unicode="E" horiz-adv-x="686" 
d="M598 102h38v-64v-19v-19h-552h-19h-65v38h65v776h-65v37h65h19h541v-37v-65h-38v65h-485v-388h421v-37h-421v-351h496v64z" />
    <glyph glyph-name="F" unicode="F" horiz-adv-x="677" 
d="M84 851h543v-102h-38v65h-487v-388h409v-37h-409v-351h65v-38h-167v38h65v776h-65v37h65h19z" />
    <glyph glyph-name="G" unicode="G" horiz-adv-x="813" 
d="M453 480h310v-440h-37v191q-14 -36 -32 -62q-21 -37 -50.5 -68.5t-68.5 -54.5q-38 -22 -88 -34q-51 -12 -112 -12q-81 0 -150 29q-70 29 -120 85q-50 57 -78 142q-27 84 -27 196q0 92 23 172q24 81 73.5 141t124.5 95q74 34 174 34q67 0 126 -16q59 -17 106 -51
q48 -35 80 -86q2 -3 10 -17v57h38v-167h-38q-13 62 -41.5 107t-70.5 75t-95 45q-54 16 -115 16q-91 0 -159 -31q-67 -32 -111 -85q-44 -54 -65 -128q-22 -75 -22 -161q0 -106 25 -184q26 -78 71 -129q44 -50 106 -76q62 -25 135 -25q58 0 103 10q44 11 78 31q34 19 60 47
t47 63q55 81 62 253h-272v38z" />
    <glyph glyph-name="H" unicode="H" horiz-adv-x="852" 
d="M802 814h-65v-776h65v-38h-167v38h65v361h-598v-361h65v-38h-167v38h65v776h-65v37h167v-37h-65v-377h598v377h-65v37h167v-37z" />
    <glyph glyph-name="I" unicode="I" horiz-adv-x="217" 
d="M167 814h-65v-776h65v-38h-167v38h65v776h-65v37h167v-37z" />
    <glyph glyph-name="J" unicode="J" horiz-adv-x="597" 
d="M547 873v-38h-65v-572q0 -126 -60 -194q-61 -69 -188 -69q-74 0 -120 25q-47 26 -72 69t-34 97q-8 51 -8 107h38q0 -53 7 -102q8 -46 29 -82q21 -35 58 -55.5t102 -20.5q110 0 159 56q51 57 51 169v572h-65v38h168z" />
    <glyph glyph-name="K" unicode="K" horiz-adv-x="634" 
d="M508 814l-317 -322l350 -454h43v-38h-167v38h77l-330 427l-62 -62v-365h65v-38h-167v38h65v776h-65v37h167v-37h-65v-357l353 357h-38v37h167v-37h-76z" />
    <glyph glyph-name="L" unicode="L" horiz-adv-x="665" 
d="M578 102h37v-102h-531h-19h-65v38h65v776h-65v37h167v-37h-65v-776h476v64z" />
    <glyph glyph-name="M" unicode="M" horiz-adv-x="982" 
d="M932 814h-65v-776h65v-38h-102v770l-349 -664h-25l-354 665v-771h-102v38h65v776h-65v37h102l367 -688l361 688h102v-37z" />
    <glyph glyph-name="N" unicode="N" horiz-adv-x="857" 
d="M742 814l-2 -814h-45l-593 777v-739h65v-38h-167v38h65v813h28l609 -798l2 761h-65v37h168v-37h-65z" />
    <glyph glyph-name="O" unicode="O" horiz-adv-x="846" 
d="M394 857q-87 0 -153 -32q-67 -33 -112 -88t-68 -129q-23 -76 -23 -162q0 -85 23 -160q22 -74 67 -129t112.5 -87t157 -32t157 32t111.5 87q46 55 69 129q23 75 23 160q0 86 -23 162q-23 75 -69 130q-45 56 -113 87q-69 32 -159 32zM397.5 0q-97.5 0 -173.5 36
q-75 35 -125 97q-50 61 -74 142q-25 80 -25 171q0 92 25 173q26 81 75 142q50 62 124 98q74 35 170 35q99 0 175 -35q75 -35 126 -96.5t76 -143.5q25 -81 25 -173q0 -91 -25 -171q-26 -81 -75 -142q-50 -62 -125 -97q-76 -36 -173.5 -36z" />
    <glyph glyph-name="P" unicode="P" horiz-adv-x="715" 
d="M603 503q24 40 24 102q0 43 -11 82q-10 36 -37 64.5t-74 45.5q-49 17 -124 17h-214h-65v-417h232q56 0 109 10q54 10 94 33t66 63zM653 697q12 -44 12 -92q0 -73 -30 -122q-31 -48 -79 -75q-47 -28 -106 -38q-58 -11 -116 -11h-232v-321h65v-38h-167v38h65v776h-65v37h65
h102h214q82 0 137 -19t88 -54q34 -36 47 -81z" />
    <glyph glyph-name="Q" unicode="Q" horiz-adv-x="846" 
d="M394 841q-91 0 -157 -34q-67 -34 -111 -90q-44 -57 -66 -130q-22 -75 -22 -157q0 -85 23 -160q22 -74 67 -129t112.5 -87t156.5 -32q59 0 106 13q48 14 87 39q24 18 53 42q57 56 86 136q29 82 29 178q0 101 -26 178q-27 76 -74.5 127.5t-113.5 78.5q-67 27 -150 27z
M709 -49l-110 84q-39 -22 -85 -36q-53 -15 -117 -15q-97 0 -173 36q-75 35 -125 97q-49 61 -74 142q-25 80 -25 171q0 87 24 167q24 81 73 143q49 63 123 101q75 37 174 37q90 0 164 -29q74 -30 127 -88q53 -57 82 -141q29 -83 29 -190q0 -103 -32 -191q-32 -89 -96 -152
q-24 -20 -36 -29l100 -78z" />
    <glyph glyph-name="R" unicode="R" horiz-adv-x="818" 
d="M544 440q62 29 88 67q28 41 28 112q0 103 -63 148q-67 47 -195 47h-235h-65v-374h442zM699 38h69v-38h-83q-19 13 -29 31q-8 16 -13 38q-4 21 -7 52t-4 78q-1 31 -4 65q-3 32 -12 60q-9 27 -27 48q-17 19 -47 30h-440v-364h65v-38h-167v38h65v776h-65v37h65h102h235
q141 0 217 -53q79 -56 79 -179q0 -83 -34 -133q-26 -37 -75 -65q17 -11 29 -25q22 -27 34 -60q11 -33 14 -69q3 -34 4 -67q1 -45 4 -76q1 -16 6 -47q4 -23 19 -39z" />
    <glyph glyph-name="S" unicode="S" horiz-adv-x="680" 
d="M608 338q22 -41 22 -100q0 -114 -86 -177q-83 -61 -230 -61q-66 0 -123 16t-100 49q-32 25 -53 59v-28h-38v167v0h38q0 -57 20 -98.5t56 -69.5q37 -29 87 -43q52 -14 113 -14q135 0 208 53q70 52 70 147q0 50 -17 81q-18 33 -47 53q-31 22 -70 34q-42 14 -86 23
l-15.5 3.5t-38 9t-36.5 7.5q-46 10 -93 24t-84 39q-38 25 -62 64q-24 40 -24 100q0 43 20 83q19 39 57 70q37 30 92 48q55 17 126 17q72 0 126 -18q55 -19 92 -52q21 -19 36 -42v39h38v-168v0h-38q0 42 -15 78.5t-46 64.5t-79 44q-48 17 -114 17q-65 0 -114 -16
q-49 -15 -81 -41q-31 -25 -46 -58q-16 -32 -16 -66q0 -50 19 -81q19 -32 50 -52q32 -21 74 -34q44 -13 90 -23l90 -20q46 -10 89 -24q46 -15 80 -39q37 -25 59 -65z" />
    <glyph glyph-name="T" unicode="T" horiz-adv-x="680" 
d="M0 851h630v-102h-38v65h-258v-776h64v-38h-167v38h65v776h-258v-65h-38v102z" />
    <glyph glyph-name="U" unicode="U" horiz-adv-x="848" 
d="M798 873v-38h-65v-489q0 -166 -84 -256t-250 -90q-168 0 -251 92q-83 91 -83 254v489h-65v38h167v-38h-65v-489q0 -148 73 -229q73 -79 224 -79q150 0 223 78q73 79 73 230v489h-64v38h167z" />
    <glyph glyph-name="V" unicode="V" horiz-adv-x="867" 
d="M746 814l-325 -814h-25l-325 814h-71v37h167v-37h-56l297 -744l298 744h-56v37h167v-37h-71z" />
    <glyph glyph-name="W" unicode="W" horiz-adv-x="1190" 
d="M567 685l-260 -685h-28l-210 814h-69v37h167v-37h-59l189 -733l270 709l273 -710l192 734h-59v37h167v-37h-69l-214 -814h-27z" />
    <glyph glyph-name="X" unicode="X" horiz-adv-x="842" 
d="M718 814l-298 -381l310 -395h62v-38h-167v38h57l-286 365l-285 -365h56v-38h-167v38h63l309 395l-298 381h-74v37h167v-37h-45l274 -350l274 350h-45v37h167v-37h-74z" />
    <glyph glyph-name="Y" unicode="Y" horiz-adv-x="879" 
d="M755 814l-322 -452v-324h65v-38h-167v38h65v324l-322 452h-74v37h167v-37h-47l295 -414l294 414h-47v37h167v-37h-74z" />
    <glyph glyph-name="Z" unicode="Z" horiz-adv-x="707" 
d="M619 102h38v-102h-657v25l597 789h-559v-65h-38v102h657v-20l-600 -793h562v64z" />
    <glyph glyph-name="asciicircum" unicode="^" horiz-adv-x="662" 
d="M306 846l306 -541h-43l-263 464l-263 -464h-43zM306 0v0v0z" />
    <glyph glyph-name="underscore" unicode="_" 
d="M565 0h-565v38h565v-38z" />
    <glyph glyph-name="a" unicode="a" horiz-adv-x="633" 
d="M470 177q4 5 10 12v207q-37 -10 -253 -51q-101 -21 -145 -58t-44 -100q0 -38 13.5 -65t37.5 -47q25 -19 56 -28q34 -9 69 -9q56 0 113 23q32 13 62.5 36.5t45 39t35.5 40.5zM518 54h65v-38h-103v19v96q-65 -75 -139 -105q-64 -26 -127 -26q-41 0 -79 11q-39 11 -69 35
t-48 59t-18 82q0 38 13.5 68.5t34 50.5t51 36t58 24.5t62.5 15.5q232 44 252 50q7 4 9 12v10q0 47 -14 78q-15 31 -40 49q-26 19 -61 27q-81 20 -164 -1q-39 -10 -68 -31t-47 -54t-21 -81l-38 3q4 56 26.5 96.5t57.5 66.5q35 25 81 36q93 24 182 2q43 -11 75 -34
q32 -24 51 -63q18 -39 18 -94v-400z" />
    <glyph glyph-name="b" unicode="b" horiz-adv-x="671" 
d="M570 210q14 54 14 116q0 59 -15 113q-15 53 -45 92t-75 63q-46 23 -107 23q-58 0 -111 -26q-53 -25 -82 -75l-3 -4q-18 -30 -28 -67q-14 -55 -14 -116q0 -59 16 -113q11 -41 28 -68q20 -32 38 -48q21 -20 46 -34q25 -13 53 -21q28 -7 53 -7q67 0 113 21.5t75 59.5
q30 39 44 91zM605 449q16 -59 16 -123q0 -66 -15 -125q-15 -61 -50 -105.5t-89 -69.5q-53 -26 -129 -26q-31 0 -62 9q-31 8 -61 24t-55 40q-21 20 -43 55q-6 9 -15 27v-139h-102v38h65v776h-65v37h102v-357q6 13 11 21l3 5q36 59 98 89q61 30 128 30q71 0 124 -27.5
t88 -73.5q34 -45 51 -105z" />
    <glyph glyph-name="c" unicode="c" horiz-adv-x="608" 
d="M288 0q-74 0 -129 25.5t-91 70.5q-35 44 -51 104q-17 59 -17 126q0 64 18 123q19 59 55 105t90.5 73.5t124.5 27.5q108 0 176 -53q28 -22 48 -54v44h38v-167h-38q0 10 -2 18q-16 88 -69 129q-58 45 -153 45q-61 0 -108 -23q-46 -24 -77 -64q-32 -40 -49 -92
q-16 -53 -16 -112q0 -62 15 -116q15 -52 45 -91q30 -38 77 -59q47 -22 113 -22q52 0 92 14q39 15 67 41q29 27 47 64q19 38 27 84l37 -7q-9 -51 -30 -94t-55 -75q-34 -31 -80 -48q-47 -17 -105 -17z" />
    <glyph glyph-name="d" unicode="d" horiz-adv-x="671" 
d="M502 216q15 54 15 113q0 61 -14 116q-10 37 -27 67l-3 5q-30 49 -82 74q-53 26 -111 26q-62 0 -107.5 -23.5t-74.5 -62.5q-30 -39 -45 -92q-15 -54 -15 -113q0 -62 14 -116q13 -52 43 -91q30 -38 75.5 -59.5t112.5 -21.5q26 0 53 7q28 8 53 21q26 14 47 34q17 16 37 48
q17 27 29 68zM621 830h-64v-776h64v-38h-102v139q-8 -18 -14 -27v-1q-24 -36 -43 -54q-25 -24 -55 -40t-61 -24q-32 -9 -63 -9q-75 0 -129 26q-54 25 -88.5 69.5t-50.5 105.5q-15 59 -15 125q0 64 17 123q16 60 51 105q34 46 87 73.5t125 27.5q66 0 127 -30q63 -30 98 -89
l3 -5q6 -10 11 -21v357h102v-37z" />
    <glyph glyph-name="e" unicode="e" 
d="M38 330h488q-2 138 -63 211q-63 76 -175 76q-59 0 -105 -22q-46 -23 -78 -62q-32 -40 -50 -93q-17 -51 -17 -110zM288 0q-74 0 -129 25.5t-90 70.5q-36 44 -52 104q-17 58 -17 125t20 127q19 60 56 105q37 46 90 72q54 26 122 26q130 0 204 -90q73 -88 72 -254v-18h-525
q3 -44 14 -83q15 -52 45 -91q30 -38 77 -59q47 -22 113 -22q52 0 91 13q38 14 66 38q28 25 47 57q19 34 31 74l36 -11q-13 -44 -34 -81q-22 -38 -55 -67t-79 -45q-45 -16 -103 -16z" />
    <glyph glyph-name="f" unicode="f" horiz-adv-x="321" 
d="M242 866q12 -1 29 -4l-6 -37q-14 2 -26 3q-14 1 -28 1q-58 0 -80 -32q-25 -36 -25 -100v-131h49v-37h-49v-491h65v-38h-168v38h65v491h-68v37h68v131q0 76 32 121q34 49 111 49q17 0 31 -1z" />
    <glyph glyph-name="g" unicode="g" horiz-adv-x="694" 
d="M526 215q15 54 15 112q0 62 -14 116q-10 37 -29 67l-3 5q-31 50 -86 75q-56 26 -117 26q-65 0 -113 -24q-48 -23 -79 -62t-47 -93q-15 -54 -15 -112q0 -62 14 -116q15 -53 46 -91t79 -59q49 -23 119 -23q27 0 55 8q30 7 56 21q28 14 49 34q18 16 39 48q19 27 31 68z
M542 638h102v-38h-65v-510q0 -61 -12 -117q-13 -57 -46 -101q-33 -45 -90 -71t-145 -26q-67 0 -117 18q-50 17 -82 44q-32 28 -49 61t-18 63l37 2q1 -22 14.5 -48.5t40.5 -48.5q27 -23 70 -38t104 -15q80 0 129 22q49 23 76 59q28 38 39 88q12 51 12 108v64q-10 -20 -15 -28
q-23 -35 -45 -55q-27 -24 -58 -40q-30 -15 -63 -24q-33 -8 -65 -8q-79 0 -135 25q-56 26 -92 71q-37 44 -53 104q-16 59 -16 126q0 64 17 123q18 60 54 105q37 46 92 73q55 28 129 28q69 0 133 -30q65 -30 102 -89l3 -5q6 -9 12 -21v129z" />
    <glyph glyph-name="h" unicode="h" horiz-adv-x="682" 
d="M567 38h65v-38h-168v38h65v364q0 38 -13 73t-38 63.5t-67 45.5t-95 17q-56 0 -99 -19.5t-67 -50.5t-35.5 -64t-11.5 -65h-1v-364h65v-38h-167v38h65v776h-65v37h102v-322q68 110 214 110q62 0 111.5 -21t79 -55t45 -75.5t15.5 -85.5v-364z" />
    <glyph glyph-name="i" unicode="i" horiz-adv-x="217" 
d="M102 38h65v-38h-167v38h65v547h-65v38h102v-585zM102 832v-100h-37v100h37z" />
    <glyph glyph-name="j" unicode="j" horiz-adv-x="235" 
d="M82 599v37h103v-682q0 -38 -4 -68q-4 -32 -18 -55q-15 -25 -44 -37q-26 -11 -71 -11q-26 0 -48 5l9 36q17 -4 39 -4q38 0 57 9q17 7 26 21q10 16 13 41q3 27 3 63v645h-65zM147 846h38v-101h-38v101z" />
    <glyph glyph-name="k" unicode="k" horiz-adv-x="692" 
d="M568 38h74v-38h-94l-274 418l-170 -165v-215h63v-38h-167v38h66v776h-66v37h104v-546l289 280h-37v38h167v-38h-76l-145 -141z" />
    <glyph glyph-name="l" unicode="l" horiz-adv-x="217" 
d="M102 38h65v-38h-167v38h65v776h-65v37h102v-813z" />
    <glyph glyph-name="m" unicode="m" horiz-adv-x="1013" 
d="M898 38h65v-38h-167v38h64v424q0 53 -46.5 96t-116.5 43q-27 0 -53 -7.5t-44 -18.5t-34 -25t-25.5 -25.5t-15.5 -22.5v-464h65v-38h-167v38h64v465q-20 44 -68.5 73t-120.5 25q-31 -2 -58.5 -11.5t-48 -24.5t-37 -35t-27.5 -43t-17 -47.5t-8 -49.5v-352h65v-38h-167v38
h65l-1 336q0 10 1 19v192h-65v38h102v-100q32 53 84 82.5t110 33.5q75 4 128.5 -23t83.5 -72q30 39 78 67t111 28q77 0 139 -50.5t62 -126.5v-424z" />
    <glyph glyph-name="n" unicode="n" horiz-adv-x="681" 
d="M567 38h64v-38h-167v38h65v364q0 38 -13 73t-38 63.5t-67 45.5t-95 17q-56 0 -99 -19.5t-67 -50.5t-36 -64t-12 -65v-364h65v-38h-167v38h65v546h-65v38h102v-93q68 110 214 110q62 0 111.5 -21t79 -55t45 -75.5t15.5 -85.5v-364z" />
    <glyph glyph-name="o" unicode="o" horiz-adv-x="630" 
d="M290 617q-64 0 -110 -22q-48 -23 -79 -61q-31 -39 -47 -92t-16 -115q0 -73 20 -127.5t54 -89.5t79 -53q46 -18 99 -19q57 0 104 20q46 20 79 58t51 91q18 54 18 120q0 62 -15 116q-15 53 -47 91q-31 38 -78 61q-47 22 -112 22zM290 0q-60 1 -112 22q-54 20 -93.5 61.5
t-61.5 102.5q-23 61 -23 141q0 68 18 126q18 60 54 104q37 46 91 72q55 26 127 26q73 0 128 -26q54 -26 91 -71q36 -44 54 -105q17 -59 17 -126q0 -73 -20 -132q-21 -60 -59 -104t-92 -67.5t-119 -23.5z" />
    <glyph glyph-name="p" unicode="p" horiz-adv-x="671" 
d="M569 209q15 54 15 113q0 62 -14 116q-14 53 -44 91q-29 37 -75 59t-113 22q-26 0 -53 -7t-52.5 -21t-46.5 -34q-17 -16 -38 -48q-17 -27 -29 -68q-15 -54 -15 -113q0 -61 14 -116q10 -37 28 -67l3 -5q30 -49 82 -74q53 -26 111 -26q62 0 107 23.5t75 62.5t45 92zM606 447
q15 -59 15 -125q0 -64 -16 -123q-17 -60 -51 -105q-35 -46 -88 -73q-53 -28 -124 -28q-67 0 -128 30q-62 30 -98 89l-3 5q-5 9 -11 21v-320h65v-37h-167v37h65v776h-65v38h102v-139q9 18 15 28q22 35 43 54q24 24 55 40q29 16 61 24q31 9 62 9q75 0 129 -25.5t89 -70.5
t50 -105z" />
    <glyph glyph-name="q" unicode="q" horiz-adv-x="671" 
d="M503 203q14 54 14 116q0 59 -15 113q-12 41 -29 68q-20 32 -37 48q-21 20 -47 34t-53 21t-53 7q-67 0 -113 -22q-45 -22 -75 -59q-29 -38 -43 -91q-14 -54 -14 -116q0 -59 15 -113q15 -53 45 -92q29 -39 75 -63q45 -23 107 -23q57 0 111 26q52 25 82 74l3 5q17 30 27 67z
M621 594h-64v-776h64v-37h-167v37h65v320q-6 -12 -11 -21l-3 -5q-36 -59 -98 -89q-60 -30 -127 -30q-71 0 -125 28q-52 27 -87 73q-35 45 -51 105q-17 59 -17 123q0 67 15 125q16 60 51 105t88.5 70.5t128.5 25.5q31 0 63 -9q32 -8 61 -24q30 -16 55 -40q21 -19 43 -54
q5 -9 14 -28v139h102v-38z" />
    <glyph glyph-name="r" unicode="r" horiz-adv-x="360" 
d="M160 603q58 36 150 36v-38q-82 0 -130 -30q-47 -29 -78 -104v-429h65v-38h-167v38h65v547h-65v38h102v-77q26 37 58 57z" />
    <glyph glyph-name="s" unicode="s" horiz-adv-x="549" 
d="M466 263q33 -34 33 -92q0 -43 -21 -76t-56 -54q-34 -21 -81 -31q-46 -10 -100 -10t-98 15t-74 41q-17 15 -31 33v-59h-38v167h38v-1q2 -33 16 -61q14 -29 39 -51q26 -21 62 -34q37 -12 86 -12q50 0 92 9q40 8 69 26q28 17 44 42q15 24 15 56q0 42 -22 65q-25 26 -63 41
q-40 15 -87 24q-142 31 -166 39q-46 17 -77 49q-32 34 -32 95q0 76 60 124q59 47 164 47q101 0 165 -42q25 -17 42 -41v61h38v-167h-38q-11 82 -63 116q-55 35 -144 35q-92 0 -140 -38q-47 -37 -47 -95q0 -45 23 -69q24 -25 62 -39q28 -11 160 -38q50 -9 94 -26
q45 -18 76 -49z" />
    <glyph glyph-name="t" unicode="t" horiz-adv-x="318" 
d="M186 0q-58 0 -90 31t-32 104v410h-64v37h64v201h37v-201h49v-37h-49v-410q0 -57 21 -77t64 -20q22 0 41 5q21 6 34 8l7 -37q-10 -2 -31 -8q-23 -6 -51 -6z" />
    <glyph glyph-name="u" unicode="u" horiz-adv-x="681" 
d="M567 54h64v-37h-102v89q-35 -52 -95 -79t-130 -27q-46 0 -85 13t-64 35t-43.5 47.5t-28.5 53t-14 49.5t-4 39v364h-65v38h102v-402q0 -18 5 -40.5t19 -51.5t35.5 -52t58.5 -39t84 -16q40 0 74 8t58 23t42.5 34t29 41.5t16 46t5.5 46.5v364h-65v38h103v-585z" />
    <glyph glyph-name="v" unicode="v" horiz-adv-x="744" 
d="M621 582l-262 -582h-25l-262 582h-72v38h167v-38h-53l233 -518l233 518h-53v38h167v-38h-73z" />
    <glyph glyph-name="w" unicode="w" horiz-adv-x="999" 
d="M782 620h167v-38h-70l-189 -582h-27l-189 463l-199 -463h-27l-178 582h-70v38h167v-38h-57l155 -509l196 455h27l186 -455l165 509h-57v38z" />
    <glyph glyph-name="x" unicode="x" horiz-adv-x="685" 
d="M576 582l-234 -271l236 -273h57v-38h-168v38h61l-211 244l-210 -244h60v-38h-167v38h57l235 273l-234 271h-58v38h167v-38h-59l209 -243l210 243h-60v38h168v-38h-59z" />
    <glyph glyph-name="y" unicode="y" horiz-adv-x="741" 
d="M691 640v-38h-71l-213 -563q-21 -57 -39 -100q-19 -45 -41 -78q-23 -35 -52 -53q-30 -19 -71 -19q-19 0 -37 2q-18 3 -32 6l10 37q14 -4 28 -6q13 -2 31 -2q30 0 51 14q22 14 41 42q20 30 37 72q15 35 32 79l-292 569h-73v38h167v-38h-51l267 -521l197 521h-56v38h167z
" />
    <glyph glyph-name="z" unicode="z" horiz-adv-x="586" 
d="M34 623h491v-21l-459 -564h432v72h38v-110h-536v16l463 569h-392v-64h-37v102z" />
    <glyph glyph-name="nonbreakingspace" unicode="&#xa0;" horiz-adv-x="485" 
 />
  </font>
</defs>
</svg>
