<?xml version="1.0" standalone="no"?>
<!DOCTYPE svg PUBLIC "-//W3C//DTD SVG 1.1//EN" "http://www.w3.org/Graphics/SVG/1.1/DTD/svg11.dtd" >
<svg xmlns="http://www.w3.org/2000/svg" xmlns:xlink="http://www.w3.org/1999/xlink" version="1.1">
<metadata>
Created by FontForge 20170731 at Wed Dec 16 14:24:25 2015
 By Aleksey,,,
Copyright (c) 2011 by Daniel Hernndez. All rights reserved.
</metadata>
<defs>
<font id="Sanchez-Regular" horiz-adv-x="0" >
  <font-face 
    font-family="Sanchez"
    font-weight="400"
    font-stretch="normal"
    units-per-em="1000"
    panose-1="0 0 5 0 0 0 0 0 0 0"
    ascent="756"
    descent="-244"
    x-height="492"
    cap-height="718"
    bbox="-752 -274 1351 994.762"
    underline-thickness="50"
    underline-position="-200"
    unicode-range="U+0020-FB02"
  />
<missing-glyph horiz-adv-x="313" 
 />
    <glyph glyph-name="fi" unicode="fi" horiz-adv-x="655" 
d="M421 0q-12 0 -12 12v43q0 12 12 12h56v358h-287v-358h88q12 0 12 -12v-43q0 -12 -12 -12h-227q-12 0 -12 12v43q0 12 12 12h56v358h-58q-12 0 -12 12v43q0 12 12 12h58v62q0 83 42.5 126.5t118.5 43.5q56 0 101 -40q10 -9 2 -17l-23 -31q-10 -8 -18 -2q-19 19 -54 19
q-41 0 -63.5 -25.5t-22.5 -74.5v-61h358q12 0 12 -12v-413h53q13 0 13 -12v-43q0 -12 -13 -12h-192zM573 642q0 -24 -17.5 -41t-41.5 -17q-25 0 -42 17t-17 41q0 25 17 42.5t42 17.5q24 0 41.5 -17.5t17.5 -42.5z" />
    <glyph glyph-name="fl" unicode="fl" horiz-adv-x="633" 
d="M51 0q-12 0 -12 12v43q0 12 12 12h56v358h-58q-12 0 -12 12v43q0 12 12 12h58v62q0 83 42.5 126.5t118.5 43.5q56 0 101 -40q10 -9 2 -17l-23 -31q-10 -8 -18 -2q-19 19 -54 19q-41 0 -63.5 -25.5t-22.5 -74.5v-61h128q12 0 12 -12v-43q0 -12 -12 -12h-128v-358h88
q12 0 12 -12v-43q0 -12 -12 -12h-227zM395 0q-13 0 -13 12v43q0 12 13 12h56v584h-56q-13 0 -13 12v43q0 12 13 12h111q27 0 27 -25v-626h53q13 0 13 -12v-43q0 -12 -13 -12h-191z" />
    <glyph glyph-name="f_f" unicode="ff" horiz-adv-x="717" 
d="M417 0q-13 0 -13 12v43q0 12 13 12h56v358h-283v-358h88q12 0 12 -12v-43q0 -12 -12 -12h-227q-12 0 -12 12v43q0 12 12 12h56v358h-58q-12 0 -12 12v43q0 12 12 12h58v62q0 83 42.5 126.5t118.5 43.5q56 0 101 -40q10 -9 2 -17l-23 -31q-10 -8 -18 -2q-19 19 -54 19
q-41 0 -63.5 -25.5t-22.5 -74.5v-61h283v62q0 84 42 127t118 43q57 0 102 -40q9 -9 2 -17l-24 -31q-8 -8 -17 -2q-24 19 -55 19q-85 0 -85 -100v-61h127q13 0 13 -12v-43q0 -12 -13 -12h-127v-358h87q13 0 13 -12v-43q0 -12 -13 -12h-226z" />
    <glyph glyph-name="f_f_i" unicode="ffi" horiz-adv-x="1020" 
d="M787 0q-12 0 -12 12v43q0 12 12 12h56v358h-287v-358h87q13 0 13 -12v-43q0 -12 -13 -12h-226q-13 0 -13 12v43q0 12 13 12h56v358h-283v-358h88q12 0 12 -12v-43q0 -12 -12 -12h-227q-12 0 -12 12v43q0 12 12 12h56v358h-58q-12 0 -12 12v43q0 12 12 12h58v62
q0 83 42.5 126.5t118.5 43.5q56 0 101 -40q10 -9 2 -17l-23 -31q-10 -8 -18 -2q-19 19 -54 19q-41 0 -63.5 -25.5t-22.5 -74.5v-61h283v62q0 84 42 127t118 43q57 0 102 -40q9 -9 2 -17l-24 -31q-8 -8 -17 -2q-24 19 -55 19q-85 0 -85 -100v-61h357q13 0 13 -12v-413h53
q12 0 12 -12v-43q0 -12 -12 -12h-192zM939 642q0 -24 -17.5 -41t-41.5 -17q-25 0 -42 17t-17 41q0 25 17 42.5t42 17.5q24 0 41.5 -17.5t17.5 -42.5z" />
    <glyph glyph-name="f_f_l" unicode="ffl" horiz-adv-x="1022" 
d="M417 0q-13 0 -13 12v43q0 12 13 12h56v358h-283v-358h88q12 0 12 -12v-43q0 -12 -12 -12h-227q-12 0 -12 12v43q0 12 12 12h56v358h-58q-12 0 -12 12v43q0 12 12 12h58v62q0 83 42.5 126.5t118.5 43.5q56 0 101 -40q10 -9 2 -17l-23 -31q-10 -8 -18 -2q-19 19 -54 19
q-41 0 -63.5 -25.5t-22.5 -74.5v-61h283v62q0 84 42 127t118 43q57 0 102 -40q9 -9 2 -17l-24 -31q-8 -8 -17 -2q-24 19 -55 19q-85 0 -85 -100v-61h127q13 0 13 -12v-43q0 -12 -13 -12h-127v-358h87q13 0 13 -12v-43q0 -12 -13 -12h-226zM784 0q-13 0 -13 12v43q0 12 13 12
h55v584h-47q-12 0 -12 12v43q0 12 12 12h103q27 0 27 -25v-626h53q13 0 13 -12v-43q0 -12 -13 -12h-191z" />
    <glyph glyph-name=".notdef" horiz-adv-x="313" 
 />
    <glyph glyph-name=".null" 
 />
    <glyph glyph-name="nonmarkingreturn" horiz-adv-x="333" 
 />
    <glyph glyph-name="space" unicode=" " horiz-adv-x="250" 
 />
    <glyph glyph-name="exclam" unicode="!" horiz-adv-x="276" 
d="M116 148q-13 0 -13 12l-9 588q0 12 13 12h63q12 0 12 -12l-9 -588q0 -12 -12 -12h-45zM192 4q0 -22 -15.5 -37.5t-37.5 -15.5q-23 0 -38 15.5t-15 37.5t15 37.5t38 15.5q22 0 37.5 -15.5t15.5 -37.5z" />
    <glyph glyph-name="quotedbl" unicode="&#x22;" horiz-adv-x="321" 
d="M78 561q-14 0 -14 13l-4 163q0 13 13 13h43q14 0 14 -13l-5 -163q-2 -13 -14 -13h-33zM209 561q-13 0 -13 13l-5 163q0 13 14 13h43q14 0 14 -13l-6 -163q0 -13 -13 -13h-34z" />
    <glyph glyph-name="numbersign" unicode="#" horiz-adv-x="612" 
d="M409 112l-31 -107q-3 -12 -16 -12h-49q-12 0 -9 12l31 107h-131l-30 -107q-4 -12 -16 -12h-49q-14 0 -9 12l30 107h-80q-12 0 -12 12v37q0 12 12 12h98l36 126h-79q-13 0 -13 13v36q0 13 13 13h97l32 109q3 13 16 13h49q12 0 9 -13l-32 -109h131l31 109q5 13 17 13h49
q11 0 8 -13l-32 -109h81q12 0 12 -13v-36q0 -13 -12 -13h-99l-36 -126h81q12 0 12 -12v-37q0 -12 -12 -12h-98zM389 299h-131l-37 -126h131z" />
    <glyph glyph-name="dollar" unicode="$" horiz-adv-x="659" 
d="M313 -84q-12 0 -12 12v74q-111 14 -172 108h-3l2 -67q2 -12 -12 -12h-55q-12 0 -12 12v188q0 13 12 13h62q12 0 12 -13v-6q0 -6 6.5 -21.5t23 -38t39.5 -42.5t61.5 -34.5t83.5 -14.5q77 0 120.5 32t43.5 89q0 34 -24.5 58.5t-63.5 38.5t-86 25.5t-94 27t-86 36.5
t-63.5 59t-24.5 90q0 82 59.5 136t162.5 58v69q0 12 12 12h54q12 0 12 -12v-79q87 -12 130 -69l-2 39q0 12 13 12h54q13 0 13 -12v-183q0 -13 -13 -13h-61q-12 0 -12 13v18q-2 41 -47 82t-134 41q-66 0 -106.5 -31.5t-40.5 -80.5q0 -37 25 -62.5t64.5 -40.5t87.5 -27
t96 -26.5t87.5 -34.5t64.5 -56.5t25 -86.5q0 -86 -58.5 -142.5t-176.5 -60.5v-65q0 -12 -13 -12h-54z" />
    <glyph glyph-name="percent" unicode="%" horiz-adv-x="747" 
d="M221 -74q-12 0 -9 12l242 810q3 12 17 12h38q12 0 9 -12l-243 -810q-3 -12 -15 -12h-39zM179 359q-68 0 -106.5 50.5t-38.5 134.5q0 79 39.5 129.5t105.5 50.5q67 0 106 -50t39 -130q0 -84 -38.5 -134.5t-106.5 -50.5zM179 414q40 0 62.5 33.5t22.5 94.5t-22 94t-63 33
q-40 0 -62.5 -33.5t-22.5 -93.5q0 -61 22.5 -94.5t62.5 -33.5zM567 -7q-68 0 -106.5 50.5t-38.5 134.5q0 79 39.5 129.5t105.5 50.5t105 -50t39 -130q0 -84 -38 -134.5t-106 -50.5zM567 48q40 0 62.5 33.5t22.5 94.5t-22.5 94t-62.5 33q-41 0 -63 -33t-22 -94t22.5 -94.5
t62.5 -33.5z" />
    <glyph glyph-name="ampersand" unicode="&#x26;" horiz-adv-x="677" 
d="M525 0q-29 0 -51 33l-19 28q-65 -68 -174 -68q-114 0 -175 61.5t-61 140.5q0 146 161 214q-58 68 -58 152q0 76 47.5 119.5t119.5 43.5q68 0 116.5 -40t48.5 -117q0 -36 -12.5 -65.5t-36.5 -51.5t-45.5 -35.5t-54.5 -30.5l128 -181q21 43 21 151q0 12 13 12h138
q12 0 12 -12v-49q0 -12 -12 -12h-70q-4 -89 -49 -167l36 -53h63q13 0 13 -12v-49q0 -12 -13 -12h-86zM288 444q2 1 15 7t16 7.5t14.5 7.5t14.5 9t12 9.5t12 11.5t9 13t8 16t4 18t2 21q0 36 -20 61t-56 25q-39 0 -62.5 -24t-23.5 -66q0 -12 3 -24.5t6.5 -21.5t11 -21
t11 -17.5t12.5 -17.5t11 -14zM253 344q-23 -10 -39 -19t-38 -26.5t-34 -43.5t-12 -58q0 -61 43.5 -95.5t108.5 -34.5q47 0 77.5 11.5t52.5 41.5z" />
    <glyph glyph-name="quotesingle" unicode="'" horiz-adv-x="189" 
d="M78 561q-14 0 -14 13l-4 163q0 13 13 13h43q14 0 14 -13l-5 -163q-2 -13 -14 -13h-33z" />
    <glyph glyph-name="parenleft" unicode="(" horiz-adv-x="409" 
d="M383 -53q0 -13 -13 -13q-58 0 -114 25.5t-103 74.5t-76 131.5t-29 185.5t29 184.5t76 130.5t103 74t114 25q13 0 13 -13v-51q0 -13 -13 -13q-41 0 -82 -21t-77 -60.5t-58 -107t-22 -151.5q0 -85 22.5 -152.5t58.5 -106t76.5 -58.5t81.5 -20q13 0 13 -13v-51z" />
    <glyph glyph-name="parenright" unicode=")" horiz-adv-x="409" 
d="M26 -3q0 14 13 14q41 0 81.5 19.5t77 58.5t59 106t22.5 152q0 162 -74.5 251t-165.5 89q-13 0 -13 13v51q0 13 13 13q58 0 114 -25t103 -73.5t76 -130.5t29 -185t-29 -185.5t-76 -131.5t-103 -74.5t-114 -25.5q-13 0 -13 14v50z" />
    <glyph glyph-name="asterisk" unicode="*" horiz-adv-x="435" 
d="M200 420q-6 0 -10 4t-3 9l11 113l-68 -89q-10 -11 -20 -1l-23 24q-11 11 1 20l90 69l-115 -12q-6 -1 -10 3t-4 10v34q0 6 4 10t10 3l115 -14l-91 72q-11 9 0 19l23 24q11 9 19 0l71 -89l-13 113q-1 5 3 9t10 4h34q6 0 10.5 -3.5t3.5 -9.5l-12 -114l69 90q9 11 19 0
l24 -23q11 -11 0 -20l-90 -73l113 16q6 1 10 -3t4 -10v-34q0 -14 -14 -14l-110 11l87 -68q10 -9 0 -19l-24 -24q-10 -11 -19 0l-71 87l14 -111q1 -6 -3.5 -9.5t-10.5 -3.5h-34z" />
    <glyph glyph-name="plus" unicode="+" horiz-adv-x="498" 
d="M220 68q-12 0 -12 13v157h-152q-14 0 -14 13v51q0 13 14 13h152v163q0 13 12 13h57q13 0 13 -13v-163h152q14 0 14 -13v-51q0 -13 -14 -13h-152v-157q0 -13 -13 -13h-57z" />
    <glyph glyph-name="comma" unicode="," horiz-adv-x="231" 
d="M82 -73q0 6 6 6q16 0 28.5 13.5t12.5 39.5l-2 12q-5 -5 -19 -5q-18 0 -30.5 13t-12.5 33t13.5 33.5t33.5 13.5q26 0 41 -19t15 -54q0 -56 -22.5 -83t-57.5 -27q-6 0 -6 5v19z" />
    <glyph glyph-name="hyphen" unicode="-" horiz-adv-x="476" 
d="M83 222q-14 0 -14 13v51q0 13 14 13h311q13 0 13 -13v-51q0 -13 -13 -13h-311z" />
    <glyph glyph-name="period" unicode="." horiz-adv-x="222" 
d="M159 40q0 -20 -14 -33.5t-34 -13.5t-33.5 13.5t-13.5 33.5t14 33.5t33 13.5q20 0 34 -13.5t14 -33.5z" />
    <glyph glyph-name="slash" unicode="/" horiz-adv-x="403" 
d="M47 -74q-14 0 -9 12l242 810q3 12 16 12h59q12 0 9 -12l-242 -810q-4 -12 -16 -12h-59z" />
    <glyph glyph-name="zero" unicode="0" horiz-adv-x="688" 
d="M344 -7q-136 0 -212.5 101t-76.5 269q0 160 78 260.5t211 100.5t211 -100.5t78 -260.5q0 -167 -76.5 -268.5t-212.5 -101.5zM344 72q93 0 145.5 75.5t52.5 212.5q0 133 -53.5 209t-144.5 76q-92 0 -145.5 -76t-53.5 -209q0 -136 53 -212t146 -76z" />
    <glyph glyph-name="one" unicode="1" horiz-adv-x="478" 
d="M63 0q-13 0 -13 12v49q0 12 13 12h162v551l-138 -99q-10 -7 -17 3l-28 41q-8 9 3 17l174 125q10 7 18 7h61q13 0 13 -12v-633h145q12 0 12 -12v-49q0 -12 -12 -12h-393z" />
    <glyph glyph-name="two" unicode="2" horiz-adv-x="629" 
d="M64 0q-13 0 -13 12v29q0 61 23.5 109.5t60.5 79t82 56t90.5 47t82.5 44.5t60.5 55.5t23.5 73.5q0 58 -44 98.5t-113 40.5q-83 0 -127 -41.5t-44 -104.5q0 -12 -12 -12h-64q-12 0 -12 12q0 93 65.5 159t193.5 66q115 0 181 -62.5t66 -150.5q0 -53 -23 -95.5t-59.5 -71
t-81.5 -52.5t-90 -46t-83 -45.5t-63 -55.5t-28 -72h353v72q0 12 12 12h57q13 0 13 -12v-133q0 -12 -13 -12h-494z" />
    <glyph glyph-name="three" unicode="3" horiz-adv-x="603" 
d="M403 377q15 0 36.5 -8.5t47 -27t43 -56t17.5 -86.5q0 -93 -72 -149.5t-191 -56.5q-47 0 -87 10.5t-67 27.5t-44 31.5t-30.5 30.5t-14.5 17q-9 8 0 17l43 40q8 8 17 0q4 -3 26 -25t37.5 -34t48.5 -24t71 -12q80 0 126.5 38t46.5 100q0 127 -170 127h-40q-12 0 -12 12v46
q0 15 12 15h32q35 0 66.5 7t60.5 34.5t29 73.5q0 51 -36.5 85.5t-109.5 34.5q-67 0 -102 -35.5t-35 -81.5q0 -12 -12 -12h-59q-13 0 -13 12q0 89 60 142.5t161 53.5q117 0 176.5 -58.5t59.5 -132.5q0 -70 -46 -112.5t-76 -42.5v-1z" />
    <glyph glyph-name="four" unicode="4" horiz-adv-x="595" 
d="M251 0q-12 0 -12 12v49q0 12 12 12h114v150h-334q-12 0 -12 12v47q0 15 13 32l312 381q18 23 37 23h57q13 0 13 -12v-410h79q13 0 13 -13v-48q0 -12 -13 -12h-79v-150h87q12 0 12 -12v-49q0 -12 -12 -12h-287zM365 610l-258 -317h258v317z" />
    <glyph glyph-name="five" unicode="5" horiz-adv-x="602" 
d="M289 -7q-26 0 -50.5 3.5t-44.5 10t-37.5 13.5t-32 17t-25.5 18t-20.5 18t-15 16t-11 13t-6.5 8q-10 8 0 17l43 40q8 8 18 0q3 -3 15.5 -17t20 -21.5t24.5 -20t32.5 -19t39 -12t50.5 -5.5q83 0 128.5 42.5t45.5 120.5q0 69 -46.5 110.5t-127.5 41.5q-27 0 -56.5 -4
t-47.5 -8.5t-42.5 -11.5t-29.5 -8q-28 -8 -28 24v329q0 12 13 12h400q12 0 12 -12v-128q0 -12 -12 -12h-57q-12 0 -12 12v65h-257v-200q2 0 15.5 4t28 7.5t40 6.5t51.5 3q118 0 182 -64t64 -171q0 -109 -72 -173.5t-192 -64.5z" />
    <glyph glyph-name="six" unicode="6" horiz-adv-x="642" 
d="M332 -7q-131 0 -203 98t-72 262q0 172 73.5 271.5t214.5 99.5q99 0 159 -52t60 -135q0 -12 -12 -12h-59q-12 0 -12 12q0 40 -34.5 74t-101.5 34q-87 0 -136.5 -61.5t-59.5 -173.5q84 53 198 53q117 0 180.5 -63t63.5 -169q0 -104 -70.5 -171t-188.5 -67zM331 72
q79 0 124.5 45t45.5 117q0 68 -45.5 109t-126.5 41q-104 0 -182 -55q5 -122 51.5 -189.5t132.5 -67.5z" />
    <glyph glyph-name="seven" unicode="7" horiz-adv-x="553" 
d="M215 0q-12 0 -12 12q0 123 24 213.5t58 140t68.5 89t59.5 86t27 104.5h-335v-77q0 -12 -13 -12h-57q-12 0 -12 12v138q0 12 12 12h489q12 0 12 -12v-31q0 -54 -13.5 -98t-35.5 -76t-48 -64t-52 -70t-47.5 -83.5t-35 -115t-13.5 -155.5q0 -13 -13 -13h-63z" />
    <glyph glyph-name="eight" unicode="8" horiz-adv-x="642" 
d="M444 384q14 0 35.5 -9.5t47 -29t43.5 -57t18 -85.5q0 -94 -71.5 -152t-194.5 -58q-124 0 -196 58t-72 152q0 48 18 85.5t43.5 57t47 29t35.5 9.5v2q-29 0 -73 40.5t-44 109.5q0 74 59.5 130.5t180.5 57.5q121 0 180.5 -57t59.5 -131q0 -69 -44 -109.5t-73 -40.5v-2z
M471 526q0 51 -38.5 85t-111.5 34q-74 -1 -112 -34.5t-38 -84.5q0 -35 15 -59.5t40 -35.5t47 -15.5t46 -4.5q26 0 49 4.5t48 15.5t40 35.5t15 59.5zM308 342q-81 0 -122.5 -33.5t-41.5 -97.5t47 -101.5t130 -37.5q84 0 130.5 37.5t46.5 101.5q0 63 -42 97t-122 34h-26z" />
    <glyph glyph-name="nine" unicode="9" horiz-adv-x="639" 
d="M295 -7q-99 0 -159 52t-60 135q0 12 12 12h59q12 0 12 -12q0 -40 34.5 -74t101.5 -34q87 0 136 61.5t59 172.5q-84 -52 -197 -52q-117 0 -180.5 63t-63.5 169q0 104 70.5 171t188.5 67q131 0 203 -98t72 -262q0 -172 -73.5 -271.5t-214.5 -99.5zM311 333q108 0 181 55
q-4 121 -51 189t-132 68q-79 0 -124.5 -45t-45.5 -117q0 -68 45.5 -109t126.5 -41z" />
    <glyph glyph-name="colon" unicode=":" horiz-adv-x="233" 
d="M164 440q0 -20 -14 -33.5t-34 -13.5t-33.5 13.5t-13.5 33.5t13.5 34t33.5 14t34 -14t14 -34zM164 40q0 -20 -14 -33.5t-34 -13.5t-33.5 13.5t-13.5 33.5t13.5 33.5t33.5 13.5t34 -13.5t14 -33.5z" />
    <glyph glyph-name="semicolon" unicode=";" horiz-adv-x="248" 
d="M169 440q0 -20 -14 -33.5t-34 -13.5q-19 0 -33 13.5t-14 33.5t13.5 34t33.5 14t34 -14t14 -34zM90 -73q0 6 6 6q16 0 28.5 13.5t12.5 39.5l-2 12q-5 -5 -19 -5q-18 0 -30.5 13t-12.5 33t13.5 33.5t33.5 13.5q26 0 41 -19t15 -54q0 -56 -22.5 -82t-57.5 -26q-6 0 -6 5v17z
" />
    <glyph glyph-name="less" unicode="&#x3c;" horiz-adv-x="474" 
d="M54 226q-14 6 -14 19v18q0 13 14 19l335 161q13 5 13 -8v-43q0 -14 -13 -20l-247 -118l247 -118q13 -5 13 -19v-43q0 -13 -13 -8z" />
    <glyph glyph-name="equal" unicode="=" horiz-adv-x="494" 
d="M87 335q-13 0 -13 14v50q0 14 13 14h320q13 0 13 -14v-50q0 -14 -13 -14h-320zM87 100q-13 0 -13 13v51q0 13 13 13h320q13 0 13 -13v-51q0 -13 -13 -13h-320z" />
    <glyph glyph-name="greater" unicode="&#x3e;" horiz-adv-x="475" 
d="M86 66q-13 -5 -13 8v43q0 14 13 19l247 118l-247 118q-13 6 -13 20v43q0 13 13 8l335 -161q14 -6 14 -19v-18q0 -13 -14 -19z" />
    <glyph glyph-name="question" unicode="?" horiz-adv-x="531" 
d="M207 130q-13 0 -13 12q0 63 21 112.5t51.5 79.5t61 56.5t51.5 57.5t21 67q0 58 -36 94t-99 36q-74 0 -108.5 -45.5t-36.5 -120.5q0 -12 -12 -12h-61q-13 0 -13 12q0 48 11.5 89.5t37 77.5t72 57t110.5 21q106 0 165.5 -58.5t59.5 -147.5q0 -52 -22 -92.5t-53 -68.5
t-62.5 -55.5t-53.5 -68t-22 -91.5q0 -12 -13 -12h-57zM295 7q0 -23 -16.5 -39.5t-39.5 -16.5t-39.5 16.5t-16.5 39.5t16.5 39.5t39.5 16.5t39.5 -16.5t16.5 -39.5z" />
    <glyph glyph-name="at" unicode="@" horiz-adv-x="800" 
d="M638 -62q5 -11 -6 -16q-10 -5 -28 -13t-77 -21.5t-122 -13.5q-151 0 -252.5 101.5t-101.5 254.5q0 164 114.5 279.5t273.5 115.5q149 0 235.5 -83t86.5 -206q0 -127 -70.5 -197.5t-169.5 -70.5q-27 0 -37.5 8t-7.5 30l3 21l-1 -3q-2 -2 -4.5 -5.5t-6 -8t-8.5 -9.5
t-11 -10.5t-14 -10t-16.5 -8t-19 -5.5t-21.5 -2q-58 0 -101 42t-43 128q0 93 57.5 151t137.5 58q62 0 85 -41l4 20q3 11 13 11h35q12 0 10 -12l-38 -295h18q54 0 95.5 56t41.5 151q0 98 -69 159.5t-184 61.5q-133 0 -223 -97.5t-90 -227.5q0 -125 80.5 -205t198.5 -80
q60 0 110.5 8.5t70.5 16.5l20 9q11 7 16 -6zM502 324q-1 11 -7 23.5t-24 25.5t-43 13q-51 0 -90.5 -41t-39.5 -108q0 -56 27 -82.5t66 -26.5q37 0 66 31t32 62z" />
    <glyph glyph-name="A" unicode="A" horiz-adv-x="719" 
d="M499 0q-13 0 -13 12v49q0 12 13 12h69l-63 170h-283l-63 -170h70q13 0 13 -12v-49q0 -12 -13 -12h-223q-12 0 -12 12v49q0 12 12 12h68l215 572h-55q-13 0 -13 12v49q0 12 13 12h134q24 0 37 -10t22 -33l228 -602h67q13 0 13 -12v-49q0 -12 -13 -12h-223zM366 617h-7
l-109 -301h228z" />
    <glyph glyph-name="B" unicode="B" horiz-adv-x="674" 
d="M58 0q-12 0 -12 12v49q0 12 12 12h77v572h-77q-12 0 -12 12v49q0 12 12 12h321q100 0 155 -53t55 -139q0 -101 -89 -151q128 -37 128 -170q0 -94 -62.5 -149.5t-185.5 -55.5h-322zM369 404q53 1 91.5 29.5t38.5 85.5q0 68 -40.5 97t-99.5 29h-139v-241h149zM369 73
q79 0 124 34t45 105q0 123 -163 123h-155v-262h149z" />
    <glyph glyph-name="C" unicode="C" horiz-adv-x="748" 
d="M700 181q8 -7 2 -20q-7 -14 -17.5 -29.5t-37.5 -42.5t-59 -46.5t-84.5 -34.5t-112.5 -15q-146 0 -243 102t-97 268q0 165 98.5 263t237.5 98q154 0 224 -107l-1 89q0 12 12 12h55q12 0 12 -12v-218q0 -13 -12 -13h-61q-13 0 -13 13v9q0 47 -62 97.5t-150 50.5
q-46 0 -90 -18t-80 -52t-58 -89.5t-22 -125.5q0 -136 76.5 -212t178.5 -76q53 0 97.5 14t73 37t44.5 41.5t28 38.5q8 15 18 6z" />
    <glyph glyph-name="D" unicode="D" horiz-adv-x="739" 
d="M58 0q-12 0 -12 12v49q0 12 12 12h77v572h-77q-12 0 -12 12v49q0 12 12 12h268q166 0 264 -95.5t98 -262.5t-92.5 -263.5t-251.5 -96.5h-286zM320 73q136 1 207 72.5t71 212.5q0 136 -71.5 211.5t-209.5 75.5h-97v-572h100z" />
    <glyph glyph-name="E" unicode="E" horiz-adv-x="659" 
d="M58 0q-12 0 -12 12v49q0 12 12 12h77v572h-77q-12 0 -12 12v49q0 12 12 12h533q12 0 12 -12v-160q0 -12 -12 -12h-57q-12 0 -12 12v99h-302v-250h253q13 0 13 -12v-49q0 -12 -13 -12h-253v-249h301v98q0 12 13 12h57q12 0 12 -12v-159q0 -12 -12 -12h-533z" />
    <glyph glyph-name="F" unicode="F" horiz-adv-x="610" 
d="M58 0q-12 0 -12 12v49q0 12 12 12h77v572h-77q-12 0 -12 12v49q0 12 12 12h515q13 0 13 -12v-160q0 -12 -13 -12h-57q-12 0 -12 12v99h-284v-250h236q12 0 12 -12v-49q0 -12 -12 -12h-236v-249h113q12 0 12 -12v-49q0 -12 -12 -12h-275z" />
    <glyph glyph-name="G" unicode="G" horiz-adv-x="769" 
d="M639 0q-12 0 -12 12v69q-86 -88 -232 -88q-149 0 -246.5 101.5t-97.5 268.5q0 84 28.5 153.5t76.5 114t108.5 69t126.5 24.5q156 0 220 -95l-1 77q0 12 12 12h55q12 0 12 -12v-206q0 -12 -12 -12h-61q-13 0 -13 12v12q0 45 -60 89t-147 44q-103 0 -179 -79t-76 -206
q0 -133 77.5 -210.5t180.5 -77.5q147 0 221 97v87h-187q-12 0 -12 13v47q0 13 12 13h258q12 0 12 -13v-304q0 -12 -12 -12h-52z" />
    <glyph glyph-name="H" unicode="H" horiz-adv-x="814" 
d="M517 0q-12 0 -12 12v49q0 12 12 12h77v249h-374v-249h77q13 0 13 -12v-49q0 -12 -13 -12h-239q-12 0 -12 12v49q0 12 12 12h77v572h-77q-12 0 -12 12v49q0 12 12 12h239q13 0 13 -12v-49q0 -12 -13 -12h-77v-250h374v250h-77q-12 0 -12 12v49q0 12 12 12h239q12 0 12 -12
v-49q0 -12 -12 -12h-77v-572h77q12 0 12 -12v-49q0 -12 -12 -12h-239z" />
    <glyph glyph-name="I" unicode="I" horiz-adv-x="356" 
d="M58 0q-12 0 -12 12v49q0 12 12 12h77v572h-77q-12 0 -12 12v49q0 12 12 12h239q13 0 13 -12v-49q0 -12 -13 -12h-77v-572h77q13 0 13 -12v-49q0 -12 -13 -12h-239z" />
    <glyph glyph-name="J" unicode="J" horiz-adv-x="445" 
d="M243 645h-77q-12 0 -12 12v49q0 12 12 12h239q13 0 13 -12v-49q0 -12 -13 -12h-77v-374q0 -147 -68.5 -209t-215.5 -62q-12 0 -12 12v49q0 12 12 12q110 0 154.5 45.5t44.5 141.5v385z" />
    <glyph glyph-name="K" unicode="K" horiz-adv-x="732" 
d="M611 0q-37 0 -59 48l-95 191q-9 17 -15 25.5t-27 18.5t-54 10h-141v-220h93q12 0 12 -12v-49q0 -12 -12 -12h-255q-12 0 -12 12v49q0 12 12 12h77v572h-77q-12 0 -12 12v49q0 12 12 12h223q12 0 12 -12v-49q0 -12 -12 -12h-61v-283h105q106 0 157.5 62.5t52.5 220.5h-69
q-12 0 -12 12v49q0 12 12 12h221q13 0 13 -12v-49q0 -12 -13 -12h-68q-1 -244 -137 -317q16 -8 29.5 -22t18.5 -23t19 -35l86 -175h61q13 0 13 -12v-49q0 -12 -13 -12h-85z" />
    <glyph glyph-name="L" unicode="L" horiz-adv-x="639" 
d="M58 0q-12 0 -12 12v49q0 12 12 12h77v572h-77q-12 0 -12 12v49q0 12 12 12h238q14 0 14 -13v-47q0 -13 -14 -13h-76v-572h320v98q0 12 12 12h57q13 0 13 -12v-158q0 -13 -14 -13h-550z" />
    <glyph glyph-name="M" unicode="M" horiz-adv-x="912" 
d="M624 0q-12 0 -12 12v49q0 12 12 12h67v528h-1l-190 -500q-12 -30 -45 -30q-34 0 -46 30l-187 500h-2v-528h67q13 0 13 -12v-49q0 -12 -13 -12h-229q-12 0 -12 12v49q0 12 12 12h77v572h-77q-12 0 -12 12v49q0 12 12 12h171q34 0 47 -34l135 -360l43 -126h4q28 78 46 124
l135 362q15 34 48 34h166q13 0 13 -12v-49q0 -12 -13 -12h-76v-572h76q13 0 13 -12v-49q0 -12 -13 -12h-229z" />
    <glyph glyph-name="N" unicode="N" horiz-adv-x="802" 
d="M615 0q-19 0 -30 7.5t-21 23.5l-292 453q-13 20 -25.5 43t-18.5 36l-6 13h-2v-503h77q13 0 13 -12v-49q0 -12 -13 -12h-239q-12 0 -12 12v49q0 12 12 12h77v570h-77q-12 0 -12 12v51q0 12 12 12h134q30 0 52 -34l289 -446q15 -23 29 -49t21 -41l7 -14h2v511h-77
q-12 0 -12 12v49q0 12 12 12h239q13 0 13 -12v-49q0 -12 -13 -12h-77v-633q0 -12 -12 -12h-50z" />
    <glyph glyph-name="O" unicode="O" horiz-adv-x="795" 
d="M398 -7q-149 0 -248.5 103.5t-99.5 266.5q0 164 102.5 262.5t245.5 98.5t245.5 -98.5t102.5 -262.5q0 -165 -99 -267.5t-249 -102.5zM398 72q103 0 180.5 77.5t77.5 210.5q0 134 -79 209.5t-179 75.5t-179 -75.5t-79 -209.5q0 -133 77.5 -210.5t180.5 -77.5z" />
    <glyph glyph-name="P" unicode="P" horiz-adv-x="633" 
d="M58 0q-12 0 -12 12v49q0 12 12 12h77v572h-77q-12 0 -12 12v49q0 12 12 12h308q105 0 172.5 -61.5t67.5 -165.5q0 -105 -66 -162.5t-186 -57.5h-134v-198h98q12 0 12 -12v-49q0 -12 -12 -12h-260zM346 344q170 0 170 146q0 78 -48 116.5t-121 38.5h-127v-301h126z" />
    <glyph glyph-name="Q" unicode="Q" horiz-adv-x="795" 
d="M734 -75q3 -10 -7 -16q-54 -27 -127 -27q-52 0 -99 12.5t-78 30.5t-53.5 36t-33.5 30.5t-10 12.5q-122 22 -199 119.5t-77 239.5q0 164 102.5 262.5t245.5 98.5t245.5 -98.5t102.5 -262.5q0 -155 -87.5 -255t-223.5 -113q5 -4 20.5 -10.5t56.5 -15t88 -8.5q57 0 103 20
q11 5 15 -4zM398 72q103 0 180.5 77.5t77.5 210.5q0 134 -79 209.5t-179 75.5t-179 -75.5t-79 -209.5q0 -133 77.5 -210.5t180.5 -77.5z" />
    <glyph glyph-name="R" unicode="R" horiz-adv-x="694" 
d="M566 0q-36 0 -60 48l-94 191q-13 27 -26 39t-37 13h-129v-218h92q12 0 12 -12v-49q0 -12 -12 -12h-254q-12 0 -12 12v49q0 12 12 12h77v572h-77q-12 0 -12 12v49q0 12 12 12h309q107 0 174 -56.5t67 -159.5q0 -157 -147 -196q19 -15 47 -67l84 -166h60q13 0 13 -12v-49
q0 -12 -13 -12h-86zM345 360q84 0 128.5 32t44.5 107q0 78 -47.5 112t-125.5 34h-125v-285h125z" />
    <glyph glyph-name="S" unicode="S" horiz-adv-x="669" 
d="M69 0q-13 0 -13 12v231q0 12 13 12h61q12 0 12 -12v-14q0 -6 6.5 -22t23.5 -39.5t40.5 -44t63 -35t85.5 -14.5q81 0 126.5 31.5t45.5 87.5q0 34 -25 58t-65 37.5t-88.5 25.5t-97.5 27.5t-89 37t-65 60t-25 91.5q0 84 63 139t170 55q136 0 197 -79l-1 62q-1 12 12 12h55
q12 0 12 -12v-216q0 -13 -12 -13h-62q-12 0 -12 13v28q0 40 -45.5 82t-134.5 42q-69 0 -110.5 -32t-41.5 -81q0 -34 25 -58.5t65 -39t88.5 -27t97.5 -28t89 -36t65 -57.5t25 -88q0 -88 -62.5 -145.5t-187.5 -57.5q-50 0 -92.5 12.5t-71 33.5t-45.5 39t-29 37l1 -103
q0 -12 -13 -12h-54z" />
    <glyph glyph-name="T" unicode="T" horiz-adv-x="668" 
d="M217 0q-14 0 -14 13v47q0 13 14 13h75v572h-191v-98q0 -14 -13 -14h-55q-14 0 -14 14v158q0 13 14 13h602q13 0 13 -13v-158q0 -14 -13 -14h-55q-13 0 -13 14v98h-190v-572h71q13 0 13 -13v-47q0 -13 -13 -13h-231z" />
    <glyph glyph-name="U" unicode="U" horiz-adv-x="766" 
d="M565 645h-76q-13 0 -13 12v49q0 12 13 12h239q12 0 12 -12v-49q0 -12 -12 -12h-77v-376q0 -136 -69.5 -206t-197.5 -70q-129 0 -199.5 70.5t-70.5 205.5v376h-76q-12 0 -12 12v49q0 12 12 12h239q12 0 12 -12v-49q0 -12 -12 -12h-77v-379q0 -194 184 -194q93 0 137 50.5
t44 137.5v385z" />
    <glyph glyph-name="V" unicode="V" horiz-adv-x="723" 
d="M343 0q-19 0 -29 9t-19 31l-232 605h-65q-12 0 -12 12v49q0 12 12 12h226q12 0 12 -12v-49q0 -12 -12 -12h-69l204 -543h6l203 543h-68q-13 0 -13 12v49q0 12 13 12h225q13 0 13 -12v-49q0 -12 -13 -12h-66l-231 -605q-8 -22 -17.5 -31t-28.5 -9h-39z" />
    <glyph glyph-name="W" unicode="W" horiz-adv-x="999" 
d="M663 0q-37 0 -47 40l-116 509h-3l-114 -509q-10 -40 -48 -40h-37q-35 0 -47 40l-184 605h-63q-13 0 -13 12v49q0 12 13 12h225q13 0 13 -12v-49q0 -12 -13 -12h-70l155 -543h6l139 616h80l140 -616h6l155 543h-70q-13 0 -13 12v49q0 12 13 12h225q13 0 13 -12v-49
q0 -12 -13 -12h-64l-183 -605q-12 -40 -47 -40h-38z" />
    <glyph glyph-name="X" unicode="X" horiz-adv-x="753" 
d="M476 0q-12 0 -12 12v49q0 12 12 12h61l-165 216l-165 -216h65q12 0 12 -12v-49q0 -12 -12 -12h-241q-12 0 -12 12v49q0 12 12 12h77l218 277l-224 295h-70q-12 0 -12 12v49q0 12 12 12h241q12 0 12 -12v-49q0 -12 -12 -12h-69l173 -228l172 229h-65q-12 0 -12 12v49
q0 12 12 12h241q12 0 12 -12v-49q0 -12 -12 -12h-77l-224 -291l215 -282h78q13 0 13 -12v-49q0 -12 -13 -12h-241z" />
    <glyph glyph-name="Y" unicode="Y" horiz-adv-x="648" 
d="M203 0q-12 0 -12 12v49q0 12 12 12h78v214l-209 358h-68q-12 0 -12 12v49q0 12 12 12h230q13 0 13 -12v-49q0 -12 -13 -12h-65l156 -281h4l154 281h-68q-12 0 -12 12v49q0 12 12 12h229q13 0 13 -12v-49q0 -12 -13 -12h-68l-210 -358v-214h79q12 0 12 -12v-49
q0 -12 -12 -12h-242z" />
    <glyph glyph-name="Z" unicode="Z" horiz-adv-x="641" 
d="M62 0q-13 0 -13 13v43q0 11 19 34l415 555h-352v-82q0 -13 -14 -13h-55q-13 0 -13 13v142q0 13 13 13h517q13 0 13 -13v-37q0 -11 -21 -41l-414 -554h353v82q0 13 14 13h55q13 0 13 -13v-142q0 -13 -13 -13h-517z" />
    <glyph glyph-name="bracketleft" unicode="[" horiz-adv-x="355" 
d="M111 -71q-13 0 -13 12v813q0 12 13 12h201q14 0 14 -14v-52q0 -13 -14 -13h-130v-679h130q14 0 14 -14v-52q0 -13 -14 -13h-201z" />
    <glyph glyph-name="backslash" unicode="\" horiz-adv-x="403" 
d="M296 -74q-12 0 -16 12l-242 810q-3 12 9 12h59q13 0 16 -12l242 -810q4 -12 -9 -12h-59z" />
    <glyph glyph-name="bracketright" unicode="]" horiz-adv-x="355" 
d="M43 -71q-14 0 -14 13v52q0 14 14 14h130v679h-130q-14 0 -14 13v52q0 14 14 14h201q13 0 13 -12v-813q0 -12 -13 -12h-201z" />
    <glyph glyph-name="underscore" unicode="_" horiz-adv-x="613" 
d="M81 -100q-13 0 -13 13v51q0 13 13 13h451q13 0 13 -13v-51q0 -13 -13 -13h-451z" />
    <glyph glyph-name="grave" unicode="`" horiz-adv-x="291" 
d="M197 543l-168 134q-9 7 -2 19l32 37q9 11 19 2l161 -142q11 -8 2 -19l-25 -29q-9 -10 -19 -2z" />
    <glyph glyph-name="a" unicode="a" horiz-adv-x="556" 
d="M441 0q-43 0 -43 42v51h-2q-73 -101 -195 -101q-72 0 -118 37.5t-46 101.5q0 158 268 158h84v13q0 127 -130 127q-30 0 -56 -5t-42.5 -12t-28 -14t-17.5 -12t-7 -5q-10 -4 -15 3l-28 35q-7 8 2 16q3 4 9 9.5t23 15.5t37.5 18t54 14.5t71.5 6.5q210 0 210 -200v-232h56
q12 0 12 -12v-43q0 -12 -12 -12h-87zM389 222h-80q-42 0 -73 -3.5t-58 -11.5t-41 -24.5t-14 -40.5q0 -34 27.5 -56t73.5 -22q98 0 165 90v68z" />
    <glyph glyph-name="b" unicode="b" horiz-adv-x="593" 
d="M324 -7q-63 0 -105.5 29.5t-60.5 71.5h-1v-82q0 -12 -12 -12h-54q-13 0 -13 12v639h-53q-12 0 -12 12v43q0 12 12 12h124q12 0 12 -12v-266l-3 -39h3q17 40 59.5 69t104.5 29q101 0 162.5 -69.5t61.5 -180.5q0 -116 -62.5 -186t-162.5 -70zM312 63q68 0 111.5 51
t43.5 134t-44.5 132t-110.5 49q-64 0 -108 -48.5t-44 -133.5q0 -83 43 -133.5t109 -50.5z" />
    <glyph glyph-name="c" unicode="c" horiz-adv-x="554" 
d="M499 116q10 -9 4 -18q-7 -11 -21.5 -26t-40 -34t-66 -32t-86.5 -13q-105 0 -175 69t-70 186q0 116 70 183.5t167 67.5q107 0 159 -74h1v55q-2 13 12 13h38q12 0 12 -13v-170q0 -12 -12 -12h-45q-13 0 -13 12v17q0 36 -40 69t-102 33t-113 -49t-51 -133q0 -85 50.5 -134.5
t116.5 -49.5q57 0 100.5 26.5t58.5 51.5q7 11 18 3z" />
    <glyph glyph-name="d" unicode="d" horiz-adv-x="609" 
d="M481 0q-23 0 -33.5 9.5t-10.5 32.5v56h-1q-16 -42 -60 -73.5t-107 -31.5q-100 0 -162.5 70t-62.5 186q0 111 62.5 180.5t163.5 69.5q62 0 103 -27t59 -66h1q-1 17 -1 28v217h-56q-13 0 -13 12v43q0 12 13 12h127q12 0 12 -12v-639h53q12 0 12 -12v-43q0 -12 -12 -12h-87z
M281 63q66 0 109 50.5t43 133.5q0 85 -44 133.5t-108 48.5q-66 0 -110.5 -49t-44.5 -132t43.5 -134t111.5 -51z" />
    <glyph glyph-name="e" unicode="e" horiz-adv-x="548" 
d="M128 227q4 -80 52.5 -122t113.5 -42q58 0 101.5 26t58.5 51q7 12 17 3l28 -27q9 -9 3 -18q-7 -11 -21 -26t-39.5 -34t-66 -32t-86.5 -13q-105 0 -175 69t-70 186q0 116 70 183.5t165 67.5q109 0 166 -67.5t57 -191.5q0 -13 -13 -13h-361zM421 294q-3 60 -39 97.5
t-100 37.5q-58 0 -100.5 -35t-51.5 -100h291z" />
    <glyph glyph-name="f" unicode="f" horiz-adv-x="351" 
d="M51 0q-12 0 -12 12v43q0 12 12 12h56v358h-58q-12 0 -12 12v43q0 12 12 12h58v62q0 83 42.5 126.5t118.5 43.5q56 0 101 -40q10 -9 2 -17l-23 -31q-10 -8 -18 -2q-19 19 -54 19q-41 0 -63.5 -25.5t-22.5 -74.5v-61h128q12 0 12 -12v-43q0 -12 -12 -12h-128v-358h88
q12 0 12 -12v-43q0 -12 -12 -12h-227z" />
    <glyph glyph-name="g" unicode="g" horiz-adv-x="605" 
d="M274 -234q-27 0 -51.5 3t-43.5 9t-34 12t-27 13.5t-19 12.5t-13 10l-6 6q-11 10 -3 18l26 37q6 9 17 1l5 -4q5 -4 8.5 -7t12 -8.5t16.5 -9.5t20.5 -8.5t25 -7.5t29.5 -5t35 -2q72 0 116 35.5t44 109.5v114q-19 -42 -61 -72t-103 -30q-101 0 -162.5 71t-61.5 183
q0 114 62.5 183t162.5 69q62 0 104.5 -28.5t61.5 -69.5h2l-1 79q0 12 12 12h118q12 0 12 -12v-43q0 -12 -12 -12h-54v-444q0 -106 -65.5 -160.5t-172.5 -54.5zM280 63q66 0 109.5 50t43.5 133q0 85 -43.5 134t-109.5 49q-67 0 -110.5 -50t-43.5 -134q0 -81 43.5 -131.5
t110.5 -50.5z" />
    <glyph glyph-name="h" unicode="h" horiz-adv-x="593" 
d="M464 0q-23 0 -33.5 9.5t-10.5 32.5v263q0 58 -27.5 90t-81.5 32q-21 0 -39.5 -5t-32 -12.5t-24 -17t-17.5 -18.5t-11.5 -16.5t-6.5 -11.5l-2 -5v-274h53q12 0 12 -12v-43q0 -12 -12 -12h-192q-12 0 -12 12v43q0 12 12 12h56v584h-56q-12 0 -12 12v43q0 12 12 12h127
q12 0 12 -12v-223q0 -33 -4 -61h2q50 77 155 77q80 0 126 -47t46 -127v-258h56q13 0 13 -12v-43q0 -12 -13 -12h-95z" />
    <glyph glyph-name="i" unicode="i" horiz-adv-x="284" 
d="M193 642q0 -24 -17.5 -41t-41.5 -17q-25 0 -42 17t-17 41q0 25 17 42.5t42 17.5q24 0 41.5 -17.5t17.5 -42.5zM50 0q-12 0 -12 12v43q0 12 12 12h56v358h-56q-12 0 -12 12v43q0 12 12 12h126q13 0 13 -12v-413h53q12 0 12 -12v-43q0 -12 -12 -12h-192z" />
    <glyph glyph-name="j" unicode="j" horiz-adv-x="260" 
d="M180 642q0 -24 -17.5 -41t-41.5 -17q-25 0 -42 17t-17 41q0 25 17 42.5t42 17.5q24 0 41.5 -17.5t17.5 -42.5zM96 425h-56q-12 0 -12 12v43q0 12 12 12h127q12 0 12 -12v-544q0 -83 -42.5 -126.5t-118.5 -43.5q-56 0 -100 39q-11 10 -2 19l22 30q10 8 19 2q25 -20 53 -20
q41 0 63.5 26t22.5 75v488z" />
    <glyph glyph-name="k" unicode="k" horiz-adv-x="587" 
d="M498 0q-31 0 -53 31l-167 226l-100 -90v-100h53q12 0 12 -12v-43q0 -12 -12 -12h-192q-12 0 -12 12v43q0 12 12 12h56v584h-56q-12 0 -12 12v43q0 12 12 12h127q12 0 12 -12v-448l182 167h-36q-12 0 -12 12v43q0 12 12 12h192q12 0 12 -12v-43q0 -12 -12 -12h-51
l-129 -116l179 -242h44q12 0 12 -12v-43q0 -12 -12 -12h-61z" />
    <glyph glyph-name="l" unicode="l" horiz-adv-x="282" 
d="M44 0q-13 0 -13 12v43q0 12 13 12h56v584h-56q-13 0 -13 12v43q0 12 13 12h111q27 0 27 -25v-626h53q13 0 13 -12v-43q0 -12 -13 -12h-191z" />
    <glyph glyph-name="m" unicode="m" horiz-adv-x="915" 
d="M51 0q-12 0 -12 12v43q0 12 12 12h56v358h-56q-12 0 -12 12v43q0 12 12 12h98q18 0 25.5 -6.5t6.5 -23.5l-1 -50h3q52 87 162 87q109 0 149 -83q57 83 161 83q80 0 125 -47t45 -127v-258h56q12 0 12 -12v-43q0 -12 -12 -12h-95q-23 0 -33.5 9.5t-10.5 32.5v263
q0 58 -28 91t-82 33q-77 0 -123 -71q6 -24 6 -40v-251h56q12 0 12 -12v-43q0 -12 -12 -12h-192q-12 0 -12 12v43q0 12 12 12h53v238q0 58 -27.5 91t-81.5 33q-21 0 -39.5 -5t-32 -12.5t-24 -17.5t-17.5 -19t-11.5 -17t-6.5 -12l-2 -5v-274h48q13 0 13 -12v-43q0 -12 -13 -12
h-187z" />
    <glyph glyph-name="n" unicode="n" horiz-adv-x="605" 
d="M476 0q-23 0 -33.5 9.5t-10.5 32.5v263q0 58 -27.5 91t-81.5 33q-28 0 -52 -9t-38.5 -21.5t-24.5 -25.5t-14 -21.5t-4 -9.5v-275h53q12 0 12 -12v-43q0 -12 -12 -12h-192q-12 0 -12 12v43q0 12 12 12h56v358h-56q-12 0 -12 12v43q0 12 12 12h118q12 0 12 -12l-1 -68h3
q52 87 161 87q80 0 125.5 -47t45.5 -127v-258h56q13 0 13 -12v-43q0 -12 -13 -12h-95z" />
    <glyph glyph-name="o" unicode="o" horiz-adv-x="586" 
d="M293 -7q-109 0 -179 69.5t-70 185.5q0 115 71 183t178 68t178 -68.5t71 -182.5q0 -115 -70 -185t-179 -70zM293 63q70 0 117.5 50.5t47.5 133.5q0 82 -48.5 132t-116.5 50t-116.5 -50t-48.5 -132q0 -83 47.5 -133.5t117.5 -50.5z" />
    <glyph glyph-name="p" unicode="p" horiz-adv-x="606" 
d="M38 -225q-12 0 -12 12v43q0 12 12 12h54v583h-52q-12 0 -12 12v43q0 12 12 12h118q12 0 12 -12l-1 -79h2q18 40 61 69t105 29q101 0 163 -68.5t62 -183.5q0 -112 -61 -183t-163 -71q-62 0 -103.5 28.5t-59.5 69.5h-3q3 -32 3 -46v-203h65q12 0 12 -12v-43q0 -12 -12 -12
h-202zM326 63q67 0 110.5 50.5t43.5 131.5q0 84 -43.5 134t-110.5 50q-63 0 -108 -49t-45 -142q0 -81 45.5 -128t107.5 -47z" />
    <glyph glyph-name="q" unicode="q" horiz-adv-x="593" 
d="M367 -225q-13 0 -13 12v43q0 12 13 12h65v208l3 45h-3q-18 -42 -60 -72t-103 -30q-102 0 -163.5 71t-61.5 183q0 115 62.5 183.5t162.5 68.5q62 0 104.5 -28.5t61.5 -68.5h2l-1 78q0 12 12 12h55q12 0 12 -12v-638h53q12 0 12 -12v-43q0 -12 -12 -12h-201zM281 63
q65 0 108.5 50t43.5 133q0 85 -43.5 134t-108.5 49q-67 0 -111 -50t-44 -133q0 -82 44 -132.5t111 -50.5z" />
    <glyph glyph-name="r" unicode="r" horiz-adv-x="424" 
d="M51 0q-12 0 -12 12v43q0 12 12 12h56v358h-56q-12 0 -12 12v43q0 12 12 12h118q12 0 12 -12v-125h3q1 6 4.5 15t19 33t37 42.5t62.5 33.5t92 15q13 0 13 -13v-53q0 -13 -13 -13h-21q-86 0 -137 -55t-51 -125v-168h53q12 0 12 -12v-43q0 -12 -12 -12h-192z" />
    <glyph glyph-name="s" unicode="s" horiz-adv-x="495" 
d="M268 -7q-47 0 -84.5 15.5t-52 29.5t-21.5 27h-2l2 -52q0 -13 -13 -13h-39q-14 0 -14 13l1 150q0 13 13 13h44q13 0 13 -13v-20q1 -3 3.5 -8.5t14 -19.5t26 -24.5t40.5 -19t58 -8.5q108 0 108 72q0 28 -31 45.5t-75.5 28t-89 24.5t-75.5 45t-31 79q0 65 47.5 103.5
t120.5 38.5q97 0 142 -58h2l-3 37q0 13 14 13h36q13 0 13 -13v-139q0 -13 -14 -13h-43q-13 0 -13 13v14q0 25 -31.5 50.5t-92.5 25.5q-40 0 -68 -18.5t-28 -52.5q0 -30 31.5 -48.5t77 -29.5t90.5 -24.5t76.5 -44t31.5 -77.5q0 -60 -45.5 -100.5t-138.5 -40.5z" />
    <glyph glyph-name="t" unicode="t" horiz-adv-x="360" 
d="M253 -7q-76 0 -118 43t-42 127v262h-57q-14 0 -14 13v41q0 13 14 13h57v101q0 14 13 14h56q14 0 14 -14v-101h126q14 0 14 -13v-41q0 -13 -14 -13h-126v-260q0 -50 22 -76t63 -26q33 0 53 20q10 9 18 -1l24 -31q8 -9 -2 -19q-44 -39 -101 -39z" />
    <glyph glyph-name="u" unicode="u" horiz-adv-x="594" 
d="M467 0q-43 0 -43 42v37h-3q-45 -86 -156 -86q-80 0 -127 47.5t-47 126.5v258h-57q-12 0 -12 12v43q0 12 12 12h96q43 0 43 -42v-263q0 -58 28 -91t82 -33q28 0 52 9t38.5 21t24.5 25.5t14 21.5t4 10v275h-54q-12 0 -12 12v43q0 12 12 12h124q12 0 12 -12v-413h56
q13 0 13 -12v-43q0 -12 -13 -12h-87z" />
    <glyph glyph-name="v" unicode="v" horiz-adv-x="580" 
d="M253 0q-16 0 -22 18l-159 407h-53q-12 0 -12 12v43q0 12 12 12h186q12 0 12 -12v-43q0 -12 -12 -12h-42l125 -337h2l131 337h-45q-12 0 -12 12v43q0 12 12 12h186q12 0 12 -12v-43q0 -12 -12 -12h-56l-160 -407q-6 -18 -23 -18h-70z" />
    <glyph glyph-name="w" unicode="w" horiz-adv-x="803" 
d="M512 0q-21 0 -25 21l-84 335h-3l-86 -335q-4 -21 -25 -21h-57q-16 0 -24 21l-134 404h-53q-12 0 -12 12v43q0 12 12 12h186q13 0 13 -12v-43q0 -12 -13 -12h-45l100 -337h2l88 337h-38q-12 0 -12 12v43q0 12 12 12h175q13 0 13 -12v-43q0 -12 -13 -12h-35l85 -337h2
l100 337h-45q-13 0 -13 12v43q0 12 13 12h186q12 0 12 -12v-43q0 -12 -12 -12h-56l-133 -404q-7 -21 -24 -21h-57z" />
    <glyph glyph-name="x" unicode="x" horiz-adv-x="570" 
d="M342 0q-13 0 -13 12v43q0 12 13 12h48l-112 131l-109 -131h40q13 0 13 -12v-43q0 -12 -13 -12h-168q-13 0 -13 12v43q0 12 13 12h39l157 180l-150 178h-46q-12 0 -12 12v43q0 12 12 12h188q12 0 12 -12v-43q0 -12 -12 -12h-47l113 -134l105 133h-40q-13 0 -13 12v43
q0 12 13 12h168q13 0 13 -12v-43q0 -12 -13 -12h-39l-152 -182l149 -175h43q13 0 13 -12v-43q0 -12 -13 -12h-187z" />
    <glyph glyph-name="y" unicode="y" horiz-adv-x="571" 
d="M264 11h-13q-16 0 -26 25l-153 389h-55q-12 0 -12 12v43q0 12 12 12h181q13 0 13 -12v-43q0 -12 -13 -12h-41l129 -339h2l120 339h-45q-12 0 -12 12v43q0 12 12 12h186q12 0 12 -12v-43q0 -12 -12 -12h-56l-180 -489q-33 -90 -68 -130t-100 -40q-57 0 -101 39
q-10 10 -3 18l25 32q9 7 18 1q25 -20 53 -20q37 0 58.5 22.5t41.5 78.5z" />
    <glyph glyph-name="z" unicode="z" horiz-adv-x="542" 
d="M62 0q-12 0 -12 12v41q0 19 15 34l323 338h-268v-77q0 -12 -12 -12h-46q-12 0 -12 12v132q0 12 12 12h418q12 0 12 -12v-35q0 -19 -15 -32l-328 -346h273v79q0 12 12 12h46q12 0 12 -12v-134q0 -12 -12 -12h-418z" />
    <glyph glyph-name="braceleft" unicode="{" horiz-adv-x="333" 
d="M296 -59q0 -13 -14 -13q-168 0 -168 156v120q0 50 -24.5 82.5t-44.5 32.5q-13 0 -13 14v31q0 13 13 13q21 1 45 33t24 83v114q0 158 168 158q14 0 14 -13v-52q0 -13 -14 -13q-44 0 -64 -20.5t-20 -66.5v-106q0 -25 -6.5 -47.5t-16 -36.5t-19.5 -25t-16 -15l-7 -5v-34
q3 -2 7 -5t15.5 -14.5t20 -25t15.5 -36t7 -47.5v-112q0 -46 20 -65.5t64 -19.5q14 0 14 -13v-52z" />
    <glyph glyph-name="bar" unicode="|" horiz-adv-x="279" 
d="M110 -131q-13 0 -13 12v867q0 12 13 12h59q12 0 12 -12v-867q0 -12 -12 -12h-59z" />
    <glyph glyph-name="braceright" unicode="}" horiz-adv-x="333" 
d="M51 -72q-14 0 -14 13v52q0 13 14 13q44 0 64 19.5t20 65.5v112q0 40 16.5 72t32.5 44l16 12v34q-7 4 -18 13.5t-29 42.5t-18 73v106q0 46 -20 66.5t-64 20.5q-14 0 -14 13v52q0 13 14 13q168 0 168 -158v-114q0 -51 24.5 -83t44.5 -33q14 0 14 -13v-31q0 -14 -14 -14
q-20 0 -44.5 -32.5t-24.5 -82.5v-120q0 -156 -168 -156z" />
    <glyph glyph-name="asciitilde" unicode="~" horiz-adv-x="430" 
d="M363 335q12 0 12 -12q0 -118 -90 -118q-41 0 -80 24t-58 24q-16 0 -23.5 -10t-7.5 -37q0 -12 -12 -12h-37q-12 0 -12 12q0 52 22.5 81t66.5 29q37 0 77 -24t61 -24q18 0 25 12t7 43q0 12 12 12h37z" />
    <glyph glyph-name="exclamdown" unicode="&#xa1;" horiz-adv-x="260" 
d="M78 489q0 22 15.5 37.5t37.5 15.5q23 0 38 -15t15 -38t-15 -38t-38 -15q-22 0 -37.5 15.5t-15.5 37.5zM154 345q13 0 13 -12l9 -588q0 -12 -13 -12h-63q-12 0 -12 12l9 588q0 12 12 12h45z" />
    <glyph glyph-name="cent" unicode="&#xa2;" horiz-adv-x="584" 
d="M271 -13q-12 0 -12 12v54q-90 12 -148 79t-58 173q0 105 59.5 171t146.5 77v71q0 12 12 12h43q13 0 13 -12v-73q90 -13 123 -70h3l-3 56q0 12 12 12h38q13 0 13 -12v-170q0 -12 -13 -12h-45q-12 0 -12 12v17q-1 35 -41 68t-101 33q-62 0 -113 -49t-51 -132
q0 -85 50 -134.5t117 -49.5q57 0 100 26.5t58 51.5q8 10 18 3l29 -29q9 -8 3 -18q-9 -15 -27.5 -34t-62.5 -41.5t-95 -27.5v-52q0 -12 -13 -12h-43z" />
    <glyph glyph-name="sterling" unicode="&#xa3;" horiz-adv-x="631" 
d="M79 0q-13 0 -13 12v48q0 14 11 22q2 1 16 10.5t23.5 17t24.5 22t24.5 28.5t16.5 34.5t7 41.5q0 2 -0.5 8t-0.5 9h-132q-12 0 -12 12v37q0 13 12 13h111q-6 13 -21.5 40.5t-24 45t-16.5 45t-8 54.5q0 103 69 163.5t185 60.5q102 0 162.5 -55.5t60.5 -150.5v-16
q0 -12 -12 -12h-62q-12 0 -12 12v17q0 55 -37.5 91t-99.5 36q-70 0 -116.5 -37.5t-46.5 -114.5q0 -30 12 -59.5t33 -64.5t29 -55h206q12 0 12 -13v-37q0 -12 -12 -12h-190v-10q0 -49 -27 -94t-65 -74h380q12 0 12 -12v-51q0 -12 -12 -12h-487z" />
    <glyph glyph-name="currency" unicode="&#xa4;" horiz-adv-x="642" 
d="M320 93q-88 0 -151 46l-66 -77q-9 -11 -19 -1l-9 8q-11 9 -2 19l66 76q-68 70 -68 184q0 111 67 180l-65 76q-8 10 2 18l9 8q10 10 19 -1l65 -76q64 46 152 46q86 0 152 -47l66 77q9 11 19 1l10 -8q10 -9 1 -18l-66 -78q67 -70 67 -178q0 -112 -68 -183l67 -77
q10 -10 -1 -19l-10 -8q-10 -10 -19 1l-67 77q-63 -46 -151 -46zM320 163q70 0 117.5 50.5t47.5 133.5q0 82 -48.5 132t-116.5 50t-117 -50t-49 -132t48 -133t118 -51z" />
    <glyph glyph-name="yen" unicode="&#xa5;" horiz-adv-x="725" 
d="M319 273v14l-40 68h-126q-12 0 -12 13v32q0 13 12 13h92l-135 232h-68q-12 0 -12 12v49q0 12 12 12h230q13 0 13 -12v-49q0 -12 -13 -12h-65l156 -281h4l154 281h-68q-12 0 -12 12v49q0 12 12 12h229q13 0 13 -12v-49q0 -12 -13 -12h-68l-136 -232h91q12 0 12 -13v-32
q0 -13 -12 -13h-125l-40 -68v-14h123q13 0 13 -13v-32q0 -13 -13 -13h-123v-142h79q12 0 12 -12v-49q0 -12 -12 -12h-242q-12 0 -12 12v49q0 12 12 12h78v142h-125q-13 0 -13 13v32q0 13 13 13h125z" />
    <glyph glyph-name="brokenbar" unicode="&#xa6;" horiz-adv-x="281" 
d="M111 410q-12 0 -12 12v326q0 12 12 12h59q13 0 13 -12v-326q0 -12 -13 -12h-59zM111 -131q-12 0 -12 12v326q0 12 12 12h59q13 0 13 -12v-326q0 -12 -13 -12h-59z" />
    <glyph glyph-name="section" unicode="&#xa7;" horiz-adv-x="679" 
d="M623 196q0 -70 -39 -121q39 -42 39 -104q0 -88 -62.5 -145.5t-187.5 -57.5q-50 0 -92.5 12.5t-71 33.5t-45.5 39t-29 37l1 -103q0 -12 -13 -12h-54q-13 0 -13 12v231q0 12 13 12h61q12 0 12 -12v-14q0 -6 6.5 -22t23.5 -39.5t40.5 -44t63 -35t85.5 -14.5q81 0 126.5 31.5
t45.5 87.5q0 34 -25 58t-65 37.5t-88.5 25.5t-97.5 27.5t-89 37t-65 60t-25 91.5q0 66 39 114q-39 45 -39 111q0 84 63 139t170 55q136 0 197 -79l-1 62q-1 12 12 12h55q12 0 12 -12v-216q0 -13 -12 -13h-62q-12 0 -12 13v28q0 40 -45.5 82t-134.5 42q-69 0 -110.5 -32
t-41.5 -81q0 -34 25 -58.5t65 -39t88.5 -27t97.5 -28t89 -36t65 -57.5t25 -88zM533 193q0 40 -36.5 66.5t-83.5 38.5t-114.5 30.5t-108.5 38.5q-22 -28 -22 -62q0 -33 22 -56.5t61 -38.5t80 -25.5t93 -26t87 -31.5q22 28 22 66z" />
    <glyph glyph-name="dieresis" unicode="&#xa8;" horiz-adv-x="334" 
d="M146 638q0 -23 -16.5 -39.5t-39.5 -16.5t-39 16.5t-16 39.5t16 40t39 17t39.5 -17t16.5 -40zM341 638q0 -23 -16.5 -39.5t-40.5 -16.5q-23 0 -38.5 16.5t-15.5 39.5q0 24 15.5 40.5t38.5 16.5q24 0 40.5 -17t16.5 -40z" />
    <glyph glyph-name="copyright" unicode="&#xa9;" horiz-adv-x="708" 
d="M651 348q0 -121 -88 -209t-209 -88t-209 88t-88 209t88 209t209 88t209 -88t88 -209zM599 348q0 101 -72 172.5t-173 71.5t-172.5 -71.5t-71.5 -172.5t71.5 -172.5t172.5 -71.5t173 71.5t72 172.5zM488 265q8 -6 3 -12q-8 -15 -20.5 -29.5t-45.5 -31.5t-73 -17
q-70 0 -117.5 47.5t-47.5 128.5t47.5 128.5t117.5 47.5q40 0 73 -17t45.5 -31.5t20.5 -29.5q4 -6 -2 -12l-29 -20q-7 -4 -11 2q-29 52 -97 52q-44 0 -75 -30.5t-31 -88.5t31 -89.5t77 -31.5q67 0 95 49q5 8 11 3z" />
    <glyph glyph-name="ordfeminine" unicode="&#xaa;" horiz-adv-x="356" 
d="M138 471q-37 0 -62 20t-25 55q0 73 111 73h59v3q0 31 -11.5 45.5t-47.5 14.5q-13 0 -25 -2t-19.5 -5t-13 -6.5t-8.5 -5.5l-3 -2q-4 -2 -7 2l-16 21q-4 5 0 7q28 33 93 33q105 0 105 -104v-106h28q6 0 6 -5v-28q0 -6 -6 -6h-48q-22 0 -22 21v13h-1q-38 -38 -87 -38z
M150 512q43 0 71 32v43l-57 1q-64 1 -64 -37q0 -18 13.5 -28.5t36.5 -10.5z" />
    <glyph glyph-name="guillemotleft" unicode="&#xab;" horiz-adv-x="556" 
d="M60 213q-13 10 -13 23v22q0 12 13 21l220 153q13 6 13 -5v-44q0 -14 -13 -22l-165 -115l165 -114q13 -10 13 -22v-44q0 -6 -4.5 -7.5t-8.5 2.5zM257 213q-13 10 -13 23v22q0 12 13 21l221 153q13 8 13 -5v-44q0 -13 -13 -22l-165 -115l165 -114q13 -11 13 -22v-44
q0 -6 -4.5 -7.5t-8.5 2.5z" />
    <glyph glyph-name="logicalnot" unicode="&#xac;" horiz-adv-x="633" 
d="M498 141q-12 0 -12 12v171h-403q-14 0 -14 13v43q0 13 14 13h461q13 0 13 -13v-227q0 -12 -12 -12h-47z" />
    <glyph glyph-name="registered" unicode="&#xae;" horiz-adv-x="708" 
d="M651 348q0 -121 -88 -209t-209 -88t-209 88t-88 209t88 209t209 88t209 -88t88 -209zM354 100q103 0 175.5 72.5t72.5 175.5t-72.5 175.5t-175.5 72.5t-175.5 -72.5t-72.5 -175.5t72.5 -175.5t175.5 -72.5zM453 179q-14 0 -25 22l-51 99q-12 22 -26 22h-52v-97h37
q6 0 6 -5v-35q0 -6 -6 -6h-117q-5 0 -5 6v35q0 5 5 5h31v255h-31q-5 0 -5 6v35q0 5 5 5h148q51 0 82.5 -26t31.5 -77q0 -76 -69 -95q1 -1 18 -30l37 -72h32q5 0 5 -5v-36q0 -6 -5 -6h-46zM364 365q67 0 67 57q0 28 -18 43t-49 15h-65v-115h65z" />
    <glyph glyph-name="macron" unicode="&#xaf;" horiz-adv-x="402" 
d="M53 598q-13 0 -13 13v42q0 14 13 14h296q13 0 13 -14v-42q0 -13 -13 -13h-296z" />
    <glyph glyph-name="degree" unicode="&#xb0;" horiz-adv-x="266" 
d="M132 419q-30 0 -50.5 20t-20.5 57q0 32 20.5 53.5t50.5 21.5q31 0 52 -21.5t21 -53.5q0 -37 -21 -57t-52 -20zM132 457q14 0 24.5 10.5t10.5 28.5q0 16 -10 26.5t-25 10.5q-13 0 -23 -10.5t-10 -26.5q0 -18 10 -28.5t23 -10.5z" />
    <glyph glyph-name="plusminus" unicode="&#xb1;" horiz-adv-x="545" 
d="M246 161q-12 0 -12 13v157h-152q-14 0 -14 13v51q0 13 14 13h152v163q0 13 12 13h57q13 0 13 -13v-163h152q14 0 14 -13v-51q0 -13 -14 -13h-152v-157q0 -13 -13 -13h-57zM79 32q-13 0 -13 13v50q0 14 13 14h387q13 0 13 -14v-50q0 -13 -13 -13h-387z" />
    <glyph glyph-name="uni00B2" unicode="&#xb2;" horiz-adv-x="394" 
d="M75 362q-10 0 -10 9v22q1 41 21.5 69t50 43t58.5 28.5t49.5 33t20.5 47.5t-18 43.5t-48 15.5q-77 0 -77 -62q0 -8 -6 -8h-40q-7 0 -7 8q0 47 33 80t97 33q59 0 91.5 -31t32.5 -76q0 -37 -20.5 -64t-50.5 -42.5t-60 -28.5t-52.5 -31t-24.5 -42h163v36q0 8 8 8h35q8 0 8 -8
v-74q0 -9 -10 -9h-244z" />
    <glyph glyph-name="uni00B3" unicode="&#xb3;" horiz-adv-x="358" 
d="M175 359q-15 0 -29 2.5t-24 5.5t-20 8t-16.5 9.5t-13 10.5t-9.5 9.5t-7 7.5l-3 5q-3 5 0 8l26 24q5 5 9 0q37 -40 87 -40q77 0 77 58q0 60 -76 60h-18q-7 0 -7 7v29q0 7 7 7h14q26 0 47 13t21 41q0 22 -16 35.5t-47 13.5q-26 0 -42 -13t-16 -32q0 -8 -7 -8h-38q-7 0 -7 8
q0 43 30.5 69.5t79.5 26.5q59 0 89 -29t30 -66q0 -34 -21 -55t-37 -23q12 -2 26 -9t29 -29t15 -52q0 -46 -37 -74t-96 -28z" />
    <glyph glyph-name="acute" unicode="&#xb4;" horiz-adv-x="301" 
d="M96 542q-10 -7 -19 3l-25 29q-9 11 2 19l161 141q10 10 19 -1l32 -38q7 -10 -2 -19z" />
    <glyph glyph-name="uni00B5" unicode="&#xb5;" horiz-adv-x="601" 
d="M473 0q-43 0 -43 42v37h-3q-45 -86 -156 -86q-55 0 -92 21v-227q0 -12 -12 -12h-58q-12 0 -12 12v638h-57q-12 0 -12 12v43q0 12 12 12h96q43 0 43 -42v-263q0 -58 28 -91t82 -33q28 0 52 9t38.5 21t24.5 25.5t14 21.5t4 10v275h-54q-12 0 -12 12v43q0 12 12 12h124
q12 0 12 -12v-413h56q13 0 13 -12v-43q0 -12 -13 -12h-87z" />
    <glyph glyph-name="paragraph" unicode="&#xb6;" horiz-adv-x="685" 
d="M491 -78q-12 0 -12 12v709h-72v-709q0 -12 -12 -12h-62q-13 0 -13 12v302h-40q-113 0 -179 59t-66 178t65 182t170 63h340q12 0 12 -12v-51q0 -12 -12 -12h-44v-709q0 -12 -12 -12h-63z" />
    <glyph glyph-name="periodcentered" unicode="&#xb7;" horiz-adv-x="230" 
d="M162 290q0 -20 -13.5 -33.5t-33.5 -13.5t-33.5 13.5t-13.5 33.5t13.5 33.5t33.5 13.5q19 0 33 -13.5t14 -33.5z" />
    <glyph glyph-name="cedilla" unicode="&#xb8;" horiz-adv-x="236" 
d="M108 -170q-38 0 -73 23q-8 5 -3 16l13 27q5 10 17 3q26 -13 44 -13q33 0 33 23q0 21 -44 21q-13 0 -17 4t-2 13l23 71l52 -1l-15 -45q71 0 71 -56q0 -39 -27 -62.5t-72 -23.5z" />
    <glyph glyph-name="uni00B9" unicode="&#xb9;" horiz-adv-x="336" 
d="M86 362q-10 0 -10 10v29q0 9 10 9h72v250l-73 -55q-6 -4 -10 1l-21 28q-3 5 3 10l97 74q4 3 13 3h44q8 0 8 -9l1 -302h61q10 0 10 -9v-29q0 -10 -10 -10h-195z" />
    <glyph glyph-name="ordmasculine" unicode="&#xba;" horiz-adv-x="340" 
d="M170 471q-50 0 -85.5 35.5t-35.5 92.5q0 58 35.5 91.5t85.5 33.5t85 -34t35 -91t-35 -92.5t-85 -35.5zM170 513q33 0 55 22.5t22 62.5t-23 62.5t-54 22.5t-54.5 -23t-23.5 -62q0 -40 23 -62.5t55 -22.5z" />
    <glyph glyph-name="guillemotright" unicode="&#xbb;" horiz-adv-x="556" 
d="M78 61q-13 -7 -13 5v44q0 12 13 22l165 114l-165 115q-13 8 -13 22v44q0 6 4.5 7.5t8.5 -2.5l220 -153q14 -9 14 -21v-22q0 -12 -14 -23zM275 61q-13 -8 -13 5v44q0 11 13 22l165 114l-165 115q-13 9 -13 22v44q0 6 4 7.5t9 -2.5l221 -153q13 -9 13 -21v-22
q0 -13 -13 -23z" />
    <glyph glyph-name="onequarter" unicode="&#xbc;" horiz-adv-x="656" 
d="M171 -74q-13 0 -9 12l242 810q3 12 16 12h44q12 0 9 -12l-243 -810q-3 -12 -15 -12h-44zM54 362q-10 0 -10 10v29q0 9 10 9h72v250l-73 -55q-6 -4 -10 1l-21 28q-3 5 3 10l97 74q5 3 13 3h39q8 0 8 -9l1 -302h61q10 0 10 -9v-29q0 -10 -10 -10h-190zM475 0q-6 0 -6 7v35
q0 6 6 6h57v66h-169q-6 0 -6 6v30q0 6 7 16l158 182q9 11 18 11h41q7 0 7 -6v-194h38q7 0 7 -6v-33q0 -6 -7 -6h-38v-66h32q6 0 6 -6v-35q0 -7 -6 -7h-145zM532 289l-119 -134h119v134z" />
    <glyph glyph-name="onehalf" unicode="&#xbd;" horiz-adv-x="701" 
d="M185 -74q-14 0 -9 12l242 810q3 12 16 12h44q12 0 9 -12l-243 -810q-3 -12 -15 -12h-44zM68 362q-10 0 -10 10v29q0 9 10 9h72v250l-73 -55q-6 -4 -10 1l-21 28q-3 5 3 10l97 74q4 3 13 3h39q8 0 8 -9l1 -302h61q10 0 10 -9v-29q0 -10 -10 -10h-190zM407 0q-10 0 -10 9
v22q1 41 21.5 69t50 43t58.5 28.5t49.5 33t20.5 47.5t-18 43.5t-48 15.5q-77 0 -77 -62q0 -8 -6 -8h-40q-7 0 -7 8q0 47 33 80t97 33q59 0 91.5 -31t32.5 -76q0 -37 -20.5 -64t-50.5 -42.5t-60 -28.5t-52.5 -31t-24.5 -42h163v36q0 8 8 8h35q8 0 8 -8v-74q0 -9 -10 -9h-244z
" />
    <glyph glyph-name="threequarters" unicode="&#xbe;" horiz-adv-x="700" 
d="M213 -74q-12 0 -9 12l242 810q4 12 17 12h44q13 0 8 -12l-242 -810q-3 -12 -16 -12h-44zM142 359q-15 0 -29 2.5t-24 5.5t-20 8t-16.5 9.5t-13 10.5t-9.5 9.5t-6 7.5l-4 5q-3 5 0 8l26 24q4 5 9 0q37 -40 87 -40q77 0 77 58q0 60 -76 60h-18q-7 0 -7 7v29q0 7 7 7h14
q26 0 47 13t21 41q0 22 -16 35.5t-47 13.5q-26 0 -42 -13t-16 -32q0 -8 -7 -8h-38q-7 0 -7 8q0 43 30.5 69.5t79.5 26.5q59 0 89 -29t30 -66q0 -34 -21 -55t-37 -23q12 -2 26 -9t29 -29t15 -52q0 -46 -37 -74t-96 -28zM518 0q-6 0 -6 7v35q0 6 6 6h57v66h-169q-6 0 -6 6v30
q0 8 7 16l157 182q9 11 19 11h41q7 0 7 -6v-194h38q7 0 7 -6v-33q0 -6 -7 -6h-38v-66h32q6 0 6 -6v-35q0 -7 -6 -7h-145zM575 289l-120 -134h120v134z" />
    <glyph glyph-name="questiondown" unicode="&#xbf;" horiz-adv-x="519" 
d="M228 446q0 23 16.5 39.5t39.5 16.5q24 0 40 -16.5t16 -39.5t-16 -39.5t-40 -16.5q-23 0 -39.5 16.5t-16.5 39.5zM317 320q12 0 12 -12q0 -63 -21 -112.5t-51.5 -79.5t-61 -56.5t-51.5 -57.5t-21 -67q0 -58 36 -94t99 -36q74 0 109 45.5t36 120.5q0 12 12 12h62
q12 0 12 -12q0 -48 -11.5 -89.5t-37 -77.5t-72 -57t-110.5 -21q-106 0 -165.5 58.5t-59.5 147.5q0 51 22 92t53.5 68.5t62.5 55.5t53 68.5t22 91.5q0 12 13 12h58z" />
    <glyph glyph-name="Agrave" unicode="&#xc0;" horiz-adv-x="719" 
d="M420 780l-175 125q-8 7 -3 19l30 39q9 11 19 3l168 -133q12 -8 3 -19l-23 -31q-9 -10 -19 -3zM499 0q-13 0 -13 12v49q0 12 13 12h69l-63 170h-283l-63 -170h70q13 0 13 -12v-49q0 -12 -13 -12h-223q-12 0 -12 12v49q0 12 12 12h68l215 572h-55q-13 0 -13 12v49
q0 12 13 12h134q24 0 37 -10t22 -33l228 -602h67q13 0 13 -12v-49q0 -12 -13 -12h-223zM366 617h-7l-109 -301h228z" />
    <glyph glyph-name="Aacute" unicode="&#xc1;" horiz-adv-x="719" 
d="M282 768q-11 -7 -18 6l-22 31q-9 11 3 19l176 123q10 8 19 -3l28 -42q5 -10 -5 -19zM499 0q-13 0 -13 12v49q0 12 13 12h69l-63 170h-283l-63 -170h70q13 0 13 -12v-49q0 -12 -13 -12h-223q-12 0 -12 12v49q0 12 12 12h68l215 572h-55q-13 0 -13 12v49q0 12 13 12h134
q24 0 37 -10t22 -33l228 -602h67q13 0 13 -12v-49q0 -12 -13 -12h-223zM366 617h-7l-109 -301h228z" />
    <glyph glyph-name="Acircumflex" unicode="&#xc2;" horiz-adv-x="719" 
d="M496 772q-8 -10 -19 -2l-123 95l-123 -95q-9 -8 -19 2l-24 29q-9 11 2 19l155 126q4 4 9 4q6 0 10 -5l155 -125q11 -8 2 -19zM499 0q-13 0 -13 12v49q0 12 13 12h69l-63 170h-283l-63 -170h70q13 0 13 -12v-49q0 -12 -13 -12h-223q-12 0 -12 12v49q0 12 12 12h68l215 572
h-55q-13 0 -13 12v49q0 12 13 12h134q24 0 37 -10t22 -33l228 -602h67q13 0 13 -12v-49q0 -12 -13 -12h-223zM366 617h-7l-109 -301h228z" />
    <glyph glyph-name="Atilde" unicode="&#xc3;" horiz-adv-x="719" 
d="M502 935q12 0 12 -12q0 -118 -90 -118q-40 0 -78 23.5t-57 23.5q-34 0 -34 -46q0 -12 -12 -12h-37q-12 0 -12 12q0 52 22.5 81t66.5 29q37 0 77 -23.5t61 -23.5q32 0 32 54q0 12 12 12h37zM499 0q-13 0 -13 12v49q0 12 13 12h69l-63 170h-283l-63 -170h70q13 0 13 -12
v-49q0 -12 -13 -12h-223q-12 0 -12 12v49q0 12 12 12h68l215 572h-55q-13 0 -13 12v49q0 12 13 12h134q24 0 37 -10t22 -33l228 -602h67q13 0 13 -12v-49q0 -12 -13 -12h-223zM366 617h-7l-109 -301h228z" />
    <glyph glyph-name="Adieresis" unicode="&#xc4;" horiz-adv-x="719" 
d="M308 858q0 -22 -16 -38t-38 -16q-23 0 -39 15.5t-16 38.5t16 39.5t39 16.5q22 0 38 -16.5t16 -39.5zM510 858q0 -22 -16.5 -38t-39.5 -16t-38.5 15.5t-15.5 38.5t15.5 39.5t38.5 16.5t39.5 -16.5t16.5 -39.5zM499 0q-13 0 -13 12v49q0 12 13 12h69l-63 170h-283l-63 -170
h70q13 0 13 -12v-49q0 -12 -13 -12h-223q-12 0 -12 12v49q0 12 12 12h68l215 572h-55q-13 0 -13 12v49q0 12 13 12h134q24 0 37 -10t22 -33l228 -602h67q13 0 13 -12v-49q0 -12 -13 -12h-223zM366 617h-7l-109 -301h228z" />
    <glyph glyph-name="Aring" unicode="&#xc5;" horiz-adv-x="719" 
d="M354 761q-38 0 -66.5 28.5t-28.5 67.5q0 38 28.5 66t66.5 28q39 0 67 -28t28 -66q0 -39 -28 -67.5t-67 -28.5zM354 819q15 0 25.5 10.5t10.5 27.5q0 16 -10.5 26.5t-25.5 10.5q-14 0 -24.5 -10.5t-10.5 -26.5q0 -17 10.5 -27.5t24.5 -10.5zM499 0q-13 0 -13 12v49
q0 12 13 12h69l-63 170h-283l-63 -170h70q13 0 13 -12v-49q0 -12 -13 -12h-223q-12 0 -12 12v49q0 12 12 12h68l215 572h-55q-13 0 -13 12v49q0 12 13 12h134q24 0 37 -10t22 -33l228 -602h67q13 0 13 -12v-49q0 -12 -13 -12h-223zM366 617h-7l-109 -301h228z" />
    <glyph glyph-name="AE" unicode="&#xc6;" horiz-adv-x="987" 
d="M390 0q-12 0 -12 12v49q0 12 12 12h77v249h-208l-105 -249h70q12 0 12 -12v-49q0 -12 -12 -12h-224q-12 0 -12 12v49q0 12 12 12h68l242 572h-55q-12 0 -12 12v49q0 12 12 12h664q12 0 12 -12v-160q0 -12 -12 -12h-53q-12 0 -12 12v99h-302v-250h253q13 0 13 -12v-49
q0 -12 -13 -12h-253v-249h301v98q0 12 13 12h53q12 0 12 -12v-159q0 -12 -12 -12h-529zM467 645h-71l-107 -250h178v250z" />
    <glyph glyph-name="Ccedilla" unicode="&#xc7;" horiz-adv-x="748" 
d="M700 181q8 -7 2 -20q-7 -13 -16.5 -27.5t-33 -39t-52 -44t-74 -36t-98.5 -20.5l-7 -22q71 0 71 -56q0 -39 -27 -62.5t-72 -23.5q-39 0 -73 23q-8 5 -3 16l13 27q5 10 17 3q26 -13 44 -13q33 0 33 23q0 21 -44 21q-13 0 -17 4t-2 13l15 46q-140 6 -232.5 107t-92.5 263
q0 165 98.5 263t237.5 98q154 0 224 -107l-1 89q0 12 12 12h55q12 0 12 -12v-218q0 -13 -12 -13h-61q-13 0 -13 13v9q0 47 -62 97.5t-150 50.5q-46 0 -90 -18t-80 -52t-58 -89.5t-22 -125.5q0 -136 76.5 -212t178.5 -76q53 0 97.5 14t73 37t44.5 41.5t28 38.5q8 15 18 6z
" />
    <glyph glyph-name="Egrave" unicode="&#xc8;" horiz-adv-x="659" 
d="M398 780l-175 125q-8 7 -3 19l30 39q9 11 19 3l168 -133q12 -8 3 -19l-23 -31q-9 -10 -19 -3zM58 0q-12 0 -12 12v49q0 12 12 12h77v572h-77q-12 0 -12 12v49q0 12 12 12h533q12 0 12 -12v-160q0 -12 -12 -12h-57q-12 0 -12 12v99h-302v-250h253q13 0 13 -12v-49
q0 -12 -13 -12h-253v-249h301v98q0 12 13 12h57q12 0 12 -12v-159q0 -12 -12 -12h-533z" />
    <glyph glyph-name="Eacute" unicode="&#xc9;" horiz-adv-x="659" 
d="M260 768q-11 -7 -18 6l-22 31q-9 11 3 19l176 123q10 8 19 -3l28 -42q5 -10 -5 -19zM58 0q-12 0 -12 12v49q0 12 12 12h77v572h-77q-12 0 -12 12v49q0 12 12 12h533q12 0 12 -12v-160q0 -12 -12 -12h-57q-12 0 -12 12v99h-302v-250h253q13 0 13 -12v-49q0 -12 -13 -12
h-253v-249h301v98q0 12 13 12h57q12 0 12 -12v-159q0 -12 -12 -12h-533z" />
    <glyph glyph-name="Ecircumflex" unicode="&#xca;" horiz-adv-x="659" 
d="M474 772q-8 -10 -19 -2l-123 95l-123 -95q-9 -8 -19 2l-24 29q-9 11 2 19l155 126q4 4 9 4q6 0 10 -5l155 -125q11 -8 2 -19zM58 0q-12 0 -12 12v49q0 12 12 12h77v572h-77q-12 0 -12 12v49q0 12 12 12h533q12 0 12 -12v-160q0 -12 -12 -12h-57q-12 0 -12 12v99h-302
v-250h253q13 0 13 -12v-49q0 -12 -13 -12h-253v-249h301v98q0 12 13 12h57q12 0 12 -12v-159q0 -12 -12 -12h-533z" />
    <glyph glyph-name="Edieresis" unicode="&#xcb;" horiz-adv-x="659" 
d="M286 858q0 -22 -16 -38t-38 -16q-23 0 -39 15.5t-16 38.5t16 39.5t39 16.5q22 0 38 -16.5t16 -39.5zM488 858q0 -22 -16.5 -38t-39.5 -16t-38.5 15.5t-15.5 38.5t15.5 39.5t38.5 16.5t39.5 -16.5t16.5 -39.5zM58 0q-12 0 -12 12v49q0 12 12 12h77v572h-77q-12 0 -12 12
v49q0 12 12 12h533q12 0 12 -12v-160q0 -12 -12 -12h-57q-12 0 -12 12v99h-302v-250h253q13 0 13 -12v-49q0 -12 -13 -12h-253v-249h301v98q0 12 13 12h57q12 0 12 -12v-159q0 -12 -12 -12h-533z" />
    <glyph glyph-name="Igrave" unicode="&#xcc;" horiz-adv-x="356" 
d="M244 780l-175 125q-8 7 -3 19l30 39q9 11 19 3l168 -133q12 -8 3 -19l-23 -31q-9 -10 -19 -3zM58 0q-12 0 -12 12v49q0 12 12 12h77v572h-77q-12 0 -12 12v49q0 12 12 12h239q13 0 13 -12v-49q0 -12 -13 -12h-77v-572h77q13 0 13 -12v-49q0 -12 -13 -12h-239z" />
    <glyph glyph-name="Iacute" unicode="&#xcd;" horiz-adv-x="356" 
d="M106 768q-11 -7 -18 6l-22 31q-9 11 3 19l176 123q10 8 19 -3l28 -42q5 -10 -5 -19zM58 0q-12 0 -12 12v49q0 12 12 12h77v572h-77q-12 0 -12 12v49q0 12 12 12h239q13 0 13 -12v-49q0 -12 -13 -12h-77v-572h77q13 0 13 -12v-49q0 -12 -13 -12h-239z" />
    <glyph glyph-name="Icircumflex" unicode="&#xce;" horiz-adv-x="356" 
d="M320 772q-8 -10 -19 -2l-123 95l-123 -95q-9 -8 -19 2l-24 29q-9 11 2 19l155 126q4 4 9 4q6 0 10 -5l155 -125q11 -8 2 -19zM58 0q-12 0 -12 12v49q0 12 12 12h77v572h-77q-12 0 -12 12v49q0 12 12 12h239q13 0 13 -12v-49q0 -12 -13 -12h-77v-572h77q13 0 13 -12v-49
q0 -12 -13 -12h-239z" />
    <glyph glyph-name="Idieresis" unicode="&#xcf;" horiz-adv-x="356" 
d="M132 858q0 -22 -16 -38t-38 -16q-23 0 -39 15.5t-16 38.5t16 39.5t39 16.5q22 0 38 -16.5t16 -39.5zM334 858q0 -22 -16.5 -38t-39.5 -16t-38.5 15.5t-15.5 38.5t15.5 39.5t38.5 16.5t39.5 -16.5t16.5 -39.5zM58 0q-12 0 -12 12v49q0 12 12 12h77v572h-77q-12 0 -12 12
v49q0 12 12 12h239q13 0 13 -12v-49q0 -12 -13 -12h-77v-572h77q13 0 13 -12v-49q0 -12 -13 -12h-239z" />
    <glyph glyph-name="Eth" unicode="&#xd0;" horiz-adv-x="739" 
d="M326 718q166 0 264 -95.5t98 -262.5t-92.5 -263.5t-251.5 -96.5h-286q-12 0 -12 12v49q0 12 12 12h77v252h-81q-13 0 -13 14v42q0 13 13 13h81v251h-77q-12 0 -12 12v49q0 12 12 12h268zM320 73q136 1 207 72.5t71 212.5q0 136 -71.5 211.5t-209.5 75.5h-97v-251h104
q14 0 14 -13v-42q0 -14 -14 -14h-104v-252h100z" />
    <glyph glyph-name="Ntilde" unicode="&#xd1;" horiz-adv-x="802" 
d="M556 935q12 0 12 -12q0 -118 -90 -118q-40 0 -78 23.5t-57 23.5q-34 0 -34 -46q0 -12 -12 -12h-37q-12 0 -12 12q0 52 22.5 81t66.5 29q37 0 77 -23.5t61 -23.5q32 0 32 54q0 12 12 12h37zM615 0q-19 0 -30 7.5t-21 23.5l-292 453q-13 20 -25.5 43t-18.5 36l-6 13h-2
v-503h77q13 0 13 -12v-49q0 -12 -13 -12h-239q-12 0 -12 12v49q0 12 12 12h77v570h-77q-12 0 -12 12v51q0 12 12 12h134q30 0 52 -34l289 -446q15 -23 29 -49t21 -41l7 -14h2v511h-77q-12 0 -12 12v49q0 12 12 12h239q13 0 13 -12v-49q0 -12 -13 -12h-77v-633q0 -12 -12 -12
h-50z" />
    <glyph glyph-name="Ograve" unicode="&#xd2;" horiz-adv-x="795" 
d="M464 780l-175 125q-8 7 -3 19l30 39q9 11 19 3l168 -133q12 -8 3 -19l-23 -31q-9 -10 -19 -3zM398 -7q-149 0 -248.5 103.5t-99.5 266.5q0 164 102.5 262.5t245.5 98.5t245.5 -98.5t102.5 -262.5q0 -165 -99 -267.5t-249 -102.5zM398 72q103 0 180.5 77.5t77.5 210.5
q0 134 -79 209.5t-179 75.5t-179 -75.5t-79 -209.5q0 -133 77.5 -210.5t180.5 -77.5z" />
    <glyph glyph-name="Oacute" unicode="&#xd3;" horiz-adv-x="795" 
d="M326 768q-11 -7 -18 6l-22 31q-9 11 3 19l176 123q10 8 19 -3l28 -42q5 -10 -5 -19zM398 -7q-149 0 -248.5 103.5t-99.5 266.5q0 164 102.5 262.5t245.5 98.5t245.5 -98.5t102.5 -262.5q0 -165 -99 -267.5t-249 -102.5zM398 72q103 0 180.5 77.5t77.5 210.5
q0 134 -79 209.5t-179 75.5t-179 -75.5t-79 -209.5q0 -133 77.5 -210.5t180.5 -77.5z" />
    <glyph glyph-name="Ocircumflex" unicode="&#xd4;" horiz-adv-x="795" 
d="M540 772q-8 -10 -19 -2l-123 95l-123 -95q-9 -8 -19 2l-24 29q-9 11 2 19l155 126q4 4 9 4q6 0 10 -5l155 -125q11 -8 2 -19zM398 -7q-149 0 -248.5 103.5t-99.5 266.5q0 164 102.5 262.5t245.5 98.5t245.5 -98.5t102.5 -262.5q0 -165 -99 -267.5t-249 -102.5zM398 72
q103 0 180.5 77.5t77.5 210.5q0 134 -79 209.5t-179 75.5t-179 -75.5t-79 -209.5q0 -133 77.5 -210.5t180.5 -77.5z" />
    <glyph glyph-name="Otilde" unicode="&#xd5;" horiz-adv-x="795" 
d="M546 935q12 0 12 -12q0 -118 -90 -118q-40 0 -78 23.5t-57 23.5q-34 0 -34 -46q0 -12 -12 -12h-37q-12 0 -12 12q0 52 22.5 81t66.5 29q37 0 77 -23.5t61 -23.5q32 0 32 54q0 12 12 12h37zM398 -7q-149 0 -248.5 103.5t-99.5 266.5q0 164 102.5 262.5t245.5 98.5
t245.5 -98.5t102.5 -262.5q0 -165 -99 -267.5t-249 -102.5zM398 72q103 0 180.5 77.5t77.5 210.5q0 134 -79 209.5t-179 75.5t-179 -75.5t-79 -209.5q0 -133 77.5 -210.5t180.5 -77.5z" />
    <glyph glyph-name="Odieresis" unicode="&#xd6;" horiz-adv-x="795" 
d="M352 858q0 -22 -16 -38t-38 -16q-23 0 -39 15.5t-16 38.5t16 39.5t39 16.5q22 0 38 -16.5t16 -39.5zM554 858q0 -22 -16.5 -38t-39.5 -16t-38.5 15.5t-15.5 38.5t15.5 39.5t38.5 16.5t39.5 -16.5t16.5 -39.5zM398 -7q-149 0 -248.5 103.5t-99.5 266.5q0 164 102.5 262.5
t245.5 98.5t245.5 -98.5t102.5 -262.5q0 -165 -99 -267.5t-249 -102.5zM398 72q103 0 180.5 77.5t77.5 210.5q0 134 -79 209.5t-179 75.5t-179 -75.5t-79 -209.5q0 -133 77.5 -210.5t180.5 -77.5z" />
    <glyph glyph-name="multiply" unicode="&#xd7;" horiz-adv-x="473" 
d="M367 120q-9 -9 -18 0l-110 110l-109 -110q-9 -8 -18 0l-38 40q-10 10 0 18l108 109l-110 110q-8 9 0 19l37 37q10 8 19 -1l110 -110l102 103q9 9 18 0l39 -39q9 -9 0 -17l-102 -103l109 -110q9 -11 0 -18z" />
    <glyph glyph-name="Oslash" unicode="&#xd8;" horiz-adv-x="795" 
d="M531 699q96 -38 155.5 -125.5t59.5 -210.5q0 -165 -99 -267.5t-249 -102.5q-38 0 -76 8l-14 -46q-3 -13 -15 -13h-38q-12 0 -9 13l19 63q-98 40 -156.5 131t-58.5 214q0 164 102.5 262.5t245.5 98.5q36 0 76 -8l14 48q4 12 17 12h37q12 0 8 -12zM140 360q0 -95 41 -162.5
t108 -99.5l162 541q-27 6 -53 6q-100 0 -179 -75.5t-79 -209.5zM398 72q103 0 180.5 77.5t77.5 210.5q0 95 -41.5 161t-107.5 99l-162 -542q26 -6 53 -6z" />
    <glyph glyph-name="Ugrave" unicode="&#xd9;" horiz-adv-x="766" 
d="M449 780l-175 125q-8 7 -3 19l30 39q9 11 19 3l168 -133q12 -8 3 -19l-23 -31q-9 -10 -19 -3zM565 645h-76q-13 0 -13 12v49q0 12 13 12h239q12 0 12 -12v-49q0 -12 -12 -12h-77v-376q0 -136 -69.5 -206t-197.5 -70q-129 0 -199.5 70.5t-70.5 205.5v376h-76q-12 0 -12 12
v49q0 12 12 12h239q12 0 12 -12v-49q0 -12 -12 -12h-77v-379q0 -194 184 -194q93 0 137 50.5t44 137.5v385z" />
    <glyph glyph-name="Uacute" unicode="&#xda;" horiz-adv-x="766" 
d="M311 768q-11 -7 -18 6l-22 31q-9 11 3 19l176 123q10 8 19 -3l28 -42q5 -10 -5 -19zM565 645h-76q-13 0 -13 12v49q0 12 13 12h239q12 0 12 -12v-49q0 -12 -12 -12h-77v-376q0 -136 -69.5 -206t-197.5 -70q-129 0 -199.5 70.5t-70.5 205.5v376h-76q-12 0 -12 12v49
q0 12 12 12h239q12 0 12 -12v-49q0 -12 -12 -12h-77v-379q0 -194 184 -194q93 0 137 50.5t44 137.5v385z" />
    <glyph glyph-name="Ucircumflex" unicode="&#xdb;" horiz-adv-x="766" 
d="M525 772q-8 -10 -19 -2l-123 95l-123 -95q-9 -8 -19 2l-24 29q-9 11 2 19l155 126q4 4 9 4q6 0 10 -5l155 -125q11 -8 2 -19zM565 645h-76q-13 0 -13 12v49q0 12 13 12h239q12 0 12 -12v-49q0 -12 -12 -12h-77v-376q0 -136 -69.5 -206t-197.5 -70q-129 0 -199.5 70.5
t-70.5 205.5v376h-76q-12 0 -12 12v49q0 12 12 12h239q12 0 12 -12v-49q0 -12 -12 -12h-77v-379q0 -194 184 -194q93 0 137 50.5t44 137.5v385z" />
    <glyph glyph-name="Udieresis" unicode="&#xdc;" horiz-adv-x="766" 
d="M337 858q0 -22 -15.5 -38t-38.5 -16t-39 15.5t-16 38.5t16 39.5t39 16.5q22 0 38 -16.5t16 -39.5zM539 858q0 -22 -16.5 -38t-39.5 -16t-38.5 15.5t-15.5 38.5t15.5 39.5t38.5 16.5t39.5 -16.5t16.5 -39.5zM565 645h-76q-13 0 -13 12v49q0 12 13 12h239q12 0 12 -12v-49
q0 -12 -12 -12h-77v-376q0 -136 -69.5 -206t-197.5 -70q-129 0 -199.5 70.5t-70.5 205.5v376h-76q-12 0 -12 12v49q0 12 12 12h239q12 0 12 -12v-49q0 -12 -12 -12h-77v-379q0 -194 184 -194q93 0 137 50.5t44 137.5v385z" />
    <glyph glyph-name="Yacute" unicode="&#xdd;" horiz-adv-x="648" 
d="M261 768q-11 -7 -18 6l-22 31q-9 11 3 19l176 123q10 8 19 -3l28 -42q5 -10 -5 -19zM203 0q-12 0 -12 12v49q0 12 12 12h78v214l-209 358h-68q-12 0 -12 12v49q0 12 12 12h230q13 0 13 -12v-49q0 -12 -13 -12h-65l156 -281h4l154 281h-68q-12 0 -12 12v49q0 12 12 12h229
q13 0 13 -12v-49q0 -12 -13 -12h-68l-210 -358v-214h79q12 0 12 -12v-49q0 -12 -12 -12h-242z" />
    <glyph glyph-name="Thorn" unicode="&#xde;" horiz-adv-x="630" 
d="M61 0q-12 0 -12 12v45q0 12 12 12h71v580h-69q-12 0 -12 12v45q0 12 12 12h138q13 0 13 -12v-122h142q108 0 174.5 -56t66.5 -159t-64.5 -156.5t-187.5 -53.5h-134v-90h95q12 0 12 -12v-45q0 -12 -12 -12h-245zM353 228q157 0 157 141q0 73 -44.5 107.5t-112.5 34.5h-141
v-283h141z" />
    <glyph glyph-name="germandbls" unicode="&#xdf;" horiz-adv-x="609" 
d="M39 0q-12 0 -12 12v45q0 12 12 12h58v418q0 111 64.5 176.5t161.5 65.5q85 0 133.5 -45.5t48.5 -106.5q0 -39 -14 -66.5t-34 -42t-40.5 -26t-34.5 -26.5t-14 -36q0 -28 23.5 -49t56.5 -36t66 -33t56.5 -50.5t23.5 -77.5q0 -67 -46.5 -106.5t-126.5 -39.5q-37 0 -67.5 11
t-47.5 24.5t-31 32.5t-18.5 29t-7.5 19q-6 11 6 17l37 19q12 6 17 -6l3 -4q2 -5 4.5 -10t7.5 -12.5t11 -14t15 -13.5t19 -12t23.5 -8t28.5 -3q40 0 62.5 19.5t22.5 52.5q0 29 -23 50t-55.5 36t-65 32.5t-55.5 48.5t-23 74q0 35 14 59.5t34 38t40.5 26t34.5 31t14 45.5
q0 34 -28.5 59t-73.5 25q-62 0 -100 -42t-38 -125v-418h40q12 0 12 -12v-45q0 -12 -12 -12h-182z" />
    <glyph glyph-name="agrave" unicode="&#xe0;" horiz-adv-x="556" 
d="M308 543l-168 134q-9 7 -2 19l32 37q9 11 19 2l161 -142q11 -8 2 -19l-25 -29q-9 -10 -19 -2zM441 0q-43 0 -43 42v51h-2q-73 -101 -195 -101q-72 0 -118 37.5t-46 101.5q0 158 268 158h84v13q0 127 -130 127q-30 0 -56 -5t-42.5 -12t-28 -14t-17.5 -12t-7 -5
q-10 -4 -15 3l-28 35q-7 8 2 16q3 4 9 9.5t23 15.5t37.5 18t54 14.5t71.5 6.5q210 0 210 -200v-232h56q12 0 12 -12v-43q0 -12 -12 -12h-87zM389 222h-80q-42 0 -73 -3.5t-58 -11.5t-41 -24.5t-14 -40.5q0 -34 27.5 -56t73.5 -22q98 0 165 90v68z" />
    <glyph glyph-name="aacute" unicode="&#xe1;" horiz-adv-x="556" 
d="M222 542q-10 -7 -19 3l-25 29q-9 11 2 19l161 141q10 10 19 -1l32 -38q7 -10 -2 -19zM441 0q-43 0 -43 42v51h-2q-73 -101 -195 -101q-72 0 -118 37.5t-46 101.5q0 158 268 158h84v13q0 127 -130 127q-30 0 -56 -5t-42.5 -12t-28 -14t-17.5 -12t-7 -5q-10 -4 -15 3
l-28 35q-7 8 2 16q3 4 9 9.5t23 15.5t37.5 18t54 14.5t71.5 6.5q210 0 210 -200v-232h56q12 0 12 -12v-43q0 -12 -12 -12h-87zM389 222h-80q-42 0 -73 -3.5t-58 -11.5t-41 -24.5t-14 -40.5q0 -34 27.5 -56t73.5 -22q98 0 165 90v68z" />
    <glyph glyph-name="acircumflex" unicode="&#xe2;" horiz-adv-x="556" 
d="M406 549q-8 -10 -19 -2l-123 105l-123 -105q-9 -8 -19 2l-24 29q-9 11 2 19l155 136q4 4 9 4q6 0 10 -5l155 -135q10 -10 2 -19zM441 0q-43 0 -43 42v51h-2q-73 -101 -195 -101q-72 0 -118 37.5t-46 101.5q0 158 268 158h84v13q0 127 -130 127q-30 0 -56 -5t-42.5 -12
t-28 -14t-17.5 -12t-7 -5q-10 -4 -15 3l-28 35q-7 8 2 16q3 4 9 9.5t23 15.5t37.5 18t54 14.5t71.5 6.5q210 0 210 -200v-232h56q12 0 12 -12v-43q0 -12 -12 -12h-87zM389 222h-80q-42 0 -73 -3.5t-58 -11.5t-41 -24.5t-14 -40.5q0 -34 27.5 -56t73.5 -22q98 0 165 90v68z
" />
    <glyph glyph-name="atilde" unicode="&#xe3;" horiz-adv-x="556" 
d="M411 706q12 0 12 -12q0 -120 -90 -120q-41 0 -80 24.5t-58 24.5q-16 0 -23.5 -10t-7.5 -36q0 -12 -12 -12h-37q-12 0 -12 12q0 53 22.5 82.5t66.5 29.5q37 0 77 -24.5t61 -24.5q18 0 25 12t7 42q0 12 12 12h37zM441 0q-43 0 -43 42v51h-2q-73 -101 -195 -101
q-72 0 -118 37.5t-46 101.5q0 158 268 158h84v13q0 127 -130 127q-30 0 -56 -5t-42.5 -12t-28 -14t-17.5 -12t-7 -5q-10 -4 -15 3l-28 35q-7 8 2 16q3 4 9 9.5t23 15.5t37.5 18t54 14.5t71.5 6.5q210 0 210 -200v-232h56q12 0 12 -12v-43q0 -12 -12 -12h-87zM389 222h-80
q-42 0 -73 -3.5t-58 -11.5t-41 -24.5t-14 -40.5q0 -34 27.5 -56t73.5 -22q98 0 165 90v68z" />
    <glyph glyph-name="adieresis" unicode="&#xe4;" horiz-adv-x="556" 
d="M222 638q0 -23 -16.5 -39.5t-39.5 -16.5t-39 16.5t-16 39.5t16 40t39 17t39.5 -17t16.5 -40zM417 638q0 -23 -16.5 -39.5t-40.5 -16.5q-23 0 -38.5 16.5t-15.5 39.5q0 24 15.5 40.5t38.5 16.5q24 0 40.5 -17t16.5 -40zM441 0q-43 0 -43 42v51h-2q-73 -101 -195 -101
q-72 0 -118 37.5t-46 101.5q0 158 268 158h84v13q0 127 -130 127q-30 0 -56 -5t-42.5 -12t-28 -14t-17.5 -12t-7 -5q-10 -4 -15 3l-28 35q-7 8 2 16q3 4 9 9.5t23 15.5t37.5 18t54 14.5t71.5 6.5q210 0 210 -200v-232h56q12 0 12 -12v-43q0 -12 -12 -12h-87zM389 222h-80
q-42 0 -73 -3.5t-58 -11.5t-41 -24.5t-14 -40.5q0 -34 27.5 -56t73.5 -22q98 0 165 90v68z" />
    <glyph glyph-name="aring" unicode="&#xe5;" horiz-adv-x="556" 
d="M264 554q-38 0 -66.5 28.5t-28.5 67.5q0 38 28.5 66t66.5 28q39 0 67 -28t28 -66q0 -39 -28 -67.5t-67 -28.5zM264 612q15 0 25.5 10.5t10.5 27.5q0 16 -10.5 26.5t-25.5 10.5q-14 0 -24.5 -10.5t-10.5 -26.5q0 -17 10.5 -27.5t24.5 -10.5zM441 0q-43 0 -43 42v51h-2
q-73 -101 -195 -101q-72 0 -118 37.5t-46 101.5q0 158 268 158h84v13q0 127 -130 127q-30 0 -56 -5t-42.5 -12t-28 -14t-17.5 -12t-7 -5q-10 -4 -15 3l-28 35q-7 8 2 16q3 4 9 9.5t23 15.5t37.5 18t54 14.5t71.5 6.5q210 0 210 -200v-232h56q12 0 12 -12v-43q0 -12 -12 -12
h-87zM389 222h-80q-42 0 -73 -3.5t-58 -11.5t-41 -24.5t-14 -40.5q0 -34 27.5 -56t73.5 -22q98 0 165 90v68z" />
    <glyph glyph-name="ae" unicode="&#xe6;" horiz-adv-x="888" 
d="M199 -8q-72 0 -118 37.5t-46 101.5q0 158 268 158h84v14q0 126 -130 126q-30 0 -56 -5t-42.5 -12t-28 -14t-17.5 -12t-7 -5q-10 -4 -15 3l-28 35q-7 8 2 16q3 4 9 9.5t23 15.5t37.5 18t54 14.5t71.5 6.5q137 0 180 -88q33 42 81.5 65t101.5 23q109 0 166 -67.5t57 -191.5
q0 -13 -13 -13h-361q4 -80 52.5 -122t113.5 -42q58 0 101.5 26t58.5 51q7 12 17 3l28 -27q9 -9 3 -18q-7 -11 -21 -26t-39.5 -34t-66 -32t-86.5 -13q-69 0 -125 31t-87 87q-31 -46 -86 -82.5t-136 -36.5zM474 294h291q-3 60 -39 97.5t-100 37.5q-58 0 -100.5 -35t-51.5 -100
zM224 63q27 0 52 7.5t42 18.5t32 24.5t23 24.5t15 20l6 9q-7 23 -7 55h-79q-42 0 -73.5 -3.5t-58.5 -12t-41 -24.5t-14 -40q0 -34 28.5 -56.5t74.5 -22.5z" />
    <glyph glyph-name="ccedilla" unicode="&#xe7;" horiz-adv-x="554" 
d="M499 116q10 -9 4 -18q-7 -11 -20.5 -25t-38 -33t-62.5 -32t-81 -15l-7 -21q71 0 71 -56q0 -39 -27 -62.5t-72 -23.5q-38 0 -73 23q-8 5 -3 16l13 27q5 10 17 3q26 -13 44 -13q33 0 33 23q0 21 -44 21q-13 0 -17 4t-2 13l16 49q-91 12 -148.5 79.5t-57.5 172.5
q0 116 70 183.5t167 67.5q107 0 159 -74h1v55q-2 13 12 13h38q12 0 12 -13v-170q0 -12 -12 -12h-45q-13 0 -13 12v17q0 36 -40 69t-102 33t-113 -49t-51 -133q0 -85 50.5 -134.5t116.5 -49.5q57 0 100.5 26.5t58.5 51.5q7 11 18 3z" />
    <glyph glyph-name="egrave" unicode="&#xe8;" horiz-adv-x="548" 
d="M318 543l-168 134q-9 7 -2 19l32 37q9 11 19 2l161 -142q11 -8 2 -19l-25 -29q-9 -10 -19 -2zM128 227q4 -80 52.5 -122t113.5 -42q58 0 101.5 26t58.5 51q7 12 17 3l28 -27q9 -9 3 -18q-7 -11 -21 -26t-39.5 -34t-66 -32t-86.5 -13q-105 0 -175 69t-70 186
q0 116 70 183.5t165 67.5q109 0 166 -67.5t57 -191.5q0 -13 -13 -13h-361zM421 294q-3 60 -39 97.5t-100 37.5q-58 0 -100.5 -35t-51.5 -100h291z" />
    <glyph glyph-name="eacute" unicode="&#xe9;" horiz-adv-x="548" 
d="M232 542q-10 -7 -19 3l-25 29q-9 11 2 19l161 141q10 10 19 -1l32 -38q7 -10 -2 -19zM128 227q4 -80 52.5 -122t113.5 -42q58 0 101.5 26t58.5 51q7 12 17 3l28 -27q9 -9 3 -18q-7 -11 -21 -26t-39.5 -34t-66 -32t-86.5 -13q-105 0 -175 69t-70 186q0 116 70 183.5
t165 67.5q109 0 166 -67.5t57 -191.5q0 -13 -13 -13h-361zM421 294q-3 60 -39 97.5t-100 37.5q-58 0 -100.5 -35t-51.5 -100h291z" />
    <glyph glyph-name="ecircumflex" unicode="&#xea;" horiz-adv-x="548" 
d="M416 549q-8 -10 -19 -2l-123 105l-123 -105q-9 -8 -19 2l-24 29q-9 11 2 19l155 136q4 4 9 4q6 0 10 -5l155 -135q10 -10 2 -19zM128 227q4 -80 52.5 -122t113.5 -42q58 0 101.5 26t58.5 51q7 12 17 3l28 -27q9 -9 3 -18q-7 -11 -21 -26t-39.5 -34t-66 -32t-86.5 -13
q-105 0 -175 69t-70 186q0 116 70 183.5t165 67.5q109 0 166 -67.5t57 -191.5q0 -13 -13 -13h-361zM421 294q-3 60 -39 97.5t-100 37.5q-58 0 -100.5 -35t-51.5 -100h291z" />
    <glyph glyph-name="edieresis" unicode="&#xeb;" horiz-adv-x="548" 
d="M232 638q0 -23 -16.5 -39.5t-39.5 -16.5t-39 16.5t-16 39.5t16 40t39 17t39.5 -17t16.5 -40zM427 638q0 -23 -16.5 -39.5t-40.5 -16.5q-23 0 -38.5 16.5t-15.5 39.5q0 24 15.5 40.5t38.5 16.5q24 0 40.5 -17t16.5 -40zM128 227q4 -80 52.5 -122t113.5 -42q58 0 101.5 26
t58.5 51q7 12 17 3l28 -27q9 -9 3 -18q-7 -11 -21 -26t-39.5 -34t-66 -32t-86.5 -13q-105 0 -175 69t-70 186q0 116 70 183.5t165 67.5q109 0 166 -67.5t57 -191.5q0 -13 -13 -13h-361zM421 294q-3 60 -39 97.5t-100 37.5q-58 0 -100.5 -35t-51.5 -100h291z" />
    <glyph glyph-name="igrave" unicode="&#xec;" horiz-adv-x="284" 
d="M178 543l-168 134q-9 7 -2 19l32 37q9 11 19 2l161 -142q11 -8 2 -19l-25 -29q-9 -10 -19 -2zM50 0q-12 0 -12 12v43q0 12 12 12h56v358h-56q-12 0 -12 12v43q0 12 12 12h126q13 0 13 -12v-413h53q12 0 12 -12v-43q0 -12 -12 -12h-192z" />
    <glyph glyph-name="iacute" unicode="&#xed;" horiz-adv-x="284" 
d="M92 542q-10 -7 -19 3l-25 29q-9 11 2 19l161 141q10 10 19 -1l32 -38q7 -10 -2 -19zM50 0q-12 0 -12 12v43q0 12 12 12h56v358h-56q-12 0 -12 12v43q0 12 12 12h126q13 0 13 -12v-413h53q12 0 12 -12v-43q0 -12 -12 -12h-192z" />
    <glyph glyph-name="icircumflex" unicode="&#xee;" horiz-adv-x="284" 
d="M276 549q-8 -10 -19 -2l-123 105l-123 -105q-9 -8 -19 2l-24 29q-9 11 2 19l155 136q4 4 9 4q6 0 10 -5l155 -135q10 -10 2 -19zM50 0q-12 0 -12 12v43q0 12 12 12h56v358h-56q-12 0 -12 12v43q0 12 12 12h126q13 0 13 -12v-413h53q12 0 12 -12v-43q0 -12 -12 -12h-192z
" />
    <glyph glyph-name="idieresis" unicode="&#xef;" horiz-adv-x="284" 
d="M92 638q0 -23 -16.5 -39.5t-39.5 -16.5t-39 16.5t-16 39.5t16 40t39 17t39.5 -17t16.5 -40zM287 638q0 -23 -16.5 -39.5t-40.5 -16.5q-23 0 -38.5 16.5t-15.5 39.5q0 24 15.5 40.5t38.5 16.5q24 0 40.5 -17t16.5 -40zM50 0q-12 0 -12 12v43q0 12 12 12h56v358h-56
q-12 0 -12 12v43q0 12 12 12h126q13 0 13 -12v-413h53q12 0 12 -12v-43q0 -12 -12 -12h-192z" />
    <glyph glyph-name="eth" unicode="&#xf0;" horiz-adv-x="618" 
d="M486 639q84 -97 84 -286q0 -166 -70 -263t-201 -97q-116 0 -185 67t-69 171q0 102 64.5 162.5t185.5 60.5q112 0 187 -49q-9 116 -53 177l-50 -50q-9 -10 -19 0l-20 20q-9 9 0 19l50 50q-43 30 -100 30q-68 0 -99.5 -27t-31.5 -62q0 -12 -12 -12h-54q-12 0 -12 12
q0 71 57 116.5t151 45.5q92 0 157 -48l46 45q9 11 18 0l19 -19q9 -10 0 -19zM298 66q90 0 136.5 69.5t49.5 201.5q-74 53 -178 53q-82 0 -129.5 -45t-47.5 -117t45.5 -117t123.5 -45z" />
    <glyph glyph-name="ntilde" unicode="&#xf1;" horiz-adv-x="605" 
d="M458 706q12 0 12 -12q0 -120 -90 -120q-41 0 -80 24.5t-58 24.5q-16 0 -23.5 -10t-7.5 -36q0 -12 -12 -12h-37q-12 0 -12 12q0 53 22.5 82.5t66.5 29.5q37 0 77 -24.5t61 -24.5q18 0 25 12t7 42q0 12 12 12h37zM476 0q-23 0 -33.5 9.5t-10.5 32.5v263q0 58 -27.5 91
t-81.5 33q-28 0 -52 -9t-38.5 -21.5t-24.5 -25.5t-14 -21.5t-4 -9.5v-275h53q12 0 12 -12v-43q0 -12 -12 -12h-192q-12 0 -12 12v43q0 12 12 12h56v358h-56q-12 0 -12 12v43q0 12 12 12h118q12 0 12 -12l-1 -68h3q52 87 161 87q80 0 125.5 -47t45.5 -127v-258h56
q13 0 13 -12v-43q0 -12 -13 -12h-95z" />
    <glyph glyph-name="ograve" unicode="&#xf2;" horiz-adv-x="586" 
d="M337 543l-168 134q-9 7 -2 19l32 37q9 11 19 2l161 -142q11 -8 2 -19l-25 -29q-9 -10 -19 -2zM293 -7q-109 0 -179 69.5t-70 185.5q0 115 71 183t178 68t178 -68.5t71 -182.5q0 -115 -70 -185t-179 -70zM293 63q70 0 117.5 50.5t47.5 133.5q0 82 -48.5 132t-116.5 50
t-116.5 -50t-48.5 -132q0 -83 47.5 -133.5t117.5 -50.5z" />
    <glyph glyph-name="oacute" unicode="&#xf3;" horiz-adv-x="586" 
d="M251 542q-10 -7 -19 3l-25 29q-9 11 2 19l161 141q10 10 19 -1l32 -38q7 -10 -2 -19zM293 -7q-109 0 -179 69.5t-70 185.5q0 115 71 183t178 68t178 -68.5t71 -182.5q0 -115 -70 -185t-179 -70zM293 63q70 0 117.5 50.5t47.5 133.5q0 82 -48.5 132t-116.5 50t-116.5 -50
t-48.5 -132q0 -83 47.5 -133.5t117.5 -50.5z" />
    <glyph glyph-name="ocircumflex" unicode="&#xf4;" horiz-adv-x="586" 
d="M435 549q-8 -10 -19 -2l-123 105l-123 -105q-9 -8 -19 2l-24 29q-9 11 2 19l155 136q4 4 9 4q6 0 10 -5l155 -135q10 -10 2 -19zM293 -7q-109 0 -179 69.5t-70 185.5q0 115 71 183t178 68t178 -68.5t71 -182.5q0 -115 -70 -185t-179 -70zM293 63q70 0 117.5 50.5
t47.5 133.5q0 82 -48.5 132t-116.5 50t-116.5 -50t-48.5 -132q0 -83 47.5 -133.5t117.5 -50.5z" />
    <glyph glyph-name="otilde" unicode="&#xf5;" horiz-adv-x="586" 
d="M440 706q12 0 12 -12q0 -120 -90 -120q-41 0 -80 24.5t-58 24.5q-16 0 -23.5 -10t-7.5 -36q0 -12 -12 -12h-37q-12 0 -12 12q0 53 22.5 82.5t66.5 29.5q37 0 77 -24.5t61 -24.5q18 0 25 12t7 42q0 12 12 12h37zM293 -7q-109 0 -179 69.5t-70 185.5q0 115 71 183t178 68
t178 -68.5t71 -182.5q0 -115 -70 -185t-179 -70zM293 63q70 0 117.5 50.5t47.5 133.5q0 82 -48.5 132t-116.5 50t-116.5 -50t-48.5 -132q0 -83 47.5 -133.5t117.5 -50.5z" />
    <glyph glyph-name="odieresis" unicode="&#xf6;" horiz-adv-x="586" 
d="M251 638q0 -23 -16.5 -39.5t-39.5 -16.5t-39 16.5t-16 39.5t16 40t39 17t39.5 -17t16.5 -40zM446 638q0 -23 -16.5 -39.5t-40.5 -16.5q-23 0 -38.5 16.5t-15.5 39.5q0 24 15.5 40.5t38.5 16.5q24 0 40.5 -17t16.5 -40zM293 -7q-109 0 -179 69.5t-70 185.5q0 115 71 183
t178 68t178 -68.5t71 -182.5q0 -115 -70 -185t-179 -70zM293 63q70 0 117.5 50.5t47.5 133.5q0 82 -48.5 132t-116.5 50t-116.5 -50t-48.5 -132q0 -83 47.5 -133.5t117.5 -50.5z" />
    <glyph glyph-name="divide" unicode="&#xf7;" horiz-adv-x="469" 
d="M283 415q0 -19 -13.5 -33t-33.5 -14t-34 13.5t-14 33.5t14 34t34 14q19 0 33 -14t14 -34zM79 239q-14 0 -14 14v50q0 14 14 14h311q13 0 13 -14v-50q0 -14 -13 -14h-311zM283 144q0 -20 -13.5 -33.5t-33.5 -13.5t-34 13.5t-14 33.5t14 34t34 14t33.5 -14t13.5 -34z" />
    <glyph glyph-name="oslash" unicode="&#xf8;" horiz-adv-x="586" 
d="M429 463q53 -32 83 -87.5t30 -127.5q0 -115 -70 -185t-179 -70q-48 0 -94 16l-11 -21q-6 -12 -15 -12h-27q-6 0 -9 3.5t0 8.5l21 41q-54 31 -84 88t-30 131q0 115 71 183t178 68q48 0 94 -16l10 19q5 13 17 13h27q13 0 8 -13zM128 247q0 -97 65 -149l161 319
q-28 12 -61 12q-68 0 -116.5 -50t-48.5 -132zM293 63q70 0 117.5 50.5t47.5 133.5q0 95 -64 147l-162 -319q28 -12 61 -12z" />
    <glyph glyph-name="ugrave" unicode="&#xf9;" horiz-adv-x="594" 
d="M330 543l-168 134q-9 7 -2 19l32 37q9 11 19 2l161 -142q11 -8 2 -19l-25 -29q-9 -10 -19 -2zM467 0q-43 0 -43 42v37h-3q-45 -86 -156 -86q-80 0 -127 47.5t-47 126.5v258h-57q-12 0 -12 12v43q0 12 12 12h96q43 0 43 -42v-263q0 -58 28 -91t82 -33q28 0 52 9t38.5 21
t24.5 25.5t14 21.5t4 10v275h-54q-12 0 -12 12v43q0 12 12 12h124q12 0 12 -12v-413h56q13 0 13 -12v-43q0 -12 -13 -12h-87z" />
    <glyph glyph-name="uacute" unicode="&#xfa;" horiz-adv-x="594" 
d="M244 542q-10 -7 -19 3l-25 29q-9 11 2 19l161 141q10 10 19 -1l32 -38q7 -10 -2 -19zM467 0q-43 0 -43 42v37h-3q-45 -86 -156 -86q-80 0 -127 47.5t-47 126.5v258h-57q-12 0 -12 12v43q0 12 12 12h96q43 0 43 -42v-263q0 -58 28 -91t82 -33q28 0 52 9t38.5 21t24.5 25.5
t14 21.5t4 10v275h-54q-12 0 -12 12v43q0 12 12 12h124q12 0 12 -12v-413h56q13 0 13 -12v-43q0 -12 -13 -12h-87z" />
    <glyph glyph-name="ucircumflex" unicode="&#xfb;" horiz-adv-x="594" 
d="M428 549q-8 -10 -19 -2l-123 105l-123 -105q-9 -8 -19 2l-24 29q-9 11 2 19l155 136q4 4 9 4q6 0 10 -5l155 -135q10 -10 2 -19zM467 0q-43 0 -43 42v37h-3q-45 -86 -156 -86q-80 0 -127 47.5t-47 126.5v258h-57q-12 0 -12 12v43q0 12 12 12h96q43 0 43 -42v-263
q0 -58 28 -91t82 -33q28 0 52 9t38.5 21t24.5 25.5t14 21.5t4 10v275h-54q-12 0 -12 12v43q0 12 12 12h124q12 0 12 -12v-413h56q13 0 13 -12v-43q0 -12 -13 -12h-87z" />
    <glyph glyph-name="udieresis" unicode="&#xfc;" horiz-adv-x="594" 
d="M244 638q0 -23 -16.5 -39.5t-39.5 -16.5t-39 16.5t-16 39.5t16 40t39 17t39.5 -17t16.5 -40zM439 638q0 -23 -16.5 -39.5t-40.5 -16.5q-23 0 -38.5 16.5t-15.5 39.5q0 24 15.5 40.5t38.5 16.5q24 0 40.5 -17t16.5 -40zM467 0q-43 0 -43 42v37h-3q-45 -86 -156 -86
q-80 0 -127 47.5t-47 126.5v258h-57q-12 0 -12 12v43q0 12 12 12h96q43 0 43 -42v-263q0 -58 28 -91t82 -33q28 0 52 9t38.5 21t24.5 25.5t14 21.5t4 10v275h-54q-12 0 -12 12v43q0 12 12 12h124q12 0 12 -12v-413h56q13 0 13 -12v-43q0 -12 -13 -12h-87z" />
    <glyph glyph-name="yacute" unicode="&#xfd;" horiz-adv-x="571" 
d="M256 542q-10 -7 -19 3l-25 29q-9 11 2 19l161 141q10 10 19 -1l32 -38q7 -10 -2 -19zM264 11h-13q-16 0 -26 25l-153 389h-55q-12 0 -12 12v43q0 12 12 12h181q13 0 13 -12v-43q0 -12 -13 -12h-41l129 -339h2l120 339h-45q-12 0 -12 12v43q0 12 12 12h186q12 0 12 -12
v-43q0 -12 -12 -12h-56l-180 -489q-33 -90 -68 -130t-100 -40q-57 0 -101 39q-10 10 -3 18l25 32q9 7 18 1q25 -20 53 -20q37 0 58.5 22.5t41.5 78.5z" />
    <glyph glyph-name="thorn" unicode="&#xfe;" horiz-adv-x="594" 
d="M26 -226q-13 0 -13 13v42q0 13 13 13h56v808h-54q-13 0 -13 12v43q0 12 13 12h124q13 0 13 -12v-298q47 92 160 92q100 0 162.5 -69t62.5 -183q0 -112 -61.5 -183t-163.5 -71q-62 0 -103.5 28.5t-59.5 69.5h-2q2 -22 2 -36v-213h65q13 0 13 -13v-42q0 -13 -13 -13h-201z
M313 63q67 0 111 50.5t44 131.5q0 84 -44 134t-111 50q-65 0 -108.5 -49t-43.5 -134q0 -83 43 -133t109 -50z" />
    <glyph glyph-name="ydieresis" unicode="&#xff;" horiz-adv-x="571" 
d="M256 638q0 -23 -16.5 -39.5t-39.5 -16.5t-39 16.5t-16 39.5t16 40t39 17t39.5 -17t16.5 -40zM451 638q0 -23 -16.5 -39.5t-40.5 -16.5q-23 0 -38.5 16.5t-15.5 39.5q0 24 15.5 40.5t38.5 16.5q24 0 40.5 -17t16.5 -40zM264 11h-13q-16 0 -26 25l-153 389h-55
q-12 0 -12 12v43q0 12 12 12h181q13 0 13 -12v-43q0 -12 -13 -12h-41l129 -339h2l120 339h-45q-12 0 -12 12v43q0 12 12 12h186q12 0 12 -12v-43q0 -12 -12 -12h-56l-180 -489q-33 -90 -68 -130t-100 -40q-57 0 -101 39q-10 10 -3 18l25 32q9 7 18 1q25 -20 53 -20
q37 0 58.5 22.5t41.5 78.5z" />
    <glyph glyph-name="Amacron" unicode="&#x100;" horiz-adv-x="719" 
d="M206 808q-13 0 -13 13v42q0 14 13 14h296q13 0 13 -14v-42q0 -13 -13 -13h-296zM499 0q-13 0 -13 12v49q0 12 13 12h69l-63 170h-283l-63 -170h70q13 0 13 -12v-49q0 -12 -13 -12h-223q-12 0 -12 12v49q0 12 12 12h68l215 572h-55q-13 0 -13 12v49q0 12 13 12h134
q24 0 37 -10t22 -33l228 -602h67q13 0 13 -12v-49q0 -12 -13 -12h-223zM366 617h-7l-109 -301h228z" />
    <glyph glyph-name="amacron" unicode="&#x101;" horiz-adv-x="556" 
d="M116 598q-13 0 -13 13v42q0 14 13 14h296q13 0 13 -14v-42q0 -13 -13 -13h-296zM441 0q-43 0 -43 42v51h-2q-73 -101 -195 -101q-72 0 -118 37.5t-46 101.5q0 158 268 158h84v13q0 127 -130 127q-30 0 -56 -5t-42.5 -12t-28 -14t-17.5 -12t-7 -5q-10 -4 -15 3l-28 35
q-7 8 2 16q3 4 9 9.5t23 15.5t37.5 18t54 14.5t71.5 6.5q210 0 210 -200v-232h56q12 0 12 -12v-43q0 -12 -12 -12h-87zM389 222h-80q-42 0 -73 -3.5t-58 -11.5t-41 -24.5t-14 -40.5q0 -34 27.5 -56t73.5 -22q98 0 165 90v68z" />
    <glyph glyph-name="Abreve" unicode="&#x102;" horiz-adv-x="719" 
d="M481 934q13 0 13 -13q0 -67 -39 -103t-102 -36q-62 0 -100.5 36t-38.5 103q0 13 13 13h42q13 0 13 -13q0 -37 20.5 -57.5t50.5 -20.5q31 0 52 20.5t21 57.5q0 13 13 13h42zM499 0q-13 0 -13 12v49q0 12 13 12h69l-63 170h-283l-63 -170h70q13 0 13 -12v-49q0 -12 -13 -12
h-223q-12 0 -12 12v49q0 12 12 12h68l215 572h-55q-13 0 -13 12v49q0 12 13 12h134q24 0 37 -10t22 -33l228 -602h67q13 0 13 -12v-49q0 -12 -13 -12h-223zM366 617h-7l-109 -301h228z" />
    <glyph glyph-name="abreve" unicode="&#x103;" horiz-adv-x="556" 
d="M392 714q13 0 13 -13q0 -67 -39 -103t-102 -36q-62 0 -100.5 36t-38.5 103q0 13 13 13h42q13 0 13 -13q0 -37 20.5 -57.5t50.5 -20.5q31 0 52 20.5t21 57.5q0 13 13 13h42zM441 0q-43 0 -43 42v51h-2q-73 -101 -195 -101q-72 0 -118 37.5t-46 101.5q0 158 268 158h84v13
q0 127 -130 127q-30 0 -56 -5t-42.5 -12t-28 -14t-17.5 -12t-7 -5q-10 -4 -15 3l-28 35q-7 8 2 16q3 4 9 9.5t23 15.5t37.5 18t54 14.5t71.5 6.5q210 0 210 -200v-232h56q12 0 12 -12v-43q0 -12 -12 -12h-87zM389 222h-80q-42 0 -73 -3.5t-58 -11.5t-41 -24.5t-14 -40.5
q0 -34 27.5 -56t73.5 -22q98 0 165 90v68z" />
    <glyph glyph-name="Aogonek" unicode="&#x104;" horiz-adv-x="719" 
d="M722 73q13 0 13 -12v-49q0 -12 -13 -12h-73q-68 -34 -68 -75q0 -16 8 -24.5t20 -8.5q18 0 36 10q13 7 18 -1l14 -25q6 -10 -4 -17q-35 -23 -74 -23q-38 0 -60.5 20t-22.5 54q0 61 77 90h-94q-13 0 -13 12v49q0 12 13 12h69l-63 170h-283l-63 -170h70q13 0 13 -12v-49
q0 -12 -13 -12h-223q-12 0 -12 12v49q0 12 12 12h68l215 572h-55q-13 0 -13 12v49q0 12 13 12h134q24 0 37 -10t22 -33l228 -602h67zM250 316h228l-112 301h-7z" />
    <glyph glyph-name="aogonek" unicode="&#x105;" horiz-adv-x="556" 
d="M508 0q-68 -34 -68 -75q0 -16 8 -24.5t20 -8.5q18 0 36 10q13 7 18 -1l14 -25q6 -10 -4 -17q-35 -23 -74 -23q-38 0 -60.5 20t-22.5 54q0 61 77 90h-11q-43 0 -43 42v51h-2q-73 -101 -195 -101q-72 0 -118 37.5t-46 101.5q0 158 268 158h84v13q0 127 -130 127
q-30 0 -56 -5t-42.5 -12t-28 -14t-17.5 -12t-7 -5q-10 -4 -15 3l-28 35q-7 8 2 16q3 4 9 9.5t23 15.5t37.5 18t54 14.5t71.5 6.5q210 0 210 -200v-232h56q12 0 12 -12v-43q0 -12 -12 -12h-20zM389 154v68h-80q-42 0 -73 -3.5t-58 -11.5t-41 -24.5t-14 -40.5q0 -34 27.5 -56
t73.5 -22q98 0 165 90z" />
    <glyph glyph-name="Cacute" unicode="&#x106;" horiz-adv-x="748" 
d="M317 768q-11 -7 -18 6l-22 31q-9 11 3 19l176 123q10 8 19 -3l28 -42q5 -10 -5 -19zM700 181q8 -7 2 -20q-7 -14 -17.5 -29.5t-37.5 -42.5t-59 -46.5t-84.5 -34.5t-112.5 -15q-146 0 -243 102t-97 268q0 165 98.5 263t237.5 98q154 0 224 -107l-1 89q0 12 12 12h55
q12 0 12 -12v-218q0 -13 -12 -13h-61q-13 0 -13 13v9q0 47 -62 97.5t-150 50.5q-46 0 -90 -18t-80 -52t-58 -89.5t-22 -125.5q0 -136 76.5 -212t178.5 -76q53 0 97.5 14t73 37t44.5 41.5t28 38.5q8 15 18 6z" />
    <glyph glyph-name="cacute" unicode="&#x107;" horiz-adv-x="554" 
d="M244 542q-10 -7 -19 3l-25 29q-9 11 2 19l161 141q10 10 19 -1l32 -38q7 -10 -2 -19zM499 116q10 -9 4 -18q-7 -11 -21.5 -26t-40 -34t-66 -32t-86.5 -13q-105 0 -175 69t-70 186q0 116 70 183.5t167 67.5q107 0 159 -74h1v55q-2 13 12 13h38q12 0 12 -13v-170
q0 -12 -12 -12h-45q-13 0 -13 12v17q0 36 -40 69t-102 33t-113 -49t-51 -133q0 -85 50.5 -134.5t116.5 -49.5q57 0 100.5 26.5t58.5 51.5q7 11 18 3z" />
    <glyph glyph-name="Ccircumflex" unicode="&#x108;" horiz-adv-x="748" 
d="M531 772q-8 -10 -19 -2l-123 95l-123 -95q-9 -8 -19 2l-24 29q-9 11 2 19l155 126q4 4 9 4q6 0 10 -5l155 -125q11 -8 2 -19zM700 181q8 -7 2 -20q-7 -14 -17.5 -29.5t-37.5 -42.5t-59 -46.5t-84.5 -34.5t-112.5 -15q-146 0 -243 102t-97 268q0 165 98.5 263t237.5 98
q154 0 224 -107l-1 89q0 12 12 12h55q12 0 12 -12v-218q0 -13 -12 -13h-61q-13 0 -13 13v9q0 47 -62 97.5t-150 50.5q-46 0 -90 -18t-80 -52t-58 -89.5t-22 -125.5q0 -136 76.5 -212t178.5 -76q53 0 97.5 14t73 37t44.5 41.5t28 38.5q8 15 18 6z" />
    <glyph glyph-name="ccircumflex" unicode="&#x109;" horiz-adv-x="554" 
d="M428 549q-8 -10 -19 -2l-123 105l-123 -105q-9 -8 -19 2l-24 29q-9 11 2 19l155 136q4 4 9 4q6 0 10 -5l155 -135q10 -10 2 -19zM499 116q10 -9 4 -18q-7 -11 -21.5 -26t-40 -34t-66 -32t-86.5 -13q-105 0 -175 69t-70 186q0 116 70 183.5t167 67.5q107 0 159 -74h1v55
q-2 13 12 13h38q12 0 12 -13v-170q0 -12 -12 -12h-45q-13 0 -13 12v17q0 36 -40 69t-102 33t-113 -49t-51 -133q0 -85 50.5 -134.5t116.5 -49.5q57 0 100.5 26.5t58.5 51.5q7 11 18 3z" />
    <glyph glyph-name="Cdotaccent" unicode="&#x10a;" horiz-adv-x="748" 
d="M448 850q0 -24 -17.5 -41t-41.5 -17q-25 0 -42 17t-17 41q0 25 17 42.5t42 17.5q24 0 41.5 -17.5t17.5 -42.5zM700 181q8 -7 2 -20q-7 -14 -17.5 -29.5t-37.5 -42.5t-59 -46.5t-84.5 -34.5t-112.5 -15q-146 0 -243 102t-97 268q0 165 98.5 263t237.5 98q154 0 224 -107
l-1 89q0 12 12 12h55q12 0 12 -12v-218q0 -13 -12 -13h-61q-13 0 -13 13v9q0 47 -62 97.5t-150 50.5q-46 0 -90 -18t-80 -52t-58 -89.5t-22 -125.5q0 -136 76.5 -212t178.5 -76q53 0 97.5 14t73 37t44.5 41.5t28 38.5q8 15 18 6z" />
    <glyph glyph-name="cdotaccent" unicode="&#x10b;" horiz-adv-x="554" 
d="M345 642q0 -24 -17.5 -41t-41.5 -17q-25 0 -42 17t-17 41q0 25 17 42.5t42 17.5q24 0 41.5 -17.5t17.5 -42.5zM499 116q10 -9 4 -18q-7 -11 -21.5 -26t-40 -34t-66 -32t-86.5 -13q-105 0 -175 69t-70 186q0 116 70 183.5t167 67.5q107 0 159 -74h1v55q-2 13 12 13h38
q12 0 12 -13v-170q0 -12 -12 -12h-45q-13 0 -13 12v17q0 36 -40 69t-102 33t-113 -49t-51 -133q0 -85 50.5 -134.5t116.5 -49.5q57 0 100.5 26.5t58.5 51.5q7 11 18 3z" />
    <glyph glyph-name="Ccaron" unicode="&#x10c;" horiz-adv-x="748" 
d="M399 771q-7 -5 -10 -5q-5 0 -9 4l-155 126q-11 8 -2 19l24 28q9 10 19 2l123 -95l123 95q12 8 19 -2l25 -28q8 -9 -2 -19zM700 181q8 -7 2 -20q-7 -14 -17.5 -29.5t-37.5 -42.5t-59 -46.5t-84.5 -34.5t-112.5 -15q-146 0 -243 102t-97 268q0 165 98.5 263t237.5 98
q154 0 224 -107l-1 89q0 12 12 12h55q12 0 12 -12v-218q0 -13 -12 -13h-61q-13 0 -13 13v9q0 47 -62 97.5t-150 50.5q-46 0 -90 -18t-80 -52t-58 -89.5t-22 -125.5q0 -136 76.5 -212t178.5 -76q53 0 97.5 14t73 37t44.5 41.5t28 38.5q8 15 18 6z" />
    <glyph glyph-name="ccaron" unicode="&#x10d;" horiz-adv-x="554" 
d="M292 546q-4 -5 -10 -5q-5 0 -9 4l-155 136q-11 8 -2 19l24 28q9 10 19 2l123 -105l123 105q12 8 19 -2l25 -28q8 -9 -2 -19zM499 116q10 -9 4 -18q-7 -11 -21.5 -26t-40 -34t-66 -32t-86.5 -13q-105 0 -175 69t-70 186q0 116 70 183.5t167 67.5q107 0 159 -74h1v55
q-2 13 12 13h38q12 0 12 -13v-170q0 -12 -12 -12h-45q-13 0 -13 12v17q0 36 -40 69t-102 33t-113 -49t-51 -133q0 -85 50.5 -134.5t116.5 -49.5q57 0 100.5 26.5t58.5 51.5q7 11 18 3z" />
    <glyph glyph-name="Dcaron" unicode="&#x10e;" horiz-adv-x="739" 
d="M351 771q-7 -5 -10 -5q-5 0 -9 4l-155 126q-11 8 -2 19l24 28q9 10 19 2l123 -95l123 95q12 8 19 -2l25 -28q8 -9 -2 -19zM58 0q-12 0 -12 12v49q0 12 12 12h77v572h-77q-12 0 -12 12v49q0 12 12 12h268q166 0 264 -95.5t98 -262.5t-92.5 -263.5t-251.5 -96.5h-286z
M320 73q136 1 207 72.5t71 212.5q0 136 -71.5 211.5t-209.5 75.5h-97v-572h100z" />
    <glyph glyph-name="dcaron" unicode="&#x10f;" horiz-adv-x="609" 
d="M563 604q0 6 7 6q16 0 28.5 13.5t12.5 39.5l-2 12q-5 -5 -19 -5q-18 0 -30.5 13t-12.5 33t13.5 33.5t33.5 13.5q26 0 40.5 -19t14.5 -54q0 -57 -22 -83.5t-57 -26.5q-7 0 -7 5v19zM481 0q-23 0 -33.5 9.5t-10.5 32.5v56h-1q-16 -42 -60 -73.5t-107 -31.5
q-100 0 -162.5 70t-62.5 186q0 111 62.5 180.5t163.5 69.5q62 0 103 -27t59 -66h1q-1 17 -1 28v217h-56q-13 0 -13 12v43q0 12 13 12h127q12 0 12 -12v-639h53q12 0 12 -12v-43q0 -12 -12 -12h-87zM281 63q66 0 109 50.5t43 133.5q0 85 -44 133.5t-108 48.5
q-66 0 -110.5 -49t-44.5 -132t43.5 -134t111.5 -51z" />
    <glyph glyph-name="Dcroat" unicode="&#x110;" horiz-adv-x="739" 
d="M326 718q166 0 264 -95.5t98 -262.5t-92.5 -263.5t-251.5 -96.5h-286q-12 0 -12 12v49q0 12 12 12h77v252h-81q-13 0 -13 14v42q0 13 13 13h81v251h-77q-12 0 -12 12v49q0 12 12 12h268zM320 73q136 1 207 72.5t71 212.5q0 136 -71.5 211.5t-209.5 75.5h-97v-251h104
q14 0 14 -13v-42q0 -14 -14 -14h-104v-252h100z" />
    <glyph glyph-name="dcroat" unicode="&#x111;" horiz-adv-x="609" 
d="M568 529h-53v-462h53q12 0 12 -12v-43q0 -12 -12 -12h-87q-23 0 -33.5 9.5t-10.5 32.5v56h-1q-16 -42 -60 -73.5t-107 -31.5q-100 0 -162.5 70t-62.5 186q0 111 62.5 180.5t163.5 69.5q62 0 103 -27t59 -66h1q-1 17 -1 28v95h-66q-13 0 -13 14v42q0 13 13 13h66v53h-56
q-13 0 -13 12v43q0 12 13 12h127q12 0 12 -12v-108h53q14 0 14 -13v-42q0 -14 -14 -14zM281 63q66 0 109 50.5t43 133.5q0 85 -44 133.5t-108 48.5q-66 0 -110.5 -49t-44.5 -132t43.5 -134t111.5 -51z" />
    <glyph glyph-name="Emacron" unicode="&#x112;" horiz-adv-x="659" 
d="M184 808q-13 0 -13 13v42q0 14 13 14h296q13 0 13 -14v-42q0 -13 -13 -13h-296zM58 0q-12 0 -12 12v49q0 12 12 12h77v572h-77q-12 0 -12 12v49q0 12 12 12h533q12 0 12 -12v-160q0 -12 -12 -12h-57q-12 0 -12 12v99h-302v-250h253q13 0 13 -12v-49q0 -12 -13 -12h-253
v-249h301v98q0 12 13 12h57q12 0 12 -12v-159q0 -12 -12 -12h-533z" />
    <glyph glyph-name="emacron" unicode="&#x113;" horiz-adv-x="548" 
d="M126 598q-13 0 -13 13v42q0 14 13 14h296q13 0 13 -14v-42q0 -13 -13 -13h-296zM128 227q4 -80 52.5 -122t113.5 -42q58 0 101.5 26t58.5 51q7 12 17 3l28 -27q9 -9 3 -18q-7 -11 -21 -26t-39.5 -34t-66 -32t-86.5 -13q-105 0 -175 69t-70 186q0 116 70 183.5t165 67.5
q109 0 166 -67.5t57 -191.5q0 -13 -13 -13h-361zM421 294q-3 60 -39 97.5t-100 37.5q-58 0 -100.5 -35t-51.5 -100h291z" />
    <glyph glyph-name="Ebreve" unicode="&#x114;" horiz-adv-x="659" 
d="M459 934q13 0 13 -13q0 -67 -39 -103t-102 -36q-62 0 -100.5 36t-38.5 103q0 13 13 13h42q13 0 13 -13q0 -37 20.5 -57.5t50.5 -20.5q31 0 52 20.5t21 57.5q0 13 13 13h42zM58 0q-12 0 -12 12v49q0 12 12 12h77v572h-77q-12 0 -12 12v49q0 12 12 12h533q12 0 12 -12v-160
q0 -12 -12 -12h-57q-12 0 -12 12v99h-302v-250h253q13 0 13 -12v-49q0 -12 -13 -12h-253v-249h301v98q0 12 13 12h57q12 0 12 -12v-159q0 -12 -12 -12h-533z" />
    <glyph glyph-name="ebreve" unicode="&#x115;" horiz-adv-x="548" 
d="M402 714q13 0 13 -13q0 -67 -39 -103t-102 -36q-62 0 -100.5 36t-38.5 103q0 13 13 13h42q13 0 13 -13q0 -37 20.5 -57.5t50.5 -20.5q31 0 52 20.5t21 57.5q0 13 13 13h42zM128 227q4 -80 52.5 -122t113.5 -42q58 0 101.5 26t58.5 51q7 12 17 3l28 -27q9 -9 3 -18
q-7 -11 -21 -26t-39.5 -34t-66 -32t-86.5 -13q-105 0 -175 69t-70 186q0 116 70 183.5t165 67.5q109 0 166 -67.5t57 -191.5q0 -13 -13 -13h-361zM421 294q-3 60 -39 97.5t-100 37.5q-58 0 -100.5 -35t-51.5 -100h291z" />
    <glyph glyph-name="Edotaccent" unicode="&#x116;" horiz-adv-x="659" 
d="M391 850q0 -24 -17.5 -41t-41.5 -17q-25 0 -42 17t-17 41q0 25 17 42.5t42 17.5q24 0 41.5 -17.5t17.5 -42.5zM58 0q-12 0 -12 12v49q0 12 12 12h77v572h-77q-12 0 -12 12v49q0 12 12 12h533q12 0 12 -12v-160q0 -12 -12 -12h-57q-12 0 -12 12v99h-302v-250h253
q13 0 13 -12v-49q0 -12 -13 -12h-253v-249h301v98q0 12 13 12h57q12 0 12 -12v-159q0 -12 -12 -12h-533z" />
    <glyph glyph-name="edotaccent" unicode="&#x117;" horiz-adv-x="548" 
d="M333 642q0 -24 -17.5 -41t-41.5 -17q-25 0 -42 17t-17 41q0 25 17 42.5t42 17.5q24 0 41.5 -17.5t17.5 -42.5zM128 227q4 -80 52.5 -122t113.5 -42q58 0 101.5 26t58.5 51q7 12 17 3l28 -27q9 -9 3 -18q-7 -11 -21 -26t-39.5 -34t-66 -32t-86.5 -13q-105 0 -175 69
t-70 186q0 116 70 183.5t165 67.5q109 0 166 -67.5t57 -191.5q0 -13 -13 -13h-361zM421 294q-3 60 -39 97.5t-100 37.5q-58 0 -100.5 -35t-51.5 -100h291z" />
    <glyph glyph-name="Eogonek" unicode="&#x118;" horiz-adv-x="659" 
d="M605 -124q6 -10 -4 -17q-35 -23 -74 -23q-38 0 -60.5 20t-22.5 54q0 61 77 90h-463q-12 0 -12 12v49q0 12 12 12h77v572h-77q-12 0 -12 12v49q0 12 12 12h533q12 0 12 -12v-160q0 -12 -12 -12h-57q-12 0 -12 12v99h-302v-250h253q13 0 13 -12v-49q0 -12 -13 -12h-253
v-249h301v98q0 12 13 12h57q12 0 12 -12v-159q0 -12 -12 -12h-14q-68 -34 -68 -75q0 -16 8 -24.5t20 -8.5q18 0 36 10q13 7 18 -1z" />
    <glyph glyph-name="eogonek" unicode="&#x119;" horiz-adv-x="548" 
d="M499 116q9 -9 3 -18q-7 -12 -21.5 -27.5t-46.5 -36.5t-69 -31q-75 -37 -75 -78q0 -16 8 -24.5t20 -8.5q18 0 36 10q13 7 18 -1l14 -25q6 -10 -4 -17q-35 -23 -74 -23q-38 0 -60.5 20t-22.5 54q0 52 61 83q-104 1 -173 70t-69 185t70 183.5t165 67.5q109 0 166 -67.5
t57 -191.5q0 -13 -13 -13h-361q4 -80 52.5 -122t113.5 -42q58 0 101.5 26t58.5 51q7 12 17 3zM282 429q-58 0 -100.5 -35t-51.5 -100h291q-3 60 -39 97.5t-100 37.5z" />
    <glyph glyph-name="Ecaron" unicode="&#x11a;" horiz-adv-x="659" 
d="M342 771q-7 -5 -10 -5q-5 0 -9 4l-155 126q-11 8 -2 19l24 28q9 10 19 2l123 -95l123 95q12 8 19 -2l25 -28q8 -9 -2 -19zM58 0q-12 0 -12 12v49q0 12 12 12h77v572h-77q-12 0 -12 12v49q0 12 12 12h533q12 0 12 -12v-160q0 -12 -12 -12h-57q-12 0 -12 12v99h-302v-250
h253q13 0 13 -12v-49q0 -12 -13 -12h-253v-249h301v98q0 12 13 12h57q12 0 12 -12v-159q0 -12 -12 -12h-533z" />
    <glyph glyph-name="ecaron" unicode="&#x11b;" horiz-adv-x="548" 
d="M280 546q-4 -5 -10 -5q-5 0 -9 4l-155 136q-11 8 -2 19l24 28q9 10 19 2l123 -105l123 105q12 8 19 -2l25 -28q8 -9 -2 -19zM128 227q4 -80 52.5 -122t113.5 -42q58 0 101.5 26t58.5 51q7 12 17 3l28 -27q9 -9 3 -18q-7 -11 -21 -26t-39.5 -34t-66 -32t-86.5 -13
q-105 0 -175 69t-70 186q0 116 70 183.5t165 67.5q109 0 166 -67.5t57 -191.5q0 -13 -13 -13h-361zM421 294q-3 60 -39 97.5t-100 37.5q-58 0 -100.5 -35t-51.5 -100h291z" />
    <glyph glyph-name="Gcircumflex" unicode="&#x11c;" horiz-adv-x="769" 
d="M527 772q-8 -10 -19 -2l-123 95l-123 -95q-9 -8 -19 2l-24 29q-9 11 2 19l155 126q4 4 9 4q6 0 10 -5l155 -125q11 -8 2 -19zM639 0q-12 0 -12 12v69q-86 -88 -232 -88q-149 0 -246.5 101.5t-97.5 268.5q0 84 28.5 153.5t76.5 114t108.5 69t126.5 24.5q156 0 220 -95
l-1 77q0 12 12 12h55q12 0 12 -12v-206q0 -12 -12 -12h-61q-13 0 -13 12v12q0 45 -60 89t-147 44q-103 0 -179 -79t-76 -206q0 -133 77.5 -210.5t180.5 -77.5q147 0 221 97v87h-187q-12 0 -12 13v47q0 13 12 13h258q12 0 12 -13v-304q0 -12 -12 -12h-52z" />
    <glyph glyph-name="gcircumflex" unicode="&#x11d;" horiz-adv-x="605" 
d="M425 549q-8 -10 -19 -2l-123 105l-123 -105q-9 -8 -19 2l-24 29q-9 11 2 19l155 136q4 4 9 4q6 0 10 -5l155 -135q10 -10 2 -19zM274 -234q-27 0 -51.5 3t-43.5 9t-34 12t-27 13.5t-19 12.5t-13 10l-6 6q-11 10 -3 18l26 37q6 9 17 1l5 -4q5 -4 8.5 -7t12 -8.5t16.5 -9.5
t20.5 -8.5t25 -7.5t29.5 -5t35 -2q72 0 116 35.5t44 109.5v114q-19 -42 -61 -72t-103 -30q-101 0 -162.5 71t-61.5 183q0 114 62.5 183t162.5 69q62 0 104.5 -28.5t61.5 -69.5h2l-1 79q0 12 12 12h118q12 0 12 -12v-43q0 -12 -12 -12h-54v-444q0 -106 -65.5 -160.5
t-172.5 -54.5zM280 63q66 0 109.5 50t43.5 133q0 85 -43.5 134t-109.5 49q-67 0 -110.5 -50t-43.5 -134q0 -81 43.5 -131.5t110.5 -50.5z" />
    <glyph glyph-name="Gbreve" unicode="&#x11e;" horiz-adv-x="769" 
d="M512 934q13 0 13 -13q0 -67 -39 -103t-102 -36q-62 0 -100.5 36t-38.5 103q0 13 13 13h42q13 0 13 -13q0 -37 20.5 -57.5t50.5 -20.5q31 0 52 20.5t21 57.5q0 13 13 13h42zM639 0q-12 0 -12 12v69q-86 -88 -232 -88q-149 0 -246.5 101.5t-97.5 268.5q0 84 28.5 153.5
t76.5 114t108.5 69t126.5 24.5q156 0 220 -95l-1 77q0 12 12 12h55q12 0 12 -12v-206q0 -12 -12 -12h-61q-13 0 -13 12v12q0 45 -60 89t-147 44q-103 0 -179 -79t-76 -206q0 -133 77.5 -210.5t180.5 -77.5q147 0 221 97v87h-187q-12 0 -12 13v47q0 13 12 13h258q12 0 12 -13
v-304q0 -12 -12 -12h-52z" />
    <glyph glyph-name="gbreve" unicode="&#x11f;" horiz-adv-x="605" 
d="M411 714q13 0 13 -13q0 -67 -39 -103t-102 -36q-62 0 -100.5 36t-38.5 103q0 13 13 13h42q13 0 13 -13q0 -37 20.5 -57.5t50.5 -20.5q31 0 52 20.5t21 57.5q0 13 13 13h42zM274 -234q-27 0 -51.5 3t-43.5 9t-34 12t-27 13.5t-19 12.5t-13 10l-6 6q-11 10 -3 18l26 37
q6 9 17 1l5 -4q5 -4 8.5 -7t12 -8.5t16.5 -9.5t20.5 -8.5t25 -7.5t29.5 -5t35 -2q72 0 116 35.5t44 109.5v114q-19 -42 -61 -72t-103 -30q-101 0 -162.5 71t-61.5 183q0 114 62.5 183t162.5 69q62 0 104.5 -28.5t61.5 -69.5h2l-1 79q0 12 12 12h118q12 0 12 -12v-43
q0 -12 -12 -12h-54v-444q0 -106 -65.5 -160.5t-172.5 -54.5zM280 63q66 0 109.5 50t43.5 133q0 85 -43.5 134t-109.5 49q-67 0 -110.5 -50t-43.5 -134q0 -81 43.5 -131.5t110.5 -50.5z" />
    <glyph glyph-name="Gdotaccent" unicode="&#x120;" horiz-adv-x="769" 
d="M444 850q0 -24 -17.5 -41t-41.5 -17q-25 0 -42 17t-17 41q0 25 17 42.5t42 17.5q24 0 41.5 -17.5t17.5 -42.5zM639 0q-12 0 -12 12v69q-86 -88 -232 -88q-149 0 -246.5 101.5t-97.5 268.5q0 84 28.5 153.5t76.5 114t108.5 69t126.5 24.5q156 0 220 -95l-1 77q0 12 12 12
h55q12 0 12 -12v-206q0 -12 -12 -12h-61q-13 0 -13 12v12q0 45 -60 89t-147 44q-103 0 -179 -79t-76 -206q0 -133 77.5 -210.5t180.5 -77.5q147 0 221 97v87h-187q-12 0 -12 13v47q0 13 12 13h258q12 0 12 -13v-304q0 -12 -12 -12h-52z" />
    <glyph glyph-name="gdotaccent" unicode="&#x121;" horiz-adv-x="605" 
d="M342 642q0 -24 -17.5 -41t-41.5 -17q-25 0 -42 17t-17 41q0 25 17 42.5t42 17.5q24 0 41.5 -17.5t17.5 -42.5zM274 -234q-27 0 -51.5 3t-43.5 9t-34 12t-27 13.5t-19 12.5t-13 10l-6 6q-11 10 -3 18l26 37q6 9 17 1l5 -4q5 -4 8.5 -7t12 -8.5t16.5 -9.5t20.5 -8.5
t25 -7.5t29.5 -5t35 -2q72 0 116 35.5t44 109.5v114q-19 -42 -61 -72t-103 -30q-101 0 -162.5 71t-61.5 183q0 114 62.5 183t162.5 69q62 0 104.5 -28.5t61.5 -69.5h2l-1 79q0 12 12 12h118q12 0 12 -12v-43q0 -12 -12 -12h-54v-444q0 -106 -65.5 -160.5t-172.5 -54.5z
M280 63q66 0 109.5 50t43.5 133q0 85 -43.5 134t-109.5 49q-67 0 -110.5 -50t-43.5 -134q0 -81 43.5 -131.5t110.5 -50.5z" />
    <glyph glyph-name="Gcommaaccent" unicode="&#x122;" horiz-adv-x="769" 
d="M639 0q-12 0 -12 12v69q-86 -88 -232 -88q-149 0 -246.5 101.5t-97.5 268.5q0 84 28.5 153.5t76.5 114t108.5 69t126.5 24.5q156 0 220 -95l-1 77q0 12 12 12h55q12 0 12 -12v-206q0 -12 -12 -12h-61q-13 0 -13 12v12q0 45 -60 89t-147 44q-103 0 -179 -79t-76 -206
q0 -133 77.5 -210.5t180.5 -77.5q147 0 221 97v87h-187q-12 0 -12 13v47q0 13 12 13h258q12 0 12 -13v-304q0 -12 -12 -12h-52zM380 -205q0 6 7 6q15 0 28 15.5t13 37.5l-2 11q-5 -5 -19 -5q-18 0 -30.5 13t-12.5 34q0 19 14 33t33 14q27 0 43 -20t16 -55q0 -55 -23 -82
t-60 -27q-7 0 -7 6v19z" />
    <glyph glyph-name="gcommaaccent" unicode="&#x123;" horiz-adv-x="605" 
d="M318 697q0 -6 -7 -6q-15 0 -28 -15.5t-13 -37.5l2 -11q5 5 19 5q18 0 30.5 -13t12.5 -34q0 -19 -14 -33t-33 -14q-27 0 -43 20t-16 55q0 55 23 82t60 27q7 0 7 -6v-19zM274 -234q-27 0 -51.5 3t-43.5 9t-34 12t-27 13.5t-19 12.5t-13 10l-6 6q-11 10 -3 18l26 37
q6 9 17 1l5 -4q5 -4 8.5 -7t12 -8.5t16.5 -9.5t20.5 -8.5t25 -7.5t29.5 -5t35 -2q72 0 116 35.5t44 109.5v114q-19 -42 -61 -72t-103 -30q-101 0 -162.5 71t-61.5 183q0 114 62.5 183t162.5 69q62 0 104.5 -28.5t61.5 -69.5h2l-1 79q0 12 12 12h118q12 0 12 -12v-43
q0 -12 -12 -12h-54v-444q0 -106 -65.5 -160.5t-172.5 -54.5zM280 63q66 0 109.5 50t43.5 133q0 85 -43.5 134t-109.5 49q-67 0 -110.5 -50t-43.5 -134q0 -81 43.5 -131.5t110.5 -50.5z" />
    <glyph glyph-name="Hcircumflex" unicode="&#x124;" horiz-adv-x="814" 
d="M549 772q-8 -10 -19 -2l-123 95l-123 -95q-9 -8 -19 2l-24 29q-9 11 2 19l155 126q4 4 9 4q6 0 10 -5l155 -125q11 -8 2 -19zM517 0q-12 0 -12 12v49q0 12 12 12h77v249h-374v-249h77q13 0 13 -12v-49q0 -12 -13 -12h-239q-12 0 -12 12v49q0 12 12 12h77v572h-77
q-12 0 -12 12v49q0 12 12 12h239q13 0 13 -12v-49q0 -12 -13 -12h-77v-250h374v250h-77q-12 0 -12 12v49q0 12 12 12h239q12 0 12 -12v-49q0 -12 -12 -12h-77v-572h77q12 0 12 -12v-49q0 -12 -12 -12h-239z" />
    <glyph glyph-name="hcircumflex" unicode="&#x125;" horiz-adv-x="593" 
d="M271 772q-8 -10 -19 -2l-123 95l-123 -95q-9 -8 -19 2l-24 29q-9 11 2 19l155 126q4 4 9 4q6 0 10 -5l155 -125q11 -8 2 -19zM464 0q-23 0 -33.5 9.5t-10.5 32.5v263q0 58 -27.5 90t-81.5 32q-21 0 -39.5 -5t-32 -12.5t-24 -17t-17.5 -18.5t-11.5 -16.5t-6.5 -11.5l-2 -5
v-274h53q12 0 12 -12v-43q0 -12 -12 -12h-192q-12 0 -12 12v43q0 12 12 12h56v584h-56q-12 0 -12 12v43q0 12 12 12h127q12 0 12 -12v-223q0 -33 -4 -61h2q50 77 155 77q80 0 126 -47t46 -127v-258h56q13 0 13 -12v-43q0 -12 -13 -12h-95z" />
    <glyph glyph-name="Hbar" unicode="&#x126;" horiz-adv-x="814" 
d="M756 645h-77v-117h54q11 0 11 -11v-42q0 -11 -11 -11h-54v-391h77q12 0 12 -12v-49q0 -12 -12 -12h-239q-12 0 -12 12v49q0 12 12 12h77v249h-374v-249h77q13 0 13 -12v-49q0 -12 -13 -12h-239q-12 0 -12 12v49q0 12 12 12h77v391h-55q-11 0 -11 11v42q0 11 11 11h55v117
h-77q-12 0 -12 12v49q0 12 12 12h239q13 0 13 -12v-49q0 -12 -13 -12h-77v-117h374v117h-77q-12 0 -12 12v49q0 12 12 12h239q12 0 12 -12v-49q0 -12 -12 -12zM594 395v69h-374v-69h374z" />
    <glyph glyph-name="hbar" unicode="&#x127;" horiz-adv-x="593" 
d="M559 67q13 0 13 -12v-43q0 -12 -13 -12h-95q-23 0 -33.5 9.5t-10.5 32.5v263q0 58 -27.5 90t-81.5 32q-21 0 -39.5 -5t-32 -12.5t-24 -17t-17.5 -18.5t-11.5 -16.5t-6.5 -11.5l-2 -5v-274h53q12 0 12 -12v-43q0 -12 -12 -12h-192q-12 0 -12 12v43q0 12 12 12h56v464h-55
q-13 0 -13 14v42q0 13 13 13h55v51h-56q-12 0 -12 12v43q0 12 12 12h127q12 0 12 -12v-106h64q14 0 14 -13v-42q0 -14 -14 -14h-64v-48q0 -33 -4 -61h2q50 77 155 77q80 0 126 -47t46 -127v-258h56z" />
    <glyph glyph-name="Itilde" unicode="&#x128;" horiz-adv-x="356" 
d="M326 935q12 0 12 -12q0 -118 -90 -118q-40 0 -78 23.5t-57 23.5q-34 0 -34 -46q0 -12 -12 -12h-37q-12 0 -12 12q0 52 22.5 81t66.5 29q37 0 77 -23.5t61 -23.5q32 0 32 54q0 12 12 12h37zM58 0q-12 0 -12 12v49q0 12 12 12h77v572h-77q-12 0 -12 12v49q0 12 12 12h239
q13 0 13 -12v-49q0 -12 -13 -12h-77v-572h77q13 0 13 -12v-49q0 -12 -13 -12h-239z" />
    <glyph glyph-name="itilde" unicode="&#x129;" horiz-adv-x="284" 
d="M266 706q11 0 11 -12q0 -120 -81 -120q-37 0 -71.5 24.5t-51.5 24.5q-15 0 -21.5 -10t-6.5 -36q0 -12 -11 -12h-33q-11 0 -11 12q0 53 20.5 82.5t59.5 29.5q34 0 69.5 -24.5t54.5 -24.5q15 0 21.5 12t6.5 42q0 12 11 12h33zM50 0q-12 0 -12 12v43q0 12 12 12h56v358h-56
q-12 0 -12 12v43q0 12 12 12h126q13 0 13 -12v-413h53q12 0 12 -12v-43q0 -12 -12 -12h-192z" />
    <glyph glyph-name="Imacron" unicode="&#x12a;" horiz-adv-x="356" 
d="M30 808q-13 0 -13 13v42q0 14 13 14h296q13 0 13 -14v-42q0 -13 -13 -13h-296zM58 0q-12 0 -12 12v49q0 12 12 12h77v572h-77q-12 0 -12 12v49q0 12 12 12h239q13 0 13 -12v-49q0 -12 -13 -12h-77v-572h77q13 0 13 -12v-49q0 -12 -13 -12h-239z" />
    <glyph glyph-name="imacron" unicode="&#x12b;" horiz-adv-x="284" 
d="M10 598q-11 0 -11 13v42q0 14 11 14h249q11 0 11 -14v-42q0 -13 -11 -13h-249zM50 0q-12 0 -12 12v43q0 12 12 12h56v358h-56q-12 0 -12 12v43q0 12 12 12h126q13 0 13 -12v-413h53q12 0 12 -12v-43q0 -12 -12 -12h-192z" />
    <glyph glyph-name="Ibreve" unicode="&#x12c;" horiz-adv-x="356" 
d="M305 934q13 0 13 -13q0 -67 -39 -103t-102 -36q-62 0 -100.5 36t-38.5 103q0 13 13 13h42q13 0 13 -13q0 -37 20.5 -57.5t50.5 -20.5q31 0 52 20.5t21 57.5q0 13 13 13h42zM58 0q-12 0 -12 12v49q0 12 12 12h77v572h-77q-12 0 -12 12v49q0 12 12 12h239q13 0 13 -12v-49
q0 -12 -13 -12h-77v-572h77q13 0 13 -12v-49q0 -12 -13 -12h-239z" />
    <glyph glyph-name="ibreve" unicode="&#x12d;" horiz-adv-x="284" 
d="M262 714q13 0 13 -13q0 -67 -39 -103t-102 -36q-62 0 -100.5 36t-38.5 103q0 13 13 13h42q13 0 13 -13q0 -37 20.5 -57.5t50.5 -20.5q31 0 52 20.5t21 57.5q0 13 13 13h42zM50 0q-12 0 -12 12v43q0 12 12 12h56v358h-56q-12 0 -12 12v43q0 12 12 12h126q13 0 13 -12v-413
h53q12 0 12 -12v-43q0 -12 -12 -12h-192z" />
    <glyph glyph-name="Iogonek" unicode="&#x12e;" horiz-adv-x="356" 
d="M297 645h-77v-572h77q13 0 13 -12v-49q0 -12 -13 -12h-35q-68 -34 -68 -75q0 -16 8 -24.5t20 -8.5q18 0 36 10q13 7 18 -1l14 -25q6 -10 -4 -17q-35 -23 -74 -23q-38 0 -60.5 20t-22.5 54q0 61 77 90h-148q-12 0 -12 12v49q0 12 12 12h77v572h-77q-12 0 -12 12v49
q0 12 12 12h239q13 0 13 -12v-49q0 -12 -13 -12z" />
    <glyph glyph-name="iogonek" unicode="&#x12f;" horiz-adv-x="284" 
d="M134 584q-25 0 -42 17t-17 41q0 25 17 42.5t42 17.5q24 0 41.5 -17.5t17.5 -42.5q0 -24 -17.5 -41t-41.5 -17zM242 67q12 0 12 -12v-43q0 -12 -12 -12h-22q-68 -34 -68 -75q0 -16 8 -24.5t20 -8.5q18 0 36 10q13 7 18 -1l14 -25q6 -10 -4 -17q-35 -23 -74 -23
q-38 0 -60.5 20t-22.5 54q0 61 77 90h-114q-12 0 -12 12v43q0 12 12 12h56v358h-56q-12 0 -12 12v43q0 12 12 12h126q13 0 13 -12v-413h53z" />
    <glyph glyph-name="Idotaccent" unicode="&#x130;" horiz-adv-x="356" 
d="M237 850q0 -24 -17.5 -41t-41.5 -17q-25 0 -42 17t-17 41q0 25 17 42.5t42 17.5q24 0 41.5 -17.5t17.5 -42.5zM58 0q-12 0 -12 12v49q0 12 12 12h77v572h-77q-12 0 -12 12v49q0 12 12 12h239q13 0 13 -12v-49q0 -12 -13 -12h-77v-572h77q13 0 13 -12v-49q0 -12 -13 -12
h-239z" />
    <glyph glyph-name="dotlessi" unicode="&#x131;" horiz-adv-x="284" 
d="M50 0q-12 0 -12 12v43q0 12 12 12h56v358h-56q-12 0 -12 12v43q0 12 12 12h126q13 0 13 -12v-413h53q12 0 12 -12v-43q0 -12 -12 -12h-192z" />
    <glyph glyph-name="IJ" unicode="&#x132;" horiz-adv-x="732" 
d="M58 0q-12 0 -12 12v49q0 12 12 12h77v572h-77q-12 0 -12 12v49q0 12 12 12h239q13 0 13 -12v-49q0 -12 -13 -12h-77v-572h77q13 0 13 -12v-49q0 -12 -13 -12h-239zM530 645h-77q-12 0 -12 12v49q0 12 12 12h239q13 0 13 -12v-49q0 -12 -13 -12h-77v-534
q0 -147 -68.5 -209t-215.5 -62q-12 0 -12 12v49q0 12 12 12q110 0 154.5 45.5t44.5 141.5v545z" />
    <glyph glyph-name="ij" unicode="&#x133;" horiz-adv-x="544" 
d="M193 642q0 -24 -17.5 -41t-41.5 -17q-25 0 -42 17t-17 41q0 25 17 42.5t42 17.5q24 0 41.5 -17.5t17.5 -42.5zM464 642q0 -24 -17.5 -41t-41.5 -17q-25 0 -42 17t-17 41q0 25 17 42.5t42 17.5q24 0 41.5 -17.5t17.5 -42.5zM50 0q-12 0 -12 12v43q0 12 12 12h56v358h-56
q-12 0 -12 12v43q0 12 12 12h126q13 0 13 -12v-413h53q12 0 12 -12v-43q0 -12 -12 -12h-192zM380 425h-56q-12 0 -12 12v43q0 12 12 12h127q12 0 12 -12v-544q0 -83 -42.5 -126.5t-118.5 -43.5q-56 0 -100 39q-11 10 -2 19l22 30q10 8 19 2q25 -20 53 -20q41 0 63.5 26
t22.5 75v488z" />
    <glyph glyph-name="Jcircumflex" unicode="&#x134;" horiz-adv-x="445" 
d="M423 772q-8 -10 -19 -2l-123 95l-123 -95q-9 -8 -19 2l-24 29q-9 11 2 19l155 126q4 4 9 4q6 0 10 -5l155 -125q11 -8 2 -19zM243 645h-77q-12 0 -12 12v49q0 12 12 12h239q13 0 13 -12v-49q0 -12 -13 -12h-77v-374q0 -147 -68.5 -209t-215.5 -62q-12 0 -12 12v49
q0 12 12 12q110 0 154.5 45.5t44.5 141.5v385z" />
    <glyph glyph-name="jcircumflex" unicode="&#x135;" horiz-adv-x="260" 
d="M263 549q-8 -10 -19 -2l-123 105l-123 -105q-9 -8 -19 2l-24 29q-9 11 2 19l155 136q4 4 9 4q6 0 10 -5l155 -135q10 -10 2 -19zM96 425h-56q-12 0 -12 12v43q0 12 12 12h127q12 0 12 -12v-544q0 -83 -42.5 -126.5t-118.5 -43.5q-56 0 -100 39q-11 10 -2 19l22 30
q10 8 19 2q25 -20 53 -20q41 0 63.5 26t22.5 75v488z" />
    <glyph glyph-name="Kcommaaccent" unicode="&#x136;" horiz-adv-x="732" 
d="M611 0q-37 0 -59 48l-95 191q-9 17 -15 25.5t-27 18.5t-54 10h-141v-220h93q12 0 12 -12v-49q0 -12 -12 -12h-255q-12 0 -12 12v49q0 12 12 12h77v572h-77q-12 0 -12 12v49q0 12 12 12h223q12 0 12 -12v-49q0 -12 -12 -12h-61v-283h105q106 0 157.5 62.5t52.5 220.5h-69
q-12 0 -12 12v49q0 12 12 12h221q13 0 13 -12v-49q0 -12 -13 -12h-68q-1 -244 -137 -317q16 -8 29.5 -22t18.5 -23t19 -35l86 -175h61q13 0 13 -12v-49q0 -12 -13 -12h-85zM381 -205q0 6 7 6q15 0 28 15.5t13 37.5l-2 11q-5 -5 -19 -5q-18 0 -30.5 13t-12.5 34q0 19 13.5 33
t33.5 14q27 0 43 -20t16 -55q0 -55 -23 -82t-60 -27q-7 0 -7 6v19z" />
    <glyph glyph-name="kcommaaccent" unicode="&#x137;" horiz-adv-x="587" 
d="M498 0q-31 0 -53 31l-167 226l-100 -90v-100h53q12 0 12 -12v-43q0 -12 -12 -12h-192q-12 0 -12 12v43q0 12 12 12h56v584h-56q-12 0 -12 12v43q0 12 12 12h127q12 0 12 -12v-448l182 167h-36q-12 0 -12 12v43q0 12 12 12h192q12 0 12 -12v-43q0 -12 -12 -12h-51
l-129 -116l179 -242h44q12 0 12 -12v-43q0 -12 -12 -12h-61zM259 -205q0 6 7 6q15 0 28 15.5t13 37.5l-2 11q-5 -5 -19 -5q-18 0 -30.5 13t-12.5 34q0 19 13.5 33t33.5 14q27 0 43 -20t16 -55q0 -55 -23 -82t-60 -27q-7 0 -7 6v19z" />
    <glyph glyph-name="kgreenlandic" unicode="&#x138;" horiz-adv-x="599" 
d="M51 0q-12 0 -12 12v43q0 12 12 12h56v358h-56q-12 0 -12 12v43q0 12 12 12h127q12 0 12 -12v-222l182 167h-36q-12 0 -12 12v43q0 12 12 12h192q12 0 12 -12v-43q0 -12 -12 -12h-51l-129 -116l179 -242h44q12 0 12 -12v-43q0 -12 -12 -12h-61q-31 0 -53 31l-167 226
l-100 -90v-100h53q12 0 12 -12v-43q0 -12 -12 -12h-192z" />
    <glyph glyph-name="Lacute" unicode="&#x139;" horiz-adv-x="639" 
d="M178 768q-11 -7 -18 6l-22 31q-9 11 3 19l176 123q10 8 19 -3l28 -42q5 -10 -5 -19zM58 0q-12 0 -12 12v49q0 12 12 12h77v572h-77q-12 0 -12 12v49q0 12 12 12h238q14 0 14 -13v-47q0 -13 -14 -13h-76v-572h320v98q0 12 12 12h57q13 0 13 -12v-158q0 -13 -14 -13h-550z
" />
    <glyph glyph-name="lacute" unicode="&#x13a;" horiz-adv-x="282" 
d="M69 768q-11 -7 -18 6l-22 31q-9 11 3 19l176 123q10 8 19 -3l28 -42q5 -10 -5 -19zM44 0q-13 0 -13 12v43q0 12 13 12h56v584h-56q-13 0 -13 12v43q0 12 13 12h111q27 0 27 -25v-626h53q13 0 13 -12v-43q0 -12 -13 -12h-191z" />
    <glyph glyph-name="Lcommaaccent" unicode="&#x13b;" horiz-adv-x="639" 
d="M58 0q-12 0 -12 12v49q0 12 12 12h77v572h-77q-12 0 -12 12v49q0 12 12 12h238q14 0 14 -13v-47q0 -13 -14 -13h-76v-572h320v98q0 12 12 12h57q13 0 13 -12v-158q0 -13 -14 -13h-550zM316 -205q0 6 7 6q15 0 28 15.5t13 37.5l-2 11q-5 -5 -19 -5q-18 0 -30.5 13
t-12.5 34q0 19 14 33t33 14q27 0 43 -20t16 -55q0 -55 -23 -82t-60 -27q-7 0 -7 6v19z" />
    <glyph glyph-name="lcommaaccent" unicode="&#x13c;" horiz-adv-x="282" 
d="M44 0q-13 0 -13 12v43q0 12 13 12h56v584h-56q-13 0 -13 12v43q0 12 13 12h111q27 0 27 -25v-626h53q13 0 13 -12v-43q0 -12 -13 -12h-191zM106 -205q0 6 7 6q15 0 28 15.5t13 37.5l-2 11q-5 -5 -19 -5q-18 0 -30.5 13t-12.5 34q0 19 14 33t33 14q27 0 43 -20t16 -55
q0 -55 -23 -82t-60 -27q-7 0 -7 6v19z" />
    <glyph glyph-name="Lcaron" unicode="&#x13d;" horiz-adv-x="639" 
d="M423 594q0 6 7 6q16 0 28.5 13.5t12.5 39.5l-2 12q-5 -5 -19 -5q-18 0 -30.5 13t-12.5 33t13.5 33.5t33.5 13.5q26 0 40.5 -19t14.5 -54q0 -57 -22 -83.5t-57 -26.5q-7 0 -7 5v19zM58 0q-12 0 -12 12v49q0 12 12 12h77v572h-77q-12 0 -12 12v49q0 12 12 12h238
q14 0 14 -13v-47q0 -13 -14 -13h-76v-572h320v98q0 12 12 12h57q13 0 13 -12v-158q0 -13 -14 -13h-550z" />
    <glyph glyph-name="lcaron" unicode="&#x13e;" horiz-adv-x="282" 
d="M237 594q0 6 7 6q16 0 28.5 13.5t12.5 39.5l-2 12q-5 -5 -19 -5q-18 0 -30.5 13t-12.5 33t13.5 33.5t33.5 13.5q26 0 40.5 -19t14.5 -54q0 -57 -22 -83.5t-57 -26.5q-7 0 -7 5v19zM44 0q-13 0 -13 12v43q0 12 13 12h56v584h-56q-13 0 -13 12v43q0 12 13 12h111
q27 0 27 -25v-626h53q13 0 13 -12v-43q0 -12 -13 -12h-191z" />
    <glyph glyph-name="Ldot" unicode="&#x13f;" horiz-adv-x="639" 
d="M58 0q-12 0 -12 12v49q0 12 12 12h77v572h-77q-12 0 -12 12v49q0 12 12 12h238q14 0 14 -13v-47q0 -13 -14 -13h-76v-572h320v98q0 12 12 12h57q13 0 13 -12v-158q0 -13 -14 -13h-550zM529 399q0 -20 -13.5 -33.5t-33.5 -13.5t-33.5 13.5t-13.5 33.5t13.5 33.5t33.5 13.5
t33.5 -14t13.5 -33z" />
    <glyph glyph-name="ldot" unicode="&#x140;" horiz-adv-x="282" 
d="M44 0q-13 0 -13 12v43q0 12 13 12h56v584h-56q-13 0 -13 12v43q0 12 13 12h111q27 0 27 -25v-626h53q13 0 13 -12v-43q0 -12 -13 -12h-191zM329 362q0 -20 -13.5 -33.5t-33.5 -13.5t-33.5 13.5t-13.5 33.5t13.5 33.5t33.5 13.5t33.5 -13.5t13.5 -33.5z" />
    <glyph glyph-name="Lslash" unicode="&#x141;" horiz-adv-x="639" 
d="M609 183q13 0 13 -12v-158q0 -13 -14 -13h-550q-12 0 -12 12v49q0 12 12 12h77v226l-97 -54q-11 -6 -19 5l-13 24q-7 11 6 18l123 68v285h-77q-12 0 -12 12v49q0 12 12 12h238q14 0 14 -13v-47q0 -13 -14 -13h-76v-237l96 53q11 5 19 -5l13 -24q7 -12 -6 -19l-122 -67
v-273h320v98q0 12 12 12h57z" />
    <glyph glyph-name="lslash" unicode="&#x142;" horiz-adv-x="282" 
d="M287 433q8 -11 -4 -20l-101 -70v-276h53q13 0 13 -12v-43q0 -12 -13 -12h-191q-13 0 -13 12v43q0 12 13 12h56v219l-72 -50q-10 -8 -18 3l-16 22q-8 10 4 19l102 71v300h-56q-13 0 -13 12v43q0 12 13 12h111q27 0 27 -25v-285l71 50q10 7 18 -3z" />
    <glyph glyph-name="Nacute" unicode="&#x143;" horiz-adv-x="802" 
d="M336 768q-11 -7 -18 6l-22 31q-9 11 3 19l176 123q10 8 19 -3l28 -42q5 -10 -5 -19zM615 0q-19 0 -30 7.5t-21 23.5l-292 453q-13 20 -25.5 43t-18.5 36l-6 13h-2v-503h77q13 0 13 -12v-49q0 -12 -13 -12h-239q-12 0 -12 12v49q0 12 12 12h77v570h-77q-12 0 -12 12v51
q0 12 12 12h134q30 0 52 -34l289 -446q15 -23 29 -49t21 -41l7 -14h2v511h-77q-12 0 -12 12v49q0 12 12 12h239q13 0 13 -12v-49q0 -12 -13 -12h-77v-633q0 -12 -12 -12h-50z" />
    <glyph glyph-name="nacute" unicode="&#x144;" horiz-adv-x="605" 
d="M269 542q-10 -7 -19 3l-25 29q-9 11 2 19l161 141q10 10 19 -1l32 -38q7 -10 -2 -19zM476 0q-23 0 -33.5 9.5t-10.5 32.5v263q0 58 -27.5 91t-81.5 33q-28 0 -52 -9t-38.5 -21.5t-24.5 -25.5t-14 -21.5t-4 -9.5v-275h53q12 0 12 -12v-43q0 -12 -12 -12h-192q-12 0 -12 12
v43q0 12 12 12h56v358h-56q-12 0 -12 12v43q0 12 12 12h118q12 0 12 -12l-1 -68h3q52 87 161 87q80 0 125.5 -47t45.5 -127v-258h56q13 0 13 -12v-43q0 -12 -13 -12h-95z" />
    <glyph glyph-name="Ncommaaccent" unicode="&#x145;" horiz-adv-x="802" 
d="M615 0q-19 0 -30 7.5t-21 23.5l-292 453q-13 20 -25.5 43t-18.5 36l-6 13h-2v-503h77q13 0 13 -12v-49q0 -12 -13 -12h-239q-12 0 -12 12v49q0 12 12 12h77v570h-77q-12 0 -12 12v51q0 12 12 12h134q30 0 52 -34l289 -446q15 -23 29 -49t21 -41l7 -14h2v511h-77
q-12 0 -12 12v49q0 12 12 12h239q13 0 13 -12v-49q0 -12 -13 -12h-77v-633q0 -12 -12 -12h-50zM386 -205q0 6 7 6q15 0 28 15.5t13 37.5l-2 11q-5 -5 -19 -5q-18 0 -30.5 13t-12.5 34q0 19 14 33t33 14q27 0 43 -20t16 -55q0 -55 -23 -82t-60 -27q-7 0 -7 6v19z" />
    <glyph glyph-name="ncommaaccent" unicode="&#x146;" horiz-adv-x="605" 
d="M476 0q-23 0 -33.5 9.5t-10.5 32.5v263q0 58 -27.5 91t-81.5 33q-28 0 -52 -9t-38.5 -21.5t-24.5 -25.5t-14 -21.5t-4 -9.5v-275h53q12 0 12 -12v-43q0 -12 -12 -12h-192q-12 0 -12 12v43q0 12 12 12h56v358h-56q-12 0 -12 12v43q0 12 12 12h118q12 0 12 -12l-1 -68h3
q52 87 161 87q80 0 125.5 -47t45.5 -127v-258h56q13 0 13 -12v-43q0 -12 -13 -12h-95zM288 -205q0 6 7 6q15 0 28 15.5t13 37.5l-2 11q-5 -5 -19 -5q-18 0 -30.5 13t-12.5 34q0 19 14 33t33 14q27 0 43 -20t16 -55q0 -55 -23 -82t-60 -27q-7 0 -7 6v19z" />
    <glyph glyph-name="Ncaron" unicode="&#x147;" horiz-adv-x="802" 
d="M418 771q-7 -5 -10 -5q-5 0 -9 4l-155 126q-11 8 -2 19l24 28q9 10 19 2l123 -95l123 95q12 8 19 -2l25 -28q8 -9 -2 -19zM615 0q-19 0 -30 7.5t-21 23.5l-292 453q-13 20 -25.5 43t-18.5 36l-6 13h-2v-503h77q13 0 13 -12v-49q0 -12 -13 -12h-239q-12 0 -12 12v49
q0 12 12 12h77v570h-77q-12 0 -12 12v51q0 12 12 12h134q30 0 52 -34l289 -446q15 -23 29 -49t21 -41l7 -14h2v511h-77q-12 0 -12 12v49q0 12 12 12h239q13 0 13 -12v-49q0 -12 -13 -12h-77v-633q0 -12 -12 -12h-50z" />
    <glyph glyph-name="ncaron" unicode="&#x148;" horiz-adv-x="605" 
d="M317 546q-4 -5 -10 -5q-5 0 -9 4l-155 136q-11 8 -2 19l24 28q9 10 19 2l123 -105l123 105q12 8 19 -2l25 -28q8 -9 -2 -19zM476 0q-23 0 -33.5 9.5t-10.5 32.5v263q0 58 -27.5 91t-81.5 33q-28 0 -52 -9t-38.5 -21.5t-24.5 -25.5t-14 -21.5t-4 -9.5v-275h53q12 0 12 -12
v-43q0 -12 -12 -12h-192q-12 0 -12 12v43q0 12 12 12h56v358h-56q-12 0 -12 12v43q0 12 12 12h118q12 0 12 -12l-1 -68h3q52 87 161 87q80 0 125.5 -47t45.5 -127v-258h56q13 0 13 -12v-43q0 -12 -13 -12h-95z" />
    <glyph glyph-name="napostrophe" unicode="&#x149;" horiz-adv-x="605" 
d="M3 589q0 6 7 6q16 0 28.5 13.5t12.5 39.5l-2 12q-5 -5 -19 -5q-18 0 -30.5 13t-12.5 33t13.5 33.5t33.5 13.5q26 0 40.5 -19t14.5 -54q0 -57 -22 -83.5t-57 -26.5q-7 0 -7 5v19zM476 0q-23 0 -33.5 9.5t-10.5 32.5v263q0 58 -27.5 91t-81.5 33q-28 0 -52 -9t-38.5 -21.5
t-24.5 -25.5t-14 -21.5t-4 -9.5v-275h53q12 0 12 -12v-43q0 -12 -12 -12h-192q-12 0 -12 12v43q0 12 12 12h56v358h-56q-12 0 -12 12v43q0 12 12 12h118q12 0 12 -12l-1 -68h3q52 87 161 87q80 0 125.5 -47t45.5 -127v-258h56q13 0 13 -12v-43q0 -12 -13 -12h-95z" />
    <glyph glyph-name="Eng" unicode="&#x14a;" horiz-adv-x="802" 
d="M392 -232q-13 0 -13 13v49q0 12 13 12q109 0 153.5 37.5t44.5 119.5v5q-14 6 -26 27l-292 453q-13 20 -25.5 43t-18.5 36l-6 13h-2v-503h77q13 0 13 -12v-49q0 -12 -13 -12h-239q-12 0 -12 12v49q0 12 12 12h77v570h-77q-12 0 -12 12v51q0 12 12 12h134q30 0 52 -34
l289 -446q15 -23 29 -49t21 -41l7 -14h2v511h-77q-12 0 -12 12v49q0 12 12 12h239q13 0 13 -12v-49q0 -12 -13 -12h-77v-636q-2 -122 -69 -181.5t-216 -59.5z" />
    <glyph glyph-name="eng" unicode="&#x14b;" horiz-adv-x="590" 
d="M515 -64q0 -83 -42.5 -126.5t-118.5 -43.5q-56 0 -100 39q-11 10 -2 19l22 30q10 8 19 2q24 -19 54 -19q40 0 62.5 25.5t22.5 74.5v368q0 58 -27.5 91t-81.5 33q-28 0 -52 -9t-38.5 -21.5t-24.5 -25.5t-14 -21.5t-4 -9.5v-275h53q12 0 12 -12v-43q0 -12 -12 -12h-192
q-12 0 -12 12v43q0 12 12 12h56v358h-56q-12 0 -12 12v43q0 12 12 12h118q12 0 12 -12l-1 -68h3q52 87 161 87q80 0 125.5 -47t45.5 -127v-389z" />
    <glyph glyph-name="Omacron" unicode="&#x14c;" horiz-adv-x="795" 
d="M250 808q-13 0 -13 13v42q0 14 13 14h296q13 0 13 -14v-42q0 -13 -13 -13h-296zM398 -7q-149 0 -248.5 103.5t-99.5 266.5q0 164 102.5 262.5t245.5 98.5t245.5 -98.5t102.5 -262.5q0 -165 -99 -267.5t-249 -102.5zM398 72q103 0 180.5 77.5t77.5 210.5q0 134 -79 209.5
t-179 75.5t-179 -75.5t-79 -209.5q0 -133 77.5 -210.5t180.5 -77.5z" />
    <glyph glyph-name="omacron" unicode="&#x14d;" horiz-adv-x="586" 
d="M145 598q-13 0 -13 13v42q0 14 13 14h296q13 0 13 -14v-42q0 -13 -13 -13h-296zM293 -7q-109 0 -179 69.5t-70 185.5q0 115 71 183t178 68t178 -68.5t71 -182.5q0 -115 -70 -185t-179 -70zM293 63q70 0 117.5 50.5t47.5 133.5q0 82 -48.5 132t-116.5 50t-116.5 -50
t-48.5 -132q0 -83 47.5 -133.5t117.5 -50.5z" />
    <glyph glyph-name="Obreve" unicode="&#x14e;" horiz-adv-x="795" 
d="M525 934q13 0 13 -13q0 -67 -39 -103t-102 -36q-62 0 -100.5 36t-38.5 103q0 13 13 13h42q13 0 13 -13q0 -37 20.5 -57.5t50.5 -20.5q31 0 52 20.5t21 57.5q0 13 13 13h42zM398 -7q-149 0 -248.5 103.5t-99.5 266.5q0 164 102.5 262.5t245.5 98.5t245.5 -98.5
t102.5 -262.5q0 -165 -99 -267.5t-249 -102.5zM398 72q103 0 180.5 77.5t77.5 210.5q0 134 -79 209.5t-179 75.5t-179 -75.5t-79 -209.5q0 -133 77.5 -210.5t180.5 -77.5z" />
    <glyph glyph-name="obreve" unicode="&#x14f;" horiz-adv-x="586" 
d="M421 714q13 0 13 -13q0 -67 -39 -103t-102 -36q-62 0 -100.5 36t-38.5 103q0 13 13 13h42q13 0 13 -13q0 -37 20.5 -57.5t50.5 -20.5q31 0 52 20.5t21 57.5q0 13 13 13h42zM293 -7q-109 0 -179 69.5t-70 185.5q0 115 71 183t178 68t178 -68.5t71 -182.5q0 -115 -70 -185
t-179 -70zM293 63q70 0 117.5 50.5t47.5 133.5q0 82 -48.5 132t-116.5 50t-116.5 -50t-48.5 -132q0 -83 47.5 -133.5t117.5 -50.5z" />
    <glyph glyph-name="Ohungarumlaut" unicode="&#x150;" horiz-adv-x="795" 
d="M288 781q-7 -8 -19 -1l-29 25q-10 7 -2 19l115 147q10 11 19 2l38 -31q7 -13 2 -19zM479 781q-7 -8 -19 -1l-29 25q-10 7 -2 19l115 147q10 11 19 2l38 -31q7 -13 2 -19zM398 -7q-149 0 -248.5 103.5t-99.5 266.5q0 164 102.5 262.5t245.5 98.5t245.5 -98.5t102.5 -262.5
q0 -165 -99 -267.5t-249 -102.5zM398 72q103 0 180.5 77.5t77.5 210.5q0 134 -79 209.5t-179 75.5t-179 -75.5t-79 -209.5q0 -133 77.5 -210.5t180.5 -77.5z" />
    <glyph glyph-name="ohungarumlaut" unicode="&#x151;" horiz-adv-x="586" 
d="M192 546q-8 -9 -19 -2l-26 17q-11 8 -3 19l100 157q8 11 19 4l41 -29q9 -9 3 -18zM357 545q-11 -9 -20 -2l-25 18q-12 7 -3 19l99 156q8 12 20 5l40 -29q9 -9 4 -19zM293 -7q-109 0 -179 69.5t-70 185.5q0 115 71 183t178 68t178 -68.5t71 -182.5q0 -115 -70 -185
t-179 -70zM293 63q70 0 117.5 50.5t47.5 133.5q0 82 -48.5 132t-116.5 50t-116.5 -50t-48.5 -132q0 -83 47.5 -133.5t117.5 -50.5z" />
    <glyph glyph-name="OE" unicode="&#x152;" horiz-adv-x="919" 
d="M395 0q-148 0 -246.5 101t-98.5 262q0 163 101 258.5t243 96.5h456q13 0 13 -12v-160q0 -12 -13 -12h-55q-13 0 -13 12v99h-301v-250h253q12 0 12 -12v-49q0 -12 -12 -12h-253v-249h301v98q0 12 12 12h56q13 0 13 -12v-159q0 -12 -13 -12h-455zM394 640
q-63 -2 -118.5 -31t-94.5 -94t-39 -155q0 -132 74.5 -205.5t177.5 -75.5v561z" />
    <glyph glyph-name="oe" unicode="&#x153;" horiz-adv-x="964" 
d="M544 227q4 -80 52.5 -122t113.5 -42q58 0 101.5 26t58.5 51q7 12 17 3l28 -27q9 -9 3 -18q-7 -11 -21 -26t-39.5 -34t-66 -32t-86.5 -13q-64 0 -117.5 27.5t-86.5 78.5q-70 -106 -208 -106q-109 0 -179 69.5t-70 185.5q0 115 71 183t178 68q65 0 119.5 -27.5t87.5 -76.5
q32 50 84.5 77t110.5 27q109 0 166 -67.5t57 -191.5q0 -13 -13 -13h-361zM293 63q70 0 117.5 50.5t47.5 133.5q0 82 -48.5 132t-116.5 50t-116.5 -50t-48.5 -132q0 -83 47.5 -133.5t117.5 -50.5zM837 294q-3 60 -39 97.5t-100 37.5q-58 0 -100.5 -35t-51.5 -100h291z" />
    <glyph glyph-name="Racute" unicode="&#x154;" horiz-adv-x="694" 
d="M275 768q-11 -7 -18 6l-22 31q-9 11 3 19l176 123q10 8 19 -3l28 -42q5 -10 -5 -19zM566 0q-36 0 -60 48l-94 191q-13 27 -26 39t-37 13h-129v-218h92q12 0 12 -12v-49q0 -12 -12 -12h-254q-12 0 -12 12v49q0 12 12 12h77v572h-77q-12 0 -12 12v49q0 12 12 12h309
q107 0 174 -56.5t67 -159.5q0 -157 -147 -196q19 -15 47 -67l84 -166h60q13 0 13 -12v-49q0 -12 -13 -12h-86zM345 360q84 0 128.5 32t44.5 107q0 78 -47.5 112t-125.5 34h-125v-285h125z" />
    <glyph glyph-name="racute" unicode="&#x155;" horiz-adv-x="424" 
d="M179 542q-10 -7 -19 3l-25 29q-9 11 2 19l161 141q10 10 19 -1l32 -38q7 -10 -2 -19zM51 0q-12 0 -12 12v43q0 12 12 12h56v358h-56q-12 0 -12 12v43q0 12 12 12h118q12 0 12 -12v-125h3q1 6 4.5 15t19 33t37 42.5t62.5 33.5t92 15q13 0 13 -13v-53q0 -13 -13 -13h-21
q-86 0 -137 -55t-51 -125v-168h53q12 0 12 -12v-43q0 -12 -12 -12h-192z" />
    <glyph glyph-name="Rcommaaccent" unicode="&#x156;" horiz-adv-x="694" 
d="M566 0q-36 0 -60 48l-94 191q-13 27 -26 39t-37 13h-129v-218h92q12 0 12 -12v-49q0 -12 -12 -12h-254q-12 0 -12 12v49q0 12 12 12h77v572h-77q-12 0 -12 12v49q0 12 12 12h309q107 0 174 -56.5t67 -159.5q0 -157 -147 -196q19 -15 47 -67l84 -166h60q13 0 13 -12v-49
q0 -12 -13 -12h-86zM345 360q84 0 128.5 32t44.5 107q0 78 -47.5 112t-125.5 34h-125v-285h125zM342 -205q0 6 7 6q15 0 28 15.5t13 37.5l-2 11q-5 -5 -19 -5q-18 0 -30.5 13t-12.5 34q0 19 14 33t33 14q27 0 43 -20t16 -55q0 -55 -23 -82t-60 -27q-7 0 -7 6v19z" />
    <glyph glyph-name="rcommaaccent" unicode="&#x157;" horiz-adv-x="424" 
d="M51 0q-12 0 -12 12v43q0 12 12 12h56v358h-56q-12 0 -12 12v43q0 12 12 12h118q12 0 12 -12v-125h3q1 6 4.5 15t19 33t37 42.5t62.5 33.5t92 15q13 0 13 -13v-53q0 -13 -13 -13h-21q-86 0 -137 -55t-51 -125v-168h53q12 0 12 -12v-43q0 -12 -12 -12h-192zM127 -205
q0 6 7 6q15 0 28 15.5t13 37.5l-2 11q-5 -5 -19 -5q-18 0 -30.5 13t-12.5 34q0 19 13.5 33t33.5 14q27 0 43 -20t16 -55q0 -55 -23 -82t-60 -27q-7 0 -7 6v19z" />
    <glyph glyph-name="Rcaron" unicode="&#x158;" horiz-adv-x="694" 
d="M357 771q-7 -5 -10 -5q-5 0 -9 4l-155 126q-11 8 -2 19l24 28q9 10 19 2l123 -95l123 95q12 8 19 -2l25 -28q8 -9 -2 -19zM566 0q-36 0 -60 48l-94 191q-13 27 -26 39t-37 13h-129v-218h92q12 0 12 -12v-49q0 -12 -12 -12h-254q-12 0 -12 12v49q0 12 12 12h77v572h-77
q-12 0 -12 12v49q0 12 12 12h309q107 0 174 -56.5t67 -159.5q0 -157 -147 -196q19 -15 47 -67l84 -166h60q13 0 13 -12v-49q0 -12 -13 -12h-86zM345 360q84 0 128.5 32t44.5 107q0 78 -47.5 112t-125.5 34h-125v-285h125z" />
    <glyph glyph-name="rcaron" unicode="&#x159;" horiz-adv-x="424" 
d="M227 546q-4 -5 -10 -5q-5 0 -9 4l-155 136q-11 8 -2 19l24 28q9 10 19 2l123 -105l123 105q12 8 19 -2l25 -28q8 -9 -2 -19zM51 0q-12 0 -12 12v43q0 12 12 12h56v358h-56q-12 0 -12 12v43q0 12 12 12h118q12 0 12 -12v-125h3q1 6 4.5 15t19 33t37 42.5t62.5 33.5t92 15
q13 0 13 -13v-53q0 -13 -13 -13h-21q-86 0 -137 -55t-51 -125v-168h53q12 0 12 -12v-43q0 -12 -12 -12h-192z" />
    <glyph glyph-name="Sacute" unicode="&#x15a;" horiz-adv-x="669" 
d="M263 768q-11 -7 -18 6l-22 31q-9 11 3 19l176 123q10 8 19 -3l28 -42q5 -10 -5 -19zM69 0q-13 0 -13 12v231q0 12 13 12h61q12 0 12 -12v-14q0 -6 6.5 -22t23.5 -39.5t40.5 -44t63 -35t85.5 -14.5q81 0 126.5 31.5t45.5 87.5q0 34 -25 58t-65 37.5t-88.5 25.5t-97.5 27.5
t-89 37t-65 60t-25 91.5q0 84 63 139t170 55q136 0 197 -79l-1 62q-1 12 12 12h55q12 0 12 -12v-216q0 -13 -12 -13h-62q-12 0 -12 13v28q0 40 -45.5 82t-134.5 42q-69 0 -110.5 -32t-41.5 -81q0 -34 25 -58.5t65 -39t88.5 -27t97.5 -28t89 -36t65 -57.5t25 -88
q0 -88 -62.5 -145.5t-187.5 -57.5q-50 0 -92.5 12.5t-71 33.5t-45.5 39t-29 37l1 -103q0 -12 -13 -12h-54z" />
    <glyph glyph-name="sacute" unicode="&#x15b;" horiz-adv-x="495" 
d="M206 542q-10 -7 -19 3l-25 29q-9 11 2 19l161 141q10 10 19 -1l32 -38q7 -10 -2 -19zM268 -7q-47 0 -84.5 15.5t-52 29.5t-21.5 27h-2l2 -52q0 -13 -13 -13h-39q-14 0 -14 13l1 150q0 13 13 13h44q13 0 13 -13v-20q1 -3 3.5 -8.5t14 -19.5t26 -24.5t40.5 -19t58 -8.5
q108 0 108 72q0 28 -31 45.5t-75.5 28t-89 24.5t-75.5 45t-31 79q0 65 47.5 103.5t120.5 38.5q97 0 142 -58h2l-3 37q0 13 14 13h36q13 0 13 -13v-139q0 -13 -14 -13h-43q-13 0 -13 13v14q0 25 -31.5 50.5t-92.5 25.5q-40 0 -68 -18.5t-28 -52.5q0 -30 31.5 -48.5t77 -29.5
t90.5 -24.5t76.5 -44t31.5 -77.5q0 -60 -45.5 -100.5t-138.5 -40.5z" />
    <glyph glyph-name="Scircumflex" unicode="&#x15c;" horiz-adv-x="669" 
d="M477 772q-8 -10 -19 -2l-123 95l-123 -95q-9 -8 -19 2l-24 29q-9 11 2 19l155 126q4 4 9 4q6 0 10 -5l155 -125q11 -8 2 -19zM69 0q-13 0 -13 12v231q0 12 13 12h61q12 0 12 -12v-14q0 -6 6.5 -22t23.5 -39.5t40.5 -44t63 -35t85.5 -14.5q81 0 126.5 31.5t45.5 87.5
q0 34 -25 58t-65 37.5t-88.5 25.5t-97.5 27.5t-89 37t-65 60t-25 91.5q0 84 63 139t170 55q136 0 197 -79l-1 62q-1 12 12 12h55q12 0 12 -12v-216q0 -13 -12 -13h-62q-12 0 -12 13v28q0 40 -45.5 82t-134.5 42q-69 0 -110.5 -32t-41.5 -81q0 -34 25 -58.5t65 -39t88.5 -27
t97.5 -28t89 -36t65 -57.5t25 -88q0 -88 -62.5 -145.5t-187.5 -57.5q-50 0 -92.5 12.5t-71 33.5t-45.5 39t-29 37l1 -103q0 -12 -13 -12h-54z" />
    <glyph glyph-name="scircumflex" unicode="&#x15d;" horiz-adv-x="495" 
d="M390 549q-8 -10 -19 -2l-123 105l-123 -105q-9 -8 -19 2l-24 29q-9 11 2 19l155 136q4 4 9 4q6 0 10 -5l155 -135q10 -10 2 -19zM268 -7q-47 0 -84.5 15.5t-52 29.5t-21.5 27h-2l2 -52q0 -13 -13 -13h-39q-14 0 -14 13l1 150q0 13 13 13h44q13 0 13 -13v-20
q1 -3 3.5 -8.5t14 -19.5t26 -24.5t40.5 -19t58 -8.5q108 0 108 72q0 28 -31 45.5t-75.5 28t-89 24.5t-75.5 45t-31 79q0 65 47.5 103.5t120.5 38.5q97 0 142 -58h2l-3 37q0 13 14 13h36q13 0 13 -13v-139q0 -13 -14 -13h-43q-13 0 -13 13v14q0 25 -31.5 50.5t-92.5 25.5
q-40 0 -68 -18.5t-28 -52.5q0 -30 31.5 -48.5t77 -29.5t90.5 -24.5t76.5 -44t31.5 -77.5q0 -60 -45.5 -100.5t-138.5 -40.5z" />
    <glyph glyph-name="Scedilla" unicode="&#x15e;" horiz-adv-x="669" 
d="M373 -7h-14l-7 -21q71 0 71 -56q0 -39 -27 -62.5t-72 -23.5q-38 0 -73 23q-8 5 -3 16l13 27q5 10 17 3q26 -13 44 -13q33 0 33 23q0 21 -44 21q-13 0 -17 4t-2 13l17 52q-115 22 -174 116l1 -103q0 -12 -13 -12h-54q-13 0 -13 12v231q0 12 13 12h61q12 0 12 -12v-14
q0 -6 6.5 -22t23.5 -39.5t40.5 -44t63 -35t85.5 -14.5q81 0 126.5 31.5t45.5 87.5q0 34 -25 58t-65 37.5t-88.5 25.5t-97.5 27.5t-89 37t-65 60t-25 91.5q0 84 63 139t170 55q136 0 197 -79l-1 62q-1 12 12 12h55q12 0 12 -12v-216q0 -13 -12 -13h-62q-12 0 -12 13v28
q0 40 -45.5 82t-134.5 42q-69 0 -110.5 -32t-41.5 -81q0 -34 25 -58.5t65 -39t88.5 -27t97.5 -28t89 -36t65 -57.5t25 -88q0 -88 -62.5 -145.5t-187.5 -57.5z" />
    <glyph glyph-name="scedilla" unicode="&#x15f;" horiz-adv-x="495" 
d="M452 134q0 -60 -44.5 -100t-135.5 -41l-7 -21q71 0 71 -56q0 -39 -27 -62.5t-72 -23.5q-39 0 -73 23q-8 5 -3 16l13 27q5 10 17 3q26 -13 44 -13q33 0 33 23q0 21 -44 21q-13 0 -17 4t-2 13l16 50q-32 6 -58 20.5t-36.5 26t-16.5 21.5h-2l2 -52q0 -13 -13 -13h-39
q-14 0 -14 13l1 150q0 13 13 13h44q13 0 13 -13v-20q1 -3 3.5 -8.5t14 -19.5t26 -24.5t40.5 -19t58 -8.5q108 0 108 72q0 28 -31 45.5t-75.5 28t-89 24.5t-75.5 45t-31 79q0 65 47.5 103.5t120.5 38.5q97 0 142 -58h2l-3 37q0 13 14 13h36q13 0 13 -13v-139q0 -13 -14 -13
h-43q-13 0 -13 13v14q0 25 -31.5 50.5t-92.5 25.5q-40 0 -68 -18.5t-28 -52.5q0 -30 31.5 -48.5t77 -29.5t90.5 -24.5t76.5 -44t31.5 -77.5z" />
    <glyph glyph-name="Scaron" unicode="&#x160;" horiz-adv-x="669" 
d="M345 771q-7 -5 -10 -5q-5 0 -9 4l-155 126q-11 8 -2 19l24 28q9 10 19 2l123 -95l123 95q12 8 19 -2l25 -28q8 -9 -2 -19zM69 0q-13 0 -13 12v231q0 12 13 12h61q12 0 12 -12v-14q0 -6 6.5 -22t23.5 -39.5t40.5 -44t63 -35t85.5 -14.5q81 0 126.5 31.5t45.5 87.5
q0 34 -25 58t-65 37.5t-88.5 25.5t-97.5 27.5t-89 37t-65 60t-25 91.5q0 84 63 139t170 55q136 0 197 -79l-1 62q-1 12 12 12h55q12 0 12 -12v-216q0 -13 -12 -13h-62q-12 0 -12 13v28q0 40 -45.5 82t-134.5 42q-69 0 -110.5 -32t-41.5 -81q0 -34 25 -58.5t65 -39t88.5 -27
t97.5 -28t89 -36t65 -57.5t25 -88q0 -88 -62.5 -145.5t-187.5 -57.5q-50 0 -92.5 12.5t-71 33.5t-45.5 39t-29 37l1 -103q0 -12 -13 -12h-54z" />
    <glyph glyph-name="scaron" unicode="&#x161;" horiz-adv-x="495" 
d="M254 546q-4 -5 -10 -5q-5 0 -9 4l-155 136q-11 8 -2 19l24 28q9 10 19 2l123 -105l123 105q12 8 19 -2l25 -28q8 -9 -2 -19zM268 -7q-47 0 -84.5 15.5t-52 29.5t-21.5 27h-2l2 -52q0 -13 -13 -13h-39q-14 0 -14 13l1 150q0 13 13 13h44q13 0 13 -13v-20q1 -3 3.5 -8.5
t14 -19.5t26 -24.5t40.5 -19t58 -8.5q108 0 108 72q0 28 -31 45.5t-75.5 28t-89 24.5t-75.5 45t-31 79q0 65 47.5 103.5t120.5 38.5q97 0 142 -58h2l-3 37q0 13 14 13h36q13 0 13 -13v-139q0 -13 -14 -13h-43q-13 0 -13 13v14q0 25 -31.5 50.5t-92.5 25.5q-40 0 -68 -18.5
t-28 -52.5q0 -30 31.5 -48.5t77 -29.5t90.5 -24.5t76.5 -44t31.5 -77.5q0 -60 -45.5 -100.5t-138.5 -40.5z" />
    <glyph glyph-name="uni0162" unicode="&#x162;" horiz-adv-x="668" 
d="M635 718q13 0 13 -13v-158q0 -14 -13 -14h-55q-13 0 -13 14v98h-190v-572h71q13 0 13 -13v-47q0 -13 -13 -13h-88l-9 -28q71 0 71 -56q0 -39 -27 -62.5t-72 -23.5q-39 0 -73 23q-8 5 -3 16l13 27q5 10 17 3q26 -13 44 -13q33 0 33 23q0 21 -44 21q-13 0 -17 4t-2 13
l17 53h-91q-14 0 -14 13v47q0 13 14 13h75v572h-191v-98q0 -14 -13 -14h-55q-14 0 -14 14v158q0 13 14 13h602z" />
    <glyph glyph-name="uni0163" unicode="&#x163;" horiz-adv-x="360" 
d="M253 -7h-1l-7 -21q71 0 71 -56q0 -39 -27 -62.5t-72 -23.5q-39 0 -73 23q-8 5 -3 16l13 27q5 10 17 3q26 -13 44 -13q33 0 33 23q0 21 -44 21q-13 0 -17 4t-2 13l17 52q-109 27 -109 164v262h-57q-14 0 -14 13v41q0 13 14 13h57v101q0 14 13 14h56q14 0 14 -14v-101h126
q14 0 14 -13v-41q0 -13 -14 -13h-126v-260q0 -50 22 -76t63 -26q33 0 53 20q10 9 18 -1l24 -31q8 -9 -2 -19q-44 -39 -101 -39z" />
    <glyph glyph-name="Tcaron" unicode="&#x164;" horiz-adv-x="668" 
d="M344 771q-7 -5 -10 -5q-5 0 -9 4l-155 126q-11 8 -2 19l24 28q9 10 19 2l123 -95l123 95q12 8 19 -2l25 -28q8 -9 -2 -19zM217 0q-14 0 -14 13v47q0 13 14 13h75v572h-191v-98q0 -14 -13 -14h-55q-14 0 -14 14v158q0 13 14 13h602q13 0 13 -13v-158q0 -14 -13 -14h-55
q-13 0 -13 14v98h-190v-572h71q13 0 13 -13v-47q0 -13 -13 -13h-231z" />
    <glyph glyph-name="tcaron" unicode="&#x165;" horiz-adv-x="360" 
d="M243 564q0 6 7 6q16 0 28.5 13.5t12.5 39.5l-2 12q-5 -5 -19 -5q-18 0 -30.5 13t-12.5 33t13.5 33.5t33.5 13.5q26 0 40.5 -19t14.5 -54q0 -57 -22 -83.5t-57 -26.5q-7 0 -7 5v19zM253 -7q-76 0 -118 43t-42 127v262h-57q-14 0 -14 13v41q0 13 14 13h57v101q0 14 13 14
h56q14 0 14 -14v-101h126q14 0 14 -13v-41q0 -13 -14 -13h-126v-260q0 -50 22 -76t63 -26q33 0 53 20q10 9 18 -1l24 -31q8 -9 -2 -19q-44 -39 -101 -39z" />
    <glyph glyph-name="Tbar" unicode="&#x166;" horiz-adv-x="668" 
d="M635 718q13 0 13 -13v-158q0 -14 -13 -14h-55q-13 0 -13 14v98h-190v-281h82q14 0 14 -13v-42q0 -14 -14 -14h-82v-222h71q13 0 13 -13v-47q0 -13 -13 -13h-231q-14 0 -14 13v47q0 13 14 13h75v222h-103q-13 0 -13 14v42q0 13 13 13h103v281h-191v-98q0 -14 -13 -14h-55
q-14 0 -14 14v158q0 13 14 13h602z" />
    <glyph glyph-name="tbar" unicode="&#x167;" horiz-adv-x="360" 
d="M356 51q8 -9 -2 -19q-44 -39 -101 -39q-76 0 -118 43t-42 127v99h-58q-13 0 -13 14v42q0 13 13 13h58v94h-57q-14 0 -14 13v41q0 13 14 13h57v101q0 14 13 14h56q14 0 14 -14v-101h126q14 0 14 -13v-41q0 -13 -14 -13h-126v-94h129q14 0 14 -13v-42q0 -14 -14 -14h-129
v-97q0 -50 22 -76t63 -26q33 0 53 20q10 9 18 -1z" />
    <glyph glyph-name="Utilde" unicode="&#x168;" horiz-adv-x="766" 
d="M531 935q12 0 12 -12q0 -118 -90 -118q-40 0 -78 23.5t-57 23.5q-34 0 -34 -46q0 -12 -12 -12h-37q-12 0 -12 12q0 52 22.5 81t66.5 29q37 0 77 -23.5t61 -23.5q32 0 32 54q0 12 12 12h37zM565 645h-76q-13 0 -13 12v49q0 12 13 12h239q12 0 12 -12v-49q0 -12 -12 -12
h-77v-376q0 -136 -69.5 -206t-197.5 -70q-129 0 -199.5 70.5t-70.5 205.5v376h-76q-12 0 -12 12v49q0 12 12 12h239q12 0 12 -12v-49q0 -12 -12 -12h-77v-379q0 -194 184 -194q93 0 137 50.5t44 137.5v385z" />
    <glyph glyph-name="utilde" unicode="&#x169;" horiz-adv-x="594" 
d="M433 706q12 0 12 -12q0 -120 -90 -120q-41 0 -80 24.5t-58 24.5q-16 0 -23.5 -10t-7.5 -36q0 -12 -12 -12h-37q-12 0 -12 12q0 53 22.5 82.5t66.5 29.5q37 0 77 -24.5t61 -24.5q18 0 25 12t7 42q0 12 12 12h37zM467 0q-43 0 -43 42v37h-3q-45 -86 -156 -86
q-80 0 -127 47.5t-47 126.5v258h-57q-12 0 -12 12v43q0 12 12 12h96q43 0 43 -42v-263q0 -58 28 -91t82 -33q28 0 52 9t38.5 21t24.5 25.5t14 21.5t4 10v275h-54q-12 0 -12 12v43q0 12 12 12h124q12 0 12 -12v-413h56q13 0 13 -12v-43q0 -12 -13 -12h-87z" />
    <glyph glyph-name="Umacron" unicode="&#x16a;" horiz-adv-x="766" 
d="M235 808q-13 0 -13 13v42q0 14 13 14h296q13 0 13 -14v-42q0 -13 -13 -13h-296zM565 645h-76q-13 0 -13 12v49q0 12 13 12h239q12 0 12 -12v-49q0 -12 -12 -12h-77v-376q0 -136 -69.5 -206t-197.5 -70q-129 0 -199.5 70.5t-70.5 205.5v376h-76q-12 0 -12 12v49
q0 12 12 12h239q12 0 12 -12v-49q0 -12 -12 -12h-77v-379q0 -194 184 -194q93 0 137 50.5t44 137.5v385z" />
    <glyph glyph-name="umacron" unicode="&#x16b;" horiz-adv-x="594" 
d="M138 598q-13 0 -13 13v42q0 14 13 14h296q13 0 13 -14v-42q0 -13 -13 -13h-296zM467 0q-43 0 -43 42v37h-3q-45 -86 -156 -86q-80 0 -127 47.5t-47 126.5v258h-57q-12 0 -12 12v43q0 12 12 12h96q43 0 43 -42v-263q0 -58 28 -91t82 -33q28 0 52 9t38.5 21t24.5 25.5
t14 21.5t4 10v275h-54q-12 0 -12 12v43q0 12 12 12h124q12 0 12 -12v-413h56q13 0 13 -12v-43q0 -12 -13 -12h-87z" />
    <glyph glyph-name="Ubreve" unicode="&#x16c;" horiz-adv-x="766" 
d="M510 934q13 0 13 -13q0 -67 -39 -103t-102 -36q-62 0 -100.5 36t-38.5 103q0 13 13 13h42q13 0 13 -13q0 -37 20.5 -57.5t50.5 -20.5q31 0 52 20.5t21 57.5q0 13 13 13h42zM565 645h-76q-13 0 -13 12v49q0 12 13 12h239q12 0 12 -12v-49q0 -12 -12 -12h-77v-376
q0 -136 -69.5 -206t-197.5 -70q-129 0 -199.5 70.5t-70.5 205.5v376h-76q-12 0 -12 12v49q0 12 12 12h239q12 0 12 -12v-49q0 -12 -12 -12h-77v-379q0 -194 184 -194q93 0 137 50.5t44 137.5v385z" />
    <glyph glyph-name="ubreve" unicode="&#x16d;" horiz-adv-x="594" 
d="M414 714q13 0 13 -13q0 -67 -39 -103t-102 -36q-62 0 -100.5 36t-38.5 103q0 13 13 13h42q13 0 13 -13q0 -37 20.5 -57.5t50.5 -20.5q31 0 52 20.5t21 57.5q0 13 13 13h42zM467 0q-43 0 -43 42v37h-3q-45 -86 -156 -86q-80 0 -127 47.5t-47 126.5v258h-57q-12 0 -12 12
v43q0 12 12 12h96q43 0 43 -42v-263q0 -58 28 -91t82 -33q28 0 52 9t38.5 21t24.5 25.5t14 21.5t4 10v275h-54q-12 0 -12 12v43q0 12 12 12h124q12 0 12 -12v-413h56q13 0 13 -12v-43q0 -12 -13 -12h-87z" />
    <glyph glyph-name="Uring" unicode="&#x16e;" horiz-adv-x="766" 
d="M383 761q-38 0 -66.5 28.5t-28.5 67.5q0 38 28.5 66t66.5 28q39 0 67 -28t28 -66q0 -39 -28 -67.5t-67 -28.5zM383 819q15 0 25.5 10.5t10.5 27.5q0 16 -10.5 26.5t-25.5 10.5q-14 0 -24.5 -10.5t-10.5 -26.5q0 -17 10.5 -27.5t24.5 -10.5zM565 645h-76q-13 0 -13 12v49
q0 12 13 12h239q12 0 12 -12v-49q0 -12 -12 -12h-77v-376q0 -136 -69.5 -206t-197.5 -70q-129 0 -199.5 70.5t-70.5 205.5v376h-76q-12 0 -12 12v49q0 12 12 12h239q12 0 12 -12v-49q0 -12 -12 -12h-77v-379q0 -194 184 -194q93 0 137 50.5t44 137.5v385z" />
    <glyph glyph-name="uring" unicode="&#x16f;" horiz-adv-x="594" 
d="M286 554q-38 0 -66.5 28.5t-28.5 67.5q0 38 28.5 66t66.5 28q39 0 67 -28t28 -66q0 -39 -28 -67.5t-67 -28.5zM286 612q15 0 25.5 10.5t10.5 27.5q0 16 -10.5 26.5t-25.5 10.5q-14 0 -24.5 -10.5t-10.5 -26.5q0 -17 10.5 -27.5t24.5 -10.5zM467 0q-43 0 -43 42v37h-3
q-45 -86 -156 -86q-80 0 -127 47.5t-47 126.5v258h-57q-12 0 -12 12v43q0 12 12 12h96q43 0 43 -42v-263q0 -58 28 -91t82 -33q28 0 52 9t38.5 21t24.5 25.5t14 21.5t4 10v275h-54q-12 0 -12 12v43q0 12 12 12h124q12 0 12 -12v-413h56q13 0 13 -12v-43q0 -12 -13 -12h-87z
" />
    <glyph glyph-name="Uhungarumlaut" unicode="&#x170;" horiz-adv-x="766" 
d="M273 781q-7 -8 -19 -1l-29 25q-10 7 -2 19l115 147q10 11 19 2l38 -31q7 -13 2 -19zM464 781q-7 -8 -19 -1l-29 25q-10 7 -2 19l115 147q10 11 19 2l38 -31q7 -13 2 -19zM565 645h-76q-13 0 -13 12v49q0 12 13 12h239q12 0 12 -12v-49q0 -12 -12 -12h-77v-376
q0 -136 -69.5 -206t-197.5 -70q-129 0 -199.5 70.5t-70.5 205.5v376h-76q-12 0 -12 12v49q0 12 12 12h239q12 0 12 -12v-49q0 -12 -12 -12h-77v-379q0 -194 184 -194q93 0 137 50.5t44 137.5v385z" />
    <glyph glyph-name="uhungarumlaut" unicode="&#x171;" horiz-adv-x="594" 
d="M185 546q-8 -9 -19 -2l-26 17q-11 8 -3 19l100 157q8 11 19 4l41 -29q9 -9 3 -18zM350 545q-11 -9 -20 -2l-25 18q-12 7 -3 19l99 156q8 12 20 5l40 -29q9 -9 4 -19zM467 0q-43 0 -43 42v37h-3q-45 -86 -156 -86q-80 0 -127 47.5t-47 126.5v258h-57q-12 0 -12 12v43
q0 12 12 12h96q43 0 43 -42v-263q0 -58 28 -91t82 -33q28 0 52 9t38.5 21t24.5 25.5t14 21.5t4 10v275h-54q-12 0 -12 12v43q0 12 12 12h124q12 0 12 -12v-413h56q13 0 13 -12v-43q0 -12 -13 -12h-87z" />
    <glyph glyph-name="Uogonek" unicode="&#x172;" horiz-adv-x="766" 
d="M728 718q12 0 12 -12v-49q0 -12 -12 -12h-77v-376q0 -112 -47.5 -179.5t-137.5 -87.5q-72 -36 -72 -77q0 -16 8 -24.5t20 -8.5q18 0 36 10q13 7 18 -1l14 -25q6 -10 -4 -17q-34 -23 -74 -23q-38 0 -60.5 20t-22.5 54q0 52 61 83h-6q-129 0 -199.5 70.5t-70.5 205.5v376
h-76q-12 0 -12 12v49q0 12 12 12h239q12 0 12 -12v-49q0 -12 -12 -12h-77v-379q0 -194 184 -194q93 0 137 50.5t44 137.5v385h-76q-13 0 -13 12v49q0 12 13 12h239z" />
    <glyph glyph-name="uogonek" unicode="&#x173;" horiz-adv-x="594" 
d="M585 -124q6 -10 -4 -17q-35 -23 -74 -23q-38 0 -60.5 20t-22.5 54q0 61 77 90h-34q-43 0 -43 42v37h-3q-45 -86 -156 -86q-80 0 -127 47.5t-47 126.5v258h-57q-12 0 -12 12v43q0 12 12 12h96q43 0 43 -42v-263q0 -58 28 -91t82 -33q28 0 52 9t38.5 21t24.5 25.5t14 21.5
t4 10v275h-54q-12 0 -12 12v43q0 12 12 12h124q12 0 12 -12v-413h56q13 0 13 -12v-43q0 -5 -3 -8h2h-1q-1 -1 -2 -1q-1 -1 -5 -3q-69 -33 -69 -75q0 -16 8 -24.5t20 -8.5q18 0 36 10q13 7 18 -1z" />
    <glyph glyph-name="Wcircumflex" unicode="&#x174;" horiz-adv-x="999" 
d="M642 772q-8 -10 -19 -2l-123 95l-123 -95q-9 -8 -19 2l-24 29q-9 11 2 19l155 126q4 4 9 4q6 0 10 -5l155 -125q11 -8 2 -19zM663 0q-37 0 -47 40l-116 509h-3l-114 -509q-10 -40 -48 -40h-37q-35 0 -47 40l-184 605h-63q-13 0 -13 12v49q0 12 13 12h225q13 0 13 -12v-49
q0 -12 -13 -12h-70l155 -543h6l139 616h80l140 -616h6l155 543h-70q-13 0 -13 12v49q0 12 13 12h225q13 0 13 -12v-49q0 -12 -13 -12h-64l-183 -605q-12 -40 -47 -40h-38z" />
    <glyph glyph-name="wcircumflex" unicode="&#x175;" horiz-adv-x="803" 
d="M544 549q-8 -10 -19 -2l-123 105l-123 -105q-9 -8 -19 2l-24 29q-9 11 2 19l155 136q4 4 9 4q6 0 10 -5l155 -135q10 -10 2 -19zM512 0q-21 0 -25 21l-84 335h-3l-86 -335q-4 -21 -25 -21h-57q-16 0 -24 21l-134 404h-53q-12 0 -12 12v43q0 12 12 12h186q13 0 13 -12v-43
q0 -12 -13 -12h-45l100 -337h2l88 337h-38q-12 0 -12 12v43q0 12 12 12h175q13 0 13 -12v-43q0 -12 -13 -12h-35l85 -337h2l100 337h-45q-13 0 -13 12v43q0 12 13 12h186q12 0 12 -12v-43q0 -12 -12 -12h-56l-133 -404q-7 -21 -24 -21h-57z" />
    <glyph glyph-name="Ycircumflex" unicode="&#x176;" horiz-adv-x="648" 
d="M475 772q-8 -10 -19 -2l-123 95l-123 -95q-9 -8 -19 2l-24 29q-9 11 2 19l155 126q4 4 9 4q6 0 10 -5l155 -125q11 -8 2 -19zM203 0q-12 0 -12 12v49q0 12 12 12h78v214l-209 358h-68q-12 0 -12 12v49q0 12 12 12h230q13 0 13 -12v-49q0 -12 -13 -12h-65l156 -281h4
l154 281h-68q-12 0 -12 12v49q0 12 12 12h229q13 0 13 -12v-49q0 -12 -13 -12h-68l-210 -358v-214h79q12 0 12 -12v-49q0 -12 -12 -12h-242z" />
    <glyph glyph-name="ycircumflex" unicode="&#x177;" horiz-adv-x="571" 
d="M440 549q-8 -10 -19 -2l-123 105l-123 -105q-9 -8 -19 2l-24 29q-9 11 2 19l155 136q4 4 9 4q6 0 10 -5l155 -135q10 -10 2 -19zM264 11h-13q-16 0 -26 25l-153 389h-55q-12 0 -12 12v43q0 12 12 12h181q13 0 13 -12v-43q0 -12 -13 -12h-41l129 -339h2l120 339h-45
q-12 0 -12 12v43q0 12 12 12h186q12 0 12 -12v-43q0 -12 -12 -12h-56l-180 -489q-33 -90 -68 -130t-100 -40q-57 0 -101 39q-10 10 -3 18l25 32q9 7 18 1q25 -20 53 -20q37 0 58.5 22.5t41.5 78.5z" />
    <glyph glyph-name="Ydieresis" unicode="&#x178;" horiz-adv-x="648" 
d="M287 858q0 -22 -15.5 -38t-38.5 -16t-39 15.5t-16 38.5t16 39.5t39 16.5q22 0 38 -16.5t16 -39.5zM489 858q0 -22 -16.5 -38t-39.5 -16t-38.5 15.5t-15.5 38.5t15.5 39.5t38.5 16.5t39.5 -16.5t16.5 -39.5zM203 0q-12 0 -12 12v49q0 12 12 12h78v214l-209 358h-68
q-12 0 -12 12v49q0 12 12 12h230q13 0 13 -12v-49q0 -12 -13 -12h-65l156 -281h4l154 281h-68q-12 0 -12 12v49q0 12 12 12h229q13 0 13 -12v-49q0 -12 -13 -12h-68l-210 -358v-214h79q12 0 12 -12v-49q0 -12 -12 -12h-242z" />
    <glyph glyph-name="Zacute" unicode="&#x179;" horiz-adv-x="641" 
d="M249 768q-11 -7 -18 6l-22 31q-9 11 3 19l176 123q10 8 19 -3l28 -42q5 -10 -5 -19zM62 0q-13 0 -13 13v43q0 11 19 34l415 555h-352v-82q0 -13 -14 -13h-55q-13 0 -13 13v142q0 13 13 13h517q13 0 13 -13v-37q0 -11 -21 -41l-414 -554h353v82q0 13 14 13h55q13 0 13 -13
v-142q0 -13 -13 -13h-517z" />
    <glyph glyph-name="zacute" unicode="&#x17a;" horiz-adv-x="542" 
d="M229 542q-10 -7 -19 3l-25 29q-9 11 2 19l161 141q10 10 19 -1l32 -38q7 -10 -2 -19zM62 0q-12 0 -12 12v41q0 19 15 34l323 338h-268v-77q0 -12 -12 -12h-46q-12 0 -12 12v132q0 12 12 12h418q12 0 12 -12v-35q0 -19 -15 -32l-328 -346h273v79q0 12 12 12h46
q12 0 12 -12v-134q0 -12 -12 -12h-418z" />
    <glyph glyph-name="Zdotaccent" unicode="&#x17b;" horiz-adv-x="641" 
d="M380 850q0 -24 -17.5 -41t-41.5 -17q-25 0 -42 17t-17 41q0 25 17 42.5t42 17.5q24 0 41.5 -17.5t17.5 -42.5zM62 0q-13 0 -13 13v43q0 11 19 34l415 555h-352v-82q0 -13 -14 -13h-55q-13 0 -13 13v142q0 13 13 13h517q13 0 13 -13v-37q0 -11 -21 -41l-414 -554h353v82
q0 13 14 13h55q13 0 13 -13v-142q0 -13 -13 -13h-517z" />
    <glyph glyph-name="zdotaccent" unicode="&#x17c;" horiz-adv-x="542" 
d="M330 642q0 -24 -17.5 -41t-41.5 -17q-25 0 -42 17t-17 41q0 25 17 42.5t42 17.5q24 0 41.5 -17.5t17.5 -42.5zM62 0q-12 0 -12 12v41q0 19 15 34l323 338h-268v-77q0 -12 -12 -12h-46q-12 0 -12 12v132q0 12 12 12h418q12 0 12 -12v-35q0 -19 -15 -32l-328 -346h273v79
q0 12 12 12h46q12 0 12 -12v-134q0 -12 -12 -12h-418z" />
    <glyph glyph-name="Zcaron" unicode="&#x17d;" horiz-adv-x="641" 
d="M331 771q-7 -5 -10 -5q-5 0 -9 4l-155 126q-11 8 -2 19l24 28q9 10 19 2l123 -95l123 95q12 8 19 -2l25 -28q8 -9 -2 -19zM62 0q-13 0 -13 13v43q0 11 19 34l415 555h-352v-82q0 -13 -14 -13h-55q-13 0 -13 13v142q0 13 13 13h517q13 0 13 -13v-37q0 -11 -21 -41
l-414 -554h353v82q0 13 14 13h55q13 0 13 -13v-142q0 -13 -13 -13h-517z" />
    <glyph glyph-name="zcaron" unicode="&#x17e;" horiz-adv-x="542" 
d="M277 546q-4 -5 -10 -5q-5 0 -9 4l-155 136q-11 8 -2 19l24 28q9 10 19 2l123 -105l123 105q12 8 19 -2l25 -28q8 -9 -2 -19zM62 0q-12 0 -12 12v41q0 19 15 34l323 338h-268v-77q0 -12 -12 -12h-46q-12 0 -12 12v132q0 12 12 12h418q12 0 12 -12v-35q0 -19 -15 -32
l-328 -346h273v79q0 12 12 12h46q12 0 12 -12v-134q0 -12 -12 -12h-418z" />
    <glyph glyph-name="longs" unicode="&#x17f;" horiz-adv-x="317" 
d="M51 0q-12 0 -12 12v43q0 12 12 12h56v358h-58q-12 0 -12 12v43q0 12 12 12h58v62q0 83 42.5 126.5t118.5 43.5q56 0 101 -40q10 -9 2 -17l-23 -31q-10 -8 -18 -2q-19 19 -54 19q-41 0 -63.5 -25.5t-22.5 -74.5v-486h88q12 0 12 -12v-43q0 -12 -12 -12h-227z" />
    <glyph glyph-name="florin" unicode="&#x192;" horiz-adv-x="517" 
d="M214 425h-57q-13 0 -13 12v43q0 12 13 12h57v62q0 83 42.5 126.5t118.5 43.5q56 0 101 -40q10 -9 3 -17l-24 -31q-9 -9 -17 -2q-24 19 -55 19q-41 0 -63.5 -25.5t-22.5 -74.5v-61h128q12 0 12 -12v-43q0 -12 -12 -12h-128v-488q0 -84 -42 -127.5t-118 -43.5
q-61 0 -101 40q-10 9 -3 18l24 30q9 10 17 2q22 -18 55 -18q85 0 85 100v487z" />
    <glyph glyph-name="uni01EA" unicode="&#x1ea;" horiz-adv-x="795" 
d="M464 -1q-66 -33 -66 -74q0 -16 8 -24.5t20 -8.5q18 0 36 10q13 7 18 -1l14 -25q6 -10 -4 -17q-35 -23 -74 -23q-38 0 -60.5 20t-22.5 54q0 52 61 83q-148 2 -246 105t-98 265q0 164 102.5 262.5t245.5 98.5t245.5 -98.5t102.5 -262.5q0 -146 -78.5 -244.5t-203.5 -119.5z
M140 360q0 -133 77.5 -210.5t180.5 -77.5t180.5 77.5t77.5 210.5q0 134 -79 209.5t-179 75.5t-179 -75.5t-79 -209.5z" />
    <glyph glyph-name="uni01EB" unicode="&#x1eb;" horiz-adv-x="586" 
d="M542 248q0 -93 -46 -157t-124 -87l-4 -2q-3 -1 -6.5 -3t-9 -4.5t-10.5 -6t-11 -7.5t-11 -8.5t-9.5 -10t-8 -11.5t-5.5 -12.5t-2 -13.5q0 -16 8 -24.5t20 -8.5q18 0 36 10q13 7 18 -1l14 -25q6 -10 -4 -17q-35 -23 -74 -23q-38 0 -60.5 20t-22.5 54q0 52 61 83
q-108 1 -177.5 70.5t-69.5 184.5t71 183t178 68t178 -68.5t71 -182.5zM293 63q70 0 117.5 50.5t47.5 133.5q0 82 -48.5 132t-116.5 50t-116.5 -50t-48.5 -132q0 -83 47.5 -133.5t117.5 -50.5z" />
    <glyph glyph-name="AEacute" unicode="&#x1fc;" horiz-adv-x="987" 
d="M502 768q-11 -7 -18 6l-22 31q-9 11 3 19l176 123q10 8 19 -3l28 -42q5 -10 -5 -19zM390 0q-12 0 -12 12v49q0 12 12 12h77v249h-208l-105 -249h70q12 0 12 -12v-49q0 -12 -12 -12h-224q-12 0 -12 12v49q0 12 12 12h68l242 572h-55q-12 0 -12 12v49q0 12 12 12h664
q12 0 12 -12v-160q0 -12 -12 -12h-53q-12 0 -12 12v99h-302v-250h253q13 0 13 -12v-49q0 -12 -13 -12h-253v-249h301v98q0 12 13 12h53q12 0 12 -12v-159q0 -12 -12 -12h-529zM467 645h-71l-107 -250h178v250z" />
    <glyph glyph-name="aeacute" unicode="&#x1fd;" horiz-adv-x="888" 
d="M403 542q-10 -7 -19 3l-25 29q-9 11 2 19l161 141q10 10 19 -1l32 -38q7 -10 -2 -19zM199 -8q-72 0 -118 37.5t-46 101.5q0 158 268 158h84v14q0 126 -130 126q-30 0 -56 -5t-42.5 -12t-28 -14t-17.5 -12t-7 -5q-10 -4 -15 3l-28 35q-7 8 2 16q3 4 9 9.5t23 15.5t37.5 18
t54 14.5t71.5 6.5q137 0 180 -88q33 42 81.5 65t101.5 23q109 0 166 -67.5t57 -191.5q0 -13 -13 -13h-361q4 -80 52.5 -122t113.5 -42q58 0 101.5 26t58.5 51q7 12 17 3l28 -27q9 -9 3 -18q-7 -11 -21 -26t-39.5 -34t-66 -32t-86.5 -13q-69 0 -125 31t-87 87
q-31 -46 -86 -82.5t-136 -36.5zM474 294h291q-3 60 -39 97.5t-100 37.5q-58 0 -100.5 -35t-51.5 -100zM224 63q27 0 52 7.5t42 18.5t32 24.5t23 24.5t15 20l6 9q-7 23 -7 55h-79q-42 0 -73.5 -3.5t-58.5 -12t-41 -24.5t-14 -40q0 -34 28.5 -56.5t74.5 -22.5z" />
    <glyph glyph-name="Oslashacute" unicode="&#x1fe;" horiz-adv-x="795" 
d="M308 774l-22 31q-9 11 3 19l176 123q10 8 19 -3l28 -42q5 -10 -5 -19l-181 -115q-11 -7 -18 6zM531 699q96 -38 155.5 -125.5t59.5 -210.5q0 -165 -99 -267.5t-249 -102.5q-38 0 -76 8l-14 -46q-3 -13 -15 -13h-38q-12 0 -9 13l19 63q-98 40 -156.5 131t-58.5 214
q0 164 102.5 262.5t245.5 98.5q36 0 76 -8l14 48q4 12 17 12h37q12 0 8 -12zM140 360q0 -95 41 -162.5t108 -99.5l162 541q-27 6 -53 6q-100 0 -179 -75.5t-79 -209.5zM398 72q103 0 180.5 77.5t77.5 210.5q0 95 -41.5 161t-107.5 99l-162 -542q26 -6 53 -6z" />
    <glyph glyph-name="oslashacute" unicode="&#x1ff;" horiz-adv-x="586" 
d="M232 545l-25 29q-9 11 2 19l161 141q10 10 19 -1l32 -38q7 -10 -2 -19l-168 -134q-10 -7 -19 3zM429 463q53 -32 83 -87.5t30 -127.5q0 -115 -70 -185t-179 -70q-48 0 -94 16l-11 -21q-6 -12 -15 -12h-27q-6 0 -9 3.5t0 8.5l21 41q-54 31 -84 88t-30 131q0 115 71 183
t178 68q48 0 94 -16l10 19q5 13 17 13h27q13 0 8 -13zM128 247q0 -97 65 -149l161 319q-28 12 -61 12q-68 0 -116.5 -50t-48.5 -132zM293 63q70 0 117.5 50.5t47.5 133.5q0 95 -64 147l-162 -319q28 -12 61 -12z" />
    <glyph glyph-name="Scommaaccent" unicode="&#x218;" horiz-adv-x="669" 
d="M69 0q-13 0 -13 12v231q0 12 13 12h61q12 0 12 -12v-14q0 -6 6.5 -22t23.5 -39.5t40.5 -44t63 -35t85.5 -14.5q81 0 126.5 31.5t45.5 87.5q0 34 -25 58t-65 37.5t-88.5 25.5t-97.5 27.5t-89 37t-65 60t-25 91.5q0 84 63 139t170 55q136 0 197 -79l-1 62q-1 12 12 12h55
q12 0 12 -12v-216q0 -13 -12 -13h-62q-12 0 -12 13v28q0 40 -45.5 82t-134.5 42q-69 0 -110.5 -32t-41.5 -81q0 -34 25 -58.5t65 -39t88.5 -27t97.5 -28t89 -36t65 -57.5t25 -88q0 -88 -62.5 -145.5t-187.5 -57.5q-50 0 -92.5 12.5t-71 33.5t-45.5 39t-29 37l1 -103
q0 -12 -13 -12h-54zM300 -205q0 6 7 6q15 0 28 15.5t13 37.5l-2 11q-5 -5 -19 -5q-18 0 -30.5 13t-12.5 34q0 19 14 33t33 14q27 0 43 -20t16 -55q0 -55 -23 -82t-60 -27q-7 0 -7 6v19z" />
    <glyph glyph-name="scommaaccent" unicode="&#x219;" horiz-adv-x="495" 
d="M268 -7q-47 0 -84.5 15.5t-52 29.5t-21.5 27h-2l2 -52q0 -13 -13 -13h-39q-14 0 -14 13l1 150q0 13 13 13h44q13 0 13 -13v-20q1 -3 3.5 -8.5t14 -19.5t26 -24.5t40.5 -19t58 -8.5q108 0 108 72q0 28 -31 45.5t-75.5 28t-89 24.5t-75.5 45t-31 79q0 65 47.5 103.5
t120.5 38.5q97 0 142 -58h2l-3 37q0 13 14 13h36q13 0 13 -13v-139q0 -13 -14 -13h-43q-13 0 -13 13v14q0 25 -31.5 50.5t-92.5 25.5q-40 0 -68 -18.5t-28 -52.5q0 -30 31.5 -48.5t77 -29.5t90.5 -24.5t76.5 -44t31.5 -77.5q0 -60 -45.5 -100.5t-138.5 -40.5zM213 -205
q0 6 7 6q15 0 28 15.5t13 37.5l-2 11q-5 -5 -19 -5q-18 0 -30.5 13t-12.5 34q0 19 13.5 33t33.5 14q27 0 43 -20t16 -55q0 -55 -23 -82t-60 -27q-7 0 -7 6v19z" />
    <glyph glyph-name="uni021A" unicode="&#x21a;" horiz-adv-x="668" 
d="M217 0q-14 0 -14 13v47q0 13 14 13h75v572h-191v-98q0 -14 -13 -14h-55q-14 0 -14 14v158q0 13 14 13h602q13 0 13 -13v-158q0 -14 -13 -14h-55q-13 0 -13 14v98h-190v-572h71q13 0 13 -13v-47q0 -13 -13 -13h-231zM299 -205q0 6 7 6q15 0 28 15.5t13 37.5l-2 11
q-5 -5 -19 -5q-18 0 -30.5 13t-12.5 34q0 19 13.5 33t33.5 14q27 0 43 -20t16 -55q0 -55 -23 -82t-60 -27q-7 0 -7 6v19z" />
    <glyph glyph-name="uni021B" unicode="&#x21b;" horiz-adv-x="360" 
d="M253 -7q-76 0 -118 43t-42 127v262h-57q-14 0 -14 13v41q0 13 14 13h57v101q0 14 13 14h56q14 0 14 -14v-101h126q14 0 14 -13v-41q0 -13 -14 -13h-126v-260q0 -50 22 -76t63 -26q33 0 53 20q10 9 18 -1l24 -31q8 -9 -2 -19q-44 -39 -101 -39zM193 -205q0 6 7 6
q15 0 28 15.5t13 37.5l-2 11q-5 -5 -19 -5q-18 0 -30.5 13t-12.5 34q0 19 13.5 33t33.5 14q27 0 43 -20t16 -55q0 -55 -23 -82t-60 -27q-7 0 -7 6v19z" />
    <glyph glyph-name="circumflex" unicode="&#x2c6;" horiz-adv-x="410" 
d="M346 549q-8 -10 -19 -2l-123 105l-123 -105q-9 -8 -19 2l-24 29q-9 11 2 19l155 136q4 4 9 4q6 0 10 -5l155 -135q10 -10 2 -19z" />
    <glyph glyph-name="caron" unicode="&#x2c7;" horiz-adv-x="410" 
d="M214 546q-4 -5 -10 -5q-5 0 -9 4l-155 136q-11 8 -2 19l24 28q9 10 19 2l123 -105l123 105q12 8 19 -2l25 -28q8 -9 -2 -19z" />
    <glyph glyph-name="breve" unicode="&#x2d8;" horiz-adv-x="360" 
d="M307 714q13 0 13 -13q0 -67 -39 -103t-102 -36q-62 0 -100.5 36t-38.5 103q0 13 13 13h42q13 0 13 -13q0 -37 20.5 -57.5t50.5 -20.5q31 0 52 20.5t21 57.5q0 13 13 13h42z" />
    <glyph glyph-name="dotaccent" unicode="&#x2d9;" horiz-adv-x="184" 
d="M158 642q0 -24 -17.5 -41t-41.5 -17q-25 0 -42 17t-17 41q0 25 17 42.5t42 17.5q24 0 41.5 -17.5t17.5 -42.5z" />
    <glyph glyph-name="ring" unicode="&#x2da;" horiz-adv-x="225" 
d="M135 554q-38 0 -66.5 28.5t-28.5 67.5q0 38 28.5 66t66.5 28q39 0 67 -28t28 -66q0 -39 -28 -67.5t-67 -28.5zM135 612q15 0 25.5 10.5t10.5 27.5q0 16 -10.5 26.5t-25.5 10.5q-14 0 -24.5 -10.5t-10.5 -26.5q0 -17 10.5 -27.5t24.5 -10.5z" />
    <glyph glyph-name="ogonek" unicode="&#x2db;" horiz-adv-x="229" 
d="M193 -124q6 -10 -4 -17q-35 -23 -74 -23q-38 0 -60.5 20t-22.5 54q0 32 22.5 55.5t45.5 30.5l22 8h52l-4 -2q-3 -1 -6.5 -3t-9 -4.5t-10.5 -6t-11 -7.5t-11 -8.5t-9.5 -10t-8 -11.5t-5.5 -12.5t-2 -13.5q0 -16 8 -24.5t20 -8.5q18 0 36 10q13 7 18 -1z" />
    <glyph glyph-name="tilde" unicode="&#x2dc;" horiz-adv-x="384" 
d="M358 706q12 0 12 -12q0 -120 -90 -120q-41 0 -80 24.5t-58 24.5q-16 0 -23.5 -10t-7.5 -36q0 -12 -12 -12h-37q-12 0 -12 12q0 53 22.5 82.5t66.5 29.5q37 0 77 -24.5t61 -24.5q18 0 25 12t7 42q0 12 12 12h37z" />
    <glyph glyph-name="hungarumlaut" unicode="&#x2dd;" horiz-adv-x="463" 
d="M130 546q-8 -9 -19 -2l-26 17q-11 8 -3 19l100 157q8 11 19 4l41 -29q9 -9 3 -18zM295 545q-11 -9 -20 -2l-25 18q-12 7 -3 19l99 156q8 12 20 5l40 -29q9 -9 4 -19z" />
    <glyph glyph-name="gravecomb" unicode="&#x300;" 
d="M-94 543l-168 134q-9 7 -2 19l32 37q9 11 19 2l161 -142q11 -8 2 -19l-25 -29q-9 -10 -19 -2z" />
    <glyph glyph-name="acutecomb" unicode="&#x301;" 
d="M-213 542q-10 -7 -19 3l-25 29q-9 11 2 19l161 141q10 10 19 -1l32 -38q7 -10 -2 -19z" />
    <glyph glyph-name="uni0302" unicode="&#x302;" 
d="M-64 549q-8 -10 -19 -2l-123 105l-123 -105q-9 -8 -19 2l-24 29q-9 11 2 19l155 136q4 4 9 4q6 0 10 -5l155 -135q10 -10 2 -19z" />
    <glyph glyph-name="tildecomb" unicode="&#x303;" 
d="M-62 706q12 0 12 -12q0 -120 -90 -120q-41 0 -80 24.5t-58 24.5q-16 0 -23.5 -10t-7.5 -36q0 -12 -12 -12h-37q-12 0 -12 12q0 53 22.5 82.5t66.5 29.5q37 0 77 -24.5t61 -24.5q18 0 25 12t7 42q0 12 12 12h37z" />
    <glyph glyph-name="uni0304" unicode="&#x304;" 
d="M-349 598q-13 0 -13 13v42q0 14 13 14h296q13 0 13 -14v-42q0 -13 -13 -13h-296z" />
    <glyph glyph-name="uni0306" unicode="&#x306;" 
d="M-53 714q13 0 13 -13q0 -67 -39 -103t-102 -36q-62 0 -100.5 36t-38.5 103q0 13 13 13h42q13 0 13 -13q0 -37 20.5 -57.5t50.5 -20.5q31 0 52 20.5t21 57.5q0 13 13 13h42z" />
    <glyph glyph-name="uni0307" unicode="&#x307;" 
d="M-40 642q0 -24 -17.5 -41t-41.5 -17q-25 0 -42 17t-17 41q0 25 17 42.5t42 17.5q24 0 41.5 -17.5t17.5 -42.5z" />
    <glyph glyph-name="uni0308" unicode="&#x308;" 
d="M-230 638q0 -23 -16.5 -39.5t-39.5 -16.5t-39 16.5t-16 39.5t16 40t39 17t39.5 -17t16.5 -40zM-35 638q0 -23 -16.5 -39.5t-40.5 -16.5q-23 0 -38.5 16.5t-15.5 39.5q0 24 15.5 40.5t38.5 16.5q24 0 40.5 -17t16.5 -40z" />
    <glyph glyph-name="uni030A" unicode="&#x30a;" 
d="M-135 554q-38 0 -66.5 28.5t-28.5 67.5q0 38 28.5 66t66.5 28q39 0 67 -28t28 -66q0 -39 -28 -67.5t-67 -28.5zM-135 612q15 0 25.5 10.5t10.5 27.5q0 16 -10.5 26.5t-25.5 10.5q-14 0 -24.5 -10.5t-10.5 -26.5q0 -17 10.5 -27.5t24.5 -10.5z" />
    <glyph glyph-name="uni030B" unicode="&#x30b;" 
d="M-333 546q-8 -9 -19 -2l-26 17q-11 8 -3 19l100 157q8 11 19 4l41 -29q9 -9 3 -18zM-168 545q-11 -9 -20 -2l-25 18q-12 7 -3 19l99 156q8 12 20 5l40 -29q9 -9 4 -19z" />
    <glyph glyph-name="uni030C" unicode="&#x30c;" 
d="M-196 546q-4 -5 -10 -5q-5 0 -9 4l-155 136q-11 8 -2 19l24 28q9 10 19 2l123 -105l123 105q12 8 19 -2l25 -28q8 -9 -2 -19z" />
    <glyph glyph-name="uni0326" unicode="&#x326;" 
d="M-121 -205q0 6 7 6q15 0 28 15.5t13 37.5l-2 11q-5 -5 -19 -5q-18 0 -30.5 13t-12.5 34q0 19 13.5 33t33.5 14q27 0 43 -20t16 -55q0 -55 -23 -82t-60 -27q-7 0 -7 6v19z" />
    <glyph glyph-name="uni0327" unicode="&#x327;" 
d="M-128 -170q-38 0 -73 23q-8 5 -3 16l13 27q5 10 17 3q26 -13 44 -13q33 0 33 23q0 21 -44 21q-13 0 -17 4t-2 13l23 71l52 -1l-15 -45q71 0 71 -56q0 -39 -27 -62.5t-72 -23.5z" />
    <glyph glyph-name="uni0328" unicode="&#x328;" 
d="M-36 -124q6 -10 -4 -17q-34 -23 -74 -23q-38 0 -60.5 20t-22.5 54q0 32 22.5 55.5t44.5 30.5l23 8h52l-3 -2q-4 -1 -7.5 -3t-9 -4.5t-10.5 -6t-11 -7.5t-11 -8.5t-9.5 -10t-8 -11.5t-5.5 -12.5t-2 -13.5q0 -16 8 -24.5t20 -8.5q18 0 36 10q13 7 18 -1z" />
    <glyph glyph-name="uni0335" unicode="&#x335;" 
d="M-350 240q-13 0 -13 14v42q0 13 13 13h270q14 0 14 -13v-42q0 -14 -14 -14h-270z" />
    <glyph glyph-name="uni0336" unicode="&#x336;" 
d="M-741 486q-11 0 -11 11v42q0 11 11 11h653q11 0 11 -11v-42q0 -11 -11 -11h-653z" />
    <glyph glyph-name="uni0337" unicode="&#x337;" 
d="M-314 260q-10 -8 -18 3l-16 22q-8 10 4 19l255 178q10 7 18 -3l16 -22q8 -11 -4 -20z" />
    <glyph glyph-name="uni0338" unicode="&#x338;" 
d="M-302 -17q-6 -12 -15 -12h-27q-6 0 -9 3.5t0 8.5l260 514q5 13 17 13h27q13 0 8 -13z" />
    <glyph glyph-name="Wgrave" unicode="&#x1e80;" horiz-adv-x="999" 
d="M566 780l-175 125q-8 7 -3 19l30 39q9 11 19 3l168 -133q12 -8 3 -19l-23 -31q-9 -10 -19 -3zM663 0q-37 0 -47 40l-116 509h-3l-114 -509q-10 -40 -48 -40h-37q-35 0 -47 40l-184 605h-63q-13 0 -13 12v49q0 12 13 12h225q13 0 13 -12v-49q0 -12 -13 -12h-70l155 -543h6
l139 616h80l140 -616h6l155 543h-70q-13 0 -13 12v49q0 12 13 12h225q13 0 13 -12v-49q0 -12 -13 -12h-64l-183 -605q-12 -40 -47 -40h-38z" />
    <glyph glyph-name="wgrave" unicode="&#x1e81;" horiz-adv-x="803" 
d="M446 543l-168 134q-9 7 -2 19l32 37q9 11 19 2l161 -142q11 -8 2 -19l-25 -29q-9 -10 -19 -2zM512 0q-21 0 -25 21l-84 335h-3l-86 -335q-4 -21 -25 -21h-57q-16 0 -24 21l-134 404h-53q-12 0 -12 12v43q0 12 12 12h186q13 0 13 -12v-43q0 -12 -13 -12h-45l100 -337h2
l88 337h-38q-12 0 -12 12v43q0 12 12 12h175q13 0 13 -12v-43q0 -12 -13 -12h-35l85 -337h2l100 337h-45q-13 0 -13 12v43q0 12 13 12h186q12 0 12 -12v-43q0 -12 -12 -12h-56l-133 -404q-7 -21 -24 -21h-57z" />
    <glyph glyph-name="Wacute" unicode="&#x1e82;" horiz-adv-x="999" 
d="M428 768q-11 -7 -18 6l-22 31q-9 11 3 19l176 123q10 8 19 -3l28 -42q5 -10 -5 -19zM663 0q-37 0 -47 40l-116 509h-3l-114 -509q-10 -40 -48 -40h-37q-35 0 -47 40l-184 605h-63q-13 0 -13 12v49q0 12 13 12h225q13 0 13 -12v-49q0 -12 -13 -12h-70l155 -543h6l139 616
h80l140 -616h6l155 543h-70q-13 0 -13 12v49q0 12 13 12h225q13 0 13 -12v-49q0 -12 -13 -12h-64l-183 -605q-12 -40 -47 -40h-38z" />
    <glyph glyph-name="wacute" unicode="&#x1e83;" horiz-adv-x="803" 
d="M360 542q-10 -7 -19 3l-25 29q-9 11 2 19l161 141q10 10 19 -1l32 -38q7 -10 -2 -19zM512 0q-21 0 -25 21l-84 335h-3l-86 -335q-4 -21 -25 -21h-57q-16 0 -24 21l-134 404h-53q-12 0 -12 12v43q0 12 12 12h186q13 0 13 -12v-43q0 -12 -13 -12h-45l100 -337h2l88 337h-38
q-12 0 -12 12v43q0 12 12 12h175q13 0 13 -12v-43q0 -12 -13 -12h-35l85 -337h2l100 337h-45q-13 0 -13 12v43q0 12 13 12h186q12 0 12 -12v-43q0 -12 -12 -12h-56l-133 -404q-7 -21 -24 -21h-57z" />
    <glyph glyph-name="Wdieresis" unicode="&#x1e84;" horiz-adv-x="999" 
d="M454 858q0 -22 -16 -38t-38 -16q-23 0 -39 15.5t-16 38.5t16 39.5t39 16.5q22 0 38 -16.5t16 -39.5zM656 858q0 -22 -16.5 -38t-39.5 -16t-38.5 15.5t-15.5 38.5t15.5 39.5t38.5 16.5t39.5 -16.5t16.5 -39.5zM663 0q-37 0 -47 40l-116 509h-3l-114 -509q-10 -40 -48 -40
h-37q-35 0 -47 40l-184 605h-63q-13 0 -13 12v49q0 12 13 12h225q13 0 13 -12v-49q0 -12 -13 -12h-70l155 -543h6l139 616h80l140 -616h6l155 543h-70q-13 0 -13 12v49q0 12 13 12h225q13 0 13 -12v-49q0 -12 -13 -12h-64l-183 -605q-12 -40 -47 -40h-38z" />
    <glyph glyph-name="wdieresis" unicode="&#x1e85;" horiz-adv-x="803" 
d="M360 638q0 -23 -16.5 -39.5t-39.5 -16.5t-39 16.5t-16 39.5t16 40t39 17t39.5 -17t16.5 -40zM555 638q0 -23 -16.5 -39.5t-40.5 -16.5q-23 0 -38.5 16.5t-15.5 39.5q0 24 15.5 40.5t38.5 16.5q24 0 40.5 -17t16.5 -40zM512 0q-21 0 -25 21l-84 335h-3l-86 -335
q-4 -21 -25 -21h-57q-16 0 -24 21l-134 404h-53q-12 0 -12 12v43q0 12 12 12h186q13 0 13 -12v-43q0 -12 -13 -12h-45l100 -337h2l88 337h-38q-12 0 -12 12v43q0 12 12 12h175q13 0 13 -12v-43q0 -12 -13 -12h-35l85 -337h2l100 337h-45q-13 0 -13 12v43q0 12 13 12h186
q12 0 12 -12v-43q0 -12 -12 -12h-56l-133 -404q-7 -21 -24 -21h-57z" />
    <glyph glyph-name="Ygrave" unicode="&#x1ef2;" horiz-adv-x="648" 
d="M399 780l-175 125q-8 7 -3 19l30 39q9 11 19 3l168 -133q12 -8 3 -19l-23 -31q-9 -10 -19 -3zM203 0q-12 0 -12 12v49q0 12 12 12h78v214l-209 358h-68q-12 0 -12 12v49q0 12 12 12h230q13 0 13 -12v-49q0 -12 -13 -12h-65l156 -281h4l154 281h-68q-12 0 -12 12v49
q0 12 12 12h229q13 0 13 -12v-49q0 -12 -13 -12h-68l-210 -358v-214h79q12 0 12 -12v-49q0 -12 -12 -12h-242z" />
    <glyph glyph-name="ygrave" unicode="&#x1ef3;" horiz-adv-x="571" 
d="M342 543l-168 134q-9 7 -2 19l32 37q9 11 19 2l161 -142q11 -8 2 -19l-25 -29q-9 -10 -19 -2zM264 11h-13q-16 0 -26 25l-153 389h-55q-12 0 -12 12v43q0 12 12 12h181q13 0 13 -12v-43q0 -12 -13 -12h-41l129 -339h2l120 339h-45q-12 0 -12 12v43q0 12 12 12h186
q12 0 12 -12v-43q0 -12 -12 -12h-56l-180 -489q-33 -90 -68 -130t-100 -40q-57 0 -101 39q-10 10 -3 18l25 32q9 7 18 1q25 -20 53 -20q37 0 58.5 22.5t41.5 78.5z" />
    <glyph glyph-name="uni1EF8" unicode="&#x1ef8;" horiz-adv-x="648" 
d="M481 935q12 0 12 -12q0 -118 -90 -118q-40 0 -78 23.5t-57 23.5q-34 0 -34 -46q0 -12 -12 -12h-37q-12 0 -12 12q0 52 22.5 81t66.5 29q37 0 77 -23.5t61 -23.5q32 0 32 54q0 12 12 12h37zM203 0q-12 0 -12 12v49q0 12 12 12h78v214l-209 358h-68q-12 0 -12 12v49
q0 12 12 12h230q13 0 13 -12v-49q0 -12 -13 -12h-65l156 -281h4l154 281h-68q-12 0 -12 12v49q0 12 12 12h229q13 0 13 -12v-49q0 -12 -13 -12h-68l-210 -358v-214h79q12 0 12 -12v-49q0 -12 -12 -12h-242z" />
    <glyph glyph-name="uni1EF9" unicode="&#x1ef9;" horiz-adv-x="571" 
d="M445 706q12 0 12 -12q0 -120 -90 -120q-41 0 -80 24.5t-58 24.5q-16 0 -23.5 -10t-7.5 -36q0 -12 -12 -12h-37q-12 0 -12 12q0 53 22.5 82.5t66.5 29.5q37 0 77 -24.5t61 -24.5q18 0 25 12t7 42q0 12 12 12h37zM264 11h-13q-16 0 -26 25l-153 389h-55q-12 0 -12 12v43
q0 12 12 12h181q13 0 13 -12v-43q0 -12 -13 -12h-41l129 -339h2l120 339h-45q-12 0 -12 12v43q0 12 12 12h186q12 0 12 -12v-43q0 -12 -12 -12h-56l-180 -489q-33 -90 -68 -130t-100 -40q-57 0 -101 39q-10 10 -3 18l25 32q9 7 18 1q25 -20 53 -20q37 0 58.5 22.5t41.5 78.5
z" />
    <glyph glyph-name="endash" unicode="&#x2013;" horiz-adv-x="616" 
d="M83 222q-14 0 -14 13v51q0 13 14 13h451q13 0 13 -13v-51q0 -13 -13 -13h-451z" />
    <glyph glyph-name="emdash" unicode="&#x2014;" horiz-adv-x="941" 
d="M83 222q-14 0 -14 13v51q0 13 14 13h776q13 0 13 -13v-51q0 -13 -13 -13h-776z" />
    <glyph glyph-name="quoteleft" unicode="&#x2018;" horiz-adv-x="202" 
d="M136 736q0 -6 -7 -6q-16 0 -28.5 -13.5t-12.5 -39.5l2 -12q6 5 19 5q19 0 31.5 -13t12.5 -33t-14 -33.5t-34 -13.5q-26 0 -40.5 19t-14.5 54q0 56 22 83t57 27q7 0 7 -5v-19z" />
    <glyph glyph-name="quoteright" unicode="&#x2019;" horiz-adv-x="205" 
d="M70 601q0 6 7 6q16 0 28.5 13.5t12.5 39.5l-2 12q-5 -5 -19 -5q-18 0 -30.5 13t-12.5 33t13.5 33.5t33.5 13.5q26 0 40.5 -19t14.5 -54q0 -57 -22 -83.5t-57 -26.5q-7 0 -7 5v19z" />
    <glyph glyph-name="quotesinglbase" unicode="&#x201a;" horiz-adv-x="231" 
d="M82 -73q0 6 6 6q16 0 28.5 13.5t12.5 39.5l-2 12q-5 -5 -19 -5q-18 0 -30.5 13t-12.5 33t13.5 33.5t33.5 13.5q26 0 41 -19t15 -54q0 -56 -22.5 -83t-57.5 -27q-6 0 -6 5v19z" />
    <glyph glyph-name="quotedblleft" unicode="&#x201c;" horiz-adv-x="364" 
d="M136 736q0 -6 -7 -6q-16 0 -28.5 -13.5t-12.5 -39.5l2 -12q6 5 19 5q19 0 31.5 -13t12.5 -33t-14 -33.5t-34 -13.5q-26 0 -40.5 19t-14.5 54q0 56 22 83t57 27q7 0 7 -5v-19zM299 736q0 -6 -7 -6q-16 0 -28.5 -13.5t-12.5 -39.5l2 -12q5 5 19 5q18 0 30.5 -13t12.5 -33
t-13.5 -33.5t-33.5 -13.5q-26 0 -40.5 19t-14.5 54q0 57 22 83.5t57 26.5q7 0 7 -5v-19z" />
    <glyph glyph-name="quotedblright" unicode="&#x201d;" horiz-adv-x="368" 
d="M70 601q0 6 7 6q16 0 28.5 13.5t12.5 39.5l-2 12q-5 -5 -19 -5q-18 0 -30.5 13t-12.5 33t13.5 33.5t33.5 13.5q26 0 40.5 -19t14.5 -54q0 -57 -22 -83.5t-57 -26.5q-7 0 -7 5v19zM233 601q0 6 7 6q16 0 28.5 13.5t12.5 39.5l-2 12q-6 -5 -19 -5q-18 0 -31 13t-13 33
t14 33.5t34 13.5q26 0 40.5 -19t14.5 -54q0 -56 -22 -83t-57 -27q-7 0 -7 5v19z" />
    <glyph glyph-name="quotedblbase" unicode="&#x201e;" horiz-adv-x="381" 
d="M82 -73q0 6 6 6q16 0 28.5 13.5t12.5 39.5l-2 12q-5 -5 -19 -5q-18 0 -30.5 13t-12.5 33t13.5 33.5t33.5 13.5q26 0 41 -19t15 -54q0 -56 -22.5 -83t-57.5 -27q-6 0 -6 5v19zM232 -73q0 6 7 6q16 0 28.5 13.5t12.5 39.5l-2 12q-5 -5 -19 -5q-18 0 -30.5 13t-12.5 33
t13.5 33.5t33.5 13.5q26 0 40.5 -19t14.5 -54q0 -57 -22 -83.5t-57 -26.5q-7 0 -7 5v19z" />
    <glyph glyph-name="dagger" unicode="&#x2020;" horiz-adv-x="435" 
d="M198 -131q-12 0 -12 12l-8 615h-121q-14 0 -14 13v51q0 13 14 13h121v175q0 12 13 12h59q12 0 12 -12v-175h116q13 0 13 -13v-51q0 -13 -13 -13h-116l-8 -615q0 -12 -12 -12h-44z" />
    <glyph glyph-name="daggerdbl" unicode="&#x2021;" horiz-adv-x="449" 
d="M263 71l-2 -190q0 -12 -12 -12h-44q-12 0 -12 12l-3 190h-126q-14 0 -14 14v50q0 14 14 14h124l-3 347h-121q-14 0 -14 13v51q0 13 14 13h121v175q0 12 13 12h59q12 0 12 -12v-175h116q13 0 13 -13v-51q0 -13 -13 -13h-116l-3 -347h119q13 0 13 -14v-50q0 -14 -13 -14
h-122z" />
    <glyph glyph-name="bullet" unicode="&#x2022;" horiz-adv-x="363" 
d="M181 239q-44 0 -68.5 25.5t-24.5 70.5q0 44 24.5 70.5t68.5 26.5q42 0 68 -27t26 -70q0 -44 -25.5 -70t-68.5 -26z" />
    <glyph glyph-name="ellipsis" unicode="&#x2026;" horiz-adv-x="468" 
d="M159 40q0 -20 -14 -33.5t-34 -13.5t-33.5 13.5t-13.5 33.5t14 33.5t33 13.5q20 0 34 -13.5t14 -33.5zM282 40q0 -20 -13.5 -33.5t-33.5 -13.5t-33.5 13.5t-13.5 33.5t13.5 33.5t33.5 13.5q19 0 33 -13.5t14 -33.5zM404 40q0 -20 -13.5 -33.5t-33.5 -13.5t-33.5 13.5
t-13.5 33.5t13.5 33.5t33.5 13.5q19 0 33 -13.5t14 -33.5z" />
    <glyph glyph-name="perthousand" unicode="&#x2030;" horiz-adv-x="1076" 
d="M222 -74q-14 0 -9 12l242 810q3 12 16 12h39q12 0 8 -12l-242 -810q-3 -12 -16 -12h-38zM180 359q-68 0 -106.5 50.5t-38.5 134.5q0 80 39 130t106 50q66 0 105 -50t39 -130q0 -84 -38 -134.5t-106 -50.5zM180 414q40 0 62 33.5t22 94.5t-22 94t-62 33q-41 0 -63 -33
t-22 -94t22.5 -94.5t62.5 -33.5zM567 -7q-67 0 -105.5 50.5t-38.5 134.5q0 80 39 130t105 50q67 0 106 -50t39 -130q0 -84 -38.5 -134.5t-106.5 -50.5zM897 -7q-67 0 -105.5 50.5t-38.5 134.5q0 80 39 130t105 50q67 0 106 -50t39 -130q0 -84 -38.5 -134.5t-106.5 -50.5z
M567 48q41 0 63 33.5t22 94.5t-22 94t-63 33q-40 0 -62.5 -33.5t-22.5 -93.5q0 -61 22.5 -94.5t62.5 -33.5zM897 48q40 0 62.5 33.5t22.5 94.5t-22 94t-63 33q-40 0 -62.5 -33.5t-22.5 -93.5q0 -61 22.5 -94.5t62.5 -33.5z" />
    <glyph glyph-name="guilsinglleft" unicode="&#x2039;" horiz-adv-x="358" 
d="M60 213q-13 10 -13 23v22q0 12 13 21l220 153q13 6 13 -5v-44q0 -14 -13 -22l-165 -115l165 -114q13 -10 13 -22v-44q0 -6 -4.5 -7.5t-8.5 2.5z" />
    <glyph glyph-name="guilsinglright" unicode="&#x203a;" horiz-adv-x="359" 
d="M78 61q-13 -7 -13 5v44q0 12 13 22l165 114l-165 115q-13 8 -13 22v44q0 6 4.5 7.5t8.5 -2.5l220 -153q14 -9 14 -21v-22q0 -12 -14 -23z" />
    <glyph glyph-name="fraction" unicode="&#x2044;" horiz-adv-x="342" 
d="M16 -74q-12 0 -9 12l242 810q3 12 16 12h60q11 0 8 -12l-242 -810q-3 -12 -16 -12h-59z" />
    <glyph glyph-name="uni2070" unicode="&#x2070;" horiz-adv-x="393" 
d="M197 359q-68 0 -106.5 50.5t-38.5 134.5q0 80 39 130t106 50q66 0 105 -50t39 -130q0 -84 -38 -134.5t-106 -50.5zM197 414q40 0 62 33.5t22 94.5t-22 94t-62 33q-41 0 -63 -33t-22 -94t22.5 -94.5t62.5 -33.5z" />
    <glyph glyph-name="Euro" unicode="&#x20ac;" horiz-adv-x="699" 
d="M456 -7q-122 0 -209 69.5t-118 184.5h-77q-12 0 -12 12v37q0 12 12 12h66q-3 24 -3 49q0 14 2 44h-65q-12 0 -12 12v36q0 13 12 13h75q29 118 117 190t212 72q100 0 189 -58q8 -8 2 -17l-36 -43q-6 -8 -17 -2q-56 40 -136 40q-83 -1 -146 -51t-90 -131h268q12 0 12 -13
v-36q0 -12 -12 -12h-282q-2 -28 -2 -42q0 -30 4 -51h222q12 0 12 -12v-37q0 -12 -12 -12h-207q29 -78 90.5 -125.5t142.5 -47.5q82 0 136 39q11 7 17 -2l36 -43q6 -10 -2 -18q-87 -57 -189 -57z" />
    <glyph glyph-name="trademark" unicode="&#x2122;" horiz-adv-x="1086" 
d="M179 288q-8 0 -8 8v38q0 8 8 8h46v322h-111v-54q0 -8 -8 -8h-39q-8 0 -8 8v101q0 7 8 7h377q8 0 8 -7v-101q0 -8 -8 -8h-39q-8 0 -8 8v54h-108v-322h45q8 0 8 -8v-38q0 -8 -8 -8h-155zM865 288q-7 0 -7 7v40q0 7 7 7h39v287h-1l-112 -280q-7 -19 -27 -19q-19 0 -25 19
l-113 280h-1v-287h39q7 0 7 -7v-40q0 -7 -7 -7h-144q-7 0 -7 7v40q0 7 7 7h44v322h-44q-7 0 -7 7v40q0 7 7 7h103q20 0 28 -20l88 -214l25 -72h1q14 44 26 72l86 214q8 20 29 20h104q7 0 7 -7v-40q0 -7 -7 -7h-44v-322h44q7 0 7 -7v-40q0 -7 -7 -7h-145z" />
    <glyph glyph-name="uni2126" unicode="&#x2126;" horiz-adv-x="810" 
d="M464 0q-13 0 -13 12v169q0 11 11 11q81 0 141 58t60 160q0 111 -79 173t-179 62t-179 -62t-79 -173q0 -102 60 -160t141 -58q11 0 11 -11v-169q0 -12 -13 -12h-284q-12 0 -12 12v44q0 11 12 11h230v67q-104 18 -169.5 94t-65.5 185q0 95 49.5 167.5t127.5 108t171 35.5
q143 0 245.5 -84.5t102.5 -226.5q0 -109 -65.5 -185t-169.5 -94v-67h230q12 0 12 -11v-44q0 -12 -12 -12h-284z" />
    <glyph glyph-name="uni2153" unicode="&#x2153;" horiz-adv-x="682" 
d="M195 -74q-13 0 -9 12l242 810q3 12 16 12h39q12 0 9 -12l-243 -810q-3 -12 -15 -12h-39zM67 362q-10 0 -10 10v29q0 9 10 9h72v250l-72 -55q-6 -4 -10 1l-21 28q-4 4 2 10l98 74q4 3 12 3h40q7 0 7 -9l1 -302h61q10 0 10 -9v-29q0 -10 -10 -10h-190zM522 -4
q-15 0 -29 2.5t-24 5.5t-20 8t-16.5 9.5t-13 10.5t-9.5 9.5t-6 8.5l-4 4q-3 5 0 8l26 24q4 4 9 0q13 -13 19 -18.5t25.5 -13.5t42.5 -8q77 0 77 58q0 60 -76 60h-18q-7 0 -7 7v29q0 7 7 7h14q26 0 47 13t21 41q0 22 -16 35.5t-47 13.5q-26 0 -42 -13t-16 -32q0 -8 -7 -8h-38
q-7 0 -7 8q0 43 30.5 69.5t79.5 26.5q59 0 89 -29t30 -66q0 -34 -21 -55t-37 -23q12 -2 26 -9t29 -29t15 -52q0 -46 -37 -74t-96 -28z" />
    <glyph glyph-name="partialdiff" unicode="&#x2202;" horiz-adv-x="630" 
d="M265 -7q-107 0 -168.5 59.5t-61.5 154.5q0 111 71.5 179t202.5 68q116 0 183 -49v8q0 113 -42 175.5t-125 62.5q-67 0 -101.5 -27.5t-38.5 -61.5q-1 -12 -14 -12h-53q-11 0 -11 11q0 68 63 115.5t162 47.5q120 0 183 -82t63 -226q0 -190 -82.5 -306.5t-230.5 -116.5z
M271 66q92 0 148 69.5t69 200.5q-71 54 -175 54q-88 0 -141.5 -50.5t-53.5 -128.5q0 -66 40.5 -105.5t112.5 -39.5z" />
    <glyph glyph-name="minus" unicode="&#x2212;" horiz-adv-x="485" 
d="M87 222q-13 0 -13 13v51q0 13 13 13h311q14 0 14 -13v-51q0 -13 -14 -13h-311z" />
    <glyph glyph-name="integral" unicode="&#x222b;" horiz-adv-x="424" 
d="M214 554q0 83 42.5 126.5t118.5 43.5q56 0 101 -40q10 -9 3 -17l-24 -31q-9 -9 -17 -2q-24 19 -55 19q-41 0 -63.5 -25.5t-22.5 -74.5v-616q0 -84 -42 -127.5t-118 -43.5q-61 0 -101 40q-10 9 -3 18l24 30q9 10 17 2q22 -18 55 -18q85 0 85 100v616z" />
    <glyph glyph-name="approxequal" unicode="&#x2248;" horiz-adv-x="464" 
d="M381 442q12 0 12 -12q0 -118 -90 -118q-41 0 -80 24t-58 24q-16 0 -23.5 -10t-7.5 -37q0 -12 -12 -12h-37q-12 0 -12 12q0 52 22.5 81t66.5 29q37 0 77 -24t61 -24q18 0 25 12t7 43q0 12 12 12h37zM381 285q12 0 12 -12q0 -118 -90 -118q-41 0 -80 24t-58 24
q-16 0 -23.5 -10t-7.5 -37q0 -12 -12 -12h-37q-12 0 -12 12q0 52 22.5 81t66.5 29q37 0 77 -24t61 -24q18 0 25 12t7 43q0 12 12 12h37z" />
    <glyph glyph-name="notequal" unicode="&#x2260;" horiz-adv-x="477" 
d="M218 100l-14 -47q-3 -12 -16 -12h-40q-12 0 -9 12l14 47h-75q-13 0 -13 13v51q0 13 13 13h98l48 158h-146q-13 0 -13 14v50q0 14 13 14h169l20 66q5 12 17 12h40q12 0 8 -12l-20 -66h86q14 0 14 -14v-50q0 -14 -14 -14h-109l-48 -158h157q14 0 14 -13v-51q0 -13 -14 -13
h-180z" />
    <glyph glyph-name="dotlessj" unicode="&#xf6be;" horiz-adv-x="260" 
d="M96 425h-56q-12 0 -12 12v43q0 12 12 12h127q12 0 12 -12v-544q0 -83 -42.5 -126.5t-118.5 -43.5q-56 0 -100 39q-11 10 -2 19l22 30q10 8 19 2q25 -20 53 -20q41 0 63.5 26t22.5 75v488z" />
    <glyph glyph-name="uniF6C3" unicode="&#xf6c3;" 
d="M-121 -205q0 6 7 6q16 0 28.5 13.5t12.5 39.5l-2 11q-5 -5 -19 -5q-18 0 -30.5 13t-12.5 34q0 19 13.5 33t33.5 14q26 0 40.5 -19.5t14.5 -53.5q0 -57 -22 -84t-57 -27q-7 0 -7 6v19z" />
    <glyph glyph-name="uniF8FF" unicode="&#xf8ff;" horiz-adv-x="1451" 
d="M691 583q0 26 17.5 44t43.5 18t44 -18t18 -44t-18 -43.5t-44 -17.5t-43.5 18t-17.5 43zM219 270h-119q0 134 9 314h100q10 -200 10 -314zM694 270q0 92 3 147h-61l3 -65q4 -4 15 -4q13 0 18 5v-74q-14 -15 -68 -15q-82 0 -82 66q0 12 2 49t2 38h-22v79l119 30l1 -17h178
q10 -64 10 -239h-118zM328 265q-92 0 -92 114q0 135 134 135q124 0 124 -117v-127h-83l-8 61q-6 -33 -23.5 -49.5t-51.5 -16.5zM1090 270h-114q0 26 1 56t1 37q0 29 -15 29q-18 0 -18 -29q0 -7 1.5 -37t1.5 -56h-114q0 175 10 239h80q6 -44 6 -76q2 15 6.5 30t24 33t49.5 18
q42 0 58.5 -25t18.5 -81zM1351 391q0 -126 -123 -126q-122 0 -122 124q0 125 124 125q121 0 121 -123zM390 375q0 26 -24 26q-22 0 -22 -26q0 -30 22 -30q24 0 24 30zM1251 375q0 26 -23 26q-21 0 -21 -26q0 -30 21 -30q23 0 23 30zM428 238h104q10 -52 10 -138
q0 -81 -33.5 -115.5t-118.5 -34.5q-61 0 -88 17v83q24 -16 70 -16q21 0 34 6t16.5 11.5t3.5 10.5q-16 -11 -49 -11q-90 0 -90 83v13h-55l3 -65q6 -4 15 -4q13 0 18 5v-73q-19 -15 -68 -15q-45 0 -63 17t-18 54q0 39 3 81h-18v80l117 29l-1 -18h177v-119q0 -16 3 -21.5
t12 -5.5q16 0 16 27v119zM733 243q37 0 58.5 -29t21.5 -84q0 -135 -137 -135q1 -15 1 -39h-119q0 142 10 282h78q7 -42 7 -76q17 81 80 81zM1070 127q0 -21 -3 -35h-124q11 -18 50 -18q34 0 55 12v-75q-23 -16 -78 -16q-141 0 -141 122q0 59 32.5 92.5t92.5 33.5
q55 0 85.5 -30t30.5 -86zM978 109q3 27 -17 27q-23 0 -23 -27h40zM670 72q5 0 12.5 2.5t16 11.5t8.5 23q0 23 -20 23q-22 0 -22 -31q0 -14 5 -29zM1074 13q0 -23 24 -23t24 23t-24 23t-24 -23zM1080 13q0 18 18 18t18 -18t-18 -18t-18 18zM1108 2l-6 9q7 0 7 7t-10 7h-11
v-23h5v9h5l4 -9h6zM1100 15h-7v6h7q4 0 4 -3t-4 -3z" />
    <glyph glyph-name="i.loclTRK" horiz-adv-x="284" 
d="M193 642q0 -24 -17.5 -41t-41.5 -17q-25 0 -42 17t-17 41q0 25 17 42.5t42 17.5q24 0 41.5 -17.5t17.5 -42.5zM50 0q-12 0 -12 12v43q0 12 12 12h56v358h-56q-12 0 -12 12v43q0 12 12 12h126q13 0 13 -12v-413h53q12 0 12 -12v-43q0 -12 -12 -12h-192z" />
    <glyph glyph-name="caroncomb.alt" 
d="M-137 564q0 6 7 6q16 0 28.5 13.5t12.5 39.5l-2 12q-5 -5 -19 -5q-18 0 -30.5 13t-12.5 33t13.5 33.5t33.5 13.5q26 0 40.5 -19t14.5 -54q0 -57 -22 -83.5t-57 -26.5q-7 0 -7 5v19z" />
    <glyph glyph-name="acutecomb.case" 
d="M-233 768q-11 -7 -18 6l-22 31q-9 11 3 19l176 123q10 8 19 -3l28 -42q5 -10 -5 -19z" />
    <glyph glyph-name="uni0306.case" 
d="M-63 934q13 0 13 -13q0 -67 -39 -103t-102 -36q-62 0 -100.5 36t-38.5 103q0 13 13 13h42q13 0 13 -13q0 -37 20.5 -57.5t50.5 -20.5q31 0 52 20.5t21 57.5q0 13 13 13h42z" />
    <glyph glyph-name="uni030C.case" 
d="M-210 771q-7 -5 -10 -5q-5 0 -9 4l-155 126q-11 8 -2 19l24 28q9 10 19 2l123 -95l123 95q12 8 19 -2l25 -28q8 -9 -2 -19z" />
    <glyph glyph-name="uni0302.case" 
d="M-78 772q-8 -10 -19 -2l-123 95l-123 -95q-9 -8 -19 2l-24 29q-9 11 2 19l155 126q4 4 9 4q6 0 10 -5l155 -125q11 -8 2 -19z" />
    <glyph glyph-name="uni0308.case" 
d="M-223 858q0 -22 -15.5 -38t-38.5 -16t-39 15.5t-16 38.5t16 39.5t39 16.5q22 0 38 -16.5t16 -39.5zM-21 858q0 -22 -16.5 -38t-39.5 -16t-38.5 15.5t-15.5 38.5t15.5 39.5t38.5 16.5t39.5 -16.5t16.5 -39.5z" />
    <glyph glyph-name="uni0307.case" 
d="M-43 850q0 -24 -17.5 -41t-41.5 -17q-25 0 -42 17t-17 41q0 25 17 42.5t42 17.5q24 0 41.5 -17.5t17.5 -42.5z" />
    <glyph glyph-name="gravecomb.case" 
d="M-93 780l-175 125q-8 7 -3 19l30 39q9 11 19 3l168 -133q12 -8 3 -19l-23 -31q-9 -10 -19 -3z" />
    <glyph glyph-name="uni030B.case" 
d="M-367 781q-7 -8 -19 -1l-29 25q-10 7 -2 19l115 147q10 11 19 2l38 -31q7 -13 2 -19zM-176 781q-7 -8 -19 -1l-29 25q-10 7 -2 19l115 147q10 11 19 2l38 -31q7 -13 2 -19z" />
    <glyph glyph-name="uni0304.case" 
d="M-359 808q-13 0 -13 13v42q0 14 13 14h296q13 0 13 -14v-42q0 -13 -13 -13h-296z" />
    <glyph glyph-name="uni030A.case" 
d="M-135 761q-38 0 -66.5 28.5t-28.5 67.5q0 38 28.5 66t66.5 28q39 0 67 -28t28 -66q0 -39 -28 -67.5t-67 -28.5zM-135 819q15 0 25.5 10.5t10.5 27.5q0 16 -10.5 26.5t-25.5 10.5q-14 0 -24.5 -10.5t-10.5 -26.5q0 -17 10.5 -27.5t24.5 -10.5z" />
    <glyph glyph-name="uni0338.case" 
d="M-293 -39q-3 -13 -15 -13h-38q-12 0 -9 13l242 809q5 12 17 12h37q13 0 8 -12z" />
    <glyph glyph-name="uni0337.case" 
d="M-359 256q-11 -6 -19 5l-13 24q-7 11 6 18l304 169q11 5 19 -5l13 -24q7 -12 -6 -19z" />
    <glyph glyph-name="tildecomb.case" 
d="M-62 935q12 0 12 -12q0 -118 -90 -118q-40 0 -78 23.5t-57 23.5q-34 0 -34 -46q0 -12 -12 -12h-37q-12 0 -12 12q0 52 22.5 81t66.5 29q37 0 77 -23.5t61 -23.5q32 0 32 54q0 12 12 12h37z" />
    <glyph glyph-name="IJacute" horiz-adv-x="732" 
d="M98 798q-10 -7 -19 3l-25 29q-9 11 2 19l161 141q10 10 19 -1l32 -38q7 -10 -2 -19zM498 798q-10 -7 -19 3l-25 29q-9 11 2 19l161 141q10 10 19 -1l32 -38q7 -10 -2 -19zM58 0q-12 0 -12 12v49q0 12 12 12h77v572h-77q-12 0 -12 12v49q0 12 12 12h239q13 0 13 -12v-49
q0 -12 -13 -12h-77v-572h77q13 0 13 -12v-49q0 -12 -13 -12h-239zM530 645h-77q-12 0 -12 12v49q0 12 12 12h239q13 0 13 -12v-49q0 -12 -13 -12h-77v-534q0 -147 -68.5 -209t-215.5 -62q-12 0 -12 12v49q0 12 12 12q110 0 154.5 45.5t44.5 141.5v545z" />
    <glyph glyph-name="ijacute" horiz-adv-x="544" 
d="M79 572q-10 -7 -19 3l-25 29q-9 11 2 19l161 141q10 10 19 -1l32 -38q7 -10 -2 -19zM356 572q-10 -7 -19 3l-25 29q-9 11 2 19l161 141q10 10 19 -1l32 -38q7 -10 -2 -19zM50 0q-12 0 -12 12v43q0 12 12 12h56v358h-56q-12 0 -12 12v43q0 12 12 12h126q13 0 13 -12v-413
h53q12 0 12 -12v-43q0 -12 -12 -12h-192zM380 425h-56q-12 0 -12 12v43q0 12 12 12h127q12 0 12 -12v-544q0 -83 -42.5 -126.5t-118.5 -43.5q-56 0 -100 39q-11 10 -2 19l22 30q10 8 19 2q25 -20 53 -20q41 0 63.5 26t22.5 75v488z" />
    <glyph glyph-name="A.ss01" horiz-adv-x="716" 
d="M492 0q-12 0 -12 12v49q0 12 12 12h70l-63 170h-283l-63 -170h70q13 0 13 -12v-49q0 -12 -13 -12h-223q-12 0 -12 12v49q0 12 12 12h68l231 614q12 31 40 31h36q31 0 41 -31l233 -614h67q13 0 13 -12v-49q0 -12 -13 -12h-224zM360 617h-7l-109 -301h228z" />
    <glyph glyph-name="Aacute.ss01" horiz-adv-x="716" 
d="M286 768q-11 -7 -18 6l-22 31q-9 11 3 19l176 123q10 8 19 -3l28 -42q5 -10 -5 -19zM492 0q-12 0 -12 12v49q0 12 12 12h70l-63 170h-283l-63 -170h70q13 0 13 -12v-49q0 -12 -13 -12h-223q-12 0 -12 12v49q0 12 12 12h68l231 614q12 31 40 31h36q31 0 41 -31l233 -614
h67q13 0 13 -12v-49q0 -12 -13 -12h-224zM360 617h-7l-109 -301h228z" />
    <glyph glyph-name="Abreve.ss01" horiz-adv-x="716" 
d="M485 934q13 0 13 -13q0 -67 -39 -103t-102 -36q-62 0 -100.5 36t-38.5 103q0 13 13 13h42q13 0 13 -13q0 -37 20.5 -57.5t50.5 -20.5q31 0 52 20.5t21 57.5q0 13 13 13h42zM492 0q-12 0 -12 12v49q0 12 12 12h70l-63 170h-283l-63 -170h70q13 0 13 -12v-49q0 -12 -13 -12
h-223q-12 0 -12 12v49q0 12 12 12h68l231 614q12 31 40 31h36q31 0 41 -31l233 -614h67q13 0 13 -12v-49q0 -12 -13 -12h-224zM360 617h-7l-109 -301h228z" />
    <glyph glyph-name="Acircumflex.ss01" horiz-adv-x="716" 
d="M500 772q-8 -10 -19 -2l-123 95l-123 -95q-9 -8 -19 2l-24 29q-9 11 2 19l155 126q4 4 9 4q6 0 10 -5l155 -125q11 -8 2 -19zM492 0q-12 0 -12 12v49q0 12 12 12h70l-63 170h-283l-63 -170h70q13 0 13 -12v-49q0 -12 -13 -12h-223q-12 0 -12 12v49q0 12 12 12h68l231 614
q12 31 40 31h36q31 0 41 -31l233 -614h67q13 0 13 -12v-49q0 -12 -13 -12h-224zM360 617h-7l-109 -301h228z" />
    <glyph glyph-name="Adieresis.ss01" horiz-adv-x="716" 
d="M312 858q0 -22 -16 -38t-38 -16q-23 0 -39 15.5t-16 38.5t16 39.5t39 16.5q22 0 38 -16.5t16 -39.5zM514 858q0 -22 -16.5 -38t-39.5 -16t-38.5 15.5t-15.5 38.5t15.5 39.5t38.5 16.5t39.5 -16.5t16.5 -39.5zM492 0q-12 0 -12 12v49q0 12 12 12h70l-63 170h-283l-63 -170
h70q13 0 13 -12v-49q0 -12 -13 -12h-223q-12 0 -12 12v49q0 12 12 12h68l231 614q12 31 40 31h36q31 0 41 -31l233 -614h67q13 0 13 -12v-49q0 -12 -13 -12h-224zM360 617h-7l-109 -301h228z" />
    <glyph glyph-name="Agrave.ss01" horiz-adv-x="716" 
d="M424 780l-175 125q-8 7 -3 19l30 39q9 11 19 3l168 -133q12 -8 3 -19l-23 -31q-9 -10 -19 -3zM492 0q-12 0 -12 12v49q0 12 12 12h70l-63 170h-283l-63 -170h70q13 0 13 -12v-49q0 -12 -13 -12h-223q-12 0 -12 12v49q0 12 12 12h68l231 614q12 31 40 31h36q31 0 41 -31
l233 -614h67q13 0 13 -12v-49q0 -12 -13 -12h-224zM360 617h-7l-109 -301h228z" />
    <glyph glyph-name="Amacron.ss01" horiz-adv-x="716" 
d="M210 808q-13 0 -13 13v42q0 14 13 14h296q13 0 13 -14v-42q0 -13 -13 -13h-296zM492 0q-12 0 -12 12v49q0 12 12 12h70l-63 170h-283l-63 -170h70q13 0 13 -12v-49q0 -12 -13 -12h-223q-12 0 -12 12v49q0 12 12 12h68l231 614q12 31 40 31h36q31 0 41 -31l233 -614h67
q13 0 13 -12v-49q0 -12 -13 -12h-224zM360 617h-7l-109 -301h228z" />
    <glyph glyph-name="Aogonek.ss01" horiz-adv-x="716" 
d="M716 73q13 0 13 -12v-49q0 -12 -13 -12h-70q-68 -34 -68 -75q0 -16 8 -24.5t20 -8.5q18 0 36 10q13 7 18 -1l14 -25q6 -10 -4 -17q-34 -23 -74 -23q-38 0 -60.5 20t-22.5 54q0 61 77 90h-98q-12 0 -12 12v49q0 12 12 12h70l-63 170h-283l-63 -170h70q13 0 13 -12v-49
q0 -12 -13 -12h-223q-12 0 -12 12v49q0 12 12 12h68l231 614q12 31 40 31h36q31 0 41 -31l233 -614h67zM244 316h228l-112 301h-7z" />
    <glyph glyph-name="Aring.ss01" horiz-adv-x="716" 
d="M358 761q-38 0 -66.5 28.5t-28.5 67.5q0 38 28.5 66t66.5 28q39 0 67 -28t28 -66q0 -39 -28 -67.5t-67 -28.5zM358 819q15 0 25.5 10.5t10.5 27.5q0 16 -10.5 26.5t-25.5 10.5q-14 0 -24.5 -10.5t-10.5 -26.5q0 -17 10.5 -27.5t24.5 -10.5zM492 0q-12 0 -12 12v49
q0 12 12 12h70l-63 170h-283l-63 -170h70q13 0 13 -12v-49q0 -12 -13 -12h-223q-12 0 -12 12v49q0 12 12 12h68l231 614q12 31 40 31h36q31 0 41 -31l233 -614h67q13 0 13 -12v-49q0 -12 -13 -12h-224zM360 617h-7l-109 -301h228z" />
    <glyph glyph-name="Atilde.ss01" horiz-adv-x="716" 
d="M506 935q12 0 12 -12q0 -118 -90 -118q-40 0 -78 23.5t-57 23.5q-34 0 -34 -46q0 -12 -12 -12h-37q-12 0 -12 12q0 52 22.5 81t66.5 29q37 0 77 -23.5t61 -23.5q32 0 32 54q0 12 12 12h37zM492 0q-12 0 -12 12v49q0 12 12 12h70l-63 170h-283l-63 -170h70q13 0 13 -12
v-49q0 -12 -13 -12h-223q-12 0 -12 12v49q0 12 12 12h68l231 614q12 31 40 31h36q31 0 41 -31l233 -614h67q13 0 13 -12v-49q0 -12 -13 -12h-224zM360 617h-7l-109 -301h228z" />
    <glyph glyph-name="K.ss01" horiz-adv-x="735" 
d="M673 0q-54 0 -103 28t-79 62.5t-56.5 83t-35 71t-16.5 45.5q-1 2 -1 3h-162v-220h93q12 0 12 -12v-49q0 -12 -12 -12h-255q-12 0 -12 12v49q0 12 12 12h77v572h-77q-12 0 -12 12v49q0 12 12 12h223q12 0 12 -12v-49q0 -12 -12 -12h-61v-284h105q106 0 157.5 63t52.5 221
h-69q-12 0 -12 12v49q0 12 12 12h221q13 0 13 -12v-49q0 -12 -13 -12h-68q0 -144 -41.5 -220.5t-116.5 -111.5q4 -13 9.5 -27.5t27.5 -57t46.5 -73t65.5 -56.5t85 -26q12 0 12 -12v-49q0 -12 -12 -12h-22z" />
    <glyph glyph-name="Kcommaaccent.ss01" horiz-adv-x="735" 
d="M673 0q-54 0 -103 28t-79 62.5t-56.5 83t-35 71t-16.5 45.5q-1 2 -1 3h-162v-220h93q12 0 12 -12v-49q0 -12 -12 -12h-255q-12 0 -12 12v49q0 12 12 12h77v572h-77q-12 0 -12 12v49q0 12 12 12h223q12 0 12 -12v-49q0 -12 -12 -12h-61v-284h105q106 0 157.5 63t52.5 221
h-69q-12 0 -12 12v49q0 12 12 12h221q13 0 13 -12v-49q0 -12 -13 -12h-68q0 -144 -41.5 -220.5t-116.5 -111.5q4 -13 9.5 -27.5t27.5 -57t46.5 -73t65.5 -56.5t85 -26q12 0 12 -12v-49q0 -12 -12 -12h-22zM333 -205q0 6 7 6q15 0 28 15.5t13 37.5l-2 11q-5 -5 -19 -5
q-18 0 -30.5 13t-12.5 34q0 19 13.5 33t33.5 14q27 0 43 -20t16 -55q0 -55 -23 -82t-60 -27q-7 0 -7 6v19z" />
    <glyph glyph-name="R.ss01" horiz-adv-x="685" 
d="M631 0q-38 0 -73 16t-61.5 41.5t-49.5 56.5t-38.5 62.5t-26.5 57t-16 41.5l-5 16h-141v-218h92q12 0 12 -12v-49q0 -12 -12 -12h-254q-12 0 -12 12v49q0 12 12 12h77v572h-77q-12 0 -12 12v49q0 12 12 12h309q107 0 174 -56.5t67 -159.5q0 -83 -47 -135.5t-116 -64.5
q3 -9 9 -24.5t26 -55t42 -69.5t57.5 -55t72.5 -25q13 0 13 -12v-49q0 -12 -13 -12h-21zM345 360q84 0 128.5 32t44.5 107q0 78 -47.5 112t-125.5 34h-125v-285h125z" />
    <glyph glyph-name="Racute.ss01" horiz-adv-x="685" 
d="M271 768q-11 -7 -18 6l-22 31q-9 11 3 19l176 123q10 8 19 -3l28 -42q5 -10 -5 -19zM631 0q-38 0 -73 16t-61.5 41.5t-49.5 56.5t-38.5 62.5t-26.5 57t-16 41.5l-5 16h-141v-218h92q12 0 12 -12v-49q0 -12 -12 -12h-254q-12 0 -12 12v49q0 12 12 12h77v572h-77
q-12 0 -12 12v49q0 12 12 12h309q107 0 174 -56.5t67 -159.5q0 -83 -47 -135.5t-116 -64.5q3 -9 9 -24.5t26 -55t42 -69.5t57.5 -55t72.5 -25q13 0 13 -12v-49q0 -12 -13 -12h-21zM345 360q84 0 128.5 32t44.5 107q0 78 -47.5 112t-125.5 34h-125v-285h125z" />
    <glyph glyph-name="Rcaron.ss01" horiz-adv-x="685" 
d="M353 771q-7 -5 -10 -5q-5 0 -9 4l-155 126q-11 8 -2 19l24 28q9 10 19 2l123 -95l123 95q12 8 19 -2l25 -28q8 -9 -2 -19zM631 0q-38 0 -73 16t-61.5 41.5t-49.5 56.5t-38.5 62.5t-26.5 57t-16 41.5l-5 16h-141v-218h92q12 0 12 -12v-49q0 -12 -12 -12h-254q-12 0 -12 12
v49q0 12 12 12h77v572h-77q-12 0 -12 12v49q0 12 12 12h309q107 0 174 -56.5t67 -159.5q0 -83 -47 -135.5t-116 -64.5q3 -9 9 -24.5t26 -55t42 -69.5t57.5 -55t72.5 -25q13 0 13 -12v-49q0 -12 -13 -12h-21zM345 360q84 0 128.5 32t44.5 107q0 78 -47.5 112t-125.5 34h-125
v-285h125z" />
    <glyph glyph-name="Rcommaaccent.ss01" horiz-adv-x="685" 
d="M631 0q-38 0 -73 16t-61.5 41.5t-49.5 56.5t-38.5 62.5t-26.5 57t-16 41.5l-5 16h-141v-218h92q12 0 12 -12v-49q0 -12 -12 -12h-254q-12 0 -12 12v49q0 12 12 12h77v572h-77q-12 0 -12 12v49q0 12 12 12h309q107 0 174 -56.5t67 -159.5q0 -83 -47 -135.5t-116 -64.5
q3 -9 9 -24.5t26 -55t42 -69.5t57.5 -55t72.5 -25q13 0 13 -12v-49q0 -12 -13 -12h-21zM345 360q84 0 128.5 32t44.5 107q0 78 -47.5 112t-125.5 34h-125v-285h125zM308 -205q0 6 7 6q15 0 28 15.5t13 37.5l-2 11q-5 -5 -19 -5q-18 0 -30.5 13t-12.5 34q0 19 14 33t33 14
q27 0 43 -20t16 -55q0 -55 -23 -82t-60 -27q-7 0 -7 6v19z" />
    <glyph glyph-name="aacute.001" horiz-adv-x="556" 
d="M222 542q-10 -7 -19 3l-25 29q-9 11 2 19l161 141q10 10 19 -1l32 -38q7 -10 -2 -19zM441 0q-43 0 -43 42v51h-2q-73 -101 -195 -101q-72 0 -118 37.5t-46 101.5q0 158 268 158h84v13q0 127 -130 127q-30 0 -56 -5t-42.5 -12t-28 -14t-17.5 -12t-7 -5q-10 -4 -15 3
l-28 35q-7 8 2 16q3 4 9 9.5t23 15.5t37.5 18t54 14.5t71.5 6.5q210 0 210 -200v-232h56q12 0 12 -12v-43q0 -12 -12 -12h-87zM389 222h-80q-42 0 -73 -3.5t-58 -11.5t-41 -24.5t-14 -40.5q0 -34 27.5 -56t73.5 -22q98 0 165 90v68z" />
    <glyph glyph-name="a.ss01" horiz-adv-x="608" 
d="M481 0q-43 0 -43 42v58h-2q-47 -107 -167 -107q-102 0 -163.5 71t-61.5 183q0 114 62.5 183t162.5 69q66 0 107.5 -26.5t58.5 -64.5h1v71q0 13 12 13h52q12 0 12 -13v-412h56q12 0 12 -12v-43q0 -12 -12 -12h-87zM281 63q65 0 108.5 50t43.5 133q0 85 -43.5 134
t-108.5 49q-67 0 -111 -50t-44 -134q0 -81 44 -131.5t111 -50.5z" />
    <glyph glyph-name="aacute.ss01" horiz-adv-x="608" 
d="M236 542q-10 -7 -19 3l-25 29q-9 11 2 19l161 141q10 10 19 -1l32 -38q7 -10 -2 -19zM481 0q-43 0 -43 42v58h-2q-47 -107 -167 -107q-102 0 -163.5 71t-61.5 183q0 114 62.5 183t162.5 69q66 0 107.5 -26.5t58.5 -64.5h1v71q0 13 12 13h52q12 0 12 -13v-412h56
q12 0 12 -12v-43q0 -12 -12 -12h-87zM281 63q65 0 108.5 50t43.5 133q0 85 -43.5 134t-108.5 49q-67 0 -111 -50t-44 -134q0 -81 44 -131.5t111 -50.5z" />
    <glyph glyph-name="abreve.ss01" horiz-adv-x="608" 
d="M406 714q13 0 13 -13q0 -67 -39 -103t-102 -36q-62 0 -100.5 36t-38.5 103q0 13 13 13h42q13 0 13 -13q0 -37 20.5 -57.5t50.5 -20.5q31 0 52 20.5t21 57.5q0 13 13 13h42zM481 0q-43 0 -43 42v58h-2q-47 -107 -167 -107q-102 0 -163.5 71t-61.5 183q0 114 62.5 183
t162.5 69q66 0 107.5 -26.5t58.5 -64.5h1v71q0 13 12 13h52q12 0 12 -13v-412h56q12 0 12 -12v-43q0 -12 -12 -12h-87zM281 63q65 0 108.5 50t43.5 133q0 85 -43.5 134t-108.5 49q-67 0 -111 -50t-44 -134q0 -81 44 -131.5t111 -50.5z" />
    <glyph glyph-name="acircumflex.ss01" horiz-adv-x="608" 
d="M420 549q-8 -10 -19 -2l-123 105l-123 -105q-9 -8 -19 2l-24 29q-9 11 2 19l155 136q4 4 9 4q6 0 10 -5l155 -135q10 -10 2 -19zM481 0q-43 0 -43 42v58h-2q-47 -107 -167 -107q-102 0 -163.5 71t-61.5 183q0 114 62.5 183t162.5 69q66 0 107.5 -26.5t58.5 -64.5h1v71
q0 13 12 13h52q12 0 12 -13v-412h56q12 0 12 -12v-43q0 -12 -12 -12h-87zM281 63q65 0 108.5 50t43.5 133q0 85 -43.5 134t-108.5 49q-67 0 -111 -50t-44 -134q0 -81 44 -131.5t111 -50.5z" />
    <glyph glyph-name="adieresis.ss01" horiz-adv-x="608" 
d="M236 638q0 -23 -16.5 -39.5t-39.5 -16.5t-39 16.5t-16 39.5t16 40t39 17t39.5 -17t16.5 -40zM431 638q0 -23 -16.5 -39.5t-40.5 -16.5q-23 0 -38.5 16.5t-15.5 39.5q0 24 15.5 40.5t38.5 16.5q24 0 40.5 -17t16.5 -40zM481 0q-43 0 -43 42v58h-2q-47 -107 -167 -107
q-102 0 -163.5 71t-61.5 183q0 114 62.5 183t162.5 69q66 0 107.5 -26.5t58.5 -64.5h1v71q0 13 12 13h52q12 0 12 -13v-412h56q12 0 12 -12v-43q0 -12 -12 -12h-87zM281 63q65 0 108.5 50t43.5 133q0 85 -43.5 134t-108.5 49q-67 0 -111 -50t-44 -134q0 -81 44 -131.5
t111 -50.5z" />
    <glyph glyph-name="agrave.ss01" horiz-adv-x="608" 
d="M322 543l-168 134q-9 7 -2 19l32 37q9 11 19 2l161 -142q11 -8 2 -19l-25 -29q-9 -10 -19 -2zM481 0q-43 0 -43 42v58h-2q-47 -107 -167 -107q-102 0 -163.5 71t-61.5 183q0 114 62.5 183t162.5 69q66 0 107.5 -26.5t58.5 -64.5h1v71q0 13 12 13h52q12 0 12 -13v-412h56
q12 0 12 -12v-43q0 -12 -12 -12h-87zM281 63q65 0 108.5 50t43.5 133q0 85 -43.5 134t-108.5 49q-67 0 -111 -50t-44 -134q0 -81 44 -131.5t111 -50.5z" />
    <glyph glyph-name="amacron.ss01" horiz-adv-x="608" 
d="M130 598q-13 0 -13 13v42q0 14 13 14h296q13 0 13 -14v-42q0 -13 -13 -13h-296zM481 0q-43 0 -43 42v58h-2q-47 -107 -167 -107q-102 0 -163.5 71t-61.5 183q0 114 62.5 183t162.5 69q66 0 107.5 -26.5t58.5 -64.5h1v71q0 13 12 13h52q12 0 12 -13v-412h56q12 0 12 -12
v-43q0 -12 -12 -12h-87zM281 63q65 0 108.5 50t43.5 133q0 85 -43.5 134t-108.5 49q-67 0 -111 -50t-44 -134q0 -81 44 -131.5t111 -50.5z" />
    <glyph glyph-name="aogonek.ss01" horiz-adv-x="608" 
d="M549 0q-68 -34 -68 -75q0 -16 8 -24.5t20 -8.5q18 0 36 10q13 7 18 -1l14 -25q6 -10 -4 -17q-35 -23 -74 -23q-38 0 -60.5 20t-22.5 54q0 61 77 90h-12q-43 0 -43 42v58h-2q-47 -107 -167 -107q-102 0 -163.5 71t-61.5 183q0 114 62.5 183t162.5 69q66 0 107.5 -26.5
t58.5 -64.5h1v71q0 13 12 13h52q12 0 12 -13v-412h56q12 0 12 -12v-43q0 -12 -12 -12h-19zM281 63q65 0 108.5 50t43.5 133q0 85 -43.5 134t-108.5 49q-67 0 -111 -50t-44 -134q0 -81 44 -131.5t111 -50.5z" />
    <glyph glyph-name="aring.ss01" horiz-adv-x="608" 
d="M278 554q-38 0 -66.5 28.5t-28.5 67.5q0 38 28.5 66t66.5 28q39 0 67 -28t28 -66q0 -39 -28 -67.5t-67 -28.5zM278 612q15 0 25.5 10.5t10.5 27.5q0 16 -10.5 26.5t-25.5 10.5q-14 0 -24.5 -10.5t-10.5 -26.5q0 -17 10.5 -27.5t24.5 -10.5zM481 0q-43 0 -43 42v58h-2
q-47 -107 -167 -107q-102 0 -163.5 71t-61.5 183q0 114 62.5 183t162.5 69q66 0 107.5 -26.5t58.5 -64.5h1v71q0 13 12 13h52q12 0 12 -13v-412h56q12 0 12 -12v-43q0 -12 -12 -12h-87zM281 63q65 0 108.5 50t43.5 133q0 85 -43.5 134t-108.5 49q-67 0 -111 -50t-44 -134
q0 -81 44 -131.5t111 -50.5z" />
    <glyph glyph-name="atilde.ss01" horiz-adv-x="608" 
d="M425 706q12 0 12 -12q0 -120 -90 -120q-41 0 -80 24.5t-58 24.5q-16 0 -23.5 -10t-7.5 -36q0 -12 -12 -12h-37q-12 0 -12 12q0 53 22.5 82.5t66.5 29.5q37 0 77 -24.5t61 -24.5q18 0 25 12t7 42q0 12 12 12h37zM481 0q-43 0 -43 42v58h-2q-47 -107 -167 -107
q-102 0 -163.5 71t-61.5 183q0 114 62.5 183t162.5 69q66 0 107.5 -26.5t58.5 -64.5h1v71q0 13 12 13h52q12 0 12 -13v-412h56q12 0 12 -12v-43q0 -12 -12 -12h-87zM281 63q65 0 108.5 50t43.5 133q0 85 -43.5 134t-108.5 49q-67 0 -111 -50t-44 -134q0 -81 44 -131.5
t111 -50.5z" />
    <glyph glyph-name="k.ss01" horiz-adv-x="585" 
d="M306 248q56 0 97.5 22.5t41.5 71.5q0 39 -27 63t-73 24q-70 0 -118.5 -58t-48.5 -121l-1 -183h53q13 0 13 -12v-43q0 -12 -12 -12h-192q-12 0 -12 12v43q0 12 12 12h56v584h-56q-13 0 -12 12l-1 43q2 12 13 12h126q12 0 12 -12v-322q17 41 63 78t115 37q83 0 128 -42.5
t45 -107.5q0 -66 -51.5 -108.5t-116.5 -48.5l142 -125h43q13 0 13 -12v-43q0 -12 -13 -12h-53q-21 0 -56 31l-167 149q-5 3 -5 10v46q0 12 12 12h30z" />
    <glyph glyph-name="kcommaaccent.ss01" horiz-adv-x="585" 
d="M306 248q56 0 97.5 22.5t41.5 71.5q0 39 -27 63t-73 24q-70 0 -118.5 -58t-48.5 -121l-1 -183h53q13 0 13 -12v-43q0 -12 -12 -12h-192q-12 0 -12 12v43q0 12 12 12h56v584h-56q-13 0 -12 12l-1 43q2 12 13 12h126q12 0 12 -12v-322q17 41 63 78t115 37q83 0 128 -42.5
t45 -107.5q0 -66 -51.5 -108.5t-116.5 -48.5l142 -125h43q13 0 13 -12v-43q0 -12 -13 -12h-53q-21 0 -56 31l-167 149q-5 3 -5 10v46q0 12 12 12h30zM258 -205q0 6 7 6q15 0 28 15.5t13 37.5l-2 11q-5 -5 -19 -5q-18 0 -30.5 13t-12.5 34q0 19 14 33t33 14q27 0 43 -20
t16 -55q0 -55 -23 -82t-60 -27q-7 0 -7 6v19z" />
    <glyph glyph-name="y.ss01" horiz-adv-x="579" 
d="M498 -19q0 -107 -65.5 -161t-172.5 -54q-24 0 -46 2.5t-38.5 7t-32 10t-26.5 11t-21 12t-15 10.5t-10 9l-5 4q-10 10 -3 18l26 37q6 9 17 1q1 0 6.5 -4.5t11 -8.5t15 -9.5t21.5 -10t26.5 -8.5t33.5 -6.5t39 -2.5q73 0 118.5 35t45.5 108v98h-2q-45 -86 -157 -86
q-80 0 -126.5 47.5t-46.5 126.5l-1 258h-56q-12 0 -12 12v43q0 12 12 12h95q23 0 33.5 -9.5t10.5 -32.5v-263q0 -58 28 -90t82 -32q28 0 52 8.5t38 20.5t24 25t14 21t4 10v275h-53q-12 0 -12 12v43q0 12 12 12h124q12 0 12 -12v-499z" />
    <glyph glyph-name="yacute.ss01" horiz-adv-x="579" 
d="M248 542q-10 -7 -19 3l-25 29q-9 11 2 19l161 141q10 10 19 -1l32 -38q7 -10 -2 -19zM498 -19q0 -107 -65.5 -161t-172.5 -54q-24 0 -46 2.5t-38.5 7t-32 10t-26.5 11t-21 12t-15 10.5t-10 9l-5 4q-10 10 -3 18l26 37q6 9 17 1q1 0 6.5 -4.5t11 -8.5t15 -9.5t21.5 -10
t26.5 -8.5t33.5 -6.5t39 -2.5q73 0 118.5 35t45.5 108v98h-2q-45 -86 -157 -86q-80 0 -126.5 47.5t-46.5 126.5l-1 258h-56q-12 0 -12 12v43q0 12 12 12h95q23 0 33.5 -9.5t10.5 -32.5v-263q0 -58 28 -90t82 -32q28 0 52 8.5t38 20.5t24 25t14 21t4 10v275h-53q-12 0 -12 12
v43q0 12 12 12h124q12 0 12 -12v-499z" />
    <glyph glyph-name="ycircumflex.ss01" horiz-adv-x="579" 
d="M432 549q-8 -10 -19 -2l-123 105l-123 -105q-9 -8 -19 2l-24 29q-9 11 2 19l155 136q4 4 9 4q6 0 10 -5l155 -135q10 -10 2 -19zM498 -19q0 -107 -65.5 -161t-172.5 -54q-24 0 -46 2.5t-38.5 7t-32 10t-26.5 11t-21 12t-15 10.5t-10 9l-5 4q-10 10 -3 18l26 37q6 9 17 1
q1 0 6.5 -4.5t11 -8.5t15 -9.5t21.5 -10t26.5 -8.5t33.5 -6.5t39 -2.5q73 0 118.5 35t45.5 108v98h-2q-45 -86 -157 -86q-80 0 -126.5 47.5t-46.5 126.5l-1 258h-56q-12 0 -12 12v43q0 12 12 12h95q23 0 33.5 -9.5t10.5 -32.5v-263q0 -58 28 -90t82 -32q28 0 52 8.5t38 20.5
t24 25t14 21t4 10v275h-53q-12 0 -12 12v43q0 12 12 12h124q12 0 12 -12v-499z" />
    <glyph glyph-name="ydieresis.ss01" horiz-adv-x="579" 
d="M248 638q0 -23 -16.5 -39.5t-39.5 -16.5t-39 16.5t-16 39.5t16 40t39 17t39.5 -17t16.5 -40zM443 638q0 -23 -16.5 -39.5t-40.5 -16.5q-23 0 -38.5 16.5t-15.5 39.5q0 24 15.5 40.5t38.5 16.5q24 0 40.5 -17t16.5 -40zM498 -19q0 -107 -65.5 -161t-172.5 -54
q-24 0 -46 2.5t-38.5 7t-32 10t-26.5 11t-21 12t-15 10.5t-10 9l-5 4q-10 10 -3 18l26 37q6 9 17 1q1 0 6.5 -4.5t11 -8.5t15 -9.5t21.5 -10t26.5 -8.5t33.5 -6.5t39 -2.5q73 0 118.5 35t45.5 108v98h-2q-45 -86 -157 -86q-80 0 -126.5 47.5t-46.5 126.5l-1 258h-56
q-12 0 -12 12v43q0 12 12 12h95q23 0 33.5 -9.5t10.5 -32.5v-263q0 -58 28 -90t82 -32q28 0 52 8.5t38 20.5t24 25t14 21t4 10v275h-53q-12 0 -12 12v43q0 12 12 12h124q12 0 12 -12v-499z" />
    <glyph glyph-name="ygrave.ss01" horiz-adv-x="579" 
d="M334 543l-168 134q-9 7 -2 19l32 37q9 11 19 2l161 -142q11 -8 2 -19l-25 -29q-9 -10 -19 -2zM498 -19q0 -107 -65.5 -161t-172.5 -54q-24 0 -46 2.5t-38.5 7t-32 10t-26.5 11t-21 12t-15 10.5t-10 9l-5 4q-10 10 -3 18l26 37q6 9 17 1q1 0 6.5 -4.5t11 -8.5t15 -9.5
t21.5 -10t26.5 -8.5t33.5 -6.5t39 -2.5q73 0 118.5 35t45.5 108v98h-2q-45 -86 -157 -86q-80 0 -126.5 47.5t-46.5 126.5l-1 258h-56q-12 0 -12 12v43q0 12 12 12h95q23 0 33.5 -9.5t10.5 -32.5v-263q0 -58 28 -90t82 -32q28 0 52 8.5t38 20.5t24 25t14 21t4 10v275h-53
q-12 0 -12 12v43q0 12 12 12h124q12 0 12 -12v-499z" />
    <glyph glyph-name="uni1EF9.ss01" horiz-adv-x="579" 
d="M437 706q12 0 12 -12q0 -120 -90 -120q-41 0 -80 24.5t-58 24.5q-16 0 -23.5 -10t-7.5 -36q0 -12 -12 -12h-37q-12 0 -12 12q0 53 22.5 82.5t66.5 29.5q37 0 77 -24.5t61 -24.5q18 0 25 12t7 42q0 12 12 12h37zM498 -19q0 -107 -65.5 -161t-172.5 -54q-24 0 -46 2.5
t-38.5 7t-32 10t-26.5 11t-21 12t-15 10.5t-10 9l-5 4q-10 10 -3 18l26 37q6 9 17 1q1 0 6.5 -4.5t11 -8.5t15 -9.5t21.5 -10t26.5 -8.5t33.5 -6.5t39 -2.5q73 0 118.5 35t45.5 108v98h-2q-45 -86 -157 -86q-80 0 -126.5 47.5t-46.5 126.5l-1 258h-56q-12 0 -12 12v43
q0 12 12 12h95q23 0 33.5 -9.5t10.5 -32.5v-263q0 -58 28 -90t82 -32q28 0 52 8.5t38 20.5t24 25t14 21t4 10v275h-53q-12 0 -12 12v43q0 12 12 12h124q12 0 12 -12v-499z" />
    <glyph glyph-name="a.ss02" horiz-adv-x="556" 
d="M441 0q-23 0 -33 9.5t-10 32.5v51h-2q-73 -101 -196 -101q-71 0 -117 37.5t-46 101.5q0 158 267 158h85v10q0 70 -34 100t-97 30q-34 0 -66.5 -8t-44.5 -15v-72q0 -13 -13 -13h-45q-12 0 -12 13v118q59 47 184 47q211 0 211 -200v-232h56q12 0 12 -12v-43q0 -12 -12 -12
h-87zM389 222h-80q-88 0 -137 -17t-49 -64q0 -34 27 -55.5t74 -21.5q94 0 165 89v69z" />
    <glyph glyph-name="aacute.ss02" horiz-adv-x="556" 
d="M231 542q-10 -7 -19 3l-25 29q-9 11 2 19l161 141q10 10 19 -1l32 -38q7 -10 -2 -19zM441 0q-23 0 -33 9.5t-10 32.5v51h-2q-73 -101 -196 -101q-71 0 -117 37.5t-46 101.5q0 158 267 158h85v10q0 70 -34 100t-97 30q-34 0 -66.5 -8t-44.5 -15v-72q0 -13 -13 -13h-45
q-12 0 -12 13v118q59 47 184 47q211 0 211 -200v-232h56q12 0 12 -12v-43q0 -12 -12 -12h-87zM389 222h-80q-88 0 -137 -17t-49 -64q0 -34 27 -55.5t74 -21.5q94 0 165 89v69z" />
    <glyph glyph-name="abreve.ss02" horiz-adv-x="556" 
d="M401 714q13 0 13 -13q0 -67 -39 -103t-102 -36q-62 0 -100.5 36t-38.5 103q0 13 13 13h42q13 0 13 -13q0 -37 20.5 -57.5t50.5 -20.5q31 0 52 20.5t21 57.5q0 13 13 13h42zM441 0q-23 0 -33 9.5t-10 32.5v51h-2q-73 -101 -196 -101q-71 0 -117 37.5t-46 101.5
q0 158 267 158h85v10q0 70 -34 100t-97 30q-34 0 -66.5 -8t-44.5 -15v-72q0 -13 -13 -13h-45q-12 0 -12 13v118q59 47 184 47q211 0 211 -200v-232h56q12 0 12 -12v-43q0 -12 -12 -12h-87zM389 222h-80q-88 0 -137 -17t-49 -64q0 -34 27 -55.5t74 -21.5q94 0 165 89v69z" />
    <glyph glyph-name="acircumflex.ss02" horiz-adv-x="556" 
d="M415 549q-8 -10 -19 -2l-123 105l-123 -105q-9 -8 -19 2l-24 29q-9 11 2 19l155 136q4 4 9 4q6 0 10 -5l155 -135q10 -10 2 -19zM441 0q-23 0 -33 9.5t-10 32.5v51h-2q-73 -101 -196 -101q-71 0 -117 37.5t-46 101.5q0 158 267 158h85v10q0 70 -34 100t-97 30
q-34 0 -66.5 -8t-44.5 -15v-72q0 -13 -13 -13h-45q-12 0 -12 13v118q59 47 184 47q211 0 211 -200v-232h56q12 0 12 -12v-43q0 -12 -12 -12h-87zM389 222h-80q-88 0 -137 -17t-49 -64q0 -34 27 -55.5t74 -21.5q94 0 165 89v69z" />
    <glyph glyph-name="adieresis.ss02" horiz-adv-x="556" 
d="M231 638q0 -23 -16.5 -39.5t-39.5 -16.5t-39 16.5t-16 39.5t16 40t39 17t39.5 -17t16.5 -40zM426 638q0 -23 -16.5 -39.5t-40.5 -16.5q-23 0 -38.5 16.5t-15.5 39.5q0 24 15.5 40.5t38.5 16.5q24 0 40.5 -17t16.5 -40zM441 0q-23 0 -33 9.5t-10 32.5v51h-2
q-73 -101 -196 -101q-71 0 -117 37.5t-46 101.5q0 158 267 158h85v10q0 70 -34 100t-97 30q-34 0 -66.5 -8t-44.5 -15v-72q0 -13 -13 -13h-45q-12 0 -12 13v118q59 47 184 47q211 0 211 -200v-232h56q12 0 12 -12v-43q0 -12 -12 -12h-87zM389 222h-80q-88 0 -137 -17
t-49 -64q0 -34 27 -55.5t74 -21.5q94 0 165 89v69z" />
    <glyph glyph-name="agrave.ss02" horiz-adv-x="556" 
d="M317 543l-168 134q-9 7 -2 19l32 37q9 11 19 2l161 -142q11 -8 2 -19l-25 -29q-9 -10 -19 -2zM441 0q-23 0 -33 9.5t-10 32.5v51h-2q-73 -101 -196 -101q-71 0 -117 37.5t-46 101.5q0 158 267 158h85v10q0 70 -34 100t-97 30q-34 0 -66.5 -8t-44.5 -15v-72q0 -13 -13 -13
h-45q-12 0 -12 13v118q59 47 184 47q211 0 211 -200v-232h56q12 0 12 -12v-43q0 -12 -12 -12h-87zM389 222h-80q-88 0 -137 -17t-49 -64q0 -34 27 -55.5t74 -21.5q94 0 165 89v69z" />
    <glyph glyph-name="amacron.ss02" horiz-adv-x="556" 
d="M125 598q-13 0 -13 13v42q0 14 13 14h296q13 0 13 -14v-42q0 -13 -13 -13h-296zM441 0q-23 0 -33 9.5t-10 32.5v51h-2q-73 -101 -196 -101q-71 0 -117 37.5t-46 101.5q0 158 267 158h85v10q0 70 -34 100t-97 30q-34 0 -66.5 -8t-44.5 -15v-72q0 -13 -13 -13h-45
q-12 0 -12 13v118q59 47 184 47q211 0 211 -200v-232h56q12 0 12 -12v-43q0 -12 -12 -12h-87zM389 222h-80q-88 0 -137 -17t-49 -64q0 -34 27 -55.5t74 -21.5q94 0 165 89v69z" />
    <glyph glyph-name="aogonek.ss02" horiz-adv-x="556" 
d="M539 -124q6 -10 -4 -17q-35 -23 -74 -23q-38 0 -60.5 20t-22.5 54q0 61 77 90h-14q-23 0 -33 9.5t-10 32.5v51h-2q-73 -101 -196 -101q-71 0 -117 37.5t-46 101.5q0 158 267 158h85v10q0 70 -34 100t-97 30q-34 0 -66.5 -8t-44.5 -15v-72q0 -13 -13 -13h-45q-12 0 -12 13
v118q59 47 184 47q211 0 211 -200v-232h56q12 0 12 -12v-43q0 -12 -12 -12h-17q-68 -34 -68 -75q0 -16 8 -24.5t20 -8.5q18 0 36 10q13 7 18 -1zM389 153v69h-80q-88 0 -137 -17t-49 -64q0 -34 27 -55.5t74 -21.5q94 0 165 89z" />
    <glyph glyph-name="aring.ss02" horiz-adv-x="556" 
d="M273 554q-38 0 -66.5 28.5t-28.5 67.5q0 38 28.5 66t66.5 28q39 0 67 -28t28 -66q0 -39 -28 -67.5t-67 -28.5zM273 612q15 0 25.5 10.5t10.5 27.5q0 16 -10.5 26.5t-25.5 10.5q-14 0 -24.5 -10.5t-10.5 -26.5q0 -17 10.5 -27.5t24.5 -10.5zM441 0q-23 0 -33 9.5t-10 32.5
v51h-2q-73 -101 -196 -101q-71 0 -117 37.5t-46 101.5q0 158 267 158h85v10q0 70 -34 100t-97 30q-34 0 -66.5 -8t-44.5 -15v-72q0 -13 -13 -13h-45q-12 0 -12 13v118q59 47 184 47q211 0 211 -200v-232h56q12 0 12 -12v-43q0 -12 -12 -12h-87zM389 222h-80q-88 0 -137 -17
t-49 -64q0 -34 27 -55.5t74 -21.5q94 0 165 89v69z" />
    <glyph glyph-name="atilde.ss02" horiz-adv-x="556" 
d="M420 706q12 0 12 -12q0 -120 -90 -120q-41 0 -80 24.5t-58 24.5q-16 0 -23.5 -10t-7.5 -36q0 -12 -12 -12h-37q-12 0 -12 12q0 53 22.5 82.5t66.5 29.5q37 0 77 -24.5t61 -24.5q18 0 25 12t7 42q0 12 12 12h37zM441 0q-23 0 -33 9.5t-10 32.5v51h-2q-73 -101 -196 -101
q-71 0 -117 37.5t-46 101.5q0 158 267 158h85v10q0 70 -34 100t-97 30q-34 0 -66.5 -8t-44.5 -15v-72q0 -13 -13 -13h-45q-12 0 -12 13v118q59 47 184 47q211 0 211 -200v-232h56q12 0 12 -12v-43q0 -12 -12 -12h-87zM389 222h-80q-88 0 -137 -17t-49 -64q0 -34 27 -55.5
t74 -21.5q94 0 165 89v69z" />
    <glyph glyph-name="zero.slash" horiz-adv-x="688" 
d="M344 -7q-136 0 -212.5 101t-76.5 269q0 160 78 260.5t211 100.5t211 -100.5t78 -260.5q0 -167 -76.5 -268.5t-212.5 -101.5zM248 100l153 535q-27 9 -57 9q-92 0 -145 -75.5t-53 -208.5q0 -194 102 -260zM344 74q94 0 146 74.5t52 211.5q0 184 -96 252l-152 -532
q22 -6 50 -6z" />
    <glyph glyph-name="uni0335.dh" 
d="M-310 240q-13 0 -13 14v42q0 13 13 13h202q14 0 14 -13v-42q0 -14 -14 -14h-202z" />
    <glyph glyph-name="idot" horiz-adv-x="600" 
 />
    </font>
</defs>
</svg>
